M48
METRIC,TZ
T1C0.300
T2C0.400
T3C0.800
T4C0.850
T5C1.000
T6C3.400
%
G90
G05
T1
X50970Y-83530
X51000Y-48000
X51000Y-54000
X51000Y-61800
X51000Y-69000
X51000Y-72500
X51100Y-43400
X52300Y-80700
X53000Y-83500
X54000Y-41000
X54900Y-67500
X55200Y-47200
X55250Y-56000
X57000Y-80800
X57100Y-69200
X59500Y-81800
X60000Y-70500
X60850Y-61300
X61000Y-46200
X61100Y-64800
X61200Y-56100
X61750Y-79200
X63600Y-52000
X64000Y-59500
X65200Y-71200
X65600Y-51600
X66000Y-55100
X66000Y-81000
X66000Y-83000
X66300Y-68550
X66400Y-64450
X66500Y-78500
X68000Y-41300
X68000Y-48400
X70000Y-79000
X70000Y-83000
X70250Y-58750
X70500Y-55500
X70750Y-68000
X71000Y-51000
X74000Y-48200
X74000Y-81000
X74000Y-83000
X74825Y-76057
X74825Y-76858
X75400Y-50200
X75550Y-64350
X75950Y-61045
X76000Y-83000
X76100Y-61850
X77000Y-82000
X78000Y-80000
X78000Y-83000
X79000Y-82000
X79500Y-69500
X79500Y-75000
X79600Y-73750
X79800Y-57600
X79800Y-58800
X79800Y-60000
X79900Y-50550
X80000Y-81000
X80000Y-83000
X80500Y-41100
X80500Y-71500
X80500Y-73000
X80500Y-74500
X80750Y-50550
X80800Y-57000
X80800Y-58200
X80800Y-59400
X80800Y-60600
X81000Y-82000
X81400Y-48200
X81400Y-53500
X81500Y-71000
X81500Y-72250
X81500Y-73750
X81500Y-75000
X81700Y-77500
X81750Y-50550
X81800Y-57600
X81800Y-58800
X81800Y-60000
X82000Y-81000
X82000Y-83000
X83000Y-80000
X83000Y-82000
X84000Y-79000
X84000Y-81000
X84000Y-83000
X84975Y-58629
X85000Y-64000
X85000Y-78000
X85000Y-80000
X85000Y-82000
X85400Y-50900
X85400Y-51800
X86000Y-51300
X86000Y-52200
X86000Y-65100
X86000Y-79000
X86000Y-81000
X86000Y-83000
X87000Y-80000
X87000Y-82000
X87200Y-48000
X87200Y-59150
X87600Y-41200
X88000Y-79000
X88000Y-81000
X88000Y-83000
X89000Y-72000
X89000Y-80000
X89000Y-82000
X90000Y-52000
X90000Y-54000
X90000Y-71000
X90000Y-73000
X90000Y-79000
X90000Y-81000
X90000Y-83000
X91000Y-45000
X91000Y-47000
X91000Y-49000
X91000Y-51000
X91000Y-53000
X91000Y-55000
X91000Y-60000
X91000Y-62000
X91000Y-64000
X91000Y-66000
X91000Y-68000
X91000Y-70000
X91000Y-72000
X91000Y-78000
X91000Y-80000
X91000Y-82000
X92000Y-44000
X92000Y-46000
X92000Y-48000
X92000Y-50000
X92000Y-52000
X92000Y-54000
X92000Y-61000
X92000Y-63000
X92000Y-65000
X92000Y-67000
X92000Y-69000
X92000Y-71000
X92000Y-73000
X92000Y-77000
X92000Y-79000
X92000Y-81000
X92000Y-83000
X93000Y-78000
X93000Y-80000
X93000Y-82000
X94000Y-77000
X94000Y-79000
X94000Y-81000
X94000Y-83000
X95000Y-78000
X95000Y-80000
X95000Y-82000
X96000Y-77000
X96000Y-79000
X96000Y-81000
X96000Y-83000
X97000Y-78000
X97000Y-80000
X97000Y-82000
X98000Y-77000
X98000Y-79000
X98000Y-81000
X98000Y-83000
X99000Y-78000
X99000Y-80000
X99000Y-82000
X99650Y-47100
X99650Y-47950
X99650Y-49750
X99650Y-50600
X99750Y-64400
X99750Y-65350
X99750Y-66900
X99750Y-67850
X100000Y-77000
X100000Y-79000
X100000Y-81000
X100000Y-83000
X100550Y-47100
X100550Y-47950
X100550Y-49750
X100550Y-50600
X100650Y-64400
X100650Y-65350
X100650Y-66900
X100650Y-67850
X101000Y-82000
X101450Y-47100
X101450Y-47950
X101450Y-49750
X101450Y-50600
X101550Y-64400
X101550Y-65350
X101550Y-66900
X101550Y-67850
X102000Y-77000
X102000Y-81000
X102000Y-83000
X102350Y-47100
X102350Y-47950
X102350Y-49750
X102350Y-50600
X102450Y-64400
X102450Y-65350
X102450Y-66900
X102450Y-67850
X103000Y-82000
X103250Y-47100
X103250Y-47950
X103250Y-49750
X103250Y-50600
X103350Y-64400
X103350Y-65350
X103350Y-66900
X103350Y-67850
X104000Y-77000
X104000Y-79000
X104000Y-81000
X104000Y-83000
X106000Y-77000
X106000Y-81000
X106000Y-83000
X108000Y-77000
X108000Y-81000
X108000Y-83000
X110000Y-77000
X110000Y-79000
X110000Y-81000
X110000Y-83000
X112000Y-77000
X112000Y-79000
X112000Y-81000
X112000Y-83000
X114000Y-77000
X114000Y-79000
X114000Y-81000
X114000Y-83000
X116000Y-77000
X116000Y-79000
X116000Y-81000
X116000Y-83000
X118000Y-77000
X118000Y-79000
X118000Y-81000
X118000Y-83000
X120000Y-77000
X120000Y-79000
X120000Y-81000
X120000Y-83000
X121600Y-49500
X121600Y-50450
X121640Y-47000
X121640Y-47950
X121650Y-64500
X121650Y-65450
X121650Y-67000
X121650Y-67950
X122000Y-77000
X122000Y-79000
X122000Y-81000
X122000Y-83000
X122500Y-49500
X122500Y-50450
X122540Y-47000
X122540Y-47950
X122550Y-64500
X122550Y-65450
X122550Y-67000
X122550Y-67950
X123400Y-49500
X123400Y-50450
X123440Y-47000
X123440Y-47950
X123450Y-64500
X123450Y-65450
X123450Y-67000
X123450Y-67950
X124000Y-77000
X124000Y-79000
X124000Y-81000
X124000Y-83000
X124300Y-49500
X124300Y-50450
X124340Y-47000
X124340Y-47950
X124350Y-64500
X124350Y-65450
X124350Y-67000
X124350Y-67950
X125200Y-49500
X125200Y-50450
X125240Y-47000
X125240Y-47950
X125250Y-64500
X125250Y-65450
X125250Y-67000
X125250Y-67950
X126000Y-77000
X126000Y-79000
X126000Y-81000
X126000Y-83000
X128000Y-57000
X128000Y-73000
X128000Y-77000
X128000Y-79000
X128000Y-81000
X128000Y-83000
X130000Y-59000
X130000Y-75000
X130000Y-77000
X130000Y-79000
X130000Y-81000
X130000Y-83000
X132000Y-41000
X132000Y-45000
X132000Y-49000
X132000Y-53000
X132000Y-57000
X132000Y-61000
X132000Y-65000
X132000Y-69000
X132000Y-73000
X132000Y-77000
X132000Y-79000
X132000Y-81000
X132000Y-83000
X134000Y-43000
X134000Y-47000
X134000Y-51000
X134000Y-55000
X134000Y-59000
X134000Y-63000
X134000Y-67000
X134000Y-71000
X134000Y-75000
X134000Y-77000
X134000Y-79000
X134000Y-81000
X134000Y-83000
T2
X53200Y-73100
X53300Y-77900
X57800Y-62600
X57800Y-63950
X57800Y-65200
X58200Y-57800
X58700Y-60630
X58998Y-56914
X59300Y-72400
X59723Y-57752
X60287Y-66087
X60651Y-57380
X61260Y-54760
X61326Y-52833
X61639Y-53783
X62005Y-57271
X62760Y-54760
X62850Y-61150
X62900Y-65950
X63189Y-69003
X63600Y-48600
X63600Y-48600
X63750Y-57500
X63971Y-68254
X64600Y-67100
X65000Y-69900
X65970Y-62082
X66280Y-69874
X66775Y-59539
X67002Y-52602
X67003Y-51576
X68100Y-65300
X68950Y-52900
X69300Y-68000
X71500Y-64300
X71600Y-80900
X74742Y-60296
X74800Y-61700
X74972Y-59323
X74987Y-73113
X75000Y-58302
X75000Y-74113
X75022Y-75179
X75025Y-72100
X75202Y-70261
X75460Y-56835
X78325Y-64304
X85100Y-62500
X85200Y-73000
X87000Y-54600
T3
X52580Y-43480
X52580Y-51100
X55120Y-43480
X55120Y-51100
X57660Y-43480
X57660Y-51100
X60200Y-43480
X60200Y-51100
T4
X76251Y-45200
X78791Y-45200
X81331Y-45200
X83871Y-45200
X86411Y-45200
T5
X93000Y-43000
X93000Y-45000
X93000Y-47000
X93000Y-49000
X93000Y-51000
X93000Y-53000
X93000Y-55000
X93000Y-60000
X93000Y-62000
X93000Y-64000
X93000Y-66000
X93000Y-68000
X93000Y-70000
X93000Y-72000
X95000Y-43000
X95000Y-45000
X95000Y-47000
X95000Y-49000
X95000Y-51000
X95000Y-53000
X95000Y-55000
X95000Y-60000
X95000Y-62000
X95000Y-64000
X95000Y-66000
X95000Y-68000
X95000Y-70000
X95000Y-72000
X97000Y-43000
X97000Y-45000
X97000Y-47000
X97000Y-49000
X97000Y-51000
X97000Y-53000
X97000Y-55000
X97000Y-60000
X97000Y-62000
X97000Y-64000
X97000Y-66000
X97000Y-68000
X97000Y-70000
X97000Y-72000
X99000Y-43000
X99000Y-45000
X99000Y-53000
X99000Y-55000
X99000Y-60000
X99000Y-62000
X99000Y-70000
X99000Y-72000
X101000Y-43000
X101000Y-45000
X101000Y-53000
X101000Y-55000
X101000Y-60000
X101000Y-62000
X101000Y-70000
X101000Y-72000
X103000Y-43000
X103000Y-45000
X103000Y-53000
X103000Y-55000
X103000Y-60000
X103000Y-62000
X103000Y-70000
X103000Y-72000
X107000Y-45500
X107000Y-47500
X107000Y-50000
X107000Y-52000
X107000Y-63000
X107000Y-65000
X107000Y-67500
X107000Y-69500
X108000Y-44000
X108000Y-53500
X108000Y-61500
X108000Y-71000
X109000Y-45500
X109000Y-47500
X109000Y-50000
X109000Y-52000
X109000Y-63000
X109000Y-65000
X109000Y-67500
X109000Y-69500
X111000Y-47500
X111000Y-50000
X111000Y-65000
X111000Y-67500
X117500Y-43500
X117500Y-47500
X117500Y-50000
X117500Y-59000
X117500Y-61000
X117500Y-65000
X117500Y-67500
X117500Y-73500
X118000Y-54000
X118000Y-71500
X118500Y-45500
X118500Y-52000
X118500Y-63000
X118500Y-69500
X119500Y-47500
X119500Y-50000
X119500Y-65000
X119500Y-67500
X120500Y-45000
X120500Y-53000
X120500Y-62000
X120500Y-70000
X122500Y-43000
X122500Y-45000
X122500Y-53000
X122500Y-55000
X122500Y-60000
X122500Y-62000
X122500Y-70000
X122500Y-72000
X123500Y-73500
X124500Y-43000
X124500Y-45000
X124500Y-53000
X124500Y-55000
X124500Y-60000
X124500Y-62000
X124500Y-70000
X124500Y-72000
X127500Y-43000
X127500Y-45000
X127500Y-53000
X127500Y-55000
X127500Y-60000
X127500Y-62000
X127500Y-70000
X127500Y-72000
X129500Y-43000
X129500Y-45000
X129500Y-47000
X129500Y-49000
X129500Y-51000
X129500Y-53000
X129500Y-55000
X129500Y-60000
X129500Y-62000
X129500Y-64000
X129500Y-66000
X129500Y-68000
X129500Y-70000
X129500Y-72000
X67589Y-45200
X70129Y-45200
X72669Y-45200
X102000Y-79000
X107080Y-79000
T6
X114000Y-45200
X114000Y-52400
X114000Y-62700
X114000Y-69900
T5
G00X108600Y-42050
M15
G01X107400Y-42050
M16
G05
G00X108600Y-55550
M15
G01X107400Y-55550
M16
G05
G00X120600Y-42050
M15
G01X119400Y-42050
M16
G05
G00X120600Y-55550
M15
G01X119400Y-55550
M16
G05
G00X108600Y-59550
M15
G01X107400Y-59550
M16
G05
G00X108600Y-73050
M15
G01X107400Y-73050
M16
G05
G00X120600Y-59550
M15
G01X119400Y-59550
M16
G05
G00X120600Y-73050
M15
G01X119400Y-73050
M16
G05
T0
M30
