G04 #@! TF.GenerationSoftware,KiCad,Pcbnew,(5.1.5)-3*
G04 #@! TF.CreationDate,2019-12-28T00:48:41+09:00*
G04 #@! TF.ProjectId,H-Bridge-MD,482d4272-6964-4676-952d-4d442e6b6963,rev?*
G04 #@! TF.SameCoordinates,Original*
G04 #@! TF.FileFunction,Soldermask,Bot*
G04 #@! TF.FilePolarity,Negative*
%FSLAX46Y46*%
G04 Gerber Fmt 4.6, Leading zero omitted, Abs format (unit mm)*
G04 Created by KiCad (PCBNEW (5.1.5)-3) date 2019-12-28 00:48:41*
%MOMM*%
%LPD*%
G04 APERTURE LIST*
%ADD10C,0.050000*%
%ADD11C,0.100000*%
G04 APERTURE END LIST*
D10*
X50000000Y-90000000D02*
X61468000Y-90000000D01*
X63373000Y-90000000D02*
X135000000Y-90000000D01*
X63373000Y-80772000D02*
X61468000Y-80772000D01*
X50000000Y-43500000D02*
G75*
G02X53500000Y-40000000I3500000J0D01*
G01*
X131500000Y-40000000D02*
G75*
G02X135000000Y-43500000I0J-3500000D01*
G01*
X63373000Y-80772000D02*
X63373000Y-90000000D01*
X61468000Y-90000000D02*
X61468000Y-80772000D01*
X131500000Y-40000000D02*
X53500000Y-40000000D01*
X50000000Y-43500000D02*
X50000000Y-90000000D01*
X135000000Y-43500000D02*
X135000000Y-90000000D01*
D11*
G36*
X134346000Y-88843689D02*
G01*
X134335443Y-88856553D01*
X134323893Y-88878161D01*
X134303207Y-88928103D01*
X134262058Y-88989686D01*
X134209686Y-89042058D01*
X134148103Y-89083207D01*
X134079675Y-89111550D01*
X134079674Y-89111550D01*
X134079672Y-89111551D01*
X134007034Y-89126000D01*
X133932966Y-89126000D01*
X133860328Y-89111551D01*
X133860326Y-89111550D01*
X133860325Y-89111550D01*
X133791897Y-89083207D01*
X133730314Y-89042058D01*
X133677942Y-88989686D01*
X133636793Y-88928103D01*
X133616107Y-88878161D01*
X133604557Y-88856553D01*
X133589011Y-88837611D01*
X133570069Y-88822066D01*
X133548459Y-88810515D01*
X133525010Y-88803402D01*
X133500624Y-88801000D01*
X133439376Y-88801000D01*
X133414990Y-88803402D01*
X133391541Y-88810515D01*
X133369930Y-88822066D01*
X133350988Y-88837611D01*
X133335443Y-88856553D01*
X133323893Y-88878161D01*
X133303207Y-88928103D01*
X133262058Y-88989686D01*
X133209686Y-89042058D01*
X133148103Y-89083207D01*
X133079675Y-89111550D01*
X133079674Y-89111550D01*
X133079672Y-89111551D01*
X133007034Y-89126000D01*
X132932966Y-89126000D01*
X132860328Y-89111551D01*
X132860326Y-89111550D01*
X132860325Y-89111550D01*
X132791897Y-89083207D01*
X132730314Y-89042058D01*
X132677942Y-88989686D01*
X132636793Y-88928103D01*
X132616107Y-88878161D01*
X132604557Y-88856553D01*
X132589011Y-88837611D01*
X132570069Y-88822066D01*
X132548459Y-88810515D01*
X132525010Y-88803402D01*
X132500624Y-88801000D01*
X132439376Y-88801000D01*
X132414990Y-88803402D01*
X132391541Y-88810515D01*
X132369930Y-88822066D01*
X132350988Y-88837611D01*
X132335443Y-88856553D01*
X132323893Y-88878161D01*
X132303207Y-88928103D01*
X132262058Y-88989686D01*
X132209686Y-89042058D01*
X132148103Y-89083207D01*
X132079675Y-89111550D01*
X132079674Y-89111550D01*
X132079672Y-89111551D01*
X132007034Y-89126000D01*
X131932966Y-89126000D01*
X131860328Y-89111551D01*
X131860326Y-89111550D01*
X131860325Y-89111550D01*
X131791897Y-89083207D01*
X131730314Y-89042058D01*
X131677942Y-88989686D01*
X131636793Y-88928103D01*
X131616107Y-88878161D01*
X131604557Y-88856553D01*
X131589011Y-88837611D01*
X131570069Y-88822066D01*
X131548459Y-88810515D01*
X131525010Y-88803402D01*
X131500624Y-88801000D01*
X131439376Y-88801000D01*
X131414990Y-88803402D01*
X131391541Y-88810515D01*
X131369930Y-88822066D01*
X131350988Y-88837611D01*
X131335443Y-88856553D01*
X131323893Y-88878161D01*
X131303207Y-88928103D01*
X131262058Y-88989686D01*
X131209686Y-89042058D01*
X131148103Y-89083207D01*
X131079675Y-89111550D01*
X131079674Y-89111550D01*
X131079672Y-89111551D01*
X131007034Y-89126000D01*
X130932966Y-89126000D01*
X130860328Y-89111551D01*
X130860326Y-89111550D01*
X130860325Y-89111550D01*
X130791897Y-89083207D01*
X130730314Y-89042058D01*
X130677942Y-88989686D01*
X130636793Y-88928103D01*
X130616107Y-88878161D01*
X130604557Y-88856553D01*
X130589011Y-88837611D01*
X130570069Y-88822066D01*
X130548459Y-88810515D01*
X130525010Y-88803402D01*
X130500624Y-88801000D01*
X130439376Y-88801000D01*
X130414990Y-88803402D01*
X130391541Y-88810515D01*
X130369930Y-88822066D01*
X130350988Y-88837611D01*
X130335443Y-88856553D01*
X130323893Y-88878161D01*
X130303207Y-88928103D01*
X130262058Y-88989686D01*
X130209686Y-89042058D01*
X130148103Y-89083207D01*
X130079675Y-89111550D01*
X130079674Y-89111550D01*
X130079672Y-89111551D01*
X130007034Y-89126000D01*
X129932966Y-89126000D01*
X129860328Y-89111551D01*
X129860326Y-89111550D01*
X129860325Y-89111550D01*
X129791897Y-89083207D01*
X129730314Y-89042058D01*
X129677942Y-88989686D01*
X129636793Y-88928103D01*
X129616107Y-88878161D01*
X129604557Y-88856553D01*
X129589011Y-88837611D01*
X129570069Y-88822066D01*
X129548459Y-88810515D01*
X129525010Y-88803402D01*
X129500624Y-88801000D01*
X129439376Y-88801000D01*
X129414990Y-88803402D01*
X129391541Y-88810515D01*
X129369930Y-88822066D01*
X129350988Y-88837611D01*
X129335443Y-88856553D01*
X129323893Y-88878161D01*
X129303207Y-88928103D01*
X129262058Y-88989686D01*
X129209686Y-89042058D01*
X129148103Y-89083207D01*
X129079675Y-89111550D01*
X129079674Y-89111550D01*
X129079672Y-89111551D01*
X129007034Y-89126000D01*
X128932966Y-89126000D01*
X128860328Y-89111551D01*
X128860326Y-89111550D01*
X128860325Y-89111550D01*
X128791897Y-89083207D01*
X128730314Y-89042058D01*
X128677942Y-88989686D01*
X128636793Y-88928103D01*
X128616107Y-88878161D01*
X128604557Y-88856553D01*
X128589011Y-88837611D01*
X128570069Y-88822066D01*
X128548459Y-88810515D01*
X128525010Y-88803402D01*
X128500624Y-88801000D01*
X128439376Y-88801000D01*
X128414990Y-88803402D01*
X128391541Y-88810515D01*
X128369930Y-88822066D01*
X128350988Y-88837611D01*
X128335443Y-88856553D01*
X128323893Y-88878161D01*
X128303207Y-88928103D01*
X128262058Y-88989686D01*
X128209686Y-89042058D01*
X128148103Y-89083207D01*
X128079675Y-89111550D01*
X128079674Y-89111550D01*
X128079672Y-89111551D01*
X128007034Y-89126000D01*
X127932966Y-89126000D01*
X127860328Y-89111551D01*
X127860326Y-89111550D01*
X127860325Y-89111550D01*
X127791897Y-89083207D01*
X127730314Y-89042058D01*
X127677942Y-88989686D01*
X127636793Y-88928103D01*
X127616107Y-88878161D01*
X127604557Y-88856553D01*
X127589011Y-88837611D01*
X127570069Y-88822066D01*
X127548459Y-88810515D01*
X127525010Y-88803402D01*
X127500624Y-88801000D01*
X127439376Y-88801000D01*
X127414990Y-88803402D01*
X127391541Y-88810515D01*
X127369930Y-88822066D01*
X127350988Y-88837611D01*
X127335443Y-88856553D01*
X127323893Y-88878161D01*
X127303207Y-88928103D01*
X127262058Y-88989686D01*
X127209686Y-89042058D01*
X127148103Y-89083207D01*
X127079675Y-89111550D01*
X127079674Y-89111550D01*
X127079672Y-89111551D01*
X127007034Y-89126000D01*
X126932966Y-89126000D01*
X126860328Y-89111551D01*
X126860326Y-89111550D01*
X126860325Y-89111550D01*
X126791897Y-89083207D01*
X126730314Y-89042058D01*
X126677942Y-88989686D01*
X126636793Y-88928103D01*
X126616107Y-88878161D01*
X126604557Y-88856553D01*
X126589011Y-88837611D01*
X126570069Y-88822066D01*
X126548459Y-88810515D01*
X126525010Y-88803402D01*
X126500624Y-88801000D01*
X126439376Y-88801000D01*
X126414990Y-88803402D01*
X126391541Y-88810515D01*
X126369930Y-88822066D01*
X126350988Y-88837611D01*
X126335443Y-88856553D01*
X126323893Y-88878161D01*
X126303207Y-88928103D01*
X126262058Y-88989686D01*
X126209686Y-89042058D01*
X126148103Y-89083207D01*
X126079675Y-89111550D01*
X126079674Y-89111550D01*
X126079672Y-89111551D01*
X126007034Y-89126000D01*
X125932966Y-89126000D01*
X125860328Y-89111551D01*
X125860326Y-89111550D01*
X125860325Y-89111550D01*
X125791897Y-89083207D01*
X125730314Y-89042058D01*
X125677942Y-88989686D01*
X125636793Y-88928103D01*
X125616107Y-88878161D01*
X125604557Y-88856553D01*
X125589011Y-88837611D01*
X125570069Y-88822066D01*
X125548459Y-88810515D01*
X125525010Y-88803402D01*
X125500624Y-88801000D01*
X125439376Y-88801000D01*
X125414990Y-88803402D01*
X125391541Y-88810515D01*
X125369930Y-88822066D01*
X125350988Y-88837611D01*
X125335443Y-88856553D01*
X125323893Y-88878161D01*
X125303207Y-88928103D01*
X125262058Y-88989686D01*
X125209686Y-89042058D01*
X125148103Y-89083207D01*
X125079675Y-89111550D01*
X125079674Y-89111550D01*
X125079672Y-89111551D01*
X125007034Y-89126000D01*
X124932966Y-89126000D01*
X124860328Y-89111551D01*
X124860326Y-89111550D01*
X124860325Y-89111550D01*
X124791897Y-89083207D01*
X124730314Y-89042058D01*
X124677942Y-88989686D01*
X124636793Y-88928103D01*
X124616107Y-88878161D01*
X124604557Y-88856553D01*
X124589011Y-88837611D01*
X124570069Y-88822066D01*
X124548459Y-88810515D01*
X124525010Y-88803402D01*
X124500624Y-88801000D01*
X124439376Y-88801000D01*
X124414990Y-88803402D01*
X124391541Y-88810515D01*
X124369930Y-88822066D01*
X124350988Y-88837611D01*
X124335443Y-88856553D01*
X124323893Y-88878161D01*
X124303207Y-88928103D01*
X124262058Y-88989686D01*
X124209686Y-89042058D01*
X124148103Y-89083207D01*
X124079675Y-89111550D01*
X124079674Y-89111550D01*
X124079672Y-89111551D01*
X124007034Y-89126000D01*
X123932966Y-89126000D01*
X123860328Y-89111551D01*
X123860326Y-89111550D01*
X123860325Y-89111550D01*
X123791897Y-89083207D01*
X123730314Y-89042058D01*
X123677942Y-88989686D01*
X123636793Y-88928103D01*
X123616107Y-88878161D01*
X123604557Y-88856553D01*
X123589011Y-88837611D01*
X123570069Y-88822066D01*
X123548459Y-88810515D01*
X123525010Y-88803402D01*
X123500624Y-88801000D01*
X123439376Y-88801000D01*
X123414990Y-88803402D01*
X123391541Y-88810515D01*
X123369930Y-88822066D01*
X123350988Y-88837611D01*
X123335443Y-88856553D01*
X123323893Y-88878161D01*
X123303207Y-88928103D01*
X123262058Y-88989686D01*
X123209686Y-89042058D01*
X123148103Y-89083207D01*
X123079675Y-89111550D01*
X123079674Y-89111550D01*
X123079672Y-89111551D01*
X123007034Y-89126000D01*
X122932966Y-89126000D01*
X122860328Y-89111551D01*
X122860326Y-89111550D01*
X122860325Y-89111550D01*
X122791897Y-89083207D01*
X122730314Y-89042058D01*
X122677942Y-88989686D01*
X122636793Y-88928103D01*
X122616107Y-88878161D01*
X122604557Y-88856553D01*
X122589011Y-88837611D01*
X122570069Y-88822066D01*
X122548459Y-88810515D01*
X122525010Y-88803402D01*
X122500624Y-88801000D01*
X122439376Y-88801000D01*
X122414990Y-88803402D01*
X122391541Y-88810515D01*
X122369930Y-88822066D01*
X122350988Y-88837611D01*
X122335443Y-88856553D01*
X122323893Y-88878161D01*
X122303207Y-88928103D01*
X122262058Y-88989686D01*
X122209686Y-89042058D01*
X122148103Y-89083207D01*
X122079675Y-89111550D01*
X122079674Y-89111550D01*
X122079672Y-89111551D01*
X122007034Y-89126000D01*
X121932966Y-89126000D01*
X121860328Y-89111551D01*
X121860326Y-89111550D01*
X121860325Y-89111550D01*
X121791897Y-89083207D01*
X121730314Y-89042058D01*
X121677942Y-88989686D01*
X121636793Y-88928103D01*
X121616107Y-88878161D01*
X121604557Y-88856553D01*
X121589011Y-88837611D01*
X121570069Y-88822066D01*
X121548459Y-88810515D01*
X121525010Y-88803402D01*
X121500624Y-88801000D01*
X121439376Y-88801000D01*
X121414990Y-88803402D01*
X121391541Y-88810515D01*
X121369930Y-88822066D01*
X121350988Y-88837611D01*
X121335443Y-88856553D01*
X121323893Y-88878161D01*
X121303207Y-88928103D01*
X121262058Y-88989686D01*
X121209686Y-89042058D01*
X121148103Y-89083207D01*
X121079675Y-89111550D01*
X121079674Y-89111550D01*
X121079672Y-89111551D01*
X121007034Y-89126000D01*
X120932966Y-89126000D01*
X120860328Y-89111551D01*
X120860326Y-89111550D01*
X120860325Y-89111550D01*
X120791897Y-89083207D01*
X120730314Y-89042058D01*
X120677942Y-88989686D01*
X120636793Y-88928103D01*
X120616107Y-88878161D01*
X120604557Y-88856553D01*
X120589011Y-88837611D01*
X120570069Y-88822066D01*
X120548459Y-88810515D01*
X120525010Y-88803402D01*
X120500624Y-88801000D01*
X120439376Y-88801000D01*
X120414990Y-88803402D01*
X120391541Y-88810515D01*
X120369930Y-88822066D01*
X120350988Y-88837611D01*
X120335443Y-88856553D01*
X120323893Y-88878161D01*
X120303207Y-88928103D01*
X120262058Y-88989686D01*
X120209686Y-89042058D01*
X120148103Y-89083207D01*
X120079675Y-89111550D01*
X120079674Y-89111550D01*
X120079672Y-89111551D01*
X120007034Y-89126000D01*
X119932966Y-89126000D01*
X119860328Y-89111551D01*
X119860326Y-89111550D01*
X119860325Y-89111550D01*
X119791897Y-89083207D01*
X119730314Y-89042058D01*
X119677942Y-88989686D01*
X119636793Y-88928103D01*
X119616107Y-88878161D01*
X119604557Y-88856553D01*
X119589011Y-88837611D01*
X119570069Y-88822066D01*
X119548459Y-88810515D01*
X119525010Y-88803402D01*
X119500624Y-88801000D01*
X119439376Y-88801000D01*
X119414990Y-88803402D01*
X119391541Y-88810515D01*
X119369930Y-88822066D01*
X119350988Y-88837611D01*
X119335443Y-88856553D01*
X119323893Y-88878161D01*
X119303207Y-88928103D01*
X119262058Y-88989686D01*
X119209686Y-89042058D01*
X119148103Y-89083207D01*
X119079675Y-89111550D01*
X119079674Y-89111550D01*
X119079672Y-89111551D01*
X119007034Y-89126000D01*
X118932966Y-89126000D01*
X118860328Y-89111551D01*
X118860326Y-89111550D01*
X118860325Y-89111550D01*
X118791897Y-89083207D01*
X118730314Y-89042058D01*
X118677942Y-88989686D01*
X118636793Y-88928103D01*
X118616107Y-88878161D01*
X118604557Y-88856553D01*
X118589011Y-88837611D01*
X118570069Y-88822066D01*
X118548459Y-88810515D01*
X118525010Y-88803402D01*
X118500624Y-88801000D01*
X118439376Y-88801000D01*
X118414990Y-88803402D01*
X118391541Y-88810515D01*
X118369930Y-88822066D01*
X118350988Y-88837611D01*
X118335443Y-88856553D01*
X118323893Y-88878161D01*
X118303207Y-88928103D01*
X118262058Y-88989686D01*
X118209686Y-89042058D01*
X118148103Y-89083207D01*
X118079675Y-89111550D01*
X118079674Y-89111550D01*
X118079672Y-89111551D01*
X118007034Y-89126000D01*
X117932966Y-89126000D01*
X117860328Y-89111551D01*
X117860326Y-89111550D01*
X117860325Y-89111550D01*
X117791897Y-89083207D01*
X117730314Y-89042058D01*
X117677942Y-88989686D01*
X117636793Y-88928103D01*
X117616107Y-88878161D01*
X117604557Y-88856553D01*
X117589011Y-88837611D01*
X117570069Y-88822066D01*
X117548459Y-88810515D01*
X117525010Y-88803402D01*
X117500624Y-88801000D01*
X117439376Y-88801000D01*
X117414990Y-88803402D01*
X117391541Y-88810515D01*
X117369930Y-88822066D01*
X117350988Y-88837611D01*
X117335443Y-88856553D01*
X117323893Y-88878161D01*
X117303207Y-88928103D01*
X117262058Y-88989686D01*
X117209686Y-89042058D01*
X117148103Y-89083207D01*
X117079675Y-89111550D01*
X117079674Y-89111550D01*
X117079672Y-89111551D01*
X117007034Y-89126000D01*
X116932966Y-89126000D01*
X116860328Y-89111551D01*
X116860326Y-89111550D01*
X116860325Y-89111550D01*
X116791897Y-89083207D01*
X116730314Y-89042058D01*
X116677942Y-88989686D01*
X116636793Y-88928103D01*
X116616107Y-88878161D01*
X116604557Y-88856553D01*
X116589011Y-88837611D01*
X116570069Y-88822066D01*
X116548459Y-88810515D01*
X116525010Y-88803402D01*
X116500624Y-88801000D01*
X116439376Y-88801000D01*
X116414990Y-88803402D01*
X116391541Y-88810515D01*
X116369930Y-88822066D01*
X116350988Y-88837611D01*
X116335443Y-88856553D01*
X116323893Y-88878161D01*
X116303207Y-88928103D01*
X116262058Y-88989686D01*
X116209686Y-89042058D01*
X116148103Y-89083207D01*
X116079675Y-89111550D01*
X116079674Y-89111550D01*
X116079672Y-89111551D01*
X116007034Y-89126000D01*
X115932966Y-89126000D01*
X115860328Y-89111551D01*
X115860326Y-89111550D01*
X115860325Y-89111550D01*
X115791897Y-89083207D01*
X115730314Y-89042058D01*
X115677942Y-88989686D01*
X115636793Y-88928103D01*
X115616107Y-88878161D01*
X115604557Y-88856553D01*
X115589011Y-88837611D01*
X115570069Y-88822066D01*
X115548459Y-88810515D01*
X115525010Y-88803402D01*
X115500624Y-88801000D01*
X115439376Y-88801000D01*
X115414990Y-88803402D01*
X115391541Y-88810515D01*
X115369930Y-88822066D01*
X115350988Y-88837611D01*
X115335443Y-88856553D01*
X115323893Y-88878161D01*
X115303207Y-88928103D01*
X115262058Y-88989686D01*
X115209686Y-89042058D01*
X115148103Y-89083207D01*
X115079675Y-89111550D01*
X115079674Y-89111550D01*
X115079672Y-89111551D01*
X115007034Y-89126000D01*
X114932966Y-89126000D01*
X114860328Y-89111551D01*
X114860326Y-89111550D01*
X114860325Y-89111550D01*
X114791897Y-89083207D01*
X114730314Y-89042058D01*
X114677942Y-88989686D01*
X114636793Y-88928103D01*
X114616107Y-88878161D01*
X114604557Y-88856553D01*
X114589011Y-88837611D01*
X114570069Y-88822066D01*
X114548459Y-88810515D01*
X114525010Y-88803402D01*
X114500624Y-88801000D01*
X114439376Y-88801000D01*
X114414990Y-88803402D01*
X114391541Y-88810515D01*
X114369930Y-88822066D01*
X114350988Y-88837611D01*
X114335443Y-88856553D01*
X114323893Y-88878161D01*
X114303207Y-88928103D01*
X114262058Y-88989686D01*
X114209686Y-89042058D01*
X114148103Y-89083207D01*
X114079675Y-89111550D01*
X114079674Y-89111550D01*
X114079672Y-89111551D01*
X114007034Y-89126000D01*
X113932966Y-89126000D01*
X113860328Y-89111551D01*
X113860326Y-89111550D01*
X113860325Y-89111550D01*
X113791897Y-89083207D01*
X113730314Y-89042058D01*
X113677942Y-88989686D01*
X113636793Y-88928103D01*
X113616107Y-88878161D01*
X113604557Y-88856553D01*
X113589011Y-88837611D01*
X113570069Y-88822066D01*
X113548459Y-88810515D01*
X113525010Y-88803402D01*
X113500624Y-88801000D01*
X113439376Y-88801000D01*
X113414990Y-88803402D01*
X113391541Y-88810515D01*
X113369930Y-88822066D01*
X113350988Y-88837611D01*
X113335443Y-88856553D01*
X113323893Y-88878161D01*
X113303207Y-88928103D01*
X113262058Y-88989686D01*
X113209686Y-89042058D01*
X113148103Y-89083207D01*
X113079675Y-89111550D01*
X113079674Y-89111550D01*
X113079672Y-89111551D01*
X113007034Y-89126000D01*
X112932966Y-89126000D01*
X112860328Y-89111551D01*
X112860326Y-89111550D01*
X112860325Y-89111550D01*
X112791897Y-89083207D01*
X112730314Y-89042058D01*
X112677942Y-88989686D01*
X112636793Y-88928103D01*
X112616107Y-88878161D01*
X112604557Y-88856553D01*
X112589011Y-88837611D01*
X112570069Y-88822066D01*
X112548459Y-88810515D01*
X112525010Y-88803402D01*
X112500624Y-88801000D01*
X112439376Y-88801000D01*
X112414990Y-88803402D01*
X112391541Y-88810515D01*
X112369930Y-88822066D01*
X112350988Y-88837611D01*
X112335443Y-88856553D01*
X112323893Y-88878161D01*
X112303207Y-88928103D01*
X112262058Y-88989686D01*
X112209686Y-89042058D01*
X112148103Y-89083207D01*
X112079675Y-89111550D01*
X112079674Y-89111550D01*
X112079672Y-89111551D01*
X112007034Y-89126000D01*
X111932966Y-89126000D01*
X111860328Y-89111551D01*
X111860326Y-89111550D01*
X111860325Y-89111550D01*
X111791897Y-89083207D01*
X111730314Y-89042058D01*
X111677942Y-88989686D01*
X111636793Y-88928103D01*
X111616107Y-88878161D01*
X111604557Y-88856553D01*
X111589011Y-88837611D01*
X111570069Y-88822066D01*
X111548459Y-88810515D01*
X111525010Y-88803402D01*
X111500624Y-88801000D01*
X111439376Y-88801000D01*
X111414990Y-88803402D01*
X111391541Y-88810515D01*
X111369930Y-88822066D01*
X111350988Y-88837611D01*
X111335443Y-88856553D01*
X111323893Y-88878161D01*
X111303207Y-88928103D01*
X111262058Y-88989686D01*
X111209686Y-89042058D01*
X111148103Y-89083207D01*
X111079675Y-89111550D01*
X111079674Y-89111550D01*
X111079672Y-89111551D01*
X111007034Y-89126000D01*
X110932966Y-89126000D01*
X110860328Y-89111551D01*
X110860326Y-89111550D01*
X110860325Y-89111550D01*
X110791897Y-89083207D01*
X110730314Y-89042058D01*
X110677942Y-88989686D01*
X110636793Y-88928103D01*
X110616107Y-88878161D01*
X110604557Y-88856553D01*
X110589011Y-88837611D01*
X110570069Y-88822066D01*
X110548459Y-88810515D01*
X110525010Y-88803402D01*
X110500624Y-88801000D01*
X110439376Y-88801000D01*
X110414990Y-88803402D01*
X110391541Y-88810515D01*
X110369930Y-88822066D01*
X110350988Y-88837611D01*
X110335443Y-88856553D01*
X110323893Y-88878161D01*
X110303207Y-88928103D01*
X110262058Y-88989686D01*
X110209686Y-89042058D01*
X110148103Y-89083207D01*
X110079675Y-89111550D01*
X110079674Y-89111550D01*
X110079672Y-89111551D01*
X110007034Y-89126000D01*
X109932966Y-89126000D01*
X109860328Y-89111551D01*
X109860326Y-89111550D01*
X109860325Y-89111550D01*
X109791897Y-89083207D01*
X109730314Y-89042058D01*
X109677942Y-88989686D01*
X109636793Y-88928103D01*
X109616107Y-88878161D01*
X109604557Y-88856553D01*
X109589011Y-88837611D01*
X109570069Y-88822066D01*
X109548459Y-88810515D01*
X109525010Y-88803402D01*
X109500624Y-88801000D01*
X109439376Y-88801000D01*
X109414990Y-88803402D01*
X109391541Y-88810515D01*
X109369930Y-88822066D01*
X109350988Y-88837611D01*
X109335443Y-88856553D01*
X109323893Y-88878161D01*
X109303207Y-88928103D01*
X109262058Y-88989686D01*
X109209686Y-89042058D01*
X109148103Y-89083207D01*
X109079675Y-89111550D01*
X109079674Y-89111550D01*
X109079672Y-89111551D01*
X109007034Y-89126000D01*
X108932966Y-89126000D01*
X108860328Y-89111551D01*
X108860326Y-89111550D01*
X108860325Y-89111550D01*
X108791897Y-89083207D01*
X108730314Y-89042058D01*
X108677942Y-88989686D01*
X108636793Y-88928103D01*
X108616107Y-88878161D01*
X108604557Y-88856553D01*
X108589011Y-88837611D01*
X108570069Y-88822066D01*
X108548459Y-88810515D01*
X108525010Y-88803402D01*
X108500624Y-88801000D01*
X108439376Y-88801000D01*
X108414990Y-88803402D01*
X108391541Y-88810515D01*
X108369930Y-88822066D01*
X108350988Y-88837611D01*
X108335443Y-88856553D01*
X108323893Y-88878161D01*
X108303207Y-88928103D01*
X108262058Y-88989686D01*
X108209686Y-89042058D01*
X108148103Y-89083207D01*
X108079675Y-89111550D01*
X108079674Y-89111550D01*
X108079672Y-89111551D01*
X108007034Y-89126000D01*
X107932966Y-89126000D01*
X107860328Y-89111551D01*
X107860326Y-89111550D01*
X107860325Y-89111550D01*
X107791897Y-89083207D01*
X107730314Y-89042058D01*
X107677942Y-88989686D01*
X107636793Y-88928103D01*
X107616107Y-88878161D01*
X107604557Y-88856553D01*
X107589011Y-88837611D01*
X107570069Y-88822066D01*
X107548459Y-88810515D01*
X107525010Y-88803402D01*
X107500624Y-88801000D01*
X107439376Y-88801000D01*
X107414990Y-88803402D01*
X107391541Y-88810515D01*
X107369930Y-88822066D01*
X107350988Y-88837611D01*
X107335443Y-88856553D01*
X107323893Y-88878161D01*
X107303207Y-88928103D01*
X107262058Y-88989686D01*
X107209686Y-89042058D01*
X107148103Y-89083207D01*
X107079675Y-89111550D01*
X107079674Y-89111550D01*
X107079672Y-89111551D01*
X107007034Y-89126000D01*
X106932966Y-89126000D01*
X106860328Y-89111551D01*
X106860326Y-89111550D01*
X106860325Y-89111550D01*
X106791897Y-89083207D01*
X106730314Y-89042058D01*
X106677942Y-88989686D01*
X106636793Y-88928103D01*
X106616107Y-88878161D01*
X106604557Y-88856553D01*
X106589011Y-88837611D01*
X106570069Y-88822066D01*
X106548459Y-88810515D01*
X106525010Y-88803402D01*
X106500624Y-88801000D01*
X106439376Y-88801000D01*
X106414990Y-88803402D01*
X106391541Y-88810515D01*
X106369930Y-88822066D01*
X106350988Y-88837611D01*
X106335443Y-88856553D01*
X106323893Y-88878161D01*
X106303207Y-88928103D01*
X106262058Y-88989686D01*
X106209686Y-89042058D01*
X106148103Y-89083207D01*
X106079675Y-89111550D01*
X106079674Y-89111550D01*
X106079672Y-89111551D01*
X106007034Y-89126000D01*
X105932966Y-89126000D01*
X105860328Y-89111551D01*
X105860326Y-89111550D01*
X105860325Y-89111550D01*
X105791897Y-89083207D01*
X105730314Y-89042058D01*
X105677942Y-88989686D01*
X105636793Y-88928103D01*
X105616107Y-88878161D01*
X105604557Y-88856553D01*
X105589011Y-88837611D01*
X105570069Y-88822066D01*
X105548459Y-88810515D01*
X105525010Y-88803402D01*
X105500624Y-88801000D01*
X105439376Y-88801000D01*
X105414990Y-88803402D01*
X105391541Y-88810515D01*
X105369930Y-88822066D01*
X105350988Y-88837611D01*
X105335443Y-88856553D01*
X105323893Y-88878161D01*
X105303207Y-88928103D01*
X105262058Y-88989686D01*
X105209686Y-89042058D01*
X105148103Y-89083207D01*
X105079675Y-89111550D01*
X105079674Y-89111550D01*
X105079672Y-89111551D01*
X105007034Y-89126000D01*
X104932966Y-89126000D01*
X104860328Y-89111551D01*
X104860326Y-89111550D01*
X104860325Y-89111550D01*
X104791897Y-89083207D01*
X104730314Y-89042058D01*
X104677942Y-88989686D01*
X104636793Y-88928103D01*
X104616107Y-88878161D01*
X104604557Y-88856553D01*
X104589011Y-88837611D01*
X104570069Y-88822066D01*
X104548459Y-88810515D01*
X104525010Y-88803402D01*
X104500624Y-88801000D01*
X104439376Y-88801000D01*
X104414990Y-88803402D01*
X104391541Y-88810515D01*
X104369930Y-88822066D01*
X104350988Y-88837611D01*
X104335443Y-88856553D01*
X104323893Y-88878161D01*
X104303207Y-88928103D01*
X104262058Y-88989686D01*
X104209686Y-89042058D01*
X104148103Y-89083207D01*
X104079675Y-89111550D01*
X104079674Y-89111550D01*
X104079672Y-89111551D01*
X104007034Y-89126000D01*
X103932966Y-89126000D01*
X103860328Y-89111551D01*
X103860326Y-89111550D01*
X103860325Y-89111550D01*
X103791897Y-89083207D01*
X103730314Y-89042058D01*
X103677942Y-88989686D01*
X103636793Y-88928103D01*
X103616107Y-88878161D01*
X103604557Y-88856553D01*
X103589011Y-88837611D01*
X103570069Y-88822066D01*
X103548459Y-88810515D01*
X103525010Y-88803402D01*
X103500624Y-88801000D01*
X103439376Y-88801000D01*
X103414990Y-88803402D01*
X103391541Y-88810515D01*
X103369930Y-88822066D01*
X103350988Y-88837611D01*
X103335443Y-88856553D01*
X103323893Y-88878161D01*
X103303207Y-88928103D01*
X103262058Y-88989686D01*
X103209686Y-89042058D01*
X103148103Y-89083207D01*
X103079675Y-89111550D01*
X103079674Y-89111550D01*
X103079672Y-89111551D01*
X103007034Y-89126000D01*
X102932966Y-89126000D01*
X102860328Y-89111551D01*
X102860326Y-89111550D01*
X102860325Y-89111550D01*
X102791897Y-89083207D01*
X102730314Y-89042058D01*
X102677942Y-88989686D01*
X102636793Y-88928103D01*
X102616107Y-88878161D01*
X102604557Y-88856553D01*
X102589011Y-88837611D01*
X102570069Y-88822066D01*
X102548459Y-88810515D01*
X102525010Y-88803402D01*
X102500624Y-88801000D01*
X102439376Y-88801000D01*
X102414990Y-88803402D01*
X102391541Y-88810515D01*
X102369930Y-88822066D01*
X102350988Y-88837611D01*
X102335443Y-88856553D01*
X102323893Y-88878161D01*
X102303207Y-88928103D01*
X102262058Y-88989686D01*
X102209686Y-89042058D01*
X102148103Y-89083207D01*
X102079675Y-89111550D01*
X102079674Y-89111550D01*
X102079672Y-89111551D01*
X102007034Y-89126000D01*
X101932966Y-89126000D01*
X101860328Y-89111551D01*
X101860326Y-89111550D01*
X101860325Y-89111550D01*
X101791897Y-89083207D01*
X101730314Y-89042058D01*
X101677942Y-88989686D01*
X101636793Y-88928103D01*
X101616107Y-88878161D01*
X101604557Y-88856553D01*
X101589011Y-88837611D01*
X101570069Y-88822066D01*
X101548459Y-88810515D01*
X101525010Y-88803402D01*
X101500624Y-88801000D01*
X101439376Y-88801000D01*
X101414990Y-88803402D01*
X101391541Y-88810515D01*
X101369930Y-88822066D01*
X101350988Y-88837611D01*
X101335443Y-88856553D01*
X101323893Y-88878161D01*
X101303207Y-88928103D01*
X101262058Y-88989686D01*
X101209686Y-89042058D01*
X101148103Y-89083207D01*
X101079675Y-89111550D01*
X101079674Y-89111550D01*
X101079672Y-89111551D01*
X101007034Y-89126000D01*
X100932966Y-89126000D01*
X100860328Y-89111551D01*
X100860326Y-89111550D01*
X100860325Y-89111550D01*
X100791897Y-89083207D01*
X100730314Y-89042058D01*
X100677942Y-88989686D01*
X100636793Y-88928103D01*
X100616107Y-88878161D01*
X100604557Y-88856553D01*
X100589011Y-88837611D01*
X100570069Y-88822066D01*
X100548459Y-88810515D01*
X100525010Y-88803402D01*
X100500624Y-88801000D01*
X100439376Y-88801000D01*
X100414990Y-88803402D01*
X100391541Y-88810515D01*
X100369930Y-88822066D01*
X100350988Y-88837611D01*
X100335443Y-88856553D01*
X100323893Y-88878161D01*
X100303207Y-88928103D01*
X100262058Y-88989686D01*
X100209686Y-89042058D01*
X100148103Y-89083207D01*
X100079675Y-89111550D01*
X100079674Y-89111550D01*
X100079672Y-89111551D01*
X100007034Y-89126000D01*
X99932966Y-89126000D01*
X99860328Y-89111551D01*
X99860326Y-89111550D01*
X99860325Y-89111550D01*
X99791897Y-89083207D01*
X99730314Y-89042058D01*
X99677942Y-88989686D01*
X99636793Y-88928103D01*
X99616107Y-88878161D01*
X99604557Y-88856553D01*
X99589011Y-88837611D01*
X99570069Y-88822066D01*
X99548459Y-88810515D01*
X99525010Y-88803402D01*
X99500624Y-88801000D01*
X99439376Y-88801000D01*
X99414990Y-88803402D01*
X99391541Y-88810515D01*
X99369930Y-88822066D01*
X99350988Y-88837611D01*
X99335443Y-88856553D01*
X99323893Y-88878161D01*
X99303207Y-88928103D01*
X99262058Y-88989686D01*
X99209686Y-89042058D01*
X99148103Y-89083207D01*
X99079675Y-89111550D01*
X99079674Y-89111550D01*
X99079672Y-89111551D01*
X99007034Y-89126000D01*
X98932966Y-89126000D01*
X98860328Y-89111551D01*
X98860326Y-89111550D01*
X98860325Y-89111550D01*
X98791897Y-89083207D01*
X98730314Y-89042058D01*
X98677942Y-88989686D01*
X98636793Y-88928103D01*
X98616107Y-88878161D01*
X98604557Y-88856553D01*
X98589011Y-88837611D01*
X98570069Y-88822066D01*
X98548459Y-88810515D01*
X98525010Y-88803402D01*
X98500624Y-88801000D01*
X98439376Y-88801000D01*
X98414990Y-88803402D01*
X98391541Y-88810515D01*
X98369930Y-88822066D01*
X98350988Y-88837611D01*
X98335443Y-88856553D01*
X98323893Y-88878161D01*
X98303207Y-88928103D01*
X98262058Y-88989686D01*
X98209686Y-89042058D01*
X98148103Y-89083207D01*
X98079675Y-89111550D01*
X98079674Y-89111550D01*
X98079672Y-89111551D01*
X98007034Y-89126000D01*
X97932966Y-89126000D01*
X97860328Y-89111551D01*
X97860326Y-89111550D01*
X97860325Y-89111550D01*
X97791897Y-89083207D01*
X97730314Y-89042058D01*
X97677942Y-88989686D01*
X97636793Y-88928103D01*
X97616107Y-88878161D01*
X97604557Y-88856553D01*
X97589011Y-88837611D01*
X97570069Y-88822066D01*
X97548459Y-88810515D01*
X97525010Y-88803402D01*
X97500624Y-88801000D01*
X97439376Y-88801000D01*
X97414990Y-88803402D01*
X97391541Y-88810515D01*
X97369930Y-88822066D01*
X97350988Y-88837611D01*
X97335443Y-88856553D01*
X97323893Y-88878161D01*
X97303207Y-88928103D01*
X97262058Y-88989686D01*
X97209686Y-89042058D01*
X97148103Y-89083207D01*
X97079675Y-89111550D01*
X97079674Y-89111550D01*
X97079672Y-89111551D01*
X97007034Y-89126000D01*
X96932966Y-89126000D01*
X96860328Y-89111551D01*
X96860326Y-89111550D01*
X96860325Y-89111550D01*
X96791897Y-89083207D01*
X96730314Y-89042058D01*
X96677942Y-88989686D01*
X96636793Y-88928103D01*
X96616107Y-88878161D01*
X96604557Y-88856553D01*
X96589011Y-88837611D01*
X96570069Y-88822066D01*
X96548459Y-88810515D01*
X96525010Y-88803402D01*
X96500624Y-88801000D01*
X96439376Y-88801000D01*
X96414990Y-88803402D01*
X96391541Y-88810515D01*
X96369930Y-88822066D01*
X96350988Y-88837611D01*
X96335443Y-88856553D01*
X96323893Y-88878161D01*
X96303207Y-88928103D01*
X96262058Y-88989686D01*
X96209686Y-89042058D01*
X96148103Y-89083207D01*
X96079675Y-89111550D01*
X96079674Y-89111550D01*
X96079672Y-89111551D01*
X96007034Y-89126000D01*
X95932966Y-89126000D01*
X95860328Y-89111551D01*
X95860326Y-89111550D01*
X95860325Y-89111550D01*
X95791897Y-89083207D01*
X95730314Y-89042058D01*
X95677942Y-88989686D01*
X95636793Y-88928103D01*
X95616107Y-88878161D01*
X95604557Y-88856553D01*
X95589011Y-88837611D01*
X95570069Y-88822066D01*
X95548459Y-88810515D01*
X95525010Y-88803402D01*
X95500624Y-88801000D01*
X95439376Y-88801000D01*
X95414990Y-88803402D01*
X95391541Y-88810515D01*
X95369930Y-88822066D01*
X95350988Y-88837611D01*
X95335443Y-88856553D01*
X95323893Y-88878161D01*
X95303207Y-88928103D01*
X95262058Y-88989686D01*
X95209686Y-89042058D01*
X95148103Y-89083207D01*
X95079675Y-89111550D01*
X95079674Y-89111550D01*
X95079672Y-89111551D01*
X95007034Y-89126000D01*
X94932966Y-89126000D01*
X94860328Y-89111551D01*
X94860326Y-89111550D01*
X94860325Y-89111550D01*
X94791897Y-89083207D01*
X94730314Y-89042058D01*
X94677942Y-88989686D01*
X94636793Y-88928103D01*
X94616107Y-88878161D01*
X94604557Y-88856553D01*
X94589011Y-88837611D01*
X94570069Y-88822066D01*
X94548459Y-88810515D01*
X94525010Y-88803402D01*
X94500624Y-88801000D01*
X94439376Y-88801000D01*
X94414990Y-88803402D01*
X94391541Y-88810515D01*
X94369930Y-88822066D01*
X94350988Y-88837611D01*
X94335443Y-88856553D01*
X94323893Y-88878161D01*
X94303207Y-88928103D01*
X94262058Y-88989686D01*
X94209686Y-89042058D01*
X94148103Y-89083207D01*
X94079675Y-89111550D01*
X94079674Y-89111550D01*
X94079672Y-89111551D01*
X94007034Y-89126000D01*
X93932966Y-89126000D01*
X93860328Y-89111551D01*
X93860326Y-89111550D01*
X93860325Y-89111550D01*
X93791897Y-89083207D01*
X93730314Y-89042058D01*
X93677942Y-88989686D01*
X93636793Y-88928103D01*
X93616107Y-88878161D01*
X93604557Y-88856553D01*
X93589011Y-88837611D01*
X93570069Y-88822066D01*
X93548459Y-88810515D01*
X93525010Y-88803402D01*
X93500624Y-88801000D01*
X93439376Y-88801000D01*
X93414990Y-88803402D01*
X93391541Y-88810515D01*
X93369930Y-88822066D01*
X93350988Y-88837611D01*
X93335443Y-88856553D01*
X93323893Y-88878161D01*
X93303207Y-88928103D01*
X93262058Y-88989686D01*
X93209686Y-89042058D01*
X93148103Y-89083207D01*
X93079675Y-89111550D01*
X93079674Y-89111550D01*
X93079672Y-89111551D01*
X93007034Y-89126000D01*
X92932966Y-89126000D01*
X92860328Y-89111551D01*
X92860326Y-89111550D01*
X92860325Y-89111550D01*
X92791897Y-89083207D01*
X92730314Y-89042058D01*
X92677942Y-88989686D01*
X92636793Y-88928103D01*
X92616107Y-88878161D01*
X92604557Y-88856553D01*
X92589011Y-88837611D01*
X92570069Y-88822066D01*
X92548459Y-88810515D01*
X92525010Y-88803402D01*
X92500624Y-88801000D01*
X92439376Y-88801000D01*
X92414990Y-88803402D01*
X92391541Y-88810515D01*
X92369930Y-88822066D01*
X92350988Y-88837611D01*
X92335443Y-88856553D01*
X92323893Y-88878161D01*
X92303207Y-88928103D01*
X92262058Y-88989686D01*
X92209686Y-89042058D01*
X92148103Y-89083207D01*
X92079675Y-89111550D01*
X92079674Y-89111550D01*
X92079672Y-89111551D01*
X92007034Y-89126000D01*
X91932966Y-89126000D01*
X91860328Y-89111551D01*
X91860326Y-89111550D01*
X91860325Y-89111550D01*
X91791897Y-89083207D01*
X91730314Y-89042058D01*
X91677942Y-88989686D01*
X91636793Y-88928103D01*
X91616107Y-88878161D01*
X91604557Y-88856553D01*
X91589011Y-88837611D01*
X91570069Y-88822066D01*
X91548459Y-88810515D01*
X91525010Y-88803402D01*
X91500624Y-88801000D01*
X91439376Y-88801000D01*
X91414990Y-88803402D01*
X91391541Y-88810515D01*
X91369930Y-88822066D01*
X91350988Y-88837611D01*
X91335443Y-88856553D01*
X91323893Y-88878161D01*
X91303207Y-88928103D01*
X91262058Y-88989686D01*
X91209686Y-89042058D01*
X91148103Y-89083207D01*
X91079675Y-89111550D01*
X91079674Y-89111550D01*
X91079672Y-89111551D01*
X91007034Y-89126000D01*
X90932966Y-89126000D01*
X90860328Y-89111551D01*
X90860326Y-89111550D01*
X90860325Y-89111550D01*
X90791897Y-89083207D01*
X90730314Y-89042058D01*
X90677942Y-88989686D01*
X90636793Y-88928103D01*
X90616107Y-88878161D01*
X90604557Y-88856553D01*
X90589011Y-88837611D01*
X90570069Y-88822066D01*
X90548459Y-88810515D01*
X90525010Y-88803402D01*
X90500624Y-88801000D01*
X90439376Y-88801000D01*
X90414990Y-88803402D01*
X90391541Y-88810515D01*
X90369930Y-88822066D01*
X90350988Y-88837611D01*
X90335443Y-88856553D01*
X90323893Y-88878161D01*
X90303207Y-88928103D01*
X90262058Y-88989686D01*
X90209686Y-89042058D01*
X90148103Y-89083207D01*
X90079675Y-89111550D01*
X90079674Y-89111550D01*
X90079672Y-89111551D01*
X90007034Y-89126000D01*
X89932966Y-89126000D01*
X89860328Y-89111551D01*
X89860326Y-89111550D01*
X89860325Y-89111550D01*
X89791897Y-89083207D01*
X89730314Y-89042058D01*
X89677942Y-88989686D01*
X89636793Y-88928103D01*
X89616107Y-88878161D01*
X89604557Y-88856553D01*
X89589011Y-88837611D01*
X89570069Y-88822066D01*
X89548459Y-88810515D01*
X89525010Y-88803402D01*
X89500624Y-88801000D01*
X89439376Y-88801000D01*
X89414990Y-88803402D01*
X89391541Y-88810515D01*
X89369930Y-88822066D01*
X89350988Y-88837611D01*
X89335443Y-88856553D01*
X89323893Y-88878161D01*
X89303207Y-88928103D01*
X89262058Y-88989686D01*
X89209686Y-89042058D01*
X89148103Y-89083207D01*
X89079675Y-89111550D01*
X89079674Y-89111550D01*
X89079672Y-89111551D01*
X89007034Y-89126000D01*
X88932966Y-89126000D01*
X88860328Y-89111551D01*
X88860326Y-89111550D01*
X88860325Y-89111550D01*
X88791897Y-89083207D01*
X88730314Y-89042058D01*
X88677942Y-88989686D01*
X88636793Y-88928103D01*
X88616107Y-88878161D01*
X88604557Y-88856553D01*
X88589011Y-88837611D01*
X88570069Y-88822066D01*
X88548459Y-88810515D01*
X88525010Y-88803402D01*
X88500624Y-88801000D01*
X88439376Y-88801000D01*
X88414990Y-88803402D01*
X88391541Y-88810515D01*
X88369930Y-88822066D01*
X88350988Y-88837611D01*
X88335443Y-88856553D01*
X88323893Y-88878161D01*
X88303207Y-88928103D01*
X88262058Y-88989686D01*
X88209686Y-89042058D01*
X88148103Y-89083207D01*
X88079675Y-89111550D01*
X88079674Y-89111550D01*
X88079672Y-89111551D01*
X88007034Y-89126000D01*
X87932966Y-89126000D01*
X87860328Y-89111551D01*
X87860326Y-89111550D01*
X87860325Y-89111550D01*
X87791897Y-89083207D01*
X87730314Y-89042058D01*
X87677942Y-88989686D01*
X87636793Y-88928103D01*
X87616107Y-88878161D01*
X87604557Y-88856553D01*
X87589011Y-88837611D01*
X87570069Y-88822066D01*
X87548459Y-88810515D01*
X87525010Y-88803402D01*
X87500624Y-88801000D01*
X87439376Y-88801000D01*
X87414990Y-88803402D01*
X87391541Y-88810515D01*
X87369930Y-88822066D01*
X87350988Y-88837611D01*
X87335443Y-88856553D01*
X87323893Y-88878161D01*
X87303207Y-88928103D01*
X87262058Y-88989686D01*
X87209686Y-89042058D01*
X87148103Y-89083207D01*
X87079675Y-89111550D01*
X87079674Y-89111550D01*
X87079672Y-89111551D01*
X87007034Y-89126000D01*
X86932966Y-89126000D01*
X86860328Y-89111551D01*
X86860326Y-89111550D01*
X86860325Y-89111550D01*
X86791897Y-89083207D01*
X86730314Y-89042058D01*
X86677942Y-88989686D01*
X86636793Y-88928103D01*
X86616107Y-88878161D01*
X86604557Y-88856553D01*
X86589011Y-88837611D01*
X86570069Y-88822066D01*
X86548459Y-88810515D01*
X86525010Y-88803402D01*
X86500624Y-88801000D01*
X86439376Y-88801000D01*
X86414990Y-88803402D01*
X86391541Y-88810515D01*
X86369930Y-88822066D01*
X86350988Y-88837611D01*
X86335443Y-88856553D01*
X86323893Y-88878161D01*
X86303207Y-88928103D01*
X86262058Y-88989686D01*
X86209686Y-89042058D01*
X86148103Y-89083207D01*
X86079675Y-89111550D01*
X86079674Y-89111550D01*
X86079672Y-89111551D01*
X86007034Y-89126000D01*
X85932966Y-89126000D01*
X85860328Y-89111551D01*
X85860326Y-89111550D01*
X85860325Y-89111550D01*
X85791897Y-89083207D01*
X85730314Y-89042058D01*
X85677942Y-88989686D01*
X85636793Y-88928103D01*
X85616107Y-88878161D01*
X85604557Y-88856553D01*
X85589011Y-88837611D01*
X85570069Y-88822066D01*
X85548459Y-88810515D01*
X85525010Y-88803402D01*
X85500624Y-88801000D01*
X85439376Y-88801000D01*
X85414990Y-88803402D01*
X85391541Y-88810515D01*
X85369930Y-88822066D01*
X85350988Y-88837611D01*
X85335443Y-88856553D01*
X85323893Y-88878161D01*
X85303207Y-88928103D01*
X85262058Y-88989686D01*
X85209686Y-89042058D01*
X85148103Y-89083207D01*
X85079675Y-89111550D01*
X85079674Y-89111550D01*
X85079672Y-89111551D01*
X85007034Y-89126000D01*
X84932966Y-89126000D01*
X84860328Y-89111551D01*
X84860326Y-89111550D01*
X84860325Y-89111550D01*
X84791897Y-89083207D01*
X84730314Y-89042058D01*
X84677942Y-88989686D01*
X84636793Y-88928103D01*
X84616107Y-88878161D01*
X84604557Y-88856553D01*
X84589011Y-88837611D01*
X84570069Y-88822066D01*
X84548459Y-88810515D01*
X84525010Y-88803402D01*
X84500624Y-88801000D01*
X84439376Y-88801000D01*
X84414990Y-88803402D01*
X84391541Y-88810515D01*
X84369930Y-88822066D01*
X84350988Y-88837611D01*
X84335443Y-88856553D01*
X84323893Y-88878161D01*
X84303207Y-88928103D01*
X84262058Y-88989686D01*
X84209686Y-89042058D01*
X84148103Y-89083207D01*
X84079675Y-89111550D01*
X84079674Y-89111550D01*
X84079672Y-89111551D01*
X84007034Y-89126000D01*
X83932966Y-89126000D01*
X83860328Y-89111551D01*
X83860326Y-89111550D01*
X83860325Y-89111550D01*
X83791897Y-89083207D01*
X83730314Y-89042058D01*
X83677942Y-88989686D01*
X83636793Y-88928103D01*
X83616107Y-88878161D01*
X83604557Y-88856553D01*
X83589011Y-88837611D01*
X83570069Y-88822066D01*
X83548459Y-88810515D01*
X83525010Y-88803402D01*
X83500624Y-88801000D01*
X83439376Y-88801000D01*
X83414990Y-88803402D01*
X83391541Y-88810515D01*
X83369930Y-88822066D01*
X83350988Y-88837611D01*
X83335443Y-88856553D01*
X83323893Y-88878161D01*
X83303207Y-88928103D01*
X83262058Y-88989686D01*
X83209686Y-89042058D01*
X83148103Y-89083207D01*
X83079675Y-89111550D01*
X83079674Y-89111550D01*
X83079672Y-89111551D01*
X83007034Y-89126000D01*
X82932966Y-89126000D01*
X82860328Y-89111551D01*
X82860326Y-89111550D01*
X82860325Y-89111550D01*
X82791897Y-89083207D01*
X82730314Y-89042058D01*
X82677942Y-88989686D01*
X82636793Y-88928103D01*
X82616107Y-88878161D01*
X82604557Y-88856553D01*
X82589011Y-88837611D01*
X82570069Y-88822066D01*
X82548459Y-88810515D01*
X82525010Y-88803402D01*
X82500624Y-88801000D01*
X82439376Y-88801000D01*
X82414990Y-88803402D01*
X82391541Y-88810515D01*
X82369930Y-88822066D01*
X82350988Y-88837611D01*
X82335443Y-88856553D01*
X82323893Y-88878161D01*
X82303207Y-88928103D01*
X82262058Y-88989686D01*
X82209686Y-89042058D01*
X82148103Y-89083207D01*
X82079675Y-89111550D01*
X82079674Y-89111550D01*
X82079672Y-89111551D01*
X82007034Y-89126000D01*
X81932966Y-89126000D01*
X81860328Y-89111551D01*
X81860326Y-89111550D01*
X81860325Y-89111550D01*
X81791897Y-89083207D01*
X81730314Y-89042058D01*
X81677942Y-88989686D01*
X81636793Y-88928103D01*
X81616107Y-88878161D01*
X81604557Y-88856553D01*
X81589011Y-88837611D01*
X81570069Y-88822066D01*
X81548459Y-88810515D01*
X81525010Y-88803402D01*
X81500624Y-88801000D01*
X81439376Y-88801000D01*
X81414990Y-88803402D01*
X81391541Y-88810515D01*
X81369930Y-88822066D01*
X81350988Y-88837611D01*
X81335443Y-88856553D01*
X81323893Y-88878161D01*
X81303207Y-88928103D01*
X81262058Y-88989686D01*
X81209686Y-89042058D01*
X81148103Y-89083207D01*
X81079675Y-89111550D01*
X81079674Y-89111550D01*
X81079672Y-89111551D01*
X81007034Y-89126000D01*
X80932966Y-89126000D01*
X80860328Y-89111551D01*
X80860326Y-89111550D01*
X80860325Y-89111550D01*
X80791897Y-89083207D01*
X80730314Y-89042058D01*
X80677942Y-88989686D01*
X80636793Y-88928103D01*
X80616107Y-88878161D01*
X80604557Y-88856553D01*
X80589011Y-88837611D01*
X80570069Y-88822066D01*
X80548459Y-88810515D01*
X80525010Y-88803402D01*
X80500624Y-88801000D01*
X80439376Y-88801000D01*
X80414990Y-88803402D01*
X80391541Y-88810515D01*
X80369930Y-88822066D01*
X80350988Y-88837611D01*
X80335443Y-88856553D01*
X80323893Y-88878161D01*
X80303207Y-88928103D01*
X80262058Y-88989686D01*
X80209686Y-89042058D01*
X80148103Y-89083207D01*
X80079675Y-89111550D01*
X80079674Y-89111550D01*
X80079672Y-89111551D01*
X80007034Y-89126000D01*
X79932966Y-89126000D01*
X79860328Y-89111551D01*
X79860326Y-89111550D01*
X79860325Y-89111550D01*
X79791897Y-89083207D01*
X79730314Y-89042058D01*
X79677942Y-88989686D01*
X79636793Y-88928103D01*
X79616107Y-88878161D01*
X79604557Y-88856553D01*
X79589011Y-88837611D01*
X79570069Y-88822066D01*
X79548459Y-88810515D01*
X79525010Y-88803402D01*
X79500624Y-88801000D01*
X79439376Y-88801000D01*
X79414990Y-88803402D01*
X79391541Y-88810515D01*
X79369930Y-88822066D01*
X79350988Y-88837611D01*
X79335443Y-88856553D01*
X79323893Y-88878161D01*
X79303207Y-88928103D01*
X79262058Y-88989686D01*
X79209686Y-89042058D01*
X79148103Y-89083207D01*
X79079675Y-89111550D01*
X79079674Y-89111550D01*
X79079672Y-89111551D01*
X79007034Y-89126000D01*
X78932966Y-89126000D01*
X78860328Y-89111551D01*
X78860326Y-89111550D01*
X78860325Y-89111550D01*
X78791897Y-89083207D01*
X78730314Y-89042058D01*
X78677942Y-88989686D01*
X78636793Y-88928103D01*
X78616107Y-88878161D01*
X78604557Y-88856553D01*
X78589011Y-88837611D01*
X78570069Y-88822066D01*
X78548459Y-88810515D01*
X78525010Y-88803402D01*
X78500624Y-88801000D01*
X78439376Y-88801000D01*
X78414990Y-88803402D01*
X78391541Y-88810515D01*
X78369930Y-88822066D01*
X78350988Y-88837611D01*
X78335443Y-88856553D01*
X78323893Y-88878161D01*
X78303207Y-88928103D01*
X78262058Y-88989686D01*
X78209686Y-89042058D01*
X78148103Y-89083207D01*
X78079675Y-89111550D01*
X78079674Y-89111550D01*
X78079672Y-89111551D01*
X78007034Y-89126000D01*
X77932966Y-89126000D01*
X77860328Y-89111551D01*
X77860326Y-89111550D01*
X77860325Y-89111550D01*
X77791897Y-89083207D01*
X77730314Y-89042058D01*
X77677942Y-88989686D01*
X77636793Y-88928103D01*
X77616107Y-88878161D01*
X77604557Y-88856553D01*
X77589011Y-88837611D01*
X77570069Y-88822066D01*
X77548459Y-88810515D01*
X77525010Y-88803402D01*
X77500624Y-88801000D01*
X77439376Y-88801000D01*
X77414990Y-88803402D01*
X77391541Y-88810515D01*
X77369930Y-88822066D01*
X77350988Y-88837611D01*
X77335443Y-88856553D01*
X77323893Y-88878161D01*
X77303207Y-88928103D01*
X77262058Y-88989686D01*
X77209686Y-89042058D01*
X77148103Y-89083207D01*
X77079675Y-89111550D01*
X77079674Y-89111550D01*
X77079672Y-89111551D01*
X77007034Y-89126000D01*
X76932966Y-89126000D01*
X76860328Y-89111551D01*
X76860326Y-89111550D01*
X76860325Y-89111550D01*
X76791897Y-89083207D01*
X76730314Y-89042058D01*
X76677942Y-88989686D01*
X76636793Y-88928103D01*
X76616107Y-88878161D01*
X76604557Y-88856553D01*
X76589011Y-88837611D01*
X76570069Y-88822066D01*
X76548459Y-88810515D01*
X76525010Y-88803402D01*
X76500624Y-88801000D01*
X76439376Y-88801000D01*
X76414990Y-88803402D01*
X76391541Y-88810515D01*
X76369930Y-88822066D01*
X76350988Y-88837611D01*
X76335443Y-88856553D01*
X76323893Y-88878161D01*
X76303207Y-88928103D01*
X76262058Y-88989686D01*
X76209686Y-89042058D01*
X76148103Y-89083207D01*
X76079675Y-89111550D01*
X76079674Y-89111550D01*
X76079672Y-89111551D01*
X76007034Y-89126000D01*
X75932966Y-89126000D01*
X75860328Y-89111551D01*
X75860326Y-89111550D01*
X75860325Y-89111550D01*
X75791897Y-89083207D01*
X75730314Y-89042058D01*
X75677942Y-88989686D01*
X75636793Y-88928103D01*
X75616107Y-88878161D01*
X75604557Y-88856553D01*
X75589011Y-88837611D01*
X75570069Y-88822066D01*
X75548459Y-88810515D01*
X75525010Y-88803402D01*
X75500624Y-88801000D01*
X75439376Y-88801000D01*
X75414990Y-88803402D01*
X75391541Y-88810515D01*
X75369930Y-88822066D01*
X75350988Y-88837611D01*
X75335443Y-88856553D01*
X75323893Y-88878161D01*
X75303207Y-88928103D01*
X75262058Y-88989686D01*
X75209686Y-89042058D01*
X75148103Y-89083207D01*
X75079675Y-89111550D01*
X75079674Y-89111550D01*
X75079672Y-89111551D01*
X75007034Y-89126000D01*
X74932966Y-89126000D01*
X74860328Y-89111551D01*
X74860326Y-89111550D01*
X74860325Y-89111550D01*
X74791897Y-89083207D01*
X74730314Y-89042058D01*
X74677942Y-88989686D01*
X74636793Y-88928103D01*
X74616107Y-88878161D01*
X74604557Y-88856553D01*
X74589011Y-88837611D01*
X74570069Y-88822066D01*
X74548459Y-88810515D01*
X74525010Y-88803402D01*
X74500624Y-88801000D01*
X74439376Y-88801000D01*
X74414990Y-88803402D01*
X74391541Y-88810515D01*
X74369930Y-88822066D01*
X74350988Y-88837611D01*
X74335443Y-88856553D01*
X74323893Y-88878161D01*
X74303207Y-88928103D01*
X74262058Y-88989686D01*
X74209686Y-89042058D01*
X74148103Y-89083207D01*
X74079675Y-89111550D01*
X74079674Y-89111550D01*
X74079672Y-89111551D01*
X74007034Y-89126000D01*
X73932966Y-89126000D01*
X73860328Y-89111551D01*
X73860326Y-89111550D01*
X73860325Y-89111550D01*
X73791897Y-89083207D01*
X73730314Y-89042058D01*
X73677942Y-88989686D01*
X73636793Y-88928103D01*
X73616107Y-88878161D01*
X73604557Y-88856553D01*
X73589011Y-88837611D01*
X73570069Y-88822066D01*
X73548459Y-88810515D01*
X73525010Y-88803402D01*
X73500624Y-88801000D01*
X73439376Y-88801000D01*
X73414990Y-88803402D01*
X73391541Y-88810515D01*
X73369930Y-88822066D01*
X73350988Y-88837611D01*
X73335443Y-88856553D01*
X73323893Y-88878161D01*
X73303207Y-88928103D01*
X73262058Y-88989686D01*
X73209686Y-89042058D01*
X73148103Y-89083207D01*
X73079675Y-89111550D01*
X73079674Y-89111550D01*
X73079672Y-89111551D01*
X73007034Y-89126000D01*
X72932966Y-89126000D01*
X72860328Y-89111551D01*
X72860326Y-89111550D01*
X72860325Y-89111550D01*
X72791897Y-89083207D01*
X72730314Y-89042058D01*
X72677942Y-88989686D01*
X72636793Y-88928103D01*
X72616107Y-88878161D01*
X72604557Y-88856553D01*
X72589011Y-88837611D01*
X72570069Y-88822066D01*
X72548459Y-88810515D01*
X72525010Y-88803402D01*
X72500624Y-88801000D01*
X72439376Y-88801000D01*
X72414990Y-88803402D01*
X72391541Y-88810515D01*
X72369930Y-88822066D01*
X72350988Y-88837611D01*
X72335443Y-88856553D01*
X72323893Y-88878161D01*
X72303207Y-88928103D01*
X72262058Y-88989686D01*
X72209686Y-89042058D01*
X72148103Y-89083207D01*
X72079675Y-89111550D01*
X72079674Y-89111550D01*
X72079672Y-89111551D01*
X72007034Y-89126000D01*
X71932966Y-89126000D01*
X71860328Y-89111551D01*
X71860326Y-89111550D01*
X71860325Y-89111550D01*
X71791897Y-89083207D01*
X71730314Y-89042058D01*
X71677942Y-88989686D01*
X71636793Y-88928103D01*
X71616107Y-88878161D01*
X71604557Y-88856553D01*
X71589011Y-88837611D01*
X71570069Y-88822066D01*
X71548459Y-88810515D01*
X71525010Y-88803402D01*
X71500624Y-88801000D01*
X71439376Y-88801000D01*
X71414990Y-88803402D01*
X71391541Y-88810515D01*
X71369930Y-88822066D01*
X71350988Y-88837611D01*
X71335443Y-88856553D01*
X71323893Y-88878161D01*
X71303207Y-88928103D01*
X71262058Y-88989686D01*
X71209686Y-89042058D01*
X71148103Y-89083207D01*
X71079675Y-89111550D01*
X71079674Y-89111550D01*
X71079672Y-89111551D01*
X71007034Y-89126000D01*
X70932966Y-89126000D01*
X70860328Y-89111551D01*
X70860326Y-89111550D01*
X70860325Y-89111550D01*
X70791897Y-89083207D01*
X70730314Y-89042058D01*
X70677942Y-88989686D01*
X70636793Y-88928103D01*
X70616107Y-88878161D01*
X70604557Y-88856553D01*
X70589011Y-88837611D01*
X70570069Y-88822066D01*
X70548459Y-88810515D01*
X70525010Y-88803402D01*
X70500624Y-88801000D01*
X70439376Y-88801000D01*
X70414990Y-88803402D01*
X70391541Y-88810515D01*
X70369930Y-88822066D01*
X70350988Y-88837611D01*
X70335443Y-88856553D01*
X70323893Y-88878161D01*
X70303207Y-88928103D01*
X70262058Y-88989686D01*
X70209686Y-89042058D01*
X70148103Y-89083207D01*
X70079675Y-89111550D01*
X70079674Y-89111550D01*
X70079672Y-89111551D01*
X70007034Y-89126000D01*
X69932966Y-89126000D01*
X69860328Y-89111551D01*
X69860326Y-89111550D01*
X69860325Y-89111550D01*
X69791897Y-89083207D01*
X69730314Y-89042058D01*
X69677942Y-88989686D01*
X69636793Y-88928103D01*
X69616107Y-88878161D01*
X69604557Y-88856553D01*
X69589011Y-88837611D01*
X69570069Y-88822066D01*
X69548459Y-88810515D01*
X69525010Y-88803402D01*
X69500624Y-88801000D01*
X69439376Y-88801000D01*
X69414990Y-88803402D01*
X69391541Y-88810515D01*
X69369930Y-88822066D01*
X69350988Y-88837611D01*
X69335443Y-88856553D01*
X69323893Y-88878161D01*
X69303207Y-88928103D01*
X69262058Y-88989686D01*
X69209686Y-89042058D01*
X69148103Y-89083207D01*
X69079675Y-89111550D01*
X69079674Y-89111550D01*
X69079672Y-89111551D01*
X69007034Y-89126000D01*
X68932966Y-89126000D01*
X68860328Y-89111551D01*
X68860326Y-89111550D01*
X68860325Y-89111550D01*
X68791897Y-89083207D01*
X68730314Y-89042058D01*
X68677942Y-88989686D01*
X68636793Y-88928103D01*
X68616107Y-88878161D01*
X68604557Y-88856553D01*
X68589011Y-88837611D01*
X68570069Y-88822066D01*
X68548459Y-88810515D01*
X68525010Y-88803402D01*
X68500624Y-88801000D01*
X68439376Y-88801000D01*
X68414990Y-88803402D01*
X68391541Y-88810515D01*
X68369930Y-88822066D01*
X68350988Y-88837611D01*
X68335443Y-88856553D01*
X68323893Y-88878161D01*
X68303207Y-88928103D01*
X68262058Y-88989686D01*
X68209686Y-89042058D01*
X68148103Y-89083207D01*
X68079675Y-89111550D01*
X68079674Y-89111550D01*
X68079672Y-89111551D01*
X68007034Y-89126000D01*
X67932966Y-89126000D01*
X67860328Y-89111551D01*
X67860326Y-89111550D01*
X67860325Y-89111550D01*
X67791897Y-89083207D01*
X67730314Y-89042058D01*
X67677942Y-88989686D01*
X67636793Y-88928103D01*
X67616107Y-88878161D01*
X67604557Y-88856553D01*
X67589011Y-88837611D01*
X67570069Y-88822066D01*
X67548459Y-88810515D01*
X67525010Y-88803402D01*
X67500624Y-88801000D01*
X67439376Y-88801000D01*
X67414990Y-88803402D01*
X67391541Y-88810515D01*
X67369930Y-88822066D01*
X67350988Y-88837611D01*
X67335443Y-88856553D01*
X67323893Y-88878161D01*
X67303207Y-88928103D01*
X67262058Y-88989686D01*
X67209686Y-89042058D01*
X67148103Y-89083207D01*
X67079675Y-89111550D01*
X67079674Y-89111550D01*
X67079672Y-89111551D01*
X67007034Y-89126000D01*
X66932966Y-89126000D01*
X66860328Y-89111551D01*
X66860326Y-89111550D01*
X66860325Y-89111550D01*
X66791897Y-89083207D01*
X66730314Y-89042058D01*
X66677942Y-88989686D01*
X66636793Y-88928103D01*
X66616107Y-88878161D01*
X66604557Y-88856553D01*
X66589011Y-88837611D01*
X66570069Y-88822066D01*
X66548459Y-88810515D01*
X66525010Y-88803402D01*
X66500624Y-88801000D01*
X66439376Y-88801000D01*
X66414990Y-88803402D01*
X66391541Y-88810515D01*
X66369930Y-88822066D01*
X66350988Y-88837611D01*
X66335443Y-88856553D01*
X66323893Y-88878161D01*
X66303207Y-88928103D01*
X66262058Y-88989686D01*
X66209686Y-89042058D01*
X66148103Y-89083207D01*
X66079675Y-89111550D01*
X66079674Y-89111550D01*
X66079672Y-89111551D01*
X66007034Y-89126000D01*
X65932966Y-89126000D01*
X65860328Y-89111551D01*
X65860326Y-89111550D01*
X65860325Y-89111550D01*
X65791897Y-89083207D01*
X65730314Y-89042058D01*
X65677942Y-88989686D01*
X65636793Y-88928103D01*
X65616107Y-88878161D01*
X65604557Y-88856553D01*
X65589011Y-88837611D01*
X65570069Y-88822066D01*
X65548459Y-88810515D01*
X65525010Y-88803402D01*
X65500624Y-88801000D01*
X65439376Y-88801000D01*
X65414990Y-88803402D01*
X65391541Y-88810515D01*
X65369930Y-88822066D01*
X65350988Y-88837611D01*
X65335443Y-88856553D01*
X65323893Y-88878161D01*
X65303207Y-88928103D01*
X65262058Y-88989686D01*
X65209686Y-89042058D01*
X65148103Y-89083207D01*
X65079675Y-89111550D01*
X65079674Y-89111550D01*
X65079672Y-89111551D01*
X65007034Y-89126000D01*
X64932966Y-89126000D01*
X64860328Y-89111551D01*
X64860326Y-89111550D01*
X64860325Y-89111550D01*
X64791897Y-89083207D01*
X64730314Y-89042058D01*
X64677942Y-88989686D01*
X64636793Y-88928103D01*
X64616107Y-88878161D01*
X64604557Y-88856553D01*
X64589011Y-88837611D01*
X64570069Y-88822066D01*
X64548459Y-88810515D01*
X64525010Y-88803402D01*
X64500624Y-88801000D01*
X64439376Y-88801000D01*
X64414990Y-88803402D01*
X64391541Y-88810515D01*
X64369930Y-88822066D01*
X64350988Y-88837611D01*
X64335443Y-88856553D01*
X64323893Y-88878161D01*
X64303207Y-88928103D01*
X64262058Y-88989686D01*
X64209686Y-89042058D01*
X64148103Y-89083207D01*
X64079675Y-89111550D01*
X64079674Y-89111550D01*
X64079672Y-89111551D01*
X64007034Y-89126000D01*
X63932966Y-89126000D01*
X63860328Y-89111551D01*
X63860326Y-89111550D01*
X63860325Y-89111550D01*
X63791897Y-89083207D01*
X63730314Y-89042058D01*
X63677942Y-88989686D01*
X63636793Y-88928103D01*
X63616107Y-88878161D01*
X63604557Y-88856553D01*
X63594000Y-88843690D01*
X63594000Y-84099000D01*
X134346000Y-84099000D01*
X134346000Y-88843689D01*
G37*
G36*
X61346000Y-88843689D02*
G01*
X61335443Y-88856553D01*
X61323893Y-88878161D01*
X61303207Y-88928103D01*
X61262058Y-88989686D01*
X61209686Y-89042058D01*
X61148103Y-89083207D01*
X61079675Y-89111550D01*
X61079674Y-89111550D01*
X61079672Y-89111551D01*
X61007034Y-89126000D01*
X60932966Y-89126000D01*
X60860328Y-89111551D01*
X60860326Y-89111550D01*
X60860325Y-89111550D01*
X60791897Y-89083207D01*
X60730314Y-89042058D01*
X60677942Y-88989686D01*
X60636793Y-88928103D01*
X60616107Y-88878161D01*
X60604557Y-88856553D01*
X60589011Y-88837611D01*
X60570069Y-88822066D01*
X60548459Y-88810515D01*
X60525010Y-88803402D01*
X60500624Y-88801000D01*
X60439376Y-88801000D01*
X60414990Y-88803402D01*
X60391541Y-88810515D01*
X60369930Y-88822066D01*
X60350988Y-88837611D01*
X60335443Y-88856553D01*
X60323893Y-88878161D01*
X60303207Y-88928103D01*
X60262058Y-88989686D01*
X60209686Y-89042058D01*
X60148103Y-89083207D01*
X60079675Y-89111550D01*
X60079674Y-89111550D01*
X60079672Y-89111551D01*
X60007034Y-89126000D01*
X59932966Y-89126000D01*
X59860328Y-89111551D01*
X59860326Y-89111550D01*
X59860325Y-89111550D01*
X59791897Y-89083207D01*
X59730314Y-89042058D01*
X59677942Y-88989686D01*
X59636793Y-88928103D01*
X59616107Y-88878161D01*
X59604557Y-88856553D01*
X59589011Y-88837611D01*
X59570069Y-88822066D01*
X59548459Y-88810515D01*
X59525010Y-88803402D01*
X59500624Y-88801000D01*
X59439376Y-88801000D01*
X59414990Y-88803402D01*
X59391541Y-88810515D01*
X59369930Y-88822066D01*
X59350988Y-88837611D01*
X59335443Y-88856553D01*
X59323893Y-88878161D01*
X59303207Y-88928103D01*
X59262058Y-88989686D01*
X59209686Y-89042058D01*
X59148103Y-89083207D01*
X59079675Y-89111550D01*
X59079674Y-89111550D01*
X59079672Y-89111551D01*
X59007034Y-89126000D01*
X58932966Y-89126000D01*
X58860328Y-89111551D01*
X58860326Y-89111550D01*
X58860325Y-89111550D01*
X58791897Y-89083207D01*
X58730314Y-89042058D01*
X58677942Y-88989686D01*
X58636793Y-88928103D01*
X58616107Y-88878161D01*
X58604557Y-88856553D01*
X58589011Y-88837611D01*
X58570069Y-88822066D01*
X58548459Y-88810515D01*
X58525010Y-88803402D01*
X58500624Y-88801000D01*
X58439376Y-88801000D01*
X58414990Y-88803402D01*
X58391541Y-88810515D01*
X58369930Y-88822066D01*
X58350988Y-88837611D01*
X58335443Y-88856553D01*
X58323893Y-88878161D01*
X58303207Y-88928103D01*
X58262058Y-88989686D01*
X58209686Y-89042058D01*
X58148103Y-89083207D01*
X58079675Y-89111550D01*
X58079674Y-89111550D01*
X58079672Y-89111551D01*
X58007034Y-89126000D01*
X57932966Y-89126000D01*
X57860328Y-89111551D01*
X57860326Y-89111550D01*
X57860325Y-89111550D01*
X57791897Y-89083207D01*
X57730314Y-89042058D01*
X57677942Y-88989686D01*
X57636793Y-88928103D01*
X57616107Y-88878161D01*
X57604557Y-88856553D01*
X57589011Y-88837611D01*
X57570069Y-88822066D01*
X57548459Y-88810515D01*
X57525010Y-88803402D01*
X57500624Y-88801000D01*
X57439376Y-88801000D01*
X57414990Y-88803402D01*
X57391541Y-88810515D01*
X57369930Y-88822066D01*
X57350988Y-88837611D01*
X57335443Y-88856553D01*
X57323893Y-88878161D01*
X57303207Y-88928103D01*
X57262058Y-88989686D01*
X57209686Y-89042058D01*
X57148103Y-89083207D01*
X57079675Y-89111550D01*
X57079674Y-89111550D01*
X57079672Y-89111551D01*
X57007034Y-89126000D01*
X56932966Y-89126000D01*
X56860328Y-89111551D01*
X56860326Y-89111550D01*
X56860325Y-89111550D01*
X56791897Y-89083207D01*
X56730314Y-89042058D01*
X56677942Y-88989686D01*
X56636793Y-88928103D01*
X56616107Y-88878161D01*
X56604557Y-88856553D01*
X56589011Y-88837611D01*
X56570069Y-88822066D01*
X56548459Y-88810515D01*
X56525010Y-88803402D01*
X56500624Y-88801000D01*
X56439376Y-88801000D01*
X56414990Y-88803402D01*
X56391541Y-88810515D01*
X56369930Y-88822066D01*
X56350988Y-88837611D01*
X56335443Y-88856553D01*
X56323893Y-88878161D01*
X56303207Y-88928103D01*
X56262058Y-88989686D01*
X56209686Y-89042058D01*
X56148103Y-89083207D01*
X56079675Y-89111550D01*
X56079674Y-89111550D01*
X56079672Y-89111551D01*
X56007034Y-89126000D01*
X55932966Y-89126000D01*
X55860328Y-89111551D01*
X55860326Y-89111550D01*
X55860325Y-89111550D01*
X55791897Y-89083207D01*
X55730314Y-89042058D01*
X55677942Y-88989686D01*
X55636793Y-88928103D01*
X55616107Y-88878161D01*
X55604557Y-88856553D01*
X55589011Y-88837611D01*
X55570069Y-88822066D01*
X55548459Y-88810515D01*
X55525010Y-88803402D01*
X55500624Y-88801000D01*
X55439376Y-88801000D01*
X55414990Y-88803402D01*
X55391541Y-88810515D01*
X55369930Y-88822066D01*
X55350988Y-88837611D01*
X55335443Y-88856553D01*
X55323893Y-88878161D01*
X55303207Y-88928103D01*
X55262058Y-88989686D01*
X55209686Y-89042058D01*
X55148103Y-89083207D01*
X55079675Y-89111550D01*
X55079674Y-89111550D01*
X55079672Y-89111551D01*
X55007034Y-89126000D01*
X54932966Y-89126000D01*
X54860328Y-89111551D01*
X54860326Y-89111550D01*
X54860325Y-89111550D01*
X54791897Y-89083207D01*
X54730314Y-89042058D01*
X54677942Y-88989686D01*
X54636793Y-88928103D01*
X54616107Y-88878161D01*
X54604557Y-88856553D01*
X54589011Y-88837611D01*
X54570069Y-88822066D01*
X54548459Y-88810515D01*
X54525010Y-88803402D01*
X54500624Y-88801000D01*
X54439376Y-88801000D01*
X54414990Y-88803402D01*
X54391541Y-88810515D01*
X54369930Y-88822066D01*
X54350988Y-88837611D01*
X54335443Y-88856553D01*
X54323893Y-88878161D01*
X54303207Y-88928103D01*
X54262058Y-88989686D01*
X54209686Y-89042058D01*
X54148103Y-89083207D01*
X54079675Y-89111550D01*
X54079674Y-89111550D01*
X54079672Y-89111551D01*
X54007034Y-89126000D01*
X53932966Y-89126000D01*
X53860328Y-89111551D01*
X53860326Y-89111550D01*
X53860325Y-89111550D01*
X53791897Y-89083207D01*
X53730314Y-89042058D01*
X53677942Y-88989686D01*
X53636793Y-88928103D01*
X53616107Y-88878161D01*
X53604557Y-88856553D01*
X53589011Y-88837611D01*
X53570069Y-88822066D01*
X53548459Y-88810515D01*
X53525010Y-88803402D01*
X53500624Y-88801000D01*
X53439376Y-88801000D01*
X53414990Y-88803402D01*
X53391541Y-88810515D01*
X53369930Y-88822066D01*
X53350988Y-88837611D01*
X53335443Y-88856553D01*
X53323893Y-88878161D01*
X53303207Y-88928103D01*
X53262058Y-88989686D01*
X53209686Y-89042058D01*
X53148103Y-89083207D01*
X53079675Y-89111550D01*
X53079674Y-89111550D01*
X53079672Y-89111551D01*
X53007034Y-89126000D01*
X52932966Y-89126000D01*
X52860328Y-89111551D01*
X52860326Y-89111550D01*
X52860325Y-89111550D01*
X52791897Y-89083207D01*
X52730314Y-89042058D01*
X52677942Y-88989686D01*
X52636793Y-88928103D01*
X52616107Y-88878161D01*
X52604557Y-88856553D01*
X52589011Y-88837611D01*
X52570069Y-88822066D01*
X52548459Y-88810515D01*
X52525010Y-88803402D01*
X52500624Y-88801000D01*
X52439376Y-88801000D01*
X52414990Y-88803402D01*
X52391541Y-88810515D01*
X52369930Y-88822066D01*
X52350988Y-88837611D01*
X52335443Y-88856553D01*
X52323893Y-88878161D01*
X52303207Y-88928103D01*
X52262058Y-88989686D01*
X52209686Y-89042058D01*
X52148103Y-89083207D01*
X52079675Y-89111550D01*
X52079674Y-89111550D01*
X52079672Y-89111551D01*
X52007034Y-89126000D01*
X51932966Y-89126000D01*
X51860328Y-89111551D01*
X51860326Y-89111550D01*
X51860325Y-89111550D01*
X51791897Y-89083207D01*
X51730314Y-89042058D01*
X51677942Y-88989686D01*
X51636793Y-88928103D01*
X51616107Y-88878161D01*
X51604557Y-88856553D01*
X51594000Y-88843690D01*
X51594000Y-87925999D01*
X51591598Y-87901613D01*
X51584485Y-87878164D01*
X51572934Y-87856553D01*
X51557389Y-87837611D01*
X51538447Y-87822066D01*
X51516836Y-87810515D01*
X51493387Y-87803402D01*
X51469001Y-87801000D01*
X50594000Y-87801000D01*
X50594000Y-84099000D01*
X61346000Y-84099000D01*
X61346000Y-88843689D01*
G37*
G36*
X129824985Y-52656218D02*
G01*
X129824985Y-52656219D01*
X129756063Y-81006141D01*
X129750000Y-83500000D01*
X104750000Y-83500000D01*
X104750000Y-81000000D01*
X126425111Y-81000000D01*
X126449497Y-80997598D01*
X126472946Y-80990485D01*
X126494557Y-80978934D01*
X126513499Y-80963389D01*
X126529044Y-80944447D01*
X126540595Y-80922836D01*
X126547708Y-80899387D01*
X126550110Y-80875111D01*
X126557071Y-72981163D01*
X126575000Y-52650000D01*
X129825000Y-52650000D01*
X129824985Y-52656218D01*
G37*
G36*
X103500000Y-57650000D02*
G01*
X102374999Y-57650000D01*
X102350613Y-57652402D01*
X102327164Y-57659515D01*
X102305553Y-57671066D01*
X102286611Y-57686611D01*
X102271066Y-57705553D01*
X102259515Y-57727164D01*
X102252402Y-57750613D01*
X102250000Y-57774999D01*
X102250000Y-59425001D01*
X102252402Y-59449387D01*
X102259515Y-59472836D01*
X102271066Y-59494447D01*
X102286611Y-59513389D01*
X102305553Y-59528934D01*
X102327164Y-59540485D01*
X102350613Y-59547598D01*
X102374999Y-59550000D01*
X103500000Y-59550000D01*
X103500000Y-76350000D01*
X102274999Y-76350000D01*
X102250613Y-76352402D01*
X102227164Y-76359515D01*
X102205553Y-76371066D01*
X102186611Y-76386611D01*
X102171066Y-76405553D01*
X102159515Y-76427164D01*
X102152402Y-76450613D01*
X102150000Y-76474999D01*
X102150000Y-78075001D01*
X102152402Y-78099387D01*
X102159515Y-78122836D01*
X102171066Y-78144447D01*
X102186611Y-78163389D01*
X102205553Y-78178934D01*
X102227164Y-78190485D01*
X102250613Y-78197598D01*
X102274999Y-78200000D01*
X103450000Y-78200000D01*
X103450059Y-78205816D01*
X103450059Y-78205818D01*
X103474753Y-80650551D01*
X103500000Y-83150000D01*
X78500000Y-83150000D01*
X78500000Y-80650000D01*
X99825001Y-80650000D01*
X99849387Y-80647598D01*
X99872836Y-80640485D01*
X99894447Y-80628934D01*
X99913389Y-80613389D01*
X99928934Y-80594447D01*
X99940485Y-80572836D01*
X99947598Y-80549387D01*
X99950000Y-80525001D01*
X99950000Y-44550000D01*
X103500000Y-44550000D01*
X103500000Y-57650000D01*
G37*
G36*
X71896968Y-78653565D02*
G01*
X71935638Y-78665296D01*
X71971277Y-78684346D01*
X72002517Y-78709983D01*
X72028154Y-78741223D01*
X72047204Y-78776862D01*
X72058935Y-78815532D01*
X72063500Y-78861888D01*
X72063500Y-79938112D01*
X72058935Y-79984468D01*
X72047204Y-80023138D01*
X72028154Y-80058777D01*
X72002517Y-80090017D01*
X71971277Y-80115654D01*
X71935638Y-80134704D01*
X71896968Y-80146435D01*
X71850612Y-80151000D01*
X71199388Y-80151000D01*
X71153032Y-80146435D01*
X71114362Y-80134704D01*
X71078723Y-80115654D01*
X71047483Y-80090017D01*
X71021846Y-80058777D01*
X71002796Y-80023138D01*
X70991065Y-79984468D01*
X70986500Y-79938112D01*
X70986500Y-78861888D01*
X70991065Y-78815532D01*
X71002796Y-78776862D01*
X71021846Y-78741223D01*
X71047483Y-78709983D01*
X71078723Y-78684346D01*
X71114362Y-78665296D01*
X71153032Y-78653565D01*
X71199388Y-78649000D01*
X71850612Y-78649000D01*
X71896968Y-78653565D01*
G37*
G36*
X73771968Y-78653565D02*
G01*
X73810638Y-78665296D01*
X73846277Y-78684346D01*
X73877517Y-78709983D01*
X73903154Y-78741223D01*
X73922204Y-78776862D01*
X73933935Y-78815532D01*
X73938500Y-78861888D01*
X73938500Y-79938112D01*
X73933935Y-79984468D01*
X73922204Y-80023138D01*
X73903154Y-80058777D01*
X73877517Y-80090017D01*
X73846277Y-80115654D01*
X73810638Y-80134704D01*
X73771968Y-80146435D01*
X73725612Y-80151000D01*
X73074388Y-80151000D01*
X73028032Y-80146435D01*
X72989362Y-80134704D01*
X72953723Y-80115654D01*
X72922483Y-80090017D01*
X72896846Y-80058777D01*
X72877796Y-80023138D01*
X72866065Y-79984468D01*
X72861500Y-79938112D01*
X72861500Y-78861888D01*
X72866065Y-78815532D01*
X72877796Y-78776862D01*
X72896846Y-78741223D01*
X72922483Y-78709983D01*
X72953723Y-78684346D01*
X72989362Y-78665296D01*
X73028032Y-78653565D01*
X73074388Y-78649000D01*
X73725612Y-78649000D01*
X73771968Y-78653565D01*
G37*
G36*
X108628571Y-76152863D02*
G01*
X108707023Y-76160590D01*
X108807682Y-76191125D01*
X108858013Y-76206392D01*
X108997165Y-76280771D01*
X109119133Y-76380867D01*
X109219229Y-76502835D01*
X109293608Y-76641987D01*
X109293608Y-76641988D01*
X109339410Y-76792977D01*
X109354875Y-76950000D01*
X109339410Y-77107023D01*
X109324872Y-77154948D01*
X109293608Y-77258013D01*
X109219229Y-77397165D01*
X109119133Y-77519133D01*
X108997165Y-77619229D01*
X108858013Y-77693608D01*
X108807682Y-77708875D01*
X108707023Y-77739410D01*
X108628571Y-77747137D01*
X108589346Y-77751000D01*
X107210654Y-77751000D01*
X107171429Y-77747137D01*
X107092977Y-77739410D01*
X106992318Y-77708875D01*
X106941987Y-77693608D01*
X106802835Y-77619229D01*
X106680867Y-77519133D01*
X106580771Y-77397165D01*
X106506392Y-77258013D01*
X106475128Y-77154948D01*
X106460590Y-77107023D01*
X106445125Y-76950000D01*
X106460590Y-76792977D01*
X106506392Y-76641988D01*
X106506392Y-76641987D01*
X106580771Y-76502835D01*
X106680867Y-76380867D01*
X106802835Y-76280771D01*
X106941987Y-76206392D01*
X106992318Y-76191125D01*
X107092977Y-76160590D01*
X107171429Y-76152863D01*
X107210654Y-76149000D01*
X108589346Y-76149000D01*
X108628571Y-76152863D01*
G37*
G36*
X120628571Y-76152863D02*
G01*
X120707023Y-76160590D01*
X120807682Y-76191125D01*
X120858013Y-76206392D01*
X120997165Y-76280771D01*
X121119133Y-76380867D01*
X121219229Y-76502835D01*
X121293608Y-76641987D01*
X121293608Y-76641988D01*
X121339410Y-76792977D01*
X121354875Y-76950000D01*
X121339410Y-77107023D01*
X121324872Y-77154948D01*
X121293608Y-77258013D01*
X121219229Y-77397165D01*
X121119133Y-77519133D01*
X120997165Y-77619229D01*
X120858013Y-77693608D01*
X120807682Y-77708875D01*
X120707023Y-77739410D01*
X120628571Y-77747137D01*
X120589346Y-77751000D01*
X119210654Y-77751000D01*
X119171429Y-77747137D01*
X119092977Y-77739410D01*
X118992318Y-77708875D01*
X118941987Y-77693608D01*
X118802835Y-77619229D01*
X118680867Y-77519133D01*
X118580771Y-77397165D01*
X118506392Y-77258013D01*
X118475128Y-77154948D01*
X118460590Y-77107023D01*
X118445125Y-76950000D01*
X118460590Y-76792977D01*
X118506392Y-76641988D01*
X118506392Y-76641987D01*
X118580771Y-76502835D01*
X118680867Y-76380867D01*
X118802835Y-76280771D01*
X118941987Y-76206392D01*
X118992318Y-76191125D01*
X119092977Y-76160590D01*
X119171429Y-76152863D01*
X119210654Y-76149000D01*
X120589346Y-76149000D01*
X120628571Y-76152863D01*
G37*
G36*
X56034928Y-76856764D02*
G01*
X56056009Y-76863160D01*
X56075445Y-76873548D01*
X56092476Y-76887524D01*
X56106452Y-76904555D01*
X56116840Y-76923991D01*
X56123236Y-76945072D01*
X56126000Y-76973140D01*
X56126000Y-77436860D01*
X56123236Y-77464928D01*
X56116840Y-77486009D01*
X56106452Y-77505445D01*
X56092476Y-77522476D01*
X56075445Y-77536452D01*
X56056009Y-77546840D01*
X56034928Y-77553236D01*
X56006860Y-77556000D01*
X54193140Y-77556000D01*
X54165072Y-77553236D01*
X54143991Y-77546840D01*
X54124555Y-77536452D01*
X54107524Y-77522476D01*
X54093548Y-77505445D01*
X54083160Y-77486009D01*
X54076764Y-77464928D01*
X54074000Y-77436860D01*
X54074000Y-76973140D01*
X54076764Y-76945072D01*
X54083160Y-76923991D01*
X54093548Y-76904555D01*
X54107524Y-76887524D01*
X54124555Y-76873548D01*
X54143991Y-76863160D01*
X54165072Y-76856764D01*
X54193140Y-76854000D01*
X56006860Y-76854000D01*
X56034928Y-76856764D01*
G37*
G36*
X60984928Y-76856764D02*
G01*
X61006009Y-76863160D01*
X61025445Y-76873548D01*
X61042476Y-76887524D01*
X61056452Y-76904555D01*
X61066840Y-76923991D01*
X61073236Y-76945072D01*
X61076000Y-76973140D01*
X61076000Y-77436860D01*
X61073236Y-77464928D01*
X61066840Y-77486009D01*
X61056452Y-77505445D01*
X61042476Y-77522476D01*
X61025445Y-77536452D01*
X61006009Y-77546840D01*
X60984928Y-77553236D01*
X60956860Y-77556000D01*
X59143140Y-77556000D01*
X59115072Y-77553236D01*
X59093991Y-77546840D01*
X59074555Y-77536452D01*
X59057524Y-77522476D01*
X59043548Y-77505445D01*
X59033160Y-77486009D01*
X59026764Y-77464928D01*
X59024000Y-77436860D01*
X59024000Y-76973140D01*
X59026764Y-76945072D01*
X59033160Y-76923991D01*
X59043548Y-76904555D01*
X59057524Y-76887524D01*
X59074555Y-76873548D01*
X59093991Y-76863160D01*
X59115072Y-76856764D01*
X59143140Y-76854000D01*
X60956860Y-76854000D01*
X60984928Y-76856764D01*
G37*
G36*
X76979591Y-76290585D02*
G01*
X77013569Y-76300893D01*
X77044890Y-76317634D01*
X77072339Y-76340161D01*
X77094866Y-76367610D01*
X77111607Y-76398931D01*
X77121915Y-76432909D01*
X77126000Y-76474390D01*
X77126000Y-77075610D01*
X77121915Y-77117091D01*
X77111607Y-77151069D01*
X77094866Y-77182390D01*
X77072339Y-77209839D01*
X77044890Y-77232366D01*
X77013569Y-77249107D01*
X76979591Y-77259415D01*
X76938110Y-77263500D01*
X76261890Y-77263500D01*
X76220409Y-77259415D01*
X76186431Y-77249107D01*
X76155110Y-77232366D01*
X76127661Y-77209839D01*
X76105134Y-77182390D01*
X76088393Y-77151069D01*
X76078085Y-77117091D01*
X76074000Y-77075610D01*
X76074000Y-76474390D01*
X76078085Y-76432909D01*
X76088393Y-76398931D01*
X76105134Y-76367610D01*
X76127661Y-76340161D01*
X76155110Y-76317634D01*
X76186431Y-76300893D01*
X76220409Y-76290585D01*
X76261890Y-76286500D01*
X76938110Y-76286500D01*
X76979591Y-76290585D01*
G37*
G36*
X79679591Y-76290585D02*
G01*
X79713569Y-76300893D01*
X79744890Y-76317634D01*
X79772339Y-76340161D01*
X79794866Y-76367610D01*
X79811607Y-76398931D01*
X79821915Y-76432909D01*
X79826000Y-76474390D01*
X79826000Y-77075610D01*
X79821915Y-77117091D01*
X79811607Y-77151069D01*
X79794866Y-77182390D01*
X79772339Y-77209839D01*
X79744890Y-77232366D01*
X79713569Y-77249107D01*
X79679591Y-77259415D01*
X79638110Y-77263500D01*
X78961890Y-77263500D01*
X78920409Y-77259415D01*
X78886431Y-77249107D01*
X78855110Y-77232366D01*
X78827661Y-77209839D01*
X78805134Y-77182390D01*
X78788393Y-77151069D01*
X78778085Y-77117091D01*
X78774000Y-77075610D01*
X78774000Y-76474390D01*
X78778085Y-76432909D01*
X78788393Y-76398931D01*
X78805134Y-76367610D01*
X78827661Y-76340161D01*
X78855110Y-76317634D01*
X78886431Y-76300893D01*
X78920409Y-76290585D01*
X78961890Y-76286500D01*
X79638110Y-76286500D01*
X79679591Y-76290585D01*
G37*
G36*
X68840000Y-77211000D02*
G01*
X67238000Y-77211000D01*
X67238000Y-76459000D01*
X68840000Y-76459000D01*
X68840000Y-77211000D01*
G37*
G36*
X74240000Y-77211000D02*
G01*
X72638000Y-77211000D01*
X72638000Y-76459000D01*
X74240000Y-76459000D01*
X74240000Y-77211000D01*
G37*
G36*
X52884468Y-75966065D02*
G01*
X52923138Y-75977796D01*
X52958777Y-75996846D01*
X52990017Y-76022483D01*
X53015654Y-76053723D01*
X53034704Y-76089362D01*
X53046435Y-76128032D01*
X53051000Y-76174388D01*
X53051000Y-76825612D01*
X53046435Y-76871968D01*
X53034704Y-76910638D01*
X53015654Y-76946277D01*
X52990017Y-76977517D01*
X52958777Y-77003154D01*
X52923138Y-77022204D01*
X52884468Y-77033935D01*
X52838112Y-77038500D01*
X51761888Y-77038500D01*
X51715532Y-77033935D01*
X51676862Y-77022204D01*
X51641223Y-77003154D01*
X51609983Y-76977517D01*
X51584346Y-76946277D01*
X51565296Y-76910638D01*
X51553565Y-76871968D01*
X51549000Y-76825612D01*
X51549000Y-76174388D01*
X51553565Y-76128032D01*
X51565296Y-76089362D01*
X51584346Y-76053723D01*
X51609983Y-76022483D01*
X51641223Y-75996846D01*
X51676862Y-75977796D01*
X51715532Y-75966065D01*
X51761888Y-75961500D01*
X52838112Y-75961500D01*
X52884468Y-75966065D01*
G37*
G36*
X114309314Y-71229461D02*
G01*
X114658684Y-71298955D01*
X114776485Y-71347750D01*
X115132034Y-71495023D01*
X115273393Y-71589476D01*
X115558041Y-71779671D01*
X115920329Y-72141959D01*
X116110524Y-72426607D01*
X116204977Y-72567966D01*
X116314495Y-72832366D01*
X116401045Y-73041316D01*
X116419694Y-73135072D01*
X116501000Y-73543823D01*
X116501000Y-74056177D01*
X116485942Y-74131877D01*
X116401045Y-74558684D01*
X116330045Y-74730092D01*
X116204977Y-75032034D01*
X116169827Y-75084639D01*
X115920329Y-75458041D01*
X115558041Y-75820329D01*
X115377443Y-75941000D01*
X115132034Y-76104977D01*
X114887196Y-76206392D01*
X114658684Y-76301045D01*
X114412570Y-76350000D01*
X114156177Y-76401000D01*
X113643823Y-76401000D01*
X113387430Y-76350000D01*
X113141316Y-76301045D01*
X112912804Y-76206392D01*
X112667966Y-76104977D01*
X112422557Y-75941000D01*
X112241959Y-75820329D01*
X111879671Y-75458041D01*
X111630173Y-75084639D01*
X111595023Y-75032034D01*
X111469955Y-74730092D01*
X111398955Y-74558684D01*
X111314058Y-74131877D01*
X111299000Y-74056177D01*
X111299000Y-73543823D01*
X111380306Y-73135072D01*
X111398955Y-73041316D01*
X111485505Y-72832366D01*
X111595023Y-72567966D01*
X111689476Y-72426607D01*
X111879671Y-72141959D01*
X112241959Y-71779671D01*
X112526607Y-71589476D01*
X112667966Y-71495023D01*
X113023515Y-71347750D01*
X113141316Y-71298955D01*
X113490686Y-71229461D01*
X113643823Y-71199000D01*
X114156177Y-71199000D01*
X114309314Y-71229461D01*
G37*
G36*
X56034928Y-75586764D02*
G01*
X56056009Y-75593160D01*
X56075445Y-75603548D01*
X56092476Y-75617524D01*
X56106452Y-75634555D01*
X56116840Y-75653991D01*
X56123236Y-75675072D01*
X56126000Y-75703140D01*
X56126000Y-76166860D01*
X56123236Y-76194928D01*
X56116840Y-76216009D01*
X56106452Y-76235445D01*
X56092476Y-76252476D01*
X56075445Y-76266452D01*
X56056009Y-76276840D01*
X56034928Y-76283236D01*
X56006860Y-76286000D01*
X54193140Y-76286000D01*
X54165072Y-76283236D01*
X54143991Y-76276840D01*
X54124555Y-76266452D01*
X54107524Y-76252476D01*
X54093548Y-76235445D01*
X54083160Y-76216009D01*
X54076764Y-76194928D01*
X54074000Y-76166860D01*
X54074000Y-75703140D01*
X54076764Y-75675072D01*
X54083160Y-75653991D01*
X54093548Y-75634555D01*
X54107524Y-75617524D01*
X54124555Y-75603548D01*
X54143991Y-75593160D01*
X54165072Y-75586764D01*
X54193140Y-75584000D01*
X56006860Y-75584000D01*
X56034928Y-75586764D01*
G37*
G36*
X60984928Y-75586764D02*
G01*
X61006009Y-75593160D01*
X61025445Y-75603548D01*
X61042476Y-75617524D01*
X61056452Y-75634555D01*
X61066840Y-75653991D01*
X61073236Y-75675072D01*
X61076000Y-75703140D01*
X61076000Y-76166860D01*
X61073236Y-76194928D01*
X61066840Y-76216009D01*
X61056452Y-76235445D01*
X61042476Y-76252476D01*
X61025445Y-76266452D01*
X61006009Y-76276840D01*
X60984928Y-76283236D01*
X60956860Y-76286000D01*
X59143140Y-76286000D01*
X59115072Y-76283236D01*
X59093991Y-76276840D01*
X59074555Y-76266452D01*
X59057524Y-76252476D01*
X59043548Y-76235445D01*
X59033160Y-76216009D01*
X59026764Y-76194928D01*
X59024000Y-76166860D01*
X59024000Y-75703140D01*
X59026764Y-75675072D01*
X59033160Y-75653991D01*
X59043548Y-75634555D01*
X59057524Y-75617524D01*
X59074555Y-75603548D01*
X59093991Y-75593160D01*
X59115072Y-75586764D01*
X59143140Y-75584000D01*
X60956860Y-75584000D01*
X60984928Y-75586764D01*
G37*
G36*
X74240000Y-75941000D02*
G01*
X72638000Y-75941000D01*
X72638000Y-75189000D01*
X74240000Y-75189000D01*
X74240000Y-75941000D01*
G37*
G36*
X68840000Y-75941000D02*
G01*
X67238000Y-75941000D01*
X67238000Y-75189000D01*
X68840000Y-75189000D01*
X68840000Y-75941000D01*
G37*
G36*
X63322468Y-74741065D02*
G01*
X63361138Y-74752796D01*
X63396777Y-74771846D01*
X63428017Y-74797483D01*
X63453654Y-74828723D01*
X63472704Y-74864362D01*
X63484435Y-74903032D01*
X63489000Y-74949388D01*
X63489000Y-75600612D01*
X63484435Y-75646968D01*
X63472704Y-75685638D01*
X63453654Y-75721277D01*
X63428017Y-75752517D01*
X63396777Y-75778154D01*
X63361138Y-75797204D01*
X63322468Y-75808935D01*
X63276112Y-75813500D01*
X62199888Y-75813500D01*
X62153532Y-75808935D01*
X62114862Y-75797204D01*
X62079223Y-75778154D01*
X62047983Y-75752517D01*
X62022346Y-75721277D01*
X62003296Y-75685638D01*
X61991565Y-75646968D01*
X61987000Y-75600612D01*
X61987000Y-74949388D01*
X61991565Y-74903032D01*
X62003296Y-74864362D01*
X62022346Y-74828723D01*
X62047983Y-74797483D01*
X62079223Y-74771846D01*
X62114862Y-74752796D01*
X62153532Y-74741065D01*
X62199888Y-74736500D01*
X63276112Y-74736500D01*
X63322468Y-74741065D01*
G37*
G36*
X79679591Y-74715585D02*
G01*
X79713569Y-74725893D01*
X79744890Y-74742634D01*
X79772339Y-74765161D01*
X79794866Y-74792610D01*
X79811607Y-74823931D01*
X79821915Y-74857909D01*
X79826000Y-74899390D01*
X79826000Y-75500610D01*
X79821915Y-75542091D01*
X79811607Y-75576069D01*
X79794866Y-75607390D01*
X79772339Y-75634839D01*
X79744890Y-75657366D01*
X79713569Y-75674107D01*
X79679591Y-75684415D01*
X79638110Y-75688500D01*
X78961890Y-75688500D01*
X78920409Y-75684415D01*
X78886431Y-75674107D01*
X78855110Y-75657366D01*
X78827661Y-75634839D01*
X78805134Y-75607390D01*
X78788393Y-75576069D01*
X78778085Y-75542091D01*
X78774000Y-75500610D01*
X78774000Y-74899390D01*
X78778085Y-74857909D01*
X78788393Y-74823931D01*
X78805134Y-74792610D01*
X78827661Y-74765161D01*
X78855110Y-74742634D01*
X78886431Y-74725893D01*
X78920409Y-74715585D01*
X78961890Y-74711500D01*
X79638110Y-74711500D01*
X79679591Y-74715585D01*
G37*
G36*
X76979591Y-74715585D02*
G01*
X77013569Y-74725893D01*
X77044890Y-74742634D01*
X77072339Y-74765161D01*
X77094866Y-74792610D01*
X77111607Y-74823931D01*
X77121915Y-74857909D01*
X77126000Y-74899390D01*
X77126000Y-75500610D01*
X77121915Y-75542091D01*
X77111607Y-75576069D01*
X77094866Y-75607390D01*
X77072339Y-75634839D01*
X77044890Y-75657366D01*
X77013569Y-75674107D01*
X76979591Y-75684415D01*
X76938110Y-75688500D01*
X76261890Y-75688500D01*
X76220409Y-75684415D01*
X76186431Y-75674107D01*
X76155110Y-75657366D01*
X76127661Y-75634839D01*
X76105134Y-75607390D01*
X76088393Y-75576069D01*
X76078085Y-75542091D01*
X76074000Y-75500610D01*
X76074000Y-74899390D01*
X76078085Y-74857909D01*
X76088393Y-74823931D01*
X76105134Y-74792610D01*
X76127661Y-74765161D01*
X76155110Y-74742634D01*
X76186431Y-74725893D01*
X76220409Y-74715585D01*
X76261890Y-74711500D01*
X76938110Y-74711500D01*
X76979591Y-74715585D01*
G37*
G36*
X52884468Y-74091065D02*
G01*
X52923138Y-74102796D01*
X52958777Y-74121846D01*
X52990017Y-74147483D01*
X53015654Y-74178723D01*
X53034704Y-74214362D01*
X53046435Y-74253032D01*
X53051000Y-74299388D01*
X53051000Y-74950612D01*
X53046435Y-74996968D01*
X53034704Y-75035638D01*
X53015654Y-75071277D01*
X52990017Y-75102517D01*
X52958777Y-75128154D01*
X52923138Y-75147204D01*
X52884468Y-75158935D01*
X52838112Y-75163500D01*
X51761888Y-75163500D01*
X51715532Y-75158935D01*
X51676862Y-75147204D01*
X51641223Y-75128154D01*
X51609983Y-75102517D01*
X51584346Y-75071277D01*
X51565296Y-75035638D01*
X51553565Y-74996968D01*
X51549000Y-74950612D01*
X51549000Y-74299388D01*
X51553565Y-74253032D01*
X51565296Y-74214362D01*
X51584346Y-74178723D01*
X51609983Y-74147483D01*
X51641223Y-74121846D01*
X51676862Y-74102796D01*
X51715532Y-74091065D01*
X51761888Y-74086500D01*
X52838112Y-74086500D01*
X52884468Y-74091065D01*
G37*
G36*
X60984928Y-74316764D02*
G01*
X61006009Y-74323160D01*
X61025445Y-74333548D01*
X61042476Y-74347524D01*
X61056452Y-74364555D01*
X61066840Y-74383991D01*
X61073236Y-74405072D01*
X61076000Y-74433140D01*
X61076000Y-74896860D01*
X61073236Y-74924928D01*
X61066840Y-74946009D01*
X61056452Y-74965445D01*
X61042476Y-74982476D01*
X61025445Y-74996452D01*
X61006009Y-75006840D01*
X60984928Y-75013236D01*
X60956860Y-75016000D01*
X59143140Y-75016000D01*
X59115072Y-75013236D01*
X59093991Y-75006840D01*
X59074555Y-74996452D01*
X59057524Y-74982476D01*
X59043548Y-74965445D01*
X59033160Y-74946009D01*
X59026764Y-74924928D01*
X59024000Y-74896860D01*
X59024000Y-74433140D01*
X59026764Y-74405072D01*
X59033160Y-74383991D01*
X59043548Y-74364555D01*
X59057524Y-74347524D01*
X59074555Y-74333548D01*
X59093991Y-74323160D01*
X59115072Y-74316764D01*
X59143140Y-74314000D01*
X60956860Y-74314000D01*
X60984928Y-74316764D01*
G37*
G36*
X56034928Y-74316764D02*
G01*
X56056009Y-74323160D01*
X56075445Y-74333548D01*
X56092476Y-74347524D01*
X56106452Y-74364555D01*
X56116840Y-74383991D01*
X56123236Y-74405072D01*
X56126000Y-74433140D01*
X56126000Y-74896860D01*
X56123236Y-74924928D01*
X56116840Y-74946009D01*
X56106452Y-74965445D01*
X56092476Y-74982476D01*
X56075445Y-74996452D01*
X56056009Y-75006840D01*
X56034928Y-75013236D01*
X56006860Y-75016000D01*
X54193140Y-75016000D01*
X54165072Y-75013236D01*
X54143991Y-75006840D01*
X54124555Y-74996452D01*
X54107524Y-74982476D01*
X54093548Y-74965445D01*
X54083160Y-74946009D01*
X54076764Y-74924928D01*
X54074000Y-74896860D01*
X54074000Y-74433140D01*
X54076764Y-74405072D01*
X54083160Y-74383991D01*
X54093548Y-74364555D01*
X54107524Y-74347524D01*
X54124555Y-74333548D01*
X54143991Y-74323160D01*
X54165072Y-74316764D01*
X54193140Y-74314000D01*
X56006860Y-74314000D01*
X56034928Y-74316764D01*
G37*
G36*
X68840000Y-74671000D02*
G01*
X67238000Y-74671000D01*
X67238000Y-73919000D01*
X68840000Y-73919000D01*
X68840000Y-74671000D01*
G37*
G36*
X74240000Y-74671000D02*
G01*
X72638000Y-74671000D01*
X72638000Y-73919000D01*
X74240000Y-73919000D01*
X74240000Y-74671000D01*
G37*
G36*
X63322468Y-72866065D02*
G01*
X63361138Y-72877796D01*
X63396777Y-72896846D01*
X63428017Y-72922483D01*
X63453654Y-72953723D01*
X63472704Y-72989362D01*
X63484435Y-73028032D01*
X63489000Y-73074388D01*
X63489000Y-73725612D01*
X63484435Y-73771968D01*
X63472704Y-73810638D01*
X63453654Y-73846277D01*
X63428017Y-73877517D01*
X63396777Y-73903154D01*
X63361138Y-73922204D01*
X63322468Y-73933935D01*
X63276112Y-73938500D01*
X62199888Y-73938500D01*
X62153532Y-73933935D01*
X62114862Y-73922204D01*
X62079223Y-73903154D01*
X62047983Y-73877517D01*
X62022346Y-73846277D01*
X62003296Y-73810638D01*
X61991565Y-73771968D01*
X61987000Y-73725612D01*
X61987000Y-73074388D01*
X61991565Y-73028032D01*
X62003296Y-72989362D01*
X62022346Y-72953723D01*
X62047983Y-72922483D01*
X62079223Y-72896846D01*
X62114862Y-72877796D01*
X62153532Y-72866065D01*
X62199888Y-72861500D01*
X63276112Y-72861500D01*
X63322468Y-72866065D01*
G37*
G36*
X60984928Y-73046764D02*
G01*
X61006009Y-73053160D01*
X61025445Y-73063548D01*
X61042476Y-73077524D01*
X61056452Y-73094555D01*
X61066840Y-73113991D01*
X61073236Y-73135072D01*
X61076000Y-73163140D01*
X61076000Y-73626860D01*
X61073236Y-73654928D01*
X61066840Y-73676009D01*
X61056452Y-73695445D01*
X61042476Y-73712476D01*
X61025445Y-73726452D01*
X61006009Y-73736840D01*
X60984928Y-73743236D01*
X60956860Y-73746000D01*
X59143140Y-73746000D01*
X59115072Y-73743236D01*
X59093991Y-73736840D01*
X59074555Y-73726452D01*
X59057524Y-73712476D01*
X59043548Y-73695445D01*
X59033160Y-73676009D01*
X59026764Y-73654928D01*
X59024000Y-73626860D01*
X59024000Y-73163140D01*
X59026764Y-73135072D01*
X59033160Y-73113991D01*
X59043548Y-73094555D01*
X59057524Y-73077524D01*
X59074555Y-73063548D01*
X59093991Y-73053160D01*
X59115072Y-73046764D01*
X59143140Y-73044000D01*
X60956860Y-73044000D01*
X60984928Y-73046764D01*
G37*
G36*
X56034928Y-73046764D02*
G01*
X56056009Y-73053160D01*
X56075445Y-73063548D01*
X56092476Y-73077524D01*
X56106452Y-73094555D01*
X56116840Y-73113991D01*
X56123236Y-73135072D01*
X56126000Y-73163140D01*
X56126000Y-73626860D01*
X56123236Y-73654928D01*
X56116840Y-73676009D01*
X56106452Y-73695445D01*
X56092476Y-73712476D01*
X56075445Y-73726452D01*
X56056009Y-73736840D01*
X56034928Y-73743236D01*
X56006860Y-73746000D01*
X54193140Y-73746000D01*
X54165072Y-73743236D01*
X54143991Y-73736840D01*
X54124555Y-73726452D01*
X54107524Y-73712476D01*
X54093548Y-73695445D01*
X54083160Y-73676009D01*
X54076764Y-73654928D01*
X54074000Y-73626860D01*
X54074000Y-73163140D01*
X54076764Y-73135072D01*
X54083160Y-73113991D01*
X54093548Y-73094555D01*
X54107524Y-73077524D01*
X54124555Y-73063548D01*
X54143991Y-73053160D01*
X54165072Y-73046764D01*
X54193140Y-73044000D01*
X56006860Y-73044000D01*
X56034928Y-73046764D01*
G37*
G36*
X68840000Y-73401000D02*
G01*
X67238000Y-73401000D01*
X67238000Y-72649000D01*
X68840000Y-72649000D01*
X68840000Y-73401000D01*
G37*
G36*
X74240000Y-73401000D02*
G01*
X72638000Y-73401000D01*
X72638000Y-72649000D01*
X74240000Y-72649000D01*
X74240000Y-73401000D01*
G37*
G36*
X79679591Y-71903085D02*
G01*
X79713569Y-71913393D01*
X79744890Y-71930134D01*
X79772339Y-71952661D01*
X79794866Y-71980110D01*
X79811607Y-72011431D01*
X79821915Y-72045409D01*
X79826000Y-72086890D01*
X79826000Y-72688110D01*
X79821915Y-72729591D01*
X79811607Y-72763569D01*
X79794866Y-72794890D01*
X79772339Y-72822339D01*
X79744890Y-72844866D01*
X79713569Y-72861607D01*
X79679591Y-72871915D01*
X79638110Y-72876000D01*
X78961890Y-72876000D01*
X78920409Y-72871915D01*
X78886431Y-72861607D01*
X78855110Y-72844866D01*
X78827661Y-72822339D01*
X78805134Y-72794890D01*
X78788393Y-72763569D01*
X78778085Y-72729591D01*
X78774000Y-72688110D01*
X78774000Y-72086890D01*
X78778085Y-72045409D01*
X78788393Y-72011431D01*
X78805134Y-71980110D01*
X78827661Y-71952661D01*
X78855110Y-71930134D01*
X78886431Y-71913393D01*
X78920409Y-71903085D01*
X78961890Y-71899000D01*
X79638110Y-71899000D01*
X79679591Y-71903085D01*
G37*
G36*
X77379591Y-71890585D02*
G01*
X77413569Y-71900893D01*
X77444890Y-71917634D01*
X77472339Y-71940161D01*
X77494866Y-71967610D01*
X77511607Y-71998931D01*
X77521915Y-72032909D01*
X77526000Y-72074390D01*
X77526000Y-72675610D01*
X77521915Y-72717091D01*
X77511607Y-72751069D01*
X77494866Y-72782390D01*
X77472339Y-72809839D01*
X77444890Y-72832366D01*
X77413569Y-72849107D01*
X77379591Y-72859415D01*
X77338110Y-72863500D01*
X76661890Y-72863500D01*
X76620409Y-72859415D01*
X76586431Y-72849107D01*
X76555110Y-72832366D01*
X76527661Y-72809839D01*
X76505134Y-72782390D01*
X76488393Y-72751069D01*
X76478085Y-72717091D01*
X76474000Y-72675610D01*
X76474000Y-72074390D01*
X76478085Y-72032909D01*
X76488393Y-71998931D01*
X76505134Y-71967610D01*
X76527661Y-71940161D01*
X76555110Y-71917634D01*
X76586431Y-71900893D01*
X76620409Y-71890585D01*
X76661890Y-71886500D01*
X77338110Y-71886500D01*
X77379591Y-71890585D01*
G37*
G36*
X74240000Y-72131000D02*
G01*
X72638000Y-72131000D01*
X72638000Y-71379000D01*
X74240000Y-71379000D01*
X74240000Y-72131000D01*
G37*
G36*
X68840000Y-72131000D02*
G01*
X67238000Y-72131000D01*
X67238000Y-71379000D01*
X68840000Y-71379000D01*
X68840000Y-72131000D01*
G37*
G36*
X58205468Y-70119565D02*
G01*
X58244138Y-70131296D01*
X58279777Y-70150346D01*
X58311017Y-70175983D01*
X58336654Y-70207223D01*
X58355704Y-70242862D01*
X58367435Y-70281532D01*
X58372000Y-70327888D01*
X58372000Y-71404112D01*
X58367435Y-71450468D01*
X58355704Y-71489138D01*
X58336654Y-71524777D01*
X58311017Y-71556017D01*
X58279777Y-71581654D01*
X58244138Y-71600704D01*
X58205468Y-71612435D01*
X58159112Y-71617000D01*
X57507888Y-71617000D01*
X57461532Y-71612435D01*
X57422862Y-71600704D01*
X57387223Y-71581654D01*
X57355983Y-71556017D01*
X57330346Y-71524777D01*
X57311296Y-71489138D01*
X57299565Y-71450468D01*
X57295000Y-71404112D01*
X57295000Y-70327888D01*
X57299565Y-70281532D01*
X57311296Y-70242862D01*
X57330346Y-70207223D01*
X57355983Y-70175983D01*
X57387223Y-70150346D01*
X57422862Y-70131296D01*
X57461532Y-70119565D01*
X57507888Y-70115000D01*
X58159112Y-70115000D01*
X58205468Y-70119565D01*
G37*
G36*
X56330468Y-70119565D02*
G01*
X56369138Y-70131296D01*
X56404777Y-70150346D01*
X56436017Y-70175983D01*
X56461654Y-70207223D01*
X56480704Y-70242862D01*
X56492435Y-70281532D01*
X56497000Y-70327888D01*
X56497000Y-71404112D01*
X56492435Y-71450468D01*
X56480704Y-71489138D01*
X56461654Y-71524777D01*
X56436017Y-71556017D01*
X56404777Y-71581654D01*
X56369138Y-71600704D01*
X56330468Y-71612435D01*
X56284112Y-71617000D01*
X55632888Y-71617000D01*
X55586532Y-71612435D01*
X55547862Y-71600704D01*
X55512223Y-71581654D01*
X55480983Y-71556017D01*
X55455346Y-71524777D01*
X55436296Y-71489138D01*
X55424565Y-71450468D01*
X55420000Y-71404112D01*
X55420000Y-70327888D01*
X55424565Y-70281532D01*
X55436296Y-70242862D01*
X55455346Y-70207223D01*
X55480983Y-70175983D01*
X55512223Y-70150346D01*
X55547862Y-70131296D01*
X55586532Y-70119565D01*
X55632888Y-70115000D01*
X56284112Y-70115000D01*
X56330468Y-70119565D01*
G37*
G36*
X79679591Y-70328085D02*
G01*
X79713569Y-70338393D01*
X79744890Y-70355134D01*
X79772339Y-70377661D01*
X79794866Y-70405110D01*
X79811607Y-70436431D01*
X79821915Y-70470409D01*
X79826000Y-70511890D01*
X79826000Y-71113110D01*
X79821915Y-71154591D01*
X79811607Y-71188569D01*
X79794866Y-71219890D01*
X79772339Y-71247339D01*
X79744890Y-71269866D01*
X79713569Y-71286607D01*
X79679591Y-71296915D01*
X79638110Y-71301000D01*
X78961890Y-71301000D01*
X78920409Y-71296915D01*
X78886431Y-71286607D01*
X78855110Y-71269866D01*
X78827661Y-71247339D01*
X78805134Y-71219890D01*
X78788393Y-71188569D01*
X78778085Y-71154591D01*
X78774000Y-71113110D01*
X78774000Y-70511890D01*
X78778085Y-70470409D01*
X78788393Y-70436431D01*
X78805134Y-70405110D01*
X78827661Y-70377661D01*
X78855110Y-70355134D01*
X78886431Y-70338393D01*
X78920409Y-70328085D01*
X78961890Y-70324000D01*
X79638110Y-70324000D01*
X79679591Y-70328085D01*
G37*
G36*
X77379591Y-70315585D02*
G01*
X77413569Y-70325893D01*
X77444890Y-70342634D01*
X77472339Y-70365161D01*
X77494866Y-70392610D01*
X77511607Y-70423931D01*
X77521915Y-70457909D01*
X77526000Y-70499390D01*
X77526000Y-71100610D01*
X77521915Y-71142091D01*
X77511607Y-71176069D01*
X77494866Y-71207390D01*
X77472339Y-71234839D01*
X77444890Y-71257366D01*
X77413569Y-71274107D01*
X77379591Y-71284415D01*
X77338110Y-71288500D01*
X76661890Y-71288500D01*
X76620409Y-71284415D01*
X76586431Y-71274107D01*
X76555110Y-71257366D01*
X76527661Y-71234839D01*
X76505134Y-71207390D01*
X76488393Y-71176069D01*
X76478085Y-71142091D01*
X76474000Y-71100610D01*
X76474000Y-70499390D01*
X76478085Y-70457909D01*
X76488393Y-70423931D01*
X76505134Y-70392610D01*
X76527661Y-70365161D01*
X76555110Y-70342634D01*
X76586431Y-70325893D01*
X76620409Y-70315585D01*
X76661890Y-70311500D01*
X77338110Y-70311500D01*
X77379591Y-70315585D01*
G37*
G36*
X68840000Y-70861000D02*
G01*
X67238000Y-70861000D01*
X67238000Y-70109000D01*
X68840000Y-70109000D01*
X68840000Y-70861000D01*
G37*
G36*
X74240000Y-70861000D02*
G01*
X72638000Y-70861000D01*
X72638000Y-70109000D01*
X74240000Y-70109000D01*
X74240000Y-70861000D01*
G37*
G36*
X74240000Y-69591000D02*
G01*
X72638000Y-69591000D01*
X72638000Y-68839000D01*
X74240000Y-68839000D01*
X74240000Y-69591000D01*
G37*
G36*
X68840000Y-69591000D02*
G01*
X67238000Y-69591000D01*
X67238000Y-68839000D01*
X68840000Y-68839000D01*
X68840000Y-69591000D01*
G37*
G36*
X81896968Y-67953565D02*
G01*
X81935638Y-67965296D01*
X81971277Y-67984346D01*
X82002517Y-68009983D01*
X82028154Y-68041223D01*
X82047204Y-68076862D01*
X82058935Y-68115532D01*
X82063500Y-68161888D01*
X82063500Y-69238112D01*
X82058935Y-69284468D01*
X82047204Y-69323138D01*
X82028154Y-69358777D01*
X82002517Y-69390017D01*
X81971277Y-69415654D01*
X81935638Y-69434704D01*
X81896968Y-69446435D01*
X81850612Y-69451000D01*
X81199388Y-69451000D01*
X81153032Y-69446435D01*
X81114362Y-69434704D01*
X81078723Y-69415654D01*
X81047483Y-69390017D01*
X81021846Y-69358777D01*
X81002796Y-69323138D01*
X80991065Y-69284468D01*
X80986500Y-69238112D01*
X80986500Y-68161888D01*
X80991065Y-68115532D01*
X81002796Y-68076862D01*
X81021846Y-68041223D01*
X81047483Y-68009983D01*
X81078723Y-67984346D01*
X81114362Y-67965296D01*
X81153032Y-67953565D01*
X81199388Y-67949000D01*
X81850612Y-67949000D01*
X81896968Y-67953565D01*
G37*
G36*
X83771968Y-67953565D02*
G01*
X83810638Y-67965296D01*
X83846277Y-67984346D01*
X83877517Y-68009983D01*
X83903154Y-68041223D01*
X83922204Y-68076862D01*
X83933935Y-68115532D01*
X83938500Y-68161888D01*
X83938500Y-69238112D01*
X83933935Y-69284468D01*
X83922204Y-69323138D01*
X83903154Y-69358777D01*
X83877517Y-69390017D01*
X83846277Y-69415654D01*
X83810638Y-69434704D01*
X83771968Y-69446435D01*
X83725612Y-69451000D01*
X83074388Y-69451000D01*
X83028032Y-69446435D01*
X82989362Y-69434704D01*
X82953723Y-69415654D01*
X82922483Y-69390017D01*
X82896846Y-69358777D01*
X82877796Y-69323138D01*
X82866065Y-69284468D01*
X82861500Y-69238112D01*
X82861500Y-68161888D01*
X82866065Y-68115532D01*
X82877796Y-68076862D01*
X82896846Y-68041223D01*
X82922483Y-68009983D01*
X82953723Y-67984346D01*
X82989362Y-67965296D01*
X83028032Y-67953565D01*
X83074388Y-67949000D01*
X83725612Y-67949000D01*
X83771968Y-67953565D01*
G37*
G36*
X114330866Y-64033748D02*
G01*
X114658684Y-64098955D01*
X114769846Y-64145000D01*
X115132034Y-64295023D01*
X115273393Y-64389476D01*
X115558041Y-64579671D01*
X115920329Y-64941959D01*
X116073101Y-65170599D01*
X116204977Y-65367966D01*
X116315067Y-65633748D01*
X116401045Y-65841316D01*
X116421929Y-65946307D01*
X116493402Y-66305623D01*
X116501000Y-66343824D01*
X116501000Y-66856176D01*
X116401045Y-67358684D01*
X116392385Y-67379591D01*
X116204977Y-67832034D01*
X116204976Y-67832035D01*
X115920329Y-68258041D01*
X115558041Y-68620329D01*
X115273393Y-68810524D01*
X115132034Y-68904977D01*
X114854752Y-69019831D01*
X114658684Y-69101045D01*
X114407430Y-69151023D01*
X114156177Y-69201000D01*
X113643823Y-69201000D01*
X113392570Y-69151023D01*
X113141316Y-69101045D01*
X112945248Y-69019831D01*
X112667966Y-68904977D01*
X112526607Y-68810524D01*
X112241959Y-68620329D01*
X111879671Y-68258041D01*
X111595024Y-67832035D01*
X111595023Y-67832034D01*
X111407615Y-67379591D01*
X111398955Y-67358684D01*
X111299000Y-66856176D01*
X111299000Y-66343824D01*
X111306599Y-66305623D01*
X111378071Y-65946307D01*
X111398955Y-65841316D01*
X111484933Y-65633748D01*
X111595023Y-65367966D01*
X111726899Y-65170599D01*
X111879671Y-64941959D01*
X112241959Y-64579671D01*
X112526607Y-64389476D01*
X112667966Y-64295023D01*
X113030154Y-64145000D01*
X113141316Y-64098955D01*
X113469134Y-64033748D01*
X113643823Y-63999000D01*
X114156177Y-63999000D01*
X114330866Y-64033748D01*
G37*
G36*
X68840000Y-68321000D02*
G01*
X67238000Y-68321000D01*
X67238000Y-67569000D01*
X68840000Y-67569000D01*
X68840000Y-68321000D01*
G37*
G36*
X74240000Y-68321000D02*
G01*
X72638000Y-68321000D01*
X72638000Y-67569000D01*
X74240000Y-67569000D01*
X74240000Y-68321000D01*
G37*
G36*
X57628051Y-66622284D02*
G01*
X57644443Y-66627257D01*
X57659555Y-66635334D01*
X57672798Y-66646202D01*
X57683667Y-66659447D01*
X57687761Y-66667106D01*
X57701374Y-66687480D01*
X57718701Y-66704807D01*
X57739076Y-66718421D01*
X57761714Y-66727798D01*
X57785748Y-66732579D01*
X57810252Y-66732579D01*
X57834285Y-66727799D01*
X57856924Y-66718421D01*
X57877298Y-66704808D01*
X57894625Y-66687481D01*
X57908239Y-66667106D01*
X57912333Y-66659447D01*
X57923202Y-66646202D01*
X57936445Y-66635334D01*
X57951557Y-66627257D01*
X57967949Y-66622284D01*
X57991141Y-66620000D01*
X58404859Y-66620000D01*
X58428051Y-66622284D01*
X58444443Y-66627257D01*
X58459555Y-66635334D01*
X58472798Y-66646202D01*
X58483667Y-66659447D01*
X58487761Y-66667106D01*
X58501374Y-66687480D01*
X58518701Y-66704807D01*
X58539076Y-66718421D01*
X58561714Y-66727798D01*
X58585748Y-66732579D01*
X58610252Y-66732579D01*
X58634285Y-66727799D01*
X58656924Y-66718421D01*
X58677298Y-66704808D01*
X58694625Y-66687481D01*
X58708239Y-66667106D01*
X58712333Y-66659447D01*
X58723202Y-66646202D01*
X58736445Y-66635334D01*
X58751557Y-66627257D01*
X58767949Y-66622284D01*
X58791141Y-66620000D01*
X59204859Y-66620000D01*
X59228051Y-66622284D01*
X59244443Y-66627257D01*
X59259555Y-66635334D01*
X59272798Y-66646202D01*
X59283667Y-66659447D01*
X59287761Y-66667106D01*
X59301374Y-66687480D01*
X59318701Y-66704807D01*
X59339076Y-66718421D01*
X59361714Y-66727798D01*
X59385748Y-66732579D01*
X59410252Y-66732579D01*
X59434285Y-66727799D01*
X59456924Y-66718421D01*
X59477298Y-66704808D01*
X59494625Y-66687481D01*
X59508239Y-66667106D01*
X59512333Y-66659447D01*
X59523202Y-66646202D01*
X59536445Y-66635334D01*
X59551557Y-66627257D01*
X59567949Y-66622284D01*
X59591141Y-66620000D01*
X60004859Y-66620000D01*
X60028051Y-66622284D01*
X60044443Y-66627257D01*
X60059555Y-66635334D01*
X60072798Y-66646202D01*
X60083667Y-66659447D01*
X60087761Y-66667106D01*
X60101374Y-66687480D01*
X60118701Y-66704807D01*
X60139076Y-66718421D01*
X60161714Y-66727798D01*
X60185748Y-66732579D01*
X60210252Y-66732579D01*
X60234285Y-66727799D01*
X60256924Y-66718421D01*
X60277298Y-66704808D01*
X60294625Y-66687481D01*
X60308239Y-66667106D01*
X60312333Y-66659447D01*
X60323202Y-66646202D01*
X60336445Y-66635334D01*
X60351557Y-66627257D01*
X60367949Y-66622284D01*
X60391141Y-66620000D01*
X60804859Y-66620000D01*
X60828051Y-66622284D01*
X60844443Y-66627257D01*
X60859555Y-66635334D01*
X60872798Y-66646202D01*
X60883667Y-66659447D01*
X60887761Y-66667106D01*
X60901374Y-66687480D01*
X60918701Y-66704807D01*
X60939076Y-66718421D01*
X60961714Y-66727798D01*
X60985748Y-66732579D01*
X61010252Y-66732579D01*
X61034285Y-66727799D01*
X61056924Y-66718421D01*
X61077298Y-66704808D01*
X61094625Y-66687481D01*
X61108239Y-66667106D01*
X61112333Y-66659447D01*
X61123202Y-66646202D01*
X61136445Y-66635334D01*
X61151557Y-66627257D01*
X61167949Y-66622284D01*
X61191141Y-66620000D01*
X61604859Y-66620000D01*
X61628051Y-66622284D01*
X61644443Y-66627257D01*
X61659555Y-66635334D01*
X61672798Y-66646202D01*
X61683667Y-66659447D01*
X61687761Y-66667106D01*
X61701374Y-66687480D01*
X61718701Y-66704807D01*
X61739076Y-66718421D01*
X61761714Y-66727798D01*
X61785748Y-66732579D01*
X61810252Y-66732579D01*
X61834285Y-66727799D01*
X61856924Y-66718421D01*
X61877298Y-66704808D01*
X61894625Y-66687481D01*
X61908239Y-66667106D01*
X61912333Y-66659447D01*
X61923202Y-66646202D01*
X61936445Y-66635334D01*
X61951557Y-66627257D01*
X61967949Y-66622284D01*
X61991141Y-66620000D01*
X62404859Y-66620000D01*
X62428051Y-66622284D01*
X62444443Y-66627257D01*
X62459555Y-66635334D01*
X62472798Y-66646202D01*
X62483667Y-66659447D01*
X62487761Y-66667106D01*
X62501374Y-66687480D01*
X62518701Y-66704807D01*
X62539076Y-66718421D01*
X62561714Y-66727798D01*
X62585748Y-66732579D01*
X62610252Y-66732579D01*
X62634285Y-66727799D01*
X62656924Y-66718421D01*
X62677298Y-66704808D01*
X62694625Y-66687481D01*
X62708239Y-66667106D01*
X62712333Y-66659447D01*
X62723202Y-66646202D01*
X62736445Y-66635334D01*
X62751557Y-66627257D01*
X62767949Y-66622284D01*
X62791141Y-66620000D01*
X63204859Y-66620000D01*
X63228051Y-66622284D01*
X63244443Y-66627257D01*
X63259555Y-66635334D01*
X63272798Y-66646202D01*
X63283666Y-66659445D01*
X63291743Y-66674557D01*
X63296716Y-66690949D01*
X63299000Y-66714141D01*
X63299000Y-68127859D01*
X63296716Y-68151051D01*
X63291743Y-68167443D01*
X63283666Y-68182555D01*
X63272798Y-68195798D01*
X63259555Y-68206666D01*
X63244443Y-68214743D01*
X63228051Y-68219716D01*
X63204859Y-68222000D01*
X62791141Y-68222000D01*
X62767949Y-68219716D01*
X62751557Y-68214743D01*
X62736445Y-68206666D01*
X62723202Y-68195798D01*
X62712333Y-68182553D01*
X62708239Y-68174894D01*
X62694626Y-68154520D01*
X62677299Y-68137193D01*
X62656924Y-68123579D01*
X62634286Y-68114202D01*
X62610252Y-68109421D01*
X62585748Y-68109421D01*
X62561715Y-68114201D01*
X62539076Y-68123579D01*
X62518702Y-68137192D01*
X62501375Y-68154519D01*
X62487761Y-68174894D01*
X62483667Y-68182553D01*
X62472798Y-68195798D01*
X62459555Y-68206666D01*
X62444443Y-68214743D01*
X62428051Y-68219716D01*
X62404859Y-68222000D01*
X61991141Y-68222000D01*
X61967949Y-68219716D01*
X61951557Y-68214743D01*
X61936445Y-68206666D01*
X61923202Y-68195798D01*
X61912333Y-68182553D01*
X61908239Y-68174894D01*
X61894626Y-68154520D01*
X61877299Y-68137193D01*
X61856924Y-68123579D01*
X61834286Y-68114202D01*
X61810252Y-68109421D01*
X61785748Y-68109421D01*
X61761715Y-68114201D01*
X61739076Y-68123579D01*
X61718702Y-68137192D01*
X61701375Y-68154519D01*
X61687761Y-68174894D01*
X61683667Y-68182553D01*
X61672798Y-68195798D01*
X61659555Y-68206666D01*
X61644443Y-68214743D01*
X61628051Y-68219716D01*
X61604859Y-68222000D01*
X61191141Y-68222000D01*
X61167949Y-68219716D01*
X61151557Y-68214743D01*
X61136445Y-68206666D01*
X61123202Y-68195798D01*
X61112333Y-68182553D01*
X61108239Y-68174894D01*
X61094626Y-68154520D01*
X61077299Y-68137193D01*
X61056924Y-68123579D01*
X61034286Y-68114202D01*
X61010252Y-68109421D01*
X60985748Y-68109421D01*
X60961715Y-68114201D01*
X60939076Y-68123579D01*
X60918702Y-68137192D01*
X60901375Y-68154519D01*
X60887761Y-68174894D01*
X60883667Y-68182553D01*
X60872798Y-68195798D01*
X60859555Y-68206666D01*
X60844443Y-68214743D01*
X60828051Y-68219716D01*
X60804859Y-68222000D01*
X60391141Y-68222000D01*
X60367949Y-68219716D01*
X60351557Y-68214743D01*
X60336445Y-68206666D01*
X60323202Y-68195798D01*
X60312333Y-68182553D01*
X60308239Y-68174894D01*
X60294626Y-68154520D01*
X60277299Y-68137193D01*
X60256924Y-68123579D01*
X60234286Y-68114202D01*
X60210252Y-68109421D01*
X60185748Y-68109421D01*
X60161715Y-68114201D01*
X60139076Y-68123579D01*
X60118702Y-68137192D01*
X60101375Y-68154519D01*
X60087761Y-68174894D01*
X60083667Y-68182553D01*
X60072798Y-68195798D01*
X60059555Y-68206666D01*
X60044443Y-68214743D01*
X60028051Y-68219716D01*
X60004859Y-68222000D01*
X59591141Y-68222000D01*
X59567949Y-68219716D01*
X59551557Y-68214743D01*
X59536445Y-68206666D01*
X59523202Y-68195798D01*
X59512333Y-68182553D01*
X59508239Y-68174894D01*
X59494626Y-68154520D01*
X59477299Y-68137193D01*
X59456924Y-68123579D01*
X59434286Y-68114202D01*
X59410252Y-68109421D01*
X59385748Y-68109421D01*
X59361715Y-68114201D01*
X59339076Y-68123579D01*
X59318702Y-68137192D01*
X59301375Y-68154519D01*
X59287761Y-68174894D01*
X59283667Y-68182553D01*
X59272798Y-68195798D01*
X59259555Y-68206666D01*
X59244443Y-68214743D01*
X59228051Y-68219716D01*
X59204859Y-68222000D01*
X58791141Y-68222000D01*
X58767949Y-68219716D01*
X58751557Y-68214743D01*
X58736445Y-68206666D01*
X58723202Y-68195798D01*
X58712333Y-68182553D01*
X58708239Y-68174894D01*
X58694626Y-68154520D01*
X58677299Y-68137193D01*
X58656924Y-68123579D01*
X58634286Y-68114202D01*
X58610252Y-68109421D01*
X58585748Y-68109421D01*
X58561715Y-68114201D01*
X58539076Y-68123579D01*
X58518702Y-68137192D01*
X58501375Y-68154519D01*
X58487761Y-68174894D01*
X58483667Y-68182553D01*
X58472798Y-68195798D01*
X58459555Y-68206666D01*
X58444443Y-68214743D01*
X58428051Y-68219716D01*
X58404859Y-68222000D01*
X57991141Y-68222000D01*
X57967949Y-68219716D01*
X57951557Y-68214743D01*
X57936445Y-68206666D01*
X57923202Y-68195798D01*
X57912333Y-68182553D01*
X57908239Y-68174894D01*
X57894626Y-68154520D01*
X57877299Y-68137193D01*
X57856924Y-68123579D01*
X57834286Y-68114202D01*
X57810252Y-68109421D01*
X57785748Y-68109421D01*
X57761715Y-68114201D01*
X57739076Y-68123579D01*
X57718702Y-68137192D01*
X57701375Y-68154519D01*
X57687761Y-68174894D01*
X57683667Y-68182553D01*
X57672798Y-68195798D01*
X57659555Y-68206666D01*
X57644443Y-68214743D01*
X57628051Y-68219716D01*
X57604859Y-68222000D01*
X57191141Y-68222000D01*
X57167949Y-68219716D01*
X57151557Y-68214743D01*
X57136445Y-68206666D01*
X57123202Y-68195798D01*
X57112334Y-68182555D01*
X57104257Y-68167443D01*
X57099284Y-68151051D01*
X57097000Y-68127859D01*
X57097000Y-66714141D01*
X57099284Y-66690949D01*
X57104257Y-66674557D01*
X57112334Y-66659445D01*
X57123202Y-66646202D01*
X57136445Y-66635334D01*
X57151557Y-66627257D01*
X57167949Y-66622284D01*
X57191141Y-66620000D01*
X57604859Y-66620000D01*
X57628051Y-66622284D01*
G37*
G36*
X79679591Y-66553085D02*
G01*
X79713569Y-66563393D01*
X79744890Y-66580134D01*
X79772339Y-66602661D01*
X79794866Y-66630110D01*
X79811607Y-66661431D01*
X79821915Y-66695409D01*
X79826000Y-66736890D01*
X79826000Y-67338110D01*
X79821915Y-67379591D01*
X79811607Y-67413569D01*
X79794866Y-67444890D01*
X79772339Y-67472339D01*
X79744890Y-67494866D01*
X79713569Y-67511607D01*
X79679591Y-67521915D01*
X79638110Y-67526000D01*
X78961890Y-67526000D01*
X78920409Y-67521915D01*
X78886431Y-67511607D01*
X78855110Y-67494866D01*
X78827661Y-67472339D01*
X78805134Y-67444890D01*
X78788393Y-67413569D01*
X78778085Y-67379591D01*
X78774000Y-67338110D01*
X78774000Y-66736890D01*
X78778085Y-66695409D01*
X78788393Y-66661431D01*
X78805134Y-66630110D01*
X78827661Y-66602661D01*
X78855110Y-66580134D01*
X78886431Y-66563393D01*
X78920409Y-66553085D01*
X78961890Y-66549000D01*
X79638110Y-66549000D01*
X79679591Y-66553085D01*
G37*
G36*
X76679591Y-66553085D02*
G01*
X76713569Y-66563393D01*
X76744890Y-66580134D01*
X76772339Y-66602661D01*
X76794866Y-66630110D01*
X76811607Y-66661431D01*
X76821915Y-66695409D01*
X76826000Y-66736890D01*
X76826000Y-67338110D01*
X76821915Y-67379591D01*
X76811607Y-67413569D01*
X76794866Y-67444890D01*
X76772339Y-67472339D01*
X76744890Y-67494866D01*
X76713569Y-67511607D01*
X76679591Y-67521915D01*
X76638110Y-67526000D01*
X75961890Y-67526000D01*
X75920409Y-67521915D01*
X75886431Y-67511607D01*
X75855110Y-67494866D01*
X75827661Y-67472339D01*
X75805134Y-67444890D01*
X75788393Y-67413569D01*
X75778085Y-67379591D01*
X75774000Y-67338110D01*
X75774000Y-66736890D01*
X75778085Y-66695409D01*
X75788393Y-66661431D01*
X75805134Y-66630110D01*
X75827661Y-66602661D01*
X75855110Y-66580134D01*
X75886431Y-66563393D01*
X75920409Y-66553085D01*
X75961890Y-66549000D01*
X76638110Y-66549000D01*
X76679591Y-66553085D01*
G37*
G36*
X71896968Y-64853565D02*
G01*
X71935638Y-64865296D01*
X71971277Y-64884346D01*
X72002517Y-64909983D01*
X72028154Y-64941223D01*
X72047204Y-64976862D01*
X72058935Y-65015532D01*
X72063500Y-65061888D01*
X72063500Y-66138112D01*
X72058935Y-66184468D01*
X72047204Y-66223138D01*
X72028154Y-66258777D01*
X72002517Y-66290017D01*
X71971277Y-66315654D01*
X71935638Y-66334704D01*
X71896968Y-66346435D01*
X71850612Y-66351000D01*
X71199388Y-66351000D01*
X71153032Y-66346435D01*
X71114362Y-66334704D01*
X71078723Y-66315654D01*
X71047483Y-66290017D01*
X71021846Y-66258777D01*
X71002796Y-66223138D01*
X70991065Y-66184468D01*
X70986500Y-66138112D01*
X70986500Y-65061888D01*
X70991065Y-65015532D01*
X71002796Y-64976862D01*
X71021846Y-64941223D01*
X71047483Y-64909983D01*
X71078723Y-64884346D01*
X71114362Y-64865296D01*
X71153032Y-64853565D01*
X71199388Y-64849000D01*
X71850612Y-64849000D01*
X71896968Y-64853565D01*
G37*
G36*
X73771968Y-64853565D02*
G01*
X73810638Y-64865296D01*
X73846277Y-64884346D01*
X73877517Y-64909983D01*
X73903154Y-64941223D01*
X73922204Y-64976862D01*
X73933935Y-65015532D01*
X73938500Y-65061888D01*
X73938500Y-66138112D01*
X73933935Y-66184468D01*
X73922204Y-66223138D01*
X73903154Y-66258777D01*
X73877517Y-66290017D01*
X73846277Y-66315654D01*
X73810638Y-66334704D01*
X73771968Y-66346435D01*
X73725612Y-66351000D01*
X73074388Y-66351000D01*
X73028032Y-66346435D01*
X72989362Y-66334704D01*
X72953723Y-66315654D01*
X72922483Y-66290017D01*
X72896846Y-66258777D01*
X72877796Y-66223138D01*
X72866065Y-66184468D01*
X72861500Y-66138112D01*
X72861500Y-65061888D01*
X72866065Y-65015532D01*
X72877796Y-64976862D01*
X72896846Y-64941223D01*
X72922483Y-64909983D01*
X72953723Y-64884346D01*
X72989362Y-64865296D01*
X73028032Y-64853565D01*
X73074388Y-64849000D01*
X73725612Y-64849000D01*
X73771968Y-64853565D01*
G37*
G36*
X65103051Y-60147284D02*
G01*
X65119443Y-60152257D01*
X65134555Y-60160334D01*
X65147798Y-60171202D01*
X65158666Y-60184445D01*
X65166743Y-60199557D01*
X65171716Y-60215949D01*
X65174000Y-60239141D01*
X65174000Y-60652859D01*
X65171716Y-60676051D01*
X65166743Y-60692443D01*
X65158666Y-60707555D01*
X65147798Y-60720798D01*
X65134553Y-60731667D01*
X65126894Y-60735761D01*
X65106520Y-60749374D01*
X65089193Y-60766701D01*
X65075579Y-60787076D01*
X65066202Y-60809714D01*
X65061421Y-60833748D01*
X65061421Y-60858252D01*
X65066201Y-60882285D01*
X65075579Y-60904924D01*
X65089192Y-60925298D01*
X65106519Y-60942625D01*
X65126894Y-60956239D01*
X65134553Y-60960333D01*
X65147798Y-60971202D01*
X65158666Y-60984445D01*
X65166743Y-60999557D01*
X65171716Y-61015949D01*
X65174000Y-61039141D01*
X65174000Y-61452859D01*
X65171716Y-61476051D01*
X65166743Y-61492443D01*
X65158666Y-61507555D01*
X65147798Y-61520798D01*
X65134553Y-61531667D01*
X65126894Y-61535761D01*
X65106520Y-61549374D01*
X65089193Y-61566701D01*
X65075579Y-61587076D01*
X65066202Y-61609714D01*
X65061421Y-61633748D01*
X65061421Y-61658252D01*
X65066201Y-61682285D01*
X65075579Y-61704924D01*
X65089192Y-61725298D01*
X65106519Y-61742625D01*
X65126894Y-61756239D01*
X65134553Y-61760333D01*
X65147798Y-61771202D01*
X65158666Y-61784445D01*
X65166743Y-61799557D01*
X65171716Y-61815949D01*
X65174000Y-61839141D01*
X65174000Y-62252859D01*
X65171716Y-62276051D01*
X65166743Y-62292443D01*
X65158666Y-62307555D01*
X65147798Y-62320798D01*
X65134553Y-62331667D01*
X65126894Y-62335761D01*
X65106520Y-62349374D01*
X65089193Y-62366701D01*
X65075579Y-62387076D01*
X65066202Y-62409714D01*
X65061421Y-62433748D01*
X65061421Y-62458252D01*
X65066201Y-62482285D01*
X65075579Y-62504924D01*
X65089192Y-62525298D01*
X65106519Y-62542625D01*
X65126894Y-62556239D01*
X65134553Y-62560333D01*
X65147798Y-62571202D01*
X65158666Y-62584445D01*
X65166743Y-62599557D01*
X65171716Y-62615949D01*
X65174000Y-62639141D01*
X65174000Y-63052859D01*
X65171716Y-63076051D01*
X65166743Y-63092443D01*
X65158666Y-63107555D01*
X65147798Y-63120798D01*
X65134553Y-63131667D01*
X65126894Y-63135761D01*
X65106520Y-63149374D01*
X65089193Y-63166701D01*
X65075579Y-63187076D01*
X65066202Y-63209714D01*
X65061421Y-63233748D01*
X65061421Y-63258252D01*
X65066201Y-63282285D01*
X65075579Y-63304924D01*
X65089192Y-63325298D01*
X65106519Y-63342625D01*
X65126894Y-63356239D01*
X65134553Y-63360333D01*
X65147798Y-63371202D01*
X65158666Y-63384445D01*
X65166743Y-63399557D01*
X65171716Y-63415949D01*
X65174000Y-63439141D01*
X65174000Y-63852859D01*
X65171716Y-63876051D01*
X65166743Y-63892443D01*
X65158666Y-63907555D01*
X65147798Y-63920798D01*
X65134553Y-63931667D01*
X65126894Y-63935761D01*
X65106520Y-63949374D01*
X65089193Y-63966701D01*
X65075579Y-63987076D01*
X65066202Y-64009714D01*
X65061421Y-64033748D01*
X65061421Y-64058252D01*
X65066201Y-64082285D01*
X65075579Y-64104924D01*
X65089192Y-64125298D01*
X65106519Y-64142625D01*
X65126894Y-64156239D01*
X65134553Y-64160333D01*
X65147798Y-64171202D01*
X65158666Y-64184445D01*
X65166743Y-64199557D01*
X65171716Y-64215949D01*
X65174000Y-64239141D01*
X65174000Y-64652859D01*
X65171716Y-64676051D01*
X65166743Y-64692443D01*
X65158666Y-64707555D01*
X65147798Y-64720798D01*
X65134553Y-64731667D01*
X65126894Y-64735761D01*
X65106520Y-64749374D01*
X65089193Y-64766701D01*
X65075579Y-64787076D01*
X65066202Y-64809714D01*
X65061421Y-64833748D01*
X65061421Y-64858252D01*
X65066201Y-64882285D01*
X65075579Y-64904924D01*
X65089192Y-64925298D01*
X65106519Y-64942625D01*
X65126894Y-64956239D01*
X65134553Y-64960333D01*
X65147798Y-64971202D01*
X65158666Y-64984445D01*
X65166743Y-64999557D01*
X65171716Y-65015949D01*
X65174000Y-65039141D01*
X65174000Y-65452859D01*
X65171716Y-65476051D01*
X65166743Y-65492443D01*
X65158666Y-65507555D01*
X65147798Y-65520798D01*
X65134553Y-65531667D01*
X65126894Y-65535761D01*
X65106520Y-65549374D01*
X65089193Y-65566701D01*
X65075579Y-65587076D01*
X65066202Y-65609714D01*
X65061421Y-65633748D01*
X65061421Y-65658252D01*
X65066201Y-65682285D01*
X65075579Y-65704924D01*
X65089192Y-65725298D01*
X65106519Y-65742625D01*
X65126894Y-65756239D01*
X65134553Y-65760333D01*
X65147798Y-65771202D01*
X65158666Y-65784445D01*
X65166743Y-65799557D01*
X65171716Y-65815949D01*
X65174000Y-65839141D01*
X65174000Y-66252859D01*
X65171716Y-66276051D01*
X65166743Y-66292443D01*
X65158666Y-66307555D01*
X65147798Y-66320798D01*
X65134555Y-66331666D01*
X65119443Y-66339743D01*
X65103051Y-66344716D01*
X65079859Y-66347000D01*
X63666141Y-66347000D01*
X63642949Y-66344716D01*
X63626557Y-66339743D01*
X63611445Y-66331666D01*
X63598202Y-66320798D01*
X63587334Y-66307555D01*
X63579257Y-66292443D01*
X63574284Y-66276051D01*
X63572000Y-66252859D01*
X63572000Y-65839141D01*
X63574284Y-65815949D01*
X63579257Y-65799557D01*
X63587334Y-65784445D01*
X63598202Y-65771202D01*
X63611447Y-65760333D01*
X63619106Y-65756239D01*
X63639480Y-65742626D01*
X63656807Y-65725299D01*
X63670421Y-65704924D01*
X63679798Y-65682286D01*
X63684579Y-65658252D01*
X63684579Y-65633748D01*
X63679799Y-65609715D01*
X63670421Y-65587076D01*
X63656808Y-65566702D01*
X63639481Y-65549375D01*
X63619106Y-65535761D01*
X63611447Y-65531667D01*
X63598202Y-65520798D01*
X63587334Y-65507555D01*
X63579257Y-65492443D01*
X63574284Y-65476051D01*
X63572000Y-65452859D01*
X63572000Y-65039141D01*
X63574284Y-65015949D01*
X63579257Y-64999557D01*
X63587334Y-64984445D01*
X63598202Y-64971202D01*
X63611447Y-64960333D01*
X63619106Y-64956239D01*
X63639480Y-64942626D01*
X63656807Y-64925299D01*
X63670421Y-64904924D01*
X63679798Y-64882286D01*
X63684579Y-64858252D01*
X63684579Y-64833748D01*
X63679799Y-64809715D01*
X63670421Y-64787076D01*
X63656808Y-64766702D01*
X63639481Y-64749375D01*
X63619106Y-64735761D01*
X63611447Y-64731667D01*
X63598202Y-64720798D01*
X63587334Y-64707555D01*
X63579257Y-64692443D01*
X63574284Y-64676051D01*
X63572000Y-64652859D01*
X63572000Y-64239141D01*
X63574284Y-64215949D01*
X63579257Y-64199557D01*
X63587334Y-64184445D01*
X63598202Y-64171202D01*
X63611447Y-64160333D01*
X63619106Y-64156239D01*
X63639480Y-64142626D01*
X63656807Y-64125299D01*
X63670421Y-64104924D01*
X63679798Y-64082286D01*
X63684579Y-64058252D01*
X63684579Y-64033748D01*
X63679799Y-64009715D01*
X63670421Y-63987076D01*
X63656808Y-63966702D01*
X63639481Y-63949375D01*
X63619106Y-63935761D01*
X63611447Y-63931667D01*
X63598202Y-63920798D01*
X63587334Y-63907555D01*
X63579257Y-63892443D01*
X63574284Y-63876051D01*
X63572000Y-63852859D01*
X63572000Y-63439141D01*
X63574284Y-63415949D01*
X63579257Y-63399557D01*
X63587334Y-63384445D01*
X63598202Y-63371202D01*
X63611447Y-63360333D01*
X63619106Y-63356239D01*
X63639480Y-63342626D01*
X63656807Y-63325299D01*
X63670421Y-63304924D01*
X63679798Y-63282286D01*
X63684579Y-63258252D01*
X63684579Y-63233748D01*
X63679799Y-63209715D01*
X63670421Y-63187076D01*
X63656808Y-63166702D01*
X63639481Y-63149375D01*
X63619106Y-63135761D01*
X63611447Y-63131667D01*
X63598202Y-63120798D01*
X63587334Y-63107555D01*
X63579257Y-63092443D01*
X63574284Y-63076051D01*
X63572000Y-63052859D01*
X63572000Y-62639141D01*
X63574284Y-62615949D01*
X63579257Y-62599557D01*
X63587334Y-62584445D01*
X63598202Y-62571202D01*
X63611447Y-62560333D01*
X63619106Y-62556239D01*
X63639480Y-62542626D01*
X63656807Y-62525299D01*
X63670421Y-62504924D01*
X63679798Y-62482286D01*
X63684579Y-62458252D01*
X63684579Y-62433748D01*
X63679799Y-62409715D01*
X63670421Y-62387076D01*
X63656808Y-62366702D01*
X63639481Y-62349375D01*
X63619106Y-62335761D01*
X63611447Y-62331667D01*
X63598202Y-62320798D01*
X63587334Y-62307555D01*
X63579257Y-62292443D01*
X63574284Y-62276051D01*
X63572000Y-62252859D01*
X63572000Y-61839141D01*
X63574284Y-61815949D01*
X63579257Y-61799557D01*
X63587334Y-61784445D01*
X63598202Y-61771202D01*
X63611447Y-61760333D01*
X63619106Y-61756239D01*
X63639480Y-61742626D01*
X63656807Y-61725299D01*
X63670421Y-61704924D01*
X63679798Y-61682286D01*
X63684579Y-61658252D01*
X63684579Y-61633748D01*
X63679799Y-61609715D01*
X63670421Y-61587076D01*
X63656808Y-61566702D01*
X63639481Y-61549375D01*
X63619106Y-61535761D01*
X63611447Y-61531667D01*
X63598202Y-61520798D01*
X63587334Y-61507555D01*
X63579257Y-61492443D01*
X63574284Y-61476051D01*
X63572000Y-61452859D01*
X63572000Y-61039141D01*
X63574284Y-61015949D01*
X63579257Y-60999557D01*
X63587334Y-60984445D01*
X63598202Y-60971202D01*
X63611447Y-60960333D01*
X63619106Y-60956239D01*
X63639480Y-60942626D01*
X63656807Y-60925299D01*
X63670421Y-60904924D01*
X63679798Y-60882286D01*
X63684579Y-60858252D01*
X63684579Y-60833748D01*
X63679799Y-60809715D01*
X63670421Y-60787076D01*
X63656808Y-60766702D01*
X63639481Y-60749375D01*
X63619106Y-60735761D01*
X63611447Y-60731667D01*
X63598202Y-60720798D01*
X63587334Y-60707555D01*
X63579257Y-60692443D01*
X63574284Y-60676051D01*
X63572000Y-60652859D01*
X63572000Y-60239141D01*
X63574284Y-60215949D01*
X63579257Y-60199557D01*
X63587334Y-60184445D01*
X63598202Y-60171202D01*
X63611445Y-60160334D01*
X63626557Y-60152257D01*
X63642949Y-60147284D01*
X63666141Y-60145000D01*
X65079859Y-60145000D01*
X65103051Y-60147284D01*
G37*
G36*
X56753051Y-60147284D02*
G01*
X56769443Y-60152257D01*
X56784555Y-60160334D01*
X56797798Y-60171202D01*
X56808666Y-60184445D01*
X56816743Y-60199557D01*
X56821716Y-60215949D01*
X56824000Y-60239141D01*
X56824000Y-60652859D01*
X56821716Y-60676051D01*
X56816743Y-60692443D01*
X56808666Y-60707555D01*
X56797798Y-60720798D01*
X56784553Y-60731667D01*
X56776894Y-60735761D01*
X56756520Y-60749374D01*
X56739193Y-60766701D01*
X56725579Y-60787076D01*
X56716202Y-60809714D01*
X56711421Y-60833748D01*
X56711421Y-60858252D01*
X56716201Y-60882285D01*
X56725579Y-60904924D01*
X56739192Y-60925298D01*
X56756519Y-60942625D01*
X56776894Y-60956239D01*
X56784553Y-60960333D01*
X56797798Y-60971202D01*
X56808666Y-60984445D01*
X56816743Y-60999557D01*
X56821716Y-61015949D01*
X56824000Y-61039141D01*
X56824000Y-61452859D01*
X56821716Y-61476051D01*
X56816743Y-61492443D01*
X56808666Y-61507555D01*
X56797798Y-61520798D01*
X56784553Y-61531667D01*
X56776894Y-61535761D01*
X56756520Y-61549374D01*
X56739193Y-61566701D01*
X56725579Y-61587076D01*
X56716202Y-61609714D01*
X56711421Y-61633748D01*
X56711421Y-61658252D01*
X56716201Y-61682285D01*
X56725579Y-61704924D01*
X56739192Y-61725298D01*
X56756519Y-61742625D01*
X56776894Y-61756239D01*
X56784553Y-61760333D01*
X56797798Y-61771202D01*
X56808666Y-61784445D01*
X56816743Y-61799557D01*
X56821716Y-61815949D01*
X56824000Y-61839141D01*
X56824000Y-62252859D01*
X56821716Y-62276051D01*
X56816743Y-62292443D01*
X56808666Y-62307555D01*
X56797798Y-62320798D01*
X56784553Y-62331667D01*
X56776894Y-62335761D01*
X56756520Y-62349374D01*
X56739193Y-62366701D01*
X56725579Y-62387076D01*
X56716202Y-62409714D01*
X56711421Y-62433748D01*
X56711421Y-62458252D01*
X56716201Y-62482285D01*
X56725579Y-62504924D01*
X56739192Y-62525298D01*
X56756519Y-62542625D01*
X56776894Y-62556239D01*
X56784553Y-62560333D01*
X56797798Y-62571202D01*
X56808666Y-62584445D01*
X56816743Y-62599557D01*
X56821716Y-62615949D01*
X56824000Y-62639141D01*
X56824000Y-63052859D01*
X56821716Y-63076051D01*
X56816743Y-63092443D01*
X56808666Y-63107555D01*
X56797798Y-63120798D01*
X56784553Y-63131667D01*
X56776894Y-63135761D01*
X56756520Y-63149374D01*
X56739193Y-63166701D01*
X56725579Y-63187076D01*
X56716202Y-63209714D01*
X56711421Y-63233748D01*
X56711421Y-63258252D01*
X56716201Y-63282285D01*
X56725579Y-63304924D01*
X56739192Y-63325298D01*
X56756519Y-63342625D01*
X56776894Y-63356239D01*
X56784553Y-63360333D01*
X56797798Y-63371202D01*
X56808666Y-63384445D01*
X56816743Y-63399557D01*
X56821716Y-63415949D01*
X56824000Y-63439141D01*
X56824000Y-63852859D01*
X56821716Y-63876051D01*
X56816743Y-63892443D01*
X56808666Y-63907555D01*
X56797798Y-63920798D01*
X56784553Y-63931667D01*
X56776894Y-63935761D01*
X56756520Y-63949374D01*
X56739193Y-63966701D01*
X56725579Y-63987076D01*
X56716202Y-64009714D01*
X56711421Y-64033748D01*
X56711421Y-64058252D01*
X56716201Y-64082285D01*
X56725579Y-64104924D01*
X56739192Y-64125298D01*
X56756519Y-64142625D01*
X56776894Y-64156239D01*
X56784553Y-64160333D01*
X56797798Y-64171202D01*
X56808666Y-64184445D01*
X56816743Y-64199557D01*
X56821716Y-64215949D01*
X56824000Y-64239141D01*
X56824000Y-64652859D01*
X56821716Y-64676051D01*
X56816743Y-64692443D01*
X56808666Y-64707555D01*
X56797798Y-64720798D01*
X56784553Y-64731667D01*
X56776894Y-64735761D01*
X56756520Y-64749374D01*
X56739193Y-64766701D01*
X56725579Y-64787076D01*
X56716202Y-64809714D01*
X56711421Y-64833748D01*
X56711421Y-64858252D01*
X56716201Y-64882285D01*
X56725579Y-64904924D01*
X56739192Y-64925298D01*
X56756519Y-64942625D01*
X56776894Y-64956239D01*
X56784553Y-64960333D01*
X56797798Y-64971202D01*
X56808666Y-64984445D01*
X56816743Y-64999557D01*
X56821716Y-65015949D01*
X56824000Y-65039141D01*
X56824000Y-65452859D01*
X56821716Y-65476051D01*
X56816743Y-65492443D01*
X56808666Y-65507555D01*
X56797798Y-65520798D01*
X56784553Y-65531667D01*
X56776894Y-65535761D01*
X56756520Y-65549374D01*
X56739193Y-65566701D01*
X56725579Y-65587076D01*
X56716202Y-65609714D01*
X56711421Y-65633748D01*
X56711421Y-65658252D01*
X56716201Y-65682285D01*
X56725579Y-65704924D01*
X56739192Y-65725298D01*
X56756519Y-65742625D01*
X56776894Y-65756239D01*
X56784553Y-65760333D01*
X56797798Y-65771202D01*
X56808666Y-65784445D01*
X56816743Y-65799557D01*
X56821716Y-65815949D01*
X56824000Y-65839141D01*
X56824000Y-66252859D01*
X56821716Y-66276051D01*
X56816743Y-66292443D01*
X56808666Y-66307555D01*
X56797798Y-66320798D01*
X56784555Y-66331666D01*
X56769443Y-66339743D01*
X56753051Y-66344716D01*
X56729859Y-66347000D01*
X55316141Y-66347000D01*
X55292949Y-66344716D01*
X55276557Y-66339743D01*
X55261445Y-66331666D01*
X55248202Y-66320798D01*
X55237334Y-66307555D01*
X55229257Y-66292443D01*
X55224284Y-66276051D01*
X55222000Y-66252859D01*
X55222000Y-65839141D01*
X55224284Y-65815949D01*
X55229257Y-65799557D01*
X55237334Y-65784445D01*
X55248202Y-65771202D01*
X55261447Y-65760333D01*
X55269106Y-65756239D01*
X55289480Y-65742626D01*
X55306807Y-65725299D01*
X55320421Y-65704924D01*
X55329798Y-65682286D01*
X55334579Y-65658252D01*
X55334579Y-65633748D01*
X55329799Y-65609715D01*
X55320421Y-65587076D01*
X55306808Y-65566702D01*
X55289481Y-65549375D01*
X55269106Y-65535761D01*
X55261447Y-65531667D01*
X55248202Y-65520798D01*
X55237334Y-65507555D01*
X55229257Y-65492443D01*
X55224284Y-65476051D01*
X55222000Y-65452859D01*
X55222000Y-65039141D01*
X55224284Y-65015949D01*
X55229257Y-64999557D01*
X55237334Y-64984445D01*
X55248202Y-64971202D01*
X55261447Y-64960333D01*
X55269106Y-64956239D01*
X55289480Y-64942626D01*
X55306807Y-64925299D01*
X55320421Y-64904924D01*
X55329798Y-64882286D01*
X55334579Y-64858252D01*
X55334579Y-64833748D01*
X55329799Y-64809715D01*
X55320421Y-64787076D01*
X55306808Y-64766702D01*
X55289481Y-64749375D01*
X55269106Y-64735761D01*
X55261447Y-64731667D01*
X55248202Y-64720798D01*
X55237334Y-64707555D01*
X55229257Y-64692443D01*
X55224284Y-64676051D01*
X55222000Y-64652859D01*
X55222000Y-64239141D01*
X55224284Y-64215949D01*
X55229257Y-64199557D01*
X55237334Y-64184445D01*
X55248202Y-64171202D01*
X55261447Y-64160333D01*
X55269106Y-64156239D01*
X55289480Y-64142626D01*
X55306807Y-64125299D01*
X55320421Y-64104924D01*
X55329798Y-64082286D01*
X55334579Y-64058252D01*
X55334579Y-64033748D01*
X55329799Y-64009715D01*
X55320421Y-63987076D01*
X55306808Y-63966702D01*
X55289481Y-63949375D01*
X55269106Y-63935761D01*
X55261447Y-63931667D01*
X55248202Y-63920798D01*
X55237334Y-63907555D01*
X55229257Y-63892443D01*
X55224284Y-63876051D01*
X55222000Y-63852859D01*
X55222000Y-63439141D01*
X55224284Y-63415949D01*
X55229257Y-63399557D01*
X55237334Y-63384445D01*
X55248202Y-63371202D01*
X55261447Y-63360333D01*
X55269106Y-63356239D01*
X55289480Y-63342626D01*
X55306807Y-63325299D01*
X55320421Y-63304924D01*
X55329798Y-63282286D01*
X55334579Y-63258252D01*
X55334579Y-63233748D01*
X55329799Y-63209715D01*
X55320421Y-63187076D01*
X55306808Y-63166702D01*
X55289481Y-63149375D01*
X55269106Y-63135761D01*
X55261447Y-63131667D01*
X55248202Y-63120798D01*
X55237334Y-63107555D01*
X55229257Y-63092443D01*
X55224284Y-63076051D01*
X55222000Y-63052859D01*
X55222000Y-62639141D01*
X55224284Y-62615949D01*
X55229257Y-62599557D01*
X55237334Y-62584445D01*
X55248202Y-62571202D01*
X55261447Y-62560333D01*
X55269106Y-62556239D01*
X55289480Y-62542626D01*
X55306807Y-62525299D01*
X55320421Y-62504924D01*
X55329798Y-62482286D01*
X55334579Y-62458252D01*
X55334579Y-62433748D01*
X55329799Y-62409715D01*
X55320421Y-62387076D01*
X55306808Y-62366702D01*
X55289481Y-62349375D01*
X55269106Y-62335761D01*
X55261447Y-62331667D01*
X55248202Y-62320798D01*
X55237334Y-62307555D01*
X55229257Y-62292443D01*
X55224284Y-62276051D01*
X55222000Y-62252859D01*
X55222000Y-61839141D01*
X55224284Y-61815949D01*
X55229257Y-61799557D01*
X55237334Y-61784445D01*
X55248202Y-61771202D01*
X55261447Y-61760333D01*
X55269106Y-61756239D01*
X55289480Y-61742626D01*
X55306807Y-61725299D01*
X55320421Y-61704924D01*
X55329798Y-61682286D01*
X55334579Y-61658252D01*
X55334579Y-61633748D01*
X55329799Y-61609715D01*
X55320421Y-61587076D01*
X55306808Y-61566702D01*
X55289481Y-61549375D01*
X55269106Y-61535761D01*
X55261447Y-61531667D01*
X55248202Y-61520798D01*
X55237334Y-61507555D01*
X55229257Y-61492443D01*
X55224284Y-61476051D01*
X55222000Y-61452859D01*
X55222000Y-61039141D01*
X55224284Y-61015949D01*
X55229257Y-60999557D01*
X55237334Y-60984445D01*
X55248202Y-60971202D01*
X55261447Y-60960333D01*
X55269106Y-60956239D01*
X55289480Y-60942626D01*
X55306807Y-60925299D01*
X55320421Y-60904924D01*
X55329798Y-60882286D01*
X55334579Y-60858252D01*
X55334579Y-60833748D01*
X55329799Y-60809715D01*
X55320421Y-60787076D01*
X55306808Y-60766702D01*
X55289481Y-60749375D01*
X55269106Y-60735761D01*
X55261447Y-60731667D01*
X55248202Y-60720798D01*
X55237334Y-60707555D01*
X55229257Y-60692443D01*
X55224284Y-60676051D01*
X55222000Y-60652859D01*
X55222000Y-60239141D01*
X55224284Y-60215949D01*
X55229257Y-60199557D01*
X55237334Y-60184445D01*
X55248202Y-60171202D01*
X55261445Y-60160334D01*
X55276557Y-60152257D01*
X55292949Y-60147284D01*
X55316141Y-60145000D01*
X56729859Y-60145000D01*
X56753051Y-60147284D01*
G37*
G36*
X76679591Y-64978085D02*
G01*
X76713569Y-64988393D01*
X76744890Y-65005134D01*
X76772339Y-65027661D01*
X76794866Y-65055110D01*
X76811607Y-65086431D01*
X76821915Y-65120409D01*
X76826000Y-65161890D01*
X76826000Y-65763110D01*
X76821915Y-65804591D01*
X76811607Y-65838569D01*
X76794866Y-65869890D01*
X76772339Y-65897339D01*
X76744890Y-65919866D01*
X76713569Y-65936607D01*
X76679591Y-65946915D01*
X76638110Y-65951000D01*
X75961890Y-65951000D01*
X75920409Y-65946915D01*
X75886431Y-65936607D01*
X75855110Y-65919866D01*
X75827661Y-65897339D01*
X75805134Y-65869890D01*
X75788393Y-65838569D01*
X75778085Y-65804591D01*
X75774000Y-65763110D01*
X75774000Y-65161890D01*
X75778085Y-65120409D01*
X75788393Y-65086431D01*
X75805134Y-65055110D01*
X75827661Y-65027661D01*
X75855110Y-65005134D01*
X75886431Y-64988393D01*
X75920409Y-64978085D01*
X75961890Y-64974000D01*
X76638110Y-64974000D01*
X76679591Y-64978085D01*
G37*
G36*
X79679591Y-64978085D02*
G01*
X79713569Y-64988393D01*
X79744890Y-65005134D01*
X79772339Y-65027661D01*
X79794866Y-65055110D01*
X79811607Y-65086431D01*
X79821915Y-65120409D01*
X79826000Y-65161890D01*
X79826000Y-65763110D01*
X79821915Y-65804591D01*
X79811607Y-65838569D01*
X79794866Y-65869890D01*
X79772339Y-65897339D01*
X79744890Y-65919866D01*
X79713569Y-65936607D01*
X79679591Y-65946915D01*
X79638110Y-65951000D01*
X78961890Y-65951000D01*
X78920409Y-65946915D01*
X78886431Y-65936607D01*
X78855110Y-65919866D01*
X78827661Y-65897339D01*
X78805134Y-65869890D01*
X78788393Y-65838569D01*
X78778085Y-65804591D01*
X78774000Y-65763110D01*
X78774000Y-65161890D01*
X78778085Y-65120409D01*
X78788393Y-65086431D01*
X78805134Y-65055110D01*
X78827661Y-65027661D01*
X78855110Y-65005134D01*
X78886431Y-64988393D01*
X78920409Y-64978085D01*
X78961890Y-64974000D01*
X79638110Y-64974000D01*
X79679591Y-64978085D01*
G37*
G36*
X81896968Y-62853565D02*
G01*
X81935638Y-62865296D01*
X81971277Y-62884346D01*
X82002517Y-62909983D01*
X82028154Y-62941223D01*
X82047204Y-62976862D01*
X82058935Y-63015532D01*
X82063500Y-63061888D01*
X82063500Y-64138112D01*
X82058935Y-64184468D01*
X82047204Y-64223138D01*
X82028154Y-64258777D01*
X82002517Y-64290017D01*
X81971277Y-64315654D01*
X81935638Y-64334704D01*
X81896968Y-64346435D01*
X81850612Y-64351000D01*
X81199388Y-64351000D01*
X81153032Y-64346435D01*
X81114362Y-64334704D01*
X81078723Y-64315654D01*
X81047483Y-64290017D01*
X81021846Y-64258777D01*
X81002796Y-64223138D01*
X80991065Y-64184468D01*
X80986500Y-64138112D01*
X80986500Y-63061888D01*
X80991065Y-63015532D01*
X81002796Y-62976862D01*
X81021846Y-62941223D01*
X81047483Y-62909983D01*
X81078723Y-62884346D01*
X81114362Y-62865296D01*
X81153032Y-62853565D01*
X81199388Y-62849000D01*
X81850612Y-62849000D01*
X81896968Y-62853565D01*
G37*
G36*
X83771968Y-62853565D02*
G01*
X83810638Y-62865296D01*
X83846277Y-62884346D01*
X83877517Y-62909983D01*
X83903154Y-62941223D01*
X83922204Y-62976862D01*
X83933935Y-63015532D01*
X83938500Y-63061888D01*
X83938500Y-64138112D01*
X83933935Y-64184468D01*
X83922204Y-64223138D01*
X83903154Y-64258777D01*
X83877517Y-64290017D01*
X83846277Y-64315654D01*
X83810638Y-64334704D01*
X83771968Y-64346435D01*
X83725612Y-64351000D01*
X83074388Y-64351000D01*
X83028032Y-64346435D01*
X82989362Y-64334704D01*
X82953723Y-64315654D01*
X82922483Y-64290017D01*
X82896846Y-64258777D01*
X82877796Y-64223138D01*
X82866065Y-64184468D01*
X82861500Y-64138112D01*
X82861500Y-63061888D01*
X82866065Y-63015532D01*
X82877796Y-62976862D01*
X82896846Y-62941223D01*
X82922483Y-62909983D01*
X82953723Y-62884346D01*
X82989362Y-62865296D01*
X83028032Y-62853565D01*
X83074388Y-62849000D01*
X83725612Y-62849000D01*
X83771968Y-62853565D01*
G37*
G36*
X108628571Y-62652863D02*
G01*
X108707023Y-62660590D01*
X108807682Y-62691125D01*
X108858013Y-62706392D01*
X108997165Y-62780771D01*
X109119133Y-62880867D01*
X109219229Y-63002835D01*
X109293608Y-63141987D01*
X109295849Y-63149374D01*
X109339410Y-63292977D01*
X109354875Y-63450000D01*
X109339410Y-63607023D01*
X109308875Y-63707682D01*
X109293608Y-63758013D01*
X109219229Y-63897165D01*
X109119133Y-64019133D01*
X108997165Y-64119229D01*
X108858013Y-64193608D01*
X108838401Y-64199557D01*
X108707023Y-64239410D01*
X108628571Y-64247137D01*
X108589346Y-64251000D01*
X107210654Y-64251000D01*
X107171429Y-64247137D01*
X107092977Y-64239410D01*
X106961599Y-64199557D01*
X106941987Y-64193608D01*
X106802835Y-64119229D01*
X106680867Y-64019133D01*
X106580771Y-63897165D01*
X106506392Y-63758013D01*
X106491125Y-63707682D01*
X106460590Y-63607023D01*
X106445125Y-63450000D01*
X106460590Y-63292977D01*
X106504151Y-63149374D01*
X106506392Y-63141987D01*
X106580771Y-63002835D01*
X106680867Y-62880867D01*
X106802835Y-62780771D01*
X106941987Y-62706392D01*
X106992318Y-62691125D01*
X107092977Y-62660590D01*
X107171429Y-62652863D01*
X107210654Y-62649000D01*
X108589346Y-62649000D01*
X108628571Y-62652863D01*
G37*
G36*
X120628571Y-62652863D02*
G01*
X120707023Y-62660590D01*
X120807682Y-62691125D01*
X120858013Y-62706392D01*
X120997165Y-62780771D01*
X121119133Y-62880867D01*
X121219229Y-63002835D01*
X121293608Y-63141987D01*
X121295849Y-63149374D01*
X121339410Y-63292977D01*
X121354875Y-63450000D01*
X121339410Y-63607023D01*
X121308875Y-63707682D01*
X121293608Y-63758013D01*
X121219229Y-63897165D01*
X121119133Y-64019133D01*
X120997165Y-64119229D01*
X120858013Y-64193608D01*
X120838401Y-64199557D01*
X120707023Y-64239410D01*
X120628571Y-64247137D01*
X120589346Y-64251000D01*
X119210654Y-64251000D01*
X119171429Y-64247137D01*
X119092977Y-64239410D01*
X118961599Y-64199557D01*
X118941987Y-64193608D01*
X118802835Y-64119229D01*
X118680867Y-64019133D01*
X118580771Y-63897165D01*
X118506392Y-63758013D01*
X118491125Y-63707682D01*
X118460590Y-63607023D01*
X118445125Y-63450000D01*
X118460590Y-63292977D01*
X118504151Y-63149374D01*
X118506392Y-63141987D01*
X118580771Y-63002835D01*
X118680867Y-62880867D01*
X118802835Y-62780771D01*
X118941987Y-62706392D01*
X118992318Y-62691125D01*
X119092977Y-62660590D01*
X119171429Y-62652863D01*
X119210654Y-62649000D01*
X120589346Y-62649000D01*
X120628571Y-62652863D01*
G37*
G36*
X68840000Y-63622000D02*
G01*
X67238000Y-63622000D01*
X67238000Y-62870000D01*
X68840000Y-62870000D01*
X68840000Y-63622000D01*
G37*
G36*
X74240000Y-63622000D02*
G01*
X72638000Y-63622000D01*
X72638000Y-62870000D01*
X74240000Y-62870000D01*
X74240000Y-63622000D01*
G37*
G36*
X77942091Y-62478085D02*
G01*
X77976069Y-62488393D01*
X78007390Y-62505134D01*
X78034839Y-62527661D01*
X78057366Y-62555110D01*
X78074107Y-62586431D01*
X78084415Y-62620409D01*
X78088500Y-62661890D01*
X78088500Y-63338110D01*
X78084415Y-63379591D01*
X78074107Y-63413569D01*
X78057366Y-63444890D01*
X78034839Y-63472339D01*
X78007390Y-63494866D01*
X77976069Y-63511607D01*
X77942091Y-63521915D01*
X77900610Y-63526000D01*
X77299390Y-63526000D01*
X77257909Y-63521915D01*
X77223931Y-63511607D01*
X77192610Y-63494866D01*
X77165161Y-63472339D01*
X77142634Y-63444890D01*
X77125893Y-63413569D01*
X77115585Y-63379591D01*
X77111500Y-63338110D01*
X77111500Y-62661890D01*
X77115585Y-62620409D01*
X77125893Y-62586431D01*
X77142634Y-62555110D01*
X77165161Y-62527661D01*
X77192610Y-62505134D01*
X77223931Y-62488393D01*
X77257909Y-62478085D01*
X77299390Y-62474000D01*
X77900610Y-62474000D01*
X77942091Y-62478085D01*
G37*
G36*
X76367091Y-62478085D02*
G01*
X76401069Y-62488393D01*
X76432390Y-62505134D01*
X76459839Y-62527661D01*
X76482366Y-62555110D01*
X76499107Y-62586431D01*
X76509415Y-62620409D01*
X76513500Y-62661890D01*
X76513500Y-63338110D01*
X76509415Y-63379591D01*
X76499107Y-63413569D01*
X76482366Y-63444890D01*
X76459839Y-63472339D01*
X76432390Y-63494866D01*
X76401069Y-63511607D01*
X76367091Y-63521915D01*
X76325610Y-63526000D01*
X75724390Y-63526000D01*
X75682909Y-63521915D01*
X75648931Y-63511607D01*
X75617610Y-63494866D01*
X75590161Y-63472339D01*
X75567634Y-63444890D01*
X75550893Y-63413569D01*
X75540585Y-63379591D01*
X75536500Y-63338110D01*
X75536500Y-62661890D01*
X75540585Y-62620409D01*
X75550893Y-62586431D01*
X75567634Y-62555110D01*
X75590161Y-62527661D01*
X75617610Y-62505134D01*
X75648931Y-62488393D01*
X75682909Y-62478085D01*
X75724390Y-62474000D01*
X76325610Y-62474000D01*
X76367091Y-62478085D01*
G37*
G36*
X74240000Y-62352000D02*
G01*
X72638000Y-62352000D01*
X72638000Y-61600000D01*
X74240000Y-61600000D01*
X74240000Y-62352000D01*
G37*
G36*
X68840000Y-62352000D02*
G01*
X67238000Y-62352000D01*
X67238000Y-61600000D01*
X68840000Y-61600000D01*
X68840000Y-62352000D01*
G37*
G36*
X68840000Y-61082000D02*
G01*
X67238000Y-61082000D01*
X67238000Y-60330000D01*
X68840000Y-60330000D01*
X68840000Y-61082000D01*
G37*
G36*
X74240000Y-61082000D02*
G01*
X72638000Y-61082000D01*
X72638000Y-60330000D01*
X74240000Y-60330000D01*
X74240000Y-61082000D01*
G37*
G36*
X76542091Y-59378085D02*
G01*
X76576069Y-59388393D01*
X76607390Y-59405134D01*
X76634839Y-59427661D01*
X76657366Y-59455110D01*
X76674107Y-59486431D01*
X76684415Y-59520409D01*
X76688500Y-59561890D01*
X76688500Y-60238110D01*
X76684415Y-60279591D01*
X76674107Y-60313569D01*
X76657366Y-60344890D01*
X76634839Y-60372339D01*
X76607390Y-60394866D01*
X76576069Y-60411607D01*
X76542091Y-60421915D01*
X76500610Y-60426000D01*
X75899390Y-60426000D01*
X75857909Y-60421915D01*
X75823931Y-60411607D01*
X75792610Y-60394866D01*
X75765161Y-60372339D01*
X75742634Y-60344890D01*
X75725893Y-60313569D01*
X75715585Y-60279591D01*
X75711500Y-60238110D01*
X75711500Y-59561890D01*
X75715585Y-59520409D01*
X75725893Y-59486431D01*
X75742634Y-59455110D01*
X75765161Y-59427661D01*
X75792610Y-59405134D01*
X75823931Y-59388393D01*
X75857909Y-59378085D01*
X75899390Y-59374000D01*
X76500610Y-59374000D01*
X76542091Y-59378085D01*
G37*
G36*
X78117091Y-59378085D02*
G01*
X78151069Y-59388393D01*
X78182390Y-59405134D01*
X78209839Y-59427661D01*
X78232366Y-59455110D01*
X78249107Y-59486431D01*
X78259415Y-59520409D01*
X78263500Y-59561890D01*
X78263500Y-60238110D01*
X78259415Y-60279591D01*
X78249107Y-60313569D01*
X78232366Y-60344890D01*
X78209839Y-60372339D01*
X78182390Y-60394866D01*
X78151069Y-60411607D01*
X78117091Y-60421915D01*
X78075610Y-60426000D01*
X77474390Y-60426000D01*
X77432909Y-60421915D01*
X77398931Y-60411607D01*
X77367610Y-60394866D01*
X77340161Y-60372339D01*
X77317634Y-60344890D01*
X77300893Y-60313569D01*
X77290585Y-60279591D01*
X77286500Y-60238110D01*
X77286500Y-59561890D01*
X77290585Y-59520409D01*
X77300893Y-59486431D01*
X77317634Y-59455110D01*
X77340161Y-59427661D01*
X77367610Y-59405134D01*
X77398931Y-59388393D01*
X77432909Y-59378085D01*
X77474390Y-59374000D01*
X78075610Y-59374000D01*
X78117091Y-59378085D01*
G37*
G36*
X57628051Y-58272284D02*
G01*
X57644443Y-58277257D01*
X57659555Y-58285334D01*
X57672798Y-58296202D01*
X57683667Y-58309447D01*
X57687761Y-58317106D01*
X57701374Y-58337480D01*
X57718701Y-58354807D01*
X57739076Y-58368421D01*
X57761714Y-58377798D01*
X57785748Y-58382579D01*
X57810252Y-58382579D01*
X57834285Y-58377799D01*
X57856924Y-58368421D01*
X57877298Y-58354808D01*
X57894625Y-58337481D01*
X57908239Y-58317106D01*
X57912333Y-58309447D01*
X57923202Y-58296202D01*
X57936445Y-58285334D01*
X57951557Y-58277257D01*
X57967949Y-58272284D01*
X57991141Y-58270000D01*
X58404859Y-58270000D01*
X58428051Y-58272284D01*
X58444443Y-58277257D01*
X58459555Y-58285334D01*
X58472798Y-58296202D01*
X58483667Y-58309447D01*
X58487761Y-58317106D01*
X58501374Y-58337480D01*
X58518701Y-58354807D01*
X58539076Y-58368421D01*
X58561714Y-58377798D01*
X58585748Y-58382579D01*
X58610252Y-58382579D01*
X58634285Y-58377799D01*
X58656924Y-58368421D01*
X58677298Y-58354808D01*
X58694625Y-58337481D01*
X58708239Y-58317106D01*
X58712333Y-58309447D01*
X58723202Y-58296202D01*
X58736445Y-58285334D01*
X58751557Y-58277257D01*
X58767949Y-58272284D01*
X58791141Y-58270000D01*
X59204859Y-58270000D01*
X59228051Y-58272284D01*
X59244443Y-58277257D01*
X59259555Y-58285334D01*
X59272798Y-58296202D01*
X59283667Y-58309447D01*
X59287761Y-58317106D01*
X59301374Y-58337480D01*
X59318701Y-58354807D01*
X59339076Y-58368421D01*
X59361714Y-58377798D01*
X59385748Y-58382579D01*
X59410252Y-58382579D01*
X59434285Y-58377799D01*
X59456924Y-58368421D01*
X59477298Y-58354808D01*
X59494625Y-58337481D01*
X59508239Y-58317106D01*
X59512333Y-58309447D01*
X59523202Y-58296202D01*
X59536445Y-58285334D01*
X59551557Y-58277257D01*
X59567949Y-58272284D01*
X59591141Y-58270000D01*
X60004859Y-58270000D01*
X60028051Y-58272284D01*
X60044443Y-58277257D01*
X60059555Y-58285334D01*
X60072798Y-58296202D01*
X60083667Y-58309447D01*
X60087761Y-58317106D01*
X60101374Y-58337480D01*
X60118701Y-58354807D01*
X60139076Y-58368421D01*
X60161714Y-58377798D01*
X60185748Y-58382579D01*
X60210252Y-58382579D01*
X60234285Y-58377799D01*
X60256924Y-58368421D01*
X60277298Y-58354808D01*
X60294625Y-58337481D01*
X60308239Y-58317106D01*
X60312333Y-58309447D01*
X60323202Y-58296202D01*
X60336445Y-58285334D01*
X60351557Y-58277257D01*
X60367949Y-58272284D01*
X60391141Y-58270000D01*
X60804859Y-58270000D01*
X60828051Y-58272284D01*
X60844443Y-58277257D01*
X60859555Y-58285334D01*
X60872798Y-58296202D01*
X60883667Y-58309447D01*
X60887761Y-58317106D01*
X60901374Y-58337480D01*
X60918701Y-58354807D01*
X60939076Y-58368421D01*
X60961714Y-58377798D01*
X60985748Y-58382579D01*
X61010252Y-58382579D01*
X61034285Y-58377799D01*
X61056924Y-58368421D01*
X61077298Y-58354808D01*
X61094625Y-58337481D01*
X61108239Y-58317106D01*
X61112333Y-58309447D01*
X61123202Y-58296202D01*
X61136445Y-58285334D01*
X61151557Y-58277257D01*
X61167949Y-58272284D01*
X61191141Y-58270000D01*
X61604859Y-58270000D01*
X61628051Y-58272284D01*
X61644443Y-58277257D01*
X61659555Y-58285334D01*
X61672798Y-58296202D01*
X61683667Y-58309447D01*
X61687761Y-58317106D01*
X61701374Y-58337480D01*
X61718701Y-58354807D01*
X61739076Y-58368421D01*
X61761714Y-58377798D01*
X61785748Y-58382579D01*
X61810252Y-58382579D01*
X61834285Y-58377799D01*
X61856924Y-58368421D01*
X61877298Y-58354808D01*
X61894625Y-58337481D01*
X61908239Y-58317106D01*
X61912333Y-58309447D01*
X61923202Y-58296202D01*
X61936445Y-58285334D01*
X61951557Y-58277257D01*
X61967949Y-58272284D01*
X61991141Y-58270000D01*
X62404859Y-58270000D01*
X62428051Y-58272284D01*
X62444443Y-58277257D01*
X62459555Y-58285334D01*
X62472798Y-58296202D01*
X62483667Y-58309447D01*
X62487761Y-58317106D01*
X62501374Y-58337480D01*
X62518701Y-58354807D01*
X62539076Y-58368421D01*
X62561714Y-58377798D01*
X62585748Y-58382579D01*
X62610252Y-58382579D01*
X62634285Y-58377799D01*
X62656924Y-58368421D01*
X62677298Y-58354808D01*
X62694625Y-58337481D01*
X62708239Y-58317106D01*
X62712333Y-58309447D01*
X62723202Y-58296202D01*
X62736445Y-58285334D01*
X62751557Y-58277257D01*
X62767949Y-58272284D01*
X62791141Y-58270000D01*
X63204859Y-58270000D01*
X63228051Y-58272284D01*
X63244443Y-58277257D01*
X63259555Y-58285334D01*
X63272798Y-58296202D01*
X63283666Y-58309445D01*
X63291743Y-58324557D01*
X63296716Y-58340949D01*
X63299000Y-58364141D01*
X63299000Y-59777859D01*
X63296716Y-59801051D01*
X63291743Y-59817443D01*
X63283666Y-59832555D01*
X63272798Y-59845798D01*
X63259555Y-59856666D01*
X63244443Y-59864743D01*
X63228051Y-59869716D01*
X63204859Y-59872000D01*
X62791141Y-59872000D01*
X62767949Y-59869716D01*
X62751557Y-59864743D01*
X62736445Y-59856666D01*
X62723202Y-59845798D01*
X62712333Y-59832553D01*
X62708239Y-59824894D01*
X62694626Y-59804520D01*
X62677299Y-59787193D01*
X62656924Y-59773579D01*
X62634286Y-59764202D01*
X62610252Y-59759421D01*
X62585748Y-59759421D01*
X62561715Y-59764201D01*
X62539076Y-59773579D01*
X62518702Y-59787192D01*
X62501375Y-59804519D01*
X62487761Y-59824894D01*
X62483667Y-59832553D01*
X62472798Y-59845798D01*
X62459555Y-59856666D01*
X62444443Y-59864743D01*
X62428051Y-59869716D01*
X62404859Y-59872000D01*
X61991141Y-59872000D01*
X61967949Y-59869716D01*
X61951557Y-59864743D01*
X61936445Y-59856666D01*
X61923202Y-59845798D01*
X61912333Y-59832553D01*
X61908239Y-59824894D01*
X61894626Y-59804520D01*
X61877299Y-59787193D01*
X61856924Y-59773579D01*
X61834286Y-59764202D01*
X61810252Y-59759421D01*
X61785748Y-59759421D01*
X61761715Y-59764201D01*
X61739076Y-59773579D01*
X61718702Y-59787192D01*
X61701375Y-59804519D01*
X61687761Y-59824894D01*
X61683667Y-59832553D01*
X61672798Y-59845798D01*
X61659555Y-59856666D01*
X61644443Y-59864743D01*
X61628051Y-59869716D01*
X61604859Y-59872000D01*
X61191141Y-59872000D01*
X61167949Y-59869716D01*
X61151557Y-59864743D01*
X61136445Y-59856666D01*
X61123202Y-59845798D01*
X61112333Y-59832553D01*
X61108239Y-59824894D01*
X61094626Y-59804520D01*
X61077299Y-59787193D01*
X61056924Y-59773579D01*
X61034286Y-59764202D01*
X61010252Y-59759421D01*
X60985748Y-59759421D01*
X60961715Y-59764201D01*
X60939076Y-59773579D01*
X60918702Y-59787192D01*
X60901375Y-59804519D01*
X60887761Y-59824894D01*
X60883667Y-59832553D01*
X60872798Y-59845798D01*
X60859555Y-59856666D01*
X60844443Y-59864743D01*
X60828051Y-59869716D01*
X60804859Y-59872000D01*
X60391141Y-59872000D01*
X60367949Y-59869716D01*
X60351557Y-59864743D01*
X60336445Y-59856666D01*
X60323202Y-59845798D01*
X60312333Y-59832553D01*
X60308239Y-59824894D01*
X60294626Y-59804520D01*
X60277299Y-59787193D01*
X60256924Y-59773579D01*
X60234286Y-59764202D01*
X60210252Y-59759421D01*
X60185748Y-59759421D01*
X60161715Y-59764201D01*
X60139076Y-59773579D01*
X60118702Y-59787192D01*
X60101375Y-59804519D01*
X60087761Y-59824894D01*
X60083667Y-59832553D01*
X60072798Y-59845798D01*
X60059555Y-59856666D01*
X60044443Y-59864743D01*
X60028051Y-59869716D01*
X60004859Y-59872000D01*
X59591141Y-59872000D01*
X59567949Y-59869716D01*
X59551557Y-59864743D01*
X59536445Y-59856666D01*
X59523202Y-59845798D01*
X59512333Y-59832553D01*
X59508239Y-59824894D01*
X59494626Y-59804520D01*
X59477299Y-59787193D01*
X59456924Y-59773579D01*
X59434286Y-59764202D01*
X59410252Y-59759421D01*
X59385748Y-59759421D01*
X59361715Y-59764201D01*
X59339076Y-59773579D01*
X59318702Y-59787192D01*
X59301375Y-59804519D01*
X59287761Y-59824894D01*
X59283667Y-59832553D01*
X59272798Y-59845798D01*
X59259555Y-59856666D01*
X59244443Y-59864743D01*
X59228051Y-59869716D01*
X59204859Y-59872000D01*
X58791141Y-59872000D01*
X58767949Y-59869716D01*
X58751557Y-59864743D01*
X58736445Y-59856666D01*
X58723202Y-59845798D01*
X58712333Y-59832553D01*
X58708239Y-59824894D01*
X58694626Y-59804520D01*
X58677299Y-59787193D01*
X58656924Y-59773579D01*
X58634286Y-59764202D01*
X58610252Y-59759421D01*
X58585748Y-59759421D01*
X58561715Y-59764201D01*
X58539076Y-59773579D01*
X58518702Y-59787192D01*
X58501375Y-59804519D01*
X58487761Y-59824894D01*
X58483667Y-59832553D01*
X58472798Y-59845798D01*
X58459555Y-59856666D01*
X58444443Y-59864743D01*
X58428051Y-59869716D01*
X58404859Y-59872000D01*
X57991141Y-59872000D01*
X57967949Y-59869716D01*
X57951557Y-59864743D01*
X57936445Y-59856666D01*
X57923202Y-59845798D01*
X57912333Y-59832553D01*
X57908239Y-59824894D01*
X57894626Y-59804520D01*
X57877299Y-59787193D01*
X57856924Y-59773579D01*
X57834286Y-59764202D01*
X57810252Y-59759421D01*
X57785748Y-59759421D01*
X57761715Y-59764201D01*
X57739076Y-59773579D01*
X57718702Y-59787192D01*
X57701375Y-59804519D01*
X57687761Y-59824894D01*
X57683667Y-59832553D01*
X57672798Y-59845798D01*
X57659555Y-59856666D01*
X57644443Y-59864743D01*
X57628051Y-59869716D01*
X57604859Y-59872000D01*
X57191141Y-59872000D01*
X57167949Y-59869716D01*
X57151557Y-59864743D01*
X57136445Y-59856666D01*
X57123202Y-59845798D01*
X57112334Y-59832555D01*
X57104257Y-59817443D01*
X57099284Y-59801051D01*
X57097000Y-59777859D01*
X57097000Y-58364141D01*
X57099284Y-58340949D01*
X57104257Y-58324557D01*
X57112334Y-58309445D01*
X57123202Y-58296202D01*
X57136445Y-58285334D01*
X57151557Y-58277257D01*
X57167949Y-58272284D01*
X57191141Y-58270000D01*
X57604859Y-58270000D01*
X57628051Y-58272284D01*
G37*
G36*
X68840000Y-59812000D02*
G01*
X67238000Y-59812000D01*
X67238000Y-59060000D01*
X68840000Y-59060000D01*
X68840000Y-59812000D01*
G37*
G36*
X74240000Y-59812000D02*
G01*
X72638000Y-59812000D01*
X72638000Y-59060000D01*
X74240000Y-59060000D01*
X74240000Y-59812000D01*
G37*
G36*
X108628571Y-57152863D02*
G01*
X108707023Y-57160590D01*
X108807682Y-57191125D01*
X108858013Y-57206392D01*
X108997165Y-57280771D01*
X109119133Y-57380867D01*
X109219229Y-57502835D01*
X109293608Y-57641987D01*
X109296767Y-57652402D01*
X109339410Y-57792977D01*
X109354875Y-57950000D01*
X109339410Y-58107023D01*
X109308875Y-58207682D01*
X109293608Y-58258013D01*
X109219229Y-58397165D01*
X109119133Y-58519133D01*
X108997165Y-58619229D01*
X108858013Y-58693608D01*
X108807682Y-58708875D01*
X108707023Y-58739410D01*
X108628571Y-58747137D01*
X108589346Y-58751000D01*
X107210654Y-58751000D01*
X107171429Y-58747137D01*
X107092977Y-58739410D01*
X106992318Y-58708875D01*
X106941987Y-58693608D01*
X106802835Y-58619229D01*
X106680867Y-58519133D01*
X106580771Y-58397165D01*
X106506392Y-58258013D01*
X106491125Y-58207682D01*
X106460590Y-58107023D01*
X106445125Y-57950000D01*
X106460590Y-57792977D01*
X106503233Y-57652402D01*
X106506392Y-57641987D01*
X106580771Y-57502835D01*
X106680867Y-57380867D01*
X106802835Y-57280771D01*
X106941987Y-57206392D01*
X106992318Y-57191125D01*
X107092977Y-57160590D01*
X107171429Y-57152863D01*
X107210654Y-57149000D01*
X108589346Y-57149000D01*
X108628571Y-57152863D01*
G37*
G36*
X120628571Y-57152863D02*
G01*
X120707023Y-57160590D01*
X120807682Y-57191125D01*
X120858013Y-57206392D01*
X120997165Y-57280771D01*
X121119133Y-57380867D01*
X121219229Y-57502835D01*
X121293608Y-57641987D01*
X121296767Y-57652402D01*
X121339410Y-57792977D01*
X121354875Y-57950000D01*
X121339410Y-58107023D01*
X121308875Y-58207682D01*
X121293608Y-58258013D01*
X121219229Y-58397165D01*
X121119133Y-58519133D01*
X120997165Y-58619229D01*
X120858013Y-58693608D01*
X120807682Y-58708875D01*
X120707023Y-58739410D01*
X120628571Y-58747137D01*
X120589346Y-58751000D01*
X119210654Y-58751000D01*
X119171429Y-58747137D01*
X119092977Y-58739410D01*
X118992318Y-58708875D01*
X118941987Y-58693608D01*
X118802835Y-58619229D01*
X118680867Y-58519133D01*
X118580771Y-58397165D01*
X118506392Y-58258013D01*
X118491125Y-58207682D01*
X118460590Y-58107023D01*
X118445125Y-57950000D01*
X118460590Y-57792977D01*
X118503233Y-57652402D01*
X118506392Y-57641987D01*
X118580771Y-57502835D01*
X118680867Y-57380867D01*
X118802835Y-57280771D01*
X118941987Y-57206392D01*
X118992318Y-57191125D01*
X119092977Y-57160590D01*
X119171429Y-57152863D01*
X119210654Y-57149000D01*
X120589346Y-57149000D01*
X120628571Y-57152863D01*
G37*
G36*
X68840000Y-58542000D02*
G01*
X67238000Y-58542000D01*
X67238000Y-57790000D01*
X68840000Y-57790000D01*
X68840000Y-58542000D01*
G37*
G36*
X74240000Y-58542000D02*
G01*
X72638000Y-58542000D01*
X72638000Y-57790000D01*
X74240000Y-57790000D01*
X74240000Y-58542000D01*
G37*
G36*
X114407430Y-52248978D02*
G01*
X114658684Y-52298955D01*
X114777422Y-52348138D01*
X115132034Y-52495023D01*
X115132035Y-52495024D01*
X115558041Y-52779671D01*
X115920329Y-53141959D01*
X116110524Y-53426607D01*
X116204977Y-53567966D01*
X116259253Y-53699000D01*
X116401045Y-54041316D01*
X116422862Y-54151000D01*
X116501000Y-54543823D01*
X116501000Y-55056177D01*
X116401045Y-55558683D01*
X116204977Y-56032034D01*
X116204976Y-56032035D01*
X115920329Y-56458041D01*
X115558041Y-56820329D01*
X115273393Y-57010524D01*
X115132034Y-57104977D01*
X114887196Y-57206392D01*
X114658684Y-57301045D01*
X114407430Y-57351022D01*
X114156177Y-57401000D01*
X113643823Y-57401000D01*
X113392570Y-57351022D01*
X113141316Y-57301045D01*
X112912804Y-57206392D01*
X112667966Y-57104977D01*
X112526607Y-57010524D01*
X112241959Y-56820329D01*
X111879671Y-56458041D01*
X111595024Y-56032035D01*
X111595023Y-56032034D01*
X111398955Y-55558683D01*
X111299000Y-55056177D01*
X111299000Y-54543823D01*
X111377138Y-54151000D01*
X111398955Y-54041316D01*
X111540747Y-53699000D01*
X111595023Y-53567966D01*
X111689476Y-53426607D01*
X111879671Y-53141959D01*
X112241959Y-52779671D01*
X112667965Y-52495024D01*
X112667966Y-52495023D01*
X113022578Y-52348138D01*
X113141316Y-52298955D01*
X113392570Y-52248978D01*
X113643823Y-52199000D01*
X114156177Y-52199000D01*
X114407430Y-52248978D01*
G37*
G36*
X68840000Y-57272000D02*
G01*
X67238000Y-57272000D01*
X67238000Y-56520000D01*
X68840000Y-56520000D01*
X68840000Y-57272000D01*
G37*
G36*
X74240000Y-57272000D02*
G01*
X72638000Y-57272000D01*
X72638000Y-56520000D01*
X74240000Y-56520000D01*
X74240000Y-57272000D01*
G37*
G36*
X68840000Y-56002000D02*
G01*
X67238000Y-56002000D01*
X67238000Y-55250000D01*
X68840000Y-55250000D01*
X68840000Y-56002000D01*
G37*
G36*
X74240000Y-56002000D02*
G01*
X72638000Y-56002000D01*
X72638000Y-55250000D01*
X74240000Y-55250000D01*
X74240000Y-56002000D01*
G37*
G36*
X84801000Y-55301000D02*
G01*
X82699000Y-55301000D01*
X82699000Y-53699000D01*
X84801000Y-53699000D01*
X84801000Y-55301000D01*
G37*
G36*
X87984468Y-53866065D02*
G01*
X88023138Y-53877796D01*
X88058777Y-53896846D01*
X88090017Y-53922483D01*
X88115654Y-53953723D01*
X88134704Y-53989362D01*
X88146435Y-54028032D01*
X88151000Y-54074388D01*
X88151000Y-54725612D01*
X88146435Y-54771968D01*
X88134704Y-54810638D01*
X88115654Y-54846277D01*
X88090017Y-54877517D01*
X88058777Y-54903154D01*
X88023138Y-54922204D01*
X87984468Y-54933935D01*
X87938112Y-54938500D01*
X86861888Y-54938500D01*
X86815532Y-54933935D01*
X86776862Y-54922204D01*
X86741223Y-54903154D01*
X86709983Y-54877517D01*
X86684346Y-54846277D01*
X86665296Y-54810638D01*
X86653565Y-54771968D01*
X86649000Y-54725612D01*
X86649000Y-54074388D01*
X86653565Y-54028032D01*
X86665296Y-53989362D01*
X86684346Y-53953723D01*
X86709983Y-53922483D01*
X86741223Y-53896846D01*
X86776862Y-53877796D01*
X86815532Y-53866065D01*
X86861888Y-53861500D01*
X87938112Y-53861500D01*
X87984468Y-53866065D01*
G37*
G36*
X74240000Y-54732000D02*
G01*
X72638000Y-54732000D01*
X72638000Y-53980000D01*
X74240000Y-53980000D01*
X74240000Y-54732000D01*
G37*
G36*
X68840000Y-54732000D02*
G01*
X67238000Y-54732000D01*
X67238000Y-53980000D01*
X68840000Y-53980000D01*
X68840000Y-54732000D01*
G37*
G36*
X78501000Y-54151000D02*
G01*
X76399000Y-54151000D01*
X76399000Y-50249000D01*
X78501000Y-50249000D01*
X78501000Y-54151000D01*
G37*
G36*
X87984468Y-51991065D02*
G01*
X88023138Y-52002796D01*
X88058777Y-52021846D01*
X88090017Y-52047483D01*
X88115654Y-52078723D01*
X88134704Y-52114362D01*
X88146435Y-52153032D01*
X88151000Y-52199388D01*
X88151000Y-52850612D01*
X88146435Y-52896968D01*
X88134704Y-52935638D01*
X88115654Y-52971277D01*
X88090017Y-53002517D01*
X88058777Y-53028154D01*
X88023138Y-53047204D01*
X87984468Y-53058935D01*
X87938112Y-53063500D01*
X86861888Y-53063500D01*
X86815532Y-53058935D01*
X86776862Y-53047204D01*
X86741223Y-53028154D01*
X86709983Y-53002517D01*
X86684346Y-52971277D01*
X86665296Y-52935638D01*
X86653565Y-52896968D01*
X86649000Y-52850612D01*
X86649000Y-52199388D01*
X86653565Y-52153032D01*
X86665296Y-52114362D01*
X86684346Y-52078723D01*
X86709983Y-52047483D01*
X86741223Y-52021846D01*
X86776862Y-52002796D01*
X86815532Y-51991065D01*
X86861888Y-51986500D01*
X87938112Y-51986500D01*
X87984468Y-51991065D01*
G37*
G36*
X84801000Y-53001000D02*
G01*
X82699000Y-53001000D01*
X82699000Y-51399000D01*
X84801000Y-51399000D01*
X84801000Y-53001000D01*
G37*
G36*
X73584468Y-51403565D02*
G01*
X73623138Y-51415296D01*
X73658777Y-51434346D01*
X73690017Y-51459983D01*
X73715654Y-51491223D01*
X73734704Y-51526862D01*
X73746435Y-51565532D01*
X73751000Y-51611888D01*
X73751000Y-52263112D01*
X73746435Y-52309468D01*
X73734704Y-52348138D01*
X73715654Y-52383777D01*
X73690017Y-52415017D01*
X73658777Y-52440654D01*
X73623138Y-52459704D01*
X73584468Y-52471435D01*
X73538112Y-52476000D01*
X72461888Y-52476000D01*
X72415532Y-52471435D01*
X72376862Y-52459704D01*
X72341223Y-52440654D01*
X72309983Y-52415017D01*
X72284346Y-52383777D01*
X72265296Y-52348138D01*
X72253565Y-52309468D01*
X72249000Y-52263112D01*
X72249000Y-51611888D01*
X72253565Y-51565532D01*
X72265296Y-51526862D01*
X72284346Y-51491223D01*
X72309983Y-51459983D01*
X72341223Y-51434346D01*
X72376862Y-51415296D01*
X72415532Y-51403565D01*
X72461888Y-51399000D01*
X73538112Y-51399000D01*
X73584468Y-51403565D01*
G37*
G36*
X84801000Y-50701000D02*
G01*
X82699000Y-50701000D01*
X82699000Y-49099000D01*
X84801000Y-49099000D01*
X84801000Y-50701000D01*
G37*
G36*
X73584468Y-49528565D02*
G01*
X73623138Y-49540296D01*
X73658777Y-49559346D01*
X73690017Y-49584983D01*
X73715654Y-49616223D01*
X73734704Y-49651862D01*
X73746435Y-49690532D01*
X73751000Y-49736888D01*
X73751000Y-50388112D01*
X73746435Y-50434468D01*
X73734704Y-50473138D01*
X73715654Y-50508777D01*
X73690017Y-50540017D01*
X73658777Y-50565654D01*
X73623138Y-50584704D01*
X73584468Y-50596435D01*
X73538112Y-50601000D01*
X72461888Y-50601000D01*
X72415532Y-50596435D01*
X72376862Y-50584704D01*
X72341223Y-50565654D01*
X72309983Y-50540017D01*
X72284346Y-50508777D01*
X72265296Y-50473138D01*
X72253565Y-50434468D01*
X72249000Y-50388112D01*
X72249000Y-49736888D01*
X72253565Y-49690532D01*
X72265296Y-49651862D01*
X72284346Y-49616223D01*
X72309983Y-49584983D01*
X72341223Y-49559346D01*
X72376862Y-49540296D01*
X72415532Y-49528565D01*
X72461888Y-49524000D01*
X73538112Y-49524000D01*
X73584468Y-49528565D01*
G37*
G36*
X114407430Y-45048978D02*
G01*
X114658684Y-45098955D01*
X114854752Y-45180169D01*
X115132034Y-45295023D01*
X115132035Y-45295024D01*
X115558041Y-45579671D01*
X115920329Y-45941959D01*
X116003461Y-46066376D01*
X116204977Y-46367966D01*
X116401045Y-46841317D01*
X116501000Y-47343823D01*
X116501000Y-47856177D01*
X116401045Y-48358683D01*
X116204977Y-48832034D01*
X116204976Y-48832035D01*
X115920329Y-49258041D01*
X115558041Y-49620329D01*
X115510848Y-49651862D01*
X115132034Y-49904977D01*
X114854752Y-50019831D01*
X114658684Y-50101045D01*
X114407430Y-50151022D01*
X114156177Y-50201000D01*
X113643823Y-50201000D01*
X113392570Y-50151023D01*
X113141316Y-50101045D01*
X112945248Y-50019831D01*
X112667966Y-49904977D01*
X112289152Y-49651862D01*
X112241959Y-49620329D01*
X111879671Y-49258041D01*
X111595024Y-48832035D01*
X111595023Y-48832034D01*
X111398955Y-48358683D01*
X111299000Y-47856177D01*
X111299000Y-47343823D01*
X111398955Y-46841317D01*
X111595023Y-46367966D01*
X111796539Y-46066376D01*
X111879671Y-45941959D01*
X112241959Y-45579671D01*
X112667965Y-45295024D01*
X112667966Y-45295023D01*
X112945248Y-45180169D01*
X113141316Y-45098955D01*
X113392570Y-45048978D01*
X113643823Y-44999000D01*
X114156177Y-44999000D01*
X114407430Y-45048978D01*
G37*
G36*
X73570400Y-46101000D02*
G01*
X71768400Y-46101000D01*
X71768400Y-44299000D01*
X73570400Y-44299000D01*
X73570400Y-46101000D01*
G37*
G36*
X81444312Y-44303927D02*
G01*
X81593612Y-44333624D01*
X81757584Y-44401544D01*
X81905154Y-44500147D01*
X82030653Y-44625646D01*
X82129256Y-44773216D01*
X82197176Y-44937188D01*
X82213475Y-45019133D01*
X82231800Y-45111258D01*
X82231800Y-45288742D01*
X82230550Y-45295024D01*
X82197176Y-45462812D01*
X82129256Y-45626784D01*
X82030653Y-45774354D01*
X81905154Y-45899853D01*
X81757584Y-45998456D01*
X81593612Y-46066376D01*
X81444312Y-46096073D01*
X81419542Y-46101000D01*
X81242058Y-46101000D01*
X81217288Y-46096073D01*
X81067988Y-46066376D01*
X80904016Y-45998456D01*
X80756446Y-45899853D01*
X80630947Y-45774354D01*
X80532344Y-45626784D01*
X80464424Y-45462812D01*
X80431050Y-45295024D01*
X80429800Y-45288742D01*
X80429800Y-45111258D01*
X80448125Y-45019133D01*
X80464424Y-44937188D01*
X80532344Y-44773216D01*
X80630947Y-44625646D01*
X80756446Y-44500147D01*
X80904016Y-44401544D01*
X81067988Y-44333624D01*
X81217288Y-44303927D01*
X81242058Y-44299000D01*
X81419542Y-44299000D01*
X81444312Y-44303927D01*
G37*
G36*
X70242912Y-44303927D02*
G01*
X70392212Y-44333624D01*
X70556184Y-44401544D01*
X70703754Y-44500147D01*
X70829253Y-44625646D01*
X70927856Y-44773216D01*
X70995776Y-44937188D01*
X71012075Y-45019133D01*
X71030400Y-45111258D01*
X71030400Y-45288742D01*
X71029150Y-45295024D01*
X70995776Y-45462812D01*
X70927856Y-45626784D01*
X70829253Y-45774354D01*
X70703754Y-45899853D01*
X70556184Y-45998456D01*
X70392212Y-46066376D01*
X70242912Y-46096073D01*
X70218142Y-46101000D01*
X70040658Y-46101000D01*
X70015888Y-46096073D01*
X69866588Y-46066376D01*
X69702616Y-45998456D01*
X69555046Y-45899853D01*
X69429547Y-45774354D01*
X69330944Y-45626784D01*
X69263024Y-45462812D01*
X69229650Y-45295024D01*
X69228400Y-45288742D01*
X69228400Y-45111258D01*
X69246725Y-45019133D01*
X69263024Y-44937188D01*
X69330944Y-44773216D01*
X69429547Y-44625646D01*
X69555046Y-44500147D01*
X69702616Y-44401544D01*
X69866588Y-44333624D01*
X70015888Y-44303927D01*
X70040658Y-44299000D01*
X70218142Y-44299000D01*
X70242912Y-44303927D01*
G37*
G36*
X78904312Y-44303927D02*
G01*
X79053612Y-44333624D01*
X79217584Y-44401544D01*
X79365154Y-44500147D01*
X79490653Y-44625646D01*
X79589256Y-44773216D01*
X79657176Y-44937188D01*
X79673475Y-45019133D01*
X79691800Y-45111258D01*
X79691800Y-45288742D01*
X79690550Y-45295024D01*
X79657176Y-45462812D01*
X79589256Y-45626784D01*
X79490653Y-45774354D01*
X79365154Y-45899853D01*
X79217584Y-45998456D01*
X79053612Y-46066376D01*
X78904312Y-46096073D01*
X78879542Y-46101000D01*
X78702058Y-46101000D01*
X78677288Y-46096073D01*
X78527988Y-46066376D01*
X78364016Y-45998456D01*
X78216446Y-45899853D01*
X78090947Y-45774354D01*
X77992344Y-45626784D01*
X77924424Y-45462812D01*
X77891050Y-45295024D01*
X77889800Y-45288742D01*
X77889800Y-45111258D01*
X77908125Y-45019133D01*
X77924424Y-44937188D01*
X77992344Y-44773216D01*
X78090947Y-44625646D01*
X78216446Y-44500147D01*
X78364016Y-44401544D01*
X78527988Y-44333624D01*
X78677288Y-44303927D01*
X78702058Y-44299000D01*
X78879542Y-44299000D01*
X78904312Y-44303927D01*
G37*
G36*
X76364312Y-44303927D02*
G01*
X76513612Y-44333624D01*
X76677584Y-44401544D01*
X76825154Y-44500147D01*
X76950653Y-44625646D01*
X77049256Y-44773216D01*
X77117176Y-44937188D01*
X77133475Y-45019133D01*
X77151800Y-45111258D01*
X77151800Y-45288742D01*
X77150550Y-45295024D01*
X77117176Y-45462812D01*
X77049256Y-45626784D01*
X76950653Y-45774354D01*
X76825154Y-45899853D01*
X76677584Y-45998456D01*
X76513612Y-46066376D01*
X76364312Y-46096073D01*
X76339542Y-46101000D01*
X76162058Y-46101000D01*
X76137288Y-46096073D01*
X75987988Y-46066376D01*
X75824016Y-45998456D01*
X75676446Y-45899853D01*
X75550947Y-45774354D01*
X75452344Y-45626784D01*
X75384424Y-45462812D01*
X75351050Y-45295024D01*
X75349800Y-45288742D01*
X75349800Y-45111258D01*
X75368125Y-45019133D01*
X75384424Y-44937188D01*
X75452344Y-44773216D01*
X75550947Y-44625646D01*
X75676446Y-44500147D01*
X75824016Y-44401544D01*
X75987988Y-44333624D01*
X76137288Y-44303927D01*
X76162058Y-44299000D01*
X76339542Y-44299000D01*
X76364312Y-44303927D01*
G37*
G36*
X67702912Y-44303927D02*
G01*
X67852212Y-44333624D01*
X68016184Y-44401544D01*
X68163754Y-44500147D01*
X68289253Y-44625646D01*
X68387856Y-44773216D01*
X68455776Y-44937188D01*
X68472075Y-45019133D01*
X68490400Y-45111258D01*
X68490400Y-45288742D01*
X68489150Y-45295024D01*
X68455776Y-45462812D01*
X68387856Y-45626784D01*
X68289253Y-45774354D01*
X68163754Y-45899853D01*
X68016184Y-45998456D01*
X67852212Y-46066376D01*
X67702912Y-46096073D01*
X67678142Y-46101000D01*
X67500658Y-46101000D01*
X67475888Y-46096073D01*
X67326588Y-46066376D01*
X67162616Y-45998456D01*
X67015046Y-45899853D01*
X66889547Y-45774354D01*
X66790944Y-45626784D01*
X66723024Y-45462812D01*
X66689650Y-45295024D01*
X66688400Y-45288742D01*
X66688400Y-45111258D01*
X66706725Y-45019133D01*
X66723024Y-44937188D01*
X66790944Y-44773216D01*
X66889547Y-44625646D01*
X67015046Y-44500147D01*
X67162616Y-44401544D01*
X67326588Y-44333624D01*
X67475888Y-44303927D01*
X67500658Y-44299000D01*
X67678142Y-44299000D01*
X67702912Y-44303927D01*
G37*
G36*
X83984312Y-44303927D02*
G01*
X84133612Y-44333624D01*
X84297584Y-44401544D01*
X84445154Y-44500147D01*
X84570653Y-44625646D01*
X84669256Y-44773216D01*
X84737176Y-44937188D01*
X84753475Y-45019133D01*
X84771800Y-45111258D01*
X84771800Y-45288742D01*
X84770550Y-45295024D01*
X84737176Y-45462812D01*
X84669256Y-45626784D01*
X84570653Y-45774354D01*
X84445154Y-45899853D01*
X84297584Y-45998456D01*
X84133612Y-46066376D01*
X83984312Y-46096073D01*
X83959542Y-46101000D01*
X83782058Y-46101000D01*
X83757288Y-46096073D01*
X83607988Y-46066376D01*
X83444016Y-45998456D01*
X83296446Y-45899853D01*
X83170947Y-45774354D01*
X83072344Y-45626784D01*
X83004424Y-45462812D01*
X82971050Y-45295024D01*
X82969800Y-45288742D01*
X82969800Y-45111258D01*
X82988125Y-45019133D01*
X83004424Y-44937188D01*
X83072344Y-44773216D01*
X83170947Y-44625646D01*
X83296446Y-44500147D01*
X83444016Y-44401544D01*
X83607988Y-44333624D01*
X83757288Y-44303927D01*
X83782058Y-44299000D01*
X83959542Y-44299000D01*
X83984312Y-44303927D01*
G37*
G36*
X87311800Y-46101000D02*
G01*
X85509800Y-46101000D01*
X85509800Y-44299000D01*
X87311800Y-44299000D01*
X87311800Y-46101000D01*
G37*
G36*
X120628571Y-43652863D02*
G01*
X120707023Y-43660590D01*
X120807682Y-43691125D01*
X120858013Y-43706392D01*
X120997165Y-43780771D01*
X121119133Y-43880867D01*
X121219229Y-44002835D01*
X121293608Y-44141987D01*
X121293608Y-44141988D01*
X121339410Y-44292977D01*
X121354875Y-44450000D01*
X121339410Y-44607023D01*
X121333760Y-44625647D01*
X121293608Y-44758013D01*
X121219229Y-44897165D01*
X121119133Y-45019133D01*
X120997165Y-45119229D01*
X120858013Y-45193608D01*
X120807682Y-45208875D01*
X120707023Y-45239410D01*
X120628571Y-45247137D01*
X120589346Y-45251000D01*
X119210654Y-45251000D01*
X119171429Y-45247137D01*
X119092977Y-45239410D01*
X118992318Y-45208875D01*
X118941987Y-45193608D01*
X118802835Y-45119229D01*
X118680867Y-45019133D01*
X118580771Y-44897165D01*
X118506392Y-44758013D01*
X118466240Y-44625647D01*
X118460590Y-44607023D01*
X118445125Y-44450000D01*
X118460590Y-44292977D01*
X118506392Y-44141988D01*
X118506392Y-44141987D01*
X118580771Y-44002835D01*
X118680867Y-43880867D01*
X118802835Y-43780771D01*
X118941987Y-43706392D01*
X118992318Y-43691125D01*
X119092977Y-43660590D01*
X119171429Y-43652863D01*
X119210654Y-43649000D01*
X120589346Y-43649000D01*
X120628571Y-43652863D01*
G37*
G36*
X108628571Y-43652863D02*
G01*
X108707023Y-43660590D01*
X108807682Y-43691125D01*
X108858013Y-43706392D01*
X108997165Y-43780771D01*
X109119133Y-43880867D01*
X109219229Y-44002835D01*
X109293608Y-44141987D01*
X109293608Y-44141988D01*
X109339410Y-44292977D01*
X109354875Y-44450000D01*
X109339410Y-44607023D01*
X109333760Y-44625647D01*
X109293608Y-44758013D01*
X109219229Y-44897165D01*
X109119133Y-45019133D01*
X108997165Y-45119229D01*
X108858013Y-45193608D01*
X108807682Y-45208875D01*
X108707023Y-45239410D01*
X108628571Y-45247137D01*
X108589346Y-45251000D01*
X107210654Y-45251000D01*
X107171429Y-45247137D01*
X107092977Y-45239410D01*
X106992318Y-45208875D01*
X106941987Y-45193608D01*
X106802835Y-45119229D01*
X106680867Y-45019133D01*
X106580771Y-44897165D01*
X106506392Y-44758013D01*
X106466240Y-44625647D01*
X106460590Y-44607023D01*
X106445125Y-44450000D01*
X106460590Y-44292977D01*
X106506392Y-44141988D01*
X106506392Y-44141987D01*
X106580771Y-44002835D01*
X106680867Y-43880867D01*
X106802835Y-43780771D01*
X106941987Y-43706392D01*
X106992318Y-43691125D01*
X107092977Y-43660590D01*
X107171429Y-43652863D01*
X107210654Y-43649000D01*
X108589346Y-43649000D01*
X108628571Y-43652863D01*
G37*
M02*
