M48
METRIC,TZ
T1C0.300
T2C0.400
T3C1.000
T4C3.400
%
G90
G05
T1
X50970Y-83530
X51000Y-54000
X51000Y-61800
X51000Y-69000
X51000Y-72500
X51100Y-43400
X53000Y-83500
X54900Y-67500
X55250Y-56000
X56400Y-47000
X57000Y-80800
X57100Y-69200
X59500Y-81800
X60850Y-61300
X61000Y-46200
X61200Y-56100
X61200Y-65800
X61750Y-79200
X63600Y-52000
X64000Y-59500
X65200Y-71200
X65600Y-51600
X66000Y-55100
X66000Y-82000
X66300Y-68550
X66400Y-64450
X68000Y-41300
X68000Y-48400
X68400Y-79200
X70000Y-82000
X70250Y-58750
X70750Y-68000
X71000Y-51000
X71400Y-48200
X74000Y-82000
X74689Y-76842
X74800Y-76050
X75400Y-50200
X75550Y-64350
X75900Y-61000
X76000Y-83000
X76100Y-61850
X77000Y-80000
X78000Y-82000
X79500Y-69500
X79600Y-73750
X79800Y-57600
X79800Y-58800
X79800Y-60000
X79900Y-50550
X80000Y-81000
X80000Y-83000
X80500Y-41100
X80600Y-73000
X80600Y-74400
X80750Y-50550
X80800Y-57000
X80800Y-58200
X80800Y-59400
X80800Y-60600
X81400Y-48200
X81500Y-71000
X81500Y-72250
X81500Y-73750
X81500Y-75000
X81700Y-77500
X81750Y-50550
X81800Y-57600
X81800Y-58800
X81800Y-60000
X82000Y-80000
X82000Y-82000
X84000Y-79000
X84000Y-81000
X84000Y-83000
X85000Y-64000
X85111Y-58629
X85400Y-50900
X85400Y-51800
X86000Y-51300
X86000Y-52200
X86000Y-65100
X86000Y-78000
X86000Y-80000
X86000Y-82000
X86500Y-63500
X87200Y-48000
X87600Y-41200
X87600Y-73400
X88000Y-79000
X88000Y-81000
X88000Y-83000
X88600Y-59200
X90000Y-51000
X90000Y-53000
X90000Y-68000
X90000Y-78000
X90000Y-80000
X90000Y-82000
X91000Y-50000
X91000Y-52000
X91000Y-57000
X91000Y-67000
X91400Y-61200
X92000Y-49000
X92000Y-51000
X92000Y-52500
X92000Y-54000
X92000Y-56000
X92000Y-58000
X92000Y-66000
X92000Y-68000
X92000Y-81000
X92000Y-83000
X93000Y-48000
X93000Y-50000
X93000Y-51750
X93000Y-53250
X93000Y-55000
X93000Y-57000
X93000Y-65000
X93000Y-67000
X93000Y-69000
X94000Y-47000
X94000Y-49000
X94000Y-51000
X94000Y-52500
X94000Y-54000
X94000Y-56000
X94000Y-58000
X94000Y-64000
X94000Y-66000
X94000Y-68000
X94000Y-73000
X94000Y-75000
X94000Y-80000
X94000Y-82000
X95000Y-52250
X95000Y-53000
X95000Y-53750
X95000Y-54500
X95000Y-55250
X95000Y-56000
X95000Y-56750
X95000Y-57500
X95000Y-64500
X95000Y-65250
X95000Y-66000
X95000Y-66750
X95000Y-73400
X95000Y-74150
X95000Y-74900
X95000Y-75650
X95000Y-76400
X95050Y-63750
X95200Y-68200
X95200Y-68950
X95200Y-69700
X95200Y-70450
X95250Y-45000
X95250Y-45750
X95250Y-46500
X95250Y-47250
X95250Y-48000
X95250Y-48750
X95250Y-49500
X95250Y-50250
X95250Y-51000
X95250Y-67500
X95250Y-71200
X95250Y-71950
X95250Y-72700
X95350Y-51650
X95750Y-52250
X95750Y-53000
X95750Y-53750
X95750Y-54500
X95750Y-55250
X95750Y-56000
X95750Y-56750
X95750Y-57500
X95750Y-73400
X95750Y-74150
X95750Y-74900
X95750Y-75650
X95750Y-76400
X95800Y-63750
X95800Y-64500
X95800Y-65250
X95800Y-66000
X95800Y-66750
X96000Y-45000
X96000Y-45750
X96000Y-46500
X96000Y-47250
X96000Y-48000
X96000Y-48750
X96000Y-49500
X96000Y-50250
X96000Y-51000
X96000Y-67500
X96000Y-68200
X96000Y-68950
X96000Y-69700
X96000Y-70450
X96000Y-71200
X96000Y-71950
X96000Y-72700
X96000Y-81000
X96000Y-83000
X96100Y-51650
X96500Y-52250
X96500Y-53000
X96500Y-53750
X96500Y-54500
X96500Y-55250
X96500Y-56000
X96500Y-56750
X96500Y-57500
X96500Y-73400
X96500Y-74150
X96500Y-74900
X96500Y-75650
X96500Y-76400
X96550Y-63750
X96550Y-64500
X96550Y-65250
X96550Y-66000
X96550Y-66750
X96750Y-45000
X96750Y-45750
X96750Y-46500
X96750Y-47250
X96750Y-48000
X96750Y-48750
X96750Y-49500
X96750Y-50250
X96750Y-51000
X96750Y-67500
X96750Y-68200
X96750Y-68950
X96750Y-69700
X96750Y-70450
X96750Y-71200
X96750Y-71950
X96750Y-72700
X96850Y-51650
X97250Y-52250
X97250Y-53000
X97250Y-53750
X97250Y-54500
X97250Y-55250
X97250Y-56000
X97250Y-56750
X97250Y-57500
X97250Y-73400
X97250Y-74150
X97250Y-74900
X97250Y-75650
X97250Y-76400
X97300Y-63750
X97300Y-64500
X97300Y-65250
X97300Y-66000
X97300Y-66750
X97500Y-45000
X97500Y-45750
X97500Y-46500
X97500Y-47250
X97500Y-48000
X97500Y-48750
X97500Y-49500
X97500Y-50250
X97500Y-51000
X97500Y-67500
X97500Y-68200
X97500Y-68950
X97500Y-69700
X97500Y-70450
X97500Y-71200
X97500Y-71950
X97500Y-72700
X97600Y-51650
X98000Y-52250
X98000Y-53000
X98000Y-53750
X98000Y-54500
X98000Y-55250
X98000Y-56000
X98000Y-56750
X98000Y-57500
X98000Y-73400
X98000Y-74150
X98000Y-74900
X98000Y-75650
X98000Y-76400
X98000Y-80000
X98000Y-82000
X98050Y-63750
X98050Y-64500
X98050Y-65250
X98050Y-66000
X98050Y-66750
X98250Y-45000
X98250Y-45750
X98250Y-46500
X98250Y-47250
X98250Y-48000
X98250Y-48750
X98250Y-49500
X98250Y-50250
X98250Y-51000
X98250Y-67500
X98250Y-68200
X98250Y-68950
X98250Y-69700
X98250Y-70450
X98250Y-71200
X98250Y-71950
X98250Y-72700
X98750Y-54500
X98750Y-55250
X98750Y-56000
X98750Y-56750
X98750Y-57500
X98750Y-73250
X98750Y-74000
X98750Y-74750
X98750Y-75500
X98750Y-76250
X98800Y-63750
X98800Y-64500
X98800Y-65250
X98800Y-66000
X98800Y-66750
X99000Y-45000
X99000Y-45750
X99000Y-46500
X99000Y-47250
X99000Y-48000
X99500Y-54500
X99500Y-55250
X99500Y-56000
X99500Y-56750
X99500Y-57500
X99500Y-73250
X99500Y-74000
X99500Y-74750
X99500Y-75500
X99500Y-76250
X99550Y-63750
X99550Y-64500
X99550Y-65250
X99550Y-66000
X99550Y-66750
X99650Y-49500
X99650Y-50350
X99650Y-52150
X99650Y-53000
X99700Y-68250
X99700Y-69200
X99700Y-70750
X99700Y-71700
X99750Y-45000
X99750Y-45750
X99750Y-46500
X99750Y-47250
X99750Y-48000
X100000Y-81000
X100000Y-83000
X100250Y-54500
X100250Y-55250
X100250Y-56000
X100250Y-56750
X100250Y-57500
X100250Y-73250
X100250Y-74000
X100250Y-74750
X100250Y-75500
X100250Y-76250
X100300Y-63750
X100300Y-64500
X100300Y-65250
X100300Y-66000
X100300Y-66750
X100500Y-45000
X100500Y-45750
X100500Y-46500
X100500Y-47250
X100500Y-48000
X100550Y-49500
X100550Y-50350
X100550Y-52150
X100550Y-53000
X100600Y-68250
X100600Y-69200
X100600Y-70750
X100600Y-71700
X101000Y-54500
X101000Y-55250
X101000Y-56000
X101000Y-56750
X101000Y-57500
X101000Y-73250
X101000Y-74000
X101000Y-74750
X101000Y-75500
X101000Y-76250
X101050Y-63750
X101050Y-64500
X101050Y-65250
X101050Y-66000
X101050Y-66750
X101250Y-45000
X101250Y-45750
X101250Y-46500
X101250Y-47250
X101250Y-48000
X101450Y-49500
X101450Y-50350
X101450Y-52150
X101450Y-53000
X101500Y-68250
X101500Y-69200
X101500Y-70750
X101500Y-71700
X101750Y-54500
X101750Y-55250
X101750Y-56000
X101750Y-56750
X101750Y-57500
X101750Y-73250
X101750Y-74000
X101750Y-74750
X101750Y-75500
X101750Y-76250
X101800Y-63750
X101800Y-64500
X101800Y-65250
X101800Y-66000
X101800Y-66750
X101900Y-82000
X102000Y-45000
X102000Y-45750
X102000Y-46500
X102000Y-47250
X102000Y-48000
X102000Y-80000
X102350Y-49500
X102350Y-50350
X102350Y-52150
X102350Y-53000
X102400Y-68250
X102400Y-69200
X102400Y-70750
X102400Y-71700
X102500Y-54500
X102500Y-55250
X102500Y-56000
X102500Y-56750
X102500Y-57500
X102500Y-73250
X102500Y-74000
X102500Y-74750
X102500Y-75500
X102500Y-76250
X102550Y-63750
X102550Y-64500
X102550Y-65250
X102550Y-66000
X102550Y-66750
X102750Y-45000
X102750Y-45750
X102750Y-46500
X102750Y-47250
X102750Y-48000
X103250Y-49500
X103250Y-50350
X103250Y-52150
X103250Y-53000
X103250Y-54500
X103250Y-55250
X103250Y-56000
X103250Y-73250
X103250Y-74000
X103250Y-74750
X103250Y-75500
X103250Y-76250
X103300Y-63750
X103300Y-64500
X103300Y-65250
X103300Y-66000
X103300Y-66750
X103300Y-68250
X103300Y-69200
X103300Y-70750
X103300Y-71700
X103500Y-45000
X103500Y-45750
X103500Y-46500
X103500Y-47250
X103500Y-48000
X103700Y-81000
X103700Y-83000
X105000Y-46000
X105000Y-46750
X105000Y-47500
X105000Y-48250
X105000Y-54500
X105000Y-55250
X105000Y-56000
X105000Y-72750
X105000Y-73500
X105000Y-74250
X105000Y-75000
X105000Y-75750
X105750Y-46000
X105750Y-46750
X105750Y-47500
X105750Y-48250
X105750Y-53750
X105750Y-54500
X105750Y-55250
X105750Y-56000
X105750Y-65000
X105750Y-65750
X105750Y-66500
X105750Y-67250
X105750Y-72750
X105750Y-73500
X105750Y-74250
X105750Y-75000
X105750Y-75750
X106000Y-83000
X106500Y-46000
X106500Y-46750
X106500Y-47500
X106500Y-48250
X106500Y-49000
X106500Y-49750
X106500Y-51500
X106500Y-52250
X106500Y-53000
X106500Y-53750
X106500Y-54500
X106500Y-55250
X106500Y-56000
X106500Y-65000
X106500Y-65750
X106500Y-66500
X106500Y-67250
X106500Y-68000
X106500Y-68750
X106500Y-69500
X106500Y-70500
X106500Y-71250
X106500Y-72000
X106500Y-72750
X106500Y-73500
X106500Y-74250
X106500Y-75000
X107250Y-46000
X107250Y-46750
X107250Y-47500
X107250Y-48250
X107250Y-49000
X107250Y-49750
X107250Y-50500
X107250Y-51500
X107250Y-52250
X107250Y-53000
X107250Y-53750
X107250Y-54500
X107250Y-55250
X107250Y-56000
X107250Y-65000
X107250Y-65750
X107250Y-66500
X107250Y-67250
X107250Y-68000
X107250Y-68750
X107250Y-69500
X107250Y-70500
X107250Y-71250
X107250Y-72000
X107250Y-72750
X107250Y-73500
X107250Y-74250
X107250Y-75000
X108000Y-46000
X108000Y-46750
X108000Y-47500
X108000Y-48250
X108000Y-49000
X108000Y-49750
X108000Y-50500
X108000Y-51500
X108000Y-52250
X108000Y-53000
X108000Y-53750
X108000Y-54500
X108000Y-55250
X108000Y-56000
X108000Y-65000
X108000Y-65750
X108000Y-66500
X108000Y-67250
X108000Y-68000
X108000Y-68750
X108000Y-69500
X108000Y-70500
X108000Y-71250
X108000Y-72000
X108000Y-72750
X108000Y-73500
X108000Y-74250
X108000Y-75000
X108750Y-46000
X108750Y-46750
X108750Y-47500
X108750Y-48250
X108750Y-49000
X108750Y-49750
X108750Y-50500
X108750Y-51500
X108750Y-52250
X108750Y-53000
X108750Y-53750
X108750Y-54500
X108750Y-55250
X108750Y-56000
X108750Y-65000
X108750Y-65750
X108750Y-66500
X108750Y-67250
X108750Y-68000
X108750Y-68750
X108750Y-69500
X108750Y-70500
X108750Y-71250
X108750Y-72000
X108750Y-72750
X108750Y-73500
X108750Y-74250
X108750Y-75000
X109500Y-46000
X109500Y-46750
X109500Y-47500
X109500Y-48250
X109500Y-49000
X109500Y-49750
X109500Y-50500
X109500Y-51500
X109500Y-52250
X109500Y-53000
X109500Y-53750
X109500Y-54500
X109500Y-55250
X109500Y-56000
X109500Y-65000
X109500Y-65750
X109500Y-66500
X109500Y-66500
X109500Y-67250
X109500Y-68000
X109500Y-68750
X109500Y-69500
X109500Y-70500
X109500Y-71250
X109500Y-72000
X109500Y-72750
X109500Y-73500
X109500Y-74250
X109500Y-75000
X109500Y-75750
X110000Y-83000
X110250Y-46000
X110250Y-46750
X110250Y-47500
X110250Y-48250
X110250Y-49000
X110250Y-49750
X110250Y-50500
X110250Y-51500
X110250Y-52250
X110250Y-53000
X110250Y-53750
X110250Y-54500
X110250Y-55250
X110250Y-56000
X110250Y-65000
X110250Y-65750
X110250Y-66500
X110250Y-67250
X110250Y-68000
X110250Y-68750
X110250Y-69500
X110250Y-70500
X110250Y-71250
X110250Y-72000
X110250Y-72750
X110250Y-73500
X110250Y-74250
X110250Y-75000
X110250Y-75750
X114000Y-83000
X116250Y-50500
X116250Y-51500
X116250Y-52250
X116250Y-69000
X116250Y-70500
X116250Y-71250
X117000Y-45250
X117000Y-46000
X117000Y-49000
X117000Y-49750
X117000Y-50500
X117000Y-51500
X117000Y-52250
X117000Y-53000
X117000Y-68000
X117000Y-68750
X117000Y-69500
X117000Y-70500
X117000Y-71250
X117000Y-72000
X117000Y-72750
X117000Y-75000
X117000Y-75750
X117750Y-45250
X117750Y-46000
X117750Y-46750
X117750Y-47500
X117750Y-48250
X117750Y-49000
X117750Y-49750
X117750Y-50500
X117750Y-51500
X117750Y-52250
X117750Y-53000
X117750Y-53000
X117750Y-53750
X117750Y-54500
X117750Y-55250
X117750Y-56000
X117750Y-56750
X117750Y-64250
X117750Y-65000
X117750Y-65750
X117750Y-66500
X117750Y-67250
X117750Y-68000
X117750Y-68750
X117750Y-69500
X117750Y-70500
X117750Y-71250
X117750Y-72000
X117750Y-72750
X117750Y-73500
X117750Y-74250
X117750Y-75000
X117750Y-75750
X118000Y-83000
X118500Y-46000
X118500Y-46750
X118500Y-47500
X118500Y-48250
X118500Y-49000
X118500Y-49750
X118500Y-50500
X118500Y-51500
X118500Y-52250
X118500Y-53000
X118500Y-53750
X118500Y-54500
X118500Y-55250
X118500Y-56000
X118500Y-65000
X118500Y-65750
X118500Y-66500
X118500Y-67250
X118500Y-68000
X118500Y-68750
X118500Y-69500
X118500Y-70500
X118500Y-71250
X118500Y-72000
X118500Y-72750
X118500Y-73500
X118500Y-74250
X118500Y-75000
X119250Y-46000
X119250Y-46750
X119250Y-47500
X119250Y-48250
X119250Y-54500
X119250Y-54500
X119250Y-55250
X119250Y-56000
X119250Y-65000
X119250Y-65750
X119250Y-65750
X119250Y-66500
X119250Y-73500
X119250Y-73500
X119250Y-74250
X119250Y-75000
X120000Y-46000
X120000Y-46750
X120000Y-47500
X120000Y-47500
X120000Y-54500
X120000Y-55250
X120000Y-56000
X120000Y-65000
X120000Y-65750
X120000Y-66500
X120000Y-73500
X120000Y-74250
X120000Y-75000
X120100Y-51850
X120100Y-52800
X120100Y-68350
X120100Y-69300
X120100Y-70850
X120100Y-71800
X120140Y-49350
X120140Y-50300
X120750Y-46000
X120750Y-46750
X120750Y-47500
X120750Y-54500
X120750Y-55250
X120750Y-56000
X120750Y-65000
X120750Y-65750
X120750Y-66500
X120750Y-73500
X120750Y-74250
X120750Y-75000
X121000Y-51850
X121000Y-52800
X121000Y-68350
X121000Y-69300
X121000Y-70850
X121000Y-71800
X121040Y-49350
X121040Y-50300
X121500Y-46000
X121500Y-46750
X121500Y-47500
X121500Y-54500
X121500Y-55250
X121500Y-56000
X121500Y-56750
X121500Y-65000
X121500Y-65750
X121500Y-66500
X121500Y-73500
X121500Y-74250
X121500Y-75000
X121500Y-75750
X121900Y-51850
X121900Y-52800
X121900Y-68350
X121900Y-69300
X121900Y-70850
X121900Y-71800
X121940Y-49350
X121940Y-50300
X122000Y-83000
X122250Y-45250
X122250Y-46000
X122250Y-46750
X122250Y-47500
X122250Y-54500
X122250Y-55250
X122250Y-56000
X122250Y-56750
X122250Y-64250
X122250Y-65000
X122250Y-65750
X122250Y-66500
X122250Y-73500
X122250Y-74250
X122250Y-75000
X122250Y-75750
X122800Y-51850
X122800Y-52800
X122800Y-68350
X122800Y-69300
X122800Y-70850
X122800Y-71800
X122840Y-49350
X122840Y-50300
X123000Y-45250
X123000Y-46000
X123000Y-46750
X123000Y-47500
X123000Y-54500
X123000Y-55250
X123000Y-56000
X123000Y-56750
X123000Y-64250
X123000Y-65000
X123000Y-65750
X123000Y-66500
X123000Y-73500
X123000Y-74250
X123000Y-75000
X123000Y-75750
X123700Y-51850
X123700Y-52800
X123700Y-68350
X123700Y-69300
X123700Y-70850
X123700Y-71800
X123740Y-49350
X123740Y-50300
X123750Y-45250
X123750Y-46000
X123750Y-46750
X123750Y-47500
X123750Y-54500
X123750Y-55250
X123750Y-56000
X123750Y-56750
X123750Y-64250
X123750Y-65000
X123750Y-65750
X123750Y-66500
X123750Y-73500
X123750Y-74250
X123750Y-75000
X123750Y-75750
X125250Y-45500
X125250Y-46250
X125250Y-47000
X125250Y-47750
X125250Y-54000
X125250Y-54750
X125250Y-55500
X125250Y-56250
X125250Y-73500
X125250Y-74250
X125250Y-75000
X125250Y-75750
X126000Y-45500
X126000Y-46250
X126000Y-47000
X126000Y-47750
X126000Y-54000
X126000Y-54750
X126000Y-55500
X126000Y-56250
X126000Y-64500
X126000Y-65250
X126000Y-66000
X126000Y-66750
X126000Y-73500
X126000Y-74250
X126000Y-75000
X126000Y-75750
X126000Y-77000
X126000Y-83000
X126200Y-42400
X126750Y-45500
X126750Y-46250
X126750Y-47000
X126750Y-47750
X126750Y-48500
X126750Y-49250
X126750Y-50000
X126750Y-50750
X126750Y-53250
X126750Y-54000
X126750Y-54750
X126750Y-55500
X126750Y-56250
X126750Y-64500
X126750Y-65250
X126750Y-66000
X126750Y-66750
X126750Y-67500
X126750Y-68250
X126750Y-69000
X126750Y-69750
X126750Y-70500
X126750Y-71250
X126750Y-72000
X126750Y-72750
X126750Y-73500
X126750Y-74250
X126750Y-75000
X126750Y-75750
X127500Y-45500
X127500Y-46250
X127500Y-47000
X127500Y-47750
X127500Y-48500
X127500Y-49250
X127500Y-50000
X127500Y-50750
X127500Y-52500
X127500Y-53250
X127500Y-54000
X127500Y-54750
X127500Y-55500
X127500Y-56250
X127500Y-64500
X127500Y-65250
X127500Y-66000
X127500Y-66750
X127500Y-67500
X127500Y-68250
X127500Y-69000
X127500Y-69750
X127500Y-70500
X127500Y-71250
X127500Y-72000
X127500Y-72750
X127500Y-73500
X127500Y-74250
X127500Y-75000
X127500Y-75750
X128000Y-58000
X128000Y-61000
X128000Y-80000
X128250Y-45500
X128250Y-46250
X128250Y-47000
X128250Y-47750
X128250Y-48500
X128250Y-49250
X128250Y-50000
X128250Y-50750
X128250Y-52500
X128250Y-53250
X128250Y-54000
X128250Y-54750
X128250Y-55500
X128250Y-56250
X128250Y-64500
X128250Y-65250
X128250Y-66000
X128250Y-66750
X128250Y-67500
X128250Y-68250
X128250Y-69000
X128250Y-69750
X128250Y-70500
X128250Y-71250
X128250Y-72000
X128250Y-72750
X128250Y-73500
X128250Y-74250
X128250Y-75000
X128250Y-75750
X129000Y-45500
X129000Y-46250
X129000Y-47000
X129000Y-47750
X129000Y-48500
X129000Y-49250
X129000Y-50000
X129000Y-50750
X129000Y-52500
X129000Y-53250
X129000Y-54000
X129000Y-54750
X129000Y-55500
X129000Y-56250
X129000Y-64500
X129000Y-65250
X129000Y-66000
X129000Y-66750
X129000Y-67500
X129000Y-68250
X129000Y-69000
X129000Y-69750
X129000Y-70500
X129000Y-71250
X129000Y-72000
X129000Y-72750
X129000Y-73500
X129000Y-74250
X129000Y-75000
X129000Y-75750
X129750Y-45500
X129750Y-46250
X129750Y-47000
X129750Y-47750
X129750Y-48500
X129750Y-49250
X129750Y-50000
X129750Y-50750
X129750Y-52500
X129750Y-53250
X129750Y-54000
X129750Y-54000
X129750Y-54750
X129750Y-55500
X129750Y-56250
X129750Y-64500
X129750Y-65250
X129750Y-66000
X129750Y-66750
X129750Y-67500
X129750Y-68250
X129750Y-69000
X129750Y-69750
X129750Y-70500
X129750Y-71250
X129750Y-72000
X129750Y-72750
X129750Y-73500
X129750Y-74250
X129750Y-75000
X129750Y-75750
X130000Y-77000
X130000Y-83000
X130500Y-45500
X130500Y-46250
X130500Y-47000
X130500Y-47750
X130500Y-48500
X130500Y-49250
X130500Y-50000
X130500Y-50750
X130500Y-52500
X130500Y-53250
X130500Y-54000
X130500Y-54750
X130500Y-55500
X130500Y-56250
X130500Y-64500
X130500Y-65250
X130500Y-66000
X130500Y-66750
X130500Y-67500
X130500Y-68250
X130500Y-69000
X130500Y-69750
X130500Y-70500
X130500Y-71250
X130500Y-72000
X130500Y-72750
X130500Y-73500
X130500Y-74250
X130500Y-75000
X130500Y-75750
X131700Y-43700
X133000Y-57000
X133000Y-61000
X133000Y-65000
X133000Y-77000
X133000Y-81000
T2
X53200Y-73100
X53300Y-77900
X57600Y-62100
X58200Y-57800
X58700Y-60630
X58900Y-62900
X58998Y-56914
X59300Y-66000
X59300Y-72400
X59500Y-63800
X59723Y-57752
X60651Y-57380
X61260Y-54760
X61326Y-52833
X61639Y-53783
X62005Y-57271
X62250Y-64750
X62760Y-54760
X63000Y-61400
X63189Y-69003
X63600Y-48600
X63600Y-48600
X63750Y-57500
X63971Y-68254
X64300Y-66900
X65000Y-69900
X65970Y-62082
X66280Y-69874
X66775Y-59539
X67002Y-52602
X67003Y-51576
X68100Y-65300
X68950Y-52900
X69228Y-68481
X70200Y-76294
X70350Y-61500
X74621Y-73997
X74642Y-58245
X74681Y-61700
X74767Y-60183
X74777Y-74985
X74820Y-72069
X74841Y-70282
X74942Y-59199
X74966Y-73058
X75400Y-56900
X78325Y-64304
X84975Y-72966
X85200Y-76700
X85223Y-56086
X85250Y-62000
X85300Y-69300
X86000Y-60500
X86200Y-56300
X86472Y-69153
X87145Y-74925
X87450Y-68900
X89975Y-73500
X90000Y-70700
X90000Y-62500
X90400Y-55000
X91082Y-69683
X103100Y-77300
X103200Y-58600
X103650Y-43450
X126465Y-51735
X130200Y-41100
T3
X67589Y-45200
X70129Y-45200
X72669Y-45200
X76251Y-45200
X78791Y-45200
X81331Y-45200
X83871Y-45200
X86411Y-45200
T4
X113900Y-66600
X113900Y-73800
X113900Y-47600
X113900Y-54800
T3
G00X108500Y-63450
M15
G01X107300Y-63450
M16
G05
G00X108500Y-76950
M15
G01X107300Y-76950
M16
G05
G00X120500Y-63450
M15
G01X119300Y-63450
M16
G05
G00X120500Y-76950
M15
G01X119300Y-76950
M16
G05
G00X108500Y-44450
M15
G01X107300Y-44450
M16
G05
G00X108500Y-57950
M15
G01X107300Y-57950
M16
G05
G00X120500Y-44450
M15
G01X119300Y-44450
M16
G05
G00X120500Y-57950
M15
G01X119300Y-57950
M16
G05
T0
M30
