M48
; DRILL file {KiCad (5.1.5)-3} date 2019/12/28 0:48:41
; FORMAT={-:-/ absolute / metric / decimal}
; #@! TF.CreationDate,2019-12-28T00:48:41+09:00
; #@! TF.GenerationSoftware,Kicad,Pcbnew,(5.1.5)-3
FMAT,2
METRIC
T1C0.300
T2C0.400
T3C1.000
T4C3.400
%
G90
G05
T1
X50.97Y-83.53
X51.0Y-54.0
X51.0Y-61.8
X51.0Y-69.0
X51.0Y-72.5
X51.1Y-43.4
X53.0Y-83.5
X54.9Y-67.5
X55.25Y-56.0
X56.4Y-47.0
X57.0Y-80.8
X57.1Y-69.2
X59.5Y-81.8
X60.85Y-61.3
X61.0Y-46.2
X61.2Y-56.1
X61.2Y-65.8
X61.75Y-79.2
X63.6Y-52.0
X64.0Y-59.5
X65.2Y-71.2
X65.6Y-51.6
X66.0Y-55.1
X66.0Y-82.0
X66.3Y-68.55
X66.4Y-64.45
X68.0Y-41.3
X68.0Y-48.4
X68.4Y-79.2
X70.0Y-82.0
X70.25Y-58.75
X70.75Y-68.0
X71.0Y-51.0
X71.4Y-48.2
X74.0Y-82.0
X74.689Y-76.842
X74.8Y-76.05
X75.4Y-50.2
X75.55Y-64.35
X75.9Y-61.0
X76.0Y-83.0
X76.1Y-61.85
X77.0Y-80.0
X78.0Y-82.0
X79.5Y-69.5
X79.6Y-73.75
X79.8Y-57.6
X79.8Y-58.8
X79.8Y-60.0
X79.9Y-50.55
X80.0Y-81.0
X80.0Y-83.0
X80.5Y-41.1
X80.6Y-73.0
X80.6Y-74.4
X80.75Y-50.55
X80.8Y-57.0
X80.8Y-58.2
X80.8Y-59.4
X80.8Y-60.6
X81.4Y-48.2
X81.5Y-71.0
X81.5Y-72.25
X81.5Y-73.75
X81.5Y-75.0
X81.7Y-77.5
X81.75Y-50.55
X81.8Y-57.6
X81.8Y-58.8
X81.8Y-60.0
X82.0Y-80.0
X82.0Y-82.0
X84.0Y-79.0
X84.0Y-81.0
X84.0Y-83.0
X85.0Y-64.0
X85.111Y-58.629
X85.4Y-50.9
X85.4Y-51.8
X86.0Y-51.3
X86.0Y-52.2
X86.0Y-65.1
X86.0Y-78.0
X86.0Y-80.0
X86.0Y-82.0
X86.5Y-63.5
X87.2Y-48.0
X87.6Y-41.2
X87.6Y-73.4
X88.0Y-79.0
X88.0Y-81.0
X88.0Y-83.0
X88.6Y-59.2
X90.0Y-51.0
X90.0Y-53.0
X90.0Y-68.0
X90.0Y-78.0
X90.0Y-80.0
X90.0Y-82.0
X91.0Y-50.0
X91.0Y-52.0
X91.0Y-57.0
X91.0Y-67.0
X91.4Y-61.2
X92.0Y-49.0
X92.0Y-51.0
X92.0Y-52.5
X92.0Y-54.0
X92.0Y-56.0
X92.0Y-58.0
X92.0Y-66.0
X92.0Y-68.0
X92.0Y-81.0
X92.0Y-83.0
X93.0Y-48.0
X93.0Y-50.0
X93.0Y-51.75
X93.0Y-53.25
X93.0Y-55.0
X93.0Y-57.0
X93.0Y-65.0
X93.0Y-67.0
X93.0Y-69.0
X94.0Y-47.0
X94.0Y-49.0
X94.0Y-51.0
X94.0Y-52.5
X94.0Y-54.0
X94.0Y-56.0
X94.0Y-58.0
X94.0Y-64.0
X94.0Y-66.0
X94.0Y-68.0
X94.0Y-73.0
X94.0Y-75.0
X94.0Y-80.0
X94.0Y-82.0
X95.0Y-52.25
X95.0Y-53.0
X95.0Y-53.75
X95.0Y-54.5
X95.0Y-55.25
X95.0Y-56.0
X95.0Y-56.75
X95.0Y-57.5
X95.0Y-64.5
X95.0Y-65.25
X95.0Y-66.0
X95.0Y-66.75
X95.0Y-73.4
X95.0Y-74.15
X95.0Y-74.9
X95.0Y-75.65
X95.0Y-76.4
X95.05Y-63.75
X95.2Y-68.2
X95.2Y-68.95
X95.2Y-69.7
X95.2Y-70.45
X95.25Y-45.0
X95.25Y-45.75
X95.25Y-46.5
X95.25Y-47.25
X95.25Y-48.0
X95.25Y-48.75
X95.25Y-49.5
X95.25Y-50.25
X95.25Y-51.0
X95.25Y-67.5
X95.25Y-71.2
X95.25Y-71.95
X95.25Y-72.7
X95.35Y-51.65
X95.75Y-52.25
X95.75Y-53.0
X95.75Y-53.75
X95.75Y-54.5
X95.75Y-55.25
X95.75Y-56.0
X95.75Y-56.75
X95.75Y-57.5
X95.75Y-73.4
X95.75Y-74.15
X95.75Y-74.9
X95.75Y-75.65
X95.75Y-76.4
X95.8Y-63.75
X95.8Y-64.5
X95.8Y-65.25
X95.8Y-66.0
X95.8Y-66.75
X96.0Y-45.0
X96.0Y-45.75
X96.0Y-46.5
X96.0Y-47.25
X96.0Y-48.0
X96.0Y-48.75
X96.0Y-49.5
X96.0Y-50.25
X96.0Y-51.0
X96.0Y-67.5
X96.0Y-68.2
X96.0Y-68.95
X96.0Y-69.7
X96.0Y-70.45
X96.0Y-71.2
X96.0Y-71.95
X96.0Y-72.7
X96.0Y-81.0
X96.0Y-83.0
X96.1Y-51.65
X96.5Y-52.25
X96.5Y-53.0
X96.5Y-53.75
X96.5Y-54.5
X96.5Y-55.25
X96.5Y-56.0
X96.5Y-56.75
X96.5Y-57.5
X96.5Y-73.4
X96.5Y-74.15
X96.5Y-74.9
X96.5Y-75.65
X96.5Y-76.4
X96.55Y-63.75
X96.55Y-64.5
X96.55Y-65.25
X96.55Y-66.0
X96.55Y-66.75
X96.75Y-45.0
X96.75Y-45.75
X96.75Y-46.5
X96.75Y-47.25
X96.75Y-48.0
X96.75Y-48.75
X96.75Y-49.5
X96.75Y-50.25
X96.75Y-51.0
X96.75Y-67.5
X96.75Y-68.2
X96.75Y-68.95
X96.75Y-69.7
X96.75Y-70.45
X96.75Y-71.2
X96.75Y-71.95
X96.75Y-72.7
X96.85Y-51.65
X97.25Y-52.25
X97.25Y-53.0
X97.25Y-53.75
X97.25Y-54.5
X97.25Y-55.25
X97.25Y-56.0
X97.25Y-56.75
X97.25Y-57.5
X97.25Y-73.4
X97.25Y-74.15
X97.25Y-74.9
X97.25Y-75.65
X97.25Y-76.4
X97.3Y-63.75
X97.3Y-64.5
X97.3Y-65.25
X97.3Y-66.0
X97.3Y-66.75
X97.5Y-45.0
X97.5Y-45.75
X97.5Y-46.5
X97.5Y-47.25
X97.5Y-48.0
X97.5Y-48.75
X97.5Y-49.5
X97.5Y-50.25
X97.5Y-51.0
X97.5Y-67.5
X97.5Y-68.2
X97.5Y-68.95
X97.5Y-69.7
X97.5Y-70.45
X97.5Y-71.2
X97.5Y-71.95
X97.5Y-72.7
X97.6Y-51.65
X98.0Y-52.25
X98.0Y-53.0
X98.0Y-53.75
X98.0Y-54.5
X98.0Y-55.25
X98.0Y-56.0
X98.0Y-56.75
X98.0Y-57.5
X98.0Y-73.4
X98.0Y-74.15
X98.0Y-74.9
X98.0Y-75.65
X98.0Y-76.4
X98.0Y-80.0
X98.0Y-82.0
X98.05Y-63.75
X98.05Y-64.5
X98.05Y-65.25
X98.05Y-66.0
X98.05Y-66.75
X98.25Y-45.0
X98.25Y-45.75
X98.25Y-46.5
X98.25Y-47.25
X98.25Y-48.0
X98.25Y-48.75
X98.25Y-49.5
X98.25Y-50.25
X98.25Y-51.0
X98.25Y-67.5
X98.25Y-68.2
X98.25Y-68.95
X98.25Y-69.7
X98.25Y-70.45
X98.25Y-71.2
X98.25Y-71.95
X98.25Y-72.7
X98.75Y-54.5
X98.75Y-55.25
X98.75Y-56.0
X98.75Y-56.75
X98.75Y-57.5
X98.75Y-73.25
X98.75Y-74.0
X98.75Y-74.75
X98.75Y-75.5
X98.75Y-76.25
X98.8Y-63.75
X98.8Y-64.5
X98.8Y-65.25
X98.8Y-66.0
X98.8Y-66.75
X99.0Y-45.0
X99.0Y-45.75
X99.0Y-46.5
X99.0Y-47.25
X99.0Y-48.0
X99.5Y-54.5
X99.5Y-55.25
X99.5Y-56.0
X99.5Y-56.75
X99.5Y-57.5
X99.5Y-73.25
X99.5Y-74.0
X99.5Y-74.75
X99.5Y-75.5
X99.5Y-76.25
X99.55Y-63.75
X99.55Y-64.5
X99.55Y-65.25
X99.55Y-66.0
X99.55Y-66.75
X99.65Y-49.5
X99.65Y-50.35
X99.65Y-52.15
X99.65Y-53.0
X99.7Y-68.25
X99.7Y-69.2
X99.7Y-70.75
X99.7Y-71.7
X99.75Y-45.0
X99.75Y-45.75
X99.75Y-46.5
X99.75Y-47.25
X99.75Y-48.0
X100.0Y-81.0
X100.0Y-83.0
X100.25Y-54.5
X100.25Y-55.25
X100.25Y-56.0
X100.25Y-56.75
X100.25Y-57.5
X100.25Y-73.25
X100.25Y-74.0
X100.25Y-74.75
X100.25Y-75.5
X100.25Y-76.25
X100.3Y-63.75
X100.3Y-64.5
X100.3Y-65.25
X100.3Y-66.0
X100.3Y-66.75
X100.5Y-45.0
X100.5Y-45.75
X100.5Y-46.5
X100.5Y-47.25
X100.5Y-48.0
X100.55Y-49.5
X100.55Y-50.35
X100.55Y-52.15
X100.55Y-53.0
X100.6Y-68.25
X100.6Y-69.2
X100.6Y-70.75
X100.6Y-71.7
X101.0Y-54.5
X101.0Y-55.25
X101.0Y-56.0
X101.0Y-56.75
X101.0Y-57.5
X101.0Y-73.25
X101.0Y-74.0
X101.0Y-74.75
X101.0Y-75.5
X101.0Y-76.25
X101.05Y-63.75
X101.05Y-64.5
X101.05Y-65.25
X101.05Y-66.0
X101.05Y-66.75
X101.25Y-45.0
X101.25Y-45.75
X101.25Y-46.5
X101.25Y-47.25
X101.25Y-48.0
X101.45Y-49.5
X101.45Y-50.35
X101.45Y-52.15
X101.45Y-53.0
X101.5Y-68.25
X101.5Y-69.2
X101.5Y-70.75
X101.5Y-71.7
X101.75Y-54.5
X101.75Y-55.25
X101.75Y-56.0
X101.75Y-56.75
X101.75Y-57.5
X101.75Y-73.25
X101.75Y-74.0
X101.75Y-74.75
X101.75Y-75.5
X101.75Y-76.25
X101.8Y-63.75
X101.8Y-64.5
X101.8Y-65.25
X101.8Y-66.0
X101.8Y-66.75
X101.9Y-82.0
X102.0Y-45.0
X102.0Y-45.75
X102.0Y-46.5
X102.0Y-47.25
X102.0Y-48.0
X102.0Y-80.0
X102.35Y-49.5
X102.35Y-50.35
X102.35Y-52.15
X102.35Y-53.0
X102.4Y-68.25
X102.4Y-69.2
X102.4Y-70.75
X102.4Y-71.7
X102.5Y-54.5
X102.5Y-55.25
X102.5Y-56.0
X102.5Y-56.75
X102.5Y-57.5
X102.5Y-73.25
X102.5Y-74.0
X102.5Y-74.75
X102.5Y-75.5
X102.5Y-76.25
X102.55Y-63.75
X102.55Y-64.5
X102.55Y-65.25
X102.55Y-66.0
X102.55Y-66.75
X102.75Y-45.0
X102.75Y-45.75
X102.75Y-46.5
X102.75Y-47.25
X102.75Y-48.0
X103.25Y-49.5
X103.25Y-50.35
X103.25Y-52.15
X103.25Y-53.0
X103.25Y-54.5
X103.25Y-55.25
X103.25Y-56.0
X103.25Y-73.25
X103.25Y-74.0
X103.25Y-74.75
X103.25Y-75.5
X103.25Y-76.25
X103.3Y-63.75
X103.3Y-64.5
X103.3Y-65.25
X103.3Y-66.0
X103.3Y-66.75
X103.3Y-68.25
X103.3Y-69.2
X103.3Y-70.75
X103.3Y-71.7
X103.5Y-45.0
X103.5Y-45.75
X103.5Y-46.5
X103.5Y-47.25
X103.5Y-48.0
X103.7Y-81.0
X103.7Y-83.0
X105.0Y-46.0
X105.0Y-46.75
X105.0Y-47.5
X105.0Y-48.25
X105.0Y-54.5
X105.0Y-55.25
X105.0Y-56.0
X105.0Y-72.75
X105.0Y-73.5
X105.0Y-74.25
X105.0Y-75.0
X105.0Y-75.75
X105.75Y-46.0
X105.75Y-46.75
X105.75Y-47.5
X105.75Y-48.25
X105.75Y-53.75
X105.75Y-54.5
X105.75Y-55.25
X105.75Y-56.0
X105.75Y-65.0
X105.75Y-65.75
X105.75Y-66.5
X105.75Y-67.25
X105.75Y-72.75
X105.75Y-73.5
X105.75Y-74.25
X105.75Y-75.0
X105.75Y-75.75
X106.0Y-83.0
X106.5Y-46.0
X106.5Y-46.75
X106.5Y-47.5
X106.5Y-48.25
X106.5Y-49.0
X106.5Y-49.75
X106.5Y-51.5
X106.5Y-52.25
X106.5Y-53.0
X106.5Y-53.75
X106.5Y-54.5
X106.5Y-55.25
X106.5Y-56.0
X106.5Y-65.0
X106.5Y-65.75
X106.5Y-66.5
X106.5Y-67.25
X106.5Y-68.0
X106.5Y-68.75
X106.5Y-69.5
X106.5Y-70.5
X106.5Y-71.25
X106.5Y-72.0
X106.5Y-72.75
X106.5Y-73.5
X106.5Y-74.25
X106.5Y-75.0
X107.25Y-46.0
X107.25Y-46.75
X107.25Y-47.5
X107.25Y-48.25
X107.25Y-49.0
X107.25Y-49.75
X107.25Y-50.5
X107.25Y-51.5
X107.25Y-52.25
X107.25Y-53.0
X107.25Y-53.75
X107.25Y-54.5
X107.25Y-55.25
X107.25Y-56.0
X107.25Y-65.0
X107.25Y-65.75
X107.25Y-66.5
X107.25Y-67.25
X107.25Y-68.0
X107.25Y-68.75
X107.25Y-69.5
X107.25Y-70.5
X107.25Y-71.25
X107.25Y-72.0
X107.25Y-72.75
X107.25Y-73.5
X107.25Y-74.25
X107.25Y-75.0
X108.0Y-46.0
X108.0Y-46.75
X108.0Y-47.5
X108.0Y-48.25
X108.0Y-49.0
X108.0Y-49.75
X108.0Y-50.5
X108.0Y-51.5
X108.0Y-52.25
X108.0Y-53.0
X108.0Y-53.75
X108.0Y-54.5
X108.0Y-55.25
X108.0Y-56.0
X108.0Y-65.0
X108.0Y-65.75
X108.0Y-66.5
X108.0Y-67.25
X108.0Y-68.0
X108.0Y-68.75
X108.0Y-69.5
X108.0Y-70.5
X108.0Y-71.25
X108.0Y-72.0
X108.0Y-72.75
X108.0Y-73.5
X108.0Y-74.25
X108.0Y-75.0
X108.75Y-46.0
X108.75Y-46.75
X108.75Y-47.5
X108.75Y-48.25
X108.75Y-49.0
X108.75Y-49.75
X108.75Y-50.5
X108.75Y-51.5
X108.75Y-52.25
X108.75Y-53.0
X108.75Y-53.75
X108.75Y-54.5
X108.75Y-55.25
X108.75Y-56.0
X108.75Y-65.0
X108.75Y-65.75
X108.75Y-66.5
X108.75Y-67.25
X108.75Y-68.0
X108.75Y-68.75
X108.75Y-69.5
X108.75Y-70.5
X108.75Y-71.25
X108.75Y-72.0
X108.75Y-72.75
X108.75Y-73.5
X108.75Y-74.25
X108.75Y-75.0
X109.5Y-46.0
X109.5Y-46.75
X109.5Y-47.5
X109.5Y-48.25
X109.5Y-49.0
X109.5Y-49.75
X109.5Y-50.5
X109.5Y-51.5
X109.5Y-52.25
X109.5Y-53.0
X109.5Y-53.75
X109.5Y-54.5
X109.5Y-55.25
X109.5Y-56.0
X109.5Y-65.0
X109.5Y-65.75
X109.5Y-66.5
X109.5Y-66.5
X109.5Y-67.25
X109.5Y-68.0
X109.5Y-68.75
X109.5Y-69.5
X109.5Y-70.5
X109.5Y-71.25
X109.5Y-72.0
X109.5Y-72.75
X109.5Y-73.5
X109.5Y-74.25
X109.5Y-75.0
X109.5Y-75.75
X110.0Y-83.0
X110.25Y-46.0
X110.25Y-46.75
X110.25Y-47.5
X110.25Y-48.25
X110.25Y-49.0
X110.25Y-49.75
X110.25Y-50.5
X110.25Y-51.5
X110.25Y-52.25
X110.25Y-53.0
X110.25Y-53.75
X110.25Y-54.5
X110.25Y-55.25
X110.25Y-56.0
X110.25Y-65.0
X110.25Y-65.75
X110.25Y-66.5
X110.25Y-67.25
X110.25Y-68.0
X110.25Y-68.75
X110.25Y-69.5
X110.25Y-70.5
X110.25Y-71.25
X110.25Y-72.0
X110.25Y-72.75
X110.25Y-73.5
X110.25Y-74.25
X110.25Y-75.0
X110.25Y-75.75
X114.0Y-83.0
X116.25Y-50.5
X116.25Y-51.5
X116.25Y-52.25
X116.25Y-69.0
X116.25Y-70.5
X116.25Y-71.25
X117.0Y-45.25
X117.0Y-46.0
X117.0Y-49.0
X117.0Y-49.75
X117.0Y-50.5
X117.0Y-51.5
X117.0Y-52.25
X117.0Y-53.0
X117.0Y-68.0
X117.0Y-68.75
X117.0Y-69.5
X117.0Y-70.5
X117.0Y-71.25
X117.0Y-72.0
X117.0Y-72.75
X117.0Y-75.0
X117.0Y-75.75
X117.75Y-45.25
X117.75Y-46.0
X117.75Y-46.75
X117.75Y-47.5
X117.75Y-48.25
X117.75Y-49.0
X117.75Y-49.75
X117.75Y-50.5
X117.75Y-51.5
X117.75Y-52.25
X117.75Y-53.0
X117.75Y-53.0
X117.75Y-53.75
X117.75Y-54.5
X117.75Y-55.25
X117.75Y-56.0
X117.75Y-56.75
X117.75Y-64.25
X117.75Y-65.0
X117.75Y-65.75
X117.75Y-66.5
X117.75Y-67.25
X117.75Y-68.0
X117.75Y-68.75
X117.75Y-69.5
X117.75Y-70.5
X117.75Y-71.25
X117.75Y-72.0
X117.75Y-72.75
X117.75Y-73.5
X117.75Y-74.25
X117.75Y-75.0
X117.75Y-75.75
X118.0Y-83.0
X118.5Y-46.0
X118.5Y-46.75
X118.5Y-47.5
X118.5Y-48.25
X118.5Y-49.0
X118.5Y-49.75
X118.5Y-50.5
X118.5Y-51.5
X118.5Y-52.25
X118.5Y-53.0
X118.5Y-53.75
X118.5Y-54.5
X118.5Y-55.25
X118.5Y-56.0
X118.5Y-65.0
X118.5Y-65.75
X118.5Y-66.5
X118.5Y-67.25
X118.5Y-68.0
X118.5Y-68.75
X118.5Y-69.5
X118.5Y-70.5
X118.5Y-71.25
X118.5Y-72.0
X118.5Y-72.75
X118.5Y-73.5
X118.5Y-74.25
X118.5Y-75.0
X119.25Y-46.0
X119.25Y-46.75
X119.25Y-47.5
X119.25Y-48.25
X119.25Y-54.5
X119.25Y-54.5
X119.25Y-55.25
X119.25Y-56.0
X119.25Y-65.0
X119.25Y-65.75
X119.25Y-65.75
X119.25Y-66.5
X119.25Y-73.5
X119.25Y-73.5
X119.25Y-74.25
X119.25Y-75.0
X120.0Y-46.0
X120.0Y-46.75
X120.0Y-47.5
X120.0Y-47.5
X120.0Y-54.5
X120.0Y-55.25
X120.0Y-56.0
X120.0Y-65.0
X120.0Y-65.75
X120.0Y-66.5
X120.0Y-73.5
X120.0Y-74.25
X120.0Y-75.0
X120.1Y-51.85
X120.1Y-52.8
X120.1Y-68.35
X120.1Y-69.3
X120.1Y-70.85
X120.1Y-71.8
X120.14Y-49.35
X120.14Y-50.3
X120.75Y-46.0
X120.75Y-46.75
X120.75Y-47.5
X120.75Y-54.5
X120.75Y-55.25
X120.75Y-56.0
X120.75Y-65.0
X120.75Y-65.75
X120.75Y-66.5
X120.75Y-73.5
X120.75Y-74.25
X120.75Y-75.0
X121.0Y-51.85
X121.0Y-52.8
X121.0Y-68.35
X121.0Y-69.3
X121.0Y-70.85
X121.0Y-71.8
X121.04Y-49.35
X121.04Y-50.3
X121.5Y-46.0
X121.5Y-46.75
X121.5Y-47.5
X121.5Y-54.5
X121.5Y-55.25
X121.5Y-56.0
X121.5Y-56.75
X121.5Y-65.0
X121.5Y-65.75
X121.5Y-66.5
X121.5Y-73.5
X121.5Y-74.25
X121.5Y-75.0
X121.5Y-75.75
X121.9Y-51.85
X121.9Y-52.8
X121.9Y-68.35
X121.9Y-69.3
X121.9Y-70.85
X121.9Y-71.8
X121.94Y-49.35
X121.94Y-50.3
X122.0Y-83.0
X122.25Y-45.25
X122.25Y-46.0
X122.25Y-46.75
X122.25Y-47.5
X122.25Y-54.5
X122.25Y-55.25
X122.25Y-56.0
X122.25Y-56.75
X122.25Y-64.25
X122.25Y-65.0
X122.25Y-65.75
X122.25Y-66.5
X122.25Y-73.5
X122.25Y-74.25
X122.25Y-75.0
X122.25Y-75.75
X122.8Y-51.85
X122.8Y-52.8
X122.8Y-68.35
X122.8Y-69.3
X122.8Y-70.85
X122.8Y-71.8
X122.84Y-49.35
X122.84Y-50.3
X123.0Y-45.25
X123.0Y-46.0
X123.0Y-46.75
X123.0Y-47.5
X123.0Y-54.5
X123.0Y-55.25
X123.0Y-56.0
X123.0Y-56.75
X123.0Y-64.25
X123.0Y-65.0
X123.0Y-65.75
X123.0Y-66.5
X123.0Y-73.5
X123.0Y-74.25
X123.0Y-75.0
X123.0Y-75.75
X123.7Y-51.85
X123.7Y-52.8
X123.7Y-68.35
X123.7Y-69.3
X123.7Y-70.85
X123.7Y-71.8
X123.74Y-49.35
X123.74Y-50.3
X123.75Y-45.25
X123.75Y-46.0
X123.75Y-46.75
X123.75Y-47.5
X123.75Y-54.5
X123.75Y-55.25
X123.75Y-56.0
X123.75Y-56.75
X123.75Y-64.25
X123.75Y-65.0
X123.75Y-65.75
X123.75Y-66.5
X123.75Y-73.5
X123.75Y-74.25
X123.75Y-75.0
X123.75Y-75.75
X125.25Y-45.5
X125.25Y-46.25
X125.25Y-47.0
X125.25Y-47.75
X125.25Y-54.0
X125.25Y-54.75
X125.25Y-55.5
X125.25Y-56.25
X125.25Y-73.5
X125.25Y-74.25
X125.25Y-75.0
X125.25Y-75.75
X126.0Y-45.5
X126.0Y-46.25
X126.0Y-47.0
X126.0Y-47.75
X126.0Y-54.0
X126.0Y-54.75
X126.0Y-55.5
X126.0Y-56.25
X126.0Y-64.5
X126.0Y-65.25
X126.0Y-66.0
X126.0Y-66.75
X126.0Y-73.5
X126.0Y-74.25
X126.0Y-75.0
X126.0Y-75.75
X126.0Y-77.0
X126.0Y-83.0
X126.2Y-42.4
X126.75Y-45.5
X126.75Y-46.25
X126.75Y-47.0
X126.75Y-47.75
X126.75Y-48.5
X126.75Y-49.25
X126.75Y-50.0
X126.75Y-50.75
X126.75Y-53.25
X126.75Y-54.0
X126.75Y-54.75
X126.75Y-55.5
X126.75Y-56.25
X126.75Y-64.5
X126.75Y-65.25
X126.75Y-66.0
X126.75Y-66.75
X126.75Y-67.5
X126.75Y-68.25
X126.75Y-69.0
X126.75Y-69.75
X126.75Y-70.5
X126.75Y-71.25
X126.75Y-72.0
X126.75Y-72.75
X126.75Y-73.5
X126.75Y-74.25
X126.75Y-75.0
X126.75Y-75.75
X127.5Y-45.5
X127.5Y-46.25
X127.5Y-47.0
X127.5Y-47.75
X127.5Y-48.5
X127.5Y-49.25
X127.5Y-50.0
X127.5Y-50.75
X127.5Y-52.5
X127.5Y-53.25
X127.5Y-54.0
X127.5Y-54.75
X127.5Y-55.5
X127.5Y-56.25
X127.5Y-64.5
X127.5Y-65.25
X127.5Y-66.0
X127.5Y-66.75
X127.5Y-67.5
X127.5Y-68.25
X127.5Y-69.0
X127.5Y-69.75
X127.5Y-70.5
X127.5Y-71.25
X127.5Y-72.0
X127.5Y-72.75
X127.5Y-73.5
X127.5Y-74.25
X127.5Y-75.0
X127.5Y-75.75
X128.0Y-58.0
X128.0Y-61.0
X128.0Y-80.0
X128.25Y-45.5
X128.25Y-46.25
X128.25Y-47.0
X128.25Y-47.75
X128.25Y-48.5
X128.25Y-49.25
X128.25Y-50.0
X128.25Y-50.75
X128.25Y-52.5
X128.25Y-53.25
X128.25Y-54.0
X128.25Y-54.75
X128.25Y-55.5
X128.25Y-56.25
X128.25Y-64.5
X128.25Y-65.25
X128.25Y-66.0
X128.25Y-66.75
X128.25Y-67.5
X128.25Y-68.25
X128.25Y-69.0
X128.25Y-69.75
X128.25Y-70.5
X128.25Y-71.25
X128.25Y-72.0
X128.25Y-72.75
X128.25Y-73.5
X128.25Y-74.25
X128.25Y-75.0
X128.25Y-75.75
X129.0Y-45.5
X129.0Y-46.25
X129.0Y-47.0
X129.0Y-47.75
X129.0Y-48.5
X129.0Y-49.25
X129.0Y-50.0
X129.0Y-50.75
X129.0Y-52.5
X129.0Y-53.25
X129.0Y-54.0
X129.0Y-54.75
X129.0Y-55.5
X129.0Y-56.25
X129.0Y-64.5
X129.0Y-65.25
X129.0Y-66.0
X129.0Y-66.75
X129.0Y-67.5
X129.0Y-68.25
X129.0Y-69.0
X129.0Y-69.75
X129.0Y-70.5
X129.0Y-71.25
X129.0Y-72.0
X129.0Y-72.75
X129.0Y-73.5
X129.0Y-74.25
X129.0Y-75.0
X129.0Y-75.75
X129.75Y-45.5
X129.75Y-46.25
X129.75Y-47.0
X129.75Y-47.75
X129.75Y-48.5
X129.75Y-49.25
X129.75Y-50.0
X129.75Y-50.75
X129.75Y-52.5
X129.75Y-53.25
X129.75Y-54.0
X129.75Y-54.0
X129.75Y-54.75
X129.75Y-55.5
X129.75Y-56.25
X129.75Y-64.5
X129.75Y-65.25
X129.75Y-66.0
X129.75Y-66.75
X129.75Y-67.5
X129.75Y-68.25
X129.75Y-69.0
X129.75Y-69.75
X129.75Y-70.5
X129.75Y-71.25
X129.75Y-72.0
X129.75Y-72.75
X129.75Y-73.5
X129.75Y-74.25
X129.75Y-75.0
X129.75Y-75.75
X130.0Y-77.0
X130.0Y-83.0
X130.5Y-45.5
X130.5Y-46.25
X130.5Y-47.0
X130.5Y-47.75
X130.5Y-48.5
X130.5Y-49.25
X130.5Y-50.0
X130.5Y-50.75
X130.5Y-52.5
X130.5Y-53.25
X130.5Y-54.0
X130.5Y-54.75
X130.5Y-55.5
X130.5Y-56.25
X130.5Y-64.5
X130.5Y-65.25
X130.5Y-66.0
X130.5Y-66.75
X130.5Y-67.5
X130.5Y-68.25
X130.5Y-69.0
X130.5Y-69.75
X130.5Y-70.5
X130.5Y-71.25
X130.5Y-72.0
X130.5Y-72.75
X130.5Y-73.5
X130.5Y-74.25
X130.5Y-75.0
X130.5Y-75.75
X131.7Y-43.7
X133.0Y-57.0
X133.0Y-61.0
X133.0Y-65.0
X133.0Y-77.0
X133.0Y-81.0
T2
X53.2Y-73.1
X53.3Y-77.9
X57.6Y-62.1
X58.2Y-57.8
X58.7Y-60.63
X58.9Y-62.9
X58.998Y-56.914
X59.3Y-66.0
X59.3Y-72.4
X59.5Y-63.8
X59.723Y-57.752
X60.651Y-57.38
X61.26Y-54.76
X61.326Y-52.833
X61.639Y-53.783
X62.005Y-57.271
X62.25Y-64.75
X62.76Y-54.76
X63.0Y-61.4
X63.189Y-69.003
X63.6Y-48.6
X63.6Y-48.6
X63.75Y-57.5
X63.971Y-68.254
X64.3Y-66.9
X65.0Y-69.9
X65.97Y-62.082
X66.28Y-69.874
X66.775Y-59.539
X67.002Y-52.602
X67.003Y-51.576
X68.1Y-65.3
X68.95Y-52.9
X69.228Y-68.481
X70.2Y-76.294
X70.35Y-61.5
X74.621Y-73.997
X74.642Y-58.245
X74.681Y-61.7
X74.767Y-60.183
X74.777Y-74.985
X74.82Y-72.069
X74.841Y-70.282
X74.942Y-59.199
X74.966Y-73.058
X75.4Y-56.9
X78.325Y-64.304
X84.975Y-72.966
X85.2Y-76.7
X85.223Y-56.086
X85.25Y-62.0
X85.3Y-69.3
X86.0Y-60.5
X86.2Y-56.3
X86.472Y-69.153
X87.145Y-74.925
X87.45Y-68.9
X89.975Y-73.5
X90.0Y-70.7
X90.0Y-62.5
X90.4Y-55.0
X91.082Y-69.683
X103.1Y-77.3
X103.2Y-58.6
X103.65Y-43.45
X126.465Y-51.735
X130.2Y-41.1
T3
X67.589Y-45.2
X70.129Y-45.2
X72.669Y-45.2
X76.251Y-45.2
X78.791Y-45.2
X81.331Y-45.2
X83.871Y-45.2
X86.411Y-45.2
T4
X113.9Y-66.6
X113.9Y-73.8
X113.9Y-47.6
X113.9Y-54.8
T3
G00X108.5Y-63.45
M15
G01X107.3Y-63.45
M16
G05
G00X108.5Y-76.95
M15
G01X107.3Y-76.95
M16
G05
G00X120.5Y-63.45
M15
G01X119.3Y-63.45
M16
G05
G00X120.5Y-76.95
M15
G01X119.3Y-76.95
M16
G05
G00X108.5Y-44.45
M15
G01X107.3Y-44.45
M16
G05
G00X108.5Y-57.95
M15
G01X107.3Y-57.95
M16
G05
G00X120.5Y-44.45
M15
G01X119.3Y-44.45
M16
G05
G00X120.5Y-57.95
M15
G01X119.3Y-57.95
M16
G05
T0
M30
