G04 #@! TF.GenerationSoftware,KiCad,Pcbnew,(5.1.5)-3*
G04 #@! TF.CreationDate,2019-12-28T00:48:41+09:00*
G04 #@! TF.ProjectId,H-Bridge-MD,482d4272-6964-4676-952d-4d442e6b6963,rev?*
G04 #@! TF.SameCoordinates,Original*
G04 #@! TF.FileFunction,Soldermask,Top*
G04 #@! TF.FilePolarity,Negative*
%FSLAX46Y46*%
G04 Gerber Fmt 4.6, Leading zero omitted, Abs format (unit mm)*
G04 Created by KiCad (PCBNEW (5.1.5)-3) date 2019-12-28 00:48:41*
%MOMM*%
%LPD*%
G04 APERTURE LIST*
%ADD10C,0.050000*%
%ADD11C,0.100000*%
G04 APERTURE END LIST*
D10*
X50000000Y-90000000D02*
X61468000Y-90000000D01*
X63373000Y-90000000D02*
X135000000Y-90000000D01*
X63373000Y-80772000D02*
X61468000Y-80772000D01*
X50000000Y-43500000D02*
G75*
G02X53500000Y-40000000I3500000J0D01*
G01*
X131500000Y-40000000D02*
G75*
G02X135000000Y-43500000I0J-3500000D01*
G01*
X63373000Y-80772000D02*
X63373000Y-90000000D01*
X61468000Y-90000000D02*
X61468000Y-80772000D01*
X131500000Y-40000000D02*
X53500000Y-40000000D01*
X50000000Y-43500000D02*
X50000000Y-90000000D01*
X135000000Y-43500000D02*
X135000000Y-90000000D01*
D11*
G36*
X134346000Y-88843689D02*
G01*
X134335443Y-88856553D01*
X134323893Y-88878161D01*
X134303207Y-88928103D01*
X134262058Y-88989686D01*
X134209686Y-89042058D01*
X134148103Y-89083207D01*
X134079675Y-89111550D01*
X134079674Y-89111550D01*
X134079672Y-89111551D01*
X134007034Y-89126000D01*
X133932966Y-89126000D01*
X133860328Y-89111551D01*
X133860326Y-89111550D01*
X133860325Y-89111550D01*
X133791897Y-89083207D01*
X133730314Y-89042058D01*
X133677942Y-88989686D01*
X133636793Y-88928103D01*
X133616107Y-88878161D01*
X133604557Y-88856553D01*
X133594000Y-88843690D01*
X133594000Y-87925999D01*
X133591598Y-87901613D01*
X133584485Y-87878164D01*
X133572934Y-87856553D01*
X133557389Y-87837611D01*
X133538447Y-87822066D01*
X133516836Y-87810515D01*
X133493387Y-87803402D01*
X133469001Y-87801000D01*
X132470999Y-87801000D01*
X132446613Y-87803402D01*
X132423164Y-87810515D01*
X132401553Y-87822066D01*
X132382611Y-87837611D01*
X132367066Y-87856553D01*
X132355515Y-87878164D01*
X132348402Y-87901613D01*
X132346000Y-87925999D01*
X132346000Y-88843689D01*
X132335443Y-88856553D01*
X132323893Y-88878161D01*
X132303207Y-88928103D01*
X132262058Y-88989686D01*
X132209686Y-89042058D01*
X132148103Y-89083207D01*
X132079675Y-89111550D01*
X132079674Y-89111550D01*
X132079672Y-89111551D01*
X132007034Y-89126000D01*
X131932966Y-89126000D01*
X131860328Y-89111551D01*
X131860326Y-89111550D01*
X131860325Y-89111550D01*
X131791897Y-89083207D01*
X131730314Y-89042058D01*
X131677942Y-88989686D01*
X131636793Y-88928103D01*
X131616107Y-88878161D01*
X131604557Y-88856553D01*
X131589011Y-88837611D01*
X131570069Y-88822066D01*
X131548459Y-88810515D01*
X131525010Y-88803402D01*
X131500624Y-88801000D01*
X131439376Y-88801000D01*
X131414990Y-88803402D01*
X131391541Y-88810515D01*
X131369930Y-88822066D01*
X131350988Y-88837611D01*
X131335443Y-88856553D01*
X131323893Y-88878161D01*
X131303207Y-88928103D01*
X131262058Y-88989686D01*
X131209686Y-89042058D01*
X131148103Y-89083207D01*
X131079675Y-89111550D01*
X131079674Y-89111550D01*
X131079672Y-89111551D01*
X131007034Y-89126000D01*
X130932966Y-89126000D01*
X130860328Y-89111551D01*
X130860326Y-89111550D01*
X130860325Y-89111550D01*
X130791897Y-89083207D01*
X130730314Y-89042058D01*
X130677942Y-88989686D01*
X130636793Y-88928103D01*
X130616107Y-88878161D01*
X130604557Y-88856553D01*
X130589011Y-88837611D01*
X130570069Y-88822066D01*
X130548459Y-88810515D01*
X130525010Y-88803402D01*
X130500624Y-88801000D01*
X130439376Y-88801000D01*
X130414990Y-88803402D01*
X130391541Y-88810515D01*
X130369930Y-88822066D01*
X130350988Y-88837611D01*
X130335443Y-88856553D01*
X130323893Y-88878161D01*
X130303207Y-88928103D01*
X130262058Y-88989686D01*
X130209686Y-89042058D01*
X130148103Y-89083207D01*
X130079675Y-89111550D01*
X130079674Y-89111550D01*
X130079672Y-89111551D01*
X130007034Y-89126000D01*
X129932966Y-89126000D01*
X129860328Y-89111551D01*
X129860326Y-89111550D01*
X129860325Y-89111550D01*
X129791897Y-89083207D01*
X129730314Y-89042058D01*
X129677942Y-88989686D01*
X129636793Y-88928103D01*
X129616107Y-88878161D01*
X129604557Y-88856553D01*
X129589011Y-88837611D01*
X129570069Y-88822066D01*
X129548459Y-88810515D01*
X129525010Y-88803402D01*
X129500624Y-88801000D01*
X129439376Y-88801000D01*
X129414990Y-88803402D01*
X129391541Y-88810515D01*
X129369930Y-88822066D01*
X129350988Y-88837611D01*
X129335443Y-88856553D01*
X129323893Y-88878161D01*
X129303207Y-88928103D01*
X129262058Y-88989686D01*
X129209686Y-89042058D01*
X129148103Y-89083207D01*
X129079675Y-89111550D01*
X129079674Y-89111550D01*
X129079672Y-89111551D01*
X129007034Y-89126000D01*
X128932966Y-89126000D01*
X128860328Y-89111551D01*
X128860326Y-89111550D01*
X128860325Y-89111550D01*
X128791897Y-89083207D01*
X128730314Y-89042058D01*
X128677942Y-88989686D01*
X128636793Y-88928103D01*
X128616107Y-88878161D01*
X128604557Y-88856553D01*
X128589011Y-88837611D01*
X128570069Y-88822066D01*
X128548459Y-88810515D01*
X128525010Y-88803402D01*
X128500624Y-88801000D01*
X128439376Y-88801000D01*
X128414990Y-88803402D01*
X128391541Y-88810515D01*
X128369930Y-88822066D01*
X128350988Y-88837611D01*
X128335443Y-88856553D01*
X128323893Y-88878161D01*
X128303207Y-88928103D01*
X128262058Y-88989686D01*
X128209686Y-89042058D01*
X128148103Y-89083207D01*
X128079675Y-89111550D01*
X128079674Y-89111550D01*
X128079672Y-89111551D01*
X128007034Y-89126000D01*
X127932966Y-89126000D01*
X127860328Y-89111551D01*
X127860326Y-89111550D01*
X127860325Y-89111550D01*
X127791897Y-89083207D01*
X127730314Y-89042058D01*
X127677942Y-88989686D01*
X127636793Y-88928103D01*
X127616107Y-88878161D01*
X127604557Y-88856553D01*
X127589011Y-88837611D01*
X127570069Y-88822066D01*
X127548459Y-88810515D01*
X127525010Y-88803402D01*
X127500624Y-88801000D01*
X127439376Y-88801000D01*
X127414990Y-88803402D01*
X127391541Y-88810515D01*
X127369930Y-88822066D01*
X127350988Y-88837611D01*
X127335443Y-88856553D01*
X127323893Y-88878161D01*
X127303207Y-88928103D01*
X127262058Y-88989686D01*
X127209686Y-89042058D01*
X127148103Y-89083207D01*
X127079675Y-89111550D01*
X127079674Y-89111550D01*
X127079672Y-89111551D01*
X127007034Y-89126000D01*
X126932966Y-89126000D01*
X126860328Y-89111551D01*
X126860326Y-89111550D01*
X126860325Y-89111550D01*
X126791897Y-89083207D01*
X126730314Y-89042058D01*
X126677942Y-88989686D01*
X126636793Y-88928103D01*
X126616107Y-88878161D01*
X126604557Y-88856553D01*
X126589011Y-88837611D01*
X126570069Y-88822066D01*
X126548459Y-88810515D01*
X126525010Y-88803402D01*
X126500624Y-88801000D01*
X126439376Y-88801000D01*
X126414990Y-88803402D01*
X126391541Y-88810515D01*
X126369930Y-88822066D01*
X126350988Y-88837611D01*
X126335443Y-88856553D01*
X126323893Y-88878161D01*
X126303207Y-88928103D01*
X126262058Y-88989686D01*
X126209686Y-89042058D01*
X126148103Y-89083207D01*
X126079675Y-89111550D01*
X126079674Y-89111550D01*
X126079672Y-89111551D01*
X126007034Y-89126000D01*
X125932966Y-89126000D01*
X125860328Y-89111551D01*
X125860326Y-89111550D01*
X125860325Y-89111550D01*
X125791897Y-89083207D01*
X125730314Y-89042058D01*
X125677942Y-88989686D01*
X125636793Y-88928103D01*
X125616107Y-88878161D01*
X125604557Y-88856553D01*
X125589011Y-88837611D01*
X125570069Y-88822066D01*
X125548459Y-88810515D01*
X125525010Y-88803402D01*
X125500624Y-88801000D01*
X125439376Y-88801000D01*
X125414990Y-88803402D01*
X125391541Y-88810515D01*
X125369930Y-88822066D01*
X125350988Y-88837611D01*
X125335443Y-88856553D01*
X125323893Y-88878161D01*
X125303207Y-88928103D01*
X125262058Y-88989686D01*
X125209686Y-89042058D01*
X125148103Y-89083207D01*
X125079675Y-89111550D01*
X125079674Y-89111550D01*
X125079672Y-89111551D01*
X125007034Y-89126000D01*
X124932966Y-89126000D01*
X124860328Y-89111551D01*
X124860326Y-89111550D01*
X124860325Y-89111550D01*
X124791897Y-89083207D01*
X124730314Y-89042058D01*
X124677942Y-88989686D01*
X124636793Y-88928103D01*
X124616107Y-88878161D01*
X124604557Y-88856553D01*
X124589011Y-88837611D01*
X124570069Y-88822066D01*
X124548459Y-88810515D01*
X124525010Y-88803402D01*
X124500624Y-88801000D01*
X124439376Y-88801000D01*
X124414990Y-88803402D01*
X124391541Y-88810515D01*
X124369930Y-88822066D01*
X124350988Y-88837611D01*
X124335443Y-88856553D01*
X124323893Y-88878161D01*
X124303207Y-88928103D01*
X124262058Y-88989686D01*
X124209686Y-89042058D01*
X124148103Y-89083207D01*
X124079675Y-89111550D01*
X124079674Y-89111550D01*
X124079672Y-89111551D01*
X124007034Y-89126000D01*
X123932966Y-89126000D01*
X123860328Y-89111551D01*
X123860326Y-89111550D01*
X123860325Y-89111550D01*
X123791897Y-89083207D01*
X123730314Y-89042058D01*
X123677942Y-88989686D01*
X123636793Y-88928103D01*
X123616107Y-88878161D01*
X123604557Y-88856553D01*
X123589011Y-88837611D01*
X123570069Y-88822066D01*
X123548459Y-88810515D01*
X123525010Y-88803402D01*
X123500624Y-88801000D01*
X123439376Y-88801000D01*
X123414990Y-88803402D01*
X123391541Y-88810515D01*
X123369930Y-88822066D01*
X123350988Y-88837611D01*
X123335443Y-88856553D01*
X123323893Y-88878161D01*
X123303207Y-88928103D01*
X123262058Y-88989686D01*
X123209686Y-89042058D01*
X123148103Y-89083207D01*
X123079675Y-89111550D01*
X123079674Y-89111550D01*
X123079672Y-89111551D01*
X123007034Y-89126000D01*
X122932966Y-89126000D01*
X122860328Y-89111551D01*
X122860326Y-89111550D01*
X122860325Y-89111550D01*
X122791897Y-89083207D01*
X122730314Y-89042058D01*
X122677942Y-88989686D01*
X122636793Y-88928103D01*
X122616107Y-88878161D01*
X122604557Y-88856553D01*
X122589011Y-88837611D01*
X122570069Y-88822066D01*
X122548459Y-88810515D01*
X122525010Y-88803402D01*
X122500624Y-88801000D01*
X122439376Y-88801000D01*
X122414990Y-88803402D01*
X122391541Y-88810515D01*
X122369930Y-88822066D01*
X122350988Y-88837611D01*
X122335443Y-88856553D01*
X122323893Y-88878161D01*
X122303207Y-88928103D01*
X122262058Y-88989686D01*
X122209686Y-89042058D01*
X122148103Y-89083207D01*
X122079675Y-89111550D01*
X122079674Y-89111550D01*
X122079672Y-89111551D01*
X122007034Y-89126000D01*
X121932966Y-89126000D01*
X121860328Y-89111551D01*
X121860326Y-89111550D01*
X121860325Y-89111550D01*
X121791897Y-89083207D01*
X121730314Y-89042058D01*
X121677942Y-88989686D01*
X121636793Y-88928103D01*
X121616107Y-88878161D01*
X121604557Y-88856553D01*
X121589011Y-88837611D01*
X121570069Y-88822066D01*
X121548459Y-88810515D01*
X121525010Y-88803402D01*
X121500624Y-88801000D01*
X121439376Y-88801000D01*
X121414990Y-88803402D01*
X121391541Y-88810515D01*
X121369930Y-88822066D01*
X121350988Y-88837611D01*
X121335443Y-88856553D01*
X121323893Y-88878161D01*
X121303207Y-88928103D01*
X121262058Y-88989686D01*
X121209686Y-89042058D01*
X121148103Y-89083207D01*
X121079675Y-89111550D01*
X121079674Y-89111550D01*
X121079672Y-89111551D01*
X121007034Y-89126000D01*
X120932966Y-89126000D01*
X120860328Y-89111551D01*
X120860326Y-89111550D01*
X120860325Y-89111550D01*
X120791897Y-89083207D01*
X120730314Y-89042058D01*
X120677942Y-88989686D01*
X120636793Y-88928103D01*
X120616107Y-88878161D01*
X120604557Y-88856553D01*
X120589011Y-88837611D01*
X120570069Y-88822066D01*
X120548459Y-88810515D01*
X120525010Y-88803402D01*
X120500624Y-88801000D01*
X120439376Y-88801000D01*
X120414990Y-88803402D01*
X120391541Y-88810515D01*
X120369930Y-88822066D01*
X120350988Y-88837611D01*
X120335443Y-88856553D01*
X120323893Y-88878161D01*
X120303207Y-88928103D01*
X120262058Y-88989686D01*
X120209686Y-89042058D01*
X120148103Y-89083207D01*
X120079675Y-89111550D01*
X120079674Y-89111550D01*
X120079672Y-89111551D01*
X120007034Y-89126000D01*
X119932966Y-89126000D01*
X119860328Y-89111551D01*
X119860326Y-89111550D01*
X119860325Y-89111550D01*
X119791897Y-89083207D01*
X119730314Y-89042058D01*
X119677942Y-88989686D01*
X119636793Y-88928103D01*
X119616107Y-88878161D01*
X119604557Y-88856553D01*
X119589011Y-88837611D01*
X119570069Y-88822066D01*
X119548459Y-88810515D01*
X119525010Y-88803402D01*
X119500624Y-88801000D01*
X119439376Y-88801000D01*
X119414990Y-88803402D01*
X119391541Y-88810515D01*
X119369930Y-88822066D01*
X119350988Y-88837611D01*
X119335443Y-88856553D01*
X119323893Y-88878161D01*
X119303207Y-88928103D01*
X119262058Y-88989686D01*
X119209686Y-89042058D01*
X119148103Y-89083207D01*
X119079675Y-89111550D01*
X119079674Y-89111550D01*
X119079672Y-89111551D01*
X119007034Y-89126000D01*
X118932966Y-89126000D01*
X118860328Y-89111551D01*
X118860326Y-89111550D01*
X118860325Y-89111550D01*
X118791897Y-89083207D01*
X118730314Y-89042058D01*
X118677942Y-88989686D01*
X118636793Y-88928103D01*
X118616107Y-88878161D01*
X118604557Y-88856553D01*
X118589011Y-88837611D01*
X118570069Y-88822066D01*
X118548459Y-88810515D01*
X118525010Y-88803402D01*
X118500624Y-88801000D01*
X118439376Y-88801000D01*
X118414990Y-88803402D01*
X118391541Y-88810515D01*
X118369930Y-88822066D01*
X118350988Y-88837611D01*
X118335443Y-88856553D01*
X118323893Y-88878161D01*
X118303207Y-88928103D01*
X118262058Y-88989686D01*
X118209686Y-89042058D01*
X118148103Y-89083207D01*
X118079675Y-89111550D01*
X118079674Y-89111550D01*
X118079672Y-89111551D01*
X118007034Y-89126000D01*
X117932966Y-89126000D01*
X117860328Y-89111551D01*
X117860326Y-89111550D01*
X117860325Y-89111550D01*
X117791897Y-89083207D01*
X117730314Y-89042058D01*
X117677942Y-88989686D01*
X117636793Y-88928103D01*
X117616107Y-88878161D01*
X117604557Y-88856553D01*
X117589011Y-88837611D01*
X117570069Y-88822066D01*
X117548459Y-88810515D01*
X117525010Y-88803402D01*
X117500624Y-88801000D01*
X117439376Y-88801000D01*
X117414990Y-88803402D01*
X117391541Y-88810515D01*
X117369930Y-88822066D01*
X117350988Y-88837611D01*
X117335443Y-88856553D01*
X117323893Y-88878161D01*
X117303207Y-88928103D01*
X117262058Y-88989686D01*
X117209686Y-89042058D01*
X117148103Y-89083207D01*
X117079675Y-89111550D01*
X117079674Y-89111550D01*
X117079672Y-89111551D01*
X117007034Y-89126000D01*
X116932966Y-89126000D01*
X116860328Y-89111551D01*
X116860326Y-89111550D01*
X116860325Y-89111550D01*
X116791897Y-89083207D01*
X116730314Y-89042058D01*
X116677942Y-88989686D01*
X116636793Y-88928103D01*
X116616107Y-88878161D01*
X116604557Y-88856553D01*
X116589011Y-88837611D01*
X116570069Y-88822066D01*
X116548459Y-88810515D01*
X116525010Y-88803402D01*
X116500624Y-88801000D01*
X116439376Y-88801000D01*
X116414990Y-88803402D01*
X116391541Y-88810515D01*
X116369930Y-88822066D01*
X116350988Y-88837611D01*
X116335443Y-88856553D01*
X116323893Y-88878161D01*
X116303207Y-88928103D01*
X116262058Y-88989686D01*
X116209686Y-89042058D01*
X116148103Y-89083207D01*
X116079675Y-89111550D01*
X116079674Y-89111550D01*
X116079672Y-89111551D01*
X116007034Y-89126000D01*
X115932966Y-89126000D01*
X115860328Y-89111551D01*
X115860326Y-89111550D01*
X115860325Y-89111550D01*
X115791897Y-89083207D01*
X115730314Y-89042058D01*
X115677942Y-88989686D01*
X115636793Y-88928103D01*
X115616107Y-88878161D01*
X115604557Y-88856553D01*
X115589011Y-88837611D01*
X115570069Y-88822066D01*
X115548459Y-88810515D01*
X115525010Y-88803402D01*
X115500624Y-88801000D01*
X115439376Y-88801000D01*
X115414990Y-88803402D01*
X115391541Y-88810515D01*
X115369930Y-88822066D01*
X115350988Y-88837611D01*
X115335443Y-88856553D01*
X115323893Y-88878161D01*
X115303207Y-88928103D01*
X115262058Y-88989686D01*
X115209686Y-89042058D01*
X115148103Y-89083207D01*
X115079675Y-89111550D01*
X115079674Y-89111550D01*
X115079672Y-89111551D01*
X115007034Y-89126000D01*
X114932966Y-89126000D01*
X114860328Y-89111551D01*
X114860326Y-89111550D01*
X114860325Y-89111550D01*
X114791897Y-89083207D01*
X114730314Y-89042058D01*
X114677942Y-88989686D01*
X114636793Y-88928103D01*
X114616107Y-88878161D01*
X114604557Y-88856553D01*
X114589011Y-88837611D01*
X114570069Y-88822066D01*
X114548459Y-88810515D01*
X114525010Y-88803402D01*
X114500624Y-88801000D01*
X114439376Y-88801000D01*
X114414990Y-88803402D01*
X114391541Y-88810515D01*
X114369930Y-88822066D01*
X114350988Y-88837611D01*
X114335443Y-88856553D01*
X114323893Y-88878161D01*
X114303207Y-88928103D01*
X114262058Y-88989686D01*
X114209686Y-89042058D01*
X114148103Y-89083207D01*
X114079675Y-89111550D01*
X114079674Y-89111550D01*
X114079672Y-89111551D01*
X114007034Y-89126000D01*
X113932966Y-89126000D01*
X113860328Y-89111551D01*
X113860326Y-89111550D01*
X113860325Y-89111550D01*
X113791897Y-89083207D01*
X113730314Y-89042058D01*
X113677942Y-88989686D01*
X113636793Y-88928103D01*
X113616107Y-88878161D01*
X113604557Y-88856553D01*
X113589011Y-88837611D01*
X113570069Y-88822066D01*
X113548459Y-88810515D01*
X113525010Y-88803402D01*
X113500624Y-88801000D01*
X113439376Y-88801000D01*
X113414990Y-88803402D01*
X113391541Y-88810515D01*
X113369930Y-88822066D01*
X113350988Y-88837611D01*
X113335443Y-88856553D01*
X113323893Y-88878161D01*
X113303207Y-88928103D01*
X113262058Y-88989686D01*
X113209686Y-89042058D01*
X113148103Y-89083207D01*
X113079675Y-89111550D01*
X113079674Y-89111550D01*
X113079672Y-89111551D01*
X113007034Y-89126000D01*
X112932966Y-89126000D01*
X112860328Y-89111551D01*
X112860326Y-89111550D01*
X112860325Y-89111550D01*
X112791897Y-89083207D01*
X112730314Y-89042058D01*
X112677942Y-88989686D01*
X112636793Y-88928103D01*
X112616107Y-88878161D01*
X112604557Y-88856553D01*
X112589011Y-88837611D01*
X112570069Y-88822066D01*
X112548459Y-88810515D01*
X112525010Y-88803402D01*
X112500624Y-88801000D01*
X112439376Y-88801000D01*
X112414990Y-88803402D01*
X112391541Y-88810515D01*
X112369930Y-88822066D01*
X112350988Y-88837611D01*
X112335443Y-88856553D01*
X112323893Y-88878161D01*
X112303207Y-88928103D01*
X112262058Y-88989686D01*
X112209686Y-89042058D01*
X112148103Y-89083207D01*
X112079675Y-89111550D01*
X112079674Y-89111550D01*
X112079672Y-89111551D01*
X112007034Y-89126000D01*
X111932966Y-89126000D01*
X111860328Y-89111551D01*
X111860326Y-89111550D01*
X111860325Y-89111550D01*
X111791897Y-89083207D01*
X111730314Y-89042058D01*
X111677942Y-88989686D01*
X111636793Y-88928103D01*
X111616107Y-88878161D01*
X111604557Y-88856553D01*
X111589011Y-88837611D01*
X111570069Y-88822066D01*
X111548459Y-88810515D01*
X111525010Y-88803402D01*
X111500624Y-88801000D01*
X111439376Y-88801000D01*
X111414990Y-88803402D01*
X111391541Y-88810515D01*
X111369930Y-88822066D01*
X111350988Y-88837611D01*
X111335443Y-88856553D01*
X111323893Y-88878161D01*
X111303207Y-88928103D01*
X111262058Y-88989686D01*
X111209686Y-89042058D01*
X111148103Y-89083207D01*
X111079675Y-89111550D01*
X111079674Y-89111550D01*
X111079672Y-89111551D01*
X111007034Y-89126000D01*
X110932966Y-89126000D01*
X110860328Y-89111551D01*
X110860326Y-89111550D01*
X110860325Y-89111550D01*
X110791897Y-89083207D01*
X110730314Y-89042058D01*
X110677942Y-88989686D01*
X110636793Y-88928103D01*
X110616107Y-88878161D01*
X110604557Y-88856553D01*
X110589011Y-88837611D01*
X110570069Y-88822066D01*
X110548459Y-88810515D01*
X110525010Y-88803402D01*
X110500624Y-88801000D01*
X110439376Y-88801000D01*
X110414990Y-88803402D01*
X110391541Y-88810515D01*
X110369930Y-88822066D01*
X110350988Y-88837611D01*
X110335443Y-88856553D01*
X110323893Y-88878161D01*
X110303207Y-88928103D01*
X110262058Y-88989686D01*
X110209686Y-89042058D01*
X110148103Y-89083207D01*
X110079675Y-89111550D01*
X110079674Y-89111550D01*
X110079672Y-89111551D01*
X110007034Y-89126000D01*
X109932966Y-89126000D01*
X109860328Y-89111551D01*
X109860326Y-89111550D01*
X109860325Y-89111550D01*
X109791897Y-89083207D01*
X109730314Y-89042058D01*
X109677942Y-88989686D01*
X109636793Y-88928103D01*
X109616107Y-88878161D01*
X109604557Y-88856553D01*
X109589011Y-88837611D01*
X109570069Y-88822066D01*
X109548459Y-88810515D01*
X109525010Y-88803402D01*
X109500624Y-88801000D01*
X109439376Y-88801000D01*
X109414990Y-88803402D01*
X109391541Y-88810515D01*
X109369930Y-88822066D01*
X109350988Y-88837611D01*
X109335443Y-88856553D01*
X109323893Y-88878161D01*
X109303207Y-88928103D01*
X109262058Y-88989686D01*
X109209686Y-89042058D01*
X109148103Y-89083207D01*
X109079675Y-89111550D01*
X109079674Y-89111550D01*
X109079672Y-89111551D01*
X109007034Y-89126000D01*
X108932966Y-89126000D01*
X108860328Y-89111551D01*
X108860326Y-89111550D01*
X108860325Y-89111550D01*
X108791897Y-89083207D01*
X108730314Y-89042058D01*
X108677942Y-88989686D01*
X108636793Y-88928103D01*
X108616107Y-88878161D01*
X108604557Y-88856553D01*
X108589011Y-88837611D01*
X108570069Y-88822066D01*
X108548459Y-88810515D01*
X108525010Y-88803402D01*
X108500624Y-88801000D01*
X108439376Y-88801000D01*
X108414990Y-88803402D01*
X108391541Y-88810515D01*
X108369930Y-88822066D01*
X108350988Y-88837611D01*
X108335443Y-88856553D01*
X108323893Y-88878161D01*
X108303207Y-88928103D01*
X108262058Y-88989686D01*
X108209686Y-89042058D01*
X108148103Y-89083207D01*
X108079675Y-89111550D01*
X108079674Y-89111550D01*
X108079672Y-89111551D01*
X108007034Y-89126000D01*
X107932966Y-89126000D01*
X107860328Y-89111551D01*
X107860326Y-89111550D01*
X107860325Y-89111550D01*
X107791897Y-89083207D01*
X107730314Y-89042058D01*
X107677942Y-88989686D01*
X107636793Y-88928103D01*
X107616107Y-88878161D01*
X107604557Y-88856553D01*
X107589011Y-88837611D01*
X107570069Y-88822066D01*
X107548459Y-88810515D01*
X107525010Y-88803402D01*
X107500624Y-88801000D01*
X107439376Y-88801000D01*
X107414990Y-88803402D01*
X107391541Y-88810515D01*
X107369930Y-88822066D01*
X107350988Y-88837611D01*
X107335443Y-88856553D01*
X107323893Y-88878161D01*
X107303207Y-88928103D01*
X107262058Y-88989686D01*
X107209686Y-89042058D01*
X107148103Y-89083207D01*
X107079675Y-89111550D01*
X107079674Y-89111550D01*
X107079672Y-89111551D01*
X107007034Y-89126000D01*
X106932966Y-89126000D01*
X106860328Y-89111551D01*
X106860326Y-89111550D01*
X106860325Y-89111550D01*
X106791897Y-89083207D01*
X106730314Y-89042058D01*
X106677942Y-88989686D01*
X106636793Y-88928103D01*
X106616107Y-88878161D01*
X106604557Y-88856553D01*
X106589011Y-88837611D01*
X106570069Y-88822066D01*
X106548459Y-88810515D01*
X106525010Y-88803402D01*
X106500624Y-88801000D01*
X106439376Y-88801000D01*
X106414990Y-88803402D01*
X106391541Y-88810515D01*
X106369930Y-88822066D01*
X106350988Y-88837611D01*
X106335443Y-88856553D01*
X106323893Y-88878161D01*
X106303207Y-88928103D01*
X106262058Y-88989686D01*
X106209686Y-89042058D01*
X106148103Y-89083207D01*
X106079675Y-89111550D01*
X106079674Y-89111550D01*
X106079672Y-89111551D01*
X106007034Y-89126000D01*
X105932966Y-89126000D01*
X105860328Y-89111551D01*
X105860326Y-89111550D01*
X105860325Y-89111550D01*
X105791897Y-89083207D01*
X105730314Y-89042058D01*
X105677942Y-88989686D01*
X105636793Y-88928103D01*
X105616107Y-88878161D01*
X105604557Y-88856553D01*
X105589011Y-88837611D01*
X105570069Y-88822066D01*
X105548459Y-88810515D01*
X105525010Y-88803402D01*
X105500624Y-88801000D01*
X105439376Y-88801000D01*
X105414990Y-88803402D01*
X105391541Y-88810515D01*
X105369930Y-88822066D01*
X105350988Y-88837611D01*
X105335443Y-88856553D01*
X105323893Y-88878161D01*
X105303207Y-88928103D01*
X105262058Y-88989686D01*
X105209686Y-89042058D01*
X105148103Y-89083207D01*
X105079675Y-89111550D01*
X105079674Y-89111550D01*
X105079672Y-89111551D01*
X105007034Y-89126000D01*
X104932966Y-89126000D01*
X104860328Y-89111551D01*
X104860326Y-89111550D01*
X104860325Y-89111550D01*
X104791897Y-89083207D01*
X104730314Y-89042058D01*
X104677942Y-88989686D01*
X104636793Y-88928103D01*
X104616107Y-88878161D01*
X104604557Y-88856553D01*
X104589011Y-88837611D01*
X104570069Y-88822066D01*
X104548459Y-88810515D01*
X104525010Y-88803402D01*
X104500624Y-88801000D01*
X104439376Y-88801000D01*
X104414990Y-88803402D01*
X104391541Y-88810515D01*
X104369930Y-88822066D01*
X104350988Y-88837611D01*
X104335443Y-88856553D01*
X104323893Y-88878161D01*
X104303207Y-88928103D01*
X104262058Y-88989686D01*
X104209686Y-89042058D01*
X104148103Y-89083207D01*
X104079675Y-89111550D01*
X104079674Y-89111550D01*
X104079672Y-89111551D01*
X104007034Y-89126000D01*
X103932966Y-89126000D01*
X103860328Y-89111551D01*
X103860326Y-89111550D01*
X103860325Y-89111550D01*
X103791897Y-89083207D01*
X103730314Y-89042058D01*
X103677942Y-88989686D01*
X103636793Y-88928103D01*
X103616107Y-88878161D01*
X103604557Y-88856553D01*
X103589011Y-88837611D01*
X103570069Y-88822066D01*
X103548459Y-88810515D01*
X103525010Y-88803402D01*
X103500624Y-88801000D01*
X103439376Y-88801000D01*
X103414990Y-88803402D01*
X103391541Y-88810515D01*
X103369930Y-88822066D01*
X103350988Y-88837611D01*
X103335443Y-88856553D01*
X103323893Y-88878161D01*
X103303207Y-88928103D01*
X103262058Y-88989686D01*
X103209686Y-89042058D01*
X103148103Y-89083207D01*
X103079675Y-89111550D01*
X103079674Y-89111550D01*
X103079672Y-89111551D01*
X103007034Y-89126000D01*
X102932966Y-89126000D01*
X102860328Y-89111551D01*
X102860326Y-89111550D01*
X102860325Y-89111550D01*
X102791897Y-89083207D01*
X102730314Y-89042058D01*
X102677942Y-88989686D01*
X102636793Y-88928103D01*
X102616107Y-88878161D01*
X102604557Y-88856553D01*
X102589011Y-88837611D01*
X102570069Y-88822066D01*
X102548459Y-88810515D01*
X102525010Y-88803402D01*
X102500624Y-88801000D01*
X102439376Y-88801000D01*
X102414990Y-88803402D01*
X102391541Y-88810515D01*
X102369930Y-88822066D01*
X102350988Y-88837611D01*
X102335443Y-88856553D01*
X102323893Y-88878161D01*
X102303207Y-88928103D01*
X102262058Y-88989686D01*
X102209686Y-89042058D01*
X102148103Y-89083207D01*
X102079675Y-89111550D01*
X102079674Y-89111550D01*
X102079672Y-89111551D01*
X102007034Y-89126000D01*
X101932966Y-89126000D01*
X101860328Y-89111551D01*
X101860326Y-89111550D01*
X101860325Y-89111550D01*
X101791897Y-89083207D01*
X101730314Y-89042058D01*
X101677942Y-88989686D01*
X101636793Y-88928103D01*
X101616107Y-88878161D01*
X101604557Y-88856553D01*
X101589011Y-88837611D01*
X101570069Y-88822066D01*
X101548459Y-88810515D01*
X101525010Y-88803402D01*
X101500624Y-88801000D01*
X101439376Y-88801000D01*
X101414990Y-88803402D01*
X101391541Y-88810515D01*
X101369930Y-88822066D01*
X101350988Y-88837611D01*
X101335443Y-88856553D01*
X101323893Y-88878161D01*
X101303207Y-88928103D01*
X101262058Y-88989686D01*
X101209686Y-89042058D01*
X101148103Y-89083207D01*
X101079675Y-89111550D01*
X101079674Y-89111550D01*
X101079672Y-89111551D01*
X101007034Y-89126000D01*
X100932966Y-89126000D01*
X100860328Y-89111551D01*
X100860326Y-89111550D01*
X100860325Y-89111550D01*
X100791897Y-89083207D01*
X100730314Y-89042058D01*
X100677942Y-88989686D01*
X100636793Y-88928103D01*
X100616107Y-88878161D01*
X100604557Y-88856553D01*
X100589011Y-88837611D01*
X100570069Y-88822066D01*
X100548459Y-88810515D01*
X100525010Y-88803402D01*
X100500624Y-88801000D01*
X100439376Y-88801000D01*
X100414990Y-88803402D01*
X100391541Y-88810515D01*
X100369930Y-88822066D01*
X100350988Y-88837611D01*
X100335443Y-88856553D01*
X100323893Y-88878161D01*
X100303207Y-88928103D01*
X100262058Y-88989686D01*
X100209686Y-89042058D01*
X100148103Y-89083207D01*
X100079675Y-89111550D01*
X100079674Y-89111550D01*
X100079672Y-89111551D01*
X100007034Y-89126000D01*
X99932966Y-89126000D01*
X99860328Y-89111551D01*
X99860326Y-89111550D01*
X99860325Y-89111550D01*
X99791897Y-89083207D01*
X99730314Y-89042058D01*
X99677942Y-88989686D01*
X99636793Y-88928103D01*
X99616107Y-88878161D01*
X99604557Y-88856553D01*
X99589011Y-88837611D01*
X99570069Y-88822066D01*
X99548459Y-88810515D01*
X99525010Y-88803402D01*
X99500624Y-88801000D01*
X99439376Y-88801000D01*
X99414990Y-88803402D01*
X99391541Y-88810515D01*
X99369930Y-88822066D01*
X99350988Y-88837611D01*
X99335443Y-88856553D01*
X99323893Y-88878161D01*
X99303207Y-88928103D01*
X99262058Y-88989686D01*
X99209686Y-89042058D01*
X99148103Y-89083207D01*
X99079675Y-89111550D01*
X99079674Y-89111550D01*
X99079672Y-89111551D01*
X99007034Y-89126000D01*
X98932966Y-89126000D01*
X98860328Y-89111551D01*
X98860326Y-89111550D01*
X98860325Y-89111550D01*
X98791897Y-89083207D01*
X98730314Y-89042058D01*
X98677942Y-88989686D01*
X98636793Y-88928103D01*
X98616107Y-88878161D01*
X98604557Y-88856553D01*
X98589011Y-88837611D01*
X98570069Y-88822066D01*
X98548459Y-88810515D01*
X98525010Y-88803402D01*
X98500624Y-88801000D01*
X98439376Y-88801000D01*
X98414990Y-88803402D01*
X98391541Y-88810515D01*
X98369930Y-88822066D01*
X98350988Y-88837611D01*
X98335443Y-88856553D01*
X98323893Y-88878161D01*
X98303207Y-88928103D01*
X98262058Y-88989686D01*
X98209686Y-89042058D01*
X98148103Y-89083207D01*
X98079675Y-89111550D01*
X98079674Y-89111550D01*
X98079672Y-89111551D01*
X98007034Y-89126000D01*
X97932966Y-89126000D01*
X97860328Y-89111551D01*
X97860326Y-89111550D01*
X97860325Y-89111550D01*
X97791897Y-89083207D01*
X97730314Y-89042058D01*
X97677942Y-88989686D01*
X97636793Y-88928103D01*
X97616107Y-88878161D01*
X97604557Y-88856553D01*
X97589011Y-88837611D01*
X97570069Y-88822066D01*
X97548459Y-88810515D01*
X97525010Y-88803402D01*
X97500624Y-88801000D01*
X97439376Y-88801000D01*
X97414990Y-88803402D01*
X97391541Y-88810515D01*
X97369930Y-88822066D01*
X97350988Y-88837611D01*
X97335443Y-88856553D01*
X97323893Y-88878161D01*
X97303207Y-88928103D01*
X97262058Y-88989686D01*
X97209686Y-89042058D01*
X97148103Y-89083207D01*
X97079675Y-89111550D01*
X97079674Y-89111550D01*
X97079672Y-89111551D01*
X97007034Y-89126000D01*
X96932966Y-89126000D01*
X96860328Y-89111551D01*
X96860326Y-89111550D01*
X96860325Y-89111550D01*
X96791897Y-89083207D01*
X96730314Y-89042058D01*
X96677942Y-88989686D01*
X96636793Y-88928103D01*
X96616107Y-88878161D01*
X96604557Y-88856553D01*
X96589011Y-88837611D01*
X96570069Y-88822066D01*
X96548459Y-88810515D01*
X96525010Y-88803402D01*
X96500624Y-88801000D01*
X96439376Y-88801000D01*
X96414990Y-88803402D01*
X96391541Y-88810515D01*
X96369930Y-88822066D01*
X96350988Y-88837611D01*
X96335443Y-88856553D01*
X96323893Y-88878161D01*
X96303207Y-88928103D01*
X96262058Y-88989686D01*
X96209686Y-89042058D01*
X96148103Y-89083207D01*
X96079675Y-89111550D01*
X96079674Y-89111550D01*
X96079672Y-89111551D01*
X96007034Y-89126000D01*
X95932966Y-89126000D01*
X95860328Y-89111551D01*
X95860326Y-89111550D01*
X95860325Y-89111550D01*
X95791897Y-89083207D01*
X95730314Y-89042058D01*
X95677942Y-88989686D01*
X95636793Y-88928103D01*
X95616107Y-88878161D01*
X95604557Y-88856553D01*
X95589011Y-88837611D01*
X95570069Y-88822066D01*
X95548459Y-88810515D01*
X95525010Y-88803402D01*
X95500624Y-88801000D01*
X95439376Y-88801000D01*
X95414990Y-88803402D01*
X95391541Y-88810515D01*
X95369930Y-88822066D01*
X95350988Y-88837611D01*
X95335443Y-88856553D01*
X95323893Y-88878161D01*
X95303207Y-88928103D01*
X95262058Y-88989686D01*
X95209686Y-89042058D01*
X95148103Y-89083207D01*
X95079675Y-89111550D01*
X95079674Y-89111550D01*
X95079672Y-89111551D01*
X95007034Y-89126000D01*
X94932966Y-89126000D01*
X94860328Y-89111551D01*
X94860326Y-89111550D01*
X94860325Y-89111550D01*
X94791897Y-89083207D01*
X94730314Y-89042058D01*
X94677942Y-88989686D01*
X94636793Y-88928103D01*
X94616107Y-88878161D01*
X94604557Y-88856553D01*
X94589011Y-88837611D01*
X94570069Y-88822066D01*
X94548459Y-88810515D01*
X94525010Y-88803402D01*
X94500624Y-88801000D01*
X94439376Y-88801000D01*
X94414990Y-88803402D01*
X94391541Y-88810515D01*
X94369930Y-88822066D01*
X94350988Y-88837611D01*
X94335443Y-88856553D01*
X94323893Y-88878161D01*
X94303207Y-88928103D01*
X94262058Y-88989686D01*
X94209686Y-89042058D01*
X94148103Y-89083207D01*
X94079675Y-89111550D01*
X94079674Y-89111550D01*
X94079672Y-89111551D01*
X94007034Y-89126000D01*
X93932966Y-89126000D01*
X93860328Y-89111551D01*
X93860326Y-89111550D01*
X93860325Y-89111550D01*
X93791897Y-89083207D01*
X93730314Y-89042058D01*
X93677942Y-88989686D01*
X93636793Y-88928103D01*
X93616107Y-88878161D01*
X93604557Y-88856553D01*
X93589011Y-88837611D01*
X93570069Y-88822066D01*
X93548459Y-88810515D01*
X93525010Y-88803402D01*
X93500624Y-88801000D01*
X93439376Y-88801000D01*
X93414990Y-88803402D01*
X93391541Y-88810515D01*
X93369930Y-88822066D01*
X93350988Y-88837611D01*
X93335443Y-88856553D01*
X93323893Y-88878161D01*
X93303207Y-88928103D01*
X93262058Y-88989686D01*
X93209686Y-89042058D01*
X93148103Y-89083207D01*
X93079675Y-89111550D01*
X93079674Y-89111550D01*
X93079672Y-89111551D01*
X93007034Y-89126000D01*
X92932966Y-89126000D01*
X92860328Y-89111551D01*
X92860326Y-89111550D01*
X92860325Y-89111550D01*
X92791897Y-89083207D01*
X92730314Y-89042058D01*
X92677942Y-88989686D01*
X92636793Y-88928103D01*
X92616107Y-88878161D01*
X92604557Y-88856553D01*
X92589011Y-88837611D01*
X92570069Y-88822066D01*
X92548459Y-88810515D01*
X92525010Y-88803402D01*
X92500624Y-88801000D01*
X92439376Y-88801000D01*
X92414990Y-88803402D01*
X92391541Y-88810515D01*
X92369930Y-88822066D01*
X92350988Y-88837611D01*
X92335443Y-88856553D01*
X92323893Y-88878161D01*
X92303207Y-88928103D01*
X92262058Y-88989686D01*
X92209686Y-89042058D01*
X92148103Y-89083207D01*
X92079675Y-89111550D01*
X92079674Y-89111550D01*
X92079672Y-89111551D01*
X92007034Y-89126000D01*
X91932966Y-89126000D01*
X91860328Y-89111551D01*
X91860326Y-89111550D01*
X91860325Y-89111550D01*
X91791897Y-89083207D01*
X91730314Y-89042058D01*
X91677942Y-88989686D01*
X91636793Y-88928103D01*
X91616107Y-88878161D01*
X91604557Y-88856553D01*
X91589011Y-88837611D01*
X91570069Y-88822066D01*
X91548459Y-88810515D01*
X91525010Y-88803402D01*
X91500624Y-88801000D01*
X91439376Y-88801000D01*
X91414990Y-88803402D01*
X91391541Y-88810515D01*
X91369930Y-88822066D01*
X91350988Y-88837611D01*
X91335443Y-88856553D01*
X91323893Y-88878161D01*
X91303207Y-88928103D01*
X91262058Y-88989686D01*
X91209686Y-89042058D01*
X91148103Y-89083207D01*
X91079675Y-89111550D01*
X91079674Y-89111550D01*
X91079672Y-89111551D01*
X91007034Y-89126000D01*
X90932966Y-89126000D01*
X90860328Y-89111551D01*
X90860326Y-89111550D01*
X90860325Y-89111550D01*
X90791897Y-89083207D01*
X90730314Y-89042058D01*
X90677942Y-88989686D01*
X90636793Y-88928103D01*
X90616107Y-88878161D01*
X90604557Y-88856553D01*
X90589011Y-88837611D01*
X90570069Y-88822066D01*
X90548459Y-88810515D01*
X90525010Y-88803402D01*
X90500624Y-88801000D01*
X90439376Y-88801000D01*
X90414990Y-88803402D01*
X90391541Y-88810515D01*
X90369930Y-88822066D01*
X90350988Y-88837611D01*
X90335443Y-88856553D01*
X90323893Y-88878161D01*
X90303207Y-88928103D01*
X90262058Y-88989686D01*
X90209686Y-89042058D01*
X90148103Y-89083207D01*
X90079675Y-89111550D01*
X90079674Y-89111550D01*
X90079672Y-89111551D01*
X90007034Y-89126000D01*
X89932966Y-89126000D01*
X89860328Y-89111551D01*
X89860326Y-89111550D01*
X89860325Y-89111550D01*
X89791897Y-89083207D01*
X89730314Y-89042058D01*
X89677942Y-88989686D01*
X89636793Y-88928103D01*
X89616107Y-88878161D01*
X89604557Y-88856553D01*
X89589011Y-88837611D01*
X89570069Y-88822066D01*
X89548459Y-88810515D01*
X89525010Y-88803402D01*
X89500624Y-88801000D01*
X89439376Y-88801000D01*
X89414990Y-88803402D01*
X89391541Y-88810515D01*
X89369930Y-88822066D01*
X89350988Y-88837611D01*
X89335443Y-88856553D01*
X89323893Y-88878161D01*
X89303207Y-88928103D01*
X89262058Y-88989686D01*
X89209686Y-89042058D01*
X89148103Y-89083207D01*
X89079675Y-89111550D01*
X89079674Y-89111550D01*
X89079672Y-89111551D01*
X89007034Y-89126000D01*
X88932966Y-89126000D01*
X88860328Y-89111551D01*
X88860326Y-89111550D01*
X88860325Y-89111550D01*
X88791897Y-89083207D01*
X88730314Y-89042058D01*
X88677942Y-88989686D01*
X88636793Y-88928103D01*
X88616107Y-88878161D01*
X88604557Y-88856553D01*
X88589011Y-88837611D01*
X88570069Y-88822066D01*
X88548459Y-88810515D01*
X88525010Y-88803402D01*
X88500624Y-88801000D01*
X88439376Y-88801000D01*
X88414990Y-88803402D01*
X88391541Y-88810515D01*
X88369930Y-88822066D01*
X88350988Y-88837611D01*
X88335443Y-88856553D01*
X88323893Y-88878161D01*
X88303207Y-88928103D01*
X88262058Y-88989686D01*
X88209686Y-89042058D01*
X88148103Y-89083207D01*
X88079675Y-89111550D01*
X88079674Y-89111550D01*
X88079672Y-89111551D01*
X88007034Y-89126000D01*
X87932966Y-89126000D01*
X87860328Y-89111551D01*
X87860326Y-89111550D01*
X87860325Y-89111550D01*
X87791897Y-89083207D01*
X87730314Y-89042058D01*
X87677942Y-88989686D01*
X87636793Y-88928103D01*
X87616107Y-88878161D01*
X87604557Y-88856553D01*
X87589011Y-88837611D01*
X87570069Y-88822066D01*
X87548459Y-88810515D01*
X87525010Y-88803402D01*
X87500624Y-88801000D01*
X87439376Y-88801000D01*
X87414990Y-88803402D01*
X87391541Y-88810515D01*
X87369930Y-88822066D01*
X87350988Y-88837611D01*
X87335443Y-88856553D01*
X87323893Y-88878161D01*
X87303207Y-88928103D01*
X87262058Y-88989686D01*
X87209686Y-89042058D01*
X87148103Y-89083207D01*
X87079675Y-89111550D01*
X87079674Y-89111550D01*
X87079672Y-89111551D01*
X87007034Y-89126000D01*
X86932966Y-89126000D01*
X86860328Y-89111551D01*
X86860326Y-89111550D01*
X86860325Y-89111550D01*
X86791897Y-89083207D01*
X86730314Y-89042058D01*
X86677942Y-88989686D01*
X86636793Y-88928103D01*
X86616107Y-88878161D01*
X86604557Y-88856553D01*
X86589011Y-88837611D01*
X86570069Y-88822066D01*
X86548459Y-88810515D01*
X86525010Y-88803402D01*
X86500624Y-88801000D01*
X86439376Y-88801000D01*
X86414990Y-88803402D01*
X86391541Y-88810515D01*
X86369930Y-88822066D01*
X86350988Y-88837611D01*
X86335443Y-88856553D01*
X86323893Y-88878161D01*
X86303207Y-88928103D01*
X86262058Y-88989686D01*
X86209686Y-89042058D01*
X86148103Y-89083207D01*
X86079675Y-89111550D01*
X86079674Y-89111550D01*
X86079672Y-89111551D01*
X86007034Y-89126000D01*
X85932966Y-89126000D01*
X85860328Y-89111551D01*
X85860326Y-89111550D01*
X85860325Y-89111550D01*
X85791897Y-89083207D01*
X85730314Y-89042058D01*
X85677942Y-88989686D01*
X85636793Y-88928103D01*
X85616107Y-88878161D01*
X85604557Y-88856553D01*
X85589011Y-88837611D01*
X85570069Y-88822066D01*
X85548459Y-88810515D01*
X85525010Y-88803402D01*
X85500624Y-88801000D01*
X85439376Y-88801000D01*
X85414990Y-88803402D01*
X85391541Y-88810515D01*
X85369930Y-88822066D01*
X85350988Y-88837611D01*
X85335443Y-88856553D01*
X85323893Y-88878161D01*
X85303207Y-88928103D01*
X85262058Y-88989686D01*
X85209686Y-89042058D01*
X85148103Y-89083207D01*
X85079675Y-89111550D01*
X85079674Y-89111550D01*
X85079672Y-89111551D01*
X85007034Y-89126000D01*
X84932966Y-89126000D01*
X84860328Y-89111551D01*
X84860326Y-89111550D01*
X84860325Y-89111550D01*
X84791897Y-89083207D01*
X84730314Y-89042058D01*
X84677942Y-88989686D01*
X84636793Y-88928103D01*
X84616107Y-88878161D01*
X84604557Y-88856553D01*
X84589011Y-88837611D01*
X84570069Y-88822066D01*
X84548459Y-88810515D01*
X84525010Y-88803402D01*
X84500624Y-88801000D01*
X84439376Y-88801000D01*
X84414990Y-88803402D01*
X84391541Y-88810515D01*
X84369930Y-88822066D01*
X84350988Y-88837611D01*
X84335443Y-88856553D01*
X84323893Y-88878161D01*
X84303207Y-88928103D01*
X84262058Y-88989686D01*
X84209686Y-89042058D01*
X84148103Y-89083207D01*
X84079675Y-89111550D01*
X84079674Y-89111550D01*
X84079672Y-89111551D01*
X84007034Y-89126000D01*
X83932966Y-89126000D01*
X83860328Y-89111551D01*
X83860326Y-89111550D01*
X83860325Y-89111550D01*
X83791897Y-89083207D01*
X83730314Y-89042058D01*
X83677942Y-88989686D01*
X83636793Y-88928103D01*
X83616107Y-88878161D01*
X83604557Y-88856553D01*
X83589011Y-88837611D01*
X83570069Y-88822066D01*
X83548459Y-88810515D01*
X83525010Y-88803402D01*
X83500624Y-88801000D01*
X83439376Y-88801000D01*
X83414990Y-88803402D01*
X83391541Y-88810515D01*
X83369930Y-88822066D01*
X83350988Y-88837611D01*
X83335443Y-88856553D01*
X83323893Y-88878161D01*
X83303207Y-88928103D01*
X83262058Y-88989686D01*
X83209686Y-89042058D01*
X83148103Y-89083207D01*
X83079675Y-89111550D01*
X83079674Y-89111550D01*
X83079672Y-89111551D01*
X83007034Y-89126000D01*
X82932966Y-89126000D01*
X82860328Y-89111551D01*
X82860326Y-89111550D01*
X82860325Y-89111550D01*
X82791897Y-89083207D01*
X82730314Y-89042058D01*
X82677942Y-88989686D01*
X82636793Y-88928103D01*
X82616107Y-88878161D01*
X82604557Y-88856553D01*
X82589011Y-88837611D01*
X82570069Y-88822066D01*
X82548459Y-88810515D01*
X82525010Y-88803402D01*
X82500624Y-88801000D01*
X82439376Y-88801000D01*
X82414990Y-88803402D01*
X82391541Y-88810515D01*
X82369930Y-88822066D01*
X82350988Y-88837611D01*
X82335443Y-88856553D01*
X82323893Y-88878161D01*
X82303207Y-88928103D01*
X82262058Y-88989686D01*
X82209686Y-89042058D01*
X82148103Y-89083207D01*
X82079675Y-89111550D01*
X82079674Y-89111550D01*
X82079672Y-89111551D01*
X82007034Y-89126000D01*
X81932966Y-89126000D01*
X81860328Y-89111551D01*
X81860326Y-89111550D01*
X81860325Y-89111550D01*
X81791897Y-89083207D01*
X81730314Y-89042058D01*
X81677942Y-88989686D01*
X81636793Y-88928103D01*
X81616107Y-88878161D01*
X81604557Y-88856553D01*
X81589011Y-88837611D01*
X81570069Y-88822066D01*
X81548459Y-88810515D01*
X81525010Y-88803402D01*
X81500624Y-88801000D01*
X81439376Y-88801000D01*
X81414990Y-88803402D01*
X81391541Y-88810515D01*
X81369930Y-88822066D01*
X81350988Y-88837611D01*
X81335443Y-88856553D01*
X81323893Y-88878161D01*
X81303207Y-88928103D01*
X81262058Y-88989686D01*
X81209686Y-89042058D01*
X81148103Y-89083207D01*
X81079675Y-89111550D01*
X81079674Y-89111550D01*
X81079672Y-89111551D01*
X81007034Y-89126000D01*
X80932966Y-89126000D01*
X80860328Y-89111551D01*
X80860326Y-89111550D01*
X80860325Y-89111550D01*
X80791897Y-89083207D01*
X80730314Y-89042058D01*
X80677942Y-88989686D01*
X80636793Y-88928103D01*
X80616107Y-88878161D01*
X80604557Y-88856553D01*
X80589011Y-88837611D01*
X80570069Y-88822066D01*
X80548459Y-88810515D01*
X80525010Y-88803402D01*
X80500624Y-88801000D01*
X80439376Y-88801000D01*
X80414990Y-88803402D01*
X80391541Y-88810515D01*
X80369930Y-88822066D01*
X80350988Y-88837611D01*
X80335443Y-88856553D01*
X80323893Y-88878161D01*
X80303207Y-88928103D01*
X80262058Y-88989686D01*
X80209686Y-89042058D01*
X80148103Y-89083207D01*
X80079675Y-89111550D01*
X80079674Y-89111550D01*
X80079672Y-89111551D01*
X80007034Y-89126000D01*
X79932966Y-89126000D01*
X79860328Y-89111551D01*
X79860326Y-89111550D01*
X79860325Y-89111550D01*
X79791897Y-89083207D01*
X79730314Y-89042058D01*
X79677942Y-88989686D01*
X79636793Y-88928103D01*
X79616107Y-88878161D01*
X79604557Y-88856553D01*
X79589011Y-88837611D01*
X79570069Y-88822066D01*
X79548459Y-88810515D01*
X79525010Y-88803402D01*
X79500624Y-88801000D01*
X79439376Y-88801000D01*
X79414990Y-88803402D01*
X79391541Y-88810515D01*
X79369930Y-88822066D01*
X79350988Y-88837611D01*
X79335443Y-88856553D01*
X79323893Y-88878161D01*
X79303207Y-88928103D01*
X79262058Y-88989686D01*
X79209686Y-89042058D01*
X79148103Y-89083207D01*
X79079675Y-89111550D01*
X79079674Y-89111550D01*
X79079672Y-89111551D01*
X79007034Y-89126000D01*
X78932966Y-89126000D01*
X78860328Y-89111551D01*
X78860326Y-89111550D01*
X78860325Y-89111550D01*
X78791897Y-89083207D01*
X78730314Y-89042058D01*
X78677942Y-88989686D01*
X78636793Y-88928103D01*
X78616107Y-88878161D01*
X78604557Y-88856553D01*
X78589011Y-88837611D01*
X78570069Y-88822066D01*
X78548459Y-88810515D01*
X78525010Y-88803402D01*
X78500624Y-88801000D01*
X78439376Y-88801000D01*
X78414990Y-88803402D01*
X78391541Y-88810515D01*
X78369930Y-88822066D01*
X78350988Y-88837611D01*
X78335443Y-88856553D01*
X78323893Y-88878161D01*
X78303207Y-88928103D01*
X78262058Y-88989686D01*
X78209686Y-89042058D01*
X78148103Y-89083207D01*
X78079675Y-89111550D01*
X78079674Y-89111550D01*
X78079672Y-89111551D01*
X78007034Y-89126000D01*
X77932966Y-89126000D01*
X77860328Y-89111551D01*
X77860326Y-89111550D01*
X77860325Y-89111550D01*
X77791897Y-89083207D01*
X77730314Y-89042058D01*
X77677942Y-88989686D01*
X77636793Y-88928103D01*
X77616107Y-88878161D01*
X77604557Y-88856553D01*
X77589011Y-88837611D01*
X77570069Y-88822066D01*
X77548459Y-88810515D01*
X77525010Y-88803402D01*
X77500624Y-88801000D01*
X77439376Y-88801000D01*
X77414990Y-88803402D01*
X77391541Y-88810515D01*
X77369930Y-88822066D01*
X77350988Y-88837611D01*
X77335443Y-88856553D01*
X77323893Y-88878161D01*
X77303207Y-88928103D01*
X77262058Y-88989686D01*
X77209686Y-89042058D01*
X77148103Y-89083207D01*
X77079675Y-89111550D01*
X77079674Y-89111550D01*
X77079672Y-89111551D01*
X77007034Y-89126000D01*
X76932966Y-89126000D01*
X76860328Y-89111551D01*
X76860326Y-89111550D01*
X76860325Y-89111550D01*
X76791897Y-89083207D01*
X76730314Y-89042058D01*
X76677942Y-88989686D01*
X76636793Y-88928103D01*
X76616107Y-88878161D01*
X76604557Y-88856553D01*
X76589011Y-88837611D01*
X76570069Y-88822066D01*
X76548459Y-88810515D01*
X76525010Y-88803402D01*
X76500624Y-88801000D01*
X76439376Y-88801000D01*
X76414990Y-88803402D01*
X76391541Y-88810515D01*
X76369930Y-88822066D01*
X76350988Y-88837611D01*
X76335443Y-88856553D01*
X76323893Y-88878161D01*
X76303207Y-88928103D01*
X76262058Y-88989686D01*
X76209686Y-89042058D01*
X76148103Y-89083207D01*
X76079675Y-89111550D01*
X76079674Y-89111550D01*
X76079672Y-89111551D01*
X76007034Y-89126000D01*
X75932966Y-89126000D01*
X75860328Y-89111551D01*
X75860326Y-89111550D01*
X75860325Y-89111550D01*
X75791897Y-89083207D01*
X75730314Y-89042058D01*
X75677942Y-88989686D01*
X75636793Y-88928103D01*
X75616107Y-88878161D01*
X75604557Y-88856553D01*
X75589011Y-88837611D01*
X75570069Y-88822066D01*
X75548459Y-88810515D01*
X75525010Y-88803402D01*
X75500624Y-88801000D01*
X75439376Y-88801000D01*
X75414990Y-88803402D01*
X75391541Y-88810515D01*
X75369930Y-88822066D01*
X75350988Y-88837611D01*
X75335443Y-88856553D01*
X75323893Y-88878161D01*
X75303207Y-88928103D01*
X75262058Y-88989686D01*
X75209686Y-89042058D01*
X75148103Y-89083207D01*
X75079675Y-89111550D01*
X75079674Y-89111550D01*
X75079672Y-89111551D01*
X75007034Y-89126000D01*
X74932966Y-89126000D01*
X74860328Y-89111551D01*
X74860326Y-89111550D01*
X74860325Y-89111550D01*
X74791897Y-89083207D01*
X74730314Y-89042058D01*
X74677942Y-88989686D01*
X74636793Y-88928103D01*
X74616107Y-88878161D01*
X74604557Y-88856553D01*
X74589011Y-88837611D01*
X74570069Y-88822066D01*
X74548459Y-88810515D01*
X74525010Y-88803402D01*
X74500624Y-88801000D01*
X74439376Y-88801000D01*
X74414990Y-88803402D01*
X74391541Y-88810515D01*
X74369930Y-88822066D01*
X74350988Y-88837611D01*
X74335443Y-88856553D01*
X74323893Y-88878161D01*
X74303207Y-88928103D01*
X74262058Y-88989686D01*
X74209686Y-89042058D01*
X74148103Y-89083207D01*
X74079675Y-89111550D01*
X74079674Y-89111550D01*
X74079672Y-89111551D01*
X74007034Y-89126000D01*
X73932966Y-89126000D01*
X73860328Y-89111551D01*
X73860326Y-89111550D01*
X73860325Y-89111550D01*
X73791897Y-89083207D01*
X73730314Y-89042058D01*
X73677942Y-88989686D01*
X73636793Y-88928103D01*
X73616107Y-88878161D01*
X73604557Y-88856553D01*
X73589011Y-88837611D01*
X73570069Y-88822066D01*
X73548459Y-88810515D01*
X73525010Y-88803402D01*
X73500624Y-88801000D01*
X73439376Y-88801000D01*
X73414990Y-88803402D01*
X73391541Y-88810515D01*
X73369930Y-88822066D01*
X73350988Y-88837611D01*
X73335443Y-88856553D01*
X73323893Y-88878161D01*
X73303207Y-88928103D01*
X73262058Y-88989686D01*
X73209686Y-89042058D01*
X73148103Y-89083207D01*
X73079675Y-89111550D01*
X73079674Y-89111550D01*
X73079672Y-89111551D01*
X73007034Y-89126000D01*
X72932966Y-89126000D01*
X72860328Y-89111551D01*
X72860326Y-89111550D01*
X72860325Y-89111550D01*
X72791897Y-89083207D01*
X72730314Y-89042058D01*
X72677942Y-88989686D01*
X72636793Y-88928103D01*
X72616107Y-88878161D01*
X72604557Y-88856553D01*
X72589011Y-88837611D01*
X72570069Y-88822066D01*
X72548459Y-88810515D01*
X72525010Y-88803402D01*
X72500624Y-88801000D01*
X72439376Y-88801000D01*
X72414990Y-88803402D01*
X72391541Y-88810515D01*
X72369930Y-88822066D01*
X72350988Y-88837611D01*
X72335443Y-88856553D01*
X72323893Y-88878161D01*
X72303207Y-88928103D01*
X72262058Y-88989686D01*
X72209686Y-89042058D01*
X72148103Y-89083207D01*
X72079675Y-89111550D01*
X72079674Y-89111550D01*
X72079672Y-89111551D01*
X72007034Y-89126000D01*
X71932966Y-89126000D01*
X71860328Y-89111551D01*
X71860326Y-89111550D01*
X71860325Y-89111550D01*
X71791897Y-89083207D01*
X71730314Y-89042058D01*
X71677942Y-88989686D01*
X71636793Y-88928103D01*
X71616107Y-88878161D01*
X71604557Y-88856553D01*
X71589011Y-88837611D01*
X71570069Y-88822066D01*
X71548459Y-88810515D01*
X71525010Y-88803402D01*
X71500624Y-88801000D01*
X71439376Y-88801000D01*
X71414990Y-88803402D01*
X71391541Y-88810515D01*
X71369930Y-88822066D01*
X71350988Y-88837611D01*
X71335443Y-88856553D01*
X71323893Y-88878161D01*
X71303207Y-88928103D01*
X71262058Y-88989686D01*
X71209686Y-89042058D01*
X71148103Y-89083207D01*
X71079675Y-89111550D01*
X71079674Y-89111550D01*
X71079672Y-89111551D01*
X71007034Y-89126000D01*
X70932966Y-89126000D01*
X70860328Y-89111551D01*
X70860326Y-89111550D01*
X70860325Y-89111550D01*
X70791897Y-89083207D01*
X70730314Y-89042058D01*
X70677942Y-88989686D01*
X70636793Y-88928103D01*
X70616107Y-88878161D01*
X70604557Y-88856553D01*
X70589011Y-88837611D01*
X70570069Y-88822066D01*
X70548459Y-88810515D01*
X70525010Y-88803402D01*
X70500624Y-88801000D01*
X70439376Y-88801000D01*
X70414990Y-88803402D01*
X70391541Y-88810515D01*
X70369930Y-88822066D01*
X70350988Y-88837611D01*
X70335443Y-88856553D01*
X70323893Y-88878161D01*
X70303207Y-88928103D01*
X70262058Y-88989686D01*
X70209686Y-89042058D01*
X70148103Y-89083207D01*
X70079675Y-89111550D01*
X70079674Y-89111550D01*
X70079672Y-89111551D01*
X70007034Y-89126000D01*
X69932966Y-89126000D01*
X69860328Y-89111551D01*
X69860326Y-89111550D01*
X69860325Y-89111550D01*
X69791897Y-89083207D01*
X69730314Y-89042058D01*
X69677942Y-88989686D01*
X69636793Y-88928103D01*
X69616107Y-88878161D01*
X69604557Y-88856553D01*
X69589011Y-88837611D01*
X69570069Y-88822066D01*
X69548459Y-88810515D01*
X69525010Y-88803402D01*
X69500624Y-88801000D01*
X69439376Y-88801000D01*
X69414990Y-88803402D01*
X69391541Y-88810515D01*
X69369930Y-88822066D01*
X69350988Y-88837611D01*
X69335443Y-88856553D01*
X69323893Y-88878161D01*
X69303207Y-88928103D01*
X69262058Y-88989686D01*
X69209686Y-89042058D01*
X69148103Y-89083207D01*
X69079675Y-89111550D01*
X69079674Y-89111550D01*
X69079672Y-89111551D01*
X69007034Y-89126000D01*
X68932966Y-89126000D01*
X68860328Y-89111551D01*
X68860326Y-89111550D01*
X68860325Y-89111550D01*
X68791897Y-89083207D01*
X68730314Y-89042058D01*
X68677942Y-88989686D01*
X68636793Y-88928103D01*
X68616107Y-88878161D01*
X68604557Y-88856553D01*
X68589011Y-88837611D01*
X68570069Y-88822066D01*
X68548459Y-88810515D01*
X68525010Y-88803402D01*
X68500624Y-88801000D01*
X68439376Y-88801000D01*
X68414990Y-88803402D01*
X68391541Y-88810515D01*
X68369930Y-88822066D01*
X68350988Y-88837611D01*
X68335443Y-88856553D01*
X68323893Y-88878161D01*
X68303207Y-88928103D01*
X68262058Y-88989686D01*
X68209686Y-89042058D01*
X68148103Y-89083207D01*
X68079675Y-89111550D01*
X68079674Y-89111550D01*
X68079672Y-89111551D01*
X68007034Y-89126000D01*
X67932966Y-89126000D01*
X67860328Y-89111551D01*
X67860326Y-89111550D01*
X67860325Y-89111550D01*
X67791897Y-89083207D01*
X67730314Y-89042058D01*
X67677942Y-88989686D01*
X67636793Y-88928103D01*
X67616107Y-88878161D01*
X67604557Y-88856553D01*
X67589011Y-88837611D01*
X67570069Y-88822066D01*
X67548459Y-88810515D01*
X67525010Y-88803402D01*
X67500624Y-88801000D01*
X67439376Y-88801000D01*
X67414990Y-88803402D01*
X67391541Y-88810515D01*
X67369930Y-88822066D01*
X67350988Y-88837611D01*
X67335443Y-88856553D01*
X67323893Y-88878161D01*
X67303207Y-88928103D01*
X67262058Y-88989686D01*
X67209686Y-89042058D01*
X67148103Y-89083207D01*
X67079675Y-89111550D01*
X67079674Y-89111550D01*
X67079672Y-89111551D01*
X67007034Y-89126000D01*
X66932966Y-89126000D01*
X66860328Y-89111551D01*
X66860326Y-89111550D01*
X66860325Y-89111550D01*
X66791897Y-89083207D01*
X66730314Y-89042058D01*
X66677942Y-88989686D01*
X66636793Y-88928103D01*
X66616107Y-88878161D01*
X66604557Y-88856553D01*
X66589011Y-88837611D01*
X66570069Y-88822066D01*
X66548459Y-88810515D01*
X66525010Y-88803402D01*
X66500624Y-88801000D01*
X66439376Y-88801000D01*
X66414990Y-88803402D01*
X66391541Y-88810515D01*
X66369930Y-88822066D01*
X66350988Y-88837611D01*
X66335443Y-88856553D01*
X66323893Y-88878161D01*
X66303207Y-88928103D01*
X66262058Y-88989686D01*
X66209686Y-89042058D01*
X66148103Y-89083207D01*
X66079675Y-89111550D01*
X66079674Y-89111550D01*
X66079672Y-89111551D01*
X66007034Y-89126000D01*
X65932966Y-89126000D01*
X65860328Y-89111551D01*
X65860326Y-89111550D01*
X65860325Y-89111550D01*
X65791897Y-89083207D01*
X65730314Y-89042058D01*
X65677942Y-88989686D01*
X65636793Y-88928103D01*
X65616107Y-88878161D01*
X65604557Y-88856553D01*
X65589011Y-88837611D01*
X65570069Y-88822066D01*
X65548459Y-88810515D01*
X65525010Y-88803402D01*
X65500624Y-88801000D01*
X65439376Y-88801000D01*
X65414990Y-88803402D01*
X65391541Y-88810515D01*
X65369930Y-88822066D01*
X65350988Y-88837611D01*
X65335443Y-88856553D01*
X65323893Y-88878161D01*
X65303207Y-88928103D01*
X65262058Y-88989686D01*
X65209686Y-89042058D01*
X65148103Y-89083207D01*
X65079675Y-89111550D01*
X65079674Y-89111550D01*
X65079672Y-89111551D01*
X65007034Y-89126000D01*
X64932966Y-89126000D01*
X64860328Y-89111551D01*
X64860326Y-89111550D01*
X64860325Y-89111550D01*
X64791897Y-89083207D01*
X64730314Y-89042058D01*
X64677942Y-88989686D01*
X64636793Y-88928103D01*
X64616107Y-88878161D01*
X64604557Y-88856553D01*
X64589011Y-88837611D01*
X64570069Y-88822066D01*
X64548459Y-88810515D01*
X64525010Y-88803402D01*
X64500624Y-88801000D01*
X64439376Y-88801000D01*
X64414990Y-88803402D01*
X64391541Y-88810515D01*
X64369930Y-88822066D01*
X64350988Y-88837611D01*
X64335443Y-88856553D01*
X64323893Y-88878161D01*
X64303207Y-88928103D01*
X64262058Y-88989686D01*
X64209686Y-89042058D01*
X64148103Y-89083207D01*
X64079675Y-89111550D01*
X64079674Y-89111550D01*
X64079672Y-89111551D01*
X64007034Y-89126000D01*
X63932966Y-89126000D01*
X63860328Y-89111551D01*
X63860326Y-89111550D01*
X63860325Y-89111550D01*
X63791897Y-89083207D01*
X63730314Y-89042058D01*
X63677942Y-88989686D01*
X63636793Y-88928103D01*
X63616107Y-88878161D01*
X63604557Y-88856553D01*
X63594000Y-88843690D01*
X63594000Y-84099000D01*
X134346000Y-84099000D01*
X134346000Y-88843689D01*
G37*
G36*
X61346000Y-88843689D02*
G01*
X61335443Y-88856553D01*
X61323893Y-88878161D01*
X61303207Y-88928103D01*
X61262058Y-88989686D01*
X61209686Y-89042058D01*
X61148103Y-89083207D01*
X61079675Y-89111550D01*
X61079674Y-89111550D01*
X61079672Y-89111551D01*
X61007034Y-89126000D01*
X60932966Y-89126000D01*
X60860328Y-89111551D01*
X60860326Y-89111550D01*
X60860325Y-89111550D01*
X60791897Y-89083207D01*
X60730314Y-89042058D01*
X60677942Y-88989686D01*
X60636793Y-88928103D01*
X60616107Y-88878161D01*
X60604557Y-88856553D01*
X60589011Y-88837611D01*
X60570069Y-88822066D01*
X60548459Y-88810515D01*
X60525010Y-88803402D01*
X60500624Y-88801000D01*
X60439376Y-88801000D01*
X60414990Y-88803402D01*
X60391541Y-88810515D01*
X60369930Y-88822066D01*
X60350988Y-88837611D01*
X60335443Y-88856553D01*
X60323893Y-88878161D01*
X60303207Y-88928103D01*
X60262058Y-88989686D01*
X60209686Y-89042058D01*
X60148103Y-89083207D01*
X60079675Y-89111550D01*
X60079674Y-89111550D01*
X60079672Y-89111551D01*
X60007034Y-89126000D01*
X59932966Y-89126000D01*
X59860328Y-89111551D01*
X59860326Y-89111550D01*
X59860325Y-89111550D01*
X59791897Y-89083207D01*
X59730314Y-89042058D01*
X59677942Y-88989686D01*
X59636793Y-88928103D01*
X59616107Y-88878161D01*
X59604557Y-88856553D01*
X59589011Y-88837611D01*
X59570069Y-88822066D01*
X59548459Y-88810515D01*
X59525010Y-88803402D01*
X59500624Y-88801000D01*
X59439376Y-88801000D01*
X59414990Y-88803402D01*
X59391541Y-88810515D01*
X59369930Y-88822066D01*
X59350988Y-88837611D01*
X59335443Y-88856553D01*
X59323893Y-88878161D01*
X59303207Y-88928103D01*
X59262058Y-88989686D01*
X59209686Y-89042058D01*
X59148103Y-89083207D01*
X59079675Y-89111550D01*
X59079674Y-89111550D01*
X59079672Y-89111551D01*
X59007034Y-89126000D01*
X58932966Y-89126000D01*
X58860328Y-89111551D01*
X58860326Y-89111550D01*
X58860325Y-89111550D01*
X58791897Y-89083207D01*
X58730314Y-89042058D01*
X58677942Y-88989686D01*
X58636793Y-88928103D01*
X58616107Y-88878161D01*
X58604557Y-88856553D01*
X58589011Y-88837611D01*
X58570069Y-88822066D01*
X58548459Y-88810515D01*
X58525010Y-88803402D01*
X58500624Y-88801000D01*
X58439376Y-88801000D01*
X58414990Y-88803402D01*
X58391541Y-88810515D01*
X58369930Y-88822066D01*
X58350988Y-88837611D01*
X58335443Y-88856553D01*
X58323893Y-88878161D01*
X58303207Y-88928103D01*
X58262058Y-88989686D01*
X58209686Y-89042058D01*
X58148103Y-89083207D01*
X58079675Y-89111550D01*
X58079674Y-89111550D01*
X58079672Y-89111551D01*
X58007034Y-89126000D01*
X57932966Y-89126000D01*
X57860328Y-89111551D01*
X57860326Y-89111550D01*
X57860325Y-89111550D01*
X57791897Y-89083207D01*
X57730314Y-89042058D01*
X57677942Y-88989686D01*
X57636793Y-88928103D01*
X57616107Y-88878161D01*
X57604557Y-88856553D01*
X57589011Y-88837611D01*
X57570069Y-88822066D01*
X57548459Y-88810515D01*
X57525010Y-88803402D01*
X57500624Y-88801000D01*
X57439376Y-88801000D01*
X57414990Y-88803402D01*
X57391541Y-88810515D01*
X57369930Y-88822066D01*
X57350988Y-88837611D01*
X57335443Y-88856553D01*
X57323893Y-88878161D01*
X57303207Y-88928103D01*
X57262058Y-88989686D01*
X57209686Y-89042058D01*
X57148103Y-89083207D01*
X57079675Y-89111550D01*
X57079674Y-89111550D01*
X57079672Y-89111551D01*
X57007034Y-89126000D01*
X56932966Y-89126000D01*
X56860328Y-89111551D01*
X56860326Y-89111550D01*
X56860325Y-89111550D01*
X56791897Y-89083207D01*
X56730314Y-89042058D01*
X56677942Y-88989686D01*
X56636793Y-88928103D01*
X56616107Y-88878161D01*
X56604557Y-88856553D01*
X56589011Y-88837611D01*
X56570069Y-88822066D01*
X56548459Y-88810515D01*
X56525010Y-88803402D01*
X56500624Y-88801000D01*
X56439376Y-88801000D01*
X56414990Y-88803402D01*
X56391541Y-88810515D01*
X56369930Y-88822066D01*
X56350988Y-88837611D01*
X56335443Y-88856553D01*
X56323893Y-88878161D01*
X56303207Y-88928103D01*
X56262058Y-88989686D01*
X56209686Y-89042058D01*
X56148103Y-89083207D01*
X56079675Y-89111550D01*
X56079674Y-89111550D01*
X56079672Y-89111551D01*
X56007034Y-89126000D01*
X55932966Y-89126000D01*
X55860328Y-89111551D01*
X55860326Y-89111550D01*
X55860325Y-89111550D01*
X55791897Y-89083207D01*
X55730314Y-89042058D01*
X55677942Y-88989686D01*
X55636793Y-88928103D01*
X55616107Y-88878161D01*
X55604557Y-88856553D01*
X55589011Y-88837611D01*
X55570069Y-88822066D01*
X55548459Y-88810515D01*
X55525010Y-88803402D01*
X55500624Y-88801000D01*
X55439376Y-88801000D01*
X55414990Y-88803402D01*
X55391541Y-88810515D01*
X55369930Y-88822066D01*
X55350988Y-88837611D01*
X55335443Y-88856553D01*
X55323893Y-88878161D01*
X55303207Y-88928103D01*
X55262058Y-88989686D01*
X55209686Y-89042058D01*
X55148103Y-89083207D01*
X55079675Y-89111550D01*
X55079674Y-89111550D01*
X55079672Y-89111551D01*
X55007034Y-89126000D01*
X54932966Y-89126000D01*
X54860328Y-89111551D01*
X54860326Y-89111550D01*
X54860325Y-89111550D01*
X54791897Y-89083207D01*
X54730314Y-89042058D01*
X54677942Y-88989686D01*
X54636793Y-88928103D01*
X54616107Y-88878161D01*
X54604557Y-88856553D01*
X54589011Y-88837611D01*
X54570069Y-88822066D01*
X54548459Y-88810515D01*
X54525010Y-88803402D01*
X54500624Y-88801000D01*
X54439376Y-88801000D01*
X54414990Y-88803402D01*
X54391541Y-88810515D01*
X54369930Y-88822066D01*
X54350988Y-88837611D01*
X54335443Y-88856553D01*
X54323893Y-88878161D01*
X54303207Y-88928103D01*
X54262058Y-88989686D01*
X54209686Y-89042058D01*
X54148103Y-89083207D01*
X54079675Y-89111550D01*
X54079674Y-89111550D01*
X54079672Y-89111551D01*
X54007034Y-89126000D01*
X53932966Y-89126000D01*
X53860328Y-89111551D01*
X53860326Y-89111550D01*
X53860325Y-89111550D01*
X53791897Y-89083207D01*
X53730314Y-89042058D01*
X53677942Y-88989686D01*
X53636793Y-88928103D01*
X53616107Y-88878161D01*
X53604557Y-88856553D01*
X53589011Y-88837611D01*
X53570069Y-88822066D01*
X53548459Y-88810515D01*
X53525010Y-88803402D01*
X53500624Y-88801000D01*
X53439376Y-88801000D01*
X53414990Y-88803402D01*
X53391541Y-88810515D01*
X53369930Y-88822066D01*
X53350988Y-88837611D01*
X53335443Y-88856553D01*
X53323893Y-88878161D01*
X53303207Y-88928103D01*
X53262058Y-88989686D01*
X53209686Y-89042058D01*
X53148103Y-89083207D01*
X53079675Y-89111550D01*
X53079674Y-89111550D01*
X53079672Y-89111551D01*
X53007034Y-89126000D01*
X52932966Y-89126000D01*
X52860328Y-89111551D01*
X52860326Y-89111550D01*
X52860325Y-89111550D01*
X52791897Y-89083207D01*
X52730314Y-89042058D01*
X52677942Y-88989686D01*
X52636793Y-88928103D01*
X52616107Y-88878161D01*
X52604557Y-88856553D01*
X52589011Y-88837611D01*
X52570069Y-88822066D01*
X52548459Y-88810515D01*
X52525010Y-88803402D01*
X52500624Y-88801000D01*
X52439376Y-88801000D01*
X52414990Y-88803402D01*
X52391541Y-88810515D01*
X52369930Y-88822066D01*
X52350988Y-88837611D01*
X52335443Y-88856553D01*
X52323893Y-88878161D01*
X52303207Y-88928103D01*
X52262058Y-88989686D01*
X52209686Y-89042058D01*
X52148103Y-89083207D01*
X52079675Y-89111550D01*
X52079674Y-89111550D01*
X52079672Y-89111551D01*
X52007034Y-89126000D01*
X51932966Y-89126000D01*
X51860328Y-89111551D01*
X51860326Y-89111550D01*
X51860325Y-89111550D01*
X51791897Y-89083207D01*
X51730314Y-89042058D01*
X51677942Y-88989686D01*
X51636793Y-88928103D01*
X51616107Y-88878161D01*
X51604557Y-88856553D01*
X51589011Y-88837611D01*
X51570069Y-88822066D01*
X51548459Y-88810515D01*
X51525010Y-88803402D01*
X51500624Y-88801000D01*
X51439376Y-88801000D01*
X51414990Y-88803402D01*
X51391541Y-88810515D01*
X51369930Y-88822066D01*
X51350988Y-88837611D01*
X51335443Y-88856553D01*
X51323893Y-88878161D01*
X51303207Y-88928103D01*
X51262058Y-88989686D01*
X51209686Y-89042058D01*
X51148103Y-89083207D01*
X51079675Y-89111550D01*
X51079674Y-89111550D01*
X51079672Y-89111551D01*
X51007034Y-89126000D01*
X50932966Y-89126000D01*
X50860328Y-89111551D01*
X50860326Y-89111550D01*
X50860325Y-89111550D01*
X50791897Y-89083207D01*
X50730314Y-89042058D01*
X50677942Y-88989686D01*
X50636793Y-88928103D01*
X50616107Y-88878161D01*
X50604557Y-88856553D01*
X50594000Y-88843690D01*
X50594000Y-84099000D01*
X61346000Y-84099000D01*
X61346000Y-88843689D01*
G37*
G36*
X129824987Y-48406205D02*
G01*
X129824987Y-48406208D01*
X129776727Y-70991674D01*
X129750000Y-83500000D01*
X104750000Y-83500000D01*
X104750000Y-81000000D01*
X126375290Y-81000000D01*
X126399676Y-80997598D01*
X126423125Y-80990485D01*
X126444736Y-80978934D01*
X126463678Y-80963389D01*
X126479223Y-80944447D01*
X126490774Y-80922836D01*
X126497887Y-80899387D01*
X126500289Y-80875291D01*
X126544169Y-61973000D01*
X126565811Y-52650000D01*
X127075001Y-52650000D01*
X127099387Y-52647598D01*
X127122836Y-52640485D01*
X127144447Y-52628934D01*
X127163389Y-52613389D01*
X127178934Y-52594447D01*
X127190485Y-52572836D01*
X127197598Y-52549387D01*
X127200000Y-52525001D01*
X127200000Y-51124999D01*
X127197598Y-51100613D01*
X127190485Y-51077164D01*
X127178934Y-51055553D01*
X127163389Y-51036611D01*
X127144447Y-51021066D01*
X127122836Y-51009515D01*
X127099387Y-51002402D01*
X127075001Y-51000000D01*
X126600000Y-51000000D01*
X126575000Y-48400000D01*
X129825000Y-48400000D01*
X129824987Y-48406205D01*
G37*
G36*
X124755891Y-78978085D02*
G01*
X124789869Y-78988393D01*
X124821190Y-79005134D01*
X124848639Y-79027661D01*
X124871166Y-79055110D01*
X124887907Y-79086431D01*
X124898215Y-79120409D01*
X124902300Y-79161890D01*
X124902300Y-79838110D01*
X124898215Y-79879591D01*
X124887907Y-79913569D01*
X124871166Y-79944890D01*
X124848639Y-79972339D01*
X124821190Y-79994866D01*
X124789869Y-80011607D01*
X124755891Y-80021915D01*
X124714410Y-80026000D01*
X124113190Y-80026000D01*
X124071709Y-80021915D01*
X124037731Y-80011607D01*
X124006410Y-79994866D01*
X123978961Y-79972339D01*
X123956434Y-79944890D01*
X123939693Y-79913569D01*
X123929385Y-79879591D01*
X123925300Y-79838110D01*
X123925300Y-79161890D01*
X123929385Y-79120409D01*
X123939693Y-79086431D01*
X123956434Y-79055110D01*
X123978961Y-79027661D01*
X124006410Y-79005134D01*
X124037731Y-78988393D01*
X124071709Y-78978085D01*
X124113190Y-78974000D01*
X124714410Y-78974000D01*
X124755891Y-78978085D01*
G37*
G36*
X123180891Y-78978085D02*
G01*
X123214869Y-78988393D01*
X123246190Y-79005134D01*
X123273639Y-79027661D01*
X123296166Y-79055110D01*
X123312907Y-79086431D01*
X123323215Y-79120409D01*
X123327300Y-79161890D01*
X123327300Y-79838110D01*
X123323215Y-79879591D01*
X123312907Y-79913569D01*
X123296166Y-79944890D01*
X123273639Y-79972339D01*
X123246190Y-79994866D01*
X123214869Y-80011607D01*
X123180891Y-80021915D01*
X123139410Y-80026000D01*
X122538190Y-80026000D01*
X122496709Y-80021915D01*
X122462731Y-80011607D01*
X122431410Y-79994866D01*
X122403961Y-79972339D01*
X122381434Y-79944890D01*
X122364693Y-79913569D01*
X122354385Y-79879591D01*
X122350300Y-79838110D01*
X122350300Y-79161890D01*
X122354385Y-79120409D01*
X122364693Y-79086431D01*
X122381434Y-79055110D01*
X122403961Y-79027661D01*
X122431410Y-79005134D01*
X122462731Y-78988393D01*
X122496709Y-78978085D01*
X122538190Y-78974000D01*
X123139410Y-78974000D01*
X123180891Y-78978085D01*
G37*
G36*
X58384468Y-78603565D02*
G01*
X58423138Y-78615296D01*
X58458777Y-78634346D01*
X58490017Y-78659983D01*
X58515654Y-78691223D01*
X58534704Y-78726862D01*
X58546435Y-78765532D01*
X58551000Y-78811888D01*
X58551000Y-79463112D01*
X58546435Y-79509468D01*
X58534704Y-79548138D01*
X58515654Y-79583777D01*
X58490017Y-79615017D01*
X58458777Y-79640654D01*
X58423138Y-79659704D01*
X58384468Y-79671435D01*
X58338112Y-79676000D01*
X57261888Y-79676000D01*
X57215532Y-79671435D01*
X57176862Y-79659704D01*
X57141223Y-79640654D01*
X57109983Y-79615017D01*
X57084346Y-79583777D01*
X57065296Y-79548138D01*
X57053565Y-79509468D01*
X57049000Y-79463112D01*
X57049000Y-78811888D01*
X57053565Y-78765532D01*
X57065296Y-78726862D01*
X57084346Y-78691223D01*
X57109983Y-78659983D01*
X57141223Y-78634346D01*
X57176862Y-78615296D01*
X57215532Y-78603565D01*
X57261888Y-78599000D01*
X58338112Y-78599000D01*
X58384468Y-78603565D01*
G37*
G36*
X102754591Y-78278085D02*
G01*
X102788569Y-78288393D01*
X102819890Y-78305134D01*
X102847339Y-78327661D01*
X102869866Y-78355110D01*
X102886607Y-78386431D01*
X102896915Y-78420409D01*
X102901000Y-78461890D01*
X102901000Y-79138110D01*
X102896915Y-79179591D01*
X102886607Y-79213569D01*
X102869866Y-79244890D01*
X102847339Y-79272339D01*
X102819890Y-79294866D01*
X102788569Y-79311607D01*
X102754591Y-79321915D01*
X102713110Y-79326000D01*
X102111890Y-79326000D01*
X102070409Y-79321915D01*
X102036431Y-79311607D01*
X102005110Y-79294866D01*
X101977661Y-79272339D01*
X101955134Y-79244890D01*
X101938393Y-79213569D01*
X101928085Y-79179591D01*
X101924000Y-79138110D01*
X101924000Y-78461890D01*
X101928085Y-78420409D01*
X101938393Y-78386431D01*
X101955134Y-78355110D01*
X101977661Y-78327661D01*
X102005110Y-78305134D01*
X102036431Y-78288393D01*
X102070409Y-78278085D01*
X102111890Y-78274000D01*
X102713110Y-78274000D01*
X102754591Y-78278085D01*
G37*
G36*
X104329591Y-78278085D02*
G01*
X104363569Y-78288393D01*
X104394890Y-78305134D01*
X104422339Y-78327661D01*
X104444866Y-78355110D01*
X104461607Y-78386431D01*
X104471915Y-78420409D01*
X104476000Y-78461890D01*
X104476000Y-79138110D01*
X104471915Y-79179591D01*
X104461607Y-79213569D01*
X104444866Y-79244890D01*
X104422339Y-79272339D01*
X104394890Y-79294866D01*
X104363569Y-79311607D01*
X104329591Y-79321915D01*
X104288110Y-79326000D01*
X103686890Y-79326000D01*
X103645409Y-79321915D01*
X103611431Y-79311607D01*
X103580110Y-79294866D01*
X103552661Y-79272339D01*
X103530134Y-79244890D01*
X103513393Y-79213569D01*
X103503085Y-79179591D01*
X103499000Y-79138110D01*
X103499000Y-78461890D01*
X103503085Y-78420409D01*
X103513393Y-78386431D01*
X103530134Y-78355110D01*
X103552661Y-78327661D01*
X103580110Y-78305134D01*
X103611431Y-78288393D01*
X103645409Y-78278085D01*
X103686890Y-78274000D01*
X104288110Y-78274000D01*
X104329591Y-78278085D01*
G37*
G36*
X71690591Y-76978085D02*
G01*
X71724569Y-76988393D01*
X71755890Y-77005134D01*
X71783339Y-77027661D01*
X71805866Y-77055110D01*
X71822607Y-77086431D01*
X71832915Y-77120409D01*
X71837000Y-77161890D01*
X71837000Y-77838110D01*
X71832915Y-77879591D01*
X71822607Y-77913569D01*
X71805866Y-77944890D01*
X71783339Y-77972339D01*
X71755890Y-77994866D01*
X71724569Y-78011607D01*
X71690591Y-78021915D01*
X71649110Y-78026000D01*
X71047890Y-78026000D01*
X71006409Y-78021915D01*
X70972431Y-78011607D01*
X70941110Y-77994866D01*
X70913661Y-77972339D01*
X70891134Y-77944890D01*
X70874393Y-77913569D01*
X70864085Y-77879591D01*
X70860000Y-77838110D01*
X70860000Y-77161890D01*
X70864085Y-77120409D01*
X70874393Y-77086431D01*
X70891134Y-77055110D01*
X70913661Y-77027661D01*
X70941110Y-77005134D01*
X70972431Y-76988393D01*
X71006409Y-76978085D01*
X71047890Y-76974000D01*
X71649110Y-76974000D01*
X71690591Y-76978085D01*
G37*
G36*
X73265591Y-76978085D02*
G01*
X73299569Y-76988393D01*
X73330890Y-77005134D01*
X73358339Y-77027661D01*
X73380866Y-77055110D01*
X73397607Y-77086431D01*
X73407915Y-77120409D01*
X73412000Y-77161890D01*
X73412000Y-77838110D01*
X73407915Y-77879591D01*
X73397607Y-77913569D01*
X73380866Y-77944890D01*
X73358339Y-77972339D01*
X73330890Y-77994866D01*
X73299569Y-78011607D01*
X73265591Y-78021915D01*
X73224110Y-78026000D01*
X72622890Y-78026000D01*
X72581409Y-78021915D01*
X72547431Y-78011607D01*
X72516110Y-77994866D01*
X72488661Y-77972339D01*
X72466134Y-77944890D01*
X72449393Y-77913569D01*
X72439085Y-77879591D01*
X72435000Y-77838110D01*
X72435000Y-77161890D01*
X72439085Y-77120409D01*
X72449393Y-77086431D01*
X72466134Y-77055110D01*
X72488661Y-77027661D01*
X72516110Y-77005134D01*
X72547431Y-76988393D01*
X72581409Y-76978085D01*
X72622890Y-76974000D01*
X73224110Y-76974000D01*
X73265591Y-76978085D01*
G37*
G36*
X62451000Y-78001000D02*
G01*
X60349000Y-78001000D01*
X60349000Y-76399000D01*
X62451000Y-76399000D01*
X62451000Y-78001000D01*
G37*
G36*
X58384468Y-76728565D02*
G01*
X58423138Y-76740296D01*
X58458777Y-76759346D01*
X58490017Y-76784983D01*
X58515654Y-76816223D01*
X58534704Y-76851862D01*
X58546435Y-76890532D01*
X58551000Y-76936888D01*
X58551000Y-77588112D01*
X58546435Y-77634468D01*
X58534704Y-77673138D01*
X58515654Y-77708777D01*
X58490017Y-77740017D01*
X58458777Y-77765654D01*
X58423138Y-77784704D01*
X58384468Y-77796435D01*
X58338112Y-77801000D01*
X57261888Y-77801000D01*
X57215532Y-77796435D01*
X57176862Y-77784704D01*
X57141223Y-77765654D01*
X57109983Y-77740017D01*
X57084346Y-77708777D01*
X57065296Y-77673138D01*
X57053565Y-77634468D01*
X57049000Y-77588112D01*
X57049000Y-76936888D01*
X57053565Y-76890532D01*
X57065296Y-76851862D01*
X57084346Y-76816223D01*
X57109983Y-76784983D01*
X57141223Y-76759346D01*
X57176862Y-76740296D01*
X57215532Y-76728565D01*
X57261888Y-76724000D01*
X58338112Y-76724000D01*
X58384468Y-76728565D01*
G37*
G36*
X108628571Y-76152863D02*
G01*
X108707023Y-76160590D01*
X108807682Y-76191125D01*
X108858013Y-76206392D01*
X108997165Y-76280771D01*
X109119133Y-76380867D01*
X109219229Y-76502835D01*
X109293608Y-76641987D01*
X109293608Y-76641988D01*
X109339410Y-76792977D01*
X109354875Y-76950000D01*
X109339410Y-77107023D01*
X109335349Y-77120409D01*
X109293608Y-77258013D01*
X109219229Y-77397165D01*
X109119133Y-77519133D01*
X108997165Y-77619229D01*
X108858013Y-77693608D01*
X108807682Y-77708875D01*
X108707023Y-77739410D01*
X108628571Y-77747137D01*
X108589346Y-77751000D01*
X107210654Y-77751000D01*
X107171429Y-77747137D01*
X107092977Y-77739410D01*
X106992318Y-77708875D01*
X106941987Y-77693608D01*
X106802835Y-77619229D01*
X106680867Y-77519133D01*
X106580771Y-77397165D01*
X106506392Y-77258013D01*
X106464651Y-77120409D01*
X106460590Y-77107023D01*
X106445125Y-76950000D01*
X106460590Y-76792977D01*
X106506392Y-76641988D01*
X106506392Y-76641987D01*
X106580771Y-76502835D01*
X106680867Y-76380867D01*
X106802835Y-76280771D01*
X106941987Y-76206392D01*
X106992318Y-76191125D01*
X107092977Y-76160590D01*
X107171429Y-76152863D01*
X107210654Y-76149000D01*
X108589346Y-76149000D01*
X108628571Y-76152863D01*
G37*
G36*
X120628571Y-76152863D02*
G01*
X120707023Y-76160590D01*
X120807682Y-76191125D01*
X120858013Y-76206392D01*
X120997165Y-76280771D01*
X121119133Y-76380867D01*
X121219229Y-76502835D01*
X121293608Y-76641987D01*
X121293608Y-76641988D01*
X121339410Y-76792977D01*
X121354875Y-76950000D01*
X121339410Y-77107023D01*
X121335349Y-77120409D01*
X121293608Y-77258013D01*
X121219229Y-77397165D01*
X121119133Y-77519133D01*
X120997165Y-77619229D01*
X120858013Y-77693608D01*
X120807682Y-77708875D01*
X120707023Y-77739410D01*
X120628571Y-77747137D01*
X120589346Y-77751000D01*
X119210654Y-77751000D01*
X119171429Y-77747137D01*
X119092977Y-77739410D01*
X118992318Y-77708875D01*
X118941987Y-77693608D01*
X118802835Y-77619229D01*
X118680867Y-77519133D01*
X118580771Y-77397165D01*
X118506392Y-77258013D01*
X118464651Y-77120409D01*
X118460590Y-77107023D01*
X118445125Y-76950000D01*
X118460590Y-76792977D01*
X118506392Y-76641988D01*
X118506392Y-76641987D01*
X118580771Y-76502835D01*
X118680867Y-76380867D01*
X118802835Y-76280771D01*
X118941987Y-76206392D01*
X118992318Y-76191125D01*
X119092977Y-76160590D01*
X119171429Y-76152863D01*
X119210654Y-76149000D01*
X120589346Y-76149000D01*
X120628571Y-76152863D01*
G37*
G36*
X84498500Y-77653000D02*
G01*
X82921500Y-77653000D01*
X82921500Y-68651000D01*
X84498500Y-68651000D01*
X84498500Y-77653000D01*
G37*
G36*
X78622500Y-77653000D02*
G01*
X77045500Y-77653000D01*
X77045500Y-68651000D01*
X78622500Y-68651000D01*
X78622500Y-77653000D01*
G37*
G36*
X89222468Y-76266065D02*
G01*
X89261138Y-76277796D01*
X89296777Y-76296846D01*
X89328017Y-76322483D01*
X89353654Y-76353723D01*
X89372704Y-76389362D01*
X89384435Y-76428032D01*
X89389000Y-76474388D01*
X89389000Y-77125612D01*
X89384435Y-77171968D01*
X89372704Y-77210638D01*
X89353654Y-77246277D01*
X89328017Y-77277517D01*
X89296777Y-77303154D01*
X89261138Y-77322204D01*
X89222468Y-77333935D01*
X89176112Y-77338500D01*
X88099888Y-77338500D01*
X88053532Y-77333935D01*
X88014862Y-77322204D01*
X87979223Y-77303154D01*
X87947983Y-77277517D01*
X87922346Y-77246277D01*
X87903296Y-77210638D01*
X87891565Y-77171968D01*
X87887000Y-77125612D01*
X87887000Y-76474388D01*
X87891565Y-76428032D01*
X87903296Y-76389362D01*
X87922346Y-76353723D01*
X87947983Y-76322483D01*
X87979223Y-76296846D01*
X88014862Y-76277796D01*
X88053532Y-76266065D01*
X88099888Y-76261500D01*
X89176112Y-76261500D01*
X89222468Y-76266065D01*
G37*
G36*
X68751000Y-76851000D02*
G01*
X66649000Y-76851000D01*
X66649000Y-72949000D01*
X68751000Y-72949000D01*
X68751000Y-76851000D01*
G37*
G36*
X118500000Y-73000000D02*
G01*
X116545138Y-73000000D01*
X116520752Y-73002402D01*
X116497303Y-73009515D01*
X116475692Y-73021066D01*
X116456750Y-73036611D01*
X116441205Y-73055553D01*
X116429654Y-73077164D01*
X116422541Y-73100613D01*
X116420139Y-73124999D01*
X116422541Y-73149383D01*
X116501000Y-73543824D01*
X116501000Y-74056176D01*
X116401045Y-74558684D01*
X116360839Y-74655750D01*
X116204977Y-75032034D01*
X116125486Y-75151000D01*
X115920329Y-75458041D01*
X115558041Y-75820329D01*
X115273393Y-76010524D01*
X115132034Y-76104977D01*
X114887196Y-76206392D01*
X114658684Y-76301045D01*
X114461029Y-76340361D01*
X114156177Y-76401000D01*
X113643823Y-76401000D01*
X113338971Y-76340361D01*
X113141316Y-76301045D01*
X112912804Y-76206392D01*
X112667966Y-76104977D01*
X112526607Y-76010524D01*
X112241959Y-75820329D01*
X111879671Y-75458041D01*
X111674514Y-75151000D01*
X111595023Y-75032034D01*
X111439161Y-74655750D01*
X111398955Y-74558684D01*
X111299000Y-74056176D01*
X111299000Y-73543824D01*
X111377459Y-73149383D01*
X111379861Y-73124999D01*
X111377459Y-73100613D01*
X111370346Y-73077164D01*
X111358795Y-73055553D01*
X111343250Y-73036611D01*
X111324308Y-73021066D01*
X111302697Y-73009515D01*
X111279248Y-73002402D01*
X111254862Y-73000000D01*
X106000000Y-73000000D01*
X106000000Y-70500000D01*
X118500000Y-70500000D01*
X118500000Y-73000000D01*
G37*
G36*
X82323000Y-75703000D02*
G01*
X79221000Y-75703000D01*
X79221000Y-70601000D01*
X82323000Y-70601000D01*
X82323000Y-75703000D01*
G37*
G36*
X62451000Y-75701000D02*
G01*
X60349000Y-75701000D01*
X60349000Y-74099000D01*
X62451000Y-74099000D01*
X62451000Y-75701000D01*
G37*
G36*
X89222468Y-74391065D02*
G01*
X89261138Y-74402796D01*
X89296777Y-74421846D01*
X89328017Y-74447483D01*
X89353654Y-74478723D01*
X89372704Y-74514362D01*
X89384435Y-74553032D01*
X89389000Y-74599388D01*
X89389000Y-75250612D01*
X89384435Y-75296968D01*
X89372704Y-75335638D01*
X89353654Y-75371277D01*
X89328017Y-75402517D01*
X89296777Y-75428154D01*
X89261138Y-75447204D01*
X89222468Y-75458935D01*
X89176112Y-75463500D01*
X88099888Y-75463500D01*
X88053532Y-75458935D01*
X88014862Y-75447204D01*
X87979223Y-75428154D01*
X87947983Y-75402517D01*
X87922346Y-75371277D01*
X87903296Y-75335638D01*
X87891565Y-75296968D01*
X87887000Y-75250612D01*
X87887000Y-74599388D01*
X87891565Y-74553032D01*
X87903296Y-74514362D01*
X87922346Y-74478723D01*
X87947983Y-74447483D01*
X87979223Y-74421846D01*
X88014862Y-74402796D01*
X88053532Y-74391065D01*
X88099888Y-74386500D01*
X89176112Y-74386500D01*
X89222468Y-74391065D01*
G37*
G36*
X73265591Y-74228085D02*
G01*
X73299569Y-74238393D01*
X73330890Y-74255134D01*
X73358339Y-74277661D01*
X73380866Y-74305110D01*
X73397607Y-74336431D01*
X73407915Y-74370409D01*
X73412000Y-74411890D01*
X73412000Y-75088110D01*
X73407915Y-75129591D01*
X73397607Y-75163569D01*
X73380866Y-75194890D01*
X73358339Y-75222339D01*
X73330890Y-75244866D01*
X73299569Y-75261607D01*
X73265591Y-75271915D01*
X73224110Y-75276000D01*
X72622890Y-75276000D01*
X72581409Y-75271915D01*
X72547431Y-75261607D01*
X72516110Y-75244866D01*
X72488661Y-75222339D01*
X72466134Y-75194890D01*
X72449393Y-75163569D01*
X72439085Y-75129591D01*
X72435000Y-75088110D01*
X72435000Y-74411890D01*
X72439085Y-74370409D01*
X72449393Y-74336431D01*
X72466134Y-74305110D01*
X72488661Y-74277661D01*
X72516110Y-74255134D01*
X72547431Y-74238393D01*
X72581409Y-74228085D01*
X72622890Y-74224000D01*
X73224110Y-74224000D01*
X73265591Y-74228085D01*
G37*
G36*
X71690591Y-74228085D02*
G01*
X71724569Y-74238393D01*
X71755890Y-74255134D01*
X71783339Y-74277661D01*
X71805866Y-74305110D01*
X71822607Y-74336431D01*
X71832915Y-74370409D01*
X71837000Y-74411890D01*
X71837000Y-75088110D01*
X71832915Y-75129591D01*
X71822607Y-75163569D01*
X71805866Y-75194890D01*
X71783339Y-75222339D01*
X71755890Y-75244866D01*
X71724569Y-75261607D01*
X71690591Y-75271915D01*
X71649110Y-75276000D01*
X71047890Y-75276000D01*
X71006409Y-75271915D01*
X70972431Y-75261607D01*
X70941110Y-75244866D01*
X70913661Y-75222339D01*
X70891134Y-75194890D01*
X70874393Y-75163569D01*
X70864085Y-75129591D01*
X70860000Y-75088110D01*
X70860000Y-74411890D01*
X70864085Y-74370409D01*
X70874393Y-74336431D01*
X70891134Y-74305110D01*
X70913661Y-74277661D01*
X70941110Y-74255134D01*
X70972431Y-74238393D01*
X71006409Y-74228085D01*
X71047890Y-74224000D01*
X71649110Y-74224000D01*
X71690591Y-74228085D01*
G37*
G36*
X58384468Y-72866065D02*
G01*
X58423138Y-72877796D01*
X58458777Y-72896846D01*
X58490017Y-72922483D01*
X58515654Y-72953723D01*
X58534704Y-72989362D01*
X58546435Y-73028032D01*
X58551000Y-73074388D01*
X58551000Y-73725612D01*
X58546435Y-73771968D01*
X58534704Y-73810638D01*
X58515654Y-73846277D01*
X58490017Y-73877517D01*
X58458777Y-73903154D01*
X58423138Y-73922204D01*
X58384468Y-73933935D01*
X58338112Y-73938500D01*
X57261888Y-73938500D01*
X57215532Y-73933935D01*
X57176862Y-73922204D01*
X57141223Y-73903154D01*
X57109983Y-73877517D01*
X57084346Y-73846277D01*
X57065296Y-73810638D01*
X57053565Y-73771968D01*
X57049000Y-73725612D01*
X57049000Y-73074388D01*
X57053565Y-73028032D01*
X57065296Y-72989362D01*
X57084346Y-72953723D01*
X57109983Y-72922483D01*
X57141223Y-72896846D01*
X57176862Y-72877796D01*
X57215532Y-72866065D01*
X57261888Y-72861500D01*
X58338112Y-72861500D01*
X58384468Y-72866065D01*
G37*
G36*
X62451000Y-73401000D02*
G01*
X60349000Y-73401000D01*
X60349000Y-71799000D01*
X62451000Y-71799000D01*
X62451000Y-73401000D01*
G37*
G36*
X124091000Y-72885500D02*
G01*
X122589000Y-72885500D01*
X122589000Y-72515999D01*
X122586598Y-72491613D01*
X122579485Y-72468164D01*
X122567934Y-72446553D01*
X122552389Y-72427611D01*
X122533447Y-72412066D01*
X122511836Y-72400515D01*
X122488387Y-72393402D01*
X122464001Y-72391000D01*
X121915999Y-72391000D01*
X121891613Y-72393402D01*
X121868164Y-72400515D01*
X121846553Y-72412066D01*
X121827611Y-72427611D01*
X121812066Y-72446553D01*
X121800515Y-72468164D01*
X121793402Y-72491613D01*
X121791000Y-72515999D01*
X121791000Y-72885500D01*
X120289000Y-72885500D01*
X120289000Y-72515999D01*
X120286598Y-72491613D01*
X120279485Y-72468164D01*
X120267934Y-72446553D01*
X120252389Y-72427611D01*
X120233447Y-72412066D01*
X120211836Y-72400515D01*
X120188387Y-72393402D01*
X120164001Y-72391000D01*
X119149000Y-72391000D01*
X119149000Y-71539000D01*
X119584001Y-71539000D01*
X119608387Y-71536598D01*
X119631836Y-71529485D01*
X119653447Y-71517934D01*
X119672389Y-71502389D01*
X119687934Y-71483447D01*
X119699485Y-71461836D01*
X119706598Y-71438387D01*
X119709000Y-71414001D01*
X119709000Y-71185999D01*
X119706598Y-71161613D01*
X119699485Y-71138164D01*
X119687934Y-71116553D01*
X119672389Y-71097611D01*
X119653447Y-71082066D01*
X119631836Y-71070515D01*
X119608387Y-71063402D01*
X119584001Y-71061000D01*
X119149000Y-71061000D01*
X119149000Y-70209000D01*
X124091000Y-70209000D01*
X124091000Y-72885500D01*
G37*
G36*
X103694000Y-72825500D02*
G01*
X102192000Y-72825500D01*
X102192000Y-72455999D01*
X102189598Y-72431613D01*
X102182485Y-72408164D01*
X102170934Y-72386553D01*
X102155389Y-72367611D01*
X102136447Y-72352066D01*
X102114836Y-72340515D01*
X102091387Y-72333402D01*
X102067001Y-72331000D01*
X101518999Y-72331000D01*
X101494613Y-72333402D01*
X101471164Y-72340515D01*
X101449553Y-72352066D01*
X101430611Y-72367611D01*
X101415066Y-72386553D01*
X101403515Y-72408164D01*
X101396402Y-72431613D01*
X101394000Y-72455999D01*
X101394000Y-72825500D01*
X99892000Y-72825500D01*
X99892000Y-72455999D01*
X99889598Y-72431613D01*
X99882485Y-72408164D01*
X99870934Y-72386553D01*
X99855389Y-72367611D01*
X99836447Y-72352066D01*
X99814836Y-72340515D01*
X99791387Y-72333402D01*
X99767001Y-72331000D01*
X98752000Y-72331000D01*
X98752000Y-71479000D01*
X99187001Y-71479000D01*
X99211387Y-71476598D01*
X99234836Y-71469485D01*
X99256447Y-71457934D01*
X99275389Y-71442389D01*
X99290934Y-71423447D01*
X99302485Y-71401836D01*
X99309598Y-71378387D01*
X99312000Y-71354001D01*
X99312000Y-71125999D01*
X99309598Y-71101613D01*
X99302485Y-71078164D01*
X99290934Y-71056553D01*
X99275389Y-71037611D01*
X99256447Y-71022066D01*
X99234836Y-71010515D01*
X99211387Y-71003402D01*
X99187001Y-71001000D01*
X98752000Y-71001000D01*
X98752000Y-70149000D01*
X103694000Y-70149000D01*
X103694000Y-72825500D01*
G37*
G36*
X89222468Y-71666065D02*
G01*
X89261138Y-71677796D01*
X89296777Y-71696846D01*
X89328017Y-71722483D01*
X89353654Y-71753723D01*
X89372704Y-71789362D01*
X89384435Y-71828032D01*
X89389000Y-71874388D01*
X89389000Y-72525612D01*
X89384435Y-72571968D01*
X89372704Y-72610638D01*
X89353654Y-72646277D01*
X89328017Y-72677517D01*
X89296777Y-72703154D01*
X89261138Y-72722204D01*
X89222468Y-72733935D01*
X89176112Y-72738500D01*
X88099888Y-72738500D01*
X88053532Y-72733935D01*
X88014862Y-72722204D01*
X87979223Y-72703154D01*
X87947983Y-72677517D01*
X87922346Y-72646277D01*
X87903296Y-72610638D01*
X87891565Y-72571968D01*
X87887000Y-72525612D01*
X87887000Y-71874388D01*
X87891565Y-71828032D01*
X87903296Y-71789362D01*
X87922346Y-71753723D01*
X87947983Y-71722483D01*
X87979223Y-71696846D01*
X88014862Y-71677796D01*
X88053532Y-71666065D01*
X88099888Y-71661500D01*
X89176112Y-71661500D01*
X89222468Y-71666065D01*
G37*
G36*
X125840000Y-72391000D02*
G01*
X124738000Y-72391000D01*
X124738000Y-71539000D01*
X125840000Y-71539000D01*
X125840000Y-72391000D01*
G37*
G36*
X105443000Y-72331000D02*
G01*
X104341000Y-72331000D01*
X104341000Y-71479000D01*
X105443000Y-71479000D01*
X105443000Y-72331000D01*
G37*
G36*
X73291091Y-71263085D02*
G01*
X73325069Y-71273393D01*
X73356390Y-71290134D01*
X73383839Y-71312661D01*
X73406366Y-71340110D01*
X73423107Y-71371431D01*
X73433415Y-71405409D01*
X73437500Y-71446890D01*
X73437500Y-72123110D01*
X73433415Y-72164591D01*
X73423107Y-72198569D01*
X73406366Y-72229890D01*
X73383839Y-72257339D01*
X73356390Y-72279866D01*
X73325069Y-72296607D01*
X73291091Y-72306915D01*
X73249610Y-72311000D01*
X72648390Y-72311000D01*
X72606909Y-72306915D01*
X72572931Y-72296607D01*
X72541610Y-72279866D01*
X72514161Y-72257339D01*
X72491634Y-72229890D01*
X72474893Y-72198569D01*
X72464585Y-72164591D01*
X72460500Y-72123110D01*
X72460500Y-71446890D01*
X72464585Y-71405409D01*
X72474893Y-71371431D01*
X72491634Y-71340110D01*
X72514161Y-71312661D01*
X72541610Y-71290134D01*
X72572931Y-71273393D01*
X72606909Y-71263085D01*
X72648390Y-71259000D01*
X73249610Y-71259000D01*
X73291091Y-71263085D01*
G37*
G36*
X71716091Y-71263085D02*
G01*
X71750069Y-71273393D01*
X71781390Y-71290134D01*
X71808839Y-71312661D01*
X71831366Y-71340110D01*
X71848107Y-71371431D01*
X71858415Y-71405409D01*
X71862500Y-71446890D01*
X71862500Y-72123110D01*
X71858415Y-72164591D01*
X71848107Y-72198569D01*
X71831366Y-72229890D01*
X71808839Y-72257339D01*
X71781390Y-72279866D01*
X71750069Y-72296607D01*
X71716091Y-72306915D01*
X71674610Y-72311000D01*
X71073390Y-72311000D01*
X71031909Y-72306915D01*
X70997931Y-72296607D01*
X70966610Y-72279866D01*
X70939161Y-72257339D01*
X70916634Y-72229890D01*
X70899893Y-72198569D01*
X70889585Y-72164591D01*
X70885500Y-72123110D01*
X70885500Y-71446890D01*
X70889585Y-71405409D01*
X70899893Y-71371431D01*
X70916634Y-71340110D01*
X70939161Y-71312661D01*
X70966610Y-71290134D01*
X70997931Y-71273393D01*
X71031909Y-71263085D01*
X71073390Y-71259000D01*
X71674610Y-71259000D01*
X71716091Y-71263085D01*
G37*
G36*
X58384468Y-70991065D02*
G01*
X58423138Y-71002796D01*
X58458777Y-71021846D01*
X58490017Y-71047483D01*
X58515654Y-71078723D01*
X58534704Y-71114362D01*
X58546435Y-71153032D01*
X58551000Y-71199388D01*
X58551000Y-71850612D01*
X58546435Y-71896968D01*
X58534704Y-71935638D01*
X58515654Y-71971277D01*
X58490017Y-72002517D01*
X58458777Y-72028154D01*
X58423138Y-72047204D01*
X58384468Y-72058935D01*
X58338112Y-72063500D01*
X57261888Y-72063500D01*
X57215532Y-72058935D01*
X57176862Y-72047204D01*
X57141223Y-72028154D01*
X57109983Y-72002517D01*
X57084346Y-71971277D01*
X57065296Y-71935638D01*
X57053565Y-71896968D01*
X57049000Y-71850612D01*
X57049000Y-71199388D01*
X57053565Y-71153032D01*
X57065296Y-71114362D01*
X57084346Y-71078723D01*
X57109983Y-71047483D01*
X57141223Y-71021846D01*
X57176862Y-71002796D01*
X57215532Y-70991065D01*
X57261888Y-70986500D01*
X58338112Y-70986500D01*
X58384468Y-70991065D01*
G37*
G36*
X125840000Y-71121000D02*
G01*
X124738000Y-71121000D01*
X124738000Y-70269000D01*
X125840000Y-70269000D01*
X125840000Y-71121000D01*
G37*
G36*
X105443000Y-71061000D02*
G01*
X104341000Y-71061000D01*
X104341000Y-70209000D01*
X105443000Y-70209000D01*
X105443000Y-71061000D01*
G37*
G36*
X89222468Y-69791065D02*
G01*
X89261138Y-69802796D01*
X89296777Y-69821846D01*
X89328017Y-69847483D01*
X89353654Y-69878723D01*
X89372704Y-69914362D01*
X89384435Y-69953032D01*
X89389000Y-69999388D01*
X89389000Y-70650612D01*
X89384435Y-70696968D01*
X89372704Y-70735638D01*
X89353654Y-70771277D01*
X89328017Y-70802517D01*
X89296777Y-70828154D01*
X89261138Y-70847204D01*
X89222468Y-70858935D01*
X89176112Y-70863500D01*
X88099888Y-70863500D01*
X88053532Y-70858935D01*
X88014862Y-70847204D01*
X87979223Y-70828154D01*
X87947983Y-70802517D01*
X87922346Y-70771277D01*
X87903296Y-70735638D01*
X87891565Y-70696968D01*
X87887000Y-70650612D01*
X87887000Y-69999388D01*
X87891565Y-69953032D01*
X87903296Y-69914362D01*
X87922346Y-69878723D01*
X87947983Y-69847483D01*
X87979223Y-69821846D01*
X88014862Y-69802796D01*
X88053532Y-69791065D01*
X88099888Y-69786500D01*
X89176112Y-69786500D01*
X89222468Y-69791065D01*
G37*
G36*
X121791000Y-67604001D02*
G01*
X121793402Y-67628387D01*
X121800515Y-67651836D01*
X121812066Y-67673447D01*
X121827611Y-67692389D01*
X121846553Y-67707934D01*
X121868164Y-67719485D01*
X121891613Y-67726598D01*
X121915999Y-67729000D01*
X122464001Y-67729000D01*
X122488387Y-67726598D01*
X122511836Y-67719485D01*
X122533447Y-67707934D01*
X122552389Y-67692389D01*
X122567934Y-67673447D01*
X122579485Y-67651836D01*
X122586598Y-67628387D01*
X122589000Y-67604001D01*
X122589000Y-67234500D01*
X124091000Y-67234500D01*
X124091000Y-69911000D01*
X119149000Y-69911000D01*
X119149000Y-69059000D01*
X119584001Y-69059000D01*
X119608387Y-69056598D01*
X119631836Y-69049485D01*
X119653447Y-69037934D01*
X119672389Y-69022389D01*
X119687934Y-69003447D01*
X119699485Y-68981836D01*
X119706598Y-68958387D01*
X119709000Y-68934001D01*
X119709000Y-68705999D01*
X119706598Y-68681613D01*
X119699485Y-68658164D01*
X119687934Y-68636553D01*
X119672389Y-68617611D01*
X119653447Y-68602066D01*
X119631836Y-68590515D01*
X119608387Y-68583402D01*
X119584001Y-68581000D01*
X119149000Y-68581000D01*
X119149000Y-67729000D01*
X120164001Y-67729000D01*
X120188387Y-67726598D01*
X120211836Y-67719485D01*
X120233447Y-67707934D01*
X120252389Y-67692389D01*
X120267934Y-67673447D01*
X120279485Y-67651836D01*
X120286598Y-67628387D01*
X120289000Y-67604001D01*
X120289000Y-67234500D01*
X121791000Y-67234500D01*
X121791000Y-67604001D01*
G37*
G36*
X125840000Y-69851000D02*
G01*
X124738000Y-69851000D01*
X124738000Y-68999000D01*
X125840000Y-68999000D01*
X125840000Y-69851000D01*
G37*
G36*
X101394000Y-67544001D02*
G01*
X101396402Y-67568387D01*
X101403515Y-67591836D01*
X101415066Y-67613447D01*
X101430611Y-67632389D01*
X101449553Y-67647934D01*
X101471164Y-67659485D01*
X101494613Y-67666598D01*
X101518999Y-67669000D01*
X102067001Y-67669000D01*
X102091387Y-67666598D01*
X102114836Y-67659485D01*
X102136447Y-67647934D01*
X102155389Y-67632389D01*
X102170934Y-67613447D01*
X102182485Y-67591836D01*
X102189598Y-67568387D01*
X102192000Y-67544001D01*
X102192000Y-67174500D01*
X103694000Y-67174500D01*
X103694000Y-69851000D01*
X98752000Y-69851000D01*
X98752000Y-68999000D01*
X99187001Y-68999000D01*
X99211387Y-68996598D01*
X99234836Y-68989485D01*
X99256447Y-68977934D01*
X99275389Y-68962389D01*
X99290934Y-68943447D01*
X99302485Y-68921836D01*
X99309598Y-68898387D01*
X99312000Y-68874001D01*
X99312000Y-68645999D01*
X99309598Y-68621613D01*
X99302485Y-68598164D01*
X99290934Y-68576553D01*
X99275389Y-68557611D01*
X99256447Y-68542066D01*
X99234836Y-68530515D01*
X99211387Y-68523402D01*
X99187001Y-68521000D01*
X98752000Y-68521000D01*
X98752000Y-67669000D01*
X99767001Y-67669000D01*
X99791387Y-67666598D01*
X99814836Y-67659485D01*
X99836447Y-67647934D01*
X99855389Y-67632389D01*
X99870934Y-67613447D01*
X99882485Y-67591836D01*
X99889598Y-67568387D01*
X99892000Y-67544001D01*
X99892000Y-67174500D01*
X101394000Y-67174500D01*
X101394000Y-67544001D01*
G37*
G36*
X105443000Y-69791000D02*
G01*
X104341000Y-69791000D01*
X104341000Y-68939000D01*
X105443000Y-68939000D01*
X105443000Y-69791000D01*
G37*
G36*
X114407430Y-64048978D02*
G01*
X114658684Y-64098955D01*
X114824388Y-64167592D01*
X115132034Y-64295023D01*
X115203507Y-64342780D01*
X115558041Y-64579671D01*
X115920329Y-64941959D01*
X116094641Y-65202836D01*
X116204977Y-65367966D01*
X116315678Y-65635223D01*
X116401045Y-65841316D01*
X116423835Y-65955890D01*
X116501000Y-66343823D01*
X116501000Y-66861844D01*
X116499704Y-66874996D01*
X116502105Y-66899382D01*
X116509217Y-66922831D01*
X116520767Y-66944442D01*
X116536312Y-66963385D01*
X116555253Y-66978931D01*
X116576863Y-66990483D01*
X116600312Y-66997597D01*
X116624703Y-67000000D01*
X118500000Y-67000000D01*
X118500000Y-69500000D01*
X106000000Y-69500000D01*
X106000000Y-67000000D01*
X111175297Y-67000000D01*
X111199683Y-66997598D01*
X111223132Y-66990485D01*
X111244743Y-66978934D01*
X111263685Y-66963389D01*
X111279230Y-66944447D01*
X111290781Y-66922836D01*
X111297894Y-66899387D01*
X111300296Y-66875001D01*
X111299000Y-66861846D01*
X111299000Y-66343823D01*
X111376165Y-65955890D01*
X111398955Y-65841316D01*
X111484322Y-65635223D01*
X111595023Y-65367966D01*
X111705359Y-65202836D01*
X111879671Y-64941959D01*
X112241959Y-64579671D01*
X112596493Y-64342780D01*
X112667966Y-64295023D01*
X112975612Y-64167592D01*
X113141316Y-64098955D01*
X113392570Y-64048978D01*
X113643823Y-63999000D01*
X114156177Y-63999000D01*
X114407430Y-64048978D01*
G37*
G36*
X73834468Y-68003565D02*
G01*
X73873138Y-68015296D01*
X73908777Y-68034346D01*
X73940017Y-68059983D01*
X73965654Y-68091223D01*
X73984704Y-68126862D01*
X73996435Y-68165532D01*
X74001000Y-68211888D01*
X74001000Y-68863112D01*
X73996435Y-68909468D01*
X73984704Y-68948138D01*
X73965654Y-68983777D01*
X73940017Y-69015017D01*
X73908777Y-69040654D01*
X73873138Y-69059704D01*
X73834468Y-69071435D01*
X73788112Y-69076000D01*
X72711888Y-69076000D01*
X72665532Y-69071435D01*
X72626862Y-69059704D01*
X72591223Y-69040654D01*
X72559983Y-69015017D01*
X72534346Y-68983777D01*
X72515296Y-68948138D01*
X72503565Y-68909468D01*
X72499000Y-68863112D01*
X72499000Y-68211888D01*
X72503565Y-68165532D01*
X72515296Y-68126862D01*
X72534346Y-68091223D01*
X72559983Y-68059983D01*
X72591223Y-68034346D01*
X72626862Y-68015296D01*
X72665532Y-68003565D01*
X72711888Y-67999000D01*
X73788112Y-67999000D01*
X73834468Y-68003565D01*
G37*
G36*
X125840000Y-68581000D02*
G01*
X124738000Y-68581000D01*
X124738000Y-67729000D01*
X125840000Y-67729000D01*
X125840000Y-68581000D01*
G37*
G36*
X105443000Y-68521000D02*
G01*
X104341000Y-68521000D01*
X104341000Y-67669000D01*
X105443000Y-67669000D01*
X105443000Y-68521000D01*
G37*
G36*
X51400091Y-67244085D02*
G01*
X51434069Y-67254393D01*
X51465390Y-67271134D01*
X51492839Y-67293661D01*
X51515366Y-67321110D01*
X51532107Y-67352431D01*
X51542415Y-67386409D01*
X51546500Y-67427890D01*
X51546500Y-68104110D01*
X51542415Y-68145591D01*
X51532107Y-68179569D01*
X51515366Y-68210890D01*
X51492839Y-68238339D01*
X51465390Y-68260866D01*
X51434069Y-68277607D01*
X51400091Y-68287915D01*
X51358610Y-68292000D01*
X50757390Y-68292000D01*
X50715909Y-68287915D01*
X50681931Y-68277607D01*
X50650610Y-68260866D01*
X50623161Y-68238339D01*
X50600634Y-68210890D01*
X50583893Y-68179569D01*
X50573585Y-68145591D01*
X50569500Y-68104110D01*
X50569500Y-67427890D01*
X50573585Y-67386409D01*
X50583893Y-67352431D01*
X50600634Y-67321110D01*
X50623161Y-67293661D01*
X50650610Y-67271134D01*
X50681931Y-67254393D01*
X50715909Y-67244085D01*
X50757390Y-67240000D01*
X51358610Y-67240000D01*
X51400091Y-67244085D01*
G37*
G36*
X52975091Y-67244085D02*
G01*
X53009069Y-67254393D01*
X53040390Y-67271134D01*
X53067839Y-67293661D01*
X53090366Y-67321110D01*
X53107107Y-67352431D01*
X53117415Y-67386409D01*
X53121500Y-67427890D01*
X53121500Y-68104110D01*
X53117415Y-68145591D01*
X53107107Y-68179569D01*
X53090366Y-68210890D01*
X53067839Y-68238339D01*
X53040390Y-68260866D01*
X53009069Y-68277607D01*
X52975091Y-68287915D01*
X52933610Y-68292000D01*
X52332390Y-68292000D01*
X52290909Y-68287915D01*
X52256931Y-68277607D01*
X52225610Y-68260866D01*
X52198161Y-68238339D01*
X52175634Y-68210890D01*
X52158893Y-68179569D01*
X52148585Y-68145591D01*
X52144500Y-68104110D01*
X52144500Y-67427890D01*
X52148585Y-67386409D01*
X52158893Y-67352431D01*
X52175634Y-67321110D01*
X52198161Y-67293661D01*
X52225610Y-67271134D01*
X52256931Y-67254393D01*
X52290909Y-67244085D01*
X52332390Y-67240000D01*
X52933610Y-67240000D01*
X52975091Y-67244085D01*
G37*
G36*
X73834468Y-66128565D02*
G01*
X73873138Y-66140296D01*
X73908777Y-66159346D01*
X73940017Y-66184983D01*
X73965654Y-66216223D01*
X73984704Y-66251862D01*
X73996435Y-66290532D01*
X74001000Y-66336888D01*
X74001000Y-66988112D01*
X73996435Y-67034468D01*
X73984704Y-67073138D01*
X73965654Y-67108777D01*
X73940017Y-67140017D01*
X73908777Y-67165654D01*
X73873138Y-67184704D01*
X73834468Y-67196435D01*
X73788112Y-67201000D01*
X72711888Y-67201000D01*
X72665532Y-67196435D01*
X72626862Y-67184704D01*
X72591223Y-67165654D01*
X72559983Y-67140017D01*
X72534346Y-67108777D01*
X72515296Y-67073138D01*
X72503565Y-67034468D01*
X72499000Y-66988112D01*
X72499000Y-66336888D01*
X72503565Y-66290532D01*
X72515296Y-66251862D01*
X72534346Y-66216223D01*
X72559983Y-66184983D01*
X72591223Y-66159346D01*
X72626862Y-66140296D01*
X72665532Y-66128565D01*
X72711888Y-66124000D01*
X73788112Y-66124000D01*
X73834468Y-66128565D01*
G37*
G36*
X79109468Y-65547565D02*
G01*
X79148138Y-65559296D01*
X79183777Y-65578346D01*
X79215017Y-65603983D01*
X79240654Y-65635223D01*
X79259704Y-65670862D01*
X79271435Y-65709532D01*
X79276000Y-65755888D01*
X79276000Y-66832112D01*
X79271435Y-66878468D01*
X79259704Y-66917138D01*
X79240654Y-66952777D01*
X79215017Y-66984017D01*
X79183777Y-67009654D01*
X79148138Y-67028704D01*
X79109468Y-67040435D01*
X79063112Y-67045000D01*
X78411888Y-67045000D01*
X78365532Y-67040435D01*
X78326862Y-67028704D01*
X78291223Y-67009654D01*
X78259983Y-66984017D01*
X78234346Y-66952777D01*
X78215296Y-66917138D01*
X78203565Y-66878468D01*
X78199000Y-66832112D01*
X78199000Y-65755888D01*
X78203565Y-65709532D01*
X78215296Y-65670862D01*
X78234346Y-65635223D01*
X78259983Y-65603983D01*
X78291223Y-65578346D01*
X78326862Y-65559296D01*
X78365532Y-65547565D01*
X78411888Y-65543000D01*
X79063112Y-65543000D01*
X79109468Y-65547565D01*
G37*
G36*
X77234468Y-65547565D02*
G01*
X77273138Y-65559296D01*
X77308777Y-65578346D01*
X77340017Y-65603983D01*
X77365654Y-65635223D01*
X77384704Y-65670862D01*
X77396435Y-65709532D01*
X77401000Y-65755888D01*
X77401000Y-66832112D01*
X77396435Y-66878468D01*
X77384704Y-66917138D01*
X77365654Y-66952777D01*
X77340017Y-66984017D01*
X77308777Y-67009654D01*
X77273138Y-67028704D01*
X77234468Y-67040435D01*
X77188112Y-67045000D01*
X76536888Y-67045000D01*
X76490532Y-67040435D01*
X76451862Y-67028704D01*
X76416223Y-67009654D01*
X76384983Y-66984017D01*
X76359346Y-66952777D01*
X76340296Y-66917138D01*
X76328565Y-66878468D01*
X76324000Y-66832112D01*
X76324000Y-65755888D01*
X76328565Y-65709532D01*
X76340296Y-65670862D01*
X76359346Y-65635223D01*
X76384983Y-65603983D01*
X76416223Y-65578346D01*
X76451862Y-65559296D01*
X76490532Y-65547565D01*
X76536888Y-65543000D01*
X77188112Y-65543000D01*
X77234468Y-65547565D01*
G37*
G36*
X84441591Y-65772085D02*
G01*
X84475569Y-65782393D01*
X84506890Y-65799134D01*
X84534339Y-65821661D01*
X84556866Y-65849110D01*
X84573607Y-65880431D01*
X84583915Y-65914409D01*
X84588000Y-65955890D01*
X84588000Y-66632110D01*
X84583915Y-66673591D01*
X84573607Y-66707569D01*
X84556866Y-66738890D01*
X84534339Y-66766339D01*
X84506890Y-66788866D01*
X84475569Y-66805607D01*
X84441591Y-66815915D01*
X84400110Y-66820000D01*
X83798890Y-66820000D01*
X83757409Y-66815915D01*
X83723431Y-66805607D01*
X83692110Y-66788866D01*
X83664661Y-66766339D01*
X83642134Y-66738890D01*
X83625393Y-66707569D01*
X83615085Y-66673591D01*
X83611000Y-66632110D01*
X83611000Y-65955890D01*
X83615085Y-65914409D01*
X83625393Y-65880431D01*
X83642134Y-65849110D01*
X83664661Y-65821661D01*
X83692110Y-65799134D01*
X83723431Y-65782393D01*
X83757409Y-65772085D01*
X83798890Y-65768000D01*
X84400110Y-65768000D01*
X84441591Y-65772085D01*
G37*
G36*
X82866591Y-65772085D02*
G01*
X82900569Y-65782393D01*
X82931890Y-65799134D01*
X82959339Y-65821661D01*
X82981866Y-65849110D01*
X82998607Y-65880431D01*
X83008915Y-65914409D01*
X83013000Y-65955890D01*
X83013000Y-66632110D01*
X83008915Y-66673591D01*
X82998607Y-66707569D01*
X82981866Y-66738890D01*
X82959339Y-66766339D01*
X82931890Y-66788866D01*
X82900569Y-66805607D01*
X82866591Y-66815915D01*
X82825110Y-66820000D01*
X82223890Y-66820000D01*
X82182409Y-66815915D01*
X82148431Y-66805607D01*
X82117110Y-66788866D01*
X82089661Y-66766339D01*
X82067134Y-66738890D01*
X82050393Y-66707569D01*
X82040085Y-66673591D01*
X82036000Y-66632110D01*
X82036000Y-65955890D01*
X82040085Y-65914409D01*
X82050393Y-65880431D01*
X82067134Y-65849110D01*
X82089661Y-65821661D01*
X82117110Y-65799134D01*
X82148431Y-65782393D01*
X82182409Y-65772085D01*
X82223890Y-65768000D01*
X82825110Y-65768000D01*
X82866591Y-65772085D01*
G37*
G36*
X56501000Y-66051000D02*
G01*
X55499000Y-66051000D01*
X55499000Y-65549000D01*
X56501000Y-65549000D01*
X56501000Y-66051000D01*
G37*
G36*
X58201000Y-66051000D02*
G01*
X57199000Y-66051000D01*
X57199000Y-65549000D01*
X58201000Y-65549000D01*
X58201000Y-66051000D01*
G37*
G36*
X58201000Y-65251000D02*
G01*
X57199000Y-65251000D01*
X57199000Y-64749000D01*
X58201000Y-64749000D01*
X58201000Y-65251000D01*
G37*
G36*
X56501000Y-65251000D02*
G01*
X55499000Y-65251000D01*
X55499000Y-64749000D01*
X56501000Y-64749000D01*
X56501000Y-65251000D01*
G37*
G36*
X52975091Y-64196085D02*
G01*
X53009069Y-64206393D01*
X53040390Y-64223134D01*
X53067839Y-64245661D01*
X53090366Y-64273110D01*
X53107107Y-64304431D01*
X53117415Y-64338409D01*
X53121500Y-64379890D01*
X53121500Y-65056110D01*
X53117415Y-65097591D01*
X53107107Y-65131569D01*
X53090366Y-65162890D01*
X53067839Y-65190339D01*
X53040390Y-65212866D01*
X53009069Y-65229607D01*
X52975091Y-65239915D01*
X52933610Y-65244000D01*
X52332390Y-65244000D01*
X52290909Y-65239915D01*
X52256931Y-65229607D01*
X52225610Y-65212866D01*
X52198161Y-65190339D01*
X52175634Y-65162890D01*
X52158893Y-65131569D01*
X52148585Y-65097591D01*
X52144500Y-65056110D01*
X52144500Y-64379890D01*
X52148585Y-64338409D01*
X52158893Y-64304431D01*
X52175634Y-64273110D01*
X52198161Y-64245661D01*
X52225610Y-64223134D01*
X52256931Y-64206393D01*
X52290909Y-64196085D01*
X52332390Y-64192000D01*
X52933610Y-64192000D01*
X52975091Y-64196085D01*
G37*
G36*
X51400091Y-64196085D02*
G01*
X51434069Y-64206393D01*
X51465390Y-64223134D01*
X51492839Y-64245661D01*
X51515366Y-64273110D01*
X51532107Y-64304431D01*
X51542415Y-64338409D01*
X51546500Y-64379890D01*
X51546500Y-65056110D01*
X51542415Y-65097591D01*
X51532107Y-65131569D01*
X51515366Y-65162890D01*
X51492839Y-65190339D01*
X51465390Y-65212866D01*
X51434069Y-65229607D01*
X51400091Y-65239915D01*
X51358610Y-65244000D01*
X50757390Y-65244000D01*
X50715909Y-65239915D01*
X50681931Y-65229607D01*
X50650610Y-65212866D01*
X50623161Y-65190339D01*
X50600634Y-65162890D01*
X50583893Y-65131569D01*
X50573585Y-65097591D01*
X50569500Y-65056110D01*
X50569500Y-64379890D01*
X50573585Y-64338409D01*
X50583893Y-64304431D01*
X50600634Y-64273110D01*
X50623161Y-64245661D01*
X50650610Y-64223134D01*
X50681931Y-64206393D01*
X50715909Y-64196085D01*
X50757390Y-64192000D01*
X51358610Y-64192000D01*
X51400091Y-64196085D01*
G37*
G36*
X61129591Y-64153085D02*
G01*
X61163569Y-64163393D01*
X61194890Y-64180134D01*
X61222339Y-64202661D01*
X61244866Y-64230110D01*
X61261607Y-64261431D01*
X61271915Y-64295409D01*
X61276000Y-64336890D01*
X61276000Y-64938110D01*
X61271915Y-64979591D01*
X61261607Y-65013569D01*
X61244866Y-65044890D01*
X61222339Y-65072339D01*
X61194890Y-65094866D01*
X61163569Y-65111607D01*
X61129591Y-65121915D01*
X61088110Y-65126000D01*
X60411890Y-65126000D01*
X60370409Y-65121915D01*
X60336431Y-65111607D01*
X60305110Y-65094866D01*
X60277661Y-65072339D01*
X60255134Y-65044890D01*
X60238393Y-65013569D01*
X60228085Y-64979591D01*
X60224000Y-64938110D01*
X60224000Y-64336890D01*
X60228085Y-64295409D01*
X60238393Y-64261431D01*
X60255134Y-64230110D01*
X60277661Y-64202661D01*
X60305110Y-64180134D01*
X60336431Y-64163393D01*
X60370409Y-64153085D01*
X60411890Y-64149000D01*
X61088110Y-64149000D01*
X61129591Y-64153085D01*
G37*
G36*
X58201000Y-64451000D02*
G01*
X57199000Y-64451000D01*
X57199000Y-63949000D01*
X58201000Y-63949000D01*
X58201000Y-64451000D01*
G37*
G36*
X56501000Y-64451000D02*
G01*
X55499000Y-64451000D01*
X55499000Y-63949000D01*
X56501000Y-63949000D01*
X56501000Y-64451000D01*
G37*
G36*
X120628571Y-62652863D02*
G01*
X120707023Y-62660590D01*
X120792209Y-62686431D01*
X120858013Y-62706392D01*
X120997165Y-62780771D01*
X121119133Y-62880867D01*
X121219229Y-63002835D01*
X121293608Y-63141987D01*
X121293608Y-63141988D01*
X121339410Y-63292977D01*
X121354875Y-63450000D01*
X121339410Y-63607023D01*
X121308875Y-63707682D01*
X121293608Y-63758013D01*
X121219229Y-63897165D01*
X121119133Y-64019133D01*
X120997165Y-64119229D01*
X120858013Y-64193608D01*
X120807682Y-64208875D01*
X120707023Y-64239410D01*
X120643554Y-64245661D01*
X120589346Y-64251000D01*
X119210654Y-64251000D01*
X119156446Y-64245661D01*
X119092977Y-64239410D01*
X118992318Y-64208875D01*
X118941987Y-64193608D01*
X118802835Y-64119229D01*
X118680867Y-64019133D01*
X118580771Y-63897165D01*
X118506392Y-63758013D01*
X118491125Y-63707682D01*
X118460590Y-63607023D01*
X118445125Y-63450000D01*
X118460590Y-63292977D01*
X118506392Y-63141988D01*
X118506392Y-63141987D01*
X118580771Y-63002835D01*
X118680867Y-62880867D01*
X118802835Y-62780771D01*
X118941987Y-62706392D01*
X119007791Y-62686431D01*
X119092977Y-62660590D01*
X119171429Y-62652863D01*
X119210654Y-62649000D01*
X120589346Y-62649000D01*
X120628571Y-62652863D01*
G37*
G36*
X108628571Y-62652863D02*
G01*
X108707023Y-62660590D01*
X108792209Y-62686431D01*
X108858013Y-62706392D01*
X108997165Y-62780771D01*
X109119133Y-62880867D01*
X109219229Y-63002835D01*
X109293608Y-63141987D01*
X109293608Y-63141988D01*
X109339410Y-63292977D01*
X109354875Y-63450000D01*
X109339410Y-63607023D01*
X109308875Y-63707682D01*
X109293608Y-63758013D01*
X109219229Y-63897165D01*
X109119133Y-64019133D01*
X108997165Y-64119229D01*
X108858013Y-64193608D01*
X108807682Y-64208875D01*
X108707023Y-64239410D01*
X108643554Y-64245661D01*
X108589346Y-64251000D01*
X107210654Y-64251000D01*
X107156446Y-64245661D01*
X107092977Y-64239410D01*
X106992318Y-64208875D01*
X106941987Y-64193608D01*
X106802835Y-64119229D01*
X106680867Y-64019133D01*
X106580771Y-63897165D01*
X106506392Y-63758013D01*
X106491125Y-63707682D01*
X106460590Y-63607023D01*
X106445125Y-63450000D01*
X106460590Y-63292977D01*
X106506392Y-63141988D01*
X106506392Y-63141987D01*
X106580771Y-63002835D01*
X106680867Y-62880867D01*
X106802835Y-62780771D01*
X106941987Y-62706392D01*
X107007791Y-62686431D01*
X107092977Y-62660590D01*
X107171429Y-62652863D01*
X107210654Y-62649000D01*
X108589346Y-62649000D01*
X108628571Y-62652863D01*
G37*
G36*
X56501000Y-63651000D02*
G01*
X55499000Y-63651000D01*
X55499000Y-63149000D01*
X56501000Y-63149000D01*
X56501000Y-63651000D01*
G37*
G36*
X58201000Y-63651000D02*
G01*
X57199000Y-63651000D01*
X57199000Y-63149000D01*
X58201000Y-63149000D01*
X58201000Y-63651000D01*
G37*
G36*
X61129591Y-62578085D02*
G01*
X61163569Y-62588393D01*
X61194890Y-62605134D01*
X61222339Y-62627661D01*
X61244866Y-62655110D01*
X61261607Y-62686431D01*
X61271915Y-62720409D01*
X61276000Y-62761890D01*
X61276000Y-63363110D01*
X61271915Y-63404591D01*
X61261607Y-63438569D01*
X61244866Y-63469890D01*
X61222339Y-63497339D01*
X61194890Y-63519866D01*
X61163569Y-63536607D01*
X61129591Y-63546915D01*
X61088110Y-63551000D01*
X60411890Y-63551000D01*
X60370409Y-63546915D01*
X60336431Y-63536607D01*
X60305110Y-63519866D01*
X60277661Y-63497339D01*
X60255134Y-63469890D01*
X60238393Y-63438569D01*
X60228085Y-63404591D01*
X60224000Y-63363110D01*
X60224000Y-62761890D01*
X60228085Y-62720409D01*
X60238393Y-62686431D01*
X60255134Y-62655110D01*
X60277661Y-62627661D01*
X60305110Y-62605134D01*
X60336431Y-62588393D01*
X60370409Y-62578085D01*
X60411890Y-62574000D01*
X61088110Y-62574000D01*
X61129591Y-62578085D01*
G37*
G36*
X71716091Y-62228085D02*
G01*
X71750069Y-62238393D01*
X71781390Y-62255134D01*
X71808839Y-62277661D01*
X71831366Y-62305110D01*
X71848107Y-62336431D01*
X71858415Y-62370409D01*
X71862500Y-62411890D01*
X71862500Y-63088110D01*
X71858415Y-63129591D01*
X71848107Y-63163569D01*
X71831366Y-63194890D01*
X71808839Y-63222339D01*
X71781390Y-63244866D01*
X71750069Y-63261607D01*
X71716091Y-63271915D01*
X71674610Y-63276000D01*
X71073390Y-63276000D01*
X71031909Y-63271915D01*
X70997931Y-63261607D01*
X70966610Y-63244866D01*
X70939161Y-63222339D01*
X70916634Y-63194890D01*
X70899893Y-63163569D01*
X70889585Y-63129591D01*
X70885500Y-63088110D01*
X70885500Y-62411890D01*
X70889585Y-62370409D01*
X70899893Y-62336431D01*
X70916634Y-62305110D01*
X70939161Y-62277661D01*
X70966610Y-62255134D01*
X70997931Y-62238393D01*
X71031909Y-62228085D01*
X71073390Y-62224000D01*
X71674610Y-62224000D01*
X71716091Y-62228085D01*
G37*
G36*
X73291091Y-62228085D02*
G01*
X73325069Y-62238393D01*
X73356390Y-62255134D01*
X73383839Y-62277661D01*
X73406366Y-62305110D01*
X73423107Y-62336431D01*
X73433415Y-62370409D01*
X73437500Y-62411890D01*
X73437500Y-63088110D01*
X73433415Y-63129591D01*
X73423107Y-63163569D01*
X73406366Y-63194890D01*
X73383839Y-63222339D01*
X73356390Y-63244866D01*
X73325069Y-63261607D01*
X73291091Y-63271915D01*
X73249610Y-63276000D01*
X72648390Y-63276000D01*
X72606909Y-63271915D01*
X72572931Y-63261607D01*
X72541610Y-63244866D01*
X72514161Y-63222339D01*
X72491634Y-63194890D01*
X72474893Y-63163569D01*
X72464585Y-63129591D01*
X72460500Y-63088110D01*
X72460500Y-62411890D01*
X72464585Y-62370409D01*
X72474893Y-62336431D01*
X72491634Y-62305110D01*
X72514161Y-62277661D01*
X72541610Y-62255134D01*
X72572931Y-62238393D01*
X72606909Y-62228085D01*
X72648390Y-62224000D01*
X73249610Y-62224000D01*
X73291091Y-62228085D01*
G37*
G36*
X84498500Y-63175000D02*
G01*
X82921500Y-63175000D01*
X82921500Y-54173000D01*
X84498500Y-54173000D01*
X84498500Y-63175000D01*
G37*
G36*
X78622500Y-63175000D02*
G01*
X77045500Y-63175000D01*
X77045500Y-54173000D01*
X78622500Y-54173000D01*
X78622500Y-63175000D01*
G37*
G36*
X89284468Y-61966065D02*
G01*
X89323138Y-61977796D01*
X89358777Y-61996846D01*
X89390017Y-62022483D01*
X89415654Y-62053723D01*
X89434704Y-62089362D01*
X89446435Y-62128032D01*
X89451000Y-62174388D01*
X89451000Y-62825612D01*
X89446435Y-62871968D01*
X89434704Y-62910638D01*
X89415654Y-62946277D01*
X89390017Y-62977517D01*
X89358777Y-63003154D01*
X89323138Y-63022204D01*
X89284468Y-63033935D01*
X89238112Y-63038500D01*
X88161888Y-63038500D01*
X88115532Y-63033935D01*
X88076862Y-63022204D01*
X88041223Y-63003154D01*
X88009983Y-62977517D01*
X87984346Y-62946277D01*
X87965296Y-62910638D01*
X87953565Y-62871968D01*
X87949000Y-62825612D01*
X87949000Y-62174388D01*
X87953565Y-62128032D01*
X87965296Y-62089362D01*
X87984346Y-62053723D01*
X88009983Y-62022483D01*
X88041223Y-61996846D01*
X88076862Y-61977796D01*
X88115532Y-61966065D01*
X88161888Y-61961500D01*
X89238112Y-61961500D01*
X89284468Y-61966065D01*
G37*
G36*
X101142091Y-60878085D02*
G01*
X101176069Y-60888393D01*
X101207390Y-60905134D01*
X101234839Y-60927661D01*
X101257366Y-60955110D01*
X101274107Y-60986431D01*
X101284415Y-61020409D01*
X101288500Y-61061890D01*
X101288500Y-61738110D01*
X101284415Y-61779591D01*
X101274107Y-61813569D01*
X101257366Y-61844890D01*
X101234839Y-61872339D01*
X101207390Y-61894866D01*
X101176069Y-61911607D01*
X101142091Y-61921915D01*
X101100610Y-61926000D01*
X100499390Y-61926000D01*
X100457909Y-61921915D01*
X100423931Y-61911607D01*
X100392610Y-61894866D01*
X100365161Y-61872339D01*
X100342634Y-61844890D01*
X100325893Y-61813569D01*
X100315585Y-61779591D01*
X100311500Y-61738110D01*
X100311500Y-61061890D01*
X100315585Y-61020409D01*
X100325893Y-60986431D01*
X100342634Y-60955110D01*
X100365161Y-60927661D01*
X100392610Y-60905134D01*
X100423931Y-60888393D01*
X100457909Y-60878085D01*
X100499390Y-60874000D01*
X101100610Y-60874000D01*
X101142091Y-60878085D01*
G37*
G36*
X99567091Y-60878085D02*
G01*
X99601069Y-60888393D01*
X99632390Y-60905134D01*
X99659839Y-60927661D01*
X99682366Y-60955110D01*
X99699107Y-60986431D01*
X99709415Y-61020409D01*
X99713500Y-61061890D01*
X99713500Y-61738110D01*
X99709415Y-61779591D01*
X99699107Y-61813569D01*
X99682366Y-61844890D01*
X99659839Y-61872339D01*
X99632390Y-61894866D01*
X99601069Y-61911607D01*
X99567091Y-61921915D01*
X99525610Y-61926000D01*
X98924390Y-61926000D01*
X98882909Y-61921915D01*
X98848931Y-61911607D01*
X98817610Y-61894866D01*
X98790161Y-61872339D01*
X98767634Y-61844890D01*
X98750893Y-61813569D01*
X98740585Y-61779591D01*
X98736500Y-61738110D01*
X98736500Y-61061890D01*
X98740585Y-61020409D01*
X98750893Y-60986431D01*
X98767634Y-60955110D01*
X98790161Y-60927661D01*
X98817610Y-60905134D01*
X98848931Y-60888393D01*
X98882909Y-60878085D01*
X98924390Y-60874000D01*
X99525610Y-60874000D01*
X99567091Y-60878085D01*
G37*
G36*
X82323000Y-61225000D02*
G01*
X79221000Y-61225000D01*
X79221000Y-56123000D01*
X82323000Y-56123000D01*
X82323000Y-61225000D01*
G37*
G36*
X89284468Y-60091065D02*
G01*
X89323138Y-60102796D01*
X89358777Y-60121846D01*
X89390017Y-60147483D01*
X89415654Y-60178723D01*
X89434704Y-60214362D01*
X89446435Y-60253032D01*
X89451000Y-60299388D01*
X89451000Y-60950612D01*
X89446435Y-60996968D01*
X89434704Y-61035638D01*
X89415654Y-61071277D01*
X89390017Y-61102517D01*
X89358777Y-61128154D01*
X89323138Y-61147204D01*
X89284468Y-61158935D01*
X89238112Y-61163500D01*
X88161888Y-61163500D01*
X88115532Y-61158935D01*
X88076862Y-61147204D01*
X88041223Y-61128154D01*
X88009983Y-61102517D01*
X87984346Y-61071277D01*
X87965296Y-61035638D01*
X87953565Y-60996968D01*
X87949000Y-60950612D01*
X87949000Y-60299388D01*
X87953565Y-60253032D01*
X87965296Y-60214362D01*
X87984346Y-60178723D01*
X88009983Y-60147483D01*
X88041223Y-60121846D01*
X88076862Y-60102796D01*
X88115532Y-60091065D01*
X88161888Y-60086500D01*
X89238112Y-60086500D01*
X89284468Y-60091065D01*
G37*
G36*
X125070091Y-60078085D02*
G01*
X125104069Y-60088393D01*
X125135390Y-60105134D01*
X125162839Y-60127661D01*
X125185366Y-60155110D01*
X125202107Y-60186431D01*
X125212415Y-60220409D01*
X125216500Y-60261890D01*
X125216500Y-60938110D01*
X125212415Y-60979591D01*
X125202107Y-61013569D01*
X125185366Y-61044890D01*
X125162839Y-61072339D01*
X125135390Y-61094866D01*
X125104069Y-61111607D01*
X125070091Y-61121915D01*
X125028610Y-61126000D01*
X124427390Y-61126000D01*
X124385909Y-61121915D01*
X124351931Y-61111607D01*
X124320610Y-61094866D01*
X124293161Y-61072339D01*
X124270634Y-61044890D01*
X124253893Y-61013569D01*
X124243585Y-60979591D01*
X124239500Y-60938110D01*
X124239500Y-60261890D01*
X124243585Y-60220409D01*
X124253893Y-60186431D01*
X124270634Y-60155110D01*
X124293161Y-60127661D01*
X124320610Y-60105134D01*
X124351931Y-60088393D01*
X124385909Y-60078085D01*
X124427390Y-60074000D01*
X125028610Y-60074000D01*
X125070091Y-60078085D01*
G37*
G36*
X123495091Y-60078085D02*
G01*
X123529069Y-60088393D01*
X123560390Y-60105134D01*
X123587839Y-60127661D01*
X123610366Y-60155110D01*
X123627107Y-60186431D01*
X123637415Y-60220409D01*
X123641500Y-60261890D01*
X123641500Y-60938110D01*
X123637415Y-60979591D01*
X123627107Y-61013569D01*
X123610366Y-61044890D01*
X123587839Y-61072339D01*
X123560390Y-61094866D01*
X123529069Y-61111607D01*
X123495091Y-61121915D01*
X123453610Y-61126000D01*
X122852390Y-61126000D01*
X122810909Y-61121915D01*
X122776931Y-61111607D01*
X122745610Y-61094866D01*
X122718161Y-61072339D01*
X122695634Y-61044890D01*
X122678893Y-61013569D01*
X122668585Y-60979591D01*
X122664500Y-60938110D01*
X122664500Y-60261890D01*
X122668585Y-60220409D01*
X122678893Y-60186431D01*
X122695634Y-60155110D01*
X122718161Y-60127661D01*
X122745610Y-60105134D01*
X122776931Y-60088393D01*
X122810909Y-60078085D01*
X122852390Y-60074000D01*
X123453610Y-60074000D01*
X123495091Y-60078085D01*
G37*
G36*
X73291091Y-59478085D02*
G01*
X73325069Y-59488393D01*
X73356390Y-59505134D01*
X73383839Y-59527661D01*
X73406366Y-59555110D01*
X73423107Y-59586431D01*
X73433415Y-59620409D01*
X73437500Y-59661890D01*
X73437500Y-60338110D01*
X73433415Y-60379591D01*
X73423107Y-60413569D01*
X73406366Y-60444890D01*
X73383839Y-60472339D01*
X73356390Y-60494866D01*
X73325069Y-60511607D01*
X73291091Y-60521915D01*
X73249610Y-60526000D01*
X72648390Y-60526000D01*
X72606909Y-60521915D01*
X72572931Y-60511607D01*
X72541610Y-60494866D01*
X72514161Y-60472339D01*
X72491634Y-60444890D01*
X72474893Y-60413569D01*
X72464585Y-60379591D01*
X72460500Y-60338110D01*
X72460500Y-59661890D01*
X72464585Y-59620409D01*
X72474893Y-59586431D01*
X72491634Y-59555110D01*
X72514161Y-59527661D01*
X72541610Y-59505134D01*
X72572931Y-59488393D01*
X72606909Y-59478085D01*
X72648390Y-59474000D01*
X73249610Y-59474000D01*
X73291091Y-59478085D01*
G37*
G36*
X71716091Y-59478085D02*
G01*
X71750069Y-59488393D01*
X71781390Y-59505134D01*
X71808839Y-59527661D01*
X71831366Y-59555110D01*
X71848107Y-59586431D01*
X71858415Y-59620409D01*
X71862500Y-59661890D01*
X71862500Y-60338110D01*
X71858415Y-60379591D01*
X71848107Y-60413569D01*
X71831366Y-60444890D01*
X71808839Y-60472339D01*
X71781390Y-60494866D01*
X71750069Y-60511607D01*
X71716091Y-60521915D01*
X71674610Y-60526000D01*
X71073390Y-60526000D01*
X71031909Y-60521915D01*
X70997931Y-60511607D01*
X70966610Y-60494866D01*
X70939161Y-60472339D01*
X70916634Y-60444890D01*
X70899893Y-60413569D01*
X70889585Y-60379591D01*
X70885500Y-60338110D01*
X70885500Y-59661890D01*
X70889585Y-59620409D01*
X70899893Y-59586431D01*
X70916634Y-59555110D01*
X70939161Y-59527661D01*
X70966610Y-59505134D01*
X70997931Y-59488393D01*
X71031909Y-59478085D01*
X71073390Y-59474000D01*
X71674610Y-59474000D01*
X71716091Y-59478085D01*
G37*
G36*
X51400091Y-59422085D02*
G01*
X51434069Y-59432393D01*
X51465390Y-59449134D01*
X51492839Y-59471661D01*
X51515366Y-59499110D01*
X51532107Y-59530431D01*
X51542415Y-59564409D01*
X51546500Y-59605890D01*
X51546500Y-60282110D01*
X51542415Y-60323591D01*
X51532107Y-60357569D01*
X51515366Y-60388890D01*
X51492839Y-60416339D01*
X51465390Y-60438866D01*
X51434069Y-60455607D01*
X51400091Y-60465915D01*
X51358610Y-60470000D01*
X50757390Y-60470000D01*
X50715909Y-60465915D01*
X50681931Y-60455607D01*
X50650610Y-60438866D01*
X50623161Y-60416339D01*
X50600634Y-60388890D01*
X50583893Y-60357569D01*
X50573585Y-60323591D01*
X50569500Y-60282110D01*
X50569500Y-59605890D01*
X50573585Y-59564409D01*
X50583893Y-59530431D01*
X50600634Y-59499110D01*
X50623161Y-59471661D01*
X50650610Y-59449134D01*
X50681931Y-59432393D01*
X50715909Y-59422085D01*
X50757390Y-59418000D01*
X51358610Y-59418000D01*
X51400091Y-59422085D01*
G37*
G36*
X52975091Y-59422085D02*
G01*
X53009069Y-59432393D01*
X53040390Y-59449134D01*
X53067839Y-59471661D01*
X53090366Y-59499110D01*
X53107107Y-59530431D01*
X53117415Y-59564409D01*
X53121500Y-59605890D01*
X53121500Y-60282110D01*
X53117415Y-60323591D01*
X53107107Y-60357569D01*
X53090366Y-60388890D01*
X53067839Y-60416339D01*
X53040390Y-60438866D01*
X53009069Y-60455607D01*
X52975091Y-60465915D01*
X52933610Y-60470000D01*
X52332390Y-60470000D01*
X52290909Y-60465915D01*
X52256931Y-60455607D01*
X52225610Y-60438866D01*
X52198161Y-60416339D01*
X52175634Y-60388890D01*
X52158893Y-60357569D01*
X52148585Y-60323591D01*
X52144500Y-60282110D01*
X52144500Y-59605890D01*
X52148585Y-59564409D01*
X52158893Y-59530431D01*
X52175634Y-59499110D01*
X52198161Y-59471661D01*
X52225610Y-59449134D01*
X52256931Y-59432393D01*
X52290909Y-59422085D01*
X52332390Y-59418000D01*
X52933610Y-59418000D01*
X52975091Y-59422085D01*
G37*
G36*
X104329591Y-59178085D02*
G01*
X104363569Y-59188393D01*
X104394890Y-59205134D01*
X104422339Y-59227661D01*
X104444866Y-59255110D01*
X104461607Y-59286431D01*
X104471915Y-59320409D01*
X104476000Y-59361890D01*
X104476000Y-60038110D01*
X104471915Y-60079591D01*
X104461607Y-60113569D01*
X104444866Y-60144890D01*
X104422339Y-60172339D01*
X104394890Y-60194866D01*
X104363569Y-60211607D01*
X104329591Y-60221915D01*
X104288110Y-60226000D01*
X103686890Y-60226000D01*
X103645409Y-60221915D01*
X103611431Y-60211607D01*
X103580110Y-60194866D01*
X103552661Y-60172339D01*
X103530134Y-60144890D01*
X103513393Y-60113569D01*
X103503085Y-60079591D01*
X103499000Y-60038110D01*
X103499000Y-59361890D01*
X103503085Y-59320409D01*
X103513393Y-59286431D01*
X103530134Y-59255110D01*
X103552661Y-59227661D01*
X103580110Y-59205134D01*
X103611431Y-59188393D01*
X103645409Y-59178085D01*
X103686890Y-59174000D01*
X104288110Y-59174000D01*
X104329591Y-59178085D01*
G37*
G36*
X102754591Y-59178085D02*
G01*
X102788569Y-59188393D01*
X102819890Y-59205134D01*
X102847339Y-59227661D01*
X102869866Y-59255110D01*
X102886607Y-59286431D01*
X102896915Y-59320409D01*
X102901000Y-59361890D01*
X102901000Y-60038110D01*
X102896915Y-60079591D01*
X102886607Y-60113569D01*
X102869866Y-60144890D01*
X102847339Y-60172339D01*
X102819890Y-60194866D01*
X102788569Y-60211607D01*
X102754591Y-60221915D01*
X102713110Y-60226000D01*
X102111890Y-60226000D01*
X102070409Y-60221915D01*
X102036431Y-60211607D01*
X102005110Y-60194866D01*
X101977661Y-60172339D01*
X101955134Y-60144890D01*
X101938393Y-60113569D01*
X101928085Y-60079591D01*
X101924000Y-60038110D01*
X101924000Y-59361890D01*
X101928085Y-59320409D01*
X101938393Y-59286431D01*
X101955134Y-59255110D01*
X101977661Y-59227661D01*
X102005110Y-59205134D01*
X102036431Y-59188393D01*
X102070409Y-59178085D01*
X102111890Y-59174000D01*
X102713110Y-59174000D01*
X102754591Y-59178085D01*
G37*
G36*
X120628571Y-57152863D02*
G01*
X120707023Y-57160590D01*
X120807682Y-57191125D01*
X120858013Y-57206392D01*
X120997165Y-57280771D01*
X121119133Y-57380867D01*
X121219229Y-57502835D01*
X121293608Y-57641987D01*
X121301473Y-57667915D01*
X121339410Y-57792977D01*
X121354875Y-57950000D01*
X121339410Y-58107023D01*
X121316127Y-58183777D01*
X121293608Y-58258013D01*
X121219229Y-58397165D01*
X121119133Y-58519133D01*
X120997165Y-58619229D01*
X120858013Y-58693608D01*
X120807682Y-58708875D01*
X120707023Y-58739410D01*
X120628571Y-58747137D01*
X120589346Y-58751000D01*
X119210654Y-58751000D01*
X119171429Y-58747137D01*
X119092977Y-58739410D01*
X118992318Y-58708875D01*
X118941987Y-58693608D01*
X118802835Y-58619229D01*
X118680867Y-58519133D01*
X118580771Y-58397165D01*
X118506392Y-58258013D01*
X118483873Y-58183777D01*
X118460590Y-58107023D01*
X118445125Y-57950000D01*
X118460590Y-57792977D01*
X118498527Y-57667915D01*
X118506392Y-57641987D01*
X118580771Y-57502835D01*
X118680867Y-57380867D01*
X118802835Y-57280771D01*
X118941987Y-57206392D01*
X118992318Y-57191125D01*
X119092977Y-57160590D01*
X119171429Y-57152863D01*
X119210654Y-57149000D01*
X120589346Y-57149000D01*
X120628571Y-57152863D01*
G37*
G36*
X108628571Y-57152863D02*
G01*
X108707023Y-57160590D01*
X108807682Y-57191125D01*
X108858013Y-57206392D01*
X108997165Y-57280771D01*
X109119133Y-57380867D01*
X109219229Y-57502835D01*
X109293608Y-57641987D01*
X109301473Y-57667915D01*
X109339410Y-57792977D01*
X109354875Y-57950000D01*
X109339410Y-58107023D01*
X109316127Y-58183777D01*
X109293608Y-58258013D01*
X109219229Y-58397165D01*
X109119133Y-58519133D01*
X108997165Y-58619229D01*
X108858013Y-58693608D01*
X108807682Y-58708875D01*
X108707023Y-58739410D01*
X108628571Y-58747137D01*
X108589346Y-58751000D01*
X107210654Y-58751000D01*
X107171429Y-58747137D01*
X107092977Y-58739410D01*
X106992318Y-58708875D01*
X106941987Y-58693608D01*
X106802835Y-58619229D01*
X106680867Y-58519133D01*
X106580771Y-58397165D01*
X106506392Y-58258013D01*
X106483873Y-58183777D01*
X106460590Y-58107023D01*
X106445125Y-57950000D01*
X106460590Y-57792977D01*
X106498527Y-57667915D01*
X106506392Y-57641987D01*
X106580771Y-57502835D01*
X106680867Y-57380867D01*
X106802835Y-57280771D01*
X106941987Y-57206392D01*
X106992318Y-57191125D01*
X107092977Y-57160590D01*
X107171429Y-57152863D01*
X107210654Y-57149000D01*
X108589346Y-57149000D01*
X108628571Y-57152863D01*
G37*
G36*
X89276468Y-57203565D02*
G01*
X89315138Y-57215296D01*
X89350777Y-57234346D01*
X89382017Y-57259983D01*
X89407654Y-57291223D01*
X89426704Y-57326862D01*
X89438435Y-57365532D01*
X89443000Y-57411888D01*
X89443000Y-58063112D01*
X89438435Y-58109468D01*
X89426704Y-58148138D01*
X89407654Y-58183777D01*
X89382017Y-58215017D01*
X89350777Y-58240654D01*
X89315138Y-58259704D01*
X89276468Y-58271435D01*
X89230112Y-58276000D01*
X88153888Y-58276000D01*
X88107532Y-58271435D01*
X88068862Y-58259704D01*
X88033223Y-58240654D01*
X88001983Y-58215017D01*
X87976346Y-58183777D01*
X87957296Y-58148138D01*
X87945565Y-58109468D01*
X87941000Y-58063112D01*
X87941000Y-57411888D01*
X87945565Y-57365532D01*
X87957296Y-57326862D01*
X87976346Y-57291223D01*
X88001983Y-57259983D01*
X88033223Y-57234346D01*
X88068862Y-57215296D01*
X88107532Y-57203565D01*
X88153888Y-57199000D01*
X89230112Y-57199000D01*
X89276468Y-57203565D01*
G37*
G36*
X73291091Y-56624085D02*
G01*
X73325069Y-56634393D01*
X73356390Y-56651134D01*
X73383839Y-56673661D01*
X73406366Y-56701110D01*
X73423107Y-56732431D01*
X73433415Y-56766409D01*
X73437500Y-56807890D01*
X73437500Y-57484110D01*
X73433415Y-57525591D01*
X73423107Y-57559569D01*
X73406366Y-57590890D01*
X73383839Y-57618339D01*
X73356390Y-57640866D01*
X73325069Y-57657607D01*
X73291091Y-57667915D01*
X73249610Y-57672000D01*
X72648390Y-57672000D01*
X72606909Y-57667915D01*
X72572931Y-57657607D01*
X72541610Y-57640866D01*
X72514161Y-57618339D01*
X72491634Y-57590890D01*
X72474893Y-57559569D01*
X72464585Y-57525591D01*
X72460500Y-57484110D01*
X72460500Y-56807890D01*
X72464585Y-56766409D01*
X72474893Y-56732431D01*
X72491634Y-56701110D01*
X72514161Y-56673661D01*
X72541610Y-56651134D01*
X72572931Y-56634393D01*
X72606909Y-56624085D01*
X72648390Y-56620000D01*
X73249610Y-56620000D01*
X73291091Y-56624085D01*
G37*
G36*
X71716091Y-56624085D02*
G01*
X71750069Y-56634393D01*
X71781390Y-56651134D01*
X71808839Y-56673661D01*
X71831366Y-56701110D01*
X71848107Y-56732431D01*
X71858415Y-56766409D01*
X71862500Y-56807890D01*
X71862500Y-57484110D01*
X71858415Y-57525591D01*
X71848107Y-57559569D01*
X71831366Y-57590890D01*
X71808839Y-57618339D01*
X71781390Y-57640866D01*
X71750069Y-57657607D01*
X71716091Y-57667915D01*
X71674610Y-57672000D01*
X71073390Y-57672000D01*
X71031909Y-57667915D01*
X70997931Y-57657607D01*
X70966610Y-57640866D01*
X70939161Y-57618339D01*
X70916634Y-57590890D01*
X70899893Y-57559569D01*
X70889585Y-57525591D01*
X70885500Y-57484110D01*
X70885500Y-56807890D01*
X70889585Y-56766409D01*
X70899893Y-56732431D01*
X70916634Y-56701110D01*
X70939161Y-56673661D01*
X70966610Y-56651134D01*
X70997931Y-56634393D01*
X71031909Y-56624085D01*
X71073390Y-56620000D01*
X71674610Y-56620000D01*
X71716091Y-56624085D01*
G37*
G36*
X52949591Y-56374085D02*
G01*
X52983569Y-56384393D01*
X53014890Y-56401134D01*
X53042339Y-56423661D01*
X53064866Y-56451110D01*
X53081607Y-56482431D01*
X53091915Y-56516409D01*
X53096000Y-56557890D01*
X53096000Y-57234110D01*
X53091915Y-57275591D01*
X53081607Y-57309569D01*
X53064866Y-57340890D01*
X53042339Y-57368339D01*
X53014890Y-57390866D01*
X52983569Y-57407607D01*
X52949591Y-57417915D01*
X52908110Y-57422000D01*
X52306890Y-57422000D01*
X52265409Y-57417915D01*
X52231431Y-57407607D01*
X52200110Y-57390866D01*
X52172661Y-57368339D01*
X52150134Y-57340890D01*
X52133393Y-57309569D01*
X52123085Y-57275591D01*
X52119000Y-57234110D01*
X52119000Y-56557890D01*
X52123085Y-56516409D01*
X52133393Y-56482431D01*
X52150134Y-56451110D01*
X52172661Y-56423661D01*
X52200110Y-56401134D01*
X52231431Y-56384393D01*
X52265409Y-56374085D01*
X52306890Y-56370000D01*
X52908110Y-56370000D01*
X52949591Y-56374085D01*
G37*
G36*
X51374591Y-56374085D02*
G01*
X51408569Y-56384393D01*
X51439890Y-56401134D01*
X51467339Y-56423661D01*
X51489866Y-56451110D01*
X51506607Y-56482431D01*
X51516915Y-56516409D01*
X51521000Y-56557890D01*
X51521000Y-57234110D01*
X51516915Y-57275591D01*
X51506607Y-57309569D01*
X51489866Y-57340890D01*
X51467339Y-57368339D01*
X51439890Y-57390866D01*
X51408569Y-57407607D01*
X51374591Y-57417915D01*
X51333110Y-57422000D01*
X50731890Y-57422000D01*
X50690409Y-57417915D01*
X50656431Y-57407607D01*
X50625110Y-57390866D01*
X50597661Y-57368339D01*
X50575134Y-57340890D01*
X50558393Y-57309569D01*
X50548085Y-57275591D01*
X50544000Y-57234110D01*
X50544000Y-56557890D01*
X50548085Y-56516409D01*
X50558393Y-56482431D01*
X50575134Y-56451110D01*
X50597661Y-56423661D01*
X50625110Y-56401134D01*
X50656431Y-56384393D01*
X50690409Y-56374085D01*
X50731890Y-56370000D01*
X51333110Y-56370000D01*
X51374591Y-56374085D01*
G37*
G36*
X118500000Y-54000000D02*
G01*
X116545138Y-54000000D01*
X116520752Y-54002402D01*
X116497303Y-54009515D01*
X116475692Y-54021066D01*
X116456750Y-54036611D01*
X116441205Y-54055553D01*
X116429654Y-54077164D01*
X116422541Y-54100613D01*
X116420139Y-54124999D01*
X116422541Y-54149383D01*
X116463789Y-54356750D01*
X116493544Y-54506337D01*
X116501000Y-54543824D01*
X116501000Y-55056176D01*
X116418089Y-55473000D01*
X116401045Y-55558683D01*
X116204977Y-56032034D01*
X116204976Y-56032035D01*
X115920329Y-56458041D01*
X115558041Y-56820329D01*
X115492308Y-56864250D01*
X115132034Y-57104977D01*
X114956344Y-57177750D01*
X114658684Y-57301045D01*
X114410253Y-57350461D01*
X114156177Y-57401000D01*
X113643823Y-57401000D01*
X113389747Y-57350461D01*
X113141316Y-57301045D01*
X112843656Y-57177750D01*
X112667966Y-57104977D01*
X112307692Y-56864250D01*
X112241959Y-56820329D01*
X111879671Y-56458041D01*
X111595024Y-56032035D01*
X111595023Y-56032034D01*
X111398955Y-55558683D01*
X111381912Y-55473000D01*
X111299000Y-55056176D01*
X111299000Y-54543824D01*
X111306457Y-54506337D01*
X111336211Y-54356750D01*
X111377459Y-54149383D01*
X111379861Y-54124999D01*
X111377459Y-54100613D01*
X111370346Y-54077164D01*
X111358795Y-54055553D01*
X111343250Y-54036611D01*
X111324308Y-54021066D01*
X111302697Y-54009515D01*
X111279248Y-54002402D01*
X111254862Y-54000000D01*
X106000000Y-54000000D01*
X106000000Y-51500000D01*
X118500000Y-51500000D01*
X118500000Y-54000000D01*
G37*
G36*
X89276468Y-55328565D02*
G01*
X89315138Y-55340296D01*
X89350777Y-55359346D01*
X89382017Y-55384983D01*
X89407654Y-55416223D01*
X89426704Y-55451862D01*
X89438435Y-55490532D01*
X89443000Y-55536888D01*
X89443000Y-56188112D01*
X89438435Y-56234468D01*
X89426704Y-56273138D01*
X89407654Y-56308777D01*
X89382017Y-56340017D01*
X89350777Y-56365654D01*
X89315138Y-56384704D01*
X89276468Y-56396435D01*
X89230112Y-56401000D01*
X88153888Y-56401000D01*
X88107532Y-56396435D01*
X88068862Y-56384704D01*
X88033223Y-56365654D01*
X88001983Y-56340017D01*
X87976346Y-56308777D01*
X87957296Y-56273138D01*
X87945565Y-56234468D01*
X87941000Y-56188112D01*
X87941000Y-55536888D01*
X87945565Y-55490532D01*
X87957296Y-55451862D01*
X87976346Y-55416223D01*
X88001983Y-55384983D01*
X88033223Y-55359346D01*
X88068862Y-55340296D01*
X88107532Y-55328565D01*
X88153888Y-55324000D01*
X89230112Y-55324000D01*
X89276468Y-55328565D01*
G37*
G36*
X74334468Y-53553565D02*
G01*
X74373138Y-53565296D01*
X74408777Y-53584346D01*
X74440017Y-53609983D01*
X74465654Y-53641223D01*
X74484704Y-53676862D01*
X74496435Y-53715532D01*
X74501000Y-53761888D01*
X74501000Y-54413112D01*
X74496435Y-54459468D01*
X74484704Y-54498138D01*
X74465654Y-54533777D01*
X74440017Y-54565017D01*
X74408777Y-54590654D01*
X74373138Y-54609704D01*
X74334468Y-54621435D01*
X74288112Y-54626000D01*
X73211888Y-54626000D01*
X73165532Y-54621435D01*
X73126862Y-54609704D01*
X73091223Y-54590654D01*
X73059983Y-54565017D01*
X73034346Y-54533777D01*
X73015296Y-54498138D01*
X73003565Y-54459468D01*
X72999000Y-54413112D01*
X72999000Y-53761888D01*
X73003565Y-53715532D01*
X73015296Y-53676862D01*
X73034346Y-53641223D01*
X73059983Y-53609983D01*
X73091223Y-53584346D01*
X73126862Y-53565296D01*
X73165532Y-53553565D01*
X73211888Y-53549000D01*
X74288112Y-53549000D01*
X74334468Y-53553565D01*
G37*
G36*
X103694000Y-54025500D02*
G01*
X102192000Y-54025500D01*
X102192000Y-53655999D01*
X102189598Y-53631613D01*
X102182485Y-53608164D01*
X102170934Y-53586553D01*
X102155389Y-53567611D01*
X102136447Y-53552066D01*
X102114836Y-53540515D01*
X102091387Y-53533402D01*
X102067001Y-53531000D01*
X101518999Y-53531000D01*
X101494613Y-53533402D01*
X101471164Y-53540515D01*
X101449553Y-53552066D01*
X101430611Y-53567611D01*
X101415066Y-53586553D01*
X101403515Y-53608164D01*
X101396402Y-53631613D01*
X101394000Y-53655999D01*
X101394000Y-54025500D01*
X99892000Y-54025500D01*
X99892000Y-53655999D01*
X99889598Y-53631613D01*
X99882485Y-53608164D01*
X99870934Y-53586553D01*
X99855389Y-53567611D01*
X99836447Y-53552066D01*
X99814836Y-53540515D01*
X99791387Y-53533402D01*
X99767001Y-53531000D01*
X98752000Y-53531000D01*
X98752000Y-52679000D01*
X99187001Y-52679000D01*
X99211387Y-52676598D01*
X99234836Y-52669485D01*
X99256447Y-52657934D01*
X99275389Y-52642389D01*
X99290934Y-52623447D01*
X99302485Y-52601836D01*
X99309598Y-52578387D01*
X99312000Y-52554001D01*
X99312000Y-52325999D01*
X99309598Y-52301613D01*
X99302485Y-52278164D01*
X99290934Y-52256553D01*
X99275389Y-52237611D01*
X99256447Y-52222066D01*
X99234836Y-52210515D01*
X99211387Y-52203402D01*
X99187001Y-52201000D01*
X98752000Y-52201000D01*
X98752000Y-51349000D01*
X103694000Y-51349000D01*
X103694000Y-54025500D01*
G37*
G36*
X124091000Y-53925500D02*
G01*
X122589000Y-53925500D01*
X122589000Y-53555999D01*
X122586598Y-53531613D01*
X122579485Y-53508164D01*
X122567934Y-53486553D01*
X122552389Y-53467611D01*
X122533447Y-53452066D01*
X122511836Y-53440515D01*
X122488387Y-53433402D01*
X122464001Y-53431000D01*
X121915999Y-53431000D01*
X121891613Y-53433402D01*
X121868164Y-53440515D01*
X121846553Y-53452066D01*
X121827611Y-53467611D01*
X121812066Y-53486553D01*
X121800515Y-53508164D01*
X121793402Y-53531613D01*
X121791000Y-53555999D01*
X121791000Y-53925500D01*
X120289000Y-53925500D01*
X120289000Y-53555999D01*
X120286598Y-53531613D01*
X120279485Y-53508164D01*
X120267934Y-53486553D01*
X120252389Y-53467611D01*
X120233447Y-53452066D01*
X120211836Y-53440515D01*
X120188387Y-53433402D01*
X120164001Y-53431000D01*
X119149000Y-53431000D01*
X119149000Y-52579000D01*
X119584001Y-52579000D01*
X119608387Y-52576598D01*
X119631836Y-52569485D01*
X119653447Y-52557934D01*
X119672389Y-52542389D01*
X119687934Y-52523447D01*
X119699485Y-52501836D01*
X119706598Y-52478387D01*
X119709000Y-52454001D01*
X119709000Y-52225999D01*
X119706598Y-52201613D01*
X119699485Y-52178164D01*
X119687934Y-52156553D01*
X119672389Y-52137611D01*
X119653447Y-52122066D01*
X119631836Y-52110515D01*
X119608387Y-52103402D01*
X119584001Y-52101000D01*
X119149000Y-52101000D01*
X119149000Y-51249000D01*
X124091000Y-51249000D01*
X124091000Y-53925500D01*
G37*
G36*
X105443000Y-53531000D02*
G01*
X104341000Y-53531000D01*
X104341000Y-52679000D01*
X105443000Y-52679000D01*
X105443000Y-53531000D01*
G37*
G36*
X125840000Y-53431000D02*
G01*
X124738000Y-53431000D01*
X124738000Y-52579000D01*
X125840000Y-52579000D01*
X125840000Y-53431000D01*
G37*
G36*
X74334468Y-51678565D02*
G01*
X74373138Y-51690296D01*
X74408777Y-51709346D01*
X74440017Y-51734983D01*
X74465654Y-51766223D01*
X74484704Y-51801862D01*
X74496435Y-51840532D01*
X74501000Y-51886888D01*
X74501000Y-52538112D01*
X74496435Y-52584468D01*
X74484704Y-52623138D01*
X74465654Y-52658777D01*
X74440017Y-52690017D01*
X74408777Y-52715654D01*
X74373138Y-52734704D01*
X74334468Y-52746435D01*
X74288112Y-52751000D01*
X73211888Y-52751000D01*
X73165532Y-52746435D01*
X73126862Y-52734704D01*
X73091223Y-52715654D01*
X73059983Y-52690017D01*
X73034346Y-52658777D01*
X73015296Y-52623138D01*
X73003565Y-52584468D01*
X72999000Y-52538112D01*
X72999000Y-51886888D01*
X73003565Y-51840532D01*
X73015296Y-51801862D01*
X73034346Y-51766223D01*
X73059983Y-51734983D01*
X73091223Y-51709346D01*
X73126862Y-51690296D01*
X73165532Y-51678565D01*
X73211888Y-51674000D01*
X74288112Y-51674000D01*
X74334468Y-51678565D01*
G37*
G36*
X53029000Y-52695000D02*
G01*
X52127000Y-52695000D01*
X52127000Y-50993000D01*
X53029000Y-50993000D01*
X53029000Y-52695000D01*
G37*
G36*
X55569000Y-52695000D02*
G01*
X54667000Y-52695000D01*
X54667000Y-50993000D01*
X55569000Y-50993000D01*
X55569000Y-52695000D01*
G37*
G36*
X58109000Y-52695000D02*
G01*
X57207000Y-52695000D01*
X57207000Y-50993000D01*
X58109000Y-50993000D01*
X58109000Y-52695000D01*
G37*
G36*
X60649000Y-52695000D02*
G01*
X59747000Y-52695000D01*
X59747000Y-50993000D01*
X60649000Y-50993000D01*
X60649000Y-52695000D01*
G37*
G36*
X79146968Y-51069565D02*
G01*
X79185638Y-51081296D01*
X79221277Y-51100346D01*
X79252517Y-51125983D01*
X79278154Y-51157223D01*
X79297204Y-51192862D01*
X79308935Y-51231532D01*
X79313500Y-51277888D01*
X79313500Y-52354112D01*
X79308935Y-52400468D01*
X79297204Y-52439138D01*
X79278154Y-52474777D01*
X79252517Y-52506017D01*
X79221277Y-52531654D01*
X79185638Y-52550704D01*
X79146968Y-52562435D01*
X79100612Y-52567000D01*
X78449388Y-52567000D01*
X78403032Y-52562435D01*
X78364362Y-52550704D01*
X78328723Y-52531654D01*
X78297483Y-52506017D01*
X78271846Y-52474777D01*
X78252796Y-52439138D01*
X78241065Y-52400468D01*
X78236500Y-52354112D01*
X78236500Y-51277888D01*
X78241065Y-51231532D01*
X78252796Y-51192862D01*
X78271846Y-51157223D01*
X78297483Y-51125983D01*
X78328723Y-51100346D01*
X78364362Y-51081296D01*
X78403032Y-51069565D01*
X78449388Y-51065000D01*
X79100612Y-51065000D01*
X79146968Y-51069565D01*
G37*
G36*
X77271968Y-51069565D02*
G01*
X77310638Y-51081296D01*
X77346277Y-51100346D01*
X77377517Y-51125983D01*
X77403154Y-51157223D01*
X77422204Y-51192862D01*
X77433935Y-51231532D01*
X77438500Y-51277888D01*
X77438500Y-52354112D01*
X77433935Y-52400468D01*
X77422204Y-52439138D01*
X77403154Y-52474777D01*
X77377517Y-52506017D01*
X77346277Y-52531654D01*
X77310638Y-52550704D01*
X77271968Y-52562435D01*
X77225612Y-52567000D01*
X76574388Y-52567000D01*
X76528032Y-52562435D01*
X76489362Y-52550704D01*
X76453723Y-52531654D01*
X76422483Y-52506017D01*
X76396846Y-52474777D01*
X76377796Y-52439138D01*
X76366065Y-52400468D01*
X76361500Y-52354112D01*
X76361500Y-51277888D01*
X76366065Y-51231532D01*
X76377796Y-51192862D01*
X76396846Y-51157223D01*
X76422483Y-51125983D01*
X76453723Y-51100346D01*
X76489362Y-51081296D01*
X76528032Y-51069565D01*
X76574388Y-51065000D01*
X77225612Y-51065000D01*
X77271968Y-51069565D01*
G37*
G36*
X84441591Y-51294085D02*
G01*
X84475569Y-51304393D01*
X84506890Y-51321134D01*
X84534339Y-51343661D01*
X84556866Y-51371110D01*
X84573607Y-51402431D01*
X84583915Y-51436409D01*
X84588000Y-51477890D01*
X84588000Y-52154110D01*
X84583915Y-52195591D01*
X84573607Y-52229569D01*
X84556866Y-52260890D01*
X84534339Y-52288339D01*
X84506890Y-52310866D01*
X84475569Y-52327607D01*
X84441591Y-52337915D01*
X84400110Y-52342000D01*
X83798890Y-52342000D01*
X83757409Y-52337915D01*
X83723431Y-52327607D01*
X83692110Y-52310866D01*
X83664661Y-52288339D01*
X83642134Y-52260890D01*
X83625393Y-52229569D01*
X83615085Y-52195591D01*
X83611000Y-52154110D01*
X83611000Y-51477890D01*
X83615085Y-51436409D01*
X83625393Y-51402431D01*
X83642134Y-51371110D01*
X83664661Y-51343661D01*
X83692110Y-51321134D01*
X83723431Y-51304393D01*
X83757409Y-51294085D01*
X83798890Y-51290000D01*
X84400110Y-51290000D01*
X84441591Y-51294085D01*
G37*
G36*
X82866591Y-51294085D02*
G01*
X82900569Y-51304393D01*
X82931890Y-51321134D01*
X82959339Y-51343661D01*
X82981866Y-51371110D01*
X82998607Y-51402431D01*
X83008915Y-51436409D01*
X83013000Y-51477890D01*
X83013000Y-52154110D01*
X83008915Y-52195591D01*
X82998607Y-52229569D01*
X82981866Y-52260890D01*
X82959339Y-52288339D01*
X82931890Y-52310866D01*
X82900569Y-52327607D01*
X82866591Y-52337915D01*
X82825110Y-52342000D01*
X82223890Y-52342000D01*
X82182409Y-52337915D01*
X82148431Y-52327607D01*
X82117110Y-52310866D01*
X82089661Y-52288339D01*
X82067134Y-52260890D01*
X82050393Y-52229569D01*
X82040085Y-52195591D01*
X82036000Y-52154110D01*
X82036000Y-51477890D01*
X82040085Y-51436409D01*
X82050393Y-51402431D01*
X82067134Y-51371110D01*
X82089661Y-51343661D01*
X82117110Y-51321134D01*
X82148431Y-51304393D01*
X82182409Y-51294085D01*
X82223890Y-51290000D01*
X82825110Y-51290000D01*
X82866591Y-51294085D01*
G37*
G36*
X105443000Y-52261000D02*
G01*
X104341000Y-52261000D01*
X104341000Y-51409000D01*
X105443000Y-51409000D01*
X105443000Y-52261000D01*
G37*
G36*
X125840000Y-52161000D02*
G01*
X124738000Y-52161000D01*
X124738000Y-51309000D01*
X125840000Y-51309000D01*
X125840000Y-52161000D01*
G37*
G36*
X101394000Y-48744001D02*
G01*
X101396402Y-48768387D01*
X101403515Y-48791836D01*
X101415066Y-48813447D01*
X101430611Y-48832389D01*
X101449553Y-48847934D01*
X101471164Y-48859485D01*
X101494613Y-48866598D01*
X101518999Y-48869000D01*
X102067001Y-48869000D01*
X102091387Y-48866598D01*
X102114836Y-48859485D01*
X102136447Y-48847934D01*
X102155389Y-48832389D01*
X102170934Y-48813447D01*
X102182485Y-48791836D01*
X102189598Y-48768387D01*
X102192000Y-48744001D01*
X102192000Y-48374500D01*
X103694000Y-48374500D01*
X103694000Y-51051000D01*
X98752000Y-51051000D01*
X98752000Y-50199000D01*
X99187001Y-50199000D01*
X99211387Y-50196598D01*
X99234836Y-50189485D01*
X99256447Y-50177934D01*
X99275389Y-50162389D01*
X99290934Y-50143447D01*
X99302485Y-50121836D01*
X99309598Y-50098387D01*
X99312000Y-50074001D01*
X99312000Y-49845999D01*
X99309598Y-49821613D01*
X99302485Y-49798164D01*
X99290934Y-49776553D01*
X99275389Y-49757611D01*
X99256447Y-49742066D01*
X99234836Y-49730515D01*
X99211387Y-49723402D01*
X99187001Y-49721000D01*
X98752000Y-49721000D01*
X98752000Y-48869000D01*
X99767001Y-48869000D01*
X99791387Y-48866598D01*
X99814836Y-48859485D01*
X99836447Y-48847934D01*
X99855389Y-48832389D01*
X99870934Y-48813447D01*
X99882485Y-48791836D01*
X99889598Y-48768387D01*
X99892000Y-48744001D01*
X99892000Y-48374500D01*
X101394000Y-48374500D01*
X101394000Y-48744001D01*
G37*
G36*
X105443000Y-50991000D02*
G01*
X104341000Y-50991000D01*
X104341000Y-50139000D01*
X105443000Y-50139000D01*
X105443000Y-50991000D01*
G37*
G36*
X121791000Y-48644001D02*
G01*
X121793402Y-48668387D01*
X121800515Y-48691836D01*
X121812066Y-48713447D01*
X121827611Y-48732389D01*
X121846553Y-48747934D01*
X121868164Y-48759485D01*
X121891613Y-48766598D01*
X121915999Y-48769000D01*
X122464001Y-48769000D01*
X122488387Y-48766598D01*
X122511836Y-48759485D01*
X122533447Y-48747934D01*
X122552389Y-48732389D01*
X122567934Y-48713447D01*
X122579485Y-48691836D01*
X122586598Y-48668387D01*
X122589000Y-48644001D01*
X122589000Y-48274500D01*
X124091000Y-48274500D01*
X124091000Y-50951000D01*
X119149000Y-50951000D01*
X119149000Y-50099000D01*
X119584001Y-50099000D01*
X119608387Y-50096598D01*
X119631836Y-50089485D01*
X119653447Y-50077934D01*
X119672389Y-50062389D01*
X119687934Y-50043447D01*
X119699485Y-50021836D01*
X119706598Y-49998387D01*
X119709000Y-49974001D01*
X119709000Y-49745999D01*
X119706598Y-49721613D01*
X119699485Y-49698164D01*
X119687934Y-49676553D01*
X119672389Y-49657611D01*
X119653447Y-49642066D01*
X119631836Y-49630515D01*
X119608387Y-49623402D01*
X119584001Y-49621000D01*
X119149000Y-49621000D01*
X119149000Y-48769000D01*
X120164001Y-48769000D01*
X120188387Y-48766598D01*
X120211836Y-48759485D01*
X120233447Y-48747934D01*
X120252389Y-48732389D01*
X120267934Y-48713447D01*
X120279485Y-48691836D01*
X120286598Y-48668387D01*
X120289000Y-48644001D01*
X120289000Y-48274500D01*
X121791000Y-48274500D01*
X121791000Y-48644001D01*
G37*
G36*
X125840000Y-50891000D02*
G01*
X124738000Y-50891000D01*
X124738000Y-50039000D01*
X125840000Y-50039000D01*
X125840000Y-50891000D01*
G37*
G36*
X114407430Y-45048978D02*
G01*
X114658684Y-45098955D01*
X114854752Y-45180169D01*
X115132034Y-45295023D01*
X115132035Y-45295024D01*
X115558041Y-45579671D01*
X115920329Y-45941959D01*
X116003461Y-46066376D01*
X116204977Y-46367966D01*
X116401045Y-46841317D01*
X116501000Y-47343823D01*
X116501000Y-47861844D01*
X116499704Y-47874996D01*
X116502105Y-47899382D01*
X116509217Y-47922831D01*
X116520767Y-47944442D01*
X116536312Y-47963385D01*
X116555253Y-47978931D01*
X116576863Y-47990483D01*
X116600312Y-47997597D01*
X116624703Y-48000000D01*
X118500000Y-48000000D01*
X118500000Y-50500000D01*
X106000000Y-50500000D01*
X106000000Y-48000000D01*
X111175297Y-48000000D01*
X111199683Y-47997598D01*
X111223132Y-47990485D01*
X111244743Y-47978934D01*
X111263685Y-47963389D01*
X111279230Y-47944447D01*
X111290781Y-47922836D01*
X111297894Y-47899387D01*
X111300296Y-47875001D01*
X111299000Y-47861846D01*
X111299000Y-47343823D01*
X111398955Y-46841317D01*
X111595023Y-46367966D01*
X111796539Y-46066376D01*
X111879671Y-45941959D01*
X112241959Y-45579671D01*
X112667965Y-45295024D01*
X112667966Y-45295023D01*
X112945248Y-45180169D01*
X113141316Y-45098955D01*
X113392570Y-45048978D01*
X113643823Y-44999000D01*
X114156177Y-44999000D01*
X114407430Y-45048978D01*
G37*
G36*
X105443000Y-49721000D02*
G01*
X104341000Y-49721000D01*
X104341000Y-48869000D01*
X105443000Y-48869000D01*
X105443000Y-49721000D01*
G37*
G36*
X125840000Y-49621000D02*
G01*
X124738000Y-49621000D01*
X124738000Y-48769000D01*
X125840000Y-48769000D01*
X125840000Y-49621000D01*
G37*
G36*
X73570400Y-46101000D02*
G01*
X71768400Y-46101000D01*
X71768400Y-44299000D01*
X73570400Y-44299000D01*
X73570400Y-46101000D01*
G37*
G36*
X87311800Y-46101000D02*
G01*
X85509800Y-46101000D01*
X85509800Y-44299000D01*
X87311800Y-44299000D01*
X87311800Y-46101000D01*
G37*
G36*
X70242912Y-44303927D02*
G01*
X70392212Y-44333624D01*
X70556184Y-44401544D01*
X70703754Y-44500147D01*
X70829253Y-44625646D01*
X70927856Y-44773216D01*
X70995776Y-44937188D01*
X71012075Y-45019133D01*
X71030400Y-45111258D01*
X71030400Y-45288742D01*
X71029150Y-45295024D01*
X70995776Y-45462812D01*
X70927856Y-45626784D01*
X70829253Y-45774354D01*
X70703754Y-45899853D01*
X70556184Y-45998456D01*
X70392212Y-46066376D01*
X70242912Y-46096073D01*
X70218142Y-46101000D01*
X70040658Y-46101000D01*
X70015888Y-46096073D01*
X69866588Y-46066376D01*
X69702616Y-45998456D01*
X69555046Y-45899853D01*
X69429547Y-45774354D01*
X69330944Y-45626784D01*
X69263024Y-45462812D01*
X69229650Y-45295024D01*
X69228400Y-45288742D01*
X69228400Y-45111258D01*
X69246725Y-45019133D01*
X69263024Y-44937188D01*
X69330944Y-44773216D01*
X69429547Y-44625646D01*
X69555046Y-44500147D01*
X69702616Y-44401544D01*
X69866588Y-44333624D01*
X70015888Y-44303927D01*
X70040658Y-44299000D01*
X70218142Y-44299000D01*
X70242912Y-44303927D01*
G37*
G36*
X67702912Y-44303927D02*
G01*
X67852212Y-44333624D01*
X68016184Y-44401544D01*
X68163754Y-44500147D01*
X68289253Y-44625646D01*
X68387856Y-44773216D01*
X68455776Y-44937188D01*
X68472075Y-45019133D01*
X68490400Y-45111258D01*
X68490400Y-45288742D01*
X68489150Y-45295024D01*
X68455776Y-45462812D01*
X68387856Y-45626784D01*
X68289253Y-45774354D01*
X68163754Y-45899853D01*
X68016184Y-45998456D01*
X67852212Y-46066376D01*
X67702912Y-46096073D01*
X67678142Y-46101000D01*
X67500658Y-46101000D01*
X67475888Y-46096073D01*
X67326588Y-46066376D01*
X67162616Y-45998456D01*
X67015046Y-45899853D01*
X66889547Y-45774354D01*
X66790944Y-45626784D01*
X66723024Y-45462812D01*
X66689650Y-45295024D01*
X66688400Y-45288742D01*
X66688400Y-45111258D01*
X66706725Y-45019133D01*
X66723024Y-44937188D01*
X66790944Y-44773216D01*
X66889547Y-44625646D01*
X67015046Y-44500147D01*
X67162616Y-44401544D01*
X67326588Y-44333624D01*
X67475888Y-44303927D01*
X67500658Y-44299000D01*
X67678142Y-44299000D01*
X67702912Y-44303927D01*
G37*
G36*
X78904312Y-44303927D02*
G01*
X79053612Y-44333624D01*
X79217584Y-44401544D01*
X79365154Y-44500147D01*
X79490653Y-44625646D01*
X79589256Y-44773216D01*
X79657176Y-44937188D01*
X79673475Y-45019133D01*
X79691800Y-45111258D01*
X79691800Y-45288742D01*
X79690550Y-45295024D01*
X79657176Y-45462812D01*
X79589256Y-45626784D01*
X79490653Y-45774354D01*
X79365154Y-45899853D01*
X79217584Y-45998456D01*
X79053612Y-46066376D01*
X78904312Y-46096073D01*
X78879542Y-46101000D01*
X78702058Y-46101000D01*
X78677288Y-46096073D01*
X78527988Y-46066376D01*
X78364016Y-45998456D01*
X78216446Y-45899853D01*
X78090947Y-45774354D01*
X77992344Y-45626784D01*
X77924424Y-45462812D01*
X77891050Y-45295024D01*
X77889800Y-45288742D01*
X77889800Y-45111258D01*
X77908125Y-45019133D01*
X77924424Y-44937188D01*
X77992344Y-44773216D01*
X78090947Y-44625646D01*
X78216446Y-44500147D01*
X78364016Y-44401544D01*
X78527988Y-44333624D01*
X78677288Y-44303927D01*
X78702058Y-44299000D01*
X78879542Y-44299000D01*
X78904312Y-44303927D01*
G37*
G36*
X81444312Y-44303927D02*
G01*
X81593612Y-44333624D01*
X81757584Y-44401544D01*
X81905154Y-44500147D01*
X82030653Y-44625646D01*
X82129256Y-44773216D01*
X82197176Y-44937188D01*
X82213475Y-45019133D01*
X82231800Y-45111258D01*
X82231800Y-45288742D01*
X82230550Y-45295024D01*
X82197176Y-45462812D01*
X82129256Y-45626784D01*
X82030653Y-45774354D01*
X81905154Y-45899853D01*
X81757584Y-45998456D01*
X81593612Y-46066376D01*
X81444312Y-46096073D01*
X81419542Y-46101000D01*
X81242058Y-46101000D01*
X81217288Y-46096073D01*
X81067988Y-46066376D01*
X80904016Y-45998456D01*
X80756446Y-45899853D01*
X80630947Y-45774354D01*
X80532344Y-45626784D01*
X80464424Y-45462812D01*
X80431050Y-45295024D01*
X80429800Y-45288742D01*
X80429800Y-45111258D01*
X80448125Y-45019133D01*
X80464424Y-44937188D01*
X80532344Y-44773216D01*
X80630947Y-44625646D01*
X80756446Y-44500147D01*
X80904016Y-44401544D01*
X81067988Y-44333624D01*
X81217288Y-44303927D01*
X81242058Y-44299000D01*
X81419542Y-44299000D01*
X81444312Y-44303927D01*
G37*
G36*
X76364312Y-44303927D02*
G01*
X76513612Y-44333624D01*
X76677584Y-44401544D01*
X76825154Y-44500147D01*
X76950653Y-44625646D01*
X77049256Y-44773216D01*
X77117176Y-44937188D01*
X77133475Y-45019133D01*
X77151800Y-45111258D01*
X77151800Y-45288742D01*
X77150550Y-45295024D01*
X77117176Y-45462812D01*
X77049256Y-45626784D01*
X76950653Y-45774354D01*
X76825154Y-45899853D01*
X76677584Y-45998456D01*
X76513612Y-46066376D01*
X76364312Y-46096073D01*
X76339542Y-46101000D01*
X76162058Y-46101000D01*
X76137288Y-46096073D01*
X75987988Y-46066376D01*
X75824016Y-45998456D01*
X75676446Y-45899853D01*
X75550947Y-45774354D01*
X75452344Y-45626784D01*
X75384424Y-45462812D01*
X75351050Y-45295024D01*
X75349800Y-45288742D01*
X75349800Y-45111258D01*
X75368125Y-45019133D01*
X75384424Y-44937188D01*
X75452344Y-44773216D01*
X75550947Y-44625646D01*
X75676446Y-44500147D01*
X75824016Y-44401544D01*
X75987988Y-44333624D01*
X76137288Y-44303927D01*
X76162058Y-44299000D01*
X76339542Y-44299000D01*
X76364312Y-44303927D01*
G37*
G36*
X83984312Y-44303927D02*
G01*
X84133612Y-44333624D01*
X84297584Y-44401544D01*
X84445154Y-44500147D01*
X84570653Y-44625646D01*
X84669256Y-44773216D01*
X84737176Y-44937188D01*
X84753475Y-45019133D01*
X84771800Y-45111258D01*
X84771800Y-45288742D01*
X84770550Y-45295024D01*
X84737176Y-45462812D01*
X84669256Y-45626784D01*
X84570653Y-45774354D01*
X84445154Y-45899853D01*
X84297584Y-45998456D01*
X84133612Y-46066376D01*
X83984312Y-46096073D01*
X83959542Y-46101000D01*
X83782058Y-46101000D01*
X83757288Y-46096073D01*
X83607988Y-46066376D01*
X83444016Y-45998456D01*
X83296446Y-45899853D01*
X83170947Y-45774354D01*
X83072344Y-45626784D01*
X83004424Y-45462812D01*
X82971050Y-45295024D01*
X82969800Y-45288742D01*
X82969800Y-45111258D01*
X82988125Y-45019133D01*
X83004424Y-44937188D01*
X83072344Y-44773216D01*
X83170947Y-44625646D01*
X83296446Y-44500147D01*
X83444016Y-44401544D01*
X83607988Y-44333624D01*
X83757288Y-44303927D01*
X83782058Y-44299000D01*
X83959542Y-44299000D01*
X83984312Y-44303927D01*
G37*
G36*
X120628571Y-43652863D02*
G01*
X120707023Y-43660590D01*
X120807682Y-43691125D01*
X120858013Y-43706392D01*
X120997165Y-43780771D01*
X121119133Y-43880867D01*
X121219229Y-44002835D01*
X121293608Y-44141987D01*
X121293608Y-44141988D01*
X121339410Y-44292977D01*
X121354875Y-44450000D01*
X121339410Y-44607023D01*
X121333760Y-44625647D01*
X121293608Y-44758013D01*
X121219229Y-44897165D01*
X121119133Y-45019133D01*
X120997165Y-45119229D01*
X120858013Y-45193608D01*
X120807682Y-45208875D01*
X120707023Y-45239410D01*
X120628571Y-45247137D01*
X120589346Y-45251000D01*
X119210654Y-45251000D01*
X119171429Y-45247137D01*
X119092977Y-45239410D01*
X118992318Y-45208875D01*
X118941987Y-45193608D01*
X118802835Y-45119229D01*
X118680867Y-45019133D01*
X118580771Y-44897165D01*
X118506392Y-44758013D01*
X118466240Y-44625647D01*
X118460590Y-44607023D01*
X118445125Y-44450000D01*
X118460590Y-44292977D01*
X118506392Y-44141988D01*
X118506392Y-44141987D01*
X118580771Y-44002835D01*
X118680867Y-43880867D01*
X118802835Y-43780771D01*
X118941987Y-43706392D01*
X118992318Y-43691125D01*
X119092977Y-43660590D01*
X119171429Y-43652863D01*
X119210654Y-43649000D01*
X120589346Y-43649000D01*
X120628571Y-43652863D01*
G37*
G36*
X108628571Y-43652863D02*
G01*
X108707023Y-43660590D01*
X108807682Y-43691125D01*
X108858013Y-43706392D01*
X108997165Y-43780771D01*
X109119133Y-43880867D01*
X109219229Y-44002835D01*
X109293608Y-44141987D01*
X109293608Y-44141988D01*
X109339410Y-44292977D01*
X109354875Y-44450000D01*
X109339410Y-44607023D01*
X109333760Y-44625647D01*
X109293608Y-44758013D01*
X109219229Y-44897165D01*
X109119133Y-45019133D01*
X108997165Y-45119229D01*
X108858013Y-45193608D01*
X108807682Y-45208875D01*
X108707023Y-45239410D01*
X108628571Y-45247137D01*
X108589346Y-45251000D01*
X107210654Y-45251000D01*
X107171429Y-45247137D01*
X107092977Y-45239410D01*
X106992318Y-45208875D01*
X106941987Y-45193608D01*
X106802835Y-45119229D01*
X106680867Y-45019133D01*
X106580771Y-44897165D01*
X106506392Y-44758013D01*
X106466240Y-44625647D01*
X106460590Y-44607023D01*
X106445125Y-44450000D01*
X106460590Y-44292977D01*
X106506392Y-44141988D01*
X106506392Y-44141987D01*
X106580771Y-44002835D01*
X106680867Y-43880867D01*
X106802835Y-43780771D01*
X106941987Y-43706392D01*
X106992318Y-43691125D01*
X107092977Y-43660590D01*
X107171429Y-43652863D01*
X107210654Y-43649000D01*
X108589346Y-43649000D01*
X108628571Y-43652863D01*
G37*
G36*
X53029000Y-43595000D02*
G01*
X52127000Y-43595000D01*
X52127000Y-41893000D01*
X53029000Y-41893000D01*
X53029000Y-43595000D01*
G37*
G36*
X60649000Y-43595000D02*
G01*
X59747000Y-43595000D01*
X59747000Y-41893000D01*
X60649000Y-41893000D01*
X60649000Y-43595000D01*
G37*
G36*
X58109000Y-43595000D02*
G01*
X57207000Y-43595000D01*
X57207000Y-41893000D01*
X58109000Y-41893000D01*
X58109000Y-43595000D01*
G37*
G36*
X55569000Y-43595000D02*
G01*
X54667000Y-43595000D01*
X54667000Y-41893000D01*
X55569000Y-41893000D01*
X55569000Y-43595000D01*
G37*
G36*
X103167091Y-41778085D02*
G01*
X103201069Y-41788393D01*
X103232390Y-41805134D01*
X103259839Y-41827661D01*
X103282366Y-41855110D01*
X103299107Y-41886431D01*
X103309415Y-41920409D01*
X103313500Y-41961890D01*
X103313500Y-42638110D01*
X103309415Y-42679591D01*
X103299107Y-42713569D01*
X103282366Y-42744890D01*
X103259839Y-42772339D01*
X103232390Y-42794866D01*
X103201069Y-42811607D01*
X103167091Y-42821915D01*
X103125610Y-42826000D01*
X102524390Y-42826000D01*
X102482909Y-42821915D01*
X102448931Y-42811607D01*
X102417610Y-42794866D01*
X102390161Y-42772339D01*
X102367634Y-42744890D01*
X102350893Y-42713569D01*
X102340585Y-42679591D01*
X102336500Y-42638110D01*
X102336500Y-41961890D01*
X102340585Y-41920409D01*
X102350893Y-41886431D01*
X102367634Y-41855110D01*
X102390161Y-41827661D01*
X102417610Y-41805134D01*
X102448931Y-41788393D01*
X102482909Y-41778085D01*
X102524390Y-41774000D01*
X103125610Y-41774000D01*
X103167091Y-41778085D01*
G37*
G36*
X104742091Y-41778085D02*
G01*
X104776069Y-41788393D01*
X104807390Y-41805134D01*
X104834839Y-41827661D01*
X104857366Y-41855110D01*
X104874107Y-41886431D01*
X104884415Y-41920409D01*
X104888500Y-41961890D01*
X104888500Y-42638110D01*
X104884415Y-42679591D01*
X104874107Y-42713569D01*
X104857366Y-42744890D01*
X104834839Y-42772339D01*
X104807390Y-42794866D01*
X104776069Y-42811607D01*
X104742091Y-42821915D01*
X104700610Y-42826000D01*
X104099390Y-42826000D01*
X104057909Y-42821915D01*
X104023931Y-42811607D01*
X103992610Y-42794866D01*
X103965161Y-42772339D01*
X103942634Y-42744890D01*
X103925893Y-42713569D01*
X103915585Y-42679591D01*
X103911500Y-42638110D01*
X103911500Y-41961890D01*
X103915585Y-41920409D01*
X103925893Y-41886431D01*
X103942634Y-41855110D01*
X103965161Y-41827661D01*
X103992610Y-41805134D01*
X104023931Y-41788393D01*
X104057909Y-41778085D01*
X104099390Y-41774000D01*
X104700610Y-41774000D01*
X104742091Y-41778085D01*
G37*
G36*
X124817091Y-40978085D02*
G01*
X124851069Y-40988393D01*
X124882390Y-41005134D01*
X124909839Y-41027661D01*
X124932366Y-41055110D01*
X124949107Y-41086431D01*
X124959415Y-41120409D01*
X124963500Y-41161890D01*
X124963500Y-41838110D01*
X124959415Y-41879591D01*
X124949107Y-41913569D01*
X124932366Y-41944890D01*
X124909839Y-41972339D01*
X124882390Y-41994866D01*
X124851069Y-42011607D01*
X124817091Y-42021915D01*
X124775610Y-42026000D01*
X124174390Y-42026000D01*
X124132909Y-42021915D01*
X124098931Y-42011607D01*
X124067610Y-41994866D01*
X124040161Y-41972339D01*
X124017634Y-41944890D01*
X124000893Y-41913569D01*
X123990585Y-41879591D01*
X123986500Y-41838110D01*
X123986500Y-41161890D01*
X123990585Y-41120409D01*
X124000893Y-41086431D01*
X124017634Y-41055110D01*
X124040161Y-41027661D01*
X124067610Y-41005134D01*
X124098931Y-40988393D01*
X124132909Y-40978085D01*
X124174390Y-40974000D01*
X124775610Y-40974000D01*
X124817091Y-40978085D01*
G37*
G36*
X123242091Y-40978085D02*
G01*
X123276069Y-40988393D01*
X123307390Y-41005134D01*
X123334839Y-41027661D01*
X123357366Y-41055110D01*
X123374107Y-41086431D01*
X123384415Y-41120409D01*
X123388500Y-41161890D01*
X123388500Y-41838110D01*
X123384415Y-41879591D01*
X123374107Y-41913569D01*
X123357366Y-41944890D01*
X123334839Y-41972339D01*
X123307390Y-41994866D01*
X123276069Y-42011607D01*
X123242091Y-42021915D01*
X123200610Y-42026000D01*
X122599390Y-42026000D01*
X122557909Y-42021915D01*
X122523931Y-42011607D01*
X122492610Y-41994866D01*
X122465161Y-41972339D01*
X122442634Y-41944890D01*
X122425893Y-41913569D01*
X122415585Y-41879591D01*
X122411500Y-41838110D01*
X122411500Y-41161890D01*
X122415585Y-41120409D01*
X122425893Y-41086431D01*
X122442634Y-41055110D01*
X122465161Y-41027661D01*
X122492610Y-41005134D01*
X122523931Y-40988393D01*
X122557909Y-40978085D01*
X122599390Y-40974000D01*
X123200610Y-40974000D01*
X123242091Y-40978085D01*
G37*
G36*
X127767091Y-40578085D02*
G01*
X127801069Y-40588393D01*
X127832390Y-40605134D01*
X127859839Y-40627661D01*
X127882366Y-40655110D01*
X127899107Y-40686431D01*
X127909415Y-40720409D01*
X127913500Y-40761890D01*
X127913500Y-41438110D01*
X127909415Y-41479591D01*
X127899107Y-41513569D01*
X127882366Y-41544890D01*
X127859839Y-41572339D01*
X127832390Y-41594866D01*
X127801069Y-41611607D01*
X127767091Y-41621915D01*
X127725610Y-41626000D01*
X127124390Y-41626000D01*
X127082909Y-41621915D01*
X127048931Y-41611607D01*
X127017610Y-41594866D01*
X126990161Y-41572339D01*
X126967634Y-41544890D01*
X126950893Y-41513569D01*
X126940585Y-41479591D01*
X126936500Y-41438110D01*
X126936500Y-40761890D01*
X126940585Y-40720409D01*
X126950893Y-40686431D01*
X126967634Y-40655110D01*
X126990161Y-40627661D01*
X127017610Y-40605134D01*
X127048931Y-40588393D01*
X127082909Y-40578085D01*
X127124390Y-40574000D01*
X127725610Y-40574000D01*
X127767091Y-40578085D01*
G37*
G36*
X129342091Y-40578085D02*
G01*
X129376069Y-40588393D01*
X129407390Y-40605134D01*
X129434839Y-40627661D01*
X129457366Y-40655110D01*
X129474107Y-40686431D01*
X129484415Y-40720409D01*
X129488500Y-40761890D01*
X129488500Y-41438110D01*
X129484415Y-41479591D01*
X129474107Y-41513569D01*
X129457366Y-41544890D01*
X129434839Y-41572339D01*
X129407390Y-41594866D01*
X129376069Y-41611607D01*
X129342091Y-41621915D01*
X129300610Y-41626000D01*
X128699390Y-41626000D01*
X128657909Y-41621915D01*
X128623931Y-41611607D01*
X128592610Y-41594866D01*
X128565161Y-41572339D01*
X128542634Y-41544890D01*
X128525893Y-41513569D01*
X128515585Y-41479591D01*
X128511500Y-41438110D01*
X128511500Y-40761890D01*
X128515585Y-40720409D01*
X128525893Y-40686431D01*
X128542634Y-40655110D01*
X128565161Y-40627661D01*
X128592610Y-40605134D01*
X128623931Y-40588393D01*
X128657909Y-40578085D01*
X128699390Y-40574000D01*
X129300610Y-40574000D01*
X129342091Y-40578085D01*
G37*
M02*
