M48
; DRILL file {KiCad (5.1.5)-3} date 2020/02/01 14:08:18
; FORMAT={-:-/ absolute / metric / decimal}
; #@! TF.CreationDate,2020-02-01T14:08:18+09:00
; #@! TF.GenerationSoftware,Kicad,Pcbnew,(5.1.5)-3
; #@! TF.FileFunction,Plated,1,2,PTH
FMAT,2
METRIC
T1C0.300
T2C0.400
T3C0.800
T4C0.850
T5C1.000
T6C3.400
%
G90
G05
T1
X115.97Y-133.53
X117.0Y-57.0
X117.0Y-59.0
X117.0Y-61.0
X117.0Y-63.0
X117.0Y-65.0
X117.0Y-67.0
X117.0Y-69.0
X117.0Y-71.0
X117.0Y-73.0
X117.0Y-75.0
X117.0Y-77.0
X117.0Y-79.0
X117.0Y-81.0
X117.0Y-83.0
X117.0Y-85.0
X117.0Y-87.0
X117.0Y-98.0
X117.0Y-104.0
X117.0Y-111.8
X117.0Y-119.0
X117.0Y-122.5
X117.3Y-130.7
X118.0Y-47.0
X118.0Y-49.0
X118.0Y-51.0
X118.0Y-53.0
X118.0Y-55.0
X118.0Y-133.2
X118.3Y-91.0
X119.0Y-57.0
X119.0Y-59.0
X119.0Y-61.0
X119.0Y-63.0
X119.0Y-65.0
X119.0Y-67.0
X119.0Y-69.0
X119.0Y-71.0
X119.0Y-73.0
X119.0Y-75.0
X119.0Y-77.0
X119.0Y-79.0
X119.0Y-81.0
X119.0Y-83.0
X119.0Y-85.0
X119.0Y-87.0
X119.9Y-117.9
X120.0Y-47.0
X120.0Y-49.0
X120.0Y-51.0
X120.0Y-53.0
X120.0Y-55.0
X120.2Y-97.2
X120.25Y-106.0
X120.95Y-58.25
X120.95Y-59.25
X120.95Y-60.25
X120.95Y-61.25
X120.95Y-62.25
X120.95Y-63.25
X120.95Y-64.25
X120.95Y-65.25
X120.95Y-66.25
X120.95Y-67.25
X120.95Y-68.25
X120.95Y-69.25
X121.05Y-75.65
X121.05Y-76.65
X121.05Y-77.65
X121.05Y-78.65
X121.05Y-79.65
X121.05Y-80.65
X121.05Y-81.65
X121.05Y-82.65
X121.05Y-83.65
X121.05Y-84.65
X121.05Y-85.65
X121.05Y-86.65
X121.95Y-58.25
X121.95Y-59.25
X121.95Y-60.25
X121.95Y-61.25
X121.95Y-62.25
X121.95Y-63.25
X121.95Y-64.25
X121.95Y-65.25
X121.95Y-66.25
X121.95Y-67.25
X121.95Y-68.25
X121.95Y-69.25
X122.0Y-47.0
X122.0Y-49.0
X122.0Y-51.0
X122.0Y-53.0
X122.0Y-55.0
X122.0Y-73.0
X122.0Y-130.1
X122.05Y-75.65
X122.05Y-76.65
X122.05Y-77.65
X122.05Y-78.65
X122.05Y-79.65
X122.05Y-80.65
X122.05Y-81.65
X122.05Y-82.65
X122.05Y-83.65
X122.05Y-84.65
X122.05Y-85.65
X122.05Y-86.65
X122.1Y-119.2
X122.1Y-132.9
X122.2Y-123.9
X122.5Y-103.7
X122.95Y-58.25
X122.95Y-59.25
X122.95Y-60.25
X122.95Y-67.25
X122.95Y-68.25
X122.95Y-69.25
X123.0Y-110.9
X123.05Y-75.65
X123.05Y-76.65
X123.05Y-77.65
X123.05Y-84.65
X123.05Y-85.65
X123.05Y-86.65
X123.7Y-119.2
X124.0Y-47.0
X124.0Y-49.0
X124.0Y-51.0
X124.0Y-53.0
X124.8Y-120.2
X124.9Y-58.3
X124.9Y-59.3
X124.9Y-60.3
X124.9Y-62.05
X124.9Y-63.05
X124.9Y-64.55
X124.9Y-65.55
X124.9Y-67.3
X124.9Y-68.3
X124.9Y-69.3
X124.9Y-75.7
X124.9Y-76.7
X124.9Y-77.7
X124.9Y-79.45
X124.9Y-80.45
X124.9Y-81.95
X124.9Y-82.95
X124.9Y-84.7
X124.9Y-85.7
X124.9Y-86.7
X125.3Y-132.9
X125.5Y-112.5
X125.9Y-58.3
X125.9Y-59.3
X125.9Y-60.3
X125.9Y-67.3
X125.9Y-68.3
X125.9Y-69.3
X125.9Y-75.7
X125.9Y-76.7
X125.9Y-77.7
X125.9Y-84.7
X125.9Y-85.7
X125.9Y-86.7
X126.0Y-47.0
X126.0Y-49.0
X126.0Y-51.0
X126.0Y-53.0
X126.0Y-62.05
X126.0Y-63.05
X126.0Y-64.55
X126.0Y-65.55
X126.0Y-79.45
X126.0Y-80.45
X126.0Y-81.95
X126.0Y-82.95
X126.0Y-96.2
X126.2Y-114.7
X126.6Y-115.9
X126.75Y-129.2
X126.9Y-58.3
X126.9Y-59.3
X126.9Y-60.3
X126.9Y-67.3
X126.9Y-68.3
X126.9Y-69.3
X126.9Y-75.7
X126.9Y-76.7
X126.9Y-77.7
X126.9Y-84.7
X126.9Y-85.7
X126.9Y-86.7
X127.1Y-62.05
X127.1Y-63.05
X127.1Y-64.55
X127.1Y-65.55
X127.1Y-79.45
X127.1Y-80.45
X127.1Y-81.95
X127.1Y-82.95
X127.4Y-107.4
X127.9Y-58.3
X127.9Y-59.3
X127.9Y-60.3
X127.9Y-67.3
X127.9Y-68.3
X127.9Y-69.3
X127.9Y-75.7
X127.9Y-76.7
X127.9Y-77.7
X127.9Y-84.7
X127.9Y-85.7
X127.9Y-86.7
X128.0Y-47.0
X128.0Y-49.0
X128.0Y-51.0
X128.0Y-53.0
X128.2Y-62.05
X128.2Y-63.05
X128.2Y-64.55
X128.2Y-65.55
X128.2Y-79.45
X128.2Y-80.45
X128.2Y-81.95
X128.2Y-82.95
X128.9Y-59.3
X128.9Y-60.3
X128.9Y-67.3
X128.9Y-68.3
X128.9Y-76.7
X128.9Y-77.7
X128.9Y-84.7
X128.9Y-85.7
X129.0Y-105.1
X129.2Y-108.3
X129.2Y-109.2
X129.8Y-121.3
X129.9Y-59.3
X129.9Y-60.3
X129.9Y-61.3
X129.9Y-62.3
X129.9Y-63.3
X129.9Y-64.3
X129.9Y-65.3
X129.9Y-66.3
X129.9Y-67.3
X129.9Y-68.3
X129.9Y-76.7
X129.9Y-77.7
X129.9Y-78.7
X129.9Y-79.7
X129.9Y-80.7
X129.9Y-81.7
X129.9Y-82.7
X129.9Y-83.7
X129.9Y-84.7
X129.9Y-85.7
X130.0Y-47.0
X130.0Y-49.0
X130.0Y-51.0
X130.0Y-53.0
X130.1Y-128.8
X130.9Y-59.3
X130.9Y-60.3
X130.9Y-61.3
X130.9Y-62.3
X130.9Y-63.3
X130.9Y-64.3
X130.9Y-65.3
X130.9Y-66.3
X130.9Y-67.3
X130.9Y-68.3
X130.9Y-76.7
X130.9Y-77.7
X130.9Y-78.7
X130.9Y-79.7
X130.9Y-80.7
X130.9Y-81.7
X130.9Y-82.7
X130.9Y-83.7
X130.9Y-84.7
X130.9Y-85.7
X130.9Y-101.2
X131.0Y-105.1
X131.0Y-131.0
X131.0Y-133.0
X131.55Y-118.4
X131.7Y-128.0
X131.9Y-58.3
X131.9Y-59.3
X131.9Y-60.3
X131.9Y-61.3
X131.9Y-62.3
X131.9Y-63.3
X131.9Y-64.3
X131.9Y-65.3
X131.9Y-66.3
X131.9Y-67.3
X131.9Y-68.3
X131.9Y-69.3
X131.9Y-75.7
X131.9Y-76.7
X131.9Y-77.7
X131.9Y-78.7
X131.9Y-79.7
X131.9Y-80.7
X131.9Y-81.7
X131.9Y-82.7
X131.9Y-83.7
X131.9Y-84.7
X131.9Y-85.7
X131.9Y-86.7
X132.0Y-47.0
X132.0Y-49.0
X132.0Y-51.0
X132.0Y-53.0
X133.0Y-91.3
X133.8Y-98.4
X134.0Y-47.0
X134.0Y-49.0
X134.0Y-51.0
X134.0Y-53.0
X135.0Y-129.0
X135.0Y-133.0
X135.25Y-108.75
X135.5Y-105.5
X135.75Y-118.0
X136.0Y-47.0
X136.0Y-49.0
X136.0Y-51.0
X136.0Y-53.0
X136.0Y-101.0
X138.0Y-47.0
X138.0Y-49.0
X138.0Y-51.0
X138.0Y-53.0
X139.0Y-98.1
X139.0Y-131.0
X139.0Y-133.0
X139.825Y-126.057
X140.0Y-47.0
X140.0Y-49.0
X140.0Y-51.0
X140.0Y-53.0
X140.4Y-100.2
X140.6Y-126.7
X141.0Y-133.0
X141.1Y-111.85
X141.2Y-110.95
X142.0Y-47.0
X142.0Y-49.0
X142.0Y-53.0
X142.0Y-132.0
X142.6Y-114.5
X142.9Y-59.35
X142.9Y-60.35
X142.9Y-61.35
X142.9Y-62.35
X142.9Y-63.35
X142.9Y-64.35
X142.9Y-65.35
X142.9Y-66.35
X142.9Y-67.35
X142.9Y-68.35
X143.0Y-76.75
X143.0Y-77.75
X143.0Y-78.75
X143.0Y-79.75
X143.0Y-80.75
X143.0Y-81.75
X143.0Y-82.75
X143.0Y-83.75
X143.0Y-84.75
X143.0Y-85.75
X143.0Y-129.85
X143.0Y-133.0
X143.9Y-58.35
X143.9Y-59.35
X143.9Y-60.35
X143.9Y-61.35
X143.9Y-62.35
X143.9Y-63.35
X143.9Y-64.35
X143.9Y-65.35
X143.9Y-66.35
X143.9Y-67.35
X143.9Y-68.35
X143.9Y-69.35
X144.0Y-47.0
X144.0Y-49.0
X144.0Y-75.75
X144.0Y-76.75
X144.0Y-77.75
X144.0Y-78.75
X144.0Y-79.75
X144.0Y-80.75
X144.0Y-81.75
X144.0Y-82.75
X144.0Y-83.75
X144.0Y-84.75
X144.0Y-85.75
X144.0Y-86.75
X144.0Y-132.0
X144.4Y-100.1
X144.5Y-119.5
X144.75Y-105.0
X144.75Y-106.75
X144.75Y-107.75
X144.75Y-108.75
X144.75Y-109.75
X144.75Y-110.75
X144.75Y-124.25
X144.75Y-125.25
X144.9Y-58.35
X144.9Y-59.35
X144.9Y-60.35
X144.9Y-67.35
X144.9Y-68.35
X144.9Y-69.35
X145.0Y-75.75
X145.0Y-76.75
X145.0Y-77.75
X145.0Y-84.75
X145.0Y-85.75
X145.0Y-86.75
X145.0Y-131.0
X145.0Y-133.0
X145.5Y-91.1
X145.75Y-105.0
X145.75Y-106.75
X145.75Y-107.75
X145.75Y-108.75
X145.75Y-109.75
X145.75Y-110.75
X145.75Y-121.25
X145.75Y-122.25
X145.75Y-123.25
X145.75Y-124.25
X145.75Y-125.25
X146.0Y-47.0
X146.0Y-49.0
X146.0Y-51.0
X146.0Y-132.0
X146.4Y-98.1
X146.5Y-115.2
X146.5Y-127.0
X146.7Y-128.85
X146.75Y-58.25
X146.75Y-59.25
X146.75Y-60.25
X146.75Y-62.0
X146.75Y-63.0
X146.75Y-64.5
X146.75Y-65.5
X146.75Y-67.25
X146.75Y-68.25
X146.75Y-69.25
X146.75Y-106.75
X146.75Y-107.75
X146.75Y-108.75
X146.75Y-109.75
X146.75Y-110.75
X146.75Y-121.25
X146.75Y-122.25
X146.75Y-123.25
X146.75Y-124.25
X146.75Y-125.25
X147.0Y-48.0
X147.0Y-75.75
X147.0Y-76.75
X147.0Y-77.75
X147.0Y-79.5
X147.0Y-80.5
X147.0Y-82.0
X147.0Y-83.0
X147.0Y-84.75
X147.0Y-85.75
X147.0Y-86.75
X147.0Y-131.0
X147.0Y-133.0
X147.75Y-58.25
X147.75Y-59.25
X147.75Y-60.25
X147.75Y-67.25
X147.75Y-68.25
X147.75Y-69.25
X147.85Y-62.0
X147.85Y-63.0
X147.85Y-64.5
X147.85Y-65.5
X148.0Y-47.0
X148.0Y-49.0
X148.0Y-53.0
X148.0Y-75.75
X148.0Y-76.75
X148.0Y-77.75
X148.0Y-84.75
X148.0Y-85.75
X148.0Y-86.75
X148.0Y-130.0
X148.0Y-132.0
X148.1Y-79.5
X148.1Y-80.5
X148.1Y-82.0
X148.1Y-83.0
X148.75Y-58.25
X148.75Y-59.25
X148.75Y-60.25
X148.75Y-67.25
X148.75Y-68.25
X148.75Y-69.25
X148.95Y-62.0
X148.95Y-63.0
X148.95Y-64.5
X148.95Y-65.5
X149.0Y-48.0
X149.0Y-75.75
X149.0Y-76.75
X149.0Y-77.75
X149.0Y-84.75
X149.0Y-85.75
X149.0Y-86.75
X149.0Y-129.0
X149.0Y-131.0
X149.0Y-133.0
X149.2Y-79.5
X149.2Y-80.5
X149.2Y-82.0
X149.2Y-83.0
X149.75Y-58.25
X149.75Y-59.25
X149.75Y-60.25
X149.75Y-67.25
X149.75Y-68.25
X149.75Y-69.25
X150.0Y-47.0
X150.0Y-49.0
X150.0Y-51.0
X150.0Y-53.0
X150.0Y-75.75
X150.0Y-76.75
X150.0Y-77.75
X150.0Y-84.75
X150.0Y-85.75
X150.0Y-86.75
X150.0Y-114.0
X150.0Y-115.0
X150.0Y-128.0
X150.0Y-130.0
X150.0Y-132.0
X150.05Y-62.0
X150.05Y-63.0
X150.05Y-64.5
X150.05Y-65.5
X150.175Y-108.6
X150.3Y-79.5
X150.3Y-80.5
X150.3Y-82.0
X150.3Y-83.0
X150.4Y-100.9
X150.4Y-101.8
X150.4Y-102.6
X150.5Y-118.2
X150.75Y-58.25
X150.75Y-59.25
X150.75Y-60.25
X150.75Y-67.25
X150.75Y-68.25
X150.75Y-69.25
X150.8Y-98.1
X151.0Y-48.0
X151.0Y-50.0
X151.0Y-52.0
X151.0Y-75.75
X151.0Y-76.75
X151.0Y-77.75
X151.0Y-84.75
X151.0Y-85.75
X151.0Y-86.75
X151.0Y-101.3
X151.0Y-102.2
X151.0Y-114.0
X151.0Y-115.0
X151.0Y-129.0
X151.0Y-131.0
X151.0Y-133.0
X151.75Y-58.25
X151.75Y-59.25
X151.75Y-60.25
X151.75Y-61.25
X151.75Y-62.25
X151.75Y-63.25
X151.75Y-64.25
X151.75Y-65.25
X151.75Y-66.25
X151.75Y-67.25
X151.75Y-68.25
X151.75Y-69.25
X152.0Y-47.0
X152.0Y-49.0
X152.0Y-51.0
X152.0Y-53.0
X152.0Y-75.75
X152.0Y-76.75
X152.0Y-77.75
X152.0Y-78.75
X152.0Y-79.75
X152.0Y-80.75
X152.0Y-81.75
X152.0Y-82.75
X152.0Y-83.75
X152.0Y-84.75
X152.0Y-85.75
X152.0Y-86.75
X152.0Y-114.0
X152.0Y-115.0
X152.0Y-130.0
X152.0Y-132.0
X152.1Y-109.1
X152.2Y-91.1
X152.75Y-58.25
X152.75Y-59.25
X152.75Y-60.25
X152.75Y-61.25
X152.75Y-62.25
X152.75Y-63.25
X152.75Y-64.25
X152.75Y-65.25
X152.75Y-66.25
X152.75Y-67.25
X152.75Y-68.25
X152.75Y-69.25
X153.0Y-48.0
X153.0Y-50.0
X153.0Y-52.0
X153.0Y-75.75
X153.0Y-76.75
X153.0Y-77.75
X153.0Y-78.75
X153.0Y-79.75
X153.0Y-80.75
X153.0Y-81.75
X153.0Y-82.75
X153.0Y-83.75
X153.0Y-84.75
X153.0Y-85.75
X153.0Y-86.75
X153.0Y-114.0
X153.0Y-115.0
X153.0Y-129.0
X153.0Y-131.0
X153.0Y-133.0
X153.75Y-58.25
X153.75Y-59.25
X153.75Y-60.25
X153.75Y-61.25
X153.75Y-62.25
X153.75Y-63.25
X153.75Y-64.25
X153.75Y-65.25
X153.75Y-66.25
X153.75Y-67.25
X153.75Y-68.25
X153.75Y-69.25
X154.0Y-47.0
X154.0Y-49.0
X154.0Y-51.0
X154.0Y-53.0
X154.0Y-75.75
X154.0Y-76.75
X154.0Y-77.75
X154.0Y-78.75
X154.0Y-79.75
X154.0Y-80.75
X154.0Y-81.75
X154.0Y-82.75
X154.0Y-83.75
X154.0Y-84.75
X154.0Y-85.75
X154.0Y-86.75
X154.0Y-130.0
X154.0Y-132.0
X155.0Y-48.0
X155.0Y-50.0
X155.0Y-52.0
X155.0Y-58.0
X155.0Y-62.0
X155.0Y-66.0
X155.0Y-70.0
X155.0Y-75.0
X155.0Y-79.0
X155.0Y-83.0
X155.0Y-87.0
X155.0Y-129.0
X155.0Y-131.0
X155.0Y-133.0
X156.0Y-47.0
X156.0Y-49.0
X156.0Y-51.0
X156.0Y-53.0
X156.0Y-93.0
X156.0Y-97.0
X156.0Y-101.0
X156.0Y-105.0
X156.0Y-110.0
X156.0Y-114.0
X156.0Y-118.0
X156.0Y-122.0
X156.0Y-128.0
X156.0Y-130.0
X156.0Y-132.0
X157.0Y-48.0
X157.0Y-50.0
X157.0Y-52.0
X157.0Y-60.0
X157.0Y-64.0
X157.0Y-68.0
X157.0Y-77.0
X157.0Y-81.0
X157.0Y-85.0
X157.0Y-127.0
X157.0Y-129.0
X157.0Y-131.0
X157.0Y-133.0
X158.0Y-47.0
X158.0Y-49.0
X158.0Y-51.0
X158.0Y-53.0
X158.0Y-95.0
X158.0Y-99.0
X158.0Y-103.0
X158.0Y-112.0
X158.0Y-116.0
X158.0Y-120.0
X158.0Y-128.0
X158.0Y-130.0
X158.0Y-132.0
X159.0Y-48.0
X159.0Y-50.0
X159.0Y-52.0
X159.0Y-58.0
X159.0Y-62.0
X159.0Y-66.0
X159.0Y-70.0
X159.0Y-75.0
X159.0Y-79.0
X159.0Y-83.0
X159.0Y-87.0
X159.0Y-127.0
X159.0Y-129.0
X159.0Y-131.0
X159.0Y-133.0
X160.0Y-47.0
X160.0Y-49.0
X160.0Y-51.0
X160.0Y-93.0
X160.0Y-97.0
X160.0Y-101.0
X160.0Y-105.0
X160.0Y-110.0
X160.0Y-114.0
X160.0Y-118.0
X160.0Y-122.0
X160.0Y-128.0
X160.0Y-130.0
X160.0Y-132.0
X161.0Y-48.0
X161.0Y-50.0
X161.0Y-93.25
X161.0Y-94.25
X161.0Y-95.25
X161.0Y-96.25
X161.0Y-97.25
X161.0Y-98.25
X161.0Y-99.25
X161.0Y-100.25
X161.0Y-101.25
X161.0Y-102.25
X161.0Y-103.25
X161.0Y-104.25
X161.0Y-127.0
X161.0Y-129.0
X161.0Y-131.0
X161.0Y-133.0
X161.25Y-110.75
X161.25Y-111.75
X161.25Y-112.75
X161.25Y-113.75
X161.25Y-114.75
X161.25Y-115.75
X161.25Y-116.75
X161.25Y-117.75
X161.25Y-118.75
X161.25Y-119.75
X161.25Y-120.75
X161.25Y-121.75
X162.0Y-47.0
X162.0Y-49.0
X162.0Y-51.0
X162.0Y-65.0
X162.0Y-66.0
X162.0Y-93.25
X162.0Y-94.25
X162.0Y-95.25
X162.0Y-96.25
X162.0Y-97.25
X162.0Y-98.25
X162.0Y-99.25
X162.0Y-100.25
X162.0Y-101.25
X162.0Y-102.25
X162.0Y-103.25
X162.0Y-104.25
X162.0Y-128.0
X162.0Y-130.0
X162.0Y-132.0
X162.25Y-110.75
X162.25Y-111.75
X162.25Y-112.75
X162.25Y-113.75
X162.25Y-114.75
X162.25Y-115.75
X162.25Y-116.75
X162.25Y-117.75
X162.25Y-118.75
X162.25Y-119.75
X162.25Y-120.75
X162.25Y-121.75
X162.8Y-88.9
X162.9Y-70.9
X163.0Y-48.0
X163.0Y-50.0
X163.0Y-65.0
X163.0Y-66.0
X163.0Y-93.25
X163.0Y-94.25
X163.0Y-95.25
X163.0Y-96.25
X163.0Y-97.25
X163.0Y-98.25
X163.0Y-99.25
X163.0Y-100.25
X163.0Y-101.25
X163.0Y-102.25
X163.0Y-103.25
X163.0Y-104.25
X163.0Y-127.0
X163.0Y-129.0
X163.0Y-131.0
X163.0Y-133.0
X163.25Y-110.75
X163.25Y-111.75
X163.25Y-112.75
X163.25Y-113.75
X163.25Y-114.75
X163.25Y-115.75
X163.25Y-116.75
X163.25Y-117.75
X163.25Y-118.75
X163.25Y-119.75
X163.25Y-120.75
X163.25Y-121.75
X164.0Y-47.0
X164.0Y-49.0
X164.0Y-51.0
X164.0Y-65.0
X164.0Y-66.0
X164.0Y-77.8
X164.0Y-78.7
X164.0Y-93.25
X164.0Y-94.25
X164.0Y-95.25
X164.0Y-102.25
X164.0Y-103.25
X164.0Y-104.25
X164.0Y-128.0
X164.0Y-130.0
X164.0Y-132.0
X164.2Y-81.9
X164.25Y-110.75
X164.25Y-111.75
X164.25Y-112.75
X164.25Y-119.75
X164.25Y-120.75
X164.25Y-121.75
X164.5Y-61.8
X164.6Y-77.4
X164.6Y-78.2
X164.6Y-79.1
X164.7Y-97.0
X164.7Y-98.0
X164.7Y-99.5
X164.7Y-100.5
X164.825Y-71.4
X164.95Y-114.5
X164.95Y-115.5
X164.95Y-117.0
X164.95Y-118.0
X165.0Y-48.0
X165.0Y-50.0
X165.0Y-52.0
X165.0Y-65.0
X165.0Y-66.0
X165.0Y-93.25
X165.0Y-94.25
X165.0Y-95.25
X165.0Y-102.25
X165.0Y-103.25
X165.0Y-104.25
X165.0Y-127.0
X165.0Y-129.0
X165.0Y-131.0
X165.0Y-133.0
X165.25Y-110.75
X165.25Y-111.75
X165.25Y-112.75
X165.25Y-119.75
X165.25Y-120.75
X165.25Y-121.75
X165.8Y-97.0
X165.8Y-98.0
X165.8Y-99.5
X165.8Y-100.5
X166.0Y-47.0
X166.0Y-49.0
X166.0Y-51.0
X166.0Y-93.25
X166.0Y-94.25
X166.0Y-95.25
X166.0Y-102.25
X166.0Y-103.25
X166.0Y-104.25
X166.0Y-132.0
X166.05Y-114.5
X166.05Y-115.5
X166.05Y-117.0
X166.05Y-118.0
X166.25Y-110.75
X166.25Y-111.75
X166.25Y-112.75
X166.25Y-119.75
X166.25Y-120.75
X166.25Y-121.75
X166.9Y-97.0
X166.9Y-98.0
X166.9Y-99.5
X166.9Y-100.5
X167.0Y-48.0
X167.0Y-50.0
X167.0Y-93.25
X167.0Y-94.25
X167.0Y-95.25
X167.0Y-102.25
X167.0Y-103.25
X167.0Y-104.25
X167.0Y-127.0
X167.0Y-131.0
X167.0Y-133.0
X167.15Y-114.5
X167.15Y-115.5
X167.15Y-117.0
X167.15Y-118.0
X167.25Y-110.75
X167.25Y-111.75
X167.25Y-112.75
X167.25Y-119.75
X167.25Y-120.75
X167.25Y-121.75
X168.0Y-47.0
X168.0Y-49.0
X168.0Y-93.25
X168.0Y-94.25
X168.0Y-95.25
X168.0Y-97.0
X168.0Y-98.0
X168.0Y-99.5
X168.0Y-100.5
X168.0Y-102.25
X168.0Y-103.25
X168.0Y-104.25
X168.0Y-132.0
X168.25Y-54.75
X168.25Y-55.75
X168.25Y-56.75
X168.25Y-57.75
X168.25Y-58.75
X168.25Y-69.25
X168.25Y-70.25
X168.25Y-71.25
X168.25Y-72.25
X168.25Y-73.25
X168.25Y-110.75
X168.25Y-111.75
X168.25Y-112.75
X168.25Y-114.5
X168.25Y-115.5
X168.25Y-117.0
X168.25Y-118.0
X168.25Y-119.75
X168.25Y-120.75
X168.25Y-121.75
X168.3Y-51.15
X168.5Y-53.0
X168.5Y-64.8
X168.6Y-81.9
X169.0Y-48.0
X169.0Y-129.0
X169.0Y-131.0
X169.0Y-133.0
X169.25Y-54.75
X169.25Y-55.75
X169.25Y-56.75
X169.25Y-57.75
X169.25Y-58.75
X169.25Y-69.25
X169.25Y-70.25
X169.25Y-71.25
X169.25Y-72.25
X169.25Y-73.25
X169.25Y-75.0
X169.5Y-88.9
X170.0Y-47.0
X170.0Y-49.0
X170.0Y-93.25
X170.0Y-94.25
X170.0Y-95.25
X170.0Y-102.25
X170.0Y-103.25
X170.0Y-104.25
X170.1Y-110.65
X170.1Y-111.65
X170.1Y-112.65
X170.1Y-119.65
X170.1Y-120.65
X170.1Y-121.65
X170.25Y-54.75
X170.25Y-55.75
X170.25Y-69.25
X170.25Y-70.25
X170.25Y-71.25
X170.25Y-72.25
X170.25Y-73.25
X170.25Y-75.0
X170.5Y-60.5
X170.6Y-79.9
X171.0Y-48.0
X171.0Y-93.25
X171.0Y-94.25
X171.0Y-95.25
X171.0Y-96.25
X171.0Y-97.25
X171.0Y-98.25
X171.0Y-99.25
X171.0Y-100.25
X171.0Y-101.25
X171.0Y-102.25
X171.0Y-103.25
X171.0Y-104.25
X171.0Y-131.0
X171.0Y-133.0
X171.1Y-110.65
X171.1Y-111.65
X171.1Y-112.65
X171.1Y-113.65
X171.1Y-114.65
X171.1Y-115.65
X171.1Y-116.65
X171.1Y-117.65
X171.1Y-118.65
X171.1Y-119.65
X171.1Y-120.65
X171.1Y-121.65
X172.0Y-47.0
X172.0Y-50.15
X172.0Y-94.25
X172.0Y-95.25
X172.0Y-96.25
X172.0Y-97.25
X172.0Y-98.25
X172.0Y-99.25
X172.0Y-100.25
X172.0Y-101.25
X172.0Y-102.25
X172.0Y-103.25
X172.1Y-111.65
X172.1Y-112.65
X172.1Y-113.65
X172.1Y-114.65
X172.1Y-115.65
X172.1Y-116.65
X172.1Y-117.65
X172.1Y-118.65
X172.1Y-119.65
X172.1Y-120.65
X172.4Y-65.5
X173.0Y-48.0
X173.0Y-127.0
X173.0Y-131.0
X173.0Y-133.0
X173.8Y-69.05
X173.9Y-68.15
X174.0Y-47.0
X174.4Y-53.3
X174.6Y-79.8
X175.0Y-127.0
X175.0Y-129.0
X175.0Y-131.0
X175.0Y-133.0
X175.175Y-53.943
X176.0Y-47.0
X176.0Y-49.0
X176.0Y-81.9
X177.0Y-127.0
X177.0Y-129.0
X177.0Y-131.0
X177.0Y-133.0
X179.0Y-79.0
X179.0Y-127.0
X179.0Y-129.0
X179.0Y-131.0
X179.0Y-133.0
X179.25Y-62.0
X179.5Y-74.5
X179.75Y-71.25
X180.0Y-47.0
X180.0Y-51.0
X181.0Y-127.0
X181.0Y-129.0
X181.0Y-131.0
X181.0Y-133.0
X181.2Y-81.6
X182.0Y-88.7
X183.0Y-127.0
X183.0Y-129.0
X183.0Y-131.0
X183.0Y-133.0
X183.1Y-93.3
X183.1Y-94.3
X183.1Y-95.3
X183.1Y-96.3
X183.1Y-97.3
X183.1Y-98.3
X183.1Y-99.3
X183.1Y-100.3
X183.1Y-101.3
X183.1Y-102.3
X183.1Y-103.3
X183.1Y-104.3
X183.1Y-110.7
X183.1Y-111.7
X183.1Y-112.7
X183.1Y-113.7
X183.1Y-114.7
X183.1Y-115.7
X183.1Y-116.7
X183.1Y-117.7
X183.1Y-118.7
X183.1Y-119.7
X183.1Y-120.7
X183.1Y-121.7
X183.3Y-52.0
X183.45Y-61.6
X184.0Y-47.0
X184.0Y-49.0
X184.0Y-74.9
X184.1Y-78.8
X184.1Y-94.3
X184.1Y-95.3
X184.1Y-96.3
X184.1Y-97.3
X184.1Y-98.3
X184.1Y-99.3
X184.1Y-100.3
X184.1Y-101.3
X184.1Y-102.3
X184.1Y-103.3
X184.1Y-111.7
X184.1Y-112.7
X184.1Y-113.7
X184.1Y-114.7
X184.1Y-115.7
X184.1Y-116.7
X184.1Y-117.7
X184.1Y-118.7
X184.1Y-119.7
X184.1Y-120.7
X184.9Y-51.2
X185.0Y-127.0
X185.0Y-129.0
X185.0Y-131.0
X185.0Y-133.0
X185.1Y-94.3
X185.1Y-95.3
X185.1Y-96.3
X185.1Y-97.3
X185.1Y-98.3
X185.1Y-99.3
X185.1Y-100.3
X185.1Y-101.3
X185.1Y-102.3
X185.1Y-103.3
X185.1Y-111.7
X185.1Y-112.7
X185.1Y-113.7
X185.1Y-114.7
X185.1Y-115.7
X185.1Y-116.7
X185.1Y-117.7
X185.1Y-118.7
X185.1Y-119.7
X185.1Y-120.7
X185.2Y-58.7
X185.8Y-70.8
X185.8Y-71.7
X186.0Y-74.9
X186.1Y-94.3
X186.1Y-95.3
X186.1Y-102.3
X186.1Y-103.3
X186.1Y-111.7
X186.1Y-112.7
X186.1Y-119.7
X186.1Y-120.7
X186.8Y-97.05
X186.8Y-98.05
X186.8Y-99.55
X186.8Y-100.55
X186.8Y-114.45
X186.8Y-115.45
X186.8Y-116.95
X186.8Y-117.95
X187.0Y-127.0
X187.0Y-129.0
X187.0Y-131.0
X187.0Y-133.0
X187.1Y-93.3
X187.1Y-94.3
X187.1Y-95.3
X187.1Y-102.3
X187.1Y-103.3
X187.1Y-104.3
X187.1Y-110.7
X187.1Y-111.7
X187.1Y-112.7
X187.1Y-119.7
X187.1Y-120.7
X187.1Y-121.7
X187.6Y-72.6
X187.9Y-97.05
X187.9Y-98.05
X187.9Y-99.55
X187.9Y-100.55
X187.9Y-114.45
X187.9Y-115.45
X187.9Y-116.95
X187.9Y-117.95
X188.1Y-93.3
X188.1Y-94.3
X188.1Y-95.3
X188.1Y-102.3
X188.1Y-103.3
X188.1Y-104.3
X188.1Y-110.7
X188.1Y-111.7
X188.1Y-112.7
X188.1Y-119.7
X188.1Y-120.7
X188.1Y-121.7
X188.25Y-50.8
X188.4Y-64.1
X188.8Y-65.3
X189.0Y-83.8
X189.0Y-97.05
X189.0Y-98.05
X189.0Y-99.55
X189.0Y-100.55
X189.0Y-114.45
X189.0Y-115.45
X189.0Y-116.95
X189.0Y-117.95
X189.0Y-127.0
X189.0Y-129.0
X189.0Y-131.0
X189.0Y-133.0
X189.1Y-93.3
X189.1Y-94.3
X189.1Y-95.3
X189.1Y-102.3
X189.1Y-103.3
X189.1Y-104.3
X189.1Y-110.7
X189.1Y-111.7
X189.1Y-112.7
X189.1Y-119.7
X189.1Y-120.7
X189.1Y-121.7
X189.5Y-67.5
X189.7Y-47.1
X190.1Y-93.3
X190.1Y-94.3
X190.1Y-95.3
X190.1Y-97.05
X190.1Y-98.05
X190.1Y-99.55
X190.1Y-100.55
X190.1Y-102.3
X190.1Y-103.3
X190.1Y-104.3
X190.1Y-110.7
X190.1Y-111.7
X190.1Y-112.7
X190.1Y-114.45
X190.1Y-115.45
X190.1Y-116.95
X190.1Y-117.95
X190.1Y-119.7
X190.1Y-120.7
X190.1Y-121.7
X190.2Y-59.8
X191.0Y-127.0
X191.0Y-129.0
X191.0Y-131.0
X191.0Y-133.0
X191.3Y-60.8
X191.95Y-93.35
X191.95Y-94.35
X191.95Y-95.35
X191.95Y-102.35
X191.95Y-103.35
X191.95Y-104.35
X192.0Y-69.1
X192.05Y-110.75
X192.05Y-111.75
X192.05Y-112.75
X192.05Y-119.75
X192.05Y-120.75
X192.05Y-121.75
X192.5Y-76.3
X192.8Y-56.1
X192.9Y-47.1
X192.9Y-60.8
X192.95Y-93.35
X192.95Y-94.35
X192.95Y-95.35
X192.95Y-96.35
X192.95Y-97.35
X192.95Y-98.35
X192.95Y-99.35
X192.95Y-100.35
X192.95Y-101.35
X192.95Y-102.35
X192.95Y-103.35
X192.95Y-104.35
X193.0Y-49.9
X193.0Y-107.0
X193.0Y-125.0
X193.0Y-127.0
X193.0Y-129.0
X193.0Y-131.0
X193.0Y-133.0
X193.05Y-110.75
X193.05Y-111.75
X193.05Y-112.75
X193.05Y-113.75
X193.05Y-114.75
X193.05Y-115.75
X193.05Y-116.75
X193.05Y-117.75
X193.05Y-118.75
X193.05Y-119.75
X193.05Y-120.75
X193.05Y-121.75
X193.95Y-93.35
X193.95Y-94.35
X193.95Y-95.35
X193.95Y-96.35
X193.95Y-97.35
X193.95Y-98.35
X193.95Y-99.35
X193.95Y-100.35
X193.95Y-101.35
X193.95Y-102.35
X193.95Y-103.35
X193.95Y-104.35
X194.05Y-110.75
X194.05Y-111.75
X194.05Y-112.75
X194.05Y-113.75
X194.05Y-114.75
X194.05Y-115.75
X194.05Y-116.75
X194.05Y-117.75
X194.05Y-118.75
X194.05Y-119.75
X194.05Y-120.75
X194.05Y-121.75
X194.75Y-74.0
X194.8Y-82.8
X195.0Y-125.0
X195.0Y-127.0
X195.0Y-129.0
X195.0Y-131.0
X195.0Y-133.0
X195.1Y-62.1
X196.0Y-93.0
X196.0Y-95.0
X196.0Y-97.0
X196.0Y-99.0
X196.0Y-101.0
X196.0Y-103.0
X196.0Y-105.0
X196.0Y-107.0
X196.0Y-109.0
X196.0Y-111.0
X196.0Y-113.0
X196.0Y-115.0
X196.0Y-117.0
X196.0Y-119.0
X196.0Y-121.0
X196.0Y-123.0
X196.7Y-89.0
X197.0Y-46.8
X197.0Y-125.0
X197.0Y-127.0
X197.0Y-129.0
X197.0Y-131.0
X197.0Y-133.0
X197.7Y-49.3
X198.0Y-57.5
X198.0Y-61.0
X198.0Y-68.2
X198.0Y-76.0
X198.0Y-82.0
X198.0Y-93.0
X198.0Y-95.0
X198.0Y-97.0
X198.0Y-99.0
X198.0Y-101.0
X198.0Y-103.0
X198.0Y-105.0
X198.0Y-107.0
X198.0Y-109.0
X198.0Y-111.0
X198.0Y-113.0
X198.0Y-115.0
X198.0Y-117.0
X198.0Y-119.0
X198.0Y-121.0
X198.0Y-123.0
X199.03Y-46.47
T2
X118.2Y-123.1
X118.3Y-127.9
X122.8Y-112.6
X122.8Y-113.95
X122.8Y-115.2
X123.2Y-88.65
X123.2Y-107.3
X124.0Y-70.4
X124.0Y-105.9
X124.1Y-56.4
X124.1Y-74.7
X124.8Y-107.2
X125.4Y-115.8
X125.5Y-105.7
X126.4Y-122.4
X127.2Y-122.4
X127.3Y-112.8
X127.9Y-97.5
X128.0Y-119.5
X129.5Y-117.5
X130.0Y-106.9
X131.1Y-112.1
X131.333Y-114.416
X131.65Y-109.45
X131.7Y-116.7
X131.9Y-102.9
X132.5Y-115.6
X133.95Y-102.9
X134.3Y-118.0
X136.55Y-114.1
X136.6Y-130.9
X139.736Y-110.32
X139.95Y-114.0
X139.972Y-109.349
X139.977Y-108.349
X139.987Y-123.113
X140.0Y-111.45
X140.0Y-124.113
X140.022Y-125.179
X140.025Y-122.1
X140.202Y-120.261
X140.46Y-106.835
X145.9Y-57.25
X145.9Y-70.8
X146.0Y-74.4
X146.0Y-87.8
X150.2Y-123.0
X150.4Y-112.7
X150.8Y-104.7
X164.2Y-75.3
X164.6Y-67.3
X164.8Y-57.0
X169.0Y-92.2
X169.0Y-105.6
X169.1Y-109.2
X169.1Y-122.75
X174.54Y-73.165
X174.798Y-59.739
X174.975Y-57.9
X174.978Y-54.821
X175.0Y-55.887
X175.0Y-68.55
X175.013Y-56.887
X175.023Y-71.651
X175.028Y-70.651
X175.05Y-66.0
X175.264Y-69.68
X178.4Y-49.1
X178.45Y-65.9
X180.7Y-62.0
X181.05Y-77.1
X182.5Y-64.4
X183.1Y-77.1
X183.3Y-63.3
X183.35Y-70.55
X183.667Y-65.584
X183.9Y-67.9
X185.0Y-73.1
X185.5Y-62.5
X187.0Y-60.5
X187.1Y-82.5
X187.7Y-67.2
X187.8Y-57.6
X188.6Y-57.6
X189.5Y-74.3
X189.6Y-64.2
X190.2Y-72.8
X190.9Y-105.3
X190.9Y-123.6
X191.0Y-74.1
X191.0Y-109.6
X191.8Y-72.7
X191.8Y-91.35
X192.2Y-64.8
X192.2Y-66.05
X192.2Y-67.4
X196.7Y-52.1
X196.8Y-56.9
T3
X117.58Y-93.48
X117.58Y-101.1
X120.12Y-93.48
X120.12Y-101.1
X122.66Y-93.48
X122.66Y-101.1
X125.2Y-93.48
X125.2Y-101.1
X189.8Y-78.9
X189.8Y-86.52
X192.34Y-78.9
X192.34Y-86.52
X194.88Y-78.9
X194.88Y-86.52
X197.42Y-78.9
X197.42Y-86.52
T4
X139.39Y-94.7
X141.93Y-94.7
X144.47Y-94.7
X147.01Y-94.7
X149.55Y-94.7
X165.45Y-85.3
X167.99Y-85.3
X170.53Y-85.3
X173.07Y-85.3
X175.61Y-85.3
T5
X180.02Y-84.9
X182.56Y-84.9
X185.1Y-84.9
X129.9Y-95.1
X132.44Y-95.1
X134.98Y-95.1
X142.92Y-50.5
X148.0Y-50.5
X167.0Y-129.5
X172.08Y-129.5
T6
X179.0Y-112.7
X179.0Y-119.9
X136.0Y-77.6
X136.0Y-84.8
X136.0Y-60.1
X136.0Y-67.3
X179.0Y-95.2
X179.0Y-102.4
T5
G00X172.4Y-92.05
M15
G01X173.6Y-92.05
M16
G05
G00X172.4Y-105.55
M15
G01X173.6Y-105.55
M16
G05
G00X184.4Y-92.05
M15
G01X185.6Y-92.05
M16
G05
G00X184.4Y-105.55
M15
G01X185.6Y-105.55
M16
G05
G00X172.4Y-109.55
M15
G01X173.6Y-109.55
M16
G05
G00X172.4Y-123.05
M15
G01X173.6Y-123.05
M16
G05
G00X184.4Y-109.55
M15
G01X185.6Y-109.55
M16
G05
G00X184.4Y-123.05
M15
G01X185.6Y-123.05
M16
G05
G00X130.6Y-74.45
M15
G01X129.4Y-74.45
M16
G05
G00X130.6Y-87.95
M15
G01X129.4Y-87.95
M16
G05
G00X142.6Y-74.45
M15
G01X141.4Y-74.45
M16
G05
G00X142.6Y-87.95
M15
G01X141.4Y-87.95
M16
G05
G00X130.6Y-56.95
M15
G01X129.4Y-56.95
M16
G05
G00X130.6Y-70.45
M15
G01X129.4Y-70.45
M16
G05
G00X142.6Y-56.95
M15
G01X141.4Y-56.95
M16
G05
G00X142.6Y-70.45
M15
G01X141.4Y-70.45
M16
G05
T0
M30
