G04 #@! TF.GenerationSoftware,KiCad,Pcbnew,(5.1.5)-3*
G04 #@! TF.CreationDate,2020-03-04T22:49:46+09:00*
G04 #@! TF.ProjectId,CAN_Dual_MDexpress,43414e5f-4475-4616-9c5f-4d4465787072,rev?*
G04 #@! TF.SameCoordinates,Original*
G04 #@! TF.FileFunction,Profile,NP*
%FSLAX46Y46*%
G04 Gerber Fmt 4.6, Leading zero omitted, Abs format (unit mm)*
G04 Created by KiCad (PCBNEW (5.1.5)-3) date 2020-03-04 22:49:46*
%MOMM*%
%LPD*%
G04 APERTURE LIST*
%ADD10C,0.100000*%
G04 APERTURE END LIST*
D10*
X199680000Y-86500000D02*
X199680000Y-48750000D01*
X199680000Y-86500000D02*
G75*
G02X196180000Y-90000000I-3500000J0D01*
G01*
X118880000Y-90000000D02*
G75*
G02X115380000Y-86500000I0J3500000D01*
G01*
X115380000Y-86500000D02*
X115380000Y-48750000D01*
X115320000Y-93500000D02*
G75*
G02X118820000Y-90000000I3500000J0D01*
G01*
X196120000Y-90000000D02*
G75*
G02X199620000Y-93500000I0J-3500000D01*
G01*
X115320000Y-93500000D02*
X115320000Y-131250000D01*
X199620000Y-93500000D02*
X199620000Y-131250000D01*
X188480000Y-47800000D02*
G75*
G02X186580000Y-47800000I-950000J0D01*
G01*
X115380000Y-40850000D02*
X115880000Y-40350000D01*
X186580000Y-40850000D02*
X186080000Y-40350000D01*
X188480000Y-40850000D02*
X188980000Y-40350000D01*
X199680000Y-40850000D02*
X199180000Y-40350000D01*
X186080000Y-40350000D02*
X115880000Y-40350000D01*
X115380000Y-48750000D02*
X115380000Y-40850000D01*
X199180000Y-40350000D02*
X188980000Y-40350000D01*
X199680000Y-48750000D02*
X199680000Y-40850000D01*
X186580000Y-47800000D02*
X186580000Y-40850000D01*
X188480000Y-47800000D02*
X188480000Y-40850000D01*
X126520000Y-132200000D02*
X126520000Y-139150000D01*
X128420000Y-132200000D02*
X128420000Y-139150000D01*
X115320000Y-131250000D02*
X115320000Y-139150000D01*
X115820000Y-139650000D02*
X126020000Y-139650000D01*
X199620000Y-131250000D02*
X199620000Y-139150000D01*
X128920000Y-139650000D02*
X199120000Y-139650000D01*
X115320000Y-139150000D02*
X115820000Y-139650000D01*
X126520000Y-139150000D02*
X126020000Y-139650000D01*
X128420000Y-139150000D02*
X128920000Y-139650000D01*
X199620000Y-139150000D02*
X199120000Y-139650000D01*
X126520000Y-132200000D02*
G75*
G02X128420000Y-132200000I950000J0D01*
G01*
M02*
