M48
METRIC,TZ
T1C0.300
T2C0.400
T3C0.800
T4C0.850
T5C1.000
T6C3.400
%
G90
G05
T1
X115970Y-133530
X116200Y-104000
X116200Y-111800
X116200Y-119800
X116200Y-123300
X116300Y-95200
X116300Y-99200
X116800Y-131200
X117000Y-57000
X117000Y-59000
X117000Y-61000
X117000Y-63000
X117000Y-65000
X117000Y-67000
X117000Y-69000
X117000Y-71000
X117000Y-73000
X117000Y-75000
X117000Y-77000
X117000Y-79000
X117000Y-81000
X117000Y-83000
X117000Y-85000
X117000Y-87000
X118000Y-47000
X118000Y-49000
X118000Y-51000
X118000Y-53000
X118000Y-55000
X118000Y-91000
X118000Y-133200
X119000Y-57000
X119000Y-59000
X119000Y-61000
X119000Y-63000
X119000Y-65000
X119000Y-67000
X119000Y-69000
X119000Y-71000
X119000Y-73000
X119000Y-75000
X119000Y-77000
X119000Y-79000
X119000Y-81000
X119000Y-83000
X119000Y-85000
X119000Y-87000
X119000Y-89000
X119600Y-115700
X119900Y-117900
X120000Y-47000
X120000Y-49000
X120000Y-51000
X120000Y-53000
X120000Y-55000
X120250Y-106000
X121550Y-58250
X121550Y-59250
X121550Y-60250
X121550Y-61250
X121550Y-62250
X121550Y-63250
X121550Y-64250
X121550Y-65250
X121550Y-66250
X121550Y-67250
X121550Y-68250
X121550Y-69250
X121550Y-75650
X121550Y-76650
X121550Y-77650
X121550Y-78650
X121550Y-79650
X121550Y-80650
X121550Y-81650
X121550Y-82650
X121550Y-83650
X121550Y-84650
X121550Y-85650
X121550Y-86650
X122000Y-47000
X122000Y-49000
X122000Y-51000
X122000Y-53000
X122000Y-55000
X122100Y-132900
X122400Y-123400
X122500Y-103700
X122550Y-58250
X122550Y-59250
X122550Y-60250
X122550Y-61250
X122550Y-62250
X122550Y-63250
X122550Y-64250
X122550Y-65250
X122550Y-66250
X122550Y-67250
X122550Y-68250
X122550Y-69250
X122550Y-75650
X122550Y-76650
X122550Y-77650
X122550Y-78650
X122550Y-79650
X122550Y-80650
X122550Y-81650
X122550Y-82650
X122550Y-83650
X122550Y-84650
X122550Y-85650
X122550Y-86650
X122900Y-111000
X123550Y-58250
X123550Y-59250
X123550Y-60250
X123550Y-61250
X123550Y-62250
X123550Y-63250
X123550Y-64250
X123550Y-65250
X123550Y-66250
X123550Y-67250
X123550Y-68250
X123550Y-69250
X123550Y-75650
X123550Y-76650
X123550Y-77650
X123550Y-78650
X123550Y-79650
X123550Y-80650
X123550Y-81650
X123550Y-82650
X123550Y-83650
X123550Y-84650
X123550Y-85650
X123550Y-86650
X123600Y-119000
X123600Y-128200
X124000Y-47000
X124000Y-49000
X124000Y-51000
X124000Y-53000
X124400Y-89100
X124550Y-58250
X124550Y-59250
X124550Y-60250
X124550Y-67250
X124550Y-68250
X124550Y-69250
X124550Y-75650
X124550Y-76650
X124550Y-77650
X124550Y-84650
X124550Y-85650
X124550Y-86650
X124800Y-120200
X124900Y-72500
X125300Y-132900
X125500Y-112500
X125900Y-95200
X125900Y-121200
X126000Y-47000
X126000Y-49000
X126000Y-51000
X126000Y-53000
X126200Y-114700
X126400Y-75700
X126400Y-76700
X126400Y-77700
X126400Y-79450
X126400Y-80450
X126400Y-81950
X126400Y-82950
X126400Y-84700
X126400Y-85700
X126400Y-86700
X126500Y-58300
X126500Y-59300
X126500Y-60300
X126500Y-62050
X126500Y-63050
X126500Y-64550
X126500Y-65550
X126500Y-67300
X126500Y-68300
X126500Y-69300
X126600Y-115900
X126700Y-105900
X126800Y-126600
X127400Y-75700
X127400Y-76700
X127400Y-77700
X127400Y-84700
X127400Y-85700
X127400Y-86700
X127442Y-107442
X127500Y-58300
X127500Y-59300
X127500Y-60300
X127500Y-67300
X127500Y-68300
X127500Y-69300
X127500Y-79450
X127500Y-80450
X127500Y-81950
X127500Y-82950
X127500Y-100300
X127600Y-62050
X127600Y-63050
X127600Y-64550
X127600Y-65550
X128000Y-47000
X128000Y-49000
X128000Y-51000
X128000Y-53000
X128400Y-75700
X128400Y-76700
X128400Y-77700
X128400Y-84700
X128400Y-85700
X128400Y-86700
X128500Y-58300
X128500Y-59300
X128500Y-60300
X128500Y-67300
X128500Y-68300
X128500Y-69300
X128600Y-79450
X128600Y-80450
X128600Y-81950
X128600Y-82950
X128700Y-62050
X128700Y-63050
X128700Y-64550
X128700Y-65550
X129000Y-105700
X129400Y-75700
X129400Y-76700
X129400Y-77700
X129400Y-84700
X129400Y-85700
X129400Y-86700
X129400Y-109300
X129500Y-58300
X129500Y-59300
X129500Y-60300
X129500Y-67300
X129500Y-68300
X129500Y-69300
X129500Y-117800
X129500Y-133200
X129700Y-79450
X129700Y-80450
X129700Y-81950
X129700Y-82950
X129800Y-62050
X129800Y-63050
X129800Y-64550
X129800Y-65550
X129800Y-129100
X130000Y-47000
X130000Y-49000
X130000Y-51000
X130000Y-53000
X130000Y-90900
X130100Y-107700
X130400Y-75700
X130400Y-76700
X130400Y-77700
X130400Y-84700
X130400Y-85700
X130400Y-86700
X130500Y-58300
X130500Y-59300
X130500Y-60300
X130500Y-67300
X130500Y-68300
X130500Y-69300
X130900Y-96500
X130900Y-101200
X131000Y-105100
X131000Y-131000
X131000Y-133000
X131400Y-75700
X131400Y-76700
X131400Y-77700
X131400Y-78700
X131400Y-79700
X131400Y-80700
X131400Y-81700
X131400Y-82700
X131400Y-83700
X131400Y-84700
X131400Y-85700
X131400Y-86700
X131500Y-58300
X131500Y-59300
X131500Y-60300
X131500Y-61300
X131500Y-62300
X131500Y-63300
X131500Y-64400
X131500Y-65300
X131500Y-66300
X131500Y-67300
X131500Y-68300
X131500Y-69300
X131700Y-128000
X132000Y-47000
X132000Y-49000
X132000Y-51000
X132000Y-53000
X132400Y-75700
X132400Y-76700
X132400Y-77700
X132400Y-78700
X132400Y-79700
X132400Y-80700
X132400Y-81700
X132400Y-82700
X132400Y-83700
X132400Y-84700
X132400Y-85700
X132400Y-86700
X132500Y-58300
X132500Y-59300
X132500Y-60300
X132500Y-61300
X132500Y-62300
X132500Y-63300
X132500Y-64400
X132500Y-65300
X132500Y-66300
X132500Y-67300
X132500Y-68300
X132500Y-69300
X133300Y-99200
X133400Y-76700
X133400Y-77700
X133400Y-78700
X133400Y-79700
X133400Y-80700
X133400Y-81700
X133400Y-82700
X133400Y-83700
X133400Y-84700
X133400Y-85700
X133500Y-59300
X133500Y-60300
X133500Y-61300
X133500Y-62300
X133500Y-63300
X133500Y-64400
X133500Y-65300
X133500Y-66300
X133500Y-67300
X133500Y-68300
X133900Y-116700
X134000Y-47000
X134000Y-49000
X134000Y-51000
X134000Y-53000
X134100Y-101400
X134800Y-128000
X135000Y-133000
X135500Y-100000
X135500Y-105500
X135500Y-108750
X135750Y-118000
X136000Y-47000
X136000Y-49000
X136000Y-51000
X136000Y-53000
X136800Y-98700
X138000Y-47000
X138000Y-49000
X138000Y-51000
X138000Y-53000
X139000Y-131000
X139000Y-133000
X139500Y-100600
X139825Y-126057
X140000Y-47000
X140000Y-49000
X140000Y-51000
X140000Y-53000
X140200Y-131800
X140600Y-126700
X141000Y-133000
X141100Y-111850
X141250Y-110957
X142000Y-47000
X142000Y-49000
X142000Y-51000
X142000Y-53000
X142000Y-132000
X142600Y-114500
X142900Y-58350
X142900Y-59350
X142900Y-60350
X142900Y-61350
X142900Y-62350
X142900Y-63350
X142900Y-64350
X142900Y-65350
X142900Y-66350
X142900Y-67350
X142900Y-68350
X142900Y-69350
X143000Y-75750
X143000Y-76750
X143000Y-77750
X143000Y-78750
X143000Y-79750
X143000Y-80650
X143000Y-81750
X143000Y-82750
X143000Y-83750
X143000Y-84750
X143000Y-85750
X143000Y-86750
X143000Y-90900
X143000Y-129850
X143000Y-131000
X143000Y-133000
X143900Y-58350
X143900Y-59350
X143900Y-60350
X143900Y-61350
X143900Y-62350
X143900Y-63350
X143900Y-64350
X143900Y-65350
X143900Y-66350
X143900Y-67350
X143900Y-68350
X143900Y-69350
X144000Y-47000
X144000Y-49000
X144000Y-53000
X144000Y-75750
X144000Y-76750
X144000Y-77750
X144000Y-78750
X144000Y-79750
X144000Y-80650
X144000Y-81750
X144000Y-82750
X144000Y-83750
X144000Y-84750
X144000Y-85750
X144000Y-86750
X144000Y-132000
X144500Y-119500
X144700Y-100300
X144750Y-105000
X144750Y-106750
X144750Y-107750
X144750Y-108750
X144750Y-109750
X144750Y-110750
X144750Y-124250
X144900Y-58350
X144900Y-59350
X144900Y-60350
X144900Y-67350
X144900Y-68350
X144900Y-69350
X145000Y-75750
X145000Y-76750
X145000Y-77750
X145000Y-84750
X145000Y-85750
X145000Y-86750
X145000Y-131000
X145000Y-133000
X145750Y-105000
X145750Y-106750
X145750Y-107750
X145750Y-108750
X145750Y-109750
X145750Y-110750
X145750Y-121250
X145750Y-122250
X145750Y-123250
X145750Y-124250
X145750Y-125250
X146000Y-47000
X146000Y-49000
X146000Y-51000
X146000Y-53000
X146000Y-132000
X146500Y-127000
X146700Y-128850
X146750Y-58250
X146750Y-59250
X146750Y-60250
X146750Y-62000
X146750Y-63000
X146750Y-64500
X146750Y-65500
X146750Y-67250
X146750Y-68250
X146750Y-69250
X146750Y-106750
X146750Y-107750
X146750Y-108750
X146750Y-109750
X146750Y-110750
X146750Y-121250
X146750Y-122250
X146750Y-123250
X146750Y-124250
X146750Y-125250
X146800Y-98300
X147000Y-48000
X147000Y-50000
X147000Y-52000
X147000Y-75750
X147000Y-76750
X147000Y-77750
X147000Y-79500
X147000Y-80500
X147000Y-82000
X147000Y-83000
X147000Y-84750
X147000Y-85750
X147000Y-86750
X147000Y-131000
X147000Y-133000
X147750Y-58250
X147750Y-59250
X147750Y-60250
X147750Y-67250
X147750Y-68250
X147750Y-69250
X147850Y-62000
X147850Y-63000
X147850Y-64500
X147850Y-65500
X148000Y-47000
X148000Y-49000
X148000Y-53000
X148000Y-75750
X148000Y-76750
X148000Y-77750
X148000Y-84750
X148000Y-85750
X148000Y-86750
X148000Y-130000
X148000Y-132000
X148100Y-79500
X148100Y-80500
X148100Y-82000
X148100Y-83000
X148600Y-96400
X148750Y-58250
X148750Y-59250
X148750Y-60250
X148750Y-67250
X148750Y-68250
X148750Y-69250
X148950Y-62000
X148950Y-63000
X148950Y-64500
X148950Y-65500
X149000Y-48000
X149000Y-52000
X149000Y-75750
X149000Y-76750
X149000Y-77750
X149000Y-84750
X149000Y-85750
X149000Y-86750
X149000Y-129000
X149000Y-131000
X149000Y-133000
X149200Y-79500
X149200Y-80500
X149200Y-82000
X149200Y-83000
X149750Y-58250
X149750Y-59250
X149750Y-60250
X149750Y-67250
X149750Y-68250
X149750Y-69250
X150000Y-47000
X150000Y-49000
X150000Y-53000
X150000Y-75750
X150000Y-76750
X150000Y-77750
X150000Y-84750
X150000Y-85750
X150000Y-86750
X150000Y-114600
X150000Y-128000
X150000Y-130000
X150000Y-132000
X150050Y-62000
X150050Y-63000
X150050Y-64500
X150050Y-65500
X150300Y-79500
X150300Y-80500
X150300Y-82000
X150300Y-83000
X150300Y-103400
X150300Y-104400
X150300Y-123300
X150750Y-58250
X150750Y-59250
X150750Y-60250
X150750Y-67250
X150750Y-68250
X150750Y-69250
X151000Y-48000
X151000Y-50000
X151000Y-52000
X151000Y-75750
X151000Y-76750
X151000Y-77750
X151000Y-84750
X151000Y-85750
X151000Y-86750
X151000Y-114600
X151000Y-118200
X151000Y-129000
X151000Y-131000
X151000Y-133000
X151300Y-100400
X151300Y-101400
X151300Y-102400
X151300Y-103400
X151750Y-58250
X151750Y-59250
X151750Y-60250
X151750Y-61250
X151750Y-62250
X151750Y-63250
X151750Y-64250
X151750Y-65250
X151750Y-66250
X151750Y-67250
X151750Y-68250
X151750Y-69250
X152000Y-47000
X152000Y-49000
X152000Y-51000
X152000Y-53000
X152000Y-75750
X152000Y-76750
X152000Y-77750
X152000Y-78750
X152000Y-79750
X152000Y-80750
X152000Y-81750
X152000Y-82750
X152000Y-83750
X152000Y-84750
X152000Y-85750
X152000Y-86750
X152000Y-114600
X152000Y-118200
X152000Y-130000
X152000Y-132000
X152100Y-109100
X152300Y-90900
X152750Y-58250
X152750Y-59250
X152750Y-60250
X152750Y-61250
X152750Y-62250
X152750Y-63250
X152750Y-64250
X152750Y-65250
X152750Y-66250
X152750Y-67250
X152750Y-68250
X152750Y-69250
X153000Y-48000
X153000Y-50000
X153000Y-52000
X153000Y-75750
X153000Y-76750
X153000Y-77750
X153000Y-78750
X153000Y-79750
X153000Y-80750
X153000Y-81750
X153000Y-82750
X153000Y-83750
X153000Y-84750
X153000Y-85750
X153000Y-86750
X153000Y-114600
X153000Y-129000
X153000Y-131000
X153000Y-133000
X153400Y-124000
X153600Y-122300
X153750Y-58250
X153750Y-59250
X153750Y-60250
X153750Y-61250
X153750Y-62250
X153750Y-63250
X153750Y-64250
X153750Y-65250
X153750Y-66250
X153750Y-67250
X153750Y-68250
X153750Y-69250
X154000Y-47000
X154000Y-49000
X154000Y-51000
X154000Y-53000
X154000Y-75750
X154000Y-76750
X154000Y-77750
X154000Y-78750
X154000Y-79750
X154000Y-80750
X154000Y-81750
X154000Y-82750
X154000Y-83750
X154000Y-84750
X154000Y-85750
X154000Y-86750
X154000Y-130000
X154000Y-132000
X155000Y-48000
X155000Y-50000
X155000Y-52000
X155000Y-58000
X155000Y-62000
X155000Y-66000
X155000Y-70000
X155000Y-79000
X155000Y-83000
X155000Y-87000
X155000Y-129000
X155000Y-131000
X155000Y-133000
X156000Y-47000
X156000Y-49000
X156000Y-51000
X156000Y-53000
X156000Y-93000
X156000Y-97000
X156000Y-101000
X156000Y-105000
X156000Y-128000
X156000Y-130000
X156000Y-132000
X157000Y-48000
X157000Y-50000
X157000Y-52000
X157000Y-56800
X157000Y-60000
X157000Y-64000
X157000Y-68000
X157000Y-77000
X157000Y-81000
X157000Y-85000
X157000Y-127000
X157000Y-129000
X157000Y-131000
X157000Y-133000
X158000Y-47000
X158000Y-49000
X158000Y-51000
X158000Y-53000
X158000Y-95000
X158000Y-99000
X158000Y-103000
X158000Y-112000
X158000Y-116000
X158000Y-120000
X158000Y-123200
X158000Y-128000
X158000Y-130000
X158000Y-132000
X159000Y-48000
X159000Y-50000
X159000Y-52000
X159000Y-75000
X159000Y-79000
X159000Y-83000
X159000Y-87000
X159000Y-127000
X159000Y-129000
X159000Y-131000
X159000Y-133000
X160000Y-47000
X160000Y-49000
X160000Y-51000
X160000Y-93000
X160000Y-97000
X160000Y-101000
X160000Y-110000
X160000Y-114000
X160000Y-118000
X160000Y-122000
X160000Y-128000
X160000Y-130000
X160000Y-132000
X161000Y-48000
X161000Y-50000
X161000Y-93250
X161000Y-94250
X161000Y-95250
X161000Y-96250
X161000Y-97250
X161000Y-98250
X161000Y-99250
X161000Y-100250
X161000Y-101250
X161000Y-102250
X161000Y-103250
X161000Y-104250
X161000Y-127000
X161000Y-129000
X161000Y-131000
X161000Y-133000
X161250Y-110750
X161250Y-111750
X161250Y-112750
X161250Y-113750
X161250Y-114750
X161250Y-115750
X161250Y-116750
X161250Y-117750
X161250Y-118750
X161250Y-119750
X161250Y-120750
X161250Y-121750
X161400Y-57700
X161600Y-56000
X162000Y-47000
X162000Y-49000
X162000Y-51000
X162000Y-65400
X162000Y-93250
X162000Y-94250
X162000Y-95250
X162000Y-96250
X162000Y-97250
X162000Y-98250
X162000Y-99250
X162000Y-100250
X162000Y-101250
X162000Y-102250
X162000Y-103250
X162000Y-104250
X162000Y-128000
X162000Y-130000
X162000Y-132000
X162250Y-110750
X162250Y-111750
X162250Y-112750
X162250Y-113750
X162250Y-114750
X162250Y-115750
X162250Y-116750
X162250Y-117750
X162250Y-118750
X162250Y-119750
X162250Y-120750
X162250Y-121750
X162700Y-89100
X162900Y-70900
X163000Y-48000
X163000Y-50000
X163000Y-61800
X163000Y-65400
X163000Y-93250
X163000Y-94250
X163000Y-95250
X163000Y-96250
X163000Y-97250
X163000Y-98250
X163000Y-99250
X163000Y-100250
X163000Y-101250
X163000Y-102250
X163000Y-103250
X163000Y-104250
X163000Y-127000
X163000Y-129000
X163000Y-131000
X163000Y-133000
X163250Y-110750
X163250Y-111750
X163250Y-112750
X163250Y-113750
X163250Y-114750
X163250Y-115750
X163250Y-116750
X163250Y-117750
X163250Y-118750
X163250Y-119750
X163250Y-120750
X163250Y-121750
X163700Y-76600
X163700Y-77600
X163700Y-78600
X163700Y-79600
X164000Y-47000
X164000Y-49000
X164000Y-51000
X164000Y-61800
X164000Y-65400
X164000Y-93250
X164000Y-94250
X164000Y-95250
X164000Y-102250
X164000Y-103250
X164000Y-104250
X164000Y-128000
X164000Y-130000
X164000Y-132000
X164250Y-110750
X164250Y-111750
X164250Y-112750
X164250Y-119750
X164250Y-120750
X164250Y-121750
X164700Y-56700
X164700Y-75600
X164700Y-76600
X164700Y-97000
X164700Y-98000
X164700Y-99500
X164700Y-100500
X164950Y-114500
X164950Y-115500
X164950Y-117000
X164950Y-118000
X165000Y-48000
X165000Y-50000
X165000Y-52000
X165000Y-65400
X165000Y-93250
X165000Y-94250
X165000Y-95250
X165000Y-102250
X165000Y-103250
X165000Y-104250
X165000Y-127000
X165000Y-131000
X165000Y-133000
X165250Y-110750
X165250Y-111750
X165250Y-112750
X165250Y-119750
X165250Y-120750
X165250Y-121750
X165800Y-97000
X165800Y-98000
X165800Y-99500
X165800Y-100500
X166000Y-47000
X166000Y-49000
X166000Y-51000
X166000Y-93250
X166000Y-94250
X166000Y-95250
X166000Y-102250
X166000Y-103250
X166000Y-104250
X166000Y-128000
X166000Y-132000
X166050Y-114500
X166050Y-115500
X166050Y-117000
X166050Y-118000
X166250Y-110750
X166250Y-111750
X166250Y-112750
X166250Y-119750
X166250Y-120750
X166250Y-121750
X166400Y-83600
X166900Y-97000
X166900Y-98000
X166900Y-99500
X166900Y-100500
X167000Y-48000
X167000Y-50000
X167000Y-93250
X167000Y-94250
X167000Y-95250
X167000Y-102250
X167000Y-103250
X167000Y-104250
X167000Y-127000
X167000Y-131000
X167000Y-133000
X167150Y-114500
X167150Y-115500
X167150Y-117000
X167150Y-118000
X167250Y-110750
X167250Y-111750
X167250Y-112750
X167250Y-119750
X167250Y-120750
X167250Y-121750
X168000Y-47000
X168000Y-49000
X168000Y-93250
X168000Y-94250
X168000Y-95250
X168000Y-97000
X168000Y-98000
X168000Y-99500
X168000Y-100500
X168000Y-102250
X168000Y-103250
X168000Y-104250
X168000Y-128000
X168000Y-130000
X168000Y-132000
X168200Y-81700
X168250Y-54750
X168250Y-55750
X168250Y-56750
X168250Y-57750
X168250Y-58750
X168250Y-69250
X168250Y-70250
X168250Y-71250
X168250Y-72250
X168250Y-73250
X168250Y-110750
X168250Y-111750
X168250Y-112750
X168250Y-114500
X168250Y-115500
X168250Y-117000
X168250Y-118000
X168250Y-119750
X168250Y-120750
X168250Y-121750
X168300Y-51150
X168500Y-53000
X169000Y-48000
X169000Y-127000
X169000Y-129000
X169000Y-131000
X169000Y-133000
X169250Y-54750
X169250Y-55750
X169250Y-56750
X169250Y-57750
X169250Y-58750
X169250Y-69250
X169250Y-70250
X169250Y-71250
X169250Y-72250
X169250Y-73250
X169250Y-75000
X170000Y-47000
X170000Y-49000
X170000Y-93250
X170000Y-94250
X170000Y-95250
X170000Y-102250
X170000Y-103250
X170000Y-104250
X170100Y-110650
X170100Y-111650
X170100Y-112650
X170100Y-119650
X170100Y-120650
X170100Y-121650
X170250Y-55750
X170250Y-69250
X170250Y-70250
X170250Y-71250
X170250Y-72250
X170250Y-73250
X170250Y-75000
X170300Y-79700
X170500Y-60500
X171000Y-48000
X171000Y-93250
X171000Y-94250
X171000Y-95250
X171000Y-96250
X171000Y-97250
X171000Y-98250
X171000Y-99350
X171000Y-100250
X171000Y-101250
X171000Y-102250
X171000Y-103250
X171000Y-104250
X171000Y-127000
X171000Y-131000
X171000Y-133000
X171100Y-110650
X171100Y-111650
X171100Y-112650
X171100Y-113650
X171100Y-114650
X171100Y-115650
X171100Y-116650
X171100Y-117650
X171100Y-118650
X171100Y-119650
X171100Y-120650
X171100Y-121650
X172000Y-47000
X172000Y-49000
X172000Y-50150
X172000Y-89100
X172000Y-93250
X172000Y-94250
X172000Y-95250
X172000Y-96250
X172000Y-97250
X172000Y-98250
X172000Y-99350
X172000Y-100250
X172000Y-101250
X172000Y-102250
X172000Y-103250
X172000Y-104250
X172100Y-110650
X172100Y-111650
X172100Y-112650
X172100Y-113650
X172100Y-114650
X172100Y-115650
X172100Y-116650
X172100Y-117650
X172100Y-118650
X172100Y-119650
X172100Y-120650
X172100Y-121650
X172400Y-65500
X173000Y-48000
X173000Y-127000
X173000Y-129000
X173000Y-131000
X173000Y-133000
X173750Y-69043
X173900Y-68150
X174000Y-47000
X174400Y-53300
X174800Y-48200
X175000Y-127000
X175000Y-129000
X175000Y-131000
X175000Y-133000
X175175Y-53943
X175500Y-79400
X176000Y-47000
X176000Y-49000
X177000Y-127000
X177000Y-129000
X177000Y-131000
X177000Y-133000
X178200Y-81300
X179000Y-127000
X179000Y-129000
X179000Y-131000
X179000Y-133000
X179250Y-62000
X179500Y-71250
X179500Y-74500
X179500Y-80000
X180000Y-47000
X180200Y-52000
X180900Y-78600
X181000Y-127000
X181000Y-129000
X181000Y-131000
X181000Y-133000
X181100Y-63300
X181500Y-111700
X181500Y-112700
X181500Y-113700
X181500Y-114700
X181500Y-115600
X181500Y-116700
X181500Y-117700
X181500Y-118700
X181500Y-119700
X181500Y-120700
X181600Y-94300
X181600Y-95300
X181600Y-96300
X181600Y-97300
X181600Y-98300
X181600Y-99300
X181600Y-100300
X181600Y-101300
X181600Y-102300
X181600Y-103300
X181700Y-80800
X182500Y-110700
X182500Y-111700
X182500Y-112700
X182500Y-113700
X182500Y-114700
X182500Y-115600
X182500Y-116700
X182500Y-117700
X182500Y-118700
X182500Y-119700
X182500Y-120700
X182500Y-121700
X182600Y-93300
X182600Y-94300
X182600Y-95300
X182600Y-96300
X182600Y-97300
X182600Y-98300
X182600Y-99300
X182600Y-100300
X182600Y-101300
X182600Y-102300
X182600Y-103300
X182600Y-104300
X183000Y-127000
X183000Y-129000
X183000Y-131000
X183000Y-133000
X183300Y-52000
X183500Y-110700
X183500Y-111700
X183500Y-112700
X183500Y-113700
X183500Y-114700
X183500Y-115600
X183500Y-116700
X183500Y-117700
X183500Y-118700
X183500Y-119700
X183500Y-120700
X183500Y-121700
X183600Y-93300
X183600Y-94300
X183600Y-95300
X183600Y-96300
X183600Y-97300
X183600Y-98300
X183600Y-99300
X183600Y-100300
X183600Y-101300
X183600Y-102300
X183600Y-103300
X183600Y-104300
X184000Y-47000
X184000Y-49000
X184000Y-74900
X184100Y-78800
X184100Y-83500
X184500Y-110700
X184500Y-111700
X184500Y-112700
X184500Y-119700
X184500Y-120700
X184500Y-121700
X184600Y-93300
X184600Y-94300
X184600Y-95300
X184600Y-102300
X184600Y-103300
X184600Y-104300
X184900Y-72300
X185000Y-89100
X185000Y-127000
X185000Y-129000
X185000Y-131000
X185000Y-133000
X185200Y-50900
X185200Y-114450
X185200Y-115450
X185200Y-116950
X185200Y-117950
X185300Y-97050
X185300Y-98050
X185300Y-99550
X185300Y-100550
X185500Y-46800
X185500Y-62200
X185500Y-110700
X185500Y-111700
X185500Y-112700
X185500Y-119700
X185500Y-120700
X185500Y-121700
X185600Y-70700
X185600Y-93300
X185600Y-94300
X185600Y-95300
X185600Y-102300
X185600Y-103300
X185600Y-104300
X186000Y-74300
X186300Y-114450
X186300Y-115450
X186300Y-116950
X186300Y-117950
X186400Y-97050
X186400Y-98050
X186400Y-99550
X186400Y-100550
X186500Y-110700
X186500Y-111700
X186500Y-112700
X186500Y-119700
X186500Y-120700
X186500Y-121700
X186600Y-93300
X186600Y-94300
X186600Y-95300
X186600Y-102300
X186600Y-103300
X186600Y-104300
X187000Y-127000
X187000Y-129000
X187000Y-131000
X187000Y-133000
X187400Y-114450
X187400Y-115450
X187400Y-116950
X187400Y-117950
X187500Y-79700
X187500Y-97050
X187500Y-98050
X187500Y-99550
X187500Y-100550
X187500Y-110700
X187500Y-111700
X187500Y-112700
X187500Y-119700
X187500Y-120700
X187500Y-121700
X187558Y-72558
X187600Y-93300
X187600Y-94300
X187600Y-95300
X187600Y-102300
X187600Y-103300
X187600Y-104300
X188200Y-53400
X188300Y-74100
X188400Y-64100
X188500Y-110700
X188500Y-111700
X188500Y-112700
X188500Y-114450
X188500Y-115450
X188500Y-116950
X188500Y-117950
X188500Y-119700
X188500Y-120700
X188500Y-121700
X188600Y-93300
X188600Y-94300
X188600Y-95300
X188600Y-97050
X188600Y-98050
X188600Y-99550
X188600Y-100550
X188600Y-102300
X188600Y-103300
X188600Y-104300
X188800Y-65300
X189000Y-127000
X189000Y-129000
X189000Y-131000
X189000Y-133000
X189100Y-58800
X189100Y-84800
X189500Y-67500
X189700Y-47100
X190100Y-107500
X190200Y-59800
X190450Y-93350
X190450Y-94350
X190450Y-95350
X190450Y-102350
X190450Y-103350
X190450Y-104350
X190450Y-110750
X190450Y-111750
X190450Y-112750
X190450Y-119750
X190450Y-120750
X190450Y-121750
X190600Y-90900
X191000Y-127000
X191000Y-129000
X191000Y-131000
X191000Y-133000
X191400Y-51800
X191400Y-61000
X191450Y-93350
X191450Y-94350
X191450Y-95350
X191450Y-96350
X191450Y-97350
X191450Y-98350
X191450Y-99350
X191450Y-100350
X191450Y-101350
X191450Y-102350
X191450Y-103350
X191450Y-104350
X191450Y-110750
X191450Y-111750
X191450Y-112750
X191450Y-113750
X191450Y-114750
X191450Y-115750
X191450Y-116750
X191450Y-117750
X191450Y-118750
X191450Y-119750
X191450Y-120750
X191450Y-121750
X192100Y-69000
X192450Y-93350
X192450Y-94350
X192450Y-95350
X192450Y-96350
X192450Y-97350
X192450Y-98350
X192450Y-99350
X192450Y-100350
X192450Y-101350
X192450Y-102350
X192450Y-103350
X192450Y-104350
X192450Y-110750
X192450Y-111750
X192450Y-112750
X192450Y-113750
X192450Y-114750
X192450Y-115750
X192450Y-116750
X192450Y-117750
X192450Y-118750
X192450Y-119750
X192450Y-120750
X192450Y-121750
X192500Y-76300
X192600Y-56600
X192900Y-47100
X193000Y-125000
X193000Y-127000
X193000Y-129000
X193000Y-131000
X193000Y-133000
X193450Y-93350
X193450Y-94350
X193450Y-95350
X193450Y-96350
X193450Y-97350
X193450Y-98350
X193450Y-99350
X193450Y-100350
X193450Y-101350
X193450Y-102350
X193450Y-103350
X193450Y-104350
X193450Y-110750
X193450Y-111750
X193450Y-112750
X193450Y-113750
X193450Y-114750
X193450Y-115750
X193450Y-116750
X193450Y-117750
X193450Y-118750
X193450Y-119750
X193450Y-120750
X193450Y-121750
X194750Y-74000
X195000Y-125000
X195000Y-127000
X195000Y-129000
X195000Y-131000
X195000Y-133000
X195100Y-62100
X195400Y-64300
X196000Y-91000
X196000Y-93000
X196000Y-95000
X196000Y-97000
X196000Y-99000
X196000Y-101000
X196000Y-103000
X196000Y-105000
X196000Y-107000
X196000Y-109000
X196000Y-111000
X196000Y-113000
X196000Y-115000
X196000Y-117000
X196000Y-119000
X196000Y-121000
X196000Y-123000
X197000Y-46800
X197000Y-89000
X197000Y-125000
X197000Y-127000
X197000Y-129000
X197000Y-131000
X197000Y-133000
X198000Y-93000
X198000Y-95000
X198000Y-97000
X198000Y-99000
X198000Y-101000
X198000Y-103000
X198000Y-105000
X198000Y-107000
X198000Y-109000
X198000Y-111000
X198000Y-113000
X198000Y-115000
X198000Y-117000
X198000Y-119000
X198000Y-121000
X198000Y-123000
X198200Y-48800
X198700Y-80800
X198700Y-84800
X198800Y-56700
X198800Y-60200
X198800Y-68200
X198800Y-76000
X199030Y-46470
T2
X118200Y-123100
X118300Y-127900
X122800Y-112600
X122800Y-113950
X122800Y-115200
X123200Y-107300
X124000Y-105900
X124800Y-107400
X125400Y-115800
X125500Y-56600
X125500Y-105700
X125600Y-70400
X125600Y-74700
X125600Y-88650
X126400Y-122400
X127200Y-122400
X127300Y-112800
X127700Y-115600
X128000Y-119500
X128200Y-101500
X129100Y-120100
X130700Y-121200
X131333Y-114416
X131400Y-112000
X131451Y-106776
X131525Y-109536
X131700Y-116700
X132500Y-115600
X134300Y-118000
X136550Y-114100
X136600Y-130900
X139900Y-110600
X139949Y-109344
X139950Y-114000
X139968Y-108344
X139987Y-123113
X140000Y-124113
X140022Y-125179
X140025Y-122100
X140100Y-111700
X140202Y-120261
X140700Y-106974
X145900Y-56700
X145900Y-70900
X146000Y-74400
X146000Y-87800
X146600Y-103900
X146700Y-119300
X168300Y-60700
X168400Y-76100
X169000Y-92200
X169000Y-105600
X169100Y-109100
X169100Y-123300
X174300Y-73026
X174798Y-59739
X174900Y-68300
X174975Y-57900
X174978Y-54821
X175000Y-55887
X175013Y-56887
X175032Y-71656
X175050Y-66000
X175051Y-70656
X175100Y-69400
X178400Y-49100
X178450Y-65900
X180700Y-62000
X182500Y-64400
X183300Y-63300
X183475Y-70464
X183549Y-73224
X183600Y-68000
X183667Y-65584
X184300Y-58800
X185900Y-59900
X186800Y-78500
X187000Y-60500
X187300Y-64400
X187700Y-67200
X187800Y-57600
X188600Y-57600
X189400Y-91350
X189400Y-105300
X189400Y-109600
X189500Y-74300
X189500Y-123400
X189600Y-64200
X190200Y-72600
X191000Y-74100
X191800Y-72700
X192200Y-64800
X192200Y-66050
X192200Y-67400
X196700Y-52100
X196800Y-56900
T3
X117580Y-93480
X117580Y-101100
X120120Y-93480
X120120Y-101100
X122660Y-93480
X122660Y-101100
X125200Y-93480
X125200Y-101100
X189800Y-78900
X189800Y-86520
X192340Y-78900
X192340Y-86520
X194880Y-78900
X194880Y-86520
X197420Y-78900
X197420Y-86520
T4
X165450Y-85300
X167990Y-85300
X170530Y-85300
X173070Y-85300
X175610Y-85300
X139390Y-94700
X141930Y-94700
X144470Y-94700
X147010Y-94700
X149550Y-94700
T5
X180020Y-84900
X182560Y-84900
X185100Y-84900
X144220Y-50500
X149300Y-50500
X129900Y-95100
X132440Y-95100
X134980Y-95100
X165700Y-129500
X170780Y-129500
T6
X139600Y-60200
X139600Y-67400
X175400Y-112600
X175400Y-119800
X139600Y-77600
X139600Y-84800
X175400Y-95200
X175400Y-102400
T5
G00X133000Y-74450
M15
G01X134200Y-74450
M16
G05
G00X133000Y-87950
M15
G01X134200Y-87950
M16
G05
G00X133000Y-57050
M15
G01X134200Y-57050
M16
G05
G00X133000Y-70550
M15
G01X134200Y-70550
M16
G05
G00X182000Y-92050
M15
G01X180800Y-92050
M16
G05
G00X182000Y-105550
M15
G01X180800Y-105550
M16
G05
G00X182000Y-109450
M15
G01X180800Y-109450
M16
G05
G00X182000Y-122950
M15
G01X180800Y-122950
M16
G05
T0
M30
