M48
METRIC,TZ
T1C0.300
T2C0.400
T3C0.800
T4C0.850
T5C1.000
T6C3.400
%
G90
G05
T1
X115970Y-133530
X117000Y-57000
X117000Y-59000
X117000Y-61000
X117000Y-63000
X117000Y-65000
X117000Y-67000
X117000Y-69000
X117000Y-71000
X117000Y-73000
X117000Y-75000
X117000Y-77000
X117000Y-79000
X117000Y-81000
X117000Y-83000
X117000Y-85000
X117000Y-87000
X117000Y-98000
X117000Y-104000
X117000Y-111800
X117000Y-119000
X117000Y-122500
X117300Y-130700
X118000Y-47000
X118000Y-49000
X118000Y-51000
X118000Y-53000
X118000Y-55000
X118000Y-133200
X118300Y-91000
X119000Y-57000
X119000Y-59000
X119000Y-61000
X119000Y-63000
X119000Y-65000
X119000Y-67000
X119000Y-69000
X119000Y-71000
X119000Y-73000
X119000Y-75000
X119000Y-77000
X119000Y-79000
X119000Y-81000
X119000Y-83000
X119000Y-85000
X119000Y-87000
X119900Y-117900
X120000Y-47000
X120000Y-49000
X120000Y-51000
X120000Y-53000
X120000Y-55000
X120200Y-97200
X120250Y-106000
X120950Y-58250
X120950Y-59250
X120950Y-60250
X120950Y-61250
X120950Y-62250
X120950Y-63250
X120950Y-64250
X120950Y-65250
X120950Y-66250
X120950Y-67250
X120950Y-68250
X120950Y-69250
X121050Y-75650
X121050Y-76650
X121050Y-77650
X121050Y-78650
X121050Y-79650
X121050Y-80650
X121050Y-81650
X121050Y-82650
X121050Y-83650
X121050Y-84650
X121050Y-85650
X121050Y-86650
X121950Y-58250
X121950Y-59250
X121950Y-60250
X121950Y-61250
X121950Y-62250
X121950Y-63250
X121950Y-64250
X121950Y-65250
X121950Y-66250
X121950Y-67250
X121950Y-68250
X121950Y-69250
X122000Y-47000
X122000Y-49000
X122000Y-51000
X122000Y-53000
X122000Y-55000
X122000Y-73000
X122000Y-130100
X122050Y-75650
X122050Y-76650
X122050Y-77650
X122050Y-78650
X122050Y-79650
X122050Y-80650
X122050Y-81650
X122050Y-82650
X122050Y-83650
X122050Y-84650
X122050Y-85650
X122050Y-86650
X122100Y-119200
X122100Y-132900
X122200Y-123900
X122500Y-103700
X122950Y-58250
X122950Y-59250
X122950Y-60250
X122950Y-67250
X122950Y-68250
X122950Y-69250
X123000Y-110900
X123050Y-75650
X123050Y-76650
X123050Y-77650
X123050Y-84650
X123050Y-85650
X123050Y-86650
X123700Y-119200
X124000Y-47000
X124000Y-49000
X124000Y-51000
X124000Y-53000
X124800Y-120200
X124900Y-58300
X124900Y-59300
X124900Y-60300
X124900Y-62050
X124900Y-63050
X124900Y-64550
X124900Y-65550
X124900Y-67300
X124900Y-68300
X124900Y-69300
X124900Y-75700
X124900Y-76700
X124900Y-77700
X124900Y-79450
X124900Y-80450
X124900Y-81950
X124900Y-82950
X124900Y-84700
X124900Y-85700
X124900Y-86700
X125300Y-132900
X125500Y-112500
X125900Y-58300
X125900Y-59300
X125900Y-60300
X125900Y-67300
X125900Y-68300
X125900Y-69300
X125900Y-75700
X125900Y-76700
X125900Y-77700
X125900Y-84700
X125900Y-85700
X125900Y-86700
X126000Y-47000
X126000Y-49000
X126000Y-51000
X126000Y-53000
X126000Y-62050
X126000Y-63050
X126000Y-64550
X126000Y-65550
X126000Y-79450
X126000Y-80450
X126000Y-81950
X126000Y-82950
X126000Y-96200
X126200Y-114700
X126600Y-115900
X126750Y-129200
X126900Y-58300
X126900Y-59300
X126900Y-60300
X126900Y-67300
X126900Y-68300
X126900Y-69300
X126900Y-75700
X126900Y-76700
X126900Y-77700
X126900Y-84700
X126900Y-85700
X126900Y-86700
X127100Y-62050
X127100Y-63050
X127100Y-64550
X127100Y-65550
X127100Y-79450
X127100Y-80450
X127100Y-81950
X127100Y-82950
X127400Y-107400
X127900Y-58300
X127900Y-59300
X127900Y-60300
X127900Y-67300
X127900Y-68300
X127900Y-69300
X127900Y-75700
X127900Y-76700
X127900Y-77700
X127900Y-84700
X127900Y-85700
X127900Y-86700
X128000Y-47000
X128000Y-49000
X128000Y-51000
X128000Y-53000
X128200Y-62050
X128200Y-63050
X128200Y-64550
X128200Y-65550
X128200Y-79450
X128200Y-80450
X128200Y-81950
X128200Y-82950
X128900Y-59300
X128900Y-60300
X128900Y-67300
X128900Y-68300
X128900Y-76700
X128900Y-77700
X128900Y-84700
X128900Y-85700
X129000Y-105100
X129200Y-108300
X129200Y-109200
X129800Y-121300
X129900Y-59300
X129900Y-60300
X129900Y-61300
X129900Y-62300
X129900Y-63300
X129900Y-64300
X129900Y-65300
X129900Y-66300
X129900Y-67300
X129900Y-68300
X129900Y-76700
X129900Y-77700
X129900Y-78700
X129900Y-79700
X129900Y-80700
X129900Y-81700
X129900Y-82700
X129900Y-83700
X129900Y-84700
X129900Y-85700
X130000Y-47000
X130000Y-49000
X130000Y-51000
X130000Y-53000
X130100Y-128800
X130900Y-59300
X130900Y-60300
X130900Y-61300
X130900Y-62300
X130900Y-63300
X130900Y-64300
X130900Y-65300
X130900Y-66300
X130900Y-67300
X130900Y-68300
X130900Y-76700
X130900Y-77700
X130900Y-78700
X130900Y-79700
X130900Y-80700
X130900Y-81700
X130900Y-82700
X130900Y-83700
X130900Y-84700
X130900Y-85700
X130900Y-101200
X131000Y-105100
X131000Y-131000
X131000Y-133000
X131550Y-118400
X131700Y-128000
X131900Y-58300
X131900Y-59300
X131900Y-60300
X131900Y-61300
X131900Y-62300
X131900Y-63300
X131900Y-64300
X131900Y-65300
X131900Y-66300
X131900Y-67300
X131900Y-68300
X131900Y-69300
X131900Y-75700
X131900Y-76700
X131900Y-77700
X131900Y-78700
X131900Y-79700
X131900Y-80700
X131900Y-81700
X131900Y-82700
X131900Y-83700
X131900Y-84700
X131900Y-85700
X131900Y-86700
X132000Y-47000
X132000Y-49000
X132000Y-51000
X132000Y-53000
X133000Y-91300
X133800Y-98400
X134000Y-47000
X134000Y-49000
X134000Y-51000
X134000Y-53000
X135000Y-129000
X135000Y-133000
X135250Y-108750
X135500Y-105500
X135750Y-118000
X136000Y-47000
X136000Y-49000
X136000Y-51000
X136000Y-53000
X136000Y-101000
X138000Y-47000
X138000Y-49000
X138000Y-51000
X138000Y-53000
X139000Y-98100
X139000Y-131000
X139000Y-133000
X139825Y-126057
X140000Y-47000
X140000Y-49000
X140000Y-51000
X140000Y-53000
X140400Y-100200
X140600Y-126700
X141000Y-133000
X141100Y-111850
X141200Y-110950
X142000Y-47000
X142000Y-49000
X142000Y-53000
X142000Y-132000
X142600Y-114500
X142900Y-59350
X142900Y-60350
X142900Y-61350
X142900Y-62350
X142900Y-63350
X142900Y-64350
X142900Y-65350
X142900Y-66350
X142900Y-67350
X142900Y-68350
X143000Y-76750
X143000Y-77750
X143000Y-78750
X143000Y-79750
X143000Y-80750
X143000Y-81750
X143000Y-82750
X143000Y-83750
X143000Y-84750
X143000Y-85750
X143000Y-129850
X143000Y-133000
X143900Y-58350
X143900Y-59350
X143900Y-60350
X143900Y-61350
X143900Y-62350
X143900Y-63350
X143900Y-64350
X143900Y-65350
X143900Y-66350
X143900Y-67350
X143900Y-68350
X143900Y-69350
X144000Y-47000
X144000Y-49000
X144000Y-75750
X144000Y-76750
X144000Y-77750
X144000Y-78750
X144000Y-79750
X144000Y-80750
X144000Y-81750
X144000Y-82750
X144000Y-83750
X144000Y-84750
X144000Y-85750
X144000Y-86750
X144000Y-132000
X144400Y-100100
X144500Y-119500
X144750Y-105000
X144750Y-106750
X144750Y-107750
X144750Y-108750
X144750Y-109750
X144750Y-110750
X144750Y-124250
X144750Y-125250
X144900Y-58350
X144900Y-59350
X144900Y-60350
X144900Y-67350
X144900Y-68350
X144900Y-69350
X145000Y-75750
X145000Y-76750
X145000Y-77750
X145000Y-84750
X145000Y-85750
X145000Y-86750
X145000Y-131000
X145000Y-133000
X145500Y-91100
X145750Y-105000
X145750Y-106750
X145750Y-107750
X145750Y-108750
X145750Y-109750
X145750Y-110750
X145750Y-121250
X145750Y-122250
X145750Y-123250
X145750Y-124250
X145750Y-125250
X146000Y-47000
X146000Y-49000
X146000Y-51000
X146000Y-132000
X146400Y-98100
X146500Y-115200
X146500Y-127000
X146700Y-128850
X146750Y-58250
X146750Y-59250
X146750Y-60250
X146750Y-62000
X146750Y-63000
X146750Y-64500
X146750Y-65500
X146750Y-67250
X146750Y-68250
X146750Y-69250
X146750Y-106750
X146750Y-107750
X146750Y-108750
X146750Y-109750
X146750Y-110750
X146750Y-121250
X146750Y-122250
X146750Y-123250
X146750Y-124250
X146750Y-125250
X147000Y-48000
X147000Y-75750
X147000Y-76750
X147000Y-77750
X147000Y-79500
X147000Y-80500
X147000Y-82000
X147000Y-83000
X147000Y-84750
X147000Y-85750
X147000Y-86750
X147000Y-131000
X147000Y-133000
X147750Y-58250
X147750Y-59250
X147750Y-60250
X147750Y-67250
X147750Y-68250
X147750Y-69250
X147850Y-62000
X147850Y-63000
X147850Y-64500
X147850Y-65500
X148000Y-47000
X148000Y-49000
X148000Y-53000
X148000Y-75750
X148000Y-76750
X148000Y-77750
X148000Y-84750
X148000Y-85750
X148000Y-86750
X148000Y-130000
X148000Y-132000
X148100Y-79500
X148100Y-80500
X148100Y-82000
X148100Y-83000
X148750Y-58250
X148750Y-59250
X148750Y-60250
X148750Y-67250
X148750Y-68250
X148750Y-69250
X148950Y-62000
X148950Y-63000
X148950Y-64500
X148950Y-65500
X149000Y-48000
X149000Y-75750
X149000Y-76750
X149000Y-77750
X149000Y-84750
X149000Y-85750
X149000Y-86750
X149000Y-129000
X149000Y-131000
X149000Y-133000
X149200Y-79500
X149200Y-80500
X149200Y-82000
X149200Y-83000
X149750Y-58250
X149750Y-59250
X149750Y-60250
X149750Y-67250
X149750Y-68250
X149750Y-69250
X150000Y-47000
X150000Y-49000
X150000Y-51000
X150000Y-53000
X150000Y-75750
X150000Y-76750
X150000Y-77750
X150000Y-84750
X150000Y-85750
X150000Y-86750
X150000Y-114000
X150000Y-115000
X150000Y-128000
X150000Y-130000
X150000Y-132000
X150050Y-62000
X150050Y-63000
X150050Y-64500
X150050Y-65500
X150175Y-108600
X150300Y-79500
X150300Y-80500
X150300Y-82000
X150300Y-83000
X150400Y-100900
X150400Y-101800
X150400Y-102600
X150500Y-118200
X150750Y-58250
X150750Y-59250
X150750Y-60250
X150750Y-67250
X150750Y-68250
X150750Y-69250
X150800Y-98100
X151000Y-48000
X151000Y-50000
X151000Y-52000
X151000Y-75750
X151000Y-76750
X151000Y-77750
X151000Y-84750
X151000Y-85750
X151000Y-86750
X151000Y-101300
X151000Y-102200
X151000Y-114000
X151000Y-115000
X151000Y-129000
X151000Y-131000
X151000Y-133000
X151750Y-58250
X151750Y-59250
X151750Y-60250
X151750Y-61250
X151750Y-62250
X151750Y-63250
X151750Y-64250
X151750Y-65250
X151750Y-66250
X151750Y-67250
X151750Y-68250
X151750Y-69250
X152000Y-47000
X152000Y-49000
X152000Y-51000
X152000Y-53000
X152000Y-75750
X152000Y-76750
X152000Y-77750
X152000Y-78750
X152000Y-79750
X152000Y-80750
X152000Y-81750
X152000Y-82750
X152000Y-83750
X152000Y-84750
X152000Y-85750
X152000Y-86750
X152000Y-114000
X152000Y-115000
X152000Y-130000
X152000Y-132000
X152100Y-109100
X152200Y-91100
X152750Y-58250
X152750Y-59250
X152750Y-60250
X152750Y-61250
X152750Y-62250
X152750Y-63250
X152750Y-64250
X152750Y-65250
X152750Y-66250
X152750Y-67250
X152750Y-68250
X152750Y-69250
X153000Y-48000
X153000Y-50000
X153000Y-52000
X153000Y-75750
X153000Y-76750
X153000Y-77750
X153000Y-78750
X153000Y-79750
X153000Y-80750
X153000Y-81750
X153000Y-82750
X153000Y-83750
X153000Y-84750
X153000Y-85750
X153000Y-86750
X153000Y-114000
X153000Y-115000
X153000Y-129000
X153000Y-131000
X153000Y-133000
X153750Y-58250
X153750Y-59250
X153750Y-60250
X153750Y-61250
X153750Y-62250
X153750Y-63250
X153750Y-64250
X153750Y-65250
X153750Y-66250
X153750Y-67250
X153750Y-68250
X153750Y-69250
X154000Y-47000
X154000Y-49000
X154000Y-51000
X154000Y-53000
X154000Y-75750
X154000Y-76750
X154000Y-77750
X154000Y-78750
X154000Y-79750
X154000Y-80750
X154000Y-81750
X154000Y-82750
X154000Y-83750
X154000Y-84750
X154000Y-85750
X154000Y-86750
X154000Y-130000
X154000Y-132000
X155000Y-48000
X155000Y-50000
X155000Y-52000
X155000Y-58000
X155000Y-62000
X155000Y-66000
X155000Y-70000
X155000Y-75000
X155000Y-79000
X155000Y-83000
X155000Y-87000
X155000Y-129000
X155000Y-131000
X155000Y-133000
X156000Y-47000
X156000Y-49000
X156000Y-51000
X156000Y-53000
X156000Y-93000
X156000Y-97000
X156000Y-101000
X156000Y-105000
X156000Y-110000
X156000Y-114000
X156000Y-118000
X156000Y-122000
X156000Y-128000
X156000Y-130000
X156000Y-132000
X157000Y-48000
X157000Y-50000
X157000Y-52000
X157000Y-60000
X157000Y-64000
X157000Y-68000
X157000Y-77000
X157000Y-81000
X157000Y-85000
X157000Y-127000
X157000Y-129000
X157000Y-131000
X157000Y-133000
X158000Y-47000
X158000Y-49000
X158000Y-51000
X158000Y-53000
X158000Y-95000
X158000Y-99000
X158000Y-103000
X158000Y-112000
X158000Y-116000
X158000Y-120000
X158000Y-128000
X158000Y-130000
X158000Y-132000
X159000Y-48000
X159000Y-50000
X159000Y-52000
X159000Y-58000
X159000Y-62000
X159000Y-66000
X159000Y-70000
X159000Y-75000
X159000Y-79000
X159000Y-83000
X159000Y-87000
X159000Y-127000
X159000Y-129000
X159000Y-131000
X159000Y-133000
X160000Y-47000
X160000Y-49000
X160000Y-51000
X160000Y-93000
X160000Y-97000
X160000Y-101000
X160000Y-105000
X160000Y-110000
X160000Y-114000
X160000Y-118000
X160000Y-122000
X160000Y-128000
X160000Y-130000
X160000Y-132000
X161000Y-48000
X161000Y-50000
X161000Y-93250
X161000Y-94250
X161000Y-95250
X161000Y-96250
X161000Y-97250
X161000Y-98250
X161000Y-99250
X161000Y-100250
X161000Y-101250
X161000Y-102250
X161000Y-103250
X161000Y-104250
X161000Y-127000
X161000Y-129000
X161000Y-131000
X161000Y-133000
X161250Y-110750
X161250Y-111750
X161250Y-112750
X161250Y-113750
X161250Y-114750
X161250Y-115750
X161250Y-116750
X161250Y-117750
X161250Y-118750
X161250Y-119750
X161250Y-120750
X161250Y-121750
X162000Y-47000
X162000Y-49000
X162000Y-51000
X162000Y-65000
X162000Y-66000
X162000Y-93250
X162000Y-94250
X162000Y-95250
X162000Y-96250
X162000Y-97250
X162000Y-98250
X162000Y-99250
X162000Y-100250
X162000Y-101250
X162000Y-102250
X162000Y-103250
X162000Y-104250
X162000Y-128000
X162000Y-130000
X162000Y-132000
X162250Y-110750
X162250Y-111750
X162250Y-112750
X162250Y-113750
X162250Y-114750
X162250Y-115750
X162250Y-116750
X162250Y-117750
X162250Y-118750
X162250Y-119750
X162250Y-120750
X162250Y-121750
X162800Y-88900
X162900Y-70900
X163000Y-48000
X163000Y-50000
X163000Y-65000
X163000Y-66000
X163000Y-93250
X163000Y-94250
X163000Y-95250
X163000Y-96250
X163000Y-97250
X163000Y-98250
X163000Y-99250
X163000Y-100250
X163000Y-101250
X163000Y-102250
X163000Y-103250
X163000Y-104250
X163000Y-127000
X163000Y-129000
X163000Y-131000
X163000Y-133000
X163250Y-110750
X163250Y-111750
X163250Y-112750
X163250Y-113750
X163250Y-114750
X163250Y-115750
X163250Y-116750
X163250Y-117750
X163250Y-118750
X163250Y-119750
X163250Y-120750
X163250Y-121750
X164000Y-47000
X164000Y-49000
X164000Y-51000
X164000Y-65000
X164000Y-66000
X164000Y-77800
X164000Y-78700
X164000Y-93250
X164000Y-94250
X164000Y-95250
X164000Y-102250
X164000Y-103250
X164000Y-104250
X164000Y-128000
X164000Y-130000
X164000Y-132000
X164200Y-81900
X164250Y-110750
X164250Y-111750
X164250Y-112750
X164250Y-119750
X164250Y-120750
X164250Y-121750
X164500Y-61800
X164600Y-77400
X164600Y-78200
X164600Y-79100
X164700Y-97000
X164700Y-98000
X164700Y-99500
X164700Y-100500
X164825Y-71400
X164950Y-114500
X164950Y-115500
X164950Y-117000
X164950Y-118000
X165000Y-48000
X165000Y-50000
X165000Y-52000
X165000Y-65000
X165000Y-66000
X165000Y-93250
X165000Y-94250
X165000Y-95250
X165000Y-102250
X165000Y-103250
X165000Y-104250
X165000Y-127000
X165000Y-129000
X165000Y-131000
X165000Y-133000
X165250Y-110750
X165250Y-111750
X165250Y-112750
X165250Y-119750
X165250Y-120750
X165250Y-121750
X165800Y-97000
X165800Y-98000
X165800Y-99500
X165800Y-100500
X166000Y-47000
X166000Y-49000
X166000Y-51000
X166000Y-93250
X166000Y-94250
X166000Y-95250
X166000Y-102250
X166000Y-103250
X166000Y-104250
X166000Y-132000
X166050Y-114500
X166050Y-115500
X166050Y-117000
X166050Y-118000
X166250Y-110750
X166250Y-111750
X166250Y-112750
X166250Y-119750
X166250Y-120750
X166250Y-121750
X166900Y-97000
X166900Y-98000
X166900Y-99500
X166900Y-100500
X167000Y-48000
X167000Y-50000
X167000Y-93250
X167000Y-94250
X167000Y-95250
X167000Y-102250
X167000Y-103250
X167000Y-104250
X167000Y-127000
X167000Y-131000
X167000Y-133000
X167150Y-114500
X167150Y-115500
X167150Y-117000
X167150Y-118000
X167250Y-110750
X167250Y-111750
X167250Y-112750
X167250Y-119750
X167250Y-120750
X167250Y-121750
X168000Y-47000
X168000Y-49000
X168000Y-93250
X168000Y-94250
X168000Y-95250
X168000Y-97000
X168000Y-98000
X168000Y-99500
X168000Y-100500
X168000Y-102250
X168000Y-103250
X168000Y-104250
X168000Y-132000
X168250Y-54750
X168250Y-55750
X168250Y-56750
X168250Y-57750
X168250Y-58750
X168250Y-69250
X168250Y-70250
X168250Y-71250
X168250Y-72250
X168250Y-73250
X168250Y-110750
X168250Y-111750
X168250Y-112750
X168250Y-114500
X168250Y-115500
X168250Y-117000
X168250Y-118000
X168250Y-119750
X168250Y-120750
X168250Y-121750
X168300Y-51150
X168500Y-53000
X168500Y-64800
X168600Y-81900
X169000Y-48000
X169000Y-129000
X169000Y-131000
X169000Y-133000
X169250Y-54750
X169250Y-55750
X169250Y-56750
X169250Y-57750
X169250Y-58750
X169250Y-69250
X169250Y-70250
X169250Y-71250
X169250Y-72250
X169250Y-73250
X169250Y-75000
X169500Y-88900
X170000Y-47000
X170000Y-49000
X170000Y-93250
X170000Y-94250
X170000Y-95250
X170000Y-102250
X170000Y-103250
X170000Y-104250
X170100Y-110650
X170100Y-111650
X170100Y-112650
X170100Y-119650
X170100Y-120650
X170100Y-121650
X170250Y-54750
X170250Y-55750
X170250Y-69250
X170250Y-70250
X170250Y-71250
X170250Y-72250
X170250Y-73250
X170250Y-75000
X170500Y-60500
X170600Y-79900
X171000Y-48000
X171000Y-93250
X171000Y-94250
X171000Y-95250
X171000Y-96250
X171000Y-97250
X171000Y-98250
X171000Y-99250
X171000Y-100250
X171000Y-101250
X171000Y-102250
X171000Y-103250
X171000Y-104250
X171000Y-131000
X171000Y-133000
X171100Y-110650
X171100Y-111650
X171100Y-112650
X171100Y-113650
X171100Y-114650
X171100Y-115650
X171100Y-116650
X171100Y-117650
X171100Y-118650
X171100Y-119650
X171100Y-120650
X171100Y-121650
X172000Y-47000
X172000Y-50150
X172000Y-94250
X172000Y-95250
X172000Y-96250
X172000Y-97250
X172000Y-98250
X172000Y-99250
X172000Y-100250
X172000Y-101250
X172000Y-102250
X172000Y-103250
X172100Y-111650
X172100Y-112650
X172100Y-113650
X172100Y-114650
X172100Y-115650
X172100Y-116650
X172100Y-117650
X172100Y-118650
X172100Y-119650
X172100Y-120650
X172400Y-65500
X173000Y-48000
X173000Y-127000
X173000Y-131000
X173000Y-133000
X173800Y-69050
X173900Y-68150
X174000Y-47000
X174400Y-53300
X174600Y-79800
X175000Y-127000
X175000Y-129000
X175000Y-131000
X175000Y-133000
X175175Y-53943
X176000Y-47000
X176000Y-49000
X176000Y-81900
X177000Y-127000
X177000Y-129000
X177000Y-131000
X177000Y-133000
X179000Y-79000
X179000Y-127000
X179000Y-129000
X179000Y-131000
X179000Y-133000
X179250Y-62000
X179500Y-74500
X179750Y-71250
X180000Y-47000
X180000Y-51000
X181000Y-127000
X181000Y-129000
X181000Y-131000
X181000Y-133000
X181200Y-81600
X182000Y-88700
X183000Y-127000
X183000Y-129000
X183000Y-131000
X183000Y-133000
X183100Y-93300
X183100Y-94300
X183100Y-95300
X183100Y-96300
X183100Y-97300
X183100Y-98300
X183100Y-99300
X183100Y-100300
X183100Y-101300
X183100Y-102300
X183100Y-103300
X183100Y-104300
X183100Y-110700
X183100Y-111700
X183100Y-112700
X183100Y-113700
X183100Y-114700
X183100Y-115700
X183100Y-116700
X183100Y-117700
X183100Y-118700
X183100Y-119700
X183100Y-120700
X183100Y-121700
X183300Y-52000
X183450Y-61600
X184000Y-47000
X184000Y-49000
X184000Y-74900
X184100Y-78800
X184100Y-94300
X184100Y-95300
X184100Y-96300
X184100Y-97300
X184100Y-98300
X184100Y-99300
X184100Y-100300
X184100Y-101300
X184100Y-102300
X184100Y-103300
X184100Y-111700
X184100Y-112700
X184100Y-113700
X184100Y-114700
X184100Y-115700
X184100Y-116700
X184100Y-117700
X184100Y-118700
X184100Y-119700
X184100Y-120700
X184900Y-51200
X185000Y-127000
X185000Y-129000
X185000Y-131000
X185000Y-133000
X185100Y-94300
X185100Y-95300
X185100Y-96300
X185100Y-97300
X185100Y-98300
X185100Y-99300
X185100Y-100300
X185100Y-101300
X185100Y-102300
X185100Y-103300
X185100Y-111700
X185100Y-112700
X185100Y-113700
X185100Y-114700
X185100Y-115700
X185100Y-116700
X185100Y-117700
X185100Y-118700
X185100Y-119700
X185100Y-120700
X185200Y-58700
X185800Y-70800
X185800Y-71700
X186000Y-74900
X186100Y-94300
X186100Y-95300
X186100Y-102300
X186100Y-103300
X186100Y-111700
X186100Y-112700
X186100Y-119700
X186100Y-120700
X186800Y-97050
X186800Y-98050
X186800Y-99550
X186800Y-100550
X186800Y-114450
X186800Y-115450
X186800Y-116950
X186800Y-117950
X187000Y-127000
X187000Y-129000
X187000Y-131000
X187000Y-133000
X187100Y-93300
X187100Y-94300
X187100Y-95300
X187100Y-102300
X187100Y-103300
X187100Y-104300
X187100Y-110700
X187100Y-111700
X187100Y-112700
X187100Y-119700
X187100Y-120700
X187100Y-121700
X187600Y-72600
X187900Y-97050
X187900Y-98050
X187900Y-99550
X187900Y-100550
X187900Y-114450
X187900Y-115450
X187900Y-116950
X187900Y-117950
X188100Y-93300
X188100Y-94300
X188100Y-95300
X188100Y-102300
X188100Y-103300
X188100Y-104300
X188100Y-110700
X188100Y-111700
X188100Y-112700
X188100Y-119700
X188100Y-120700
X188100Y-121700
X188250Y-50800
X188400Y-64100
X188800Y-65300
X189000Y-83800
X189000Y-97050
X189000Y-98050
X189000Y-99550
X189000Y-100550
X189000Y-114450
X189000Y-115450
X189000Y-116950
X189000Y-117950
X189000Y-127000
X189000Y-129000
X189000Y-131000
X189000Y-133000
X189100Y-93300
X189100Y-94300
X189100Y-95300
X189100Y-102300
X189100Y-103300
X189100Y-104300
X189100Y-110700
X189100Y-111700
X189100Y-112700
X189100Y-119700
X189100Y-120700
X189100Y-121700
X189500Y-67500
X189700Y-47100
X190100Y-93300
X190100Y-94300
X190100Y-95300
X190100Y-97050
X190100Y-98050
X190100Y-99550
X190100Y-100550
X190100Y-102300
X190100Y-103300
X190100Y-104300
X190100Y-110700
X190100Y-111700
X190100Y-112700
X190100Y-114450
X190100Y-115450
X190100Y-116950
X190100Y-117950
X190100Y-119700
X190100Y-120700
X190100Y-121700
X190200Y-59800
X191000Y-127000
X191000Y-129000
X191000Y-131000
X191000Y-133000
X191300Y-60800
X191950Y-93350
X191950Y-94350
X191950Y-95350
X191950Y-102350
X191950Y-103350
X191950Y-104350
X192000Y-69100
X192050Y-110750
X192050Y-111750
X192050Y-112750
X192050Y-119750
X192050Y-120750
X192050Y-121750
X192500Y-76300
X192800Y-56100
X192900Y-47100
X192900Y-60800
X192950Y-93350
X192950Y-94350
X192950Y-95350
X192950Y-96350
X192950Y-97350
X192950Y-98350
X192950Y-99350
X192950Y-100350
X192950Y-101350
X192950Y-102350
X192950Y-103350
X192950Y-104350
X193000Y-49900
X193000Y-107000
X193000Y-125000
X193000Y-127000
X193000Y-129000
X193000Y-131000
X193000Y-133000
X193050Y-110750
X193050Y-111750
X193050Y-112750
X193050Y-113750
X193050Y-114750
X193050Y-115750
X193050Y-116750
X193050Y-117750
X193050Y-118750
X193050Y-119750
X193050Y-120750
X193050Y-121750
X193950Y-93350
X193950Y-94350
X193950Y-95350
X193950Y-96350
X193950Y-97350
X193950Y-98350
X193950Y-99350
X193950Y-100350
X193950Y-101350
X193950Y-102350
X193950Y-103350
X193950Y-104350
X194050Y-110750
X194050Y-111750
X194050Y-112750
X194050Y-113750
X194050Y-114750
X194050Y-115750
X194050Y-116750
X194050Y-117750
X194050Y-118750
X194050Y-119750
X194050Y-120750
X194050Y-121750
X194750Y-74000
X194800Y-82800
X195000Y-125000
X195000Y-127000
X195000Y-129000
X195000Y-131000
X195000Y-133000
X195100Y-62100
X196000Y-93000
X196000Y-95000
X196000Y-97000
X196000Y-99000
X196000Y-101000
X196000Y-103000
X196000Y-105000
X196000Y-107000
X196000Y-109000
X196000Y-111000
X196000Y-113000
X196000Y-115000
X196000Y-117000
X196000Y-119000
X196000Y-121000
X196000Y-123000
X196700Y-89000
X197000Y-46800
X197000Y-125000
X197000Y-127000
X197000Y-129000
X197000Y-131000
X197000Y-133000
X197700Y-49300
X198000Y-57500
X198000Y-61000
X198000Y-68200
X198000Y-76000
X198000Y-82000
X198000Y-93000
X198000Y-95000
X198000Y-97000
X198000Y-99000
X198000Y-101000
X198000Y-103000
X198000Y-105000
X198000Y-107000
X198000Y-109000
X198000Y-111000
X198000Y-113000
X198000Y-115000
X198000Y-117000
X198000Y-119000
X198000Y-121000
X198000Y-123000
X199030Y-46470
T2
X118200Y-123100
X118300Y-127900
X122800Y-112600
X122800Y-113950
X122800Y-115200
X123200Y-88650
X123200Y-107300
X124000Y-70400
X124000Y-105900
X124100Y-56400
X124100Y-74700
X124800Y-107200
X125400Y-115800
X125500Y-105700
X126400Y-122400
X127200Y-122400
X127300Y-112800
X127900Y-97500
X128000Y-119500
X129500Y-117500
X130000Y-106900
X131100Y-112100
X131333Y-114416
X131650Y-109450
X131700Y-116700
X131900Y-102900
X132500Y-115600
X133950Y-102900
X134300Y-118000
X136550Y-114100
X136600Y-130900
X139736Y-110320
X139950Y-114000
X139972Y-109349
X139977Y-108349
X139987Y-123113
X140000Y-111450
X140000Y-124113
X140022Y-125179
X140025Y-122100
X140202Y-120261
X140460Y-106835
X145900Y-57250
X145900Y-70800
X146000Y-74400
X146000Y-87800
X150200Y-123000
X150400Y-112700
X150800Y-104700
X164200Y-75300
X164600Y-67300
X164800Y-57000
X169000Y-92200
X169000Y-105600
X169100Y-109200
X169100Y-122750
X174540Y-73165
X174798Y-59739
X174975Y-57900
X174978Y-54821
X175000Y-55887
X175000Y-68550
X175013Y-56887
X175023Y-71651
X175028Y-70651
X175050Y-66000
X175264Y-69680
X178400Y-49100
X178450Y-65900
X180700Y-62000
X181050Y-77100
X182500Y-64400
X183100Y-77100
X183300Y-63300
X183350Y-70550
X183667Y-65584
X183900Y-67900
X185000Y-73100
X185500Y-62500
X187000Y-60500
X187100Y-82500
X187700Y-67200
X187800Y-57600
X188600Y-57600
X189500Y-74300
X189600Y-64200
X190200Y-72800
X190900Y-105300
X190900Y-123600
X191000Y-74100
X191000Y-109600
X191800Y-72700
X191800Y-91350
X192200Y-64800
X192200Y-66050
X192200Y-67400
X196700Y-52100
X196800Y-56900
T3
X117580Y-93480
X117580Y-101100
X120120Y-93480
X120120Y-101100
X122660Y-93480
X122660Y-101100
X125200Y-93480
X125200Y-101100
X189800Y-78900
X189800Y-86520
X192340Y-78900
X192340Y-86520
X194880Y-78900
X194880Y-86520
X197420Y-78900
X197420Y-86520
T4
X139390Y-94700
X141930Y-94700
X144470Y-94700
X147010Y-94700
X149550Y-94700
X165450Y-85300
X167990Y-85300
X170530Y-85300
X173070Y-85300
X175610Y-85300
T5
X180020Y-84900
X182560Y-84900
X185100Y-84900
X129900Y-95100
X132440Y-95100
X134980Y-95100
X142920Y-50500
X148000Y-50500
X167000Y-129500
X172080Y-129500
T6
X179000Y-112700
X179000Y-119900
X136000Y-77600
X136000Y-84800
X136000Y-60100
X136000Y-67300
X179000Y-95200
X179000Y-102400
T5
G00X172400Y-92050
M15
G01X173600Y-92050
M16
G05
G00X172400Y-105550
M15
G01X173600Y-105550
M16
G05
G00X184400Y-92050
M15
G01X185600Y-92050
M16
G05
G00X184400Y-105550
M15
G01X185600Y-105550
M16
G05
G00X172400Y-109550
M15
G01X173600Y-109550
M16
G05
G00X172400Y-123050
M15
G01X173600Y-123050
M16
G05
G00X184400Y-109550
M15
G01X185600Y-109550
M16
G05
G00X184400Y-123050
M15
G01X185600Y-123050
M16
G05
G00X130600Y-74450
M15
G01X129400Y-74450
M16
G05
G00X130600Y-87950
M15
G01X129400Y-87950
M16
G05
G00X142600Y-74450
M15
G01X141400Y-74450
M16
G05
G00X142600Y-87950
M15
G01X141400Y-87950
M16
G05
G00X130600Y-56950
M15
G01X129400Y-56950
M16
G05
G00X130600Y-70450
M15
G01X129400Y-70450
M16
G05
G00X142600Y-56950
M15
G01X141400Y-56950
M16
G05
G00X142600Y-70450
M15
G01X141400Y-70450
M16
G05
T0
M30
