G04 #@! TF.GenerationSoftware,KiCad,Pcbnew,(5.1.5)-3*
G04 #@! TF.CreationDate,2020-03-04T22:49:46+09:00*
G04 #@! TF.ProjectId,CAN_Dual_MDexpress,43414e5f-4475-4616-9c5f-4d4465787072,rev?*
G04 #@! TF.SameCoordinates,Original*
G04 #@! TF.FileFunction,Soldermask,Top*
G04 #@! TF.FilePolarity,Negative*
%FSLAX46Y46*%
G04 Gerber Fmt 4.6, Leading zero omitted, Abs format (unit mm)*
G04 Created by KiCad (PCBNEW (5.1.5)-3) date 2020-03-04 22:49:46*
%MOMM*%
%LPD*%
G04 APERTURE LIST*
%ADD10C,0.100000*%
G04 APERTURE END LIST*
D10*
X199680000Y-86500000D02*
X199680000Y-48750000D01*
X199680000Y-86500000D02*
G75*
G02X196180000Y-90000000I-3500000J0D01*
G01*
X118880000Y-90000000D02*
G75*
G02X115380000Y-86500000I0J3500000D01*
G01*
X115380000Y-86500000D02*
X115380000Y-48750000D01*
X115320000Y-93500000D02*
G75*
G02X118820000Y-90000000I3500000J0D01*
G01*
X196120000Y-90000000D02*
G75*
G02X199620000Y-93500000I0J-3500000D01*
G01*
X115320000Y-93500000D02*
X115320000Y-131250000D01*
X199620000Y-93500000D02*
X199620000Y-131250000D01*
G36*
X199371000Y-138401000D02*
G01*
X198569000Y-138401000D01*
X198569000Y-137425999D01*
X198566598Y-137401613D01*
X198559485Y-137378164D01*
X198547934Y-137356553D01*
X198532389Y-137337611D01*
X198513447Y-137322066D01*
X198491836Y-137310515D01*
X198468387Y-137303402D01*
X198444001Y-137301000D01*
X197495999Y-137301000D01*
X197471613Y-137303402D01*
X197448164Y-137310515D01*
X197426553Y-137322066D01*
X197407611Y-137337611D01*
X197392066Y-137356553D01*
X197380515Y-137378164D01*
X197373402Y-137401613D01*
X197371000Y-137425999D01*
X197371000Y-138401000D01*
X128569000Y-138401000D01*
X128569000Y-133999000D01*
X199371000Y-133999000D01*
X199371000Y-138401000D01*
G37*
G36*
X126371000Y-138401000D02*
G01*
X115569000Y-138401000D01*
X115569000Y-133999000D01*
X126371000Y-133999000D01*
X126371000Y-138401000D01*
G37*
G36*
X196000000Y-130000000D02*
G01*
X171596347Y-130000000D01*
X171571961Y-130002402D01*
X171548512Y-130009515D01*
X171526901Y-130021066D01*
X171507959Y-130036611D01*
X171492422Y-130055544D01*
X171479853Y-130074354D01*
X171354354Y-130199853D01*
X171206784Y-130298456D01*
X171042812Y-130366376D01*
X170893512Y-130396073D01*
X170868742Y-130401000D01*
X170691258Y-130401000D01*
X170666488Y-130396073D01*
X170517188Y-130366376D01*
X170353216Y-130298456D01*
X170205646Y-130199853D01*
X170080147Y-130074354D01*
X170062528Y-130047986D01*
X170046986Y-130029047D01*
X170028043Y-130013502D01*
X170010986Y-130005435D01*
X170011088Y-130005244D01*
X170001277Y-130000000D01*
X170000000Y-130000000D01*
X170000000Y-129992322D01*
X169997598Y-129967936D01*
X169990485Y-129944487D01*
X169983343Y-129931126D01*
X169981544Y-129926784D01*
X169913624Y-129762812D01*
X169879000Y-129588741D01*
X169879000Y-129411259D01*
X169913624Y-129237188D01*
X169981544Y-129073216D01*
X169981545Y-129073215D01*
X169983342Y-129068876D01*
X169990485Y-129055514D01*
X169997598Y-129032065D01*
X170000000Y-129007678D01*
X170000000Y-127000000D01*
X192875001Y-127000000D01*
X192899387Y-126997598D01*
X192922836Y-126990485D01*
X192944447Y-126978934D01*
X192963389Y-126963389D01*
X192978934Y-126944447D01*
X192990485Y-126922836D01*
X192997598Y-126899387D01*
X193000000Y-126875001D01*
X193000000Y-95000000D01*
X196000000Y-95000000D01*
X196000000Y-130000000D01*
G37*
G36*
X166601000Y-130401000D02*
G01*
X164799000Y-130401000D01*
X164799000Y-128599000D01*
X166601000Y-128599000D01*
X166601000Y-130401000D01*
G37*
G36*
X122542091Y-129078085D02*
G01*
X122576069Y-129088393D01*
X122607390Y-129105134D01*
X122634839Y-129127661D01*
X122657366Y-129155110D01*
X122674107Y-129186431D01*
X122684415Y-129220409D01*
X122688500Y-129261890D01*
X122688500Y-129938110D01*
X122684415Y-129979591D01*
X122674107Y-130013569D01*
X122657366Y-130044890D01*
X122634839Y-130072339D01*
X122607390Y-130094866D01*
X122576069Y-130111607D01*
X122542091Y-130121915D01*
X122500610Y-130126000D01*
X121899390Y-130126000D01*
X121857909Y-130121915D01*
X121823931Y-130111607D01*
X121792610Y-130094866D01*
X121765161Y-130072339D01*
X121742634Y-130044890D01*
X121725893Y-130013569D01*
X121715585Y-129979591D01*
X121711500Y-129938110D01*
X121711500Y-129261890D01*
X121715585Y-129220409D01*
X121725893Y-129186431D01*
X121742634Y-129155110D01*
X121765161Y-129127661D01*
X121792610Y-129105134D01*
X121823931Y-129088393D01*
X121857909Y-129078085D01*
X121899390Y-129074000D01*
X122500610Y-129074000D01*
X122542091Y-129078085D01*
G37*
G36*
X124117091Y-129078085D02*
G01*
X124151069Y-129088393D01*
X124182390Y-129105134D01*
X124209839Y-129127661D01*
X124232366Y-129155110D01*
X124249107Y-129186431D01*
X124259415Y-129220409D01*
X124263500Y-129261890D01*
X124263500Y-129938110D01*
X124259415Y-129979591D01*
X124249107Y-130013569D01*
X124232366Y-130044890D01*
X124209839Y-130072339D01*
X124182390Y-130094866D01*
X124151069Y-130111607D01*
X124117091Y-130121915D01*
X124075610Y-130126000D01*
X123474390Y-130126000D01*
X123432909Y-130121915D01*
X123398931Y-130111607D01*
X123367610Y-130094866D01*
X123340161Y-130072339D01*
X123317634Y-130044890D01*
X123300893Y-130013569D01*
X123290585Y-129979591D01*
X123286500Y-129938110D01*
X123286500Y-129261890D01*
X123290585Y-129220409D01*
X123300893Y-129186431D01*
X123317634Y-129155110D01*
X123340161Y-129127661D01*
X123367610Y-129105134D01*
X123398931Y-129088393D01*
X123432909Y-129078085D01*
X123474390Y-129074000D01*
X124075610Y-129074000D01*
X124117091Y-129078085D01*
G37*
G36*
X137090591Y-126978085D02*
G01*
X137124569Y-126988393D01*
X137155890Y-127005134D01*
X137183339Y-127027661D01*
X137205866Y-127055110D01*
X137222607Y-127086431D01*
X137232915Y-127120409D01*
X137237000Y-127161890D01*
X137237000Y-127838110D01*
X137232915Y-127879591D01*
X137222607Y-127913569D01*
X137205866Y-127944890D01*
X137183339Y-127972339D01*
X137155890Y-127994866D01*
X137124569Y-128011607D01*
X137090591Y-128021915D01*
X137049110Y-128026000D01*
X136447890Y-128026000D01*
X136406409Y-128021915D01*
X136372431Y-128011607D01*
X136341110Y-127994866D01*
X136313661Y-127972339D01*
X136291134Y-127944890D01*
X136274393Y-127913569D01*
X136264085Y-127879591D01*
X136260000Y-127838110D01*
X136260000Y-127161890D01*
X136264085Y-127120409D01*
X136274393Y-127086431D01*
X136291134Y-127055110D01*
X136313661Y-127027661D01*
X136341110Y-127005134D01*
X136372431Y-126988393D01*
X136406409Y-126978085D01*
X136447890Y-126974000D01*
X137049110Y-126974000D01*
X137090591Y-126978085D01*
G37*
G36*
X138665591Y-126978085D02*
G01*
X138699569Y-126988393D01*
X138730890Y-127005134D01*
X138758339Y-127027661D01*
X138780866Y-127055110D01*
X138797607Y-127086431D01*
X138807915Y-127120409D01*
X138812000Y-127161890D01*
X138812000Y-127838110D01*
X138807915Y-127879591D01*
X138797607Y-127913569D01*
X138780866Y-127944890D01*
X138758339Y-127972339D01*
X138730890Y-127994866D01*
X138699569Y-128011607D01*
X138665591Y-128021915D01*
X138624110Y-128026000D01*
X138022890Y-128026000D01*
X137981409Y-128021915D01*
X137947431Y-128011607D01*
X137916110Y-127994866D01*
X137888661Y-127972339D01*
X137866134Y-127944890D01*
X137849393Y-127913569D01*
X137839085Y-127879591D01*
X137835000Y-127838110D01*
X137835000Y-127161890D01*
X137839085Y-127120409D01*
X137849393Y-127086431D01*
X137866134Y-127055110D01*
X137888661Y-127027661D01*
X137916110Y-127005134D01*
X137947431Y-126988393D01*
X137981409Y-126978085D01*
X138022890Y-126974000D01*
X138624110Y-126974000D01*
X138665591Y-126978085D01*
G37*
G36*
X149498500Y-127653000D02*
G01*
X147921500Y-127653000D01*
X147921500Y-118651000D01*
X149498500Y-118651000D01*
X149498500Y-127653000D01*
G37*
G36*
X143622500Y-127653000D02*
G01*
X142045500Y-127653000D01*
X142045500Y-118651000D01*
X143622500Y-118651000D01*
X143622500Y-127653000D01*
G37*
G36*
X152584468Y-126266065D02*
G01*
X152623138Y-126277796D01*
X152658777Y-126296846D01*
X152690017Y-126322483D01*
X152715654Y-126353723D01*
X152734704Y-126389362D01*
X152746435Y-126428032D01*
X152751000Y-126474388D01*
X152751000Y-127125612D01*
X152746435Y-127171968D01*
X152734704Y-127210638D01*
X152715654Y-127246277D01*
X152690017Y-127277517D01*
X152658777Y-127303154D01*
X152623138Y-127322204D01*
X152584468Y-127333935D01*
X152538112Y-127338500D01*
X151461888Y-127338500D01*
X151415532Y-127333935D01*
X151376862Y-127322204D01*
X151341223Y-127303154D01*
X151309983Y-127277517D01*
X151284346Y-127246277D01*
X151265296Y-127210638D01*
X151253565Y-127171968D01*
X151249000Y-127125612D01*
X151249000Y-126474388D01*
X151253565Y-126428032D01*
X151265296Y-126389362D01*
X151284346Y-126353723D01*
X151309983Y-126322483D01*
X151341223Y-126296846D01*
X151376862Y-126277796D01*
X151415532Y-126266065D01*
X151461888Y-126261500D01*
X152538112Y-126261500D01*
X152584468Y-126266065D01*
G37*
G36*
X125251000Y-127001000D02*
G01*
X123149000Y-127001000D01*
X123149000Y-125399000D01*
X125251000Y-125399000D01*
X125251000Y-127001000D01*
G37*
G36*
X121284468Y-125703565D02*
G01*
X121323138Y-125715296D01*
X121358777Y-125734346D01*
X121390017Y-125759983D01*
X121415654Y-125791223D01*
X121434704Y-125826862D01*
X121446435Y-125865532D01*
X121451000Y-125911888D01*
X121451000Y-126563112D01*
X121446435Y-126609468D01*
X121434704Y-126648138D01*
X121415654Y-126683777D01*
X121390017Y-126715017D01*
X121358777Y-126740654D01*
X121323138Y-126759704D01*
X121284468Y-126771435D01*
X121238112Y-126776000D01*
X120161888Y-126776000D01*
X120115532Y-126771435D01*
X120076862Y-126759704D01*
X120041223Y-126740654D01*
X120009983Y-126715017D01*
X119984346Y-126683777D01*
X119965296Y-126648138D01*
X119953565Y-126609468D01*
X119949000Y-126563112D01*
X119949000Y-125911888D01*
X119953565Y-125865532D01*
X119965296Y-125826862D01*
X119984346Y-125791223D01*
X120009983Y-125759983D01*
X120041223Y-125734346D01*
X120076862Y-125715296D01*
X120115532Y-125703565D01*
X120161888Y-125699000D01*
X121238112Y-125699000D01*
X121284468Y-125703565D01*
G37*
G36*
X160117091Y-124978085D02*
G01*
X160151069Y-124988393D01*
X160182390Y-125005134D01*
X160209839Y-125027661D01*
X160232366Y-125055110D01*
X160249107Y-125086431D01*
X160259415Y-125120409D01*
X160263500Y-125161890D01*
X160263500Y-125838110D01*
X160259415Y-125879591D01*
X160249107Y-125913569D01*
X160232366Y-125944890D01*
X160209839Y-125972339D01*
X160182390Y-125994866D01*
X160151069Y-126011607D01*
X160117091Y-126021915D01*
X160075610Y-126026000D01*
X159474390Y-126026000D01*
X159432909Y-126021915D01*
X159398931Y-126011607D01*
X159367610Y-125994866D01*
X159340161Y-125972339D01*
X159317634Y-125944890D01*
X159300893Y-125913569D01*
X159290585Y-125879591D01*
X159286500Y-125838110D01*
X159286500Y-125161890D01*
X159290585Y-125120409D01*
X159300893Y-125086431D01*
X159317634Y-125055110D01*
X159340161Y-125027661D01*
X159367610Y-125005134D01*
X159398931Y-124988393D01*
X159432909Y-124978085D01*
X159474390Y-124974000D01*
X160075610Y-124974000D01*
X160117091Y-124978085D01*
G37*
G36*
X158542091Y-124978085D02*
G01*
X158576069Y-124988393D01*
X158607390Y-125005134D01*
X158634839Y-125027661D01*
X158657366Y-125055110D01*
X158674107Y-125086431D01*
X158684415Y-125120409D01*
X158688500Y-125161890D01*
X158688500Y-125838110D01*
X158684415Y-125879591D01*
X158674107Y-125913569D01*
X158657366Y-125944890D01*
X158634839Y-125972339D01*
X158607390Y-125994866D01*
X158576069Y-126011607D01*
X158542091Y-126021915D01*
X158500610Y-126026000D01*
X157899390Y-126026000D01*
X157857909Y-126021915D01*
X157823931Y-126011607D01*
X157792610Y-125994866D01*
X157765161Y-125972339D01*
X157742634Y-125944890D01*
X157725893Y-125913569D01*
X157715585Y-125879591D01*
X157711500Y-125838110D01*
X157711500Y-125161890D01*
X157715585Y-125120409D01*
X157725893Y-125086431D01*
X157742634Y-125055110D01*
X157765161Y-125027661D01*
X157792610Y-125005134D01*
X157823931Y-124988393D01*
X157857909Y-124978085D01*
X157899390Y-124974000D01*
X158500610Y-124974000D01*
X158542091Y-124978085D01*
G37*
G36*
X131551000Y-125851000D02*
G01*
X129449000Y-125851000D01*
X129449000Y-121949000D01*
X131551000Y-121949000D01*
X131551000Y-125851000D01*
G37*
G36*
X147323000Y-125703000D02*
G01*
X144221000Y-125703000D01*
X144221000Y-120601000D01*
X147323000Y-120601000D01*
X147323000Y-125703000D01*
G37*
G36*
X152584468Y-124391065D02*
G01*
X152623138Y-124402796D01*
X152658777Y-124421846D01*
X152690017Y-124447483D01*
X152715654Y-124478723D01*
X152734704Y-124514362D01*
X152746435Y-124553032D01*
X152751000Y-124599388D01*
X152751000Y-125250612D01*
X152746435Y-125296968D01*
X152734704Y-125335638D01*
X152715654Y-125371277D01*
X152690017Y-125402517D01*
X152658777Y-125428154D01*
X152623138Y-125447204D01*
X152584468Y-125458935D01*
X152538112Y-125463500D01*
X151461888Y-125463500D01*
X151415532Y-125458935D01*
X151376862Y-125447204D01*
X151341223Y-125428154D01*
X151309983Y-125402517D01*
X151284346Y-125371277D01*
X151265296Y-125335638D01*
X151253565Y-125296968D01*
X151249000Y-125250612D01*
X151249000Y-124599388D01*
X151253565Y-124553032D01*
X151265296Y-124514362D01*
X151284346Y-124478723D01*
X151309983Y-124447483D01*
X151341223Y-124421846D01*
X151376862Y-124402796D01*
X151415532Y-124391065D01*
X151461888Y-124386500D01*
X152538112Y-124386500D01*
X152584468Y-124391065D01*
G37*
G36*
X138665591Y-124228085D02*
G01*
X138699569Y-124238393D01*
X138730890Y-124255134D01*
X138758339Y-124277661D01*
X138780866Y-124305110D01*
X138797607Y-124336431D01*
X138807915Y-124370409D01*
X138812000Y-124411890D01*
X138812000Y-125088110D01*
X138807915Y-125129591D01*
X138797607Y-125163569D01*
X138780866Y-125194890D01*
X138758339Y-125222339D01*
X138730890Y-125244866D01*
X138699569Y-125261607D01*
X138665591Y-125271915D01*
X138624110Y-125276000D01*
X138022890Y-125276000D01*
X137981409Y-125271915D01*
X137947431Y-125261607D01*
X137916110Y-125244866D01*
X137888661Y-125222339D01*
X137866134Y-125194890D01*
X137849393Y-125163569D01*
X137839085Y-125129591D01*
X137835000Y-125088110D01*
X137835000Y-124411890D01*
X137839085Y-124370409D01*
X137849393Y-124336431D01*
X137866134Y-124305110D01*
X137888661Y-124277661D01*
X137916110Y-124255134D01*
X137947431Y-124238393D01*
X137981409Y-124228085D01*
X138022890Y-124224000D01*
X138624110Y-124224000D01*
X138665591Y-124228085D01*
G37*
G36*
X137090591Y-124228085D02*
G01*
X137124569Y-124238393D01*
X137155890Y-124255134D01*
X137183339Y-124277661D01*
X137205866Y-124305110D01*
X137222607Y-124336431D01*
X137232915Y-124370409D01*
X137237000Y-124411890D01*
X137237000Y-125088110D01*
X137232915Y-125129591D01*
X137222607Y-125163569D01*
X137205866Y-125194890D01*
X137183339Y-125222339D01*
X137155890Y-125244866D01*
X137124569Y-125261607D01*
X137090591Y-125271915D01*
X137049110Y-125276000D01*
X136447890Y-125276000D01*
X136406409Y-125271915D01*
X136372431Y-125261607D01*
X136341110Y-125244866D01*
X136313661Y-125222339D01*
X136291134Y-125194890D01*
X136274393Y-125163569D01*
X136264085Y-125129591D01*
X136260000Y-125088110D01*
X136260000Y-124411890D01*
X136264085Y-124370409D01*
X136274393Y-124336431D01*
X136291134Y-124305110D01*
X136313661Y-124277661D01*
X136341110Y-124255134D01*
X136372431Y-124238393D01*
X136406409Y-124228085D01*
X136447890Y-124224000D01*
X137049110Y-124224000D01*
X137090591Y-124228085D01*
G37*
G36*
X121284468Y-123828565D02*
G01*
X121323138Y-123840296D01*
X121358777Y-123859346D01*
X121390017Y-123884983D01*
X121415654Y-123916223D01*
X121434704Y-123951862D01*
X121446435Y-123990532D01*
X121451000Y-124036888D01*
X121451000Y-124688112D01*
X121446435Y-124734468D01*
X121434704Y-124773138D01*
X121415654Y-124808777D01*
X121390017Y-124840017D01*
X121358777Y-124865654D01*
X121323138Y-124884704D01*
X121284468Y-124896435D01*
X121238112Y-124901000D01*
X120161888Y-124901000D01*
X120115532Y-124896435D01*
X120076862Y-124884704D01*
X120041223Y-124865654D01*
X120009983Y-124840017D01*
X119984346Y-124808777D01*
X119965296Y-124773138D01*
X119953565Y-124734468D01*
X119949000Y-124688112D01*
X119949000Y-124036888D01*
X119953565Y-123990532D01*
X119965296Y-123951862D01*
X119984346Y-123916223D01*
X120009983Y-123884983D01*
X120041223Y-123859346D01*
X120076862Y-123840296D01*
X120115532Y-123828565D01*
X120161888Y-123824000D01*
X121238112Y-123824000D01*
X121284468Y-123828565D01*
G37*
G36*
X125251000Y-124701000D02*
G01*
X123149000Y-124701000D01*
X123149000Y-123099000D01*
X125251000Y-123099000D01*
X125251000Y-124701000D01*
G37*
G36*
X155142091Y-123178085D02*
G01*
X155176069Y-123188393D01*
X155207390Y-123205134D01*
X155234839Y-123227661D01*
X155257366Y-123255110D01*
X155274107Y-123286431D01*
X155284415Y-123320409D01*
X155288500Y-123361890D01*
X155288500Y-124038110D01*
X155284415Y-124079591D01*
X155274107Y-124113569D01*
X155257366Y-124144890D01*
X155234839Y-124172339D01*
X155207390Y-124194866D01*
X155176069Y-124211607D01*
X155142091Y-124221915D01*
X155100610Y-124226000D01*
X154499390Y-124226000D01*
X154457909Y-124221915D01*
X154423931Y-124211607D01*
X154392610Y-124194866D01*
X154365161Y-124172339D01*
X154342634Y-124144890D01*
X154325893Y-124113569D01*
X154315585Y-124079591D01*
X154311500Y-124038110D01*
X154311500Y-123361890D01*
X154315585Y-123320409D01*
X154325893Y-123286431D01*
X154342634Y-123255110D01*
X154365161Y-123227661D01*
X154392610Y-123205134D01*
X154423931Y-123188393D01*
X154457909Y-123178085D01*
X154499390Y-123174000D01*
X155100610Y-123174000D01*
X155142091Y-123178085D01*
G37*
G36*
X156717091Y-123178085D02*
G01*
X156751069Y-123188393D01*
X156782390Y-123205134D01*
X156809839Y-123227661D01*
X156832366Y-123255110D01*
X156849107Y-123286431D01*
X156859415Y-123320409D01*
X156863500Y-123361890D01*
X156863500Y-124038110D01*
X156859415Y-124079591D01*
X156849107Y-124113569D01*
X156832366Y-124144890D01*
X156809839Y-124172339D01*
X156782390Y-124194866D01*
X156751069Y-124211607D01*
X156717091Y-124221915D01*
X156675610Y-124226000D01*
X156074390Y-124226000D01*
X156032909Y-124221915D01*
X155998931Y-124211607D01*
X155967610Y-124194866D01*
X155940161Y-124172339D01*
X155917634Y-124144890D01*
X155900893Y-124113569D01*
X155890585Y-124079591D01*
X155886500Y-124038110D01*
X155886500Y-123361890D01*
X155890585Y-123320409D01*
X155900893Y-123286431D01*
X155917634Y-123255110D01*
X155940161Y-123227661D01*
X155967610Y-123205134D01*
X155998931Y-123188393D01*
X156032909Y-123178085D01*
X156074390Y-123174000D01*
X156675610Y-123174000D01*
X156717091Y-123178085D01*
G37*
G36*
X182128571Y-122152863D02*
G01*
X182207023Y-122160590D01*
X182307682Y-122191125D01*
X182358013Y-122206392D01*
X182497165Y-122280771D01*
X182619133Y-122380867D01*
X182719229Y-122502835D01*
X182793608Y-122641987D01*
X182804386Y-122677517D01*
X182839410Y-122792977D01*
X182854875Y-122950000D01*
X182839410Y-123107023D01*
X182817669Y-123178693D01*
X182793608Y-123258013D01*
X182719229Y-123397165D01*
X182619133Y-123519133D01*
X182497165Y-123619229D01*
X182358013Y-123693608D01*
X182307682Y-123708875D01*
X182207023Y-123739410D01*
X182128571Y-123747137D01*
X182089346Y-123751000D01*
X180710654Y-123751000D01*
X180671429Y-123747137D01*
X180592977Y-123739410D01*
X180492318Y-123708875D01*
X180441987Y-123693608D01*
X180302835Y-123619229D01*
X180180867Y-123519133D01*
X180080771Y-123397165D01*
X180006392Y-123258013D01*
X179982331Y-123178693D01*
X179960590Y-123107023D01*
X179945125Y-122950000D01*
X179960590Y-122792977D01*
X179995614Y-122677517D01*
X180006392Y-122641987D01*
X180080771Y-122502835D01*
X180180867Y-122380867D01*
X180302835Y-122280771D01*
X180441987Y-122206392D01*
X180492318Y-122191125D01*
X180592977Y-122160590D01*
X180671429Y-122152863D01*
X180710654Y-122149000D01*
X182089346Y-122149000D01*
X182128571Y-122152863D01*
G37*
G36*
X152584468Y-121666065D02*
G01*
X152623138Y-121677796D01*
X152658777Y-121696846D01*
X152690017Y-121722483D01*
X152715654Y-121753723D01*
X152734704Y-121789362D01*
X152746435Y-121828032D01*
X152751000Y-121874388D01*
X152751000Y-122525612D01*
X152746435Y-122571968D01*
X152734704Y-122610638D01*
X152715654Y-122646277D01*
X152690017Y-122677517D01*
X152658777Y-122703154D01*
X152623138Y-122722204D01*
X152584468Y-122733935D01*
X152538112Y-122738500D01*
X151461888Y-122738500D01*
X151415532Y-122733935D01*
X151376862Y-122722204D01*
X151341223Y-122703154D01*
X151309983Y-122677517D01*
X151284346Y-122646277D01*
X151265296Y-122610638D01*
X151253565Y-122571968D01*
X151249000Y-122525612D01*
X151249000Y-121874388D01*
X151253565Y-121828032D01*
X151265296Y-121789362D01*
X151284346Y-121753723D01*
X151309983Y-121722483D01*
X151341223Y-121696846D01*
X151376862Y-121677796D01*
X151415532Y-121666065D01*
X151461888Y-121661500D01*
X152538112Y-121661500D01*
X152584468Y-121666065D01*
G37*
G36*
X175863122Y-117240164D02*
G01*
X176158684Y-117298955D01*
X176354752Y-117380169D01*
X176632034Y-117495023D01*
X176773393Y-117589476D01*
X177058041Y-117779671D01*
X177420329Y-118141959D01*
X177610524Y-118426607D01*
X177704977Y-118567966D01*
X177803884Y-118806750D01*
X177901045Y-119041316D01*
X177906915Y-119070826D01*
X178001000Y-119543823D01*
X178001000Y-120056177D01*
X177951022Y-120307430D01*
X177901045Y-120558684D01*
X177831051Y-120727664D01*
X177704977Y-121032034D01*
X177704976Y-121032035D01*
X177420329Y-121458041D01*
X177058041Y-121820329D01*
X176865470Y-121949000D01*
X176632034Y-122104977D01*
X176387196Y-122206392D01*
X176158684Y-122301045D01*
X175907430Y-122351023D01*
X175656177Y-122401000D01*
X175143823Y-122401000D01*
X174892570Y-122351023D01*
X174641316Y-122301045D01*
X174412804Y-122206392D01*
X174167966Y-122104977D01*
X173934530Y-121949000D01*
X173741959Y-121820329D01*
X173379671Y-121458041D01*
X173095024Y-121032035D01*
X173095023Y-121032034D01*
X172968949Y-120727664D01*
X172898955Y-120558684D01*
X172848978Y-120307430D01*
X172799000Y-120056177D01*
X172799000Y-119543823D01*
X172893085Y-119070826D01*
X172898955Y-119041316D01*
X172996116Y-118806750D01*
X173095023Y-118567966D01*
X173189476Y-118426607D01*
X173379671Y-118141959D01*
X173741959Y-117779671D01*
X174026607Y-117589476D01*
X174167966Y-117495023D01*
X174445248Y-117380169D01*
X174641316Y-117298955D01*
X174936878Y-117240164D01*
X175143823Y-117199000D01*
X175656177Y-117199000D01*
X175863122Y-117240164D01*
G37*
G36*
X125251000Y-122401000D02*
G01*
X123149000Y-122401000D01*
X123149000Y-120799000D01*
X125251000Y-120799000D01*
X125251000Y-122401000D01*
G37*
G36*
X138691091Y-121263085D02*
G01*
X138725069Y-121273393D01*
X138756390Y-121290134D01*
X138783839Y-121312661D01*
X138806366Y-121340110D01*
X138823107Y-121371431D01*
X138833415Y-121405409D01*
X138837500Y-121446890D01*
X138837500Y-122123110D01*
X138833415Y-122164591D01*
X138823107Y-122198569D01*
X138806366Y-122229890D01*
X138783839Y-122257339D01*
X138756390Y-122279866D01*
X138725069Y-122296607D01*
X138691091Y-122306915D01*
X138649610Y-122311000D01*
X138048390Y-122311000D01*
X138006909Y-122306915D01*
X137972931Y-122296607D01*
X137941610Y-122279866D01*
X137914161Y-122257339D01*
X137891634Y-122229890D01*
X137874893Y-122198569D01*
X137864585Y-122164591D01*
X137860500Y-122123110D01*
X137860500Y-121446890D01*
X137864585Y-121405409D01*
X137874893Y-121371431D01*
X137891634Y-121340110D01*
X137914161Y-121312661D01*
X137941610Y-121290134D01*
X137972931Y-121273393D01*
X138006909Y-121263085D01*
X138048390Y-121259000D01*
X138649610Y-121259000D01*
X138691091Y-121263085D01*
G37*
G36*
X137116091Y-121263085D02*
G01*
X137150069Y-121273393D01*
X137181390Y-121290134D01*
X137208839Y-121312661D01*
X137231366Y-121340110D01*
X137248107Y-121371431D01*
X137258415Y-121405409D01*
X137262500Y-121446890D01*
X137262500Y-122123110D01*
X137258415Y-122164591D01*
X137248107Y-122198569D01*
X137231366Y-122229890D01*
X137208839Y-122257339D01*
X137181390Y-122279866D01*
X137150069Y-122296607D01*
X137116091Y-122306915D01*
X137074610Y-122311000D01*
X136473390Y-122311000D01*
X136431909Y-122306915D01*
X136397931Y-122296607D01*
X136366610Y-122279866D01*
X136339161Y-122257339D01*
X136316634Y-122229890D01*
X136299893Y-122198569D01*
X136289585Y-122164591D01*
X136285500Y-122123110D01*
X136285500Y-121446890D01*
X136289585Y-121405409D01*
X136299893Y-121371431D01*
X136316634Y-121340110D01*
X136339161Y-121312661D01*
X136366610Y-121290134D01*
X136397931Y-121273393D01*
X136431909Y-121263085D01*
X136473390Y-121259000D01*
X137074610Y-121259000D01*
X137116091Y-121263085D01*
G37*
G36*
X155379591Y-120690585D02*
G01*
X155413569Y-120700893D01*
X155444890Y-120717634D01*
X155472339Y-120740161D01*
X155494866Y-120767610D01*
X155511607Y-120798931D01*
X155521915Y-120832909D01*
X155526000Y-120874390D01*
X155526000Y-121475610D01*
X155521915Y-121517091D01*
X155511607Y-121551069D01*
X155494866Y-121582390D01*
X155472339Y-121609839D01*
X155444890Y-121632366D01*
X155413569Y-121649107D01*
X155379591Y-121659415D01*
X155338110Y-121663500D01*
X154661890Y-121663500D01*
X154620409Y-121659415D01*
X154586431Y-121649107D01*
X154555110Y-121632366D01*
X154527661Y-121609839D01*
X154505134Y-121582390D01*
X154488393Y-121551069D01*
X154478085Y-121517091D01*
X154474000Y-121475610D01*
X154474000Y-120874390D01*
X154478085Y-120832909D01*
X154488393Y-120798931D01*
X154505134Y-120767610D01*
X154527661Y-120740161D01*
X154555110Y-120717634D01*
X154586431Y-120700893D01*
X154620409Y-120690585D01*
X154661890Y-120686500D01*
X155338110Y-120686500D01*
X155379591Y-120690585D01*
G37*
G36*
X152584468Y-119791065D02*
G01*
X152623138Y-119802796D01*
X152658777Y-119821846D01*
X152690017Y-119847483D01*
X152715654Y-119878723D01*
X152734704Y-119914362D01*
X152746435Y-119953032D01*
X152751000Y-119999388D01*
X152751000Y-120650612D01*
X152746435Y-120696968D01*
X152734704Y-120735638D01*
X152715654Y-120771277D01*
X152690017Y-120802517D01*
X152658777Y-120828154D01*
X152623138Y-120847204D01*
X152584468Y-120858935D01*
X152538112Y-120863500D01*
X151461888Y-120863500D01*
X151415532Y-120858935D01*
X151376862Y-120847204D01*
X151341223Y-120828154D01*
X151309983Y-120802517D01*
X151284346Y-120771277D01*
X151265296Y-120735638D01*
X151253565Y-120696968D01*
X151249000Y-120650612D01*
X151249000Y-119999388D01*
X151253565Y-119953032D01*
X151265296Y-119914362D01*
X151284346Y-119878723D01*
X151309983Y-119847483D01*
X151341223Y-119821846D01*
X151376862Y-119802796D01*
X151415532Y-119791065D01*
X151461888Y-119786500D01*
X152538112Y-119786500D01*
X152584468Y-119791065D01*
G37*
G36*
X155379591Y-119115585D02*
G01*
X155413569Y-119125893D01*
X155444890Y-119142634D01*
X155472339Y-119165161D01*
X155494866Y-119192610D01*
X155511607Y-119223931D01*
X155521915Y-119257909D01*
X155526000Y-119299390D01*
X155526000Y-119900610D01*
X155521915Y-119942091D01*
X155511607Y-119976069D01*
X155494866Y-120007390D01*
X155472339Y-120034839D01*
X155444890Y-120057366D01*
X155413569Y-120074107D01*
X155379591Y-120084415D01*
X155338110Y-120088500D01*
X154661890Y-120088500D01*
X154620409Y-120084415D01*
X154586431Y-120074107D01*
X154555110Y-120057366D01*
X154527661Y-120034839D01*
X154505134Y-120007390D01*
X154488393Y-119976069D01*
X154478085Y-119942091D01*
X154474000Y-119900610D01*
X154474000Y-119299390D01*
X154478085Y-119257909D01*
X154488393Y-119223931D01*
X154505134Y-119192610D01*
X154527661Y-119165161D01*
X154555110Y-119142634D01*
X154586431Y-119125893D01*
X154620409Y-119115585D01*
X154661890Y-119111500D01*
X155338110Y-119111500D01*
X155379591Y-119115585D01*
G37*
G36*
X131034468Y-117653565D02*
G01*
X131073138Y-117665296D01*
X131108777Y-117684346D01*
X131140017Y-117709983D01*
X131165654Y-117741223D01*
X131184704Y-117776862D01*
X131196435Y-117815532D01*
X131201000Y-117861888D01*
X131201000Y-118938112D01*
X131196435Y-118984468D01*
X131184704Y-119023138D01*
X131165654Y-119058777D01*
X131140017Y-119090017D01*
X131108777Y-119115654D01*
X131073138Y-119134704D01*
X131034468Y-119146435D01*
X130988112Y-119151000D01*
X130336888Y-119151000D01*
X130290532Y-119146435D01*
X130251862Y-119134704D01*
X130216223Y-119115654D01*
X130184983Y-119090017D01*
X130159346Y-119058777D01*
X130140296Y-119023138D01*
X130128565Y-118984468D01*
X130124000Y-118938112D01*
X130124000Y-117861888D01*
X130128565Y-117815532D01*
X130140296Y-117776862D01*
X130159346Y-117741223D01*
X130184983Y-117709983D01*
X130216223Y-117684346D01*
X130251862Y-117665296D01*
X130290532Y-117653565D01*
X130336888Y-117649000D01*
X130988112Y-117649000D01*
X131034468Y-117653565D01*
G37*
G36*
X132909468Y-117653565D02*
G01*
X132948138Y-117665296D01*
X132983777Y-117684346D01*
X133015017Y-117709983D01*
X133040654Y-117741223D01*
X133059704Y-117776862D01*
X133071435Y-117815532D01*
X133076000Y-117861888D01*
X133076000Y-118938112D01*
X133071435Y-118984468D01*
X133059704Y-119023138D01*
X133040654Y-119058777D01*
X133015017Y-119090017D01*
X132983777Y-119115654D01*
X132948138Y-119134704D01*
X132909468Y-119146435D01*
X132863112Y-119151000D01*
X132211888Y-119151000D01*
X132165532Y-119146435D01*
X132126862Y-119134704D01*
X132091223Y-119115654D01*
X132059983Y-119090017D01*
X132034346Y-119058777D01*
X132015296Y-119023138D01*
X132003565Y-118984468D01*
X131999000Y-118938112D01*
X131999000Y-117861888D01*
X132003565Y-117815532D01*
X132015296Y-117776862D01*
X132034346Y-117741223D01*
X132059983Y-117709983D01*
X132091223Y-117684346D01*
X132126862Y-117665296D01*
X132165532Y-117653565D01*
X132211888Y-117649000D01*
X132863112Y-117649000D01*
X132909468Y-117653565D01*
G37*
G36*
X138834468Y-118003565D02*
G01*
X138873138Y-118015296D01*
X138908777Y-118034346D01*
X138940017Y-118059983D01*
X138965654Y-118091223D01*
X138984704Y-118126862D01*
X138996435Y-118165532D01*
X139001000Y-118211888D01*
X139001000Y-118863112D01*
X138996435Y-118909468D01*
X138984704Y-118948138D01*
X138965654Y-118983777D01*
X138940017Y-119015017D01*
X138908777Y-119040654D01*
X138873138Y-119059704D01*
X138834468Y-119071435D01*
X138788112Y-119076000D01*
X137711888Y-119076000D01*
X137665532Y-119071435D01*
X137626862Y-119059704D01*
X137591223Y-119040654D01*
X137559983Y-119015017D01*
X137534346Y-118983777D01*
X137515296Y-118948138D01*
X137503565Y-118909468D01*
X137499000Y-118863112D01*
X137499000Y-118211888D01*
X137503565Y-118165532D01*
X137515296Y-118126862D01*
X137534346Y-118091223D01*
X137559983Y-118059983D01*
X137591223Y-118034346D01*
X137626862Y-118015296D01*
X137665532Y-118003565D01*
X137711888Y-117999000D01*
X138788112Y-117999000D01*
X138834468Y-118003565D01*
G37*
G36*
X118680118Y-117293965D02*
G01*
X118712933Y-117303919D01*
X118743165Y-117320079D01*
X118769670Y-117341830D01*
X118791421Y-117368335D01*
X118807581Y-117398567D01*
X118817535Y-117431382D01*
X118821500Y-117471640D01*
X118821500Y-118060360D01*
X118817535Y-118100618D01*
X118807581Y-118133433D01*
X118791421Y-118163665D01*
X118769670Y-118190170D01*
X118743165Y-118211921D01*
X118712933Y-118228081D01*
X118680118Y-118238035D01*
X118639860Y-118242000D01*
X117676140Y-118242000D01*
X117635882Y-118238035D01*
X117603067Y-118228081D01*
X117572835Y-118211921D01*
X117546330Y-118190170D01*
X117524579Y-118163665D01*
X117508419Y-118133433D01*
X117498465Y-118100618D01*
X117494500Y-118060360D01*
X117494500Y-117471640D01*
X117498465Y-117431382D01*
X117508419Y-117398567D01*
X117524579Y-117368335D01*
X117546330Y-117341830D01*
X117572835Y-117320079D01*
X117603067Y-117303919D01*
X117635882Y-117293965D01*
X117676140Y-117290000D01*
X118639860Y-117290000D01*
X118680118Y-117293965D01*
G37*
G36*
X117055118Y-117293965D02*
G01*
X117087933Y-117303919D01*
X117118165Y-117320079D01*
X117144670Y-117341830D01*
X117166421Y-117368335D01*
X117182581Y-117398567D01*
X117192535Y-117431382D01*
X117196500Y-117471640D01*
X117196500Y-118060360D01*
X117192535Y-118100618D01*
X117182581Y-118133433D01*
X117166421Y-118163665D01*
X117144670Y-118190170D01*
X117118165Y-118211921D01*
X117087933Y-118228081D01*
X117055118Y-118238035D01*
X117014860Y-118242000D01*
X116051140Y-118242000D01*
X116010882Y-118238035D01*
X115978067Y-118228081D01*
X115947835Y-118211921D01*
X115921330Y-118190170D01*
X115899579Y-118163665D01*
X115883419Y-118133433D01*
X115873465Y-118100618D01*
X115869500Y-118060360D01*
X115869500Y-117471640D01*
X115873465Y-117431382D01*
X115883419Y-117398567D01*
X115899579Y-117368335D01*
X115921330Y-117341830D01*
X115947835Y-117320079D01*
X115978067Y-117303919D01*
X116010882Y-117293965D01*
X116051140Y-117290000D01*
X117014860Y-117290000D01*
X117055118Y-117293965D01*
G37*
G36*
X153979591Y-117203085D02*
G01*
X154013569Y-117213393D01*
X154044890Y-117230134D01*
X154072339Y-117252661D01*
X154094866Y-117280110D01*
X154111607Y-117311431D01*
X154121915Y-117345409D01*
X154126000Y-117386890D01*
X154126000Y-117988110D01*
X154121915Y-118029591D01*
X154111607Y-118063569D01*
X154094866Y-118094890D01*
X154072339Y-118122339D01*
X154044890Y-118144866D01*
X154013569Y-118161607D01*
X153979591Y-118171915D01*
X153938110Y-118176000D01*
X153261890Y-118176000D01*
X153220409Y-118171915D01*
X153186431Y-118161607D01*
X153155110Y-118144866D01*
X153127661Y-118122339D01*
X153105134Y-118094890D01*
X153088393Y-118063569D01*
X153078085Y-118029591D01*
X153074000Y-117988110D01*
X153074000Y-117386890D01*
X153078085Y-117345409D01*
X153088393Y-117311431D01*
X153105134Y-117280110D01*
X153127661Y-117252661D01*
X153155110Y-117230134D01*
X153186431Y-117213393D01*
X153220409Y-117203085D01*
X153261890Y-117199000D01*
X153938110Y-117199000D01*
X153979591Y-117203085D01*
G37*
G36*
X138834468Y-116128565D02*
G01*
X138873138Y-116140296D01*
X138908777Y-116159346D01*
X138940017Y-116184983D01*
X138965654Y-116216223D01*
X138984704Y-116251862D01*
X138996435Y-116290532D01*
X139001000Y-116336888D01*
X139001000Y-116988112D01*
X138996435Y-117034468D01*
X138984704Y-117073138D01*
X138965654Y-117108777D01*
X138940017Y-117140017D01*
X138908777Y-117165654D01*
X138873138Y-117184704D01*
X138834468Y-117196435D01*
X138788112Y-117201000D01*
X137711888Y-117201000D01*
X137665532Y-117196435D01*
X137626862Y-117184704D01*
X137591223Y-117165654D01*
X137559983Y-117140017D01*
X137534346Y-117108777D01*
X137515296Y-117073138D01*
X137503565Y-117034468D01*
X137499000Y-116988112D01*
X137499000Y-116336888D01*
X137503565Y-116290532D01*
X137515296Y-116251862D01*
X137534346Y-116216223D01*
X137559983Y-116184983D01*
X137591223Y-116159346D01*
X137626862Y-116140296D01*
X137665532Y-116128565D01*
X137711888Y-116124000D01*
X138788112Y-116124000D01*
X138834468Y-116128565D01*
G37*
G36*
X121451000Y-117101000D02*
G01*
X120449000Y-117101000D01*
X120449000Y-116099000D01*
X121451000Y-116099000D01*
X121451000Y-117101000D01*
G37*
G36*
X124451000Y-117101000D02*
G01*
X123449000Y-117101000D01*
X123449000Y-116099000D01*
X124451000Y-116099000D01*
X124451000Y-117101000D01*
G37*
G36*
X144434468Y-115253565D02*
G01*
X144473138Y-115265296D01*
X144508777Y-115284346D01*
X144540017Y-115309983D01*
X144565654Y-115341223D01*
X144584704Y-115376862D01*
X144596435Y-115415532D01*
X144601000Y-115461888D01*
X144601000Y-116538112D01*
X144596435Y-116584468D01*
X144584704Y-116623138D01*
X144565654Y-116658777D01*
X144540017Y-116690017D01*
X144508777Y-116715654D01*
X144473138Y-116734704D01*
X144434468Y-116746435D01*
X144388112Y-116751000D01*
X143736888Y-116751000D01*
X143690532Y-116746435D01*
X143651862Y-116734704D01*
X143616223Y-116715654D01*
X143584983Y-116690017D01*
X143559346Y-116658777D01*
X143540296Y-116623138D01*
X143528565Y-116584468D01*
X143524000Y-116538112D01*
X143524000Y-115461888D01*
X143528565Y-115415532D01*
X143540296Y-115376862D01*
X143559346Y-115341223D01*
X143584983Y-115309983D01*
X143616223Y-115284346D01*
X143651862Y-115265296D01*
X143690532Y-115253565D01*
X143736888Y-115249000D01*
X144388112Y-115249000D01*
X144434468Y-115253565D01*
G37*
G36*
X146309468Y-115253565D02*
G01*
X146348138Y-115265296D01*
X146383777Y-115284346D01*
X146415017Y-115309983D01*
X146440654Y-115341223D01*
X146459704Y-115376862D01*
X146471435Y-115415532D01*
X146476000Y-115461888D01*
X146476000Y-116538112D01*
X146471435Y-116584468D01*
X146459704Y-116623138D01*
X146440654Y-116658777D01*
X146415017Y-116690017D01*
X146383777Y-116715654D01*
X146348138Y-116734704D01*
X146309468Y-116746435D01*
X146263112Y-116751000D01*
X145611888Y-116751000D01*
X145565532Y-116746435D01*
X145526862Y-116734704D01*
X145491223Y-116715654D01*
X145459983Y-116690017D01*
X145434346Y-116658777D01*
X145415296Y-116623138D01*
X145403565Y-116584468D01*
X145399000Y-116538112D01*
X145399000Y-115461888D01*
X145403565Y-115415532D01*
X145415296Y-115376862D01*
X145434346Y-115341223D01*
X145459983Y-115309983D01*
X145491223Y-115284346D01*
X145526862Y-115265296D01*
X145565532Y-115253565D01*
X145611888Y-115249000D01*
X146263112Y-115249000D01*
X146309468Y-115253565D01*
G37*
G36*
X149267091Y-115678085D02*
G01*
X149301069Y-115688393D01*
X149332390Y-115705134D01*
X149359839Y-115727661D01*
X149382366Y-115755110D01*
X149399107Y-115786431D01*
X149409415Y-115820409D01*
X149413500Y-115861890D01*
X149413500Y-116538110D01*
X149409415Y-116579591D01*
X149399107Y-116613569D01*
X149382366Y-116644890D01*
X149359839Y-116672339D01*
X149332390Y-116694866D01*
X149301069Y-116711607D01*
X149267091Y-116721915D01*
X149225610Y-116726000D01*
X148624390Y-116726000D01*
X148582909Y-116721915D01*
X148548931Y-116711607D01*
X148517610Y-116694866D01*
X148490161Y-116672339D01*
X148467634Y-116644890D01*
X148450893Y-116613569D01*
X148440585Y-116579591D01*
X148436500Y-116538110D01*
X148436500Y-115861890D01*
X148440585Y-115820409D01*
X148450893Y-115786431D01*
X148467634Y-115755110D01*
X148490161Y-115727661D01*
X148517610Y-115705134D01*
X148548931Y-115688393D01*
X148582909Y-115678085D01*
X148624390Y-115674000D01*
X149225610Y-115674000D01*
X149267091Y-115678085D01*
G37*
G36*
X150842091Y-115678085D02*
G01*
X150876069Y-115688393D01*
X150907390Y-115705134D01*
X150934839Y-115727661D01*
X150957366Y-115755110D01*
X150974107Y-115786431D01*
X150984415Y-115820409D01*
X150988500Y-115861890D01*
X150988500Y-116538110D01*
X150984415Y-116579591D01*
X150974107Y-116613569D01*
X150957366Y-116644890D01*
X150934839Y-116672339D01*
X150907390Y-116694866D01*
X150876069Y-116711607D01*
X150842091Y-116721915D01*
X150800610Y-116726000D01*
X150199390Y-116726000D01*
X150157909Y-116721915D01*
X150123931Y-116711607D01*
X150092610Y-116694866D01*
X150065161Y-116672339D01*
X150042634Y-116644890D01*
X150025893Y-116613569D01*
X150015585Y-116579591D01*
X150011500Y-116538110D01*
X150011500Y-115861890D01*
X150015585Y-115820409D01*
X150025893Y-115786431D01*
X150042634Y-115755110D01*
X150065161Y-115727661D01*
X150092610Y-115705134D01*
X150123931Y-115688393D01*
X150157909Y-115678085D01*
X150199390Y-115674000D01*
X150800610Y-115674000D01*
X150842091Y-115678085D01*
G37*
G36*
X153979591Y-115628085D02*
G01*
X154013569Y-115638393D01*
X154044890Y-115655134D01*
X154072339Y-115677661D01*
X154094866Y-115705110D01*
X154111607Y-115736431D01*
X154121915Y-115770409D01*
X154126000Y-115811890D01*
X154126000Y-116413110D01*
X154121915Y-116454591D01*
X154111607Y-116488569D01*
X154094866Y-116519890D01*
X154072339Y-116547339D01*
X154044890Y-116569866D01*
X154013569Y-116586607D01*
X153979591Y-116596915D01*
X153938110Y-116601000D01*
X153261890Y-116601000D01*
X153220409Y-116596915D01*
X153186431Y-116586607D01*
X153155110Y-116569866D01*
X153127661Y-116547339D01*
X153105134Y-116519890D01*
X153088393Y-116488569D01*
X153078085Y-116454591D01*
X153074000Y-116413110D01*
X153074000Y-115811890D01*
X153078085Y-115770409D01*
X153088393Y-115736431D01*
X153105134Y-115705110D01*
X153127661Y-115677661D01*
X153155110Y-115655134D01*
X153186431Y-115638393D01*
X153220409Y-115628085D01*
X153261890Y-115624000D01*
X153938110Y-115624000D01*
X153979591Y-115628085D01*
G37*
G36*
X124451000Y-115761000D02*
G01*
X123449000Y-115761000D01*
X123449000Y-114759000D01*
X124451000Y-114759000D01*
X124451000Y-115761000D01*
G37*
G36*
X121451000Y-115761000D02*
G01*
X120449000Y-115761000D01*
X120449000Y-114759000D01*
X121451000Y-114759000D01*
X121451000Y-115761000D01*
G37*
G36*
X175907430Y-110048977D02*
G01*
X176158684Y-110098955D01*
X176319002Y-110165361D01*
X176632034Y-110295023D01*
X176683484Y-110329401D01*
X177058041Y-110579671D01*
X177420329Y-110941959D01*
X177540165Y-111121307D01*
X177704977Y-111367966D01*
X177819831Y-111645248D01*
X177901045Y-111841316D01*
X177950384Y-112089362D01*
X178001000Y-112343823D01*
X178001000Y-112856177D01*
X177901045Y-113358683D01*
X177704977Y-113832034D01*
X177704976Y-113832035D01*
X177420329Y-114258041D01*
X177058041Y-114620329D01*
X176850504Y-114759000D01*
X176632034Y-114904977D01*
X176508853Y-114956000D01*
X176158684Y-115101045D01*
X175907430Y-115151023D01*
X175656177Y-115201000D01*
X175143823Y-115201000D01*
X174892570Y-115151023D01*
X174641316Y-115101045D01*
X174291147Y-114956000D01*
X174167966Y-114904977D01*
X173949496Y-114759000D01*
X173741959Y-114620329D01*
X173379671Y-114258041D01*
X173095024Y-113832035D01*
X173095023Y-113832034D01*
X172898955Y-113358683D01*
X172799000Y-112856177D01*
X172799000Y-112343823D01*
X172849616Y-112089362D01*
X172898955Y-111841316D01*
X172980169Y-111645248D01*
X173095023Y-111367966D01*
X173259835Y-111121307D01*
X173379671Y-110941959D01*
X173741959Y-110579671D01*
X174116516Y-110329401D01*
X174167966Y-110295023D01*
X174480998Y-110165361D01*
X174641316Y-110098955D01*
X174892570Y-110048977D01*
X175143823Y-109999000D01*
X175656177Y-109999000D01*
X175907430Y-110048977D01*
G37*
G36*
X117055118Y-114245965D02*
G01*
X117087933Y-114255919D01*
X117118165Y-114272079D01*
X117144670Y-114293830D01*
X117166421Y-114320335D01*
X117182581Y-114350567D01*
X117192535Y-114383382D01*
X117196500Y-114423640D01*
X117196500Y-115012360D01*
X117192535Y-115052618D01*
X117182581Y-115085433D01*
X117166421Y-115115665D01*
X117144670Y-115142170D01*
X117118165Y-115163921D01*
X117087933Y-115180081D01*
X117055118Y-115190035D01*
X117014860Y-115194000D01*
X116051140Y-115194000D01*
X116010882Y-115190035D01*
X115978067Y-115180081D01*
X115947835Y-115163921D01*
X115921330Y-115142170D01*
X115899579Y-115115665D01*
X115883419Y-115085433D01*
X115873465Y-115052618D01*
X115869500Y-115012360D01*
X115869500Y-114423640D01*
X115873465Y-114383382D01*
X115883419Y-114350567D01*
X115899579Y-114320335D01*
X115921330Y-114293830D01*
X115947835Y-114272079D01*
X115978067Y-114255919D01*
X116010882Y-114245965D01*
X116051140Y-114242000D01*
X117014860Y-114242000D01*
X117055118Y-114245965D01*
G37*
G36*
X118680118Y-114245965D02*
G01*
X118712933Y-114255919D01*
X118743165Y-114272079D01*
X118769670Y-114293830D01*
X118791421Y-114320335D01*
X118807581Y-114350567D01*
X118817535Y-114383382D01*
X118821500Y-114423640D01*
X118821500Y-115012360D01*
X118817535Y-115052618D01*
X118807581Y-115085433D01*
X118791421Y-115115665D01*
X118769670Y-115142170D01*
X118743165Y-115163921D01*
X118712933Y-115180081D01*
X118680118Y-115190035D01*
X118639860Y-115194000D01*
X117676140Y-115194000D01*
X117635882Y-115190035D01*
X117603067Y-115180081D01*
X117572835Y-115163921D01*
X117546330Y-115142170D01*
X117524579Y-115115665D01*
X117508419Y-115085433D01*
X117498465Y-115052618D01*
X117494500Y-115012360D01*
X117494500Y-114423640D01*
X117498465Y-114383382D01*
X117508419Y-114350567D01*
X117524579Y-114320335D01*
X117546330Y-114293830D01*
X117572835Y-114272079D01*
X117603067Y-114255919D01*
X117635882Y-114245965D01*
X117676140Y-114242000D01*
X118639860Y-114242000D01*
X118680118Y-114245965D01*
G37*
G36*
X124451000Y-114441000D02*
G01*
X123449000Y-114441000D01*
X123449000Y-113439000D01*
X124451000Y-113439000D01*
X124451000Y-114441000D01*
G37*
G36*
X121451000Y-114441000D02*
G01*
X120449000Y-114441000D01*
X120449000Y-113439000D01*
X121451000Y-113439000D01*
X121451000Y-114441000D01*
G37*
G36*
X136916091Y-112228085D02*
G01*
X136950069Y-112238393D01*
X136981390Y-112255134D01*
X137008839Y-112277661D01*
X137031366Y-112305110D01*
X137048107Y-112336431D01*
X137058415Y-112370409D01*
X137062500Y-112411890D01*
X137062500Y-113088110D01*
X137058415Y-113129591D01*
X137048107Y-113163569D01*
X137031366Y-113194890D01*
X137008839Y-113222339D01*
X136981390Y-113244866D01*
X136950069Y-113261607D01*
X136916091Y-113271915D01*
X136874610Y-113276000D01*
X136273390Y-113276000D01*
X136231909Y-113271915D01*
X136197931Y-113261607D01*
X136166610Y-113244866D01*
X136139161Y-113222339D01*
X136116634Y-113194890D01*
X136099893Y-113163569D01*
X136089585Y-113129591D01*
X136085500Y-113088110D01*
X136085500Y-112411890D01*
X136089585Y-112370409D01*
X136099893Y-112336431D01*
X136116634Y-112305110D01*
X136139161Y-112277661D01*
X136166610Y-112255134D01*
X136197931Y-112238393D01*
X136231909Y-112228085D01*
X136273390Y-112224000D01*
X136874610Y-112224000D01*
X136916091Y-112228085D01*
G37*
G36*
X138491091Y-112228085D02*
G01*
X138525069Y-112238393D01*
X138556390Y-112255134D01*
X138583839Y-112277661D01*
X138606366Y-112305110D01*
X138623107Y-112336431D01*
X138633415Y-112370409D01*
X138637500Y-112411890D01*
X138637500Y-113088110D01*
X138633415Y-113129591D01*
X138623107Y-113163569D01*
X138606366Y-113194890D01*
X138583839Y-113222339D01*
X138556390Y-113244866D01*
X138525069Y-113261607D01*
X138491091Y-113271915D01*
X138449610Y-113276000D01*
X137848390Y-113276000D01*
X137806909Y-113271915D01*
X137772931Y-113261607D01*
X137741610Y-113244866D01*
X137714161Y-113222339D01*
X137691634Y-113194890D01*
X137674893Y-113163569D01*
X137664585Y-113129591D01*
X137660500Y-113088110D01*
X137660500Y-112411890D01*
X137664585Y-112370409D01*
X137674893Y-112336431D01*
X137691634Y-112305110D01*
X137714161Y-112277661D01*
X137741610Y-112255134D01*
X137772931Y-112238393D01*
X137806909Y-112228085D01*
X137848390Y-112224000D01*
X138449610Y-112224000D01*
X138491091Y-112228085D01*
G37*
G36*
X143622500Y-113175000D02*
G01*
X142045500Y-113175000D01*
X142045500Y-104173000D01*
X143622500Y-104173000D01*
X143622500Y-113175000D01*
G37*
G36*
X149498500Y-113175000D02*
G01*
X147921500Y-113175000D01*
X147921500Y-104173000D01*
X149498500Y-104173000D01*
X149498500Y-113175000D01*
G37*
G36*
X121451000Y-113101000D02*
G01*
X120449000Y-113101000D01*
X120449000Y-112099000D01*
X121451000Y-112099000D01*
X121451000Y-113101000D01*
G37*
G36*
X124451000Y-113101000D02*
G01*
X123449000Y-113101000D01*
X123449000Y-112099000D01*
X124451000Y-112099000D01*
X124451000Y-113101000D01*
G37*
G36*
X152484468Y-111966065D02*
G01*
X152523138Y-111977796D01*
X152558777Y-111996846D01*
X152590017Y-112022483D01*
X152615654Y-112053723D01*
X152634704Y-112089362D01*
X152646435Y-112128032D01*
X152651000Y-112174388D01*
X152651000Y-112825612D01*
X152646435Y-112871968D01*
X152634704Y-112910638D01*
X152615654Y-112946277D01*
X152590017Y-112977517D01*
X152558777Y-113003154D01*
X152523138Y-113022204D01*
X152484468Y-113033935D01*
X152438112Y-113038500D01*
X151361888Y-113038500D01*
X151315532Y-113033935D01*
X151276862Y-113022204D01*
X151241223Y-113003154D01*
X151209983Y-112977517D01*
X151184346Y-112946277D01*
X151165296Y-112910638D01*
X151153565Y-112871968D01*
X151149000Y-112825612D01*
X151149000Y-112174388D01*
X151153565Y-112128032D01*
X151165296Y-112089362D01*
X151184346Y-112053723D01*
X151209983Y-112022483D01*
X151241223Y-111996846D01*
X151276862Y-111977796D01*
X151315532Y-111966065D01*
X151361888Y-111961500D01*
X152438112Y-111961500D01*
X152484468Y-111966065D01*
G37*
G36*
X147323000Y-111225000D02*
G01*
X144221000Y-111225000D01*
X144221000Y-106123000D01*
X147323000Y-106123000D01*
X147323000Y-111225000D01*
G37*
G36*
X152484468Y-110091065D02*
G01*
X152523138Y-110102796D01*
X152558777Y-110121846D01*
X152590017Y-110147483D01*
X152615654Y-110178723D01*
X152634704Y-110214362D01*
X152646435Y-110253032D01*
X152651000Y-110299388D01*
X152651000Y-110950612D01*
X152646435Y-110996968D01*
X152634704Y-111035638D01*
X152615654Y-111071277D01*
X152590017Y-111102517D01*
X152558777Y-111128154D01*
X152523138Y-111147204D01*
X152484468Y-111158935D01*
X152438112Y-111163500D01*
X151361888Y-111163500D01*
X151315532Y-111158935D01*
X151276862Y-111147204D01*
X151241223Y-111128154D01*
X151209983Y-111102517D01*
X151184346Y-111071277D01*
X151165296Y-111035638D01*
X151153565Y-110996968D01*
X151149000Y-110950612D01*
X151149000Y-110299388D01*
X151153565Y-110253032D01*
X151165296Y-110214362D01*
X151184346Y-110178723D01*
X151209983Y-110147483D01*
X151241223Y-110121846D01*
X151276862Y-110102796D01*
X151315532Y-110091065D01*
X151361888Y-110086500D01*
X152438112Y-110086500D01*
X152484468Y-110091065D01*
G37*
G36*
X129229591Y-110078085D02*
G01*
X129263569Y-110088393D01*
X129294890Y-110105134D01*
X129322339Y-110127661D01*
X129344866Y-110155110D01*
X129361607Y-110186431D01*
X129371915Y-110220409D01*
X129376000Y-110261890D01*
X129376000Y-110938110D01*
X129371915Y-110979591D01*
X129361607Y-111013569D01*
X129344866Y-111044890D01*
X129322339Y-111072339D01*
X129294890Y-111094866D01*
X129263569Y-111111607D01*
X129229591Y-111121915D01*
X129188110Y-111126000D01*
X128586890Y-111126000D01*
X128545409Y-111121915D01*
X128511431Y-111111607D01*
X128480110Y-111094866D01*
X128452661Y-111072339D01*
X128430134Y-111044890D01*
X128413393Y-111013569D01*
X128403085Y-110979591D01*
X128399000Y-110938110D01*
X128399000Y-110261890D01*
X128403085Y-110220409D01*
X128413393Y-110186431D01*
X128430134Y-110155110D01*
X128452661Y-110127661D01*
X128480110Y-110105134D01*
X128511431Y-110088393D01*
X128545409Y-110078085D01*
X128586890Y-110074000D01*
X129188110Y-110074000D01*
X129229591Y-110078085D01*
G37*
G36*
X127654591Y-110078085D02*
G01*
X127688569Y-110088393D01*
X127719890Y-110105134D01*
X127747339Y-110127661D01*
X127769866Y-110155110D01*
X127786607Y-110186431D01*
X127796915Y-110220409D01*
X127801000Y-110261890D01*
X127801000Y-110938110D01*
X127796915Y-110979591D01*
X127786607Y-111013569D01*
X127769866Y-111044890D01*
X127747339Y-111072339D01*
X127719890Y-111094866D01*
X127688569Y-111111607D01*
X127654591Y-111121915D01*
X127613110Y-111126000D01*
X127011890Y-111126000D01*
X126970409Y-111121915D01*
X126936431Y-111111607D01*
X126905110Y-111094866D01*
X126877661Y-111072339D01*
X126855134Y-111044890D01*
X126838393Y-111013569D01*
X126828085Y-110979591D01*
X126824000Y-110938110D01*
X126824000Y-110261890D01*
X126828085Y-110220409D01*
X126838393Y-110186431D01*
X126855134Y-110155110D01*
X126877661Y-110127661D01*
X126905110Y-110105134D01*
X126936431Y-110088393D01*
X126970409Y-110078085D01*
X127011890Y-110074000D01*
X127613110Y-110074000D01*
X127654591Y-110078085D01*
G37*
G36*
X138491091Y-109478085D02*
G01*
X138525069Y-109488393D01*
X138556390Y-109505134D01*
X138583839Y-109527661D01*
X138606366Y-109555110D01*
X138623107Y-109586431D01*
X138633415Y-109620409D01*
X138637500Y-109661890D01*
X138637500Y-110338110D01*
X138633415Y-110379591D01*
X138623107Y-110413569D01*
X138606366Y-110444890D01*
X138583839Y-110472339D01*
X138556390Y-110494866D01*
X138525069Y-110511607D01*
X138491091Y-110521915D01*
X138449610Y-110526000D01*
X137848390Y-110526000D01*
X137806909Y-110521915D01*
X137772931Y-110511607D01*
X137741610Y-110494866D01*
X137714161Y-110472339D01*
X137691634Y-110444890D01*
X137674893Y-110413569D01*
X137664585Y-110379591D01*
X137660500Y-110338110D01*
X137660500Y-109661890D01*
X137664585Y-109620409D01*
X137674893Y-109586431D01*
X137691634Y-109555110D01*
X137714161Y-109527661D01*
X137741610Y-109505134D01*
X137772931Y-109488393D01*
X137806909Y-109478085D01*
X137848390Y-109474000D01*
X138449610Y-109474000D01*
X138491091Y-109478085D01*
G37*
G36*
X136916091Y-109478085D02*
G01*
X136950069Y-109488393D01*
X136981390Y-109505134D01*
X137008839Y-109527661D01*
X137031366Y-109555110D01*
X137048107Y-109586431D01*
X137058415Y-109620409D01*
X137062500Y-109661890D01*
X137062500Y-110338110D01*
X137058415Y-110379591D01*
X137048107Y-110413569D01*
X137031366Y-110444890D01*
X137008839Y-110472339D01*
X136981390Y-110494866D01*
X136950069Y-110511607D01*
X136916091Y-110521915D01*
X136874610Y-110526000D01*
X136273390Y-110526000D01*
X136231909Y-110521915D01*
X136197931Y-110511607D01*
X136166610Y-110494866D01*
X136139161Y-110472339D01*
X136116634Y-110444890D01*
X136099893Y-110413569D01*
X136089585Y-110379591D01*
X136085500Y-110338110D01*
X136085500Y-109661890D01*
X136089585Y-109620409D01*
X136099893Y-109586431D01*
X136116634Y-109555110D01*
X136139161Y-109527661D01*
X136166610Y-109505134D01*
X136197931Y-109488393D01*
X136231909Y-109478085D01*
X136273390Y-109474000D01*
X136874610Y-109474000D01*
X136916091Y-109478085D01*
G37*
G36*
X182128571Y-108652863D02*
G01*
X182207023Y-108660590D01*
X182307682Y-108691125D01*
X182358013Y-108706392D01*
X182497165Y-108780771D01*
X182619133Y-108880867D01*
X182719229Y-109002835D01*
X182793608Y-109141987D01*
X182793608Y-109141988D01*
X182839410Y-109292977D01*
X182854875Y-109450000D01*
X182839410Y-109607023D01*
X182835349Y-109620409D01*
X182793608Y-109758013D01*
X182719229Y-109897165D01*
X182619133Y-110019133D01*
X182497165Y-110119229D01*
X182358013Y-110193608D01*
X182316624Y-110206163D01*
X182207023Y-110239410D01*
X182128571Y-110247137D01*
X182089346Y-110251000D01*
X180710654Y-110251000D01*
X180671429Y-110247137D01*
X180592977Y-110239410D01*
X180483376Y-110206163D01*
X180441987Y-110193608D01*
X180302835Y-110119229D01*
X180180867Y-110019133D01*
X180080771Y-109897165D01*
X180006392Y-109758013D01*
X179964651Y-109620409D01*
X179960590Y-109607023D01*
X179945125Y-109450000D01*
X179960590Y-109292977D01*
X180006392Y-109141988D01*
X180006392Y-109141987D01*
X180080771Y-109002835D01*
X180180867Y-108880867D01*
X180302835Y-108780771D01*
X180441987Y-108706392D01*
X180492318Y-108691125D01*
X180592977Y-108660590D01*
X180671429Y-108652863D01*
X180710654Y-108649000D01*
X182089346Y-108649000D01*
X182128571Y-108652863D01*
G37*
G36*
X117055118Y-108471965D02*
G01*
X117087933Y-108481919D01*
X117118165Y-108498079D01*
X117144670Y-108519830D01*
X117166421Y-108546335D01*
X117182581Y-108576567D01*
X117192535Y-108609382D01*
X117196500Y-108649640D01*
X117196500Y-109238360D01*
X117192535Y-109278618D01*
X117182581Y-109311433D01*
X117166421Y-109341665D01*
X117144670Y-109368170D01*
X117118165Y-109389921D01*
X117087933Y-109406081D01*
X117055118Y-109416035D01*
X117014860Y-109420000D01*
X116051140Y-109420000D01*
X116010882Y-109416035D01*
X115978067Y-109406081D01*
X115947835Y-109389921D01*
X115921330Y-109368170D01*
X115899579Y-109341665D01*
X115883419Y-109311433D01*
X115873465Y-109278618D01*
X115869500Y-109238360D01*
X115869500Y-108649640D01*
X115873465Y-108609382D01*
X115883419Y-108576567D01*
X115899579Y-108546335D01*
X115921330Y-108519830D01*
X115947835Y-108498079D01*
X115978067Y-108481919D01*
X116010882Y-108471965D01*
X116051140Y-108468000D01*
X117014860Y-108468000D01*
X117055118Y-108471965D01*
G37*
G36*
X118680118Y-108471965D02*
G01*
X118712933Y-108481919D01*
X118743165Y-108498079D01*
X118769670Y-108519830D01*
X118791421Y-108546335D01*
X118807581Y-108576567D01*
X118817535Y-108609382D01*
X118821500Y-108649640D01*
X118821500Y-109238360D01*
X118817535Y-109278618D01*
X118807581Y-109311433D01*
X118791421Y-109341665D01*
X118769670Y-109368170D01*
X118743165Y-109389921D01*
X118712933Y-109406081D01*
X118680118Y-109416035D01*
X118639860Y-109420000D01*
X117676140Y-109420000D01*
X117635882Y-109416035D01*
X117603067Y-109406081D01*
X117572835Y-109389921D01*
X117546330Y-109368170D01*
X117524579Y-109341665D01*
X117508419Y-109311433D01*
X117498465Y-109278618D01*
X117494500Y-109238360D01*
X117494500Y-108649640D01*
X117498465Y-108609382D01*
X117508419Y-108576567D01*
X117524579Y-108546335D01*
X117546330Y-108519830D01*
X117572835Y-108498079D01*
X117603067Y-108481919D01*
X117635882Y-108471965D01*
X117676140Y-108468000D01*
X118639860Y-108468000D01*
X118680118Y-108471965D01*
G37*
G36*
X152484468Y-107203565D02*
G01*
X152523138Y-107215296D01*
X152558777Y-107234346D01*
X152590017Y-107259983D01*
X152615654Y-107291223D01*
X152634704Y-107326862D01*
X152646435Y-107365532D01*
X152651000Y-107411888D01*
X152651000Y-108063112D01*
X152646435Y-108109468D01*
X152634704Y-108148138D01*
X152615654Y-108183777D01*
X152590017Y-108215017D01*
X152558777Y-108240654D01*
X152523138Y-108259704D01*
X152484468Y-108271435D01*
X152438112Y-108276000D01*
X151361888Y-108276000D01*
X151315532Y-108271435D01*
X151276862Y-108259704D01*
X151241223Y-108240654D01*
X151209983Y-108215017D01*
X151184346Y-108183777D01*
X151165296Y-108148138D01*
X151153565Y-108109468D01*
X151149000Y-108063112D01*
X151149000Y-107411888D01*
X151153565Y-107365532D01*
X151165296Y-107326862D01*
X151184346Y-107291223D01*
X151209983Y-107259983D01*
X151241223Y-107234346D01*
X151276862Y-107215296D01*
X151315532Y-107203565D01*
X151361888Y-107199000D01*
X152438112Y-107199000D01*
X152484468Y-107203565D01*
G37*
G36*
X156317091Y-107078085D02*
G01*
X156351069Y-107088393D01*
X156382390Y-107105134D01*
X156409839Y-107127661D01*
X156432366Y-107155110D01*
X156449107Y-107186431D01*
X156459415Y-107220409D01*
X156463500Y-107261890D01*
X156463500Y-107938110D01*
X156459415Y-107979591D01*
X156449107Y-108013569D01*
X156432366Y-108044890D01*
X156409839Y-108072339D01*
X156382390Y-108094866D01*
X156351069Y-108111607D01*
X156317091Y-108121915D01*
X156275610Y-108126000D01*
X155674390Y-108126000D01*
X155632909Y-108121915D01*
X155598931Y-108111607D01*
X155567610Y-108094866D01*
X155540161Y-108072339D01*
X155517634Y-108044890D01*
X155500893Y-108013569D01*
X155490585Y-107979591D01*
X155486500Y-107938110D01*
X155486500Y-107261890D01*
X155490585Y-107220409D01*
X155500893Y-107186431D01*
X155517634Y-107155110D01*
X155540161Y-107127661D01*
X155567610Y-107105134D01*
X155598931Y-107088393D01*
X155632909Y-107078085D01*
X155674390Y-107074000D01*
X156275610Y-107074000D01*
X156317091Y-107078085D01*
G37*
G36*
X154742091Y-107078085D02*
G01*
X154776069Y-107088393D01*
X154807390Y-107105134D01*
X154834839Y-107127661D01*
X154857366Y-107155110D01*
X154874107Y-107186431D01*
X154884415Y-107220409D01*
X154888500Y-107261890D01*
X154888500Y-107938110D01*
X154884415Y-107979591D01*
X154874107Y-108013569D01*
X154857366Y-108044890D01*
X154834839Y-108072339D01*
X154807390Y-108094866D01*
X154776069Y-108111607D01*
X154742091Y-108121915D01*
X154700610Y-108126000D01*
X154099390Y-108126000D01*
X154057909Y-108121915D01*
X154023931Y-108111607D01*
X153992610Y-108094866D01*
X153965161Y-108072339D01*
X153942634Y-108044890D01*
X153925893Y-108013569D01*
X153915585Y-107979591D01*
X153911500Y-107938110D01*
X153911500Y-107261890D01*
X153915585Y-107220409D01*
X153925893Y-107186431D01*
X153942634Y-107155110D01*
X153965161Y-107127661D01*
X153992610Y-107105134D01*
X154023931Y-107088393D01*
X154057909Y-107078085D01*
X154099390Y-107074000D01*
X154700610Y-107074000D01*
X154742091Y-107078085D01*
G37*
G36*
X136867091Y-106624085D02*
G01*
X136901069Y-106634393D01*
X136932390Y-106651134D01*
X136959839Y-106673661D01*
X136982366Y-106701110D01*
X136999107Y-106732431D01*
X137009415Y-106766409D01*
X137013500Y-106807890D01*
X137013500Y-107484110D01*
X137009415Y-107525591D01*
X136999107Y-107559569D01*
X136982366Y-107590890D01*
X136959839Y-107618339D01*
X136932390Y-107640866D01*
X136901069Y-107657607D01*
X136867091Y-107667915D01*
X136825610Y-107672000D01*
X136224390Y-107672000D01*
X136182909Y-107667915D01*
X136148931Y-107657607D01*
X136117610Y-107640866D01*
X136090161Y-107618339D01*
X136067634Y-107590890D01*
X136050893Y-107559569D01*
X136040585Y-107525591D01*
X136036500Y-107484110D01*
X136036500Y-106807890D01*
X136040585Y-106766409D01*
X136050893Y-106732431D01*
X136067634Y-106701110D01*
X136090161Y-106673661D01*
X136117610Y-106651134D01*
X136148931Y-106634393D01*
X136182909Y-106624085D01*
X136224390Y-106620000D01*
X136825610Y-106620000D01*
X136867091Y-106624085D01*
G37*
G36*
X138442091Y-106624085D02*
G01*
X138476069Y-106634393D01*
X138507390Y-106651134D01*
X138534839Y-106673661D01*
X138557366Y-106701110D01*
X138574107Y-106732431D01*
X138584415Y-106766409D01*
X138588500Y-106807890D01*
X138588500Y-107484110D01*
X138584415Y-107525591D01*
X138574107Y-107559569D01*
X138557366Y-107590890D01*
X138534839Y-107618339D01*
X138507390Y-107640866D01*
X138476069Y-107657607D01*
X138442091Y-107667915D01*
X138400610Y-107672000D01*
X137799390Y-107672000D01*
X137757909Y-107667915D01*
X137723931Y-107657607D01*
X137692610Y-107640866D01*
X137665161Y-107618339D01*
X137642634Y-107590890D01*
X137625893Y-107559569D01*
X137615585Y-107525591D01*
X137611500Y-107484110D01*
X137611500Y-106807890D01*
X137615585Y-106766409D01*
X137625893Y-106732431D01*
X137642634Y-106701110D01*
X137665161Y-106673661D01*
X137692610Y-106651134D01*
X137723931Y-106634393D01*
X137757909Y-106624085D01*
X137799390Y-106620000D01*
X138400610Y-106620000D01*
X138442091Y-106624085D01*
G37*
G36*
X159942091Y-105478085D02*
G01*
X159976069Y-105488393D01*
X160007390Y-105505134D01*
X160034839Y-105527661D01*
X160057366Y-105555110D01*
X160074107Y-105586431D01*
X160084415Y-105620409D01*
X160088500Y-105661890D01*
X160088500Y-106338110D01*
X160084415Y-106379591D01*
X160074107Y-106413569D01*
X160057366Y-106444890D01*
X160034839Y-106472339D01*
X160007390Y-106494866D01*
X159976069Y-106511607D01*
X159942091Y-106521915D01*
X159900610Y-106526000D01*
X159299390Y-106526000D01*
X159257909Y-106521915D01*
X159223931Y-106511607D01*
X159192610Y-106494866D01*
X159165161Y-106472339D01*
X159142634Y-106444890D01*
X159125893Y-106413569D01*
X159115585Y-106379591D01*
X159111500Y-106338110D01*
X159111500Y-105661890D01*
X159115585Y-105620409D01*
X159125893Y-105586431D01*
X159142634Y-105555110D01*
X159165161Y-105527661D01*
X159192610Y-105505134D01*
X159223931Y-105488393D01*
X159257909Y-105478085D01*
X159299390Y-105474000D01*
X159900610Y-105474000D01*
X159942091Y-105478085D01*
G37*
G36*
X158367091Y-105478085D02*
G01*
X158401069Y-105488393D01*
X158432390Y-105505134D01*
X158459839Y-105527661D01*
X158482366Y-105555110D01*
X158499107Y-105586431D01*
X158509415Y-105620409D01*
X158513500Y-105661890D01*
X158513500Y-106338110D01*
X158509415Y-106379591D01*
X158499107Y-106413569D01*
X158482366Y-106444890D01*
X158459839Y-106472339D01*
X158432390Y-106494866D01*
X158401069Y-106511607D01*
X158367091Y-106521915D01*
X158325610Y-106526000D01*
X157724390Y-106526000D01*
X157682909Y-106521915D01*
X157648931Y-106511607D01*
X157617610Y-106494866D01*
X157590161Y-106472339D01*
X157567634Y-106444890D01*
X157550893Y-106413569D01*
X157540585Y-106379591D01*
X157536500Y-106338110D01*
X157536500Y-105661890D01*
X157540585Y-105620409D01*
X157550893Y-105586431D01*
X157567634Y-105555110D01*
X157590161Y-105527661D01*
X157617610Y-105505134D01*
X157648931Y-105488393D01*
X157682909Y-105478085D01*
X157724390Y-105474000D01*
X158325610Y-105474000D01*
X158367091Y-105478085D01*
G37*
G36*
X152484468Y-105328565D02*
G01*
X152523138Y-105340296D01*
X152558777Y-105359346D01*
X152590017Y-105384983D01*
X152615654Y-105416223D01*
X152634704Y-105451862D01*
X152646435Y-105490532D01*
X152651000Y-105536888D01*
X152651000Y-106188112D01*
X152646435Y-106234468D01*
X152634704Y-106273138D01*
X152615654Y-106308777D01*
X152590017Y-106340017D01*
X152558777Y-106365654D01*
X152523138Y-106384704D01*
X152484468Y-106396435D01*
X152438112Y-106401000D01*
X151361888Y-106401000D01*
X151315532Y-106396435D01*
X151276862Y-106384704D01*
X151241223Y-106365654D01*
X151209983Y-106340017D01*
X151184346Y-106308777D01*
X151165296Y-106273138D01*
X151153565Y-106234468D01*
X151149000Y-106188112D01*
X151149000Y-105536888D01*
X151153565Y-105490532D01*
X151165296Y-105451862D01*
X151184346Y-105416223D01*
X151209983Y-105384983D01*
X151241223Y-105359346D01*
X151276862Y-105340296D01*
X151315532Y-105328565D01*
X151361888Y-105324000D01*
X152438112Y-105324000D01*
X152484468Y-105328565D01*
G37*
G36*
X118654618Y-105423965D02*
G01*
X118687433Y-105433919D01*
X118717665Y-105450079D01*
X118744170Y-105471830D01*
X118765921Y-105498335D01*
X118782081Y-105528567D01*
X118792035Y-105561382D01*
X118796000Y-105601640D01*
X118796000Y-106190360D01*
X118792035Y-106230618D01*
X118782081Y-106263433D01*
X118765921Y-106293665D01*
X118744170Y-106320170D01*
X118717665Y-106341921D01*
X118687433Y-106358081D01*
X118654618Y-106368035D01*
X118614360Y-106372000D01*
X117650640Y-106372000D01*
X117610382Y-106368035D01*
X117577567Y-106358081D01*
X117547335Y-106341921D01*
X117520830Y-106320170D01*
X117499079Y-106293665D01*
X117482919Y-106263433D01*
X117472965Y-106230618D01*
X117469000Y-106190360D01*
X117469000Y-105601640D01*
X117472965Y-105561382D01*
X117482919Y-105528567D01*
X117499079Y-105498335D01*
X117520830Y-105471830D01*
X117547335Y-105450079D01*
X117577567Y-105433919D01*
X117610382Y-105423965D01*
X117650640Y-105420000D01*
X118614360Y-105420000D01*
X118654618Y-105423965D01*
G37*
G36*
X117029618Y-105423965D02*
G01*
X117062433Y-105433919D01*
X117092665Y-105450079D01*
X117119170Y-105471830D01*
X117140921Y-105498335D01*
X117157081Y-105528567D01*
X117167035Y-105561382D01*
X117171000Y-105601640D01*
X117171000Y-106190360D01*
X117167035Y-106230618D01*
X117157081Y-106263433D01*
X117140921Y-106293665D01*
X117119170Y-106320170D01*
X117092665Y-106341921D01*
X117062433Y-106358081D01*
X117029618Y-106368035D01*
X116989360Y-106372000D01*
X116025640Y-106372000D01*
X115985382Y-106368035D01*
X115952567Y-106358081D01*
X115922335Y-106341921D01*
X115895830Y-106320170D01*
X115874079Y-106293665D01*
X115857919Y-106263433D01*
X115847965Y-106230618D01*
X115844000Y-106190360D01*
X115844000Y-105601640D01*
X115847965Y-105561382D01*
X115857919Y-105528567D01*
X115874079Y-105498335D01*
X115895830Y-105471830D01*
X115922335Y-105450079D01*
X115952567Y-105433919D01*
X115985382Y-105423965D01*
X116025640Y-105420000D01*
X116989360Y-105420000D01*
X117029618Y-105423965D01*
G37*
G36*
X182128571Y-104752863D02*
G01*
X182207023Y-104760590D01*
X182307682Y-104791125D01*
X182358013Y-104806392D01*
X182497165Y-104880771D01*
X182619133Y-104980867D01*
X182719229Y-105102835D01*
X182793608Y-105241987D01*
X182793608Y-105241988D01*
X182839410Y-105392977D01*
X182854875Y-105550000D01*
X182839410Y-105707023D01*
X182836004Y-105718250D01*
X182793608Y-105858013D01*
X182719229Y-105997165D01*
X182619133Y-106119133D01*
X182497165Y-106219229D01*
X182358013Y-106293608D01*
X182307682Y-106308875D01*
X182207023Y-106339410D01*
X182128571Y-106347137D01*
X182089346Y-106351000D01*
X180710654Y-106351000D01*
X180671429Y-106347137D01*
X180592977Y-106339410D01*
X180492318Y-106308875D01*
X180441987Y-106293608D01*
X180302835Y-106219229D01*
X180180867Y-106119133D01*
X180080771Y-105997165D01*
X180006392Y-105858013D01*
X179963996Y-105718250D01*
X179960590Y-105707023D01*
X179945125Y-105550000D01*
X179960590Y-105392977D01*
X180006392Y-105241988D01*
X180006392Y-105241987D01*
X180080771Y-105102835D01*
X180180867Y-104980867D01*
X180302835Y-104880771D01*
X180441987Y-104806392D01*
X180492318Y-104791125D01*
X180592977Y-104760590D01*
X180671429Y-104752863D01*
X180710654Y-104749000D01*
X182089346Y-104749000D01*
X182128571Y-104752863D01*
G37*
G36*
X175907430Y-99848978D02*
G01*
X176158684Y-99898955D01*
X176354752Y-99980169D01*
X176632034Y-100095023D01*
X176632035Y-100095024D01*
X177058041Y-100379671D01*
X177420329Y-100741959D01*
X177493703Y-100851772D01*
X177704977Y-101167966D01*
X177817980Y-101440780D01*
X177901045Y-101641316D01*
X177941054Y-101842455D01*
X178001000Y-102143823D01*
X178001000Y-102656177D01*
X177982138Y-102751000D01*
X177901045Y-103158684D01*
X177884374Y-103198931D01*
X177704977Y-103632034D01*
X177704976Y-103632035D01*
X177420329Y-104058041D01*
X177058041Y-104420329D01*
X176841499Y-104565017D01*
X176632034Y-104704977D01*
X176387196Y-104806392D01*
X176158684Y-104901045D01*
X175907430Y-104951023D01*
X175656177Y-105001000D01*
X175143823Y-105001000D01*
X174892570Y-104951023D01*
X174641316Y-104901045D01*
X174412804Y-104806392D01*
X174167966Y-104704977D01*
X173958501Y-104565017D01*
X173741959Y-104420329D01*
X173379671Y-104058041D01*
X173095024Y-103632035D01*
X173095023Y-103632034D01*
X172915626Y-103198931D01*
X172898955Y-103158684D01*
X172817862Y-102751000D01*
X172799000Y-102656177D01*
X172799000Y-102143823D01*
X172858946Y-101842455D01*
X172898955Y-101641316D01*
X172982020Y-101440780D01*
X173095023Y-101167966D01*
X173306297Y-100851772D01*
X173379671Y-100741959D01*
X173741959Y-100379671D01*
X174167965Y-100095024D01*
X174167966Y-100095023D01*
X174445248Y-99980169D01*
X174641316Y-99898955D01*
X174892570Y-99848978D01*
X175143823Y-99799000D01*
X175656177Y-99799000D01*
X175907430Y-99848978D01*
G37*
G36*
X139334468Y-103553565D02*
G01*
X139373138Y-103565296D01*
X139408777Y-103584346D01*
X139440017Y-103609983D01*
X139465654Y-103641223D01*
X139484704Y-103676862D01*
X139496435Y-103715532D01*
X139501000Y-103761888D01*
X139501000Y-104413112D01*
X139496435Y-104459468D01*
X139484704Y-104498138D01*
X139465654Y-104533777D01*
X139440017Y-104565017D01*
X139408777Y-104590654D01*
X139373138Y-104609704D01*
X139334468Y-104621435D01*
X139288112Y-104626000D01*
X138211888Y-104626000D01*
X138165532Y-104621435D01*
X138126862Y-104609704D01*
X138091223Y-104590654D01*
X138059983Y-104565017D01*
X138034346Y-104533777D01*
X138015296Y-104498138D01*
X138003565Y-104459468D01*
X137999000Y-104413112D01*
X137999000Y-103761888D01*
X138003565Y-103715532D01*
X138015296Y-103676862D01*
X138034346Y-103641223D01*
X138059983Y-103609983D01*
X138091223Y-103584346D01*
X138126862Y-103565296D01*
X138165532Y-103553565D01*
X138211888Y-103549000D01*
X139288112Y-103549000D01*
X139334468Y-103553565D01*
G37*
G36*
X153979591Y-103090585D02*
G01*
X154013569Y-103100893D01*
X154044890Y-103117634D01*
X154072339Y-103140161D01*
X154094866Y-103167610D01*
X154111607Y-103198931D01*
X154121915Y-103232909D01*
X154126000Y-103274390D01*
X154126000Y-103875610D01*
X154121915Y-103917091D01*
X154111607Y-103951069D01*
X154094866Y-103982390D01*
X154072339Y-104009839D01*
X154044890Y-104032366D01*
X154013569Y-104049107D01*
X153979591Y-104059415D01*
X153938110Y-104063500D01*
X153261890Y-104063500D01*
X153220409Y-104059415D01*
X153186431Y-104049107D01*
X153155110Y-104032366D01*
X153127661Y-104009839D01*
X153105134Y-103982390D01*
X153088393Y-103951069D01*
X153078085Y-103917091D01*
X153074000Y-103875610D01*
X153074000Y-103274390D01*
X153078085Y-103232909D01*
X153088393Y-103198931D01*
X153105134Y-103167610D01*
X153127661Y-103140161D01*
X153155110Y-103117634D01*
X153186431Y-103100893D01*
X153220409Y-103090585D01*
X153261890Y-103086500D01*
X153938110Y-103086500D01*
X153979591Y-103090585D01*
G37*
G36*
X139334468Y-101678565D02*
G01*
X139373138Y-101690296D01*
X139408777Y-101709346D01*
X139440017Y-101734983D01*
X139465654Y-101766223D01*
X139484704Y-101801862D01*
X139496435Y-101840532D01*
X139501000Y-101886888D01*
X139501000Y-102538112D01*
X139496435Y-102584468D01*
X139484704Y-102623138D01*
X139465654Y-102658777D01*
X139440017Y-102690017D01*
X139408777Y-102715654D01*
X139373138Y-102734704D01*
X139334468Y-102746435D01*
X139288112Y-102751000D01*
X138211888Y-102751000D01*
X138165532Y-102746435D01*
X138126862Y-102734704D01*
X138091223Y-102715654D01*
X138059983Y-102690017D01*
X138034346Y-102658777D01*
X138015296Y-102623138D01*
X138003565Y-102584468D01*
X137999000Y-102538112D01*
X137999000Y-101886888D01*
X138003565Y-101840532D01*
X138015296Y-101801862D01*
X138034346Y-101766223D01*
X138059983Y-101734983D01*
X138091223Y-101709346D01*
X138126862Y-101690296D01*
X138165532Y-101678565D01*
X138211888Y-101674000D01*
X139288112Y-101674000D01*
X139334468Y-101678565D01*
G37*
G36*
X117828228Y-100281703D02*
G01*
X117983100Y-100345853D01*
X118122481Y-100438985D01*
X118241015Y-100557519D01*
X118334147Y-100696900D01*
X118398297Y-100851772D01*
X118431000Y-101016184D01*
X118431000Y-101183816D01*
X118398297Y-101348228D01*
X118334147Y-101503100D01*
X118241015Y-101642481D01*
X118122481Y-101761015D01*
X118088555Y-101783684D01*
X118084554Y-101786357D01*
X118065612Y-101801902D01*
X118050066Y-101820844D01*
X118038515Y-101842455D01*
X118031402Y-101865904D01*
X118029000Y-101890290D01*
X118029000Y-102695000D01*
X117127000Y-102695000D01*
X117127000Y-101887617D01*
X117124598Y-101863231D01*
X117117485Y-101839782D01*
X117105934Y-101818171D01*
X117090389Y-101799229D01*
X117071449Y-101783686D01*
X117037519Y-101761015D01*
X116918985Y-101642481D01*
X116825853Y-101503100D01*
X116761703Y-101348228D01*
X116729000Y-101183816D01*
X116729000Y-101016184D01*
X116761703Y-100851772D01*
X116825853Y-100696900D01*
X116918985Y-100557519D01*
X117037519Y-100438985D01*
X117176900Y-100345853D01*
X117331772Y-100281703D01*
X117496184Y-100249000D01*
X117663816Y-100249000D01*
X117828228Y-100281703D01*
G37*
G36*
X120368228Y-100281703D02*
G01*
X120523100Y-100345853D01*
X120662481Y-100438985D01*
X120781015Y-100557519D01*
X120874147Y-100696900D01*
X120938297Y-100851772D01*
X120971000Y-101016184D01*
X120971000Y-101183816D01*
X120938297Y-101348228D01*
X120874147Y-101503100D01*
X120781015Y-101642481D01*
X120662481Y-101761015D01*
X120628555Y-101783684D01*
X120624554Y-101786357D01*
X120605612Y-101801902D01*
X120590066Y-101820844D01*
X120578515Y-101842455D01*
X120571402Y-101865904D01*
X120569000Y-101890290D01*
X120569000Y-102695000D01*
X119667000Y-102695000D01*
X119667000Y-101887617D01*
X119664598Y-101863231D01*
X119657485Y-101839782D01*
X119645934Y-101818171D01*
X119630389Y-101799229D01*
X119611449Y-101783686D01*
X119577519Y-101761015D01*
X119458985Y-101642481D01*
X119365853Y-101503100D01*
X119301703Y-101348228D01*
X119269000Y-101183816D01*
X119269000Y-101016184D01*
X119301703Y-100851772D01*
X119365853Y-100696900D01*
X119458985Y-100557519D01*
X119577519Y-100438985D01*
X119716900Y-100345853D01*
X119871772Y-100281703D01*
X120036184Y-100249000D01*
X120203816Y-100249000D01*
X120368228Y-100281703D01*
G37*
G36*
X122908228Y-100281703D02*
G01*
X123063100Y-100345853D01*
X123202481Y-100438985D01*
X123321015Y-100557519D01*
X123414147Y-100696900D01*
X123478297Y-100851772D01*
X123511000Y-101016184D01*
X123511000Y-101183816D01*
X123478297Y-101348228D01*
X123414147Y-101503100D01*
X123321015Y-101642481D01*
X123202481Y-101761015D01*
X123168555Y-101783684D01*
X123164554Y-101786357D01*
X123145612Y-101801902D01*
X123130066Y-101820844D01*
X123118515Y-101842455D01*
X123111402Y-101865904D01*
X123109000Y-101890290D01*
X123109000Y-102695000D01*
X122207000Y-102695000D01*
X122207000Y-101887617D01*
X122204598Y-101863231D01*
X122197485Y-101839782D01*
X122185934Y-101818171D01*
X122170389Y-101799229D01*
X122151449Y-101783686D01*
X122117519Y-101761015D01*
X121998985Y-101642481D01*
X121905853Y-101503100D01*
X121841703Y-101348228D01*
X121809000Y-101183816D01*
X121809000Y-101016184D01*
X121841703Y-100851772D01*
X121905853Y-100696900D01*
X121998985Y-100557519D01*
X122117519Y-100438985D01*
X122256900Y-100345853D01*
X122411772Y-100281703D01*
X122576184Y-100249000D01*
X122743816Y-100249000D01*
X122908228Y-100281703D01*
G37*
G36*
X126051000Y-101951000D02*
G01*
X125773999Y-101951000D01*
X125749613Y-101953402D01*
X125726164Y-101960515D01*
X125704553Y-101972066D01*
X125685611Y-101987611D01*
X125670066Y-102006553D01*
X125658515Y-102028164D01*
X125651402Y-102051613D01*
X125649000Y-102075999D01*
X125649000Y-102695000D01*
X124747000Y-102695000D01*
X124747000Y-102075999D01*
X124744598Y-102051613D01*
X124737485Y-102028164D01*
X124725934Y-102006553D01*
X124710389Y-101987611D01*
X124691447Y-101972066D01*
X124669836Y-101960515D01*
X124646387Y-101953402D01*
X124622001Y-101951000D01*
X124349000Y-101951000D01*
X124349000Y-100249000D01*
X126051000Y-100249000D01*
X126051000Y-101951000D01*
G37*
G36*
X142496968Y-101053565D02*
G01*
X142535638Y-101065296D01*
X142571277Y-101084346D01*
X142602517Y-101109983D01*
X142628154Y-101141223D01*
X142647204Y-101176862D01*
X142658935Y-101215532D01*
X142663500Y-101261888D01*
X142663500Y-102338112D01*
X142658935Y-102384468D01*
X142647204Y-102423138D01*
X142628154Y-102458777D01*
X142602517Y-102490017D01*
X142571277Y-102515654D01*
X142535638Y-102534704D01*
X142496968Y-102546435D01*
X142450612Y-102551000D01*
X141799388Y-102551000D01*
X141753032Y-102546435D01*
X141714362Y-102534704D01*
X141678723Y-102515654D01*
X141647483Y-102490017D01*
X141621846Y-102458777D01*
X141602796Y-102423138D01*
X141591065Y-102384468D01*
X141586500Y-102338112D01*
X141586500Y-101261888D01*
X141591065Y-101215532D01*
X141602796Y-101176862D01*
X141621846Y-101141223D01*
X141647483Y-101109983D01*
X141678723Y-101084346D01*
X141714362Y-101065296D01*
X141753032Y-101053565D01*
X141799388Y-101049000D01*
X142450612Y-101049000D01*
X142496968Y-101053565D01*
G37*
G36*
X144371968Y-101053565D02*
G01*
X144410638Y-101065296D01*
X144446277Y-101084346D01*
X144477517Y-101109983D01*
X144503154Y-101141223D01*
X144522204Y-101176862D01*
X144533935Y-101215532D01*
X144538500Y-101261888D01*
X144538500Y-102338112D01*
X144533935Y-102384468D01*
X144522204Y-102423138D01*
X144503154Y-102458777D01*
X144477517Y-102490017D01*
X144446277Y-102515654D01*
X144410638Y-102534704D01*
X144371968Y-102546435D01*
X144325612Y-102551000D01*
X143674388Y-102551000D01*
X143628032Y-102546435D01*
X143589362Y-102534704D01*
X143553723Y-102515654D01*
X143522483Y-102490017D01*
X143496846Y-102458777D01*
X143477796Y-102423138D01*
X143466065Y-102384468D01*
X143461500Y-102338112D01*
X143461500Y-101261888D01*
X143466065Y-101215532D01*
X143477796Y-101176862D01*
X143496846Y-101141223D01*
X143522483Y-101109983D01*
X143553723Y-101084346D01*
X143589362Y-101065296D01*
X143628032Y-101053565D01*
X143674388Y-101049000D01*
X144325612Y-101049000D01*
X144371968Y-101053565D01*
G37*
G36*
X153979591Y-101515585D02*
G01*
X154013569Y-101525893D01*
X154044890Y-101542634D01*
X154072339Y-101565161D01*
X154094866Y-101592610D01*
X154111607Y-101623931D01*
X154121915Y-101657909D01*
X154126000Y-101699390D01*
X154126000Y-102300610D01*
X154121915Y-102342091D01*
X154111607Y-102376069D01*
X154094866Y-102407390D01*
X154072339Y-102434839D01*
X154044890Y-102457366D01*
X154013569Y-102474107D01*
X153979591Y-102484415D01*
X153938110Y-102488500D01*
X153261890Y-102488500D01*
X153220409Y-102484415D01*
X153186431Y-102474107D01*
X153155110Y-102457366D01*
X153127661Y-102434839D01*
X153105134Y-102407390D01*
X153088393Y-102376069D01*
X153078085Y-102342091D01*
X153074000Y-102300610D01*
X153074000Y-101699390D01*
X153078085Y-101657909D01*
X153088393Y-101623931D01*
X153105134Y-101592610D01*
X153127661Y-101565161D01*
X153155110Y-101542634D01*
X153186431Y-101525893D01*
X153220409Y-101515585D01*
X153261890Y-101511500D01*
X153938110Y-101511500D01*
X153979591Y-101515585D01*
G37*
G36*
X147866591Y-101294085D02*
G01*
X147900569Y-101304393D01*
X147931890Y-101321134D01*
X147959339Y-101343661D01*
X147981866Y-101371110D01*
X147998607Y-101402431D01*
X148008915Y-101436409D01*
X148013000Y-101477890D01*
X148013000Y-102154110D01*
X148008915Y-102195591D01*
X147998607Y-102229569D01*
X147981866Y-102260890D01*
X147959339Y-102288339D01*
X147931890Y-102310866D01*
X147900569Y-102327607D01*
X147866591Y-102337915D01*
X147825110Y-102342000D01*
X147223890Y-102342000D01*
X147182409Y-102337915D01*
X147148431Y-102327607D01*
X147117110Y-102310866D01*
X147089661Y-102288339D01*
X147067134Y-102260890D01*
X147050393Y-102229569D01*
X147040085Y-102195591D01*
X147036000Y-102154110D01*
X147036000Y-101477890D01*
X147040085Y-101436409D01*
X147050393Y-101402431D01*
X147067134Y-101371110D01*
X147089661Y-101343661D01*
X147117110Y-101321134D01*
X147148431Y-101304393D01*
X147182409Y-101294085D01*
X147223890Y-101290000D01*
X147825110Y-101290000D01*
X147866591Y-101294085D01*
G37*
G36*
X149441591Y-101294085D02*
G01*
X149475569Y-101304393D01*
X149506890Y-101321134D01*
X149534339Y-101343661D01*
X149556866Y-101371110D01*
X149573607Y-101402431D01*
X149583915Y-101436409D01*
X149588000Y-101477890D01*
X149588000Y-102154110D01*
X149583915Y-102195591D01*
X149573607Y-102229569D01*
X149556866Y-102260890D01*
X149534339Y-102288339D01*
X149506890Y-102310866D01*
X149475569Y-102327607D01*
X149441591Y-102337915D01*
X149400110Y-102342000D01*
X148798890Y-102342000D01*
X148757409Y-102337915D01*
X148723431Y-102327607D01*
X148692110Y-102310866D01*
X148664661Y-102288339D01*
X148642134Y-102260890D01*
X148625393Y-102229569D01*
X148615085Y-102195591D01*
X148611000Y-102154110D01*
X148611000Y-101477890D01*
X148615085Y-101436409D01*
X148625393Y-101402431D01*
X148642134Y-101371110D01*
X148664661Y-101343661D01*
X148692110Y-101321134D01*
X148723431Y-101304393D01*
X148757409Y-101294085D01*
X148798890Y-101290000D01*
X149400110Y-101290000D01*
X149441591Y-101294085D01*
G37*
G36*
X152679591Y-98215585D02*
G01*
X152713569Y-98225893D01*
X152744890Y-98242634D01*
X152772339Y-98265161D01*
X152794866Y-98292610D01*
X152811607Y-98323931D01*
X152821915Y-98357909D01*
X152826000Y-98399390D01*
X152826000Y-99000610D01*
X152821915Y-99042091D01*
X152811607Y-99076069D01*
X152794866Y-99107390D01*
X152772339Y-99134839D01*
X152744890Y-99157366D01*
X152713569Y-99174107D01*
X152679591Y-99184415D01*
X152638110Y-99188500D01*
X151961890Y-99188500D01*
X151920409Y-99184415D01*
X151886431Y-99174107D01*
X151855110Y-99157366D01*
X151827661Y-99134839D01*
X151805134Y-99107390D01*
X151788393Y-99076069D01*
X151778085Y-99042091D01*
X151774000Y-99000610D01*
X151774000Y-98399390D01*
X151778085Y-98357909D01*
X151788393Y-98323931D01*
X151805134Y-98292610D01*
X151827661Y-98265161D01*
X151855110Y-98242634D01*
X151886431Y-98225893D01*
X151920409Y-98215585D01*
X151961890Y-98211500D01*
X152638110Y-98211500D01*
X152679591Y-98215585D01*
G37*
G36*
X175907430Y-92648978D02*
G01*
X176158684Y-92698955D01*
X176354752Y-92780169D01*
X176632034Y-92895023D01*
X176632035Y-92895024D01*
X177058041Y-93179671D01*
X177420329Y-93541959D01*
X177544789Y-93728228D01*
X177704977Y-93967966D01*
X177770290Y-94125646D01*
X177901045Y-94441316D01*
X178001000Y-94943824D01*
X178001000Y-95456176D01*
X177901045Y-95958684D01*
X177883517Y-96001000D01*
X177704977Y-96432034D01*
X177704976Y-96432035D01*
X177420329Y-96858041D01*
X177058041Y-97220329D01*
X176835164Y-97369250D01*
X176632034Y-97504977D01*
X176381366Y-97608807D01*
X176158684Y-97701045D01*
X175907430Y-97751023D01*
X175656177Y-97801000D01*
X175143823Y-97801000D01*
X174892570Y-97751023D01*
X174641316Y-97701045D01*
X174418634Y-97608807D01*
X174167966Y-97504977D01*
X173964836Y-97369250D01*
X173741959Y-97220329D01*
X173379671Y-96858041D01*
X173095024Y-96432035D01*
X173095023Y-96432034D01*
X172916483Y-96001000D01*
X172898955Y-95958684D01*
X172799000Y-95456176D01*
X172799000Y-94943824D01*
X172898955Y-94441316D01*
X173029710Y-94125646D01*
X173095023Y-93967966D01*
X173255211Y-93728228D01*
X173379671Y-93541959D01*
X173741959Y-93179671D01*
X174167965Y-92895024D01*
X174167966Y-92895023D01*
X174445248Y-92780169D01*
X174641316Y-92698955D01*
X174892570Y-92648978D01*
X175143823Y-92599000D01*
X175656177Y-92599000D01*
X175907430Y-92648978D01*
G37*
G36*
X152679591Y-96640585D02*
G01*
X152713569Y-96650893D01*
X152744890Y-96667634D01*
X152772339Y-96690161D01*
X152794866Y-96717610D01*
X152811607Y-96748931D01*
X152821915Y-96782909D01*
X152826000Y-96824390D01*
X152826000Y-97425610D01*
X152821915Y-97467091D01*
X152811607Y-97501069D01*
X152794866Y-97532390D01*
X152772339Y-97559839D01*
X152744890Y-97582366D01*
X152713569Y-97599107D01*
X152679591Y-97609415D01*
X152638110Y-97613500D01*
X151961890Y-97613500D01*
X151920409Y-97609415D01*
X151886431Y-97599107D01*
X151855110Y-97582366D01*
X151827661Y-97559839D01*
X151805134Y-97532390D01*
X151788393Y-97501069D01*
X151778085Y-97467091D01*
X151774000Y-97425610D01*
X151774000Y-96824390D01*
X151778085Y-96782909D01*
X151788393Y-96748931D01*
X151805134Y-96717610D01*
X151827661Y-96690161D01*
X151855110Y-96667634D01*
X151886431Y-96650893D01*
X151920409Y-96640585D01*
X151961890Y-96636500D01*
X152638110Y-96636500D01*
X152679591Y-96640585D01*
G37*
G36*
X130013512Y-94203927D02*
G01*
X130162812Y-94233624D01*
X130326784Y-94301544D01*
X130474354Y-94400147D01*
X130599853Y-94525646D01*
X130698456Y-94673216D01*
X130766376Y-94837188D01*
X130801000Y-95011259D01*
X130801000Y-95188741D01*
X130766376Y-95362812D01*
X130698456Y-95526784D01*
X130599853Y-95674354D01*
X130474354Y-95799853D01*
X130326784Y-95898456D01*
X130162812Y-95966376D01*
X130013512Y-95996073D01*
X129988742Y-96001000D01*
X129811258Y-96001000D01*
X129786488Y-95996073D01*
X129637188Y-95966376D01*
X129473216Y-95898456D01*
X129325646Y-95799853D01*
X129200147Y-95674354D01*
X129101544Y-95526784D01*
X129033624Y-95362812D01*
X128999000Y-95188741D01*
X128999000Y-95011259D01*
X129033624Y-94837188D01*
X129101544Y-94673216D01*
X129200147Y-94525646D01*
X129325646Y-94400147D01*
X129473216Y-94301544D01*
X129637188Y-94233624D01*
X129786488Y-94203927D01*
X129811258Y-94199000D01*
X129988742Y-94199000D01*
X130013512Y-94203927D01*
G37*
G36*
X132553512Y-94203927D02*
G01*
X132702812Y-94233624D01*
X132866784Y-94301544D01*
X133014354Y-94400147D01*
X133139853Y-94525646D01*
X133238456Y-94673216D01*
X133306376Y-94837188D01*
X133341000Y-95011259D01*
X133341000Y-95188741D01*
X133306376Y-95362812D01*
X133238456Y-95526784D01*
X133139853Y-95674354D01*
X133014354Y-95799853D01*
X132866784Y-95898456D01*
X132702812Y-95966376D01*
X132553512Y-95996073D01*
X132528742Y-96001000D01*
X132351258Y-96001000D01*
X132326488Y-95996073D01*
X132177188Y-95966376D01*
X132013216Y-95898456D01*
X131865646Y-95799853D01*
X131740147Y-95674354D01*
X131641544Y-95526784D01*
X131573624Y-95362812D01*
X131539000Y-95188741D01*
X131539000Y-95011259D01*
X131573624Y-94837188D01*
X131641544Y-94673216D01*
X131740147Y-94525646D01*
X131865646Y-94400147D01*
X132013216Y-94301544D01*
X132177188Y-94233624D01*
X132326488Y-94203927D01*
X132351258Y-94199000D01*
X132528742Y-94199000D01*
X132553512Y-94203927D01*
G37*
G36*
X135881000Y-96001000D02*
G01*
X134079000Y-96001000D01*
X134079000Y-94199000D01*
X135881000Y-94199000D01*
X135881000Y-96001000D01*
G37*
G36*
X150451000Y-95601000D02*
G01*
X148649000Y-95601000D01*
X148649000Y-93799000D01*
X150451000Y-93799000D01*
X150451000Y-95601000D01*
G37*
G36*
X139503512Y-93803927D02*
G01*
X139652812Y-93833624D01*
X139816784Y-93901544D01*
X139964354Y-94000147D01*
X140089853Y-94125646D01*
X140188456Y-94273216D01*
X140256376Y-94437188D01*
X140291000Y-94611259D01*
X140291000Y-94788741D01*
X140256376Y-94962812D01*
X140188456Y-95126784D01*
X140089853Y-95274354D01*
X139964354Y-95399853D01*
X139816784Y-95498456D01*
X139652812Y-95566376D01*
X139503512Y-95596073D01*
X139478742Y-95601000D01*
X139301258Y-95601000D01*
X139276488Y-95596073D01*
X139127188Y-95566376D01*
X138963216Y-95498456D01*
X138815646Y-95399853D01*
X138690147Y-95274354D01*
X138591544Y-95126784D01*
X138523624Y-94962812D01*
X138489000Y-94788741D01*
X138489000Y-94611259D01*
X138523624Y-94437188D01*
X138591544Y-94273216D01*
X138690147Y-94125646D01*
X138815646Y-94000147D01*
X138963216Y-93901544D01*
X139127188Y-93833624D01*
X139276488Y-93803927D01*
X139301258Y-93799000D01*
X139478742Y-93799000D01*
X139503512Y-93803927D01*
G37*
G36*
X142043512Y-93803927D02*
G01*
X142192812Y-93833624D01*
X142356784Y-93901544D01*
X142504354Y-94000147D01*
X142629853Y-94125646D01*
X142728456Y-94273216D01*
X142796376Y-94437188D01*
X142831000Y-94611259D01*
X142831000Y-94788741D01*
X142796376Y-94962812D01*
X142728456Y-95126784D01*
X142629853Y-95274354D01*
X142504354Y-95399853D01*
X142356784Y-95498456D01*
X142192812Y-95566376D01*
X142043512Y-95596073D01*
X142018742Y-95601000D01*
X141841258Y-95601000D01*
X141816488Y-95596073D01*
X141667188Y-95566376D01*
X141503216Y-95498456D01*
X141355646Y-95399853D01*
X141230147Y-95274354D01*
X141131544Y-95126784D01*
X141063624Y-94962812D01*
X141029000Y-94788741D01*
X141029000Y-94611259D01*
X141063624Y-94437188D01*
X141131544Y-94273216D01*
X141230147Y-94125646D01*
X141355646Y-94000147D01*
X141503216Y-93901544D01*
X141667188Y-93833624D01*
X141816488Y-93803927D01*
X141841258Y-93799000D01*
X142018742Y-93799000D01*
X142043512Y-93803927D01*
G37*
G36*
X144583512Y-93803927D02*
G01*
X144732812Y-93833624D01*
X144896784Y-93901544D01*
X145044354Y-94000147D01*
X145169853Y-94125646D01*
X145268456Y-94273216D01*
X145336376Y-94437188D01*
X145371000Y-94611259D01*
X145371000Y-94788741D01*
X145336376Y-94962812D01*
X145268456Y-95126784D01*
X145169853Y-95274354D01*
X145044354Y-95399853D01*
X144896784Y-95498456D01*
X144732812Y-95566376D01*
X144583512Y-95596073D01*
X144558742Y-95601000D01*
X144381258Y-95601000D01*
X144356488Y-95596073D01*
X144207188Y-95566376D01*
X144043216Y-95498456D01*
X143895646Y-95399853D01*
X143770147Y-95274354D01*
X143671544Y-95126784D01*
X143603624Y-94962812D01*
X143569000Y-94788741D01*
X143569000Y-94611259D01*
X143603624Y-94437188D01*
X143671544Y-94273216D01*
X143770147Y-94125646D01*
X143895646Y-94000147D01*
X144043216Y-93901544D01*
X144207188Y-93833624D01*
X144356488Y-93803927D01*
X144381258Y-93799000D01*
X144558742Y-93799000D01*
X144583512Y-93803927D01*
G37*
G36*
X147123512Y-93803927D02*
G01*
X147272812Y-93833624D01*
X147436784Y-93901544D01*
X147584354Y-94000147D01*
X147709853Y-94125646D01*
X147808456Y-94273216D01*
X147876376Y-94437188D01*
X147911000Y-94611259D01*
X147911000Y-94788741D01*
X147876376Y-94962812D01*
X147808456Y-95126784D01*
X147709853Y-95274354D01*
X147584354Y-95399853D01*
X147436784Y-95498456D01*
X147272812Y-95566376D01*
X147123512Y-95596073D01*
X147098742Y-95601000D01*
X146921258Y-95601000D01*
X146896488Y-95596073D01*
X146747188Y-95566376D01*
X146583216Y-95498456D01*
X146435646Y-95399853D01*
X146310147Y-95274354D01*
X146211544Y-95126784D01*
X146143624Y-94962812D01*
X146109000Y-94788741D01*
X146109000Y-94611259D01*
X146143624Y-94437188D01*
X146211544Y-94273216D01*
X146310147Y-94125646D01*
X146435646Y-94000147D01*
X146583216Y-93901544D01*
X146747188Y-93833624D01*
X146896488Y-93803927D01*
X146921258Y-93799000D01*
X147098742Y-93799000D01*
X147123512Y-93803927D01*
G37*
G36*
X120569000Y-92689710D02*
G01*
X120571402Y-92714096D01*
X120578515Y-92737545D01*
X120590066Y-92759156D01*
X120605611Y-92778098D01*
X120624553Y-92793642D01*
X120662481Y-92818985D01*
X120781015Y-92937519D01*
X120874147Y-93076900D01*
X120938297Y-93231772D01*
X120971000Y-93396184D01*
X120971000Y-93563816D01*
X120938297Y-93728228D01*
X120874147Y-93883100D01*
X120781015Y-94022481D01*
X120662481Y-94141015D01*
X120523100Y-94234147D01*
X120368228Y-94298297D01*
X120203816Y-94331000D01*
X120036184Y-94331000D01*
X119871772Y-94298297D01*
X119716900Y-94234147D01*
X119577519Y-94141015D01*
X119458985Y-94022481D01*
X119365853Y-93883100D01*
X119301703Y-93728228D01*
X119269000Y-93563816D01*
X119269000Y-93396184D01*
X119301703Y-93231772D01*
X119365853Y-93076900D01*
X119458985Y-92937519D01*
X119577519Y-92818985D01*
X119611449Y-92796314D01*
X119630388Y-92780771D01*
X119645933Y-92761829D01*
X119657485Y-92740219D01*
X119664598Y-92716770D01*
X119667000Y-92692383D01*
X119667000Y-91893000D01*
X120569000Y-91893000D01*
X120569000Y-92689710D01*
G37*
G36*
X118029000Y-92689710D02*
G01*
X118031402Y-92714096D01*
X118038515Y-92737545D01*
X118050066Y-92759156D01*
X118065611Y-92778098D01*
X118084553Y-92793642D01*
X118122481Y-92818985D01*
X118241015Y-92937519D01*
X118334147Y-93076900D01*
X118398297Y-93231772D01*
X118431000Y-93396184D01*
X118431000Y-93563816D01*
X118398297Y-93728228D01*
X118334147Y-93883100D01*
X118241015Y-94022481D01*
X118122481Y-94141015D01*
X117983100Y-94234147D01*
X117828228Y-94298297D01*
X117663816Y-94331000D01*
X117496184Y-94331000D01*
X117331772Y-94298297D01*
X117176900Y-94234147D01*
X117037519Y-94141015D01*
X116918985Y-94022481D01*
X116825853Y-93883100D01*
X116761703Y-93728228D01*
X116729000Y-93563816D01*
X116729000Y-93396184D01*
X116761703Y-93231772D01*
X116825853Y-93076900D01*
X116918985Y-92937519D01*
X117037519Y-92818985D01*
X117071449Y-92796314D01*
X117090388Y-92780771D01*
X117105933Y-92761829D01*
X117117485Y-92740219D01*
X117124598Y-92716770D01*
X117127000Y-92692383D01*
X117127000Y-91893000D01*
X118029000Y-91893000D01*
X118029000Y-92689710D01*
G37*
G36*
X125649000Y-92689710D02*
G01*
X125651402Y-92714096D01*
X125658515Y-92737545D01*
X125670066Y-92759156D01*
X125685611Y-92778098D01*
X125704553Y-92793642D01*
X125742481Y-92818985D01*
X125861015Y-92937519D01*
X125954147Y-93076900D01*
X126018297Y-93231772D01*
X126051000Y-93396184D01*
X126051000Y-93563816D01*
X126018297Y-93728228D01*
X125954147Y-93883100D01*
X125861015Y-94022481D01*
X125742481Y-94141015D01*
X125603100Y-94234147D01*
X125448228Y-94298297D01*
X125283816Y-94331000D01*
X125116184Y-94331000D01*
X124951772Y-94298297D01*
X124796900Y-94234147D01*
X124657519Y-94141015D01*
X124538985Y-94022481D01*
X124445853Y-93883100D01*
X124381703Y-93728228D01*
X124349000Y-93563816D01*
X124349000Y-93396184D01*
X124381703Y-93231772D01*
X124445853Y-93076900D01*
X124538985Y-92937519D01*
X124657519Y-92818985D01*
X124691449Y-92796314D01*
X124710388Y-92780771D01*
X124725933Y-92761829D01*
X124737485Y-92740219D01*
X124744598Y-92716770D01*
X124747000Y-92692383D01*
X124747000Y-91893000D01*
X125649000Y-91893000D01*
X125649000Y-92689710D01*
G37*
G36*
X123109000Y-92689710D02*
G01*
X123111402Y-92714096D01*
X123118515Y-92737545D01*
X123130066Y-92759156D01*
X123145611Y-92778098D01*
X123164553Y-92793642D01*
X123202481Y-92818985D01*
X123321015Y-92937519D01*
X123414147Y-93076900D01*
X123478297Y-93231772D01*
X123511000Y-93396184D01*
X123511000Y-93563816D01*
X123478297Y-93728228D01*
X123414147Y-93883100D01*
X123321015Y-94022481D01*
X123202481Y-94141015D01*
X123063100Y-94234147D01*
X122908228Y-94298297D01*
X122743816Y-94331000D01*
X122576184Y-94331000D01*
X122411772Y-94298297D01*
X122256900Y-94234147D01*
X122117519Y-94141015D01*
X121998985Y-94022481D01*
X121905853Y-93883100D01*
X121841703Y-93728228D01*
X121809000Y-93563816D01*
X121809000Y-93396184D01*
X121841703Y-93231772D01*
X121905853Y-93076900D01*
X121998985Y-92937519D01*
X122117519Y-92818985D01*
X122151449Y-92796314D01*
X122170388Y-92780771D01*
X122185933Y-92761829D01*
X122197485Y-92740219D01*
X122204598Y-92716770D01*
X122207000Y-92692383D01*
X122207000Y-91893000D01*
X123109000Y-91893000D01*
X123109000Y-92689710D01*
G37*
G36*
X182128571Y-91252863D02*
G01*
X182207023Y-91260590D01*
X182307682Y-91291125D01*
X182358013Y-91306392D01*
X182497165Y-91380771D01*
X182619133Y-91480867D01*
X182719229Y-91602835D01*
X182793608Y-91741987D01*
X182793608Y-91741988D01*
X182839410Y-91892977D01*
X182854875Y-92050000D01*
X182839410Y-92207023D01*
X182808875Y-92307682D01*
X182793608Y-92358013D01*
X182719229Y-92497165D01*
X182619133Y-92619133D01*
X182497165Y-92719229D01*
X182358013Y-92793608D01*
X182307682Y-92808875D01*
X182207023Y-92839410D01*
X182128571Y-92847137D01*
X182089346Y-92851000D01*
X180710654Y-92851000D01*
X180671429Y-92847137D01*
X180592977Y-92839410D01*
X180492318Y-92808875D01*
X180441987Y-92793608D01*
X180302835Y-92719229D01*
X180180867Y-92619133D01*
X180080771Y-92497165D01*
X180006392Y-92358013D01*
X179991125Y-92307682D01*
X179960590Y-92207023D01*
X179945125Y-92050000D01*
X179960590Y-91892977D01*
X180006392Y-91741988D01*
X180006392Y-91741987D01*
X180080771Y-91602835D01*
X180180867Y-91480867D01*
X180302835Y-91380771D01*
X180441987Y-91306392D01*
X180492318Y-91291125D01*
X180592977Y-91260590D01*
X180671429Y-91252863D01*
X180710654Y-91249000D01*
X182089346Y-91249000D01*
X182128571Y-91252863D01*
G37*
G36*
X134328571Y-87152863D02*
G01*
X134407023Y-87160590D01*
X134507682Y-87191125D01*
X134558013Y-87206392D01*
X134697165Y-87280771D01*
X134819133Y-87380867D01*
X134919229Y-87502835D01*
X134993608Y-87641987D01*
X134993608Y-87641988D01*
X135039410Y-87792977D01*
X135054875Y-87950000D01*
X135039410Y-88107023D01*
X135008875Y-88207682D01*
X134993608Y-88258013D01*
X134919229Y-88397165D01*
X134819133Y-88519133D01*
X134697165Y-88619229D01*
X134558013Y-88693608D01*
X134507682Y-88708875D01*
X134407023Y-88739410D01*
X134328571Y-88747137D01*
X134289346Y-88751000D01*
X132910654Y-88751000D01*
X132871429Y-88747137D01*
X132792977Y-88739410D01*
X132692318Y-88708875D01*
X132641987Y-88693608D01*
X132502835Y-88619229D01*
X132380867Y-88519133D01*
X132280771Y-88397165D01*
X132206392Y-88258013D01*
X132191125Y-88207682D01*
X132160590Y-88107023D01*
X132145125Y-87950000D01*
X132160590Y-87792977D01*
X132206392Y-87641988D01*
X132206392Y-87641987D01*
X132280771Y-87502835D01*
X132380867Y-87380867D01*
X132502835Y-87280771D01*
X132641987Y-87206392D01*
X132692318Y-87191125D01*
X132792977Y-87160590D01*
X132871429Y-87152863D01*
X132910654Y-87149000D01*
X134289346Y-87149000D01*
X134328571Y-87152863D01*
G37*
G36*
X197668228Y-85701703D02*
G01*
X197823100Y-85765853D01*
X197962481Y-85858985D01*
X198081015Y-85977519D01*
X198174147Y-86116900D01*
X198238297Y-86271772D01*
X198271000Y-86436184D01*
X198271000Y-86603816D01*
X198238297Y-86768228D01*
X198174147Y-86923100D01*
X198081015Y-87062481D01*
X197962481Y-87181015D01*
X197928551Y-87203686D01*
X197909612Y-87219229D01*
X197894067Y-87238171D01*
X197882515Y-87259781D01*
X197875402Y-87283230D01*
X197873000Y-87307617D01*
X197873000Y-88107000D01*
X196971000Y-88107000D01*
X196971000Y-87310290D01*
X196968598Y-87285904D01*
X196961485Y-87262455D01*
X196949934Y-87240844D01*
X196934389Y-87221902D01*
X196915446Y-87206357D01*
X196911446Y-87203684D01*
X196877519Y-87181015D01*
X196758985Y-87062481D01*
X196665853Y-86923100D01*
X196601703Y-86768228D01*
X196569000Y-86603816D01*
X196569000Y-86436184D01*
X196601703Y-86271772D01*
X196665853Y-86116900D01*
X196758985Y-85977519D01*
X196877519Y-85858985D01*
X197016900Y-85765853D01*
X197171772Y-85701703D01*
X197336184Y-85669000D01*
X197503816Y-85669000D01*
X197668228Y-85701703D01*
G37*
G36*
X195128228Y-85701703D02*
G01*
X195283100Y-85765853D01*
X195422481Y-85858985D01*
X195541015Y-85977519D01*
X195634147Y-86116900D01*
X195698297Y-86271772D01*
X195731000Y-86436184D01*
X195731000Y-86603816D01*
X195698297Y-86768228D01*
X195634147Y-86923100D01*
X195541015Y-87062481D01*
X195422481Y-87181015D01*
X195388551Y-87203686D01*
X195369612Y-87219229D01*
X195354067Y-87238171D01*
X195342515Y-87259781D01*
X195335402Y-87283230D01*
X195333000Y-87307617D01*
X195333000Y-88107000D01*
X194431000Y-88107000D01*
X194431000Y-87310290D01*
X194428598Y-87285904D01*
X194421485Y-87262455D01*
X194409934Y-87240844D01*
X194394389Y-87221902D01*
X194375446Y-87206357D01*
X194371446Y-87203684D01*
X194337519Y-87181015D01*
X194218985Y-87062481D01*
X194125853Y-86923100D01*
X194061703Y-86768228D01*
X194029000Y-86603816D01*
X194029000Y-86436184D01*
X194061703Y-86271772D01*
X194125853Y-86116900D01*
X194218985Y-85977519D01*
X194337519Y-85858985D01*
X194476900Y-85765853D01*
X194631772Y-85701703D01*
X194796184Y-85669000D01*
X194963816Y-85669000D01*
X195128228Y-85701703D01*
G37*
G36*
X190048228Y-85701703D02*
G01*
X190203100Y-85765853D01*
X190342481Y-85858985D01*
X190461015Y-85977519D01*
X190554147Y-86116900D01*
X190618297Y-86271772D01*
X190651000Y-86436184D01*
X190651000Y-86603816D01*
X190618297Y-86768228D01*
X190554147Y-86923100D01*
X190461015Y-87062481D01*
X190342481Y-87181015D01*
X190308551Y-87203686D01*
X190289612Y-87219229D01*
X190274067Y-87238171D01*
X190262515Y-87259781D01*
X190255402Y-87283230D01*
X190253000Y-87307617D01*
X190253000Y-88107000D01*
X189351000Y-88107000D01*
X189351000Y-87310290D01*
X189348598Y-87285904D01*
X189341485Y-87262455D01*
X189329934Y-87240844D01*
X189314389Y-87221902D01*
X189295446Y-87206357D01*
X189291446Y-87203684D01*
X189257519Y-87181015D01*
X189138985Y-87062481D01*
X189045853Y-86923100D01*
X188981703Y-86768228D01*
X188949000Y-86603816D01*
X188949000Y-86436184D01*
X188981703Y-86271772D01*
X189045853Y-86116900D01*
X189138985Y-85977519D01*
X189257519Y-85858985D01*
X189396900Y-85765853D01*
X189551772Y-85701703D01*
X189716184Y-85669000D01*
X189883816Y-85669000D01*
X190048228Y-85701703D01*
G37*
G36*
X192588228Y-85701703D02*
G01*
X192743100Y-85765853D01*
X192882481Y-85858985D01*
X193001015Y-85977519D01*
X193094147Y-86116900D01*
X193158297Y-86271772D01*
X193191000Y-86436184D01*
X193191000Y-86603816D01*
X193158297Y-86768228D01*
X193094147Y-86923100D01*
X193001015Y-87062481D01*
X192882481Y-87181015D01*
X192848551Y-87203686D01*
X192829612Y-87219229D01*
X192814067Y-87238171D01*
X192802515Y-87259781D01*
X192795402Y-87283230D01*
X192793000Y-87307617D01*
X192793000Y-88107000D01*
X191891000Y-88107000D01*
X191891000Y-87310290D01*
X191888598Y-87285904D01*
X191881485Y-87262455D01*
X191869934Y-87240844D01*
X191854389Y-87221902D01*
X191835446Y-87206357D01*
X191831446Y-87203684D01*
X191797519Y-87181015D01*
X191678985Y-87062481D01*
X191585853Y-86923100D01*
X191521703Y-86768228D01*
X191489000Y-86603816D01*
X191489000Y-86436184D01*
X191521703Y-86271772D01*
X191585853Y-86116900D01*
X191678985Y-85977519D01*
X191797519Y-85858985D01*
X191936900Y-85765853D01*
X192091772Y-85701703D01*
X192256184Y-85669000D01*
X192423816Y-85669000D01*
X192588228Y-85701703D01*
G37*
G36*
X140107430Y-82248977D02*
G01*
X140358684Y-82298955D01*
X140554752Y-82380169D01*
X140832034Y-82495023D01*
X140888734Y-82532909D01*
X141258041Y-82779671D01*
X141620329Y-83141959D01*
X141765628Y-83359415D01*
X141904977Y-83567966D01*
X142019831Y-83845248D01*
X142101045Y-84041316D01*
X142201000Y-84543824D01*
X142201000Y-85056176D01*
X142101045Y-85558684D01*
X142031416Y-85726782D01*
X141904977Y-86032034D01*
X141904976Y-86032035D01*
X141620329Y-86458041D01*
X141258041Y-86820329D01*
X140973393Y-87010524D01*
X140832034Y-87104977D01*
X140587196Y-87206392D01*
X140358684Y-87301045D01*
X140171405Y-87338297D01*
X139856177Y-87401000D01*
X139343823Y-87401000D01*
X139028595Y-87338297D01*
X138841316Y-87301045D01*
X138612804Y-87206392D01*
X138367966Y-87104977D01*
X138226607Y-87010524D01*
X137941959Y-86820329D01*
X137579671Y-86458041D01*
X137295024Y-86032035D01*
X137295023Y-86032034D01*
X137168584Y-85726782D01*
X137098955Y-85558684D01*
X136999000Y-85056176D01*
X136999000Y-84543824D01*
X137098955Y-84041316D01*
X137180169Y-83845248D01*
X137295023Y-83567966D01*
X137434372Y-83359415D01*
X137579671Y-83141959D01*
X137941959Y-82779671D01*
X138311266Y-82532909D01*
X138367966Y-82495023D01*
X138645248Y-82380169D01*
X138841316Y-82298955D01*
X139092570Y-82248977D01*
X139343823Y-82199000D01*
X139856177Y-82199000D01*
X140107430Y-82248977D01*
G37*
G36*
X170643512Y-84403927D02*
G01*
X170792812Y-84433624D01*
X170956784Y-84501544D01*
X171104354Y-84600147D01*
X171229853Y-84725646D01*
X171328456Y-84873216D01*
X171396376Y-85037188D01*
X171431000Y-85211259D01*
X171431000Y-85388741D01*
X171396376Y-85562812D01*
X171328456Y-85726784D01*
X171229853Y-85874354D01*
X171104354Y-85999853D01*
X170956784Y-86098456D01*
X170792812Y-86166376D01*
X170643512Y-86196073D01*
X170618742Y-86201000D01*
X170441258Y-86201000D01*
X170416488Y-86196073D01*
X170267188Y-86166376D01*
X170103216Y-86098456D01*
X169955646Y-85999853D01*
X169830147Y-85874354D01*
X169731544Y-85726784D01*
X169663624Y-85562812D01*
X169629000Y-85388741D01*
X169629000Y-85211259D01*
X169663624Y-85037188D01*
X169731544Y-84873216D01*
X169830147Y-84725646D01*
X169955646Y-84600147D01*
X170103216Y-84501544D01*
X170267188Y-84433624D01*
X170416488Y-84403927D01*
X170441258Y-84399000D01*
X170618742Y-84399000D01*
X170643512Y-84403927D01*
G37*
G36*
X168103512Y-84403927D02*
G01*
X168252812Y-84433624D01*
X168416784Y-84501544D01*
X168564354Y-84600147D01*
X168689853Y-84725646D01*
X168788456Y-84873216D01*
X168856376Y-85037188D01*
X168891000Y-85211259D01*
X168891000Y-85388741D01*
X168856376Y-85562812D01*
X168788456Y-85726784D01*
X168689853Y-85874354D01*
X168564354Y-85999853D01*
X168416784Y-86098456D01*
X168252812Y-86166376D01*
X168103512Y-86196073D01*
X168078742Y-86201000D01*
X167901258Y-86201000D01*
X167876488Y-86196073D01*
X167727188Y-86166376D01*
X167563216Y-86098456D01*
X167415646Y-85999853D01*
X167290147Y-85874354D01*
X167191544Y-85726784D01*
X167123624Y-85562812D01*
X167089000Y-85388741D01*
X167089000Y-85211259D01*
X167123624Y-85037188D01*
X167191544Y-84873216D01*
X167290147Y-84725646D01*
X167415646Y-84600147D01*
X167563216Y-84501544D01*
X167727188Y-84433624D01*
X167876488Y-84403927D01*
X167901258Y-84399000D01*
X168078742Y-84399000D01*
X168103512Y-84403927D01*
G37*
G36*
X166351000Y-86201000D02*
G01*
X164549000Y-86201000D01*
X164549000Y-84399000D01*
X166351000Y-84399000D01*
X166351000Y-86201000D01*
G37*
G36*
X175723512Y-84403927D02*
G01*
X175872812Y-84433624D01*
X176036784Y-84501544D01*
X176184354Y-84600147D01*
X176309853Y-84725646D01*
X176408456Y-84873216D01*
X176476376Y-85037188D01*
X176511000Y-85211259D01*
X176511000Y-85388741D01*
X176476376Y-85562812D01*
X176408456Y-85726784D01*
X176309853Y-85874354D01*
X176184354Y-85999853D01*
X176036784Y-86098456D01*
X175872812Y-86166376D01*
X175723512Y-86196073D01*
X175698742Y-86201000D01*
X175521258Y-86201000D01*
X175496488Y-86196073D01*
X175347188Y-86166376D01*
X175183216Y-86098456D01*
X175035646Y-85999853D01*
X174910147Y-85874354D01*
X174811544Y-85726784D01*
X174743624Y-85562812D01*
X174709000Y-85388741D01*
X174709000Y-85211259D01*
X174743624Y-85037188D01*
X174811544Y-84873216D01*
X174910147Y-84725646D01*
X175035646Y-84600147D01*
X175183216Y-84501544D01*
X175347188Y-84433624D01*
X175496488Y-84403927D01*
X175521258Y-84399000D01*
X175698742Y-84399000D01*
X175723512Y-84403927D01*
G37*
G36*
X173183512Y-84403927D02*
G01*
X173332812Y-84433624D01*
X173496784Y-84501544D01*
X173644354Y-84600147D01*
X173769853Y-84725646D01*
X173868456Y-84873216D01*
X173936376Y-85037188D01*
X173971000Y-85211259D01*
X173971000Y-85388741D01*
X173936376Y-85562812D01*
X173868456Y-85726784D01*
X173769853Y-85874354D01*
X173644354Y-85999853D01*
X173496784Y-86098456D01*
X173332812Y-86166376D01*
X173183512Y-86196073D01*
X173158742Y-86201000D01*
X172981258Y-86201000D01*
X172956488Y-86196073D01*
X172807188Y-86166376D01*
X172643216Y-86098456D01*
X172495646Y-85999853D01*
X172370147Y-85874354D01*
X172271544Y-85726784D01*
X172203624Y-85562812D01*
X172169000Y-85388741D01*
X172169000Y-85211259D01*
X172203624Y-85037188D01*
X172271544Y-84873216D01*
X172370147Y-84725646D01*
X172495646Y-84600147D01*
X172643216Y-84501544D01*
X172807188Y-84433624D01*
X172956488Y-84403927D01*
X172981258Y-84399000D01*
X173158742Y-84399000D01*
X173183512Y-84403927D01*
G37*
G36*
X185213512Y-84003927D02*
G01*
X185362812Y-84033624D01*
X185526784Y-84101544D01*
X185674354Y-84200147D01*
X185799853Y-84325646D01*
X185898456Y-84473216D01*
X185966376Y-84637188D01*
X186001000Y-84811259D01*
X186001000Y-84988741D01*
X185966376Y-85162812D01*
X185898456Y-85326784D01*
X185799853Y-85474354D01*
X185674354Y-85599853D01*
X185526784Y-85698456D01*
X185362812Y-85766376D01*
X185213512Y-85796073D01*
X185188742Y-85801000D01*
X185011258Y-85801000D01*
X184986488Y-85796073D01*
X184837188Y-85766376D01*
X184673216Y-85698456D01*
X184525646Y-85599853D01*
X184400147Y-85474354D01*
X184301544Y-85326784D01*
X184233624Y-85162812D01*
X184199000Y-84988741D01*
X184199000Y-84811259D01*
X184233624Y-84637188D01*
X184301544Y-84473216D01*
X184400147Y-84325646D01*
X184525646Y-84200147D01*
X184673216Y-84101544D01*
X184837188Y-84033624D01*
X184986488Y-84003927D01*
X185011258Y-83999000D01*
X185188742Y-83999000D01*
X185213512Y-84003927D01*
G37*
G36*
X182673512Y-84003927D02*
G01*
X182822812Y-84033624D01*
X182986784Y-84101544D01*
X183134354Y-84200147D01*
X183259853Y-84325646D01*
X183358456Y-84473216D01*
X183426376Y-84637188D01*
X183461000Y-84811259D01*
X183461000Y-84988741D01*
X183426376Y-85162812D01*
X183358456Y-85326784D01*
X183259853Y-85474354D01*
X183134354Y-85599853D01*
X182986784Y-85698456D01*
X182822812Y-85766376D01*
X182673512Y-85796073D01*
X182648742Y-85801000D01*
X182471258Y-85801000D01*
X182446488Y-85796073D01*
X182297188Y-85766376D01*
X182133216Y-85698456D01*
X181985646Y-85599853D01*
X181860147Y-85474354D01*
X181761544Y-85326784D01*
X181693624Y-85162812D01*
X181659000Y-84988741D01*
X181659000Y-84811259D01*
X181693624Y-84637188D01*
X181761544Y-84473216D01*
X181860147Y-84325646D01*
X181985646Y-84200147D01*
X182133216Y-84101544D01*
X182297188Y-84033624D01*
X182446488Y-84003927D01*
X182471258Y-83999000D01*
X182648742Y-83999000D01*
X182673512Y-84003927D01*
G37*
G36*
X180921000Y-85801000D02*
G01*
X179119000Y-85801000D01*
X179119000Y-83999000D01*
X180921000Y-83999000D01*
X180921000Y-85801000D01*
G37*
G36*
X144333512Y-49603927D02*
G01*
X144482812Y-49633624D01*
X144646784Y-49701544D01*
X144794354Y-49800147D01*
X144919853Y-49925646D01*
X144937472Y-49952014D01*
X144953014Y-49970953D01*
X144971957Y-49986498D01*
X144989014Y-49994565D01*
X144988912Y-49994756D01*
X144998723Y-50000000D01*
X145000000Y-50000000D01*
X145000000Y-50007678D01*
X145002402Y-50032064D01*
X145009515Y-50055513D01*
X145016657Y-50068874D01*
X145018455Y-50073214D01*
X145018456Y-50073216D01*
X145086376Y-50237188D01*
X145121000Y-50411259D01*
X145121000Y-50588741D01*
X145086376Y-50762812D01*
X145018456Y-50926784D01*
X145016658Y-50931124D01*
X145009515Y-50944486D01*
X145002402Y-50967935D01*
X145000000Y-50992322D01*
X145000000Y-53000000D01*
X122124999Y-53000000D01*
X122100613Y-53002402D01*
X122077164Y-53009515D01*
X122055553Y-53021066D01*
X122036611Y-53036611D01*
X122021066Y-53055553D01*
X122009515Y-53077164D01*
X122002402Y-53100613D01*
X122000000Y-53124999D01*
X122000000Y-85000000D01*
X119000000Y-85000000D01*
X119000000Y-50000000D01*
X143403653Y-50000000D01*
X143428039Y-49997598D01*
X143451488Y-49990485D01*
X143473099Y-49978934D01*
X143492041Y-49963389D01*
X143507578Y-49944456D01*
X143520147Y-49925646D01*
X143645646Y-49800147D01*
X143793216Y-49701544D01*
X143957188Y-49633624D01*
X144106488Y-49603927D01*
X144131258Y-49599000D01*
X144308742Y-49599000D01*
X144333512Y-49603927D01*
G37*
G36*
X163079591Y-82390585D02*
G01*
X163113569Y-82400893D01*
X163144890Y-82417634D01*
X163172339Y-82440161D01*
X163194866Y-82467610D01*
X163211607Y-82498931D01*
X163221915Y-82532909D01*
X163226000Y-82574390D01*
X163226000Y-83175610D01*
X163221915Y-83217091D01*
X163211607Y-83251069D01*
X163194866Y-83282390D01*
X163172339Y-83309839D01*
X163144890Y-83332366D01*
X163113569Y-83349107D01*
X163079591Y-83359415D01*
X163038110Y-83363500D01*
X162361890Y-83363500D01*
X162320409Y-83359415D01*
X162286431Y-83349107D01*
X162255110Y-83332366D01*
X162227661Y-83309839D01*
X162205134Y-83282390D01*
X162188393Y-83251069D01*
X162178085Y-83217091D01*
X162174000Y-83175610D01*
X162174000Y-82574390D01*
X162178085Y-82532909D01*
X162188393Y-82498931D01*
X162205134Y-82467610D01*
X162227661Y-82440161D01*
X162255110Y-82417634D01*
X162286431Y-82400893D01*
X162320409Y-82390585D01*
X162361890Y-82386500D01*
X163038110Y-82386500D01*
X163079591Y-82390585D01*
G37*
G36*
X163079591Y-80815585D02*
G01*
X163113569Y-80825893D01*
X163144890Y-80842634D01*
X163172339Y-80865161D01*
X163194866Y-80892610D01*
X163211607Y-80923931D01*
X163221915Y-80957909D01*
X163226000Y-80999390D01*
X163226000Y-81600610D01*
X163221915Y-81642091D01*
X163211607Y-81676069D01*
X163194866Y-81707390D01*
X163172339Y-81734839D01*
X163144890Y-81757366D01*
X163113569Y-81774107D01*
X163079591Y-81784415D01*
X163038110Y-81788500D01*
X162361890Y-81788500D01*
X162320409Y-81784415D01*
X162286431Y-81774107D01*
X162255110Y-81757366D01*
X162227661Y-81734839D01*
X162205134Y-81707390D01*
X162188393Y-81676069D01*
X162178085Y-81642091D01*
X162174000Y-81600610D01*
X162174000Y-80999390D01*
X162178085Y-80957909D01*
X162188393Y-80923931D01*
X162205134Y-80892610D01*
X162227661Y-80865161D01*
X162255110Y-80842634D01*
X162286431Y-80825893D01*
X162320409Y-80815585D01*
X162361890Y-80811500D01*
X163038110Y-80811500D01*
X163079591Y-80815585D01*
G37*
G36*
X140107430Y-75048977D02*
G01*
X140358684Y-75098955D01*
X140547101Y-75177000D01*
X140832034Y-75295023D01*
X140832035Y-75295024D01*
X141258041Y-75579671D01*
X141620329Y-75941959D01*
X141810524Y-76226607D01*
X141904977Y-76367966D01*
X142019831Y-76645248D01*
X142097348Y-76832390D01*
X142101045Y-76841317D01*
X142193278Y-77305000D01*
X142201000Y-77343824D01*
X142201000Y-77856176D01*
X142101045Y-78358684D01*
X142019831Y-78554752D01*
X141904977Y-78832034D01*
X141866234Y-78890017D01*
X141620329Y-79258041D01*
X141258041Y-79620329D01*
X141062477Y-79751000D01*
X140832034Y-79904977D01*
X140554752Y-80019831D01*
X140358684Y-80101045D01*
X140107430Y-80151022D01*
X139856177Y-80201000D01*
X139343823Y-80201000D01*
X139092570Y-80151022D01*
X138841316Y-80101045D01*
X138645248Y-80019831D01*
X138367966Y-79904977D01*
X138137523Y-79751000D01*
X137941959Y-79620329D01*
X137579671Y-79258041D01*
X137333766Y-78890017D01*
X137295023Y-78832034D01*
X137180169Y-78554752D01*
X137098955Y-78358684D01*
X136999000Y-77856176D01*
X136999000Y-77343824D01*
X137006723Y-77305000D01*
X137098955Y-76841317D01*
X137102653Y-76832390D01*
X137180169Y-76645248D01*
X137295023Y-76367966D01*
X137389476Y-76226607D01*
X137579671Y-75941959D01*
X137941959Y-75579671D01*
X138367965Y-75295024D01*
X138367966Y-75295023D01*
X138652899Y-75177000D01*
X138841316Y-75098955D01*
X139092570Y-75048977D01*
X139343823Y-74999000D01*
X139856177Y-74999000D01*
X140107430Y-75048977D01*
G37*
G36*
X192793000Y-78112383D02*
G01*
X192795402Y-78136769D01*
X192802515Y-78160218D01*
X192814066Y-78181829D01*
X192829611Y-78200771D01*
X192848551Y-78216314D01*
X192882481Y-78238985D01*
X193001015Y-78357519D01*
X193094147Y-78496900D01*
X193158297Y-78651772D01*
X193191000Y-78816184D01*
X193191000Y-78983816D01*
X193158297Y-79148228D01*
X193094147Y-79303100D01*
X193001015Y-79442481D01*
X192882481Y-79561015D01*
X192743100Y-79654147D01*
X192588228Y-79718297D01*
X192423816Y-79751000D01*
X192256184Y-79751000D01*
X192091772Y-79718297D01*
X191936900Y-79654147D01*
X191797519Y-79561015D01*
X191678985Y-79442481D01*
X191585853Y-79303100D01*
X191521703Y-79148228D01*
X191489000Y-78983816D01*
X191489000Y-78816184D01*
X191521703Y-78651772D01*
X191585853Y-78496900D01*
X191678985Y-78357519D01*
X191797519Y-78238985D01*
X191835447Y-78213642D01*
X191854388Y-78198098D01*
X191869934Y-78179156D01*
X191881485Y-78157545D01*
X191888598Y-78134096D01*
X191891000Y-78109710D01*
X191891000Y-77305000D01*
X192793000Y-77305000D01*
X192793000Y-78112383D01*
G37*
G36*
X190253000Y-77924001D02*
G01*
X190255402Y-77948387D01*
X190262515Y-77971836D01*
X190274066Y-77993447D01*
X190289611Y-78012389D01*
X190308553Y-78027934D01*
X190330164Y-78039485D01*
X190353613Y-78046598D01*
X190377999Y-78049000D01*
X190651000Y-78049000D01*
X190651000Y-79751000D01*
X188949000Y-79751000D01*
X188949000Y-78049000D01*
X189226001Y-78049000D01*
X189250387Y-78046598D01*
X189273836Y-78039485D01*
X189295447Y-78027934D01*
X189314389Y-78012389D01*
X189329934Y-77993447D01*
X189341485Y-77971836D01*
X189348598Y-77948387D01*
X189351000Y-77924001D01*
X189351000Y-77305000D01*
X190253000Y-77305000D01*
X190253000Y-77924001D01*
G37*
G36*
X195333000Y-78112383D02*
G01*
X195335402Y-78136769D01*
X195342515Y-78160218D01*
X195354066Y-78181829D01*
X195369611Y-78200771D01*
X195388551Y-78216314D01*
X195422481Y-78238985D01*
X195541015Y-78357519D01*
X195634147Y-78496900D01*
X195698297Y-78651772D01*
X195731000Y-78816184D01*
X195731000Y-78983816D01*
X195698297Y-79148228D01*
X195634147Y-79303100D01*
X195541015Y-79442481D01*
X195422481Y-79561015D01*
X195283100Y-79654147D01*
X195128228Y-79718297D01*
X194963816Y-79751000D01*
X194796184Y-79751000D01*
X194631772Y-79718297D01*
X194476900Y-79654147D01*
X194337519Y-79561015D01*
X194218985Y-79442481D01*
X194125853Y-79303100D01*
X194061703Y-79148228D01*
X194029000Y-78983816D01*
X194029000Y-78816184D01*
X194061703Y-78651772D01*
X194125853Y-78496900D01*
X194218985Y-78357519D01*
X194337519Y-78238985D01*
X194375447Y-78213642D01*
X194394388Y-78198098D01*
X194409934Y-78179156D01*
X194421485Y-78157545D01*
X194428598Y-78134096D01*
X194431000Y-78109710D01*
X194431000Y-77305000D01*
X195333000Y-77305000D01*
X195333000Y-78112383D01*
G37*
G36*
X197873000Y-78112383D02*
G01*
X197875402Y-78136769D01*
X197882515Y-78160218D01*
X197894066Y-78181829D01*
X197909611Y-78200771D01*
X197928551Y-78216314D01*
X197962481Y-78238985D01*
X198081015Y-78357519D01*
X198174147Y-78496900D01*
X198238297Y-78651772D01*
X198271000Y-78816184D01*
X198271000Y-78983816D01*
X198238297Y-79148228D01*
X198174147Y-79303100D01*
X198081015Y-79442481D01*
X197962481Y-79561015D01*
X197823100Y-79654147D01*
X197668228Y-79718297D01*
X197503816Y-79751000D01*
X197336184Y-79751000D01*
X197171772Y-79718297D01*
X197016900Y-79654147D01*
X196877519Y-79561015D01*
X196758985Y-79442481D01*
X196665853Y-79303100D01*
X196601703Y-79148228D01*
X196569000Y-78983816D01*
X196569000Y-78816184D01*
X196601703Y-78651772D01*
X196665853Y-78496900D01*
X196758985Y-78357519D01*
X196877519Y-78238985D01*
X196915447Y-78213642D01*
X196934388Y-78198098D01*
X196949934Y-78179156D01*
X196961485Y-78157545D01*
X196968598Y-78134096D01*
X196971000Y-78109710D01*
X196971000Y-77305000D01*
X197873000Y-77305000D01*
X197873000Y-78112383D01*
G37*
G36*
X173246968Y-77453565D02*
G01*
X173285638Y-77465296D01*
X173321277Y-77484346D01*
X173352517Y-77509983D01*
X173378154Y-77541223D01*
X173397204Y-77576862D01*
X173408935Y-77615532D01*
X173413500Y-77661888D01*
X173413500Y-78738112D01*
X173408935Y-78784468D01*
X173397204Y-78823138D01*
X173378154Y-78858777D01*
X173352517Y-78890017D01*
X173321277Y-78915654D01*
X173285638Y-78934704D01*
X173246968Y-78946435D01*
X173200612Y-78951000D01*
X172549388Y-78951000D01*
X172503032Y-78946435D01*
X172464362Y-78934704D01*
X172428723Y-78915654D01*
X172397483Y-78890017D01*
X172371846Y-78858777D01*
X172352796Y-78823138D01*
X172341065Y-78784468D01*
X172336500Y-78738112D01*
X172336500Y-77661888D01*
X172341065Y-77615532D01*
X172352796Y-77576862D01*
X172371846Y-77541223D01*
X172397483Y-77509983D01*
X172428723Y-77484346D01*
X172464362Y-77465296D01*
X172503032Y-77453565D01*
X172549388Y-77449000D01*
X173200612Y-77449000D01*
X173246968Y-77453565D01*
G37*
G36*
X171371968Y-77453565D02*
G01*
X171410638Y-77465296D01*
X171446277Y-77484346D01*
X171477517Y-77509983D01*
X171503154Y-77541223D01*
X171522204Y-77576862D01*
X171533935Y-77615532D01*
X171538500Y-77661888D01*
X171538500Y-78738112D01*
X171533935Y-78784468D01*
X171522204Y-78823138D01*
X171503154Y-78858777D01*
X171477517Y-78890017D01*
X171446277Y-78915654D01*
X171410638Y-78934704D01*
X171371968Y-78946435D01*
X171325612Y-78951000D01*
X170674388Y-78951000D01*
X170628032Y-78946435D01*
X170589362Y-78934704D01*
X170553723Y-78915654D01*
X170522483Y-78890017D01*
X170496846Y-78858777D01*
X170477796Y-78823138D01*
X170466065Y-78784468D01*
X170461500Y-78738112D01*
X170461500Y-77661888D01*
X170466065Y-77615532D01*
X170477796Y-77576862D01*
X170496846Y-77541223D01*
X170522483Y-77509983D01*
X170553723Y-77484346D01*
X170589362Y-77465296D01*
X170628032Y-77453565D01*
X170674388Y-77449000D01*
X171325612Y-77449000D01*
X171371968Y-77453565D01*
G37*
G36*
X167817591Y-77662085D02*
G01*
X167851569Y-77672393D01*
X167882890Y-77689134D01*
X167910339Y-77711661D01*
X167932866Y-77739110D01*
X167949607Y-77770431D01*
X167959915Y-77804409D01*
X167964000Y-77845890D01*
X167964000Y-78522110D01*
X167959915Y-78563591D01*
X167949607Y-78597569D01*
X167932866Y-78628890D01*
X167910339Y-78656339D01*
X167882890Y-78678866D01*
X167851569Y-78695607D01*
X167817591Y-78705915D01*
X167776110Y-78710000D01*
X167174890Y-78710000D01*
X167133409Y-78705915D01*
X167099431Y-78695607D01*
X167068110Y-78678866D01*
X167040661Y-78656339D01*
X167018134Y-78628890D01*
X167001393Y-78597569D01*
X166991085Y-78563591D01*
X166987000Y-78522110D01*
X166987000Y-77845890D01*
X166991085Y-77804409D01*
X167001393Y-77770431D01*
X167018134Y-77739110D01*
X167040661Y-77711661D01*
X167068110Y-77689134D01*
X167099431Y-77672393D01*
X167133409Y-77662085D01*
X167174890Y-77658000D01*
X167776110Y-77658000D01*
X167817591Y-77662085D01*
G37*
G36*
X166242591Y-77662085D02*
G01*
X166276569Y-77672393D01*
X166307890Y-77689134D01*
X166335339Y-77711661D01*
X166357866Y-77739110D01*
X166374607Y-77770431D01*
X166384915Y-77804409D01*
X166389000Y-77845890D01*
X166389000Y-78522110D01*
X166384915Y-78563591D01*
X166374607Y-78597569D01*
X166357866Y-78628890D01*
X166335339Y-78656339D01*
X166307890Y-78678866D01*
X166276569Y-78695607D01*
X166242591Y-78705915D01*
X166201110Y-78710000D01*
X165599890Y-78710000D01*
X165558409Y-78705915D01*
X165524431Y-78695607D01*
X165493110Y-78678866D01*
X165465661Y-78656339D01*
X165443134Y-78628890D01*
X165426393Y-78597569D01*
X165416085Y-78563591D01*
X165412000Y-78522110D01*
X165412000Y-77845890D01*
X165416085Y-77804409D01*
X165426393Y-77770431D01*
X165443134Y-77739110D01*
X165465661Y-77711661D01*
X165493110Y-77689134D01*
X165524431Y-77672393D01*
X165558409Y-77662085D01*
X165599890Y-77658000D01*
X166201110Y-77658000D01*
X166242591Y-77662085D01*
G37*
G36*
X161779591Y-77515585D02*
G01*
X161813569Y-77525893D01*
X161844890Y-77542634D01*
X161872339Y-77565161D01*
X161894866Y-77592610D01*
X161911607Y-77623931D01*
X161921915Y-77657909D01*
X161926000Y-77699390D01*
X161926000Y-78300610D01*
X161921915Y-78342091D01*
X161911607Y-78376069D01*
X161894866Y-78407390D01*
X161872339Y-78434839D01*
X161844890Y-78457366D01*
X161813569Y-78474107D01*
X161779591Y-78484415D01*
X161738110Y-78488500D01*
X161061890Y-78488500D01*
X161020409Y-78484415D01*
X160986431Y-78474107D01*
X160955110Y-78457366D01*
X160927661Y-78434839D01*
X160905134Y-78407390D01*
X160888393Y-78376069D01*
X160878085Y-78342091D01*
X160874000Y-78300610D01*
X160874000Y-77699390D01*
X160878085Y-77657909D01*
X160888393Y-77623931D01*
X160905134Y-77592610D01*
X160927661Y-77565161D01*
X160955110Y-77542634D01*
X160986431Y-77525893D01*
X161020409Y-77515585D01*
X161061890Y-77511500D01*
X161738110Y-77511500D01*
X161779591Y-77515585D01*
G37*
G36*
X176834468Y-77253565D02*
G01*
X176873138Y-77265296D01*
X176908777Y-77284346D01*
X176940017Y-77309983D01*
X176965654Y-77341223D01*
X176984704Y-77376862D01*
X176996435Y-77415532D01*
X177001000Y-77461888D01*
X177001000Y-78113112D01*
X176996435Y-78159468D01*
X176984704Y-78198138D01*
X176965654Y-78233777D01*
X176940017Y-78265017D01*
X176908777Y-78290654D01*
X176873138Y-78309704D01*
X176834468Y-78321435D01*
X176788112Y-78326000D01*
X175711888Y-78326000D01*
X175665532Y-78321435D01*
X175626862Y-78309704D01*
X175591223Y-78290654D01*
X175559983Y-78265017D01*
X175534346Y-78233777D01*
X175515296Y-78198138D01*
X175503565Y-78159468D01*
X175499000Y-78113112D01*
X175499000Y-77461888D01*
X175503565Y-77415532D01*
X175515296Y-77376862D01*
X175534346Y-77341223D01*
X175559983Y-77309983D01*
X175591223Y-77284346D01*
X175626862Y-77265296D01*
X175665532Y-77253565D01*
X175711888Y-77249000D01*
X176788112Y-77249000D01*
X176834468Y-77253565D01*
G37*
G36*
X161779591Y-75940585D02*
G01*
X161813569Y-75950893D01*
X161844890Y-75967634D01*
X161872339Y-75990161D01*
X161894866Y-76017610D01*
X161911607Y-76048931D01*
X161921915Y-76082909D01*
X161926000Y-76124390D01*
X161926000Y-76725610D01*
X161921915Y-76767091D01*
X161911607Y-76801069D01*
X161894866Y-76832390D01*
X161872339Y-76859839D01*
X161844890Y-76882366D01*
X161813569Y-76899107D01*
X161779591Y-76909415D01*
X161738110Y-76913500D01*
X161061890Y-76913500D01*
X161020409Y-76909415D01*
X160986431Y-76899107D01*
X160955110Y-76882366D01*
X160927661Y-76859839D01*
X160905134Y-76832390D01*
X160888393Y-76801069D01*
X160878085Y-76767091D01*
X160874000Y-76725610D01*
X160874000Y-76124390D01*
X160878085Y-76082909D01*
X160888393Y-76048931D01*
X160905134Y-76017610D01*
X160927661Y-75990161D01*
X160955110Y-75967634D01*
X160986431Y-75950893D01*
X161020409Y-75940585D01*
X161061890Y-75936500D01*
X161738110Y-75936500D01*
X161779591Y-75940585D01*
G37*
G36*
X176834468Y-75378565D02*
G01*
X176873138Y-75390296D01*
X176908777Y-75409346D01*
X176940017Y-75434983D01*
X176965654Y-75466223D01*
X176984704Y-75501862D01*
X176996435Y-75540532D01*
X177001000Y-75586888D01*
X177001000Y-76238112D01*
X176996435Y-76284468D01*
X176984704Y-76323138D01*
X176965654Y-76358777D01*
X176940017Y-76390017D01*
X176908777Y-76415654D01*
X176873138Y-76434704D01*
X176834468Y-76446435D01*
X176788112Y-76451000D01*
X175711888Y-76451000D01*
X175665532Y-76446435D01*
X175626862Y-76434704D01*
X175591223Y-76415654D01*
X175559983Y-76390017D01*
X175534346Y-76358777D01*
X175515296Y-76323138D01*
X175503565Y-76284468D01*
X175499000Y-76238112D01*
X175499000Y-75586888D01*
X175503565Y-75540532D01*
X175515296Y-75501862D01*
X175534346Y-75466223D01*
X175559983Y-75434983D01*
X175591223Y-75409346D01*
X175626862Y-75390296D01*
X175665532Y-75378565D01*
X175711888Y-75374000D01*
X176788112Y-75374000D01*
X176834468Y-75378565D01*
G37*
G36*
X167078500Y-75827000D02*
G01*
X165501500Y-75827000D01*
X165501500Y-66825000D01*
X167078500Y-66825000D01*
X167078500Y-75827000D01*
G37*
G36*
X172954500Y-75827000D02*
G01*
X171377500Y-75827000D01*
X171377500Y-66825000D01*
X172954500Y-66825000D01*
X172954500Y-75827000D01*
G37*
G36*
X134328571Y-73652863D02*
G01*
X134407023Y-73660590D01*
X134507682Y-73691125D01*
X134558013Y-73706392D01*
X134697165Y-73780771D01*
X134819133Y-73880867D01*
X134919229Y-74002835D01*
X134993608Y-74141987D01*
X134993608Y-74141988D01*
X135039410Y-74292977D01*
X135054875Y-74450000D01*
X135039410Y-74607023D01*
X135019871Y-74671435D01*
X134993608Y-74758013D01*
X134919229Y-74897165D01*
X134819133Y-75019133D01*
X134697165Y-75119229D01*
X134558013Y-75193608D01*
X134507682Y-75208875D01*
X134407023Y-75239410D01*
X134328571Y-75247137D01*
X134289346Y-75251000D01*
X132910654Y-75251000D01*
X132871429Y-75247137D01*
X132792977Y-75239410D01*
X132692318Y-75208875D01*
X132641987Y-75193608D01*
X132502835Y-75119229D01*
X132380867Y-75019133D01*
X132280771Y-74897165D01*
X132206392Y-74758013D01*
X132180129Y-74671435D01*
X132160590Y-74607023D01*
X132145125Y-74450000D01*
X132160590Y-74292977D01*
X132206392Y-74141988D01*
X132206392Y-74141987D01*
X132280771Y-74002835D01*
X132380867Y-73880867D01*
X132502835Y-73780771D01*
X132641987Y-73706392D01*
X132692318Y-73691125D01*
X132792977Y-73660590D01*
X132871429Y-73652863D01*
X132910654Y-73649000D01*
X134289346Y-73649000D01*
X134328571Y-73652863D01*
G37*
G36*
X163684468Y-73603565D02*
G01*
X163723138Y-73615296D01*
X163758777Y-73634346D01*
X163790017Y-73659983D01*
X163815654Y-73691223D01*
X163834704Y-73726862D01*
X163846435Y-73765532D01*
X163851000Y-73811888D01*
X163851000Y-74463112D01*
X163846435Y-74509468D01*
X163834704Y-74548138D01*
X163815654Y-74583777D01*
X163790017Y-74615017D01*
X163758777Y-74640654D01*
X163723138Y-74659704D01*
X163684468Y-74671435D01*
X163638112Y-74676000D01*
X162561888Y-74676000D01*
X162515532Y-74671435D01*
X162476862Y-74659704D01*
X162441223Y-74640654D01*
X162409983Y-74615017D01*
X162384346Y-74583777D01*
X162365296Y-74548138D01*
X162353565Y-74509468D01*
X162349000Y-74463112D01*
X162349000Y-73811888D01*
X162353565Y-73765532D01*
X162365296Y-73726862D01*
X162384346Y-73691223D01*
X162409983Y-73659983D01*
X162441223Y-73634346D01*
X162476862Y-73615296D01*
X162515532Y-73603565D01*
X162561888Y-73599000D01*
X163638112Y-73599000D01*
X163684468Y-73603565D01*
G37*
G36*
X197389618Y-73631965D02*
G01*
X197422433Y-73641919D01*
X197452665Y-73658079D01*
X197479170Y-73679830D01*
X197500921Y-73706335D01*
X197517081Y-73736567D01*
X197527035Y-73769382D01*
X197531000Y-73809640D01*
X197531000Y-74398360D01*
X197527035Y-74438618D01*
X197517081Y-74471433D01*
X197500921Y-74501665D01*
X197479170Y-74528170D01*
X197452665Y-74549921D01*
X197422433Y-74566081D01*
X197389618Y-74576035D01*
X197349360Y-74580000D01*
X196385640Y-74580000D01*
X196345382Y-74576035D01*
X196312567Y-74566081D01*
X196282335Y-74549921D01*
X196255830Y-74528170D01*
X196234079Y-74501665D01*
X196217919Y-74471433D01*
X196207965Y-74438618D01*
X196204000Y-74398360D01*
X196204000Y-73809640D01*
X196207965Y-73769382D01*
X196217919Y-73736567D01*
X196234079Y-73706335D01*
X196255830Y-73679830D01*
X196282335Y-73658079D01*
X196312567Y-73641919D01*
X196345382Y-73631965D01*
X196385640Y-73628000D01*
X197349360Y-73628000D01*
X197389618Y-73631965D01*
G37*
G36*
X199014618Y-73631965D02*
G01*
X199047433Y-73641919D01*
X199077665Y-73658079D01*
X199104170Y-73679830D01*
X199125921Y-73706335D01*
X199142081Y-73736567D01*
X199152035Y-73769382D01*
X199156000Y-73809640D01*
X199156000Y-74398360D01*
X199152035Y-74438618D01*
X199142081Y-74471433D01*
X199125921Y-74501665D01*
X199104170Y-74528170D01*
X199077665Y-74549921D01*
X199047433Y-74566081D01*
X199014618Y-74576035D01*
X198974360Y-74580000D01*
X198010640Y-74580000D01*
X197970382Y-74576035D01*
X197937567Y-74566081D01*
X197907335Y-74549921D01*
X197880830Y-74528170D01*
X197859079Y-74501665D01*
X197842919Y-74471433D01*
X197832965Y-74438618D01*
X197829000Y-74398360D01*
X197829000Y-73809640D01*
X197832965Y-73769382D01*
X197842919Y-73736567D01*
X197859079Y-73706335D01*
X197880830Y-73679830D01*
X197907335Y-73658079D01*
X197937567Y-73641919D01*
X197970382Y-73631965D01*
X198010640Y-73628000D01*
X198974360Y-73628000D01*
X199014618Y-73631965D01*
G37*
G36*
X155742091Y-73478085D02*
G01*
X155776069Y-73488393D01*
X155807390Y-73505134D01*
X155834839Y-73527661D01*
X155857366Y-73555110D01*
X155874107Y-73586431D01*
X155884415Y-73620409D01*
X155888500Y-73661890D01*
X155888500Y-74338110D01*
X155884415Y-74379591D01*
X155874107Y-74413569D01*
X155857366Y-74444890D01*
X155834839Y-74472339D01*
X155807390Y-74494866D01*
X155776069Y-74511607D01*
X155742091Y-74521915D01*
X155700610Y-74526000D01*
X155099390Y-74526000D01*
X155057909Y-74521915D01*
X155023931Y-74511607D01*
X154992610Y-74494866D01*
X154965161Y-74472339D01*
X154942634Y-74444890D01*
X154925893Y-74413569D01*
X154915585Y-74379591D01*
X154911500Y-74338110D01*
X154911500Y-73661890D01*
X154915585Y-73620409D01*
X154925893Y-73586431D01*
X154942634Y-73555110D01*
X154965161Y-73527661D01*
X154992610Y-73505134D01*
X155023931Y-73488393D01*
X155057909Y-73478085D01*
X155099390Y-73474000D01*
X155700610Y-73474000D01*
X155742091Y-73478085D01*
G37*
G36*
X157317091Y-73478085D02*
G01*
X157351069Y-73488393D01*
X157382390Y-73505134D01*
X157409839Y-73527661D01*
X157432366Y-73555110D01*
X157449107Y-73586431D01*
X157459415Y-73620409D01*
X157463500Y-73661890D01*
X157463500Y-74338110D01*
X157459415Y-74379591D01*
X157449107Y-74413569D01*
X157432366Y-74444890D01*
X157409839Y-74472339D01*
X157382390Y-74494866D01*
X157351069Y-74511607D01*
X157317091Y-74521915D01*
X157275610Y-74526000D01*
X156674390Y-74526000D01*
X156632909Y-74521915D01*
X156598931Y-74511607D01*
X156567610Y-74494866D01*
X156540161Y-74472339D01*
X156517634Y-74444890D01*
X156500893Y-74413569D01*
X156490585Y-74379591D01*
X156486500Y-74338110D01*
X156486500Y-73661890D01*
X156490585Y-73620409D01*
X156500893Y-73586431D01*
X156517634Y-73555110D01*
X156540161Y-73527661D01*
X156567610Y-73505134D01*
X156598931Y-73488393D01*
X156632909Y-73478085D01*
X156674390Y-73474000D01*
X157275610Y-73474000D01*
X157317091Y-73478085D01*
G37*
G36*
X170779000Y-73877000D02*
G01*
X167677000Y-73877000D01*
X167677000Y-68775000D01*
X170779000Y-68775000D01*
X170779000Y-73877000D01*
G37*
G36*
X178817091Y-72332085D02*
G01*
X178851069Y-72342393D01*
X178882390Y-72359134D01*
X178909839Y-72381661D01*
X178932366Y-72409110D01*
X178949107Y-72440431D01*
X178959415Y-72474409D01*
X178963500Y-72515890D01*
X178963500Y-73192110D01*
X178959415Y-73233591D01*
X178949107Y-73267569D01*
X178932366Y-73298890D01*
X178909839Y-73326339D01*
X178882390Y-73348866D01*
X178851069Y-73365607D01*
X178817091Y-73375915D01*
X178775610Y-73380000D01*
X178174390Y-73380000D01*
X178132909Y-73375915D01*
X178098931Y-73365607D01*
X178067610Y-73348866D01*
X178040161Y-73326339D01*
X178017634Y-73298890D01*
X178000893Y-73267569D01*
X177990585Y-73233591D01*
X177986500Y-73192110D01*
X177986500Y-72515890D01*
X177990585Y-72474409D01*
X178000893Y-72440431D01*
X178017634Y-72409110D01*
X178040161Y-72381661D01*
X178067610Y-72359134D01*
X178098931Y-72342393D01*
X178132909Y-72332085D01*
X178174390Y-72328000D01*
X178775610Y-72328000D01*
X178817091Y-72332085D01*
G37*
G36*
X177242091Y-72332085D02*
G01*
X177276069Y-72342393D01*
X177307390Y-72359134D01*
X177334839Y-72381661D01*
X177357366Y-72409110D01*
X177374107Y-72440431D01*
X177384415Y-72474409D01*
X177388500Y-72515890D01*
X177388500Y-73192110D01*
X177384415Y-73233591D01*
X177374107Y-73267569D01*
X177357366Y-73298890D01*
X177334839Y-73326339D01*
X177307390Y-73348866D01*
X177276069Y-73365607D01*
X177242091Y-73375915D01*
X177200610Y-73380000D01*
X176599390Y-73380000D01*
X176557909Y-73375915D01*
X176523931Y-73365607D01*
X176492610Y-73348866D01*
X176465161Y-73326339D01*
X176442634Y-73298890D01*
X176425893Y-73267569D01*
X176415585Y-73233591D01*
X176411500Y-73192110D01*
X176411500Y-72515890D01*
X176415585Y-72474409D01*
X176425893Y-72440431D01*
X176442634Y-72409110D01*
X176465161Y-72381661D01*
X176492610Y-72359134D01*
X176523931Y-72342393D01*
X176557909Y-72332085D01*
X176599390Y-72328000D01*
X177200610Y-72328000D01*
X177242091Y-72332085D01*
G37*
G36*
X159367091Y-71878085D02*
G01*
X159401069Y-71888393D01*
X159432390Y-71905134D01*
X159459839Y-71927661D01*
X159482366Y-71955110D01*
X159499107Y-71986431D01*
X159509415Y-72020409D01*
X159513500Y-72061890D01*
X159513500Y-72738110D01*
X159509415Y-72779591D01*
X159499107Y-72813569D01*
X159482366Y-72844890D01*
X159459839Y-72872339D01*
X159432390Y-72894866D01*
X159401069Y-72911607D01*
X159367091Y-72921915D01*
X159325610Y-72926000D01*
X158724390Y-72926000D01*
X158682909Y-72921915D01*
X158648931Y-72911607D01*
X158617610Y-72894866D01*
X158590161Y-72872339D01*
X158567634Y-72844890D01*
X158550893Y-72813569D01*
X158540585Y-72779591D01*
X158536500Y-72738110D01*
X158536500Y-72061890D01*
X158540585Y-72020409D01*
X158550893Y-71986431D01*
X158567634Y-71955110D01*
X158590161Y-71927661D01*
X158617610Y-71905134D01*
X158648931Y-71888393D01*
X158682909Y-71878085D01*
X158724390Y-71874000D01*
X159325610Y-71874000D01*
X159367091Y-71878085D01*
G37*
G36*
X160942091Y-71878085D02*
G01*
X160976069Y-71888393D01*
X161007390Y-71905134D01*
X161034839Y-71927661D01*
X161057366Y-71955110D01*
X161074107Y-71986431D01*
X161084415Y-72020409D01*
X161088500Y-72061890D01*
X161088500Y-72738110D01*
X161084415Y-72779591D01*
X161074107Y-72813569D01*
X161057366Y-72844890D01*
X161034839Y-72872339D01*
X161007390Y-72894866D01*
X160976069Y-72911607D01*
X160942091Y-72921915D01*
X160900610Y-72926000D01*
X160299390Y-72926000D01*
X160257909Y-72921915D01*
X160223931Y-72911607D01*
X160192610Y-72894866D01*
X160165161Y-72872339D01*
X160142634Y-72844890D01*
X160125893Y-72813569D01*
X160115585Y-72779591D01*
X160111500Y-72738110D01*
X160111500Y-72061890D01*
X160115585Y-72020409D01*
X160125893Y-71986431D01*
X160142634Y-71955110D01*
X160165161Y-71927661D01*
X160192610Y-71905134D01*
X160223931Y-71888393D01*
X160257909Y-71878085D01*
X160299390Y-71874000D01*
X160900610Y-71874000D01*
X160942091Y-71878085D01*
G37*
G36*
X163684468Y-71728565D02*
G01*
X163723138Y-71740296D01*
X163758777Y-71759346D01*
X163790017Y-71784983D01*
X163815654Y-71816223D01*
X163834704Y-71851862D01*
X163846435Y-71890532D01*
X163851000Y-71936888D01*
X163851000Y-72588112D01*
X163846435Y-72634468D01*
X163834704Y-72673138D01*
X163815654Y-72708777D01*
X163790017Y-72740017D01*
X163758777Y-72765654D01*
X163723138Y-72784704D01*
X163684468Y-72796435D01*
X163638112Y-72801000D01*
X162561888Y-72801000D01*
X162515532Y-72796435D01*
X162476862Y-72784704D01*
X162441223Y-72765654D01*
X162409983Y-72740017D01*
X162384346Y-72708777D01*
X162365296Y-72673138D01*
X162353565Y-72634468D01*
X162349000Y-72588112D01*
X162349000Y-71936888D01*
X162353565Y-71890532D01*
X162365296Y-71851862D01*
X162384346Y-71816223D01*
X162409983Y-71784983D01*
X162441223Y-71759346D01*
X162476862Y-71740296D01*
X162515532Y-71728565D01*
X162561888Y-71724000D01*
X163638112Y-71724000D01*
X163684468Y-71728565D01*
G37*
G36*
X198989118Y-70583965D02*
G01*
X199021933Y-70593919D01*
X199052165Y-70610079D01*
X199078670Y-70631830D01*
X199100421Y-70658335D01*
X199116581Y-70688567D01*
X199126535Y-70721382D01*
X199130500Y-70761640D01*
X199130500Y-71350360D01*
X199126535Y-71390618D01*
X199116581Y-71423433D01*
X199100421Y-71453665D01*
X199078670Y-71480170D01*
X199052165Y-71501921D01*
X199021933Y-71518081D01*
X198989118Y-71528035D01*
X198948860Y-71532000D01*
X197985140Y-71532000D01*
X197944882Y-71528035D01*
X197912067Y-71518081D01*
X197881835Y-71501921D01*
X197855330Y-71480170D01*
X197833579Y-71453665D01*
X197817419Y-71423433D01*
X197807465Y-71390618D01*
X197803500Y-71350360D01*
X197803500Y-70761640D01*
X197807465Y-70721382D01*
X197817419Y-70688567D01*
X197833579Y-70658335D01*
X197855330Y-70631830D01*
X197881835Y-70610079D01*
X197912067Y-70593919D01*
X197944882Y-70583965D01*
X197985140Y-70580000D01*
X198948860Y-70580000D01*
X198989118Y-70583965D01*
G37*
G36*
X197364118Y-70583965D02*
G01*
X197396933Y-70593919D01*
X197427165Y-70610079D01*
X197453670Y-70631830D01*
X197475421Y-70658335D01*
X197491581Y-70688567D01*
X197501535Y-70721382D01*
X197505500Y-70761640D01*
X197505500Y-71350360D01*
X197501535Y-71390618D01*
X197491581Y-71423433D01*
X197475421Y-71453665D01*
X197453670Y-71480170D01*
X197427165Y-71501921D01*
X197396933Y-71518081D01*
X197364118Y-71528035D01*
X197323860Y-71532000D01*
X196360140Y-71532000D01*
X196319882Y-71528035D01*
X196287067Y-71518081D01*
X196256835Y-71501921D01*
X196230330Y-71480170D01*
X196208579Y-71453665D01*
X196192419Y-71423433D01*
X196182465Y-71390618D01*
X196178500Y-71350360D01*
X196178500Y-70761640D01*
X196182465Y-70721382D01*
X196192419Y-70688567D01*
X196208579Y-70658335D01*
X196230330Y-70631830D01*
X196256835Y-70610079D01*
X196287067Y-70593919D01*
X196319882Y-70583965D01*
X196360140Y-70580000D01*
X197323860Y-70580000D01*
X197364118Y-70583965D01*
G37*
G36*
X134328571Y-69752863D02*
G01*
X134407023Y-69760590D01*
X134489595Y-69785638D01*
X134558013Y-69806392D01*
X134697165Y-69880771D01*
X134819133Y-69980867D01*
X134919229Y-70102835D01*
X134993608Y-70241987D01*
X134993608Y-70241988D01*
X135039410Y-70392977D01*
X135054875Y-70550000D01*
X135039410Y-70707023D01*
X135033374Y-70726921D01*
X134993608Y-70858013D01*
X134919229Y-70997165D01*
X134819133Y-71119133D01*
X134697165Y-71219229D01*
X134558013Y-71293608D01*
X134507682Y-71308875D01*
X134407023Y-71339410D01*
X134328571Y-71347137D01*
X134289346Y-71351000D01*
X132910654Y-71351000D01*
X132871429Y-71347137D01*
X132792977Y-71339410D01*
X132692318Y-71308875D01*
X132641987Y-71293608D01*
X132502835Y-71219229D01*
X132380867Y-71119133D01*
X132280771Y-70997165D01*
X132206392Y-70858013D01*
X132166626Y-70726921D01*
X132160590Y-70707023D01*
X132145125Y-70550000D01*
X132160590Y-70392977D01*
X132206392Y-70241988D01*
X132206392Y-70241987D01*
X132280771Y-70102835D01*
X132380867Y-69980867D01*
X132502835Y-69880771D01*
X132641987Y-69806392D01*
X132710405Y-69785638D01*
X132792977Y-69760590D01*
X132871429Y-69752863D01*
X132910654Y-69749000D01*
X134289346Y-69749000D01*
X134328571Y-69752863D01*
G37*
G36*
X178768091Y-69478085D02*
G01*
X178802069Y-69488393D01*
X178833390Y-69505134D01*
X178860839Y-69527661D01*
X178883366Y-69555110D01*
X178900107Y-69586431D01*
X178910415Y-69620409D01*
X178914500Y-69661890D01*
X178914500Y-70338110D01*
X178910415Y-70379591D01*
X178900107Y-70413569D01*
X178883366Y-70444890D01*
X178860839Y-70472339D01*
X178833390Y-70494866D01*
X178802069Y-70511607D01*
X178768091Y-70521915D01*
X178726610Y-70526000D01*
X178125390Y-70526000D01*
X178083909Y-70521915D01*
X178049931Y-70511607D01*
X178018610Y-70494866D01*
X177991161Y-70472339D01*
X177968634Y-70444890D01*
X177951893Y-70413569D01*
X177941585Y-70379591D01*
X177937500Y-70338110D01*
X177937500Y-69661890D01*
X177941585Y-69620409D01*
X177951893Y-69586431D01*
X177968634Y-69555110D01*
X177991161Y-69527661D01*
X178018610Y-69505134D01*
X178049931Y-69488393D01*
X178083909Y-69478085D01*
X178125390Y-69474000D01*
X178726610Y-69474000D01*
X178768091Y-69478085D01*
G37*
G36*
X177193091Y-69478085D02*
G01*
X177227069Y-69488393D01*
X177258390Y-69505134D01*
X177285839Y-69527661D01*
X177308366Y-69555110D01*
X177325107Y-69586431D01*
X177335415Y-69620409D01*
X177339500Y-69661890D01*
X177339500Y-70338110D01*
X177335415Y-70379591D01*
X177325107Y-70413569D01*
X177308366Y-70444890D01*
X177285839Y-70472339D01*
X177258390Y-70494866D01*
X177227069Y-70511607D01*
X177193091Y-70521915D01*
X177151610Y-70526000D01*
X176550390Y-70526000D01*
X176508909Y-70521915D01*
X176474931Y-70511607D01*
X176443610Y-70494866D01*
X176416161Y-70472339D01*
X176393634Y-70444890D01*
X176376893Y-70413569D01*
X176366585Y-70379591D01*
X176362500Y-70338110D01*
X176362500Y-69661890D01*
X176366585Y-69620409D01*
X176376893Y-69586431D01*
X176393634Y-69555110D01*
X176416161Y-69527661D01*
X176443610Y-69505134D01*
X176474931Y-69488393D01*
X176508909Y-69478085D01*
X176550390Y-69474000D01*
X177151610Y-69474000D01*
X177193091Y-69478085D01*
G37*
G36*
X139982448Y-64824117D02*
G01*
X140358684Y-64898955D01*
X140488969Y-64952921D01*
X140832034Y-65095023D01*
X140832035Y-65095024D01*
X141258041Y-65379671D01*
X141620329Y-65741959D01*
X141631047Y-65758000D01*
X141904977Y-66167966D01*
X142101045Y-66641317D01*
X142201000Y-67143823D01*
X142201000Y-67656177D01*
X142178508Y-67769250D01*
X142127239Y-68027000D01*
X142101045Y-68158683D01*
X141904977Y-68632034D01*
X141810524Y-68773393D01*
X141620329Y-69058041D01*
X141258041Y-69420329D01*
X141070650Y-69545539D01*
X140832034Y-69704977D01*
X140587196Y-69806392D01*
X140358684Y-69901045D01*
X140107430Y-69951023D01*
X139856177Y-70001000D01*
X139343823Y-70001000D01*
X139092570Y-69951023D01*
X138841316Y-69901045D01*
X138612804Y-69806392D01*
X138367966Y-69704977D01*
X138129350Y-69545539D01*
X137941959Y-69420329D01*
X137579671Y-69058041D01*
X137389476Y-68773393D01*
X137295023Y-68632034D01*
X137098955Y-68158683D01*
X137072762Y-68027000D01*
X137021492Y-67769250D01*
X136999000Y-67656177D01*
X136999000Y-67143823D01*
X137098955Y-66641317D01*
X137295023Y-66167966D01*
X137568953Y-65758000D01*
X137579671Y-65741959D01*
X137941959Y-65379671D01*
X138367965Y-65095024D01*
X138367966Y-65095023D01*
X138711031Y-64952921D01*
X138841316Y-64898955D01*
X139217552Y-64824117D01*
X139343823Y-64799000D01*
X139856177Y-64799000D01*
X139982448Y-64824117D01*
G37*
G36*
X188029591Y-68878085D02*
G01*
X188063569Y-68888393D01*
X188094890Y-68905134D01*
X188122339Y-68927661D01*
X188144866Y-68955110D01*
X188161607Y-68986431D01*
X188171915Y-69020409D01*
X188176000Y-69061890D01*
X188176000Y-69738110D01*
X188171915Y-69779591D01*
X188161607Y-69813569D01*
X188144866Y-69844890D01*
X188122339Y-69872339D01*
X188094890Y-69894866D01*
X188063569Y-69911607D01*
X188029591Y-69921915D01*
X187988110Y-69926000D01*
X187386890Y-69926000D01*
X187345409Y-69921915D01*
X187311431Y-69911607D01*
X187280110Y-69894866D01*
X187252661Y-69872339D01*
X187230134Y-69844890D01*
X187213393Y-69813569D01*
X187203085Y-69779591D01*
X187199000Y-69738110D01*
X187199000Y-69061890D01*
X187203085Y-69020409D01*
X187213393Y-68986431D01*
X187230134Y-68955110D01*
X187252661Y-68927661D01*
X187280110Y-68905134D01*
X187311431Y-68888393D01*
X187345409Y-68878085D01*
X187386890Y-68874000D01*
X187988110Y-68874000D01*
X188029591Y-68878085D01*
G37*
G36*
X186454591Y-68878085D02*
G01*
X186488569Y-68888393D01*
X186519890Y-68905134D01*
X186547339Y-68927661D01*
X186569866Y-68955110D01*
X186586607Y-68986431D01*
X186596915Y-69020409D01*
X186601000Y-69061890D01*
X186601000Y-69738110D01*
X186596915Y-69779591D01*
X186586607Y-69813569D01*
X186569866Y-69844890D01*
X186547339Y-69872339D01*
X186519890Y-69894866D01*
X186488569Y-69911607D01*
X186454591Y-69921915D01*
X186413110Y-69926000D01*
X185811890Y-69926000D01*
X185770409Y-69921915D01*
X185736431Y-69911607D01*
X185705110Y-69894866D01*
X185677661Y-69872339D01*
X185655134Y-69844890D01*
X185638393Y-69813569D01*
X185628085Y-69779591D01*
X185624000Y-69738110D01*
X185624000Y-69061890D01*
X185628085Y-69020409D01*
X185638393Y-68986431D01*
X185655134Y-68955110D01*
X185677661Y-68927661D01*
X185705110Y-68905134D01*
X185736431Y-68888393D01*
X185770409Y-68878085D01*
X185811890Y-68874000D01*
X186413110Y-68874000D01*
X186454591Y-68878085D01*
G37*
G36*
X163684468Y-68841065D02*
G01*
X163723138Y-68852796D01*
X163758777Y-68871846D01*
X163790017Y-68897483D01*
X163815654Y-68928723D01*
X163834704Y-68964362D01*
X163846435Y-69003032D01*
X163851000Y-69049388D01*
X163851000Y-69700612D01*
X163846435Y-69746968D01*
X163834704Y-69785638D01*
X163815654Y-69821277D01*
X163790017Y-69852517D01*
X163758777Y-69878154D01*
X163723138Y-69897204D01*
X163684468Y-69908935D01*
X163638112Y-69913500D01*
X162561888Y-69913500D01*
X162515532Y-69908935D01*
X162476862Y-69897204D01*
X162441223Y-69878154D01*
X162409983Y-69852517D01*
X162384346Y-69821277D01*
X162365296Y-69785638D01*
X162353565Y-69746968D01*
X162349000Y-69700612D01*
X162349000Y-69049388D01*
X162353565Y-69003032D01*
X162365296Y-68964362D01*
X162384346Y-68928723D01*
X162409983Y-68897483D01*
X162441223Y-68871846D01*
X162476862Y-68852796D01*
X162515532Y-68841065D01*
X162561888Y-68836500D01*
X163638112Y-68836500D01*
X163684468Y-68841065D01*
G37*
G36*
X163684468Y-66966065D02*
G01*
X163723138Y-66977796D01*
X163758777Y-66996846D01*
X163790017Y-67022483D01*
X163815654Y-67053723D01*
X163834704Y-67089362D01*
X163846435Y-67128032D01*
X163851000Y-67174388D01*
X163851000Y-67825612D01*
X163846435Y-67871968D01*
X163834704Y-67910638D01*
X163815654Y-67946277D01*
X163790017Y-67977517D01*
X163758777Y-68003154D01*
X163723138Y-68022204D01*
X163684468Y-68033935D01*
X163638112Y-68038500D01*
X162561888Y-68038500D01*
X162515532Y-68033935D01*
X162476862Y-68022204D01*
X162441223Y-68003154D01*
X162409983Y-67977517D01*
X162384346Y-67946277D01*
X162365296Y-67910638D01*
X162353565Y-67871968D01*
X162349000Y-67825612D01*
X162349000Y-67174388D01*
X162353565Y-67128032D01*
X162365296Y-67089362D01*
X162384346Y-67053723D01*
X162409983Y-67022483D01*
X162441223Y-66996846D01*
X162476862Y-66977796D01*
X162515532Y-66966065D01*
X162561888Y-66961500D01*
X163638112Y-66961500D01*
X163684468Y-66966065D01*
G37*
G36*
X194551000Y-67901000D02*
G01*
X193549000Y-67901000D01*
X193549000Y-66899000D01*
X194551000Y-66899000D01*
X194551000Y-67901000D01*
G37*
G36*
X191551000Y-67901000D02*
G01*
X190549000Y-67901000D01*
X190549000Y-66899000D01*
X191551000Y-66899000D01*
X191551000Y-67901000D01*
G37*
G36*
X177193091Y-66728085D02*
G01*
X177227069Y-66738393D01*
X177258390Y-66755134D01*
X177285839Y-66777661D01*
X177308366Y-66805110D01*
X177325107Y-66836431D01*
X177335415Y-66870409D01*
X177339500Y-66911890D01*
X177339500Y-67588110D01*
X177335415Y-67629591D01*
X177325107Y-67663569D01*
X177308366Y-67694890D01*
X177285839Y-67722339D01*
X177258390Y-67744866D01*
X177227069Y-67761607D01*
X177193091Y-67771915D01*
X177151610Y-67776000D01*
X176550390Y-67776000D01*
X176508909Y-67771915D01*
X176474931Y-67761607D01*
X176443610Y-67744866D01*
X176416161Y-67722339D01*
X176393634Y-67694890D01*
X176376893Y-67663569D01*
X176366585Y-67629591D01*
X176362500Y-67588110D01*
X176362500Y-66911890D01*
X176366585Y-66870409D01*
X176376893Y-66836431D01*
X176393634Y-66805110D01*
X176416161Y-66777661D01*
X176443610Y-66755134D01*
X176474931Y-66738393D01*
X176508909Y-66728085D01*
X176550390Y-66724000D01*
X177151610Y-66724000D01*
X177193091Y-66728085D01*
G37*
G36*
X178768091Y-66728085D02*
G01*
X178802069Y-66738393D01*
X178833390Y-66755134D01*
X178860839Y-66777661D01*
X178883366Y-66805110D01*
X178900107Y-66836431D01*
X178910415Y-66870409D01*
X178914500Y-66911890D01*
X178914500Y-67588110D01*
X178910415Y-67629591D01*
X178900107Y-67663569D01*
X178883366Y-67694890D01*
X178860839Y-67722339D01*
X178833390Y-67744866D01*
X178802069Y-67761607D01*
X178768091Y-67771915D01*
X178726610Y-67776000D01*
X178125390Y-67776000D01*
X178083909Y-67771915D01*
X178049931Y-67761607D01*
X178018610Y-67744866D01*
X177991161Y-67722339D01*
X177968634Y-67694890D01*
X177951893Y-67663569D01*
X177941585Y-67629591D01*
X177937500Y-67588110D01*
X177937500Y-66911890D01*
X177941585Y-66870409D01*
X177951893Y-66836431D01*
X177968634Y-66805110D01*
X177991161Y-66777661D01*
X178018610Y-66755134D01*
X178049931Y-66738393D01*
X178083909Y-66728085D01*
X178125390Y-66724000D01*
X178726610Y-66724000D01*
X178768091Y-66728085D01*
G37*
G36*
X194551000Y-66561000D02*
G01*
X193549000Y-66561000D01*
X193549000Y-65559000D01*
X194551000Y-65559000D01*
X194551000Y-66561000D01*
G37*
G36*
X191551000Y-66561000D02*
G01*
X190549000Y-66561000D01*
X190549000Y-65559000D01*
X191551000Y-65559000D01*
X191551000Y-66561000D01*
G37*
G36*
X198989118Y-64809965D02*
G01*
X199021933Y-64819919D01*
X199052165Y-64836079D01*
X199078670Y-64857830D01*
X199100421Y-64884335D01*
X199116581Y-64914567D01*
X199126535Y-64947382D01*
X199130500Y-64987640D01*
X199130500Y-65576360D01*
X199126535Y-65616618D01*
X199116581Y-65649433D01*
X199100421Y-65679665D01*
X199078670Y-65706170D01*
X199052165Y-65727921D01*
X199021933Y-65744081D01*
X198989118Y-65754035D01*
X198948860Y-65758000D01*
X197985140Y-65758000D01*
X197944882Y-65754035D01*
X197912067Y-65744081D01*
X197881835Y-65727921D01*
X197855330Y-65706170D01*
X197833579Y-65679665D01*
X197817419Y-65649433D01*
X197807465Y-65616618D01*
X197803500Y-65576360D01*
X197803500Y-64987640D01*
X197807465Y-64947382D01*
X197817419Y-64914567D01*
X197833579Y-64884335D01*
X197855330Y-64857830D01*
X197881835Y-64836079D01*
X197912067Y-64819919D01*
X197944882Y-64809965D01*
X197985140Y-64806000D01*
X198948860Y-64806000D01*
X198989118Y-64809965D01*
G37*
G36*
X197364118Y-64809965D02*
G01*
X197396933Y-64819919D01*
X197427165Y-64836079D01*
X197453670Y-64857830D01*
X197475421Y-64884335D01*
X197491581Y-64914567D01*
X197501535Y-64947382D01*
X197505500Y-64987640D01*
X197505500Y-65576360D01*
X197501535Y-65616618D01*
X197491581Y-65649433D01*
X197475421Y-65679665D01*
X197453670Y-65706170D01*
X197427165Y-65727921D01*
X197396933Y-65744081D01*
X197364118Y-65754035D01*
X197323860Y-65758000D01*
X196360140Y-65758000D01*
X196319882Y-65754035D01*
X196287067Y-65744081D01*
X196256835Y-65727921D01*
X196230330Y-65706170D01*
X196208579Y-65679665D01*
X196192419Y-65649433D01*
X196182465Y-65616618D01*
X196178500Y-65576360D01*
X196178500Y-64987640D01*
X196182465Y-64947382D01*
X196192419Y-64914567D01*
X196208579Y-64884335D01*
X196230330Y-64857830D01*
X196256835Y-64836079D01*
X196287067Y-64819919D01*
X196319882Y-64809965D01*
X196360140Y-64806000D01*
X197323860Y-64806000D01*
X197364118Y-64809965D01*
G37*
G36*
X191551000Y-65241000D02*
G01*
X190549000Y-65241000D01*
X190549000Y-64239000D01*
X191551000Y-64239000D01*
X191551000Y-65241000D01*
G37*
G36*
X194551000Y-65241000D02*
G01*
X193549000Y-65241000D01*
X193549000Y-64239000D01*
X194551000Y-64239000D01*
X194551000Y-65241000D01*
G37*
G36*
X169434468Y-63253565D02*
G01*
X169473138Y-63265296D01*
X169508777Y-63284346D01*
X169540017Y-63309983D01*
X169565654Y-63341223D01*
X169584704Y-63376862D01*
X169596435Y-63415532D01*
X169601000Y-63461888D01*
X169601000Y-64538112D01*
X169596435Y-64584468D01*
X169584704Y-64623138D01*
X169565654Y-64658777D01*
X169540017Y-64690017D01*
X169508777Y-64715654D01*
X169473138Y-64734704D01*
X169434468Y-64746435D01*
X169388112Y-64751000D01*
X168736888Y-64751000D01*
X168690532Y-64746435D01*
X168651862Y-64734704D01*
X168616223Y-64715654D01*
X168584983Y-64690017D01*
X168559346Y-64658777D01*
X168540296Y-64623138D01*
X168528565Y-64584468D01*
X168524000Y-64538112D01*
X168524000Y-63461888D01*
X168528565Y-63415532D01*
X168540296Y-63376862D01*
X168559346Y-63341223D01*
X168584983Y-63309983D01*
X168616223Y-63284346D01*
X168651862Y-63265296D01*
X168690532Y-63253565D01*
X168736888Y-63249000D01*
X169388112Y-63249000D01*
X169434468Y-63253565D01*
G37*
G36*
X171309468Y-63253565D02*
G01*
X171348138Y-63265296D01*
X171383777Y-63284346D01*
X171415017Y-63309983D01*
X171440654Y-63341223D01*
X171459704Y-63376862D01*
X171471435Y-63415532D01*
X171476000Y-63461888D01*
X171476000Y-64538112D01*
X171471435Y-64584468D01*
X171459704Y-64623138D01*
X171440654Y-64658777D01*
X171415017Y-64690017D01*
X171383777Y-64715654D01*
X171348138Y-64734704D01*
X171309468Y-64746435D01*
X171263112Y-64751000D01*
X170611888Y-64751000D01*
X170565532Y-64746435D01*
X170526862Y-64734704D01*
X170491223Y-64715654D01*
X170459983Y-64690017D01*
X170434346Y-64658777D01*
X170415296Y-64623138D01*
X170403565Y-64584468D01*
X170399000Y-64538112D01*
X170399000Y-63461888D01*
X170403565Y-63415532D01*
X170415296Y-63376862D01*
X170434346Y-63341223D01*
X170459983Y-63309983D01*
X170491223Y-63284346D01*
X170526862Y-63265296D01*
X170565532Y-63253565D01*
X170611888Y-63249000D01*
X171263112Y-63249000D01*
X171309468Y-63253565D01*
G37*
G36*
X161779591Y-63403085D02*
G01*
X161813569Y-63413393D01*
X161844890Y-63430134D01*
X161872339Y-63452661D01*
X161894866Y-63480110D01*
X161911607Y-63511431D01*
X161921915Y-63545409D01*
X161926000Y-63586890D01*
X161926000Y-64188110D01*
X161921915Y-64229591D01*
X161911607Y-64263569D01*
X161894866Y-64294890D01*
X161872339Y-64322339D01*
X161844890Y-64344866D01*
X161813569Y-64361607D01*
X161779591Y-64371915D01*
X161738110Y-64376000D01*
X161061890Y-64376000D01*
X161020409Y-64371915D01*
X160986431Y-64361607D01*
X160955110Y-64344866D01*
X160927661Y-64322339D01*
X160905134Y-64294890D01*
X160888393Y-64263569D01*
X160878085Y-64229591D01*
X160874000Y-64188110D01*
X160874000Y-63586890D01*
X160878085Y-63545409D01*
X160888393Y-63511431D01*
X160905134Y-63480110D01*
X160927661Y-63452661D01*
X160955110Y-63430134D01*
X160986431Y-63413393D01*
X161020409Y-63403085D01*
X161061890Y-63399000D01*
X161738110Y-63399000D01*
X161779591Y-63403085D01*
G37*
G36*
X166417091Y-63278085D02*
G01*
X166451069Y-63288393D01*
X166482390Y-63305134D01*
X166509839Y-63327661D01*
X166532366Y-63355110D01*
X166549107Y-63386431D01*
X166559415Y-63420409D01*
X166563500Y-63461890D01*
X166563500Y-64138110D01*
X166559415Y-64179591D01*
X166549107Y-64213569D01*
X166532366Y-64244890D01*
X166509839Y-64272339D01*
X166482390Y-64294866D01*
X166451069Y-64311607D01*
X166417091Y-64321915D01*
X166375610Y-64326000D01*
X165774390Y-64326000D01*
X165732909Y-64321915D01*
X165698931Y-64311607D01*
X165667610Y-64294866D01*
X165640161Y-64272339D01*
X165617634Y-64244890D01*
X165600893Y-64213569D01*
X165590585Y-64179591D01*
X165586500Y-64138110D01*
X165586500Y-63461890D01*
X165590585Y-63420409D01*
X165600893Y-63386431D01*
X165617634Y-63355110D01*
X165640161Y-63327661D01*
X165667610Y-63305134D01*
X165698931Y-63288393D01*
X165732909Y-63278085D01*
X165774390Y-63274000D01*
X166375610Y-63274000D01*
X166417091Y-63278085D01*
G37*
G36*
X164842091Y-63278085D02*
G01*
X164876069Y-63288393D01*
X164907390Y-63305134D01*
X164934839Y-63327661D01*
X164957366Y-63355110D01*
X164974107Y-63386431D01*
X164984415Y-63420409D01*
X164988500Y-63461890D01*
X164988500Y-64138110D01*
X164984415Y-64179591D01*
X164974107Y-64213569D01*
X164957366Y-64244890D01*
X164934839Y-64272339D01*
X164907390Y-64294866D01*
X164876069Y-64311607D01*
X164842091Y-64321915D01*
X164800610Y-64326000D01*
X164199390Y-64326000D01*
X164157909Y-64321915D01*
X164123931Y-64311607D01*
X164092610Y-64294866D01*
X164065161Y-64272339D01*
X164042634Y-64244890D01*
X164025893Y-64213569D01*
X164015585Y-64179591D01*
X164011500Y-64138110D01*
X164011500Y-63461890D01*
X164015585Y-63420409D01*
X164025893Y-63386431D01*
X164042634Y-63355110D01*
X164065161Y-63327661D01*
X164092610Y-63305134D01*
X164123931Y-63288393D01*
X164157909Y-63278085D01*
X164199390Y-63274000D01*
X164800610Y-63274000D01*
X164842091Y-63278085D01*
G37*
G36*
X191551000Y-63901000D02*
G01*
X190549000Y-63901000D01*
X190549000Y-62899000D01*
X191551000Y-62899000D01*
X191551000Y-63901000D01*
G37*
G36*
X194551000Y-63901000D02*
G01*
X193549000Y-63901000D01*
X193549000Y-62899000D01*
X194551000Y-62899000D01*
X194551000Y-63901000D01*
G37*
G36*
X177334468Y-62803565D02*
G01*
X177373138Y-62815296D01*
X177408777Y-62834346D01*
X177440017Y-62859983D01*
X177465654Y-62891223D01*
X177484704Y-62926862D01*
X177496435Y-62965532D01*
X177501000Y-63011888D01*
X177501000Y-63663112D01*
X177496435Y-63709468D01*
X177484704Y-63748138D01*
X177465654Y-63783777D01*
X177440017Y-63815017D01*
X177408777Y-63840654D01*
X177373138Y-63859704D01*
X177334468Y-63871435D01*
X177288112Y-63876000D01*
X176211888Y-63876000D01*
X176165532Y-63871435D01*
X176126862Y-63859704D01*
X176091223Y-63840654D01*
X176059983Y-63815017D01*
X176034346Y-63783777D01*
X176015296Y-63748138D01*
X176003565Y-63709468D01*
X175999000Y-63663112D01*
X175999000Y-63011888D01*
X176003565Y-62965532D01*
X176015296Y-62926862D01*
X176034346Y-62891223D01*
X176059983Y-62859983D01*
X176091223Y-62834346D01*
X176126862Y-62815296D01*
X176165532Y-62803565D01*
X176211888Y-62799000D01*
X177288112Y-62799000D01*
X177334468Y-62803565D01*
G37*
G36*
X140107430Y-57648977D02*
G01*
X140358684Y-57698955D01*
X140464199Y-57742661D01*
X140832034Y-57895023D01*
X140973393Y-57989476D01*
X141258041Y-58179671D01*
X141620329Y-58541959D01*
X141750594Y-58736915D01*
X141904977Y-58967966D01*
X141987457Y-59167091D01*
X142035206Y-59282366D01*
X142101045Y-59441317D01*
X142194571Y-59911500D01*
X142201000Y-59943824D01*
X142201000Y-60456176D01*
X142101045Y-60958684D01*
X142034950Y-61118250D01*
X141904977Y-61432034D01*
X141904976Y-61432035D01*
X141620329Y-61858041D01*
X141258041Y-62220329D01*
X141069309Y-62346435D01*
X140832034Y-62504977D01*
X140599168Y-62601433D01*
X140358684Y-62701045D01*
X140215827Y-62729461D01*
X139856177Y-62801000D01*
X139343823Y-62801000D01*
X138984173Y-62729461D01*
X138841316Y-62701045D01*
X138600832Y-62601433D01*
X138367966Y-62504977D01*
X138130691Y-62346435D01*
X137941959Y-62220329D01*
X137579671Y-61858041D01*
X137295024Y-61432035D01*
X137295023Y-61432034D01*
X137165050Y-61118250D01*
X137098955Y-60958684D01*
X136999000Y-60456176D01*
X136999000Y-59943824D01*
X137005430Y-59911500D01*
X137098955Y-59441317D01*
X137164795Y-59282366D01*
X137212543Y-59167091D01*
X137295023Y-58967966D01*
X137449406Y-58736915D01*
X137579671Y-58541959D01*
X137941959Y-58179671D01*
X138226607Y-57989476D01*
X138367966Y-57895023D01*
X138735801Y-57742661D01*
X138841316Y-57698955D01*
X139092570Y-57648977D01*
X139343823Y-57599000D01*
X139856177Y-57599000D01*
X140107430Y-57648977D01*
G37*
G36*
X161779591Y-61828085D02*
G01*
X161813569Y-61838393D01*
X161844890Y-61855134D01*
X161872339Y-61877661D01*
X161894866Y-61905110D01*
X161911607Y-61936431D01*
X161921915Y-61970409D01*
X161926000Y-62011890D01*
X161926000Y-62613110D01*
X161921915Y-62654591D01*
X161911607Y-62688569D01*
X161894866Y-62719890D01*
X161872339Y-62747339D01*
X161844890Y-62769866D01*
X161813569Y-62786607D01*
X161779591Y-62796915D01*
X161738110Y-62801000D01*
X161061890Y-62801000D01*
X161020409Y-62796915D01*
X160986431Y-62786607D01*
X160955110Y-62769866D01*
X160927661Y-62747339D01*
X160905134Y-62719890D01*
X160888393Y-62688569D01*
X160878085Y-62654591D01*
X160874000Y-62613110D01*
X160874000Y-62011890D01*
X160878085Y-61970409D01*
X160888393Y-61936431D01*
X160905134Y-61905110D01*
X160927661Y-61877661D01*
X160955110Y-61855134D01*
X160986431Y-61838393D01*
X161020409Y-61828085D01*
X161061890Y-61824000D01*
X161738110Y-61824000D01*
X161779591Y-61828085D01*
G37*
G36*
X198989118Y-61761965D02*
G01*
X199021933Y-61771919D01*
X199052165Y-61788079D01*
X199078670Y-61809830D01*
X199100421Y-61836335D01*
X199116581Y-61866567D01*
X199126535Y-61899382D01*
X199130500Y-61939640D01*
X199130500Y-62528360D01*
X199126535Y-62568618D01*
X199116581Y-62601433D01*
X199100421Y-62631665D01*
X199078670Y-62658170D01*
X199052165Y-62679921D01*
X199021933Y-62696081D01*
X198989118Y-62706035D01*
X198948860Y-62710000D01*
X197985140Y-62710000D01*
X197944882Y-62706035D01*
X197912067Y-62696081D01*
X197881835Y-62679921D01*
X197855330Y-62658170D01*
X197833579Y-62631665D01*
X197817419Y-62601433D01*
X197807465Y-62568618D01*
X197803500Y-62528360D01*
X197803500Y-61939640D01*
X197807465Y-61899382D01*
X197817419Y-61866567D01*
X197833579Y-61836335D01*
X197855330Y-61809830D01*
X197881835Y-61788079D01*
X197912067Y-61771919D01*
X197944882Y-61761965D01*
X197985140Y-61758000D01*
X198948860Y-61758000D01*
X198989118Y-61761965D01*
G37*
G36*
X197364118Y-61761965D02*
G01*
X197396933Y-61771919D01*
X197427165Y-61788079D01*
X197453670Y-61809830D01*
X197475421Y-61836335D01*
X197491581Y-61866567D01*
X197501535Y-61899382D01*
X197505500Y-61939640D01*
X197505500Y-62528360D01*
X197501535Y-62568618D01*
X197491581Y-62601433D01*
X197475421Y-62631665D01*
X197453670Y-62658170D01*
X197427165Y-62679921D01*
X197396933Y-62696081D01*
X197364118Y-62706035D01*
X197323860Y-62710000D01*
X196360140Y-62710000D01*
X196319882Y-62706035D01*
X196287067Y-62696081D01*
X196256835Y-62679921D01*
X196230330Y-62658170D01*
X196208579Y-62631665D01*
X196192419Y-62601433D01*
X196182465Y-62568618D01*
X196178500Y-62528360D01*
X196178500Y-61939640D01*
X196182465Y-61899382D01*
X196192419Y-61866567D01*
X196208579Y-61836335D01*
X196230330Y-61809830D01*
X196256835Y-61788079D01*
X196287067Y-61771919D01*
X196319882Y-61761965D01*
X196360140Y-61758000D01*
X197323860Y-61758000D01*
X197364118Y-61761965D01*
G37*
G36*
X182834468Y-60853565D02*
G01*
X182873138Y-60865296D01*
X182908777Y-60884346D01*
X182940017Y-60909983D01*
X182965654Y-60941223D01*
X182984704Y-60976862D01*
X182996435Y-61015532D01*
X183001000Y-61061888D01*
X183001000Y-62138112D01*
X182996435Y-62184468D01*
X182984704Y-62223138D01*
X182965654Y-62258777D01*
X182940017Y-62290017D01*
X182908777Y-62315654D01*
X182873138Y-62334704D01*
X182834468Y-62346435D01*
X182788112Y-62351000D01*
X182136888Y-62351000D01*
X182090532Y-62346435D01*
X182051862Y-62334704D01*
X182016223Y-62315654D01*
X181984983Y-62290017D01*
X181959346Y-62258777D01*
X181940296Y-62223138D01*
X181928565Y-62184468D01*
X181924000Y-62138112D01*
X181924000Y-61061888D01*
X181928565Y-61015532D01*
X181940296Y-60976862D01*
X181959346Y-60941223D01*
X181984983Y-60909983D01*
X182016223Y-60884346D01*
X182051862Y-60865296D01*
X182090532Y-60853565D01*
X182136888Y-60849000D01*
X182788112Y-60849000D01*
X182834468Y-60853565D01*
G37*
G36*
X184709468Y-60853565D02*
G01*
X184748138Y-60865296D01*
X184783777Y-60884346D01*
X184815017Y-60909983D01*
X184840654Y-60941223D01*
X184859704Y-60976862D01*
X184871435Y-61015532D01*
X184876000Y-61061888D01*
X184876000Y-62138112D01*
X184871435Y-62184468D01*
X184859704Y-62223138D01*
X184840654Y-62258777D01*
X184815017Y-62290017D01*
X184783777Y-62315654D01*
X184748138Y-62334704D01*
X184709468Y-62346435D01*
X184663112Y-62351000D01*
X184011888Y-62351000D01*
X183965532Y-62346435D01*
X183926862Y-62334704D01*
X183891223Y-62315654D01*
X183859983Y-62290017D01*
X183834346Y-62258777D01*
X183815296Y-62223138D01*
X183803565Y-62184468D01*
X183799000Y-62138112D01*
X183799000Y-61061888D01*
X183803565Y-61015532D01*
X183815296Y-60976862D01*
X183834346Y-60941223D01*
X183859983Y-60909983D01*
X183891223Y-60884346D01*
X183926862Y-60865296D01*
X183965532Y-60853565D01*
X184011888Y-60849000D01*
X184663112Y-60849000D01*
X184709468Y-60853565D01*
G37*
G36*
X177334468Y-60928565D02*
G01*
X177373138Y-60940296D01*
X177408777Y-60959346D01*
X177440017Y-60984983D01*
X177465654Y-61016223D01*
X177484704Y-61051862D01*
X177496435Y-61090532D01*
X177501000Y-61136888D01*
X177501000Y-61788112D01*
X177496435Y-61834468D01*
X177484704Y-61873138D01*
X177465654Y-61908777D01*
X177440017Y-61940017D01*
X177408777Y-61965654D01*
X177373138Y-61984704D01*
X177334468Y-61996435D01*
X177288112Y-62001000D01*
X176211888Y-62001000D01*
X176165532Y-61996435D01*
X176126862Y-61984704D01*
X176091223Y-61965654D01*
X176059983Y-61940017D01*
X176034346Y-61908777D01*
X176015296Y-61873138D01*
X176003565Y-61834468D01*
X175999000Y-61788112D01*
X175999000Y-61136888D01*
X176003565Y-61090532D01*
X176015296Y-61051862D01*
X176034346Y-61016223D01*
X176059983Y-60984983D01*
X176091223Y-60959346D01*
X176126862Y-60940296D01*
X176165532Y-60928565D01*
X176211888Y-60924000D01*
X177288112Y-60924000D01*
X177334468Y-60928565D01*
G37*
G36*
X172954500Y-61349000D02*
G01*
X171377500Y-61349000D01*
X171377500Y-52347000D01*
X172954500Y-52347000D01*
X172954500Y-61349000D01*
G37*
G36*
X167078500Y-61349000D02*
G01*
X165501500Y-61349000D01*
X165501500Y-52347000D01*
X167078500Y-52347000D01*
X167078500Y-61349000D01*
G37*
G36*
X160379591Y-59915585D02*
G01*
X160413569Y-59925893D01*
X160444890Y-59942634D01*
X160472339Y-59965161D01*
X160494866Y-59992610D01*
X160511607Y-60023931D01*
X160521915Y-60057909D01*
X160526000Y-60099390D01*
X160526000Y-60700610D01*
X160521915Y-60742091D01*
X160511607Y-60776069D01*
X160494866Y-60807390D01*
X160472339Y-60834839D01*
X160444890Y-60857366D01*
X160413569Y-60874107D01*
X160379591Y-60884415D01*
X160338110Y-60888500D01*
X159661890Y-60888500D01*
X159620409Y-60884415D01*
X159586431Y-60874107D01*
X159555110Y-60857366D01*
X159527661Y-60834839D01*
X159505134Y-60807390D01*
X159488393Y-60776069D01*
X159478085Y-60742091D01*
X159474000Y-60700610D01*
X159474000Y-60099390D01*
X159478085Y-60057909D01*
X159488393Y-60023931D01*
X159505134Y-59992610D01*
X159527661Y-59965161D01*
X159555110Y-59942634D01*
X159586431Y-59925893D01*
X159620409Y-59915585D01*
X159661890Y-59911500D01*
X160338110Y-59911500D01*
X160379591Y-59915585D01*
G37*
G36*
X163584468Y-59141065D02*
G01*
X163623138Y-59152796D01*
X163658777Y-59171846D01*
X163690017Y-59197483D01*
X163715654Y-59228723D01*
X163734704Y-59264362D01*
X163746435Y-59303032D01*
X163751000Y-59349388D01*
X163751000Y-60000612D01*
X163746435Y-60046968D01*
X163734704Y-60085638D01*
X163715654Y-60121277D01*
X163690017Y-60152517D01*
X163658777Y-60178154D01*
X163623138Y-60197204D01*
X163584468Y-60208935D01*
X163538112Y-60213500D01*
X162461888Y-60213500D01*
X162415532Y-60208935D01*
X162376862Y-60197204D01*
X162341223Y-60178154D01*
X162309983Y-60152517D01*
X162284346Y-60121277D01*
X162265296Y-60085638D01*
X162253565Y-60046968D01*
X162249000Y-60000612D01*
X162249000Y-59349388D01*
X162253565Y-59303032D01*
X162265296Y-59264362D01*
X162284346Y-59228723D01*
X162309983Y-59197483D01*
X162341223Y-59171846D01*
X162376862Y-59152796D01*
X162415532Y-59141065D01*
X162461888Y-59136500D01*
X163538112Y-59136500D01*
X163584468Y-59141065D01*
G37*
G36*
X170779000Y-59399000D02*
G01*
X167677000Y-59399000D01*
X167677000Y-54297000D01*
X170779000Y-54297000D01*
X170779000Y-59399000D01*
G37*
G36*
X160379591Y-58340585D02*
G01*
X160413569Y-58350893D01*
X160444890Y-58367634D01*
X160472339Y-58390161D01*
X160494866Y-58417610D01*
X160511607Y-58448931D01*
X160521915Y-58482909D01*
X160526000Y-58524390D01*
X160526000Y-59125610D01*
X160521915Y-59167091D01*
X160511607Y-59201069D01*
X160494866Y-59232390D01*
X160472339Y-59259839D01*
X160444890Y-59282366D01*
X160413569Y-59299107D01*
X160379591Y-59309415D01*
X160338110Y-59313500D01*
X159661890Y-59313500D01*
X159620409Y-59309415D01*
X159586431Y-59299107D01*
X159555110Y-59282366D01*
X159527661Y-59259839D01*
X159505134Y-59232390D01*
X159488393Y-59201069D01*
X159478085Y-59167091D01*
X159474000Y-59125610D01*
X159474000Y-58524390D01*
X159478085Y-58482909D01*
X159488393Y-58448931D01*
X159505134Y-58417610D01*
X159527661Y-58390161D01*
X159555110Y-58367634D01*
X159586431Y-58350893D01*
X159620409Y-58340585D01*
X159661890Y-58336500D01*
X160338110Y-58336500D01*
X160379591Y-58340585D01*
G37*
G36*
X191851000Y-59201000D02*
G01*
X189749000Y-59201000D01*
X189749000Y-57599000D01*
X191851000Y-57599000D01*
X191851000Y-59201000D01*
G37*
G36*
X178568091Y-57693085D02*
G01*
X178602069Y-57703393D01*
X178633390Y-57720134D01*
X178660839Y-57742661D01*
X178683366Y-57770110D01*
X178700107Y-57801431D01*
X178710415Y-57835409D01*
X178714500Y-57876890D01*
X178714500Y-58553110D01*
X178710415Y-58594591D01*
X178700107Y-58628569D01*
X178683366Y-58659890D01*
X178660839Y-58687339D01*
X178633390Y-58709866D01*
X178602069Y-58726607D01*
X178568091Y-58736915D01*
X178526610Y-58741000D01*
X177925390Y-58741000D01*
X177883909Y-58736915D01*
X177849931Y-58726607D01*
X177818610Y-58709866D01*
X177791161Y-58687339D01*
X177768634Y-58659890D01*
X177751893Y-58628569D01*
X177741585Y-58594591D01*
X177737500Y-58553110D01*
X177737500Y-57876890D01*
X177741585Y-57835409D01*
X177751893Y-57801431D01*
X177768634Y-57770110D01*
X177791161Y-57742661D01*
X177818610Y-57720134D01*
X177849931Y-57703393D01*
X177883909Y-57693085D01*
X177925390Y-57689000D01*
X178526610Y-57689000D01*
X178568091Y-57693085D01*
G37*
G36*
X176993091Y-57693085D02*
G01*
X177027069Y-57703393D01*
X177058390Y-57720134D01*
X177085839Y-57742661D01*
X177108366Y-57770110D01*
X177125107Y-57801431D01*
X177135415Y-57835409D01*
X177139500Y-57876890D01*
X177139500Y-58553110D01*
X177135415Y-58594591D01*
X177125107Y-58628569D01*
X177108366Y-58659890D01*
X177085839Y-58687339D01*
X177058390Y-58709866D01*
X177027069Y-58726607D01*
X176993091Y-58736915D01*
X176951610Y-58741000D01*
X176350390Y-58741000D01*
X176308909Y-58736915D01*
X176274931Y-58726607D01*
X176243610Y-58709866D01*
X176216161Y-58687339D01*
X176193634Y-58659890D01*
X176176893Y-58628569D01*
X176166585Y-58594591D01*
X176162500Y-58553110D01*
X176162500Y-57876890D01*
X176166585Y-57835409D01*
X176176893Y-57801431D01*
X176193634Y-57770110D01*
X176216161Y-57742661D01*
X176243610Y-57720134D01*
X176274931Y-57703393D01*
X176308909Y-57693085D01*
X176350390Y-57689000D01*
X176951610Y-57689000D01*
X176993091Y-57693085D01*
G37*
G36*
X163584468Y-57266065D02*
G01*
X163623138Y-57277796D01*
X163658777Y-57296846D01*
X163690017Y-57322483D01*
X163715654Y-57353723D01*
X163734704Y-57389362D01*
X163746435Y-57428032D01*
X163751000Y-57474388D01*
X163751000Y-58125612D01*
X163746435Y-58171968D01*
X163734704Y-58210638D01*
X163715654Y-58246277D01*
X163690017Y-58277517D01*
X163658777Y-58303154D01*
X163623138Y-58322204D01*
X163584468Y-58333935D01*
X163538112Y-58338500D01*
X162461888Y-58338500D01*
X162415532Y-58333935D01*
X162376862Y-58322204D01*
X162341223Y-58303154D01*
X162309983Y-58277517D01*
X162284346Y-58246277D01*
X162265296Y-58210638D01*
X162253565Y-58171968D01*
X162249000Y-58125612D01*
X162249000Y-57474388D01*
X162253565Y-57428032D01*
X162265296Y-57389362D01*
X162284346Y-57353723D01*
X162309983Y-57322483D01*
X162341223Y-57296846D01*
X162376862Y-57277796D01*
X162415532Y-57266065D01*
X162461888Y-57261500D01*
X163538112Y-57261500D01*
X163584468Y-57266065D01*
G37*
G36*
X185551000Y-58051000D02*
G01*
X183449000Y-58051000D01*
X183449000Y-54149000D01*
X185551000Y-54149000D01*
X185551000Y-58051000D01*
G37*
G36*
X134328571Y-56252863D02*
G01*
X134407023Y-56260590D01*
X134507682Y-56291125D01*
X134558013Y-56306392D01*
X134697165Y-56380771D01*
X134819133Y-56480867D01*
X134919229Y-56602835D01*
X134993608Y-56741987D01*
X134997392Y-56754461D01*
X135039410Y-56892977D01*
X135054875Y-57050000D01*
X135039410Y-57207023D01*
X135021500Y-57266065D01*
X134993608Y-57358013D01*
X134919229Y-57497165D01*
X134819133Y-57619133D01*
X134697165Y-57719229D01*
X134558013Y-57793608D01*
X134507682Y-57808875D01*
X134407023Y-57839410D01*
X134328571Y-57847137D01*
X134289346Y-57851000D01*
X132910654Y-57851000D01*
X132871429Y-57847137D01*
X132792977Y-57839410D01*
X132692318Y-57808875D01*
X132641987Y-57793608D01*
X132502835Y-57719229D01*
X132380867Y-57619133D01*
X132280771Y-57497165D01*
X132206392Y-57358013D01*
X132178500Y-57266065D01*
X132160590Y-57207023D01*
X132145125Y-57050000D01*
X132160590Y-56892977D01*
X132202608Y-56754461D01*
X132206392Y-56741987D01*
X132280771Y-56602835D01*
X132380867Y-56480867D01*
X132502835Y-56380771D01*
X132641987Y-56306392D01*
X132692318Y-56291125D01*
X132792977Y-56260590D01*
X132871429Y-56252863D01*
X132910654Y-56249000D01*
X134289346Y-56249000D01*
X134328571Y-56252863D01*
G37*
G36*
X191851000Y-56901000D02*
G01*
X189749000Y-56901000D01*
X189749000Y-55299000D01*
X191851000Y-55299000D01*
X191851000Y-56901000D01*
G37*
G36*
X158967091Y-55778085D02*
G01*
X159001069Y-55788393D01*
X159032390Y-55805134D01*
X159059839Y-55827661D01*
X159082366Y-55855110D01*
X159099107Y-55886431D01*
X159109415Y-55920409D01*
X159113500Y-55961890D01*
X159113500Y-56638110D01*
X159109415Y-56679591D01*
X159099107Y-56713569D01*
X159082366Y-56744890D01*
X159059839Y-56772339D01*
X159032390Y-56794866D01*
X159001069Y-56811607D01*
X158967091Y-56821915D01*
X158925610Y-56826000D01*
X158324390Y-56826000D01*
X158282909Y-56821915D01*
X158248931Y-56811607D01*
X158217610Y-56794866D01*
X158190161Y-56772339D01*
X158167634Y-56744890D01*
X158150893Y-56713569D01*
X158140585Y-56679591D01*
X158136500Y-56638110D01*
X158136500Y-55961890D01*
X158140585Y-55920409D01*
X158150893Y-55886431D01*
X158167634Y-55855110D01*
X158190161Y-55827661D01*
X158217610Y-55805134D01*
X158248931Y-55788393D01*
X158282909Y-55778085D01*
X158324390Y-55774000D01*
X158925610Y-55774000D01*
X158967091Y-55778085D01*
G37*
G36*
X160542091Y-55778085D02*
G01*
X160576069Y-55788393D01*
X160607390Y-55805134D01*
X160634839Y-55827661D01*
X160657366Y-55855110D01*
X160674107Y-55886431D01*
X160684415Y-55920409D01*
X160688500Y-55961890D01*
X160688500Y-56638110D01*
X160684415Y-56679591D01*
X160674107Y-56713569D01*
X160657366Y-56744890D01*
X160634839Y-56772339D01*
X160607390Y-56794866D01*
X160576069Y-56811607D01*
X160542091Y-56821915D01*
X160500610Y-56826000D01*
X159899390Y-56826000D01*
X159857909Y-56821915D01*
X159823931Y-56811607D01*
X159792610Y-56794866D01*
X159765161Y-56772339D01*
X159742634Y-56744890D01*
X159725893Y-56713569D01*
X159715585Y-56679591D01*
X159711500Y-56638110D01*
X159711500Y-55961890D01*
X159715585Y-55920409D01*
X159725893Y-55886431D01*
X159742634Y-55855110D01*
X159765161Y-55827661D01*
X159792610Y-55805134D01*
X159823931Y-55788393D01*
X159857909Y-55778085D01*
X159899390Y-55774000D01*
X160500610Y-55774000D01*
X160542091Y-55778085D01*
G37*
G36*
X194884468Y-55103565D02*
G01*
X194923138Y-55115296D01*
X194958777Y-55134346D01*
X194990017Y-55159983D01*
X195015654Y-55191223D01*
X195034704Y-55226862D01*
X195046435Y-55265532D01*
X195051000Y-55311888D01*
X195051000Y-55963112D01*
X195046435Y-56009468D01*
X195034704Y-56048138D01*
X195015654Y-56083777D01*
X194990017Y-56115017D01*
X194958777Y-56140654D01*
X194923138Y-56159704D01*
X194884468Y-56171435D01*
X194838112Y-56176000D01*
X193761888Y-56176000D01*
X193715532Y-56171435D01*
X193676862Y-56159704D01*
X193641223Y-56140654D01*
X193609983Y-56115017D01*
X193584346Y-56083777D01*
X193565296Y-56048138D01*
X193553565Y-56009468D01*
X193549000Y-55963112D01*
X193549000Y-55311888D01*
X193553565Y-55265532D01*
X193565296Y-55226862D01*
X193584346Y-55191223D01*
X193609983Y-55159983D01*
X193641223Y-55134346D01*
X193676862Y-55115296D01*
X193715532Y-55103565D01*
X193761888Y-55099000D01*
X194838112Y-55099000D01*
X194884468Y-55103565D01*
G37*
G36*
X177018591Y-54728085D02*
G01*
X177052569Y-54738393D01*
X177083890Y-54755134D01*
X177111339Y-54777661D01*
X177133866Y-54805110D01*
X177150607Y-54836431D01*
X177160915Y-54870409D01*
X177165000Y-54911890D01*
X177165000Y-55588110D01*
X177160915Y-55629591D01*
X177150607Y-55663569D01*
X177133866Y-55694890D01*
X177111339Y-55722339D01*
X177083890Y-55744866D01*
X177052569Y-55761607D01*
X177018591Y-55771915D01*
X176977110Y-55776000D01*
X176375890Y-55776000D01*
X176334409Y-55771915D01*
X176300431Y-55761607D01*
X176269110Y-55744866D01*
X176241661Y-55722339D01*
X176219134Y-55694890D01*
X176202393Y-55663569D01*
X176192085Y-55629591D01*
X176188000Y-55588110D01*
X176188000Y-54911890D01*
X176192085Y-54870409D01*
X176202393Y-54836431D01*
X176219134Y-54805110D01*
X176241661Y-54777661D01*
X176269110Y-54755134D01*
X176300431Y-54738393D01*
X176334409Y-54728085D01*
X176375890Y-54724000D01*
X176977110Y-54724000D01*
X177018591Y-54728085D01*
G37*
G36*
X178593591Y-54728085D02*
G01*
X178627569Y-54738393D01*
X178658890Y-54755134D01*
X178686339Y-54777661D01*
X178708866Y-54805110D01*
X178725607Y-54836431D01*
X178735915Y-54870409D01*
X178740000Y-54911890D01*
X178740000Y-55588110D01*
X178735915Y-55629591D01*
X178725607Y-55663569D01*
X178708866Y-55694890D01*
X178686339Y-55722339D01*
X178658890Y-55744866D01*
X178627569Y-55761607D01*
X178593591Y-55771915D01*
X178552110Y-55776000D01*
X177950890Y-55776000D01*
X177909409Y-55771915D01*
X177875431Y-55761607D01*
X177844110Y-55744866D01*
X177816661Y-55722339D01*
X177794134Y-55694890D01*
X177777393Y-55663569D01*
X177767085Y-55629591D01*
X177763000Y-55588110D01*
X177763000Y-54911890D01*
X177767085Y-54870409D01*
X177777393Y-54836431D01*
X177794134Y-54805110D01*
X177816661Y-54777661D01*
X177844110Y-54755134D01*
X177875431Y-54738393D01*
X177909409Y-54728085D01*
X177950890Y-54724000D01*
X178552110Y-54724000D01*
X178593591Y-54728085D01*
G37*
G36*
X163584468Y-54541065D02*
G01*
X163623138Y-54552796D01*
X163658777Y-54571846D01*
X163690017Y-54597483D01*
X163715654Y-54628723D01*
X163734704Y-54664362D01*
X163746435Y-54703032D01*
X163751000Y-54749388D01*
X163751000Y-55400612D01*
X163746435Y-55446968D01*
X163734704Y-55485638D01*
X163715654Y-55521277D01*
X163690017Y-55552517D01*
X163658777Y-55578154D01*
X163623138Y-55597204D01*
X163584468Y-55608935D01*
X163538112Y-55613500D01*
X162461888Y-55613500D01*
X162415532Y-55608935D01*
X162376862Y-55597204D01*
X162341223Y-55578154D01*
X162309983Y-55552517D01*
X162284346Y-55521277D01*
X162265296Y-55485638D01*
X162253565Y-55446968D01*
X162249000Y-55400612D01*
X162249000Y-54749388D01*
X162253565Y-54703032D01*
X162265296Y-54664362D01*
X162284346Y-54628723D01*
X162309983Y-54597483D01*
X162341223Y-54571846D01*
X162376862Y-54552796D01*
X162415532Y-54541065D01*
X162461888Y-54536500D01*
X163538112Y-54536500D01*
X163584468Y-54541065D01*
G37*
G36*
X157142091Y-53978085D02*
G01*
X157176069Y-53988393D01*
X157207390Y-54005134D01*
X157234839Y-54027661D01*
X157257366Y-54055110D01*
X157274107Y-54086431D01*
X157284415Y-54120409D01*
X157288500Y-54161890D01*
X157288500Y-54838110D01*
X157284415Y-54879591D01*
X157274107Y-54913569D01*
X157257366Y-54944890D01*
X157234839Y-54972339D01*
X157207390Y-54994866D01*
X157176069Y-55011607D01*
X157142091Y-55021915D01*
X157100610Y-55026000D01*
X156499390Y-55026000D01*
X156457909Y-55021915D01*
X156423931Y-55011607D01*
X156392610Y-54994866D01*
X156365161Y-54972339D01*
X156342634Y-54944890D01*
X156325893Y-54913569D01*
X156315585Y-54879591D01*
X156311500Y-54838110D01*
X156311500Y-54161890D01*
X156315585Y-54120409D01*
X156325893Y-54086431D01*
X156342634Y-54055110D01*
X156365161Y-54027661D01*
X156392610Y-54005134D01*
X156423931Y-53988393D01*
X156457909Y-53978085D01*
X156499390Y-53974000D01*
X157100610Y-53974000D01*
X157142091Y-53978085D01*
G37*
G36*
X155567091Y-53978085D02*
G01*
X155601069Y-53988393D01*
X155632390Y-54005134D01*
X155659839Y-54027661D01*
X155682366Y-54055110D01*
X155699107Y-54086431D01*
X155709415Y-54120409D01*
X155713500Y-54161890D01*
X155713500Y-54838110D01*
X155709415Y-54879591D01*
X155699107Y-54913569D01*
X155682366Y-54944890D01*
X155659839Y-54972339D01*
X155632390Y-54994866D01*
X155601069Y-55011607D01*
X155567091Y-55021915D01*
X155525610Y-55026000D01*
X154924390Y-55026000D01*
X154882909Y-55021915D01*
X154848931Y-55011607D01*
X154817610Y-54994866D01*
X154790161Y-54972339D01*
X154767634Y-54944890D01*
X154750893Y-54913569D01*
X154740585Y-54879591D01*
X154736500Y-54838110D01*
X154736500Y-54161890D01*
X154740585Y-54120409D01*
X154750893Y-54086431D01*
X154767634Y-54055110D01*
X154790161Y-54027661D01*
X154817610Y-54005134D01*
X154848931Y-53988393D01*
X154882909Y-53978085D01*
X154924390Y-53974000D01*
X155525610Y-53974000D01*
X155567091Y-53978085D01*
G37*
G36*
X191851000Y-54601000D02*
G01*
X189749000Y-54601000D01*
X189749000Y-52999000D01*
X191851000Y-52999000D01*
X191851000Y-54601000D01*
G37*
G36*
X194884468Y-53228565D02*
G01*
X194923138Y-53240296D01*
X194958777Y-53259346D01*
X194990017Y-53284983D01*
X195015654Y-53316223D01*
X195034704Y-53351862D01*
X195046435Y-53390532D01*
X195051000Y-53436888D01*
X195051000Y-54088112D01*
X195046435Y-54134468D01*
X195034704Y-54173138D01*
X195015654Y-54208777D01*
X194990017Y-54240017D01*
X194958777Y-54265654D01*
X194923138Y-54284704D01*
X194884468Y-54296435D01*
X194838112Y-54301000D01*
X193761888Y-54301000D01*
X193715532Y-54296435D01*
X193676862Y-54284704D01*
X193641223Y-54265654D01*
X193609983Y-54240017D01*
X193584346Y-54208777D01*
X193565296Y-54173138D01*
X193553565Y-54134468D01*
X193549000Y-54088112D01*
X193549000Y-53436888D01*
X193553565Y-53390532D01*
X193565296Y-53351862D01*
X193584346Y-53316223D01*
X193609983Y-53284983D01*
X193641223Y-53259346D01*
X193676862Y-53240296D01*
X193715532Y-53228565D01*
X193761888Y-53224000D01*
X194838112Y-53224000D01*
X194884468Y-53228565D01*
G37*
G36*
X163584468Y-52666065D02*
G01*
X163623138Y-52677796D01*
X163658777Y-52696846D01*
X163690017Y-52722483D01*
X163715654Y-52753723D01*
X163734704Y-52789362D01*
X163746435Y-52828032D01*
X163751000Y-52874388D01*
X163751000Y-53525612D01*
X163746435Y-53571968D01*
X163734704Y-53610638D01*
X163715654Y-53646277D01*
X163690017Y-53677517D01*
X163658777Y-53703154D01*
X163623138Y-53722204D01*
X163584468Y-53733935D01*
X163538112Y-53738500D01*
X162461888Y-53738500D01*
X162415532Y-53733935D01*
X162376862Y-53722204D01*
X162341223Y-53703154D01*
X162309983Y-53677517D01*
X162284346Y-53646277D01*
X162265296Y-53610638D01*
X162253565Y-53571968D01*
X162249000Y-53525612D01*
X162249000Y-52874388D01*
X162253565Y-52828032D01*
X162265296Y-52789362D01*
X162284346Y-52753723D01*
X162309983Y-52722483D01*
X162341223Y-52696846D01*
X162376862Y-52677796D01*
X162415532Y-52666065D01*
X162461888Y-52661500D01*
X163538112Y-52661500D01*
X163584468Y-52666065D01*
G37*
G36*
X178593591Y-51978085D02*
G01*
X178627569Y-51988393D01*
X178658890Y-52005134D01*
X178686339Y-52027661D01*
X178708866Y-52055110D01*
X178725607Y-52086431D01*
X178735915Y-52120409D01*
X178740000Y-52161890D01*
X178740000Y-52838110D01*
X178735915Y-52879591D01*
X178725607Y-52913569D01*
X178708866Y-52944890D01*
X178686339Y-52972339D01*
X178658890Y-52994866D01*
X178627569Y-53011607D01*
X178593591Y-53021915D01*
X178552110Y-53026000D01*
X177950890Y-53026000D01*
X177909409Y-53021915D01*
X177875431Y-53011607D01*
X177844110Y-52994866D01*
X177816661Y-52972339D01*
X177794134Y-52944890D01*
X177777393Y-52913569D01*
X177767085Y-52879591D01*
X177763000Y-52838110D01*
X177763000Y-52161890D01*
X177767085Y-52120409D01*
X177777393Y-52086431D01*
X177794134Y-52055110D01*
X177816661Y-52027661D01*
X177844110Y-52005134D01*
X177875431Y-51988393D01*
X177909409Y-51978085D01*
X177950890Y-51974000D01*
X178552110Y-51974000D01*
X178593591Y-51978085D01*
G37*
G36*
X177018591Y-51978085D02*
G01*
X177052569Y-51988393D01*
X177083890Y-52005134D01*
X177111339Y-52027661D01*
X177133866Y-52055110D01*
X177150607Y-52086431D01*
X177160915Y-52120409D01*
X177165000Y-52161890D01*
X177165000Y-52838110D01*
X177160915Y-52879591D01*
X177150607Y-52913569D01*
X177133866Y-52944890D01*
X177111339Y-52972339D01*
X177083890Y-52994866D01*
X177052569Y-53011607D01*
X177018591Y-53021915D01*
X176977110Y-53026000D01*
X176375890Y-53026000D01*
X176334409Y-53021915D01*
X176300431Y-53011607D01*
X176269110Y-52994866D01*
X176241661Y-52972339D01*
X176219134Y-52944890D01*
X176202393Y-52913569D01*
X176192085Y-52879591D01*
X176188000Y-52838110D01*
X176188000Y-52161890D01*
X176192085Y-52120409D01*
X176202393Y-52086431D01*
X176219134Y-52055110D01*
X176241661Y-52027661D01*
X176269110Y-52005134D01*
X176300431Y-51988393D01*
X176334409Y-51978085D01*
X176375890Y-51974000D01*
X176977110Y-51974000D01*
X177018591Y-51978085D01*
G37*
G36*
X150201000Y-51401000D02*
G01*
X148399000Y-51401000D01*
X148399000Y-49599000D01*
X150201000Y-49599000D01*
X150201000Y-51401000D01*
G37*
G36*
X193142091Y-49878085D02*
G01*
X193176069Y-49888393D01*
X193207390Y-49905134D01*
X193234839Y-49927661D01*
X193257366Y-49955110D01*
X193274107Y-49986431D01*
X193284415Y-50020409D01*
X193288500Y-50061890D01*
X193288500Y-50738110D01*
X193284415Y-50779591D01*
X193274107Y-50813569D01*
X193257366Y-50844890D01*
X193234839Y-50872339D01*
X193207390Y-50894866D01*
X193176069Y-50911607D01*
X193142091Y-50921915D01*
X193100610Y-50926000D01*
X192499390Y-50926000D01*
X192457909Y-50921915D01*
X192423931Y-50911607D01*
X192392610Y-50894866D01*
X192365161Y-50872339D01*
X192342634Y-50844890D01*
X192325893Y-50813569D01*
X192315585Y-50779591D01*
X192311500Y-50738110D01*
X192311500Y-50061890D01*
X192315585Y-50020409D01*
X192325893Y-49986431D01*
X192342634Y-49955110D01*
X192365161Y-49927661D01*
X192392610Y-49905134D01*
X192423931Y-49888393D01*
X192457909Y-49878085D01*
X192499390Y-49874000D01*
X193100610Y-49874000D01*
X193142091Y-49878085D01*
G37*
G36*
X191567091Y-49878085D02*
G01*
X191601069Y-49888393D01*
X191632390Y-49905134D01*
X191659839Y-49927661D01*
X191682366Y-49955110D01*
X191699107Y-49986431D01*
X191709415Y-50020409D01*
X191713500Y-50061890D01*
X191713500Y-50738110D01*
X191709415Y-50779591D01*
X191699107Y-50813569D01*
X191682366Y-50844890D01*
X191659839Y-50872339D01*
X191632390Y-50894866D01*
X191601069Y-50911607D01*
X191567091Y-50921915D01*
X191525610Y-50926000D01*
X190924390Y-50926000D01*
X190882909Y-50921915D01*
X190848931Y-50911607D01*
X190817610Y-50894866D01*
X190790161Y-50872339D01*
X190767634Y-50844890D01*
X190750893Y-50813569D01*
X190740585Y-50779591D01*
X190736500Y-50738110D01*
X190736500Y-50061890D01*
X190740585Y-50020409D01*
X190750893Y-49986431D01*
X190767634Y-49955110D01*
X190790161Y-49927661D01*
X190817610Y-49905134D01*
X190848931Y-49888393D01*
X190882909Y-49878085D01*
X190924390Y-49874000D01*
X191525610Y-49874000D01*
X191567091Y-49878085D01*
G37*
G36*
X116431000Y-42574001D02*
G01*
X116433402Y-42598387D01*
X116440515Y-42621836D01*
X116452066Y-42643447D01*
X116467611Y-42662389D01*
X116486553Y-42677934D01*
X116508164Y-42689485D01*
X116531613Y-42696598D01*
X116555999Y-42699000D01*
X117504001Y-42699000D01*
X117528387Y-42696598D01*
X117551836Y-42689485D01*
X117573447Y-42677934D01*
X117592389Y-42662389D01*
X117607934Y-42643447D01*
X117619485Y-42621836D01*
X117626598Y-42598387D01*
X117629000Y-42574001D01*
X117629000Y-41599000D01*
X186431000Y-41599000D01*
X186431000Y-46001000D01*
X115629000Y-46001000D01*
X115629000Y-41599000D01*
X116431000Y-41599000D01*
X116431000Y-42574001D01*
G37*
G36*
X199431000Y-46001000D02*
G01*
X188629000Y-46001000D01*
X188629000Y-41599000D01*
X199431000Y-41599000D01*
X199431000Y-46001000D01*
G37*
M02*
