G04 #@! TF.GenerationSoftware,KiCad,Pcbnew,(5.1.5)-3*
G04 #@! TF.CreationDate,2019-12-12T18:31:49+09:00*
G04 #@! TF.ProjectId,CAN_Dual_MDexpress,43414e5f-4475-4616-9c5f-4d4465787072,rev?*
G04 #@! TF.SameCoordinates,Original*
G04 #@! TF.FileFunction,Legend,Top*
G04 #@! TF.FilePolarity,Positive*
%FSLAX46Y46*%
G04 Gerber Fmt 4.6, Leading zero omitted, Abs format (unit mm)*
G04 Created by KiCad (PCBNEW (5.1.5)-3) date 2019-12-12 18:31:49*
%MOMM*%
%LPD*%
G04 APERTURE LIST*
%ADD10C,0.150000*%
%ADD11C,0.225000*%
%ADD12C,0.100000*%
%ADD13C,0.120000*%
%ADD14C,0.200000*%
%ADD15C,0.254000*%
G04 APERTURE END LIST*
D10*
X116363571Y-80502285D02*
X116363571Y-81264190D01*
X115982619Y-80883238D02*
X116744523Y-80883238D01*
X116982619Y-82216571D02*
X116982619Y-81740380D01*
X116506428Y-81692761D01*
X116554047Y-81740380D01*
X116601666Y-81835619D01*
X116601666Y-82073714D01*
X116554047Y-82168952D01*
X116506428Y-82216571D01*
X116411190Y-82264190D01*
X116173095Y-82264190D01*
X116077857Y-82216571D01*
X116030238Y-82168952D01*
X115982619Y-82073714D01*
X115982619Y-81835619D01*
X116030238Y-81740380D01*
X116077857Y-81692761D01*
X116982619Y-82549904D02*
X115982619Y-82883238D01*
X116982619Y-83216571D01*
D11*
X198678571Y-55392857D02*
X197178571Y-55392857D01*
X198250000Y-54892857D01*
X197178571Y-54392857D01*
X198678571Y-54392857D01*
X198678571Y-53464285D02*
X198607142Y-53607142D01*
X198535714Y-53678571D01*
X198392857Y-53750000D01*
X197964285Y-53750000D01*
X197821428Y-53678571D01*
X197750000Y-53607142D01*
X197678571Y-53464285D01*
X197678571Y-53250000D01*
X197750000Y-53107142D01*
X197821428Y-53035714D01*
X197964285Y-52964285D01*
X198392857Y-52964285D01*
X198535714Y-53035714D01*
X198607142Y-53107142D01*
X198678571Y-53250000D01*
X198678571Y-53464285D01*
X197678571Y-52535714D02*
X197678571Y-51964285D01*
X197178571Y-52321428D02*
X198464285Y-52321428D01*
X198607142Y-52250000D01*
X198678571Y-52107142D01*
X198678571Y-51964285D01*
X198678571Y-51250000D02*
X198607142Y-51392857D01*
X198535714Y-51464285D01*
X198392857Y-51535714D01*
X197964285Y-51535714D01*
X197821428Y-51464285D01*
X197750000Y-51392857D01*
X197678571Y-51250000D01*
X197678571Y-51035714D01*
X197750000Y-50892857D01*
X197821428Y-50821428D01*
X197964285Y-50750000D01*
X198392857Y-50750000D01*
X198535714Y-50821428D01*
X198607142Y-50892857D01*
X198678571Y-51035714D01*
X198678571Y-51250000D01*
X198678571Y-50107142D02*
X197678571Y-50107142D01*
X197964285Y-50107142D02*
X197821428Y-50035714D01*
X197750000Y-49964285D01*
X197678571Y-49821428D01*
X197678571Y-49678571D01*
X198107142Y-49178571D02*
X198107142Y-48035714D01*
X197178571Y-47035714D02*
X197178571Y-46892857D01*
X197250000Y-46750000D01*
X197321428Y-46678571D01*
X197464285Y-46607142D01*
X197750000Y-46535714D01*
X198107142Y-46535714D01*
X198392857Y-46607142D01*
X198535714Y-46678571D01*
X198607142Y-46750000D01*
X198678571Y-46892857D01*
X198678571Y-47035714D01*
X198607142Y-47178571D01*
X198535714Y-47250000D01*
X198392857Y-47321428D01*
X198107142Y-47392857D01*
X197750000Y-47392857D01*
X197464285Y-47321428D01*
X197321428Y-47250000D01*
X197250000Y-47178571D01*
X197178571Y-47035714D01*
D12*
X140407657Y-43638057D02*
X140864800Y-43638057D01*
X140636228Y-43866628D02*
X140636228Y-43409485D01*
X141093371Y-43266628D02*
X141464800Y-43266628D01*
X141264800Y-43495200D01*
X141350514Y-43495200D01*
X141407657Y-43523771D01*
X141436228Y-43552342D01*
X141464800Y-43609485D01*
X141464800Y-43752342D01*
X141436228Y-43809485D01*
X141407657Y-43838057D01*
X141350514Y-43866628D01*
X141179085Y-43866628D01*
X141121942Y-43838057D01*
X141093371Y-43809485D01*
X141636228Y-43266628D02*
X141836228Y-43866628D01*
X142036228Y-43266628D01*
X142179085Y-43266628D02*
X142550514Y-43266628D01*
X142350514Y-43495200D01*
X142436228Y-43495200D01*
X142493371Y-43523771D01*
X142521942Y-43552342D01*
X142550514Y-43609485D01*
X142550514Y-43752342D01*
X142521942Y-43809485D01*
X142493371Y-43838057D01*
X142436228Y-43866628D01*
X142264800Y-43866628D01*
X142207657Y-43838057D01*
X142179085Y-43809485D01*
X145907657Y-43295200D02*
X145850514Y-43266628D01*
X145764800Y-43266628D01*
X145679085Y-43295200D01*
X145621942Y-43352342D01*
X145593371Y-43409485D01*
X145564800Y-43523771D01*
X145564800Y-43609485D01*
X145593371Y-43723771D01*
X145621942Y-43780914D01*
X145679085Y-43838057D01*
X145764800Y-43866628D01*
X145821942Y-43866628D01*
X145907657Y-43838057D01*
X145936228Y-43809485D01*
X145936228Y-43609485D01*
X145821942Y-43609485D01*
X146193371Y-43866628D02*
X146193371Y-43266628D01*
X146536228Y-43866628D01*
X146536228Y-43266628D01*
X146821942Y-43866628D02*
X146821942Y-43266628D01*
X146964800Y-43266628D01*
X147050514Y-43295200D01*
X147107657Y-43352342D01*
X147136228Y-43409485D01*
X147164800Y-43523771D01*
X147164800Y-43609485D01*
X147136228Y-43723771D01*
X147107657Y-43780914D01*
X147050514Y-43838057D01*
X146964800Y-43866628D01*
X146821942Y-43866628D01*
D11*
X198678571Y-74392857D02*
X197178571Y-74392857D01*
X198250000Y-73892857D01*
X197178571Y-73392857D01*
X198678571Y-73392857D01*
X198678571Y-72464285D02*
X198607142Y-72607142D01*
X198535714Y-72678571D01*
X198392857Y-72750000D01*
X197964285Y-72750000D01*
X197821428Y-72678571D01*
X197750000Y-72607142D01*
X197678571Y-72464285D01*
X197678571Y-72250000D01*
X197750000Y-72107142D01*
X197821428Y-72035714D01*
X197964285Y-71964285D01*
X198392857Y-71964285D01*
X198535714Y-72035714D01*
X198607142Y-72107142D01*
X198678571Y-72250000D01*
X198678571Y-72464285D01*
X197678571Y-71535714D02*
X197678571Y-70964285D01*
X197178571Y-71321428D02*
X198464285Y-71321428D01*
X198607142Y-71250000D01*
X198678571Y-71107142D01*
X198678571Y-70964285D01*
X198678571Y-70250000D02*
X198607142Y-70392857D01*
X198535714Y-70464285D01*
X198392857Y-70535714D01*
X197964285Y-70535714D01*
X197821428Y-70464285D01*
X197750000Y-70392857D01*
X197678571Y-70250000D01*
X197678571Y-70035714D01*
X197750000Y-69892857D01*
X197821428Y-69821428D01*
X197964285Y-69750000D01*
X198392857Y-69750000D01*
X198535714Y-69821428D01*
X198607142Y-69892857D01*
X198678571Y-70035714D01*
X198678571Y-70250000D01*
X198678571Y-69107142D02*
X197678571Y-69107142D01*
X197964285Y-69107142D02*
X197821428Y-69035714D01*
X197750000Y-68964285D01*
X197678571Y-68821428D01*
X197678571Y-68678571D01*
X198107142Y-68178571D02*
X198107142Y-67035714D01*
X198678571Y-65535714D02*
X198678571Y-66392857D01*
X198678571Y-65964285D02*
X197178571Y-65964285D01*
X197392857Y-66107142D01*
X197535714Y-66250000D01*
X197607142Y-66392857D01*
D13*
X119614285Y-81261904D02*
X119576190Y-81223809D01*
X119538095Y-81109523D01*
X119538095Y-81033333D01*
X119576190Y-80919047D01*
X119652380Y-80842857D01*
X119728571Y-80804761D01*
X119880952Y-80766666D01*
X119995238Y-80766666D01*
X120147619Y-80804761D01*
X120223809Y-80842857D01*
X120300000Y-80919047D01*
X120338095Y-81033333D01*
X120338095Y-81109523D01*
X120300000Y-81223809D01*
X120261904Y-81261904D01*
X119766666Y-81566666D02*
X119766666Y-81947619D01*
X119538095Y-81490476D02*
X120338095Y-81757142D01*
X119538095Y-82023809D01*
X119538095Y-82290476D02*
X120338095Y-82290476D01*
X119538095Y-82747619D01*
X120338095Y-82747619D01*
X119538095Y-83509523D02*
X119538095Y-83128571D01*
X120338095Y-83128571D01*
D10*
X118947619Y-63171428D02*
X119947619Y-63171428D01*
X119233333Y-63504761D01*
X119947619Y-63838095D01*
X118947619Y-63838095D01*
X118947619Y-64457142D02*
X118995238Y-64361904D01*
X119042857Y-64314285D01*
X119138095Y-64266666D01*
X119423809Y-64266666D01*
X119519047Y-64314285D01*
X119566666Y-64361904D01*
X119614285Y-64457142D01*
X119614285Y-64600000D01*
X119566666Y-64695238D01*
X119519047Y-64742857D01*
X119423809Y-64790476D01*
X119138095Y-64790476D01*
X119042857Y-64742857D01*
X118995238Y-64695238D01*
X118947619Y-64600000D01*
X118947619Y-64457142D01*
X119614285Y-65076190D02*
X119614285Y-65457142D01*
X119947619Y-65219047D02*
X119090476Y-65219047D01*
X118995238Y-65266666D01*
X118947619Y-65361904D01*
X118947619Y-65457142D01*
X118947619Y-65933333D02*
X118995238Y-65838095D01*
X119042857Y-65790476D01*
X119138095Y-65742857D01*
X119423809Y-65742857D01*
X119519047Y-65790476D01*
X119566666Y-65838095D01*
X119614285Y-65933333D01*
X119614285Y-66076190D01*
X119566666Y-66171428D01*
X119519047Y-66219047D01*
X119423809Y-66266666D01*
X119138095Y-66266666D01*
X119042857Y-66219047D01*
X118995238Y-66171428D01*
X118947619Y-66076190D01*
X118947619Y-65933333D01*
X118947619Y-66695238D02*
X119614285Y-66695238D01*
X119423809Y-66695238D02*
X119519047Y-66742857D01*
X119566666Y-66790476D01*
X119614285Y-66885714D01*
X119614285Y-66980952D01*
X119328571Y-67314285D02*
X119328571Y-68076190D01*
X118947619Y-69076190D02*
X118947619Y-68504761D01*
X118947619Y-68790476D02*
X119947619Y-68790476D01*
X119804761Y-68695238D01*
X119709523Y-68600000D01*
X119661904Y-68504761D01*
X170382380Y-41282142D02*
X170334761Y-41329761D01*
X170191904Y-41377380D01*
X170096666Y-41377380D01*
X169953809Y-41329761D01*
X169858571Y-41234523D01*
X169810952Y-41139285D01*
X169763333Y-40948809D01*
X169763333Y-40805952D01*
X169810952Y-40615476D01*
X169858571Y-40520238D01*
X169953809Y-40425000D01*
X170096666Y-40377380D01*
X170191904Y-40377380D01*
X170334761Y-40425000D01*
X170382380Y-40472619D01*
X170763333Y-41091666D02*
X171239523Y-41091666D01*
X170668095Y-41377380D02*
X171001428Y-40377380D01*
X171334761Y-41377380D01*
X171668095Y-41377380D02*
X171668095Y-40377380D01*
X172239523Y-41377380D01*
X172239523Y-40377380D01*
X173477619Y-41377380D02*
X173477619Y-40377380D01*
X173477619Y-40853571D02*
X174049047Y-40853571D01*
X174049047Y-41377380D02*
X174049047Y-40377380D01*
X174525238Y-40996428D02*
X175287142Y-40996428D01*
X176096666Y-40853571D02*
X176239523Y-40901190D01*
X176287142Y-40948809D01*
X176334761Y-41044047D01*
X176334761Y-41186904D01*
X176287142Y-41282142D01*
X176239523Y-41329761D01*
X176144285Y-41377380D01*
X175763333Y-41377380D01*
X175763333Y-40377380D01*
X176096666Y-40377380D01*
X176191904Y-40425000D01*
X176239523Y-40472619D01*
X176287142Y-40567857D01*
X176287142Y-40663095D01*
X176239523Y-40758333D01*
X176191904Y-40805952D01*
X176096666Y-40853571D01*
X175763333Y-40853571D01*
X176763333Y-41377380D02*
X176763333Y-40710714D01*
X176763333Y-40901190D02*
X176810952Y-40805952D01*
X176858571Y-40758333D01*
X176953809Y-40710714D01*
X177049047Y-40710714D01*
X177382380Y-41377380D02*
X177382380Y-40710714D01*
X177382380Y-40377380D02*
X177334761Y-40425000D01*
X177382380Y-40472619D01*
X177430000Y-40425000D01*
X177382380Y-40377380D01*
X177382380Y-40472619D01*
X178287142Y-41377380D02*
X178287142Y-40377380D01*
X178287142Y-41329761D02*
X178191904Y-41377380D01*
X178001428Y-41377380D01*
X177906190Y-41329761D01*
X177858571Y-41282142D01*
X177810952Y-41186904D01*
X177810952Y-40901190D01*
X177858571Y-40805952D01*
X177906190Y-40758333D01*
X178001428Y-40710714D01*
X178191904Y-40710714D01*
X178287142Y-40758333D01*
X179191904Y-40710714D02*
X179191904Y-41520238D01*
X179144285Y-41615476D01*
X179096666Y-41663095D01*
X179001428Y-41710714D01*
X178858571Y-41710714D01*
X178763333Y-41663095D01*
X179191904Y-41329761D02*
X179096666Y-41377380D01*
X178906190Y-41377380D01*
X178810952Y-41329761D01*
X178763333Y-41282142D01*
X178715714Y-41186904D01*
X178715714Y-40901190D01*
X178763333Y-40805952D01*
X178810952Y-40758333D01*
X178906190Y-40710714D01*
X179096666Y-40710714D01*
X179191904Y-40758333D01*
X180049047Y-41329761D02*
X179953809Y-41377380D01*
X179763333Y-41377380D01*
X179668095Y-41329761D01*
X179620476Y-41234523D01*
X179620476Y-40853571D01*
X179668095Y-40758333D01*
X179763333Y-40710714D01*
X179953809Y-40710714D01*
X180049047Y-40758333D01*
X180096666Y-40853571D01*
X180096666Y-40948809D01*
X179620476Y-41044047D01*
X181287142Y-41377380D02*
X181287142Y-40377380D01*
X181525238Y-40377380D01*
X181668095Y-40425000D01*
X181763333Y-40520238D01*
X181810952Y-40615476D01*
X181858571Y-40805952D01*
X181858571Y-40948809D01*
X181810952Y-41139285D01*
X181763333Y-41234523D01*
X181668095Y-41329761D01*
X181525238Y-41377380D01*
X181287142Y-41377380D01*
X182715714Y-40710714D02*
X182715714Y-41377380D01*
X182287142Y-40710714D02*
X182287142Y-41234523D01*
X182334761Y-41329761D01*
X182430000Y-41377380D01*
X182572857Y-41377380D01*
X182668095Y-41329761D01*
X182715714Y-41282142D01*
X183620476Y-41377380D02*
X183620476Y-40853571D01*
X183572857Y-40758333D01*
X183477619Y-40710714D01*
X183287142Y-40710714D01*
X183191904Y-40758333D01*
X183620476Y-41329761D02*
X183525238Y-41377380D01*
X183287142Y-41377380D01*
X183191904Y-41329761D01*
X183144285Y-41234523D01*
X183144285Y-41139285D01*
X183191904Y-41044047D01*
X183287142Y-40996428D01*
X183525238Y-40996428D01*
X183620476Y-40948809D01*
X184239523Y-41377380D02*
X184144285Y-41329761D01*
X184096666Y-41234523D01*
X184096666Y-40377380D01*
X185382380Y-41377380D02*
X185382380Y-40377380D01*
X185715714Y-41091666D01*
X186049047Y-40377380D01*
X186049047Y-41377380D01*
X186525238Y-41377380D02*
X186525238Y-40377380D01*
X186763333Y-40377380D01*
X186906190Y-40425000D01*
X187001428Y-40520238D01*
X187049047Y-40615476D01*
X187096666Y-40805952D01*
X187096666Y-40948809D01*
X187049047Y-41139285D01*
X187001428Y-41234523D01*
X186906190Y-41329761D01*
X186763333Y-41377380D01*
X186525238Y-41377380D01*
X173549047Y-43027380D02*
X173549047Y-42027380D01*
X173930000Y-42027380D01*
X174025238Y-42075000D01*
X174072857Y-42122619D01*
X174120476Y-42217857D01*
X174120476Y-42360714D01*
X174072857Y-42455952D01*
X174025238Y-42503571D01*
X173930000Y-42551190D01*
X173549047Y-42551190D01*
X174549047Y-43027380D02*
X174549047Y-42360714D01*
X174549047Y-42551190D02*
X174596666Y-42455952D01*
X174644285Y-42408333D01*
X174739523Y-42360714D01*
X174834761Y-42360714D01*
X175310952Y-43027380D02*
X175215714Y-42979761D01*
X175168095Y-42932142D01*
X175120476Y-42836904D01*
X175120476Y-42551190D01*
X175168095Y-42455952D01*
X175215714Y-42408333D01*
X175310952Y-42360714D01*
X175453809Y-42360714D01*
X175549047Y-42408333D01*
X175596666Y-42455952D01*
X175644285Y-42551190D01*
X175644285Y-42836904D01*
X175596666Y-42932142D01*
X175549047Y-42979761D01*
X175453809Y-43027380D01*
X175310952Y-43027380D01*
X175930000Y-42360714D02*
X176310952Y-42360714D01*
X176072857Y-42027380D02*
X176072857Y-42884523D01*
X176120476Y-42979761D01*
X176215714Y-43027380D01*
X176310952Y-43027380D01*
X176787142Y-43027380D02*
X176691904Y-42979761D01*
X176644285Y-42932142D01*
X176596666Y-42836904D01*
X176596666Y-42551190D01*
X176644285Y-42455952D01*
X176691904Y-42408333D01*
X176787142Y-42360714D01*
X176930000Y-42360714D01*
X177025238Y-42408333D01*
X177072857Y-42455952D01*
X177120476Y-42551190D01*
X177120476Y-42836904D01*
X177072857Y-42932142D01*
X177025238Y-42979761D01*
X176930000Y-43027380D01*
X176787142Y-43027380D01*
X177406190Y-42360714D02*
X177787142Y-42360714D01*
X177549047Y-42027380D02*
X177549047Y-42884523D01*
X177596666Y-42979761D01*
X177691904Y-43027380D01*
X177787142Y-43027380D01*
X178025238Y-42360714D02*
X178263333Y-43027380D01*
X178501428Y-42360714D02*
X178263333Y-43027380D01*
X178168095Y-43265476D01*
X178120476Y-43313095D01*
X178025238Y-43360714D01*
X178882380Y-42360714D02*
X178882380Y-43360714D01*
X178882380Y-42408333D02*
X178977619Y-42360714D01*
X179168095Y-42360714D01*
X179263333Y-42408333D01*
X179310952Y-42455952D01*
X179358571Y-42551190D01*
X179358571Y-42836904D01*
X179310952Y-42932142D01*
X179263333Y-42979761D01*
X179168095Y-43027380D01*
X178977619Y-43027380D01*
X178882380Y-42979761D01*
X180168095Y-42979761D02*
X180072857Y-43027380D01*
X179882380Y-43027380D01*
X179787142Y-42979761D01*
X179739523Y-42884523D01*
X179739523Y-42503571D01*
X179787142Y-42408333D01*
X179882380Y-42360714D01*
X180072857Y-42360714D01*
X180168095Y-42408333D01*
X180215714Y-42503571D01*
X180215714Y-42598809D01*
X179739523Y-42694047D01*
X181930000Y-43027380D02*
X181358571Y-43027380D01*
X181644285Y-43027380D02*
X181644285Y-42027380D01*
X181549047Y-42170238D01*
X181453809Y-42265476D01*
X181358571Y-42313095D01*
X182358571Y-42932142D02*
X182406190Y-42979761D01*
X182358571Y-43027380D01*
X182310952Y-42979761D01*
X182358571Y-42932142D01*
X182358571Y-43027380D01*
X182787142Y-42122619D02*
X182834761Y-42075000D01*
X182930000Y-42027380D01*
X183168095Y-42027380D01*
X183263333Y-42075000D01*
X183310952Y-42122619D01*
X183358571Y-42217857D01*
X183358571Y-42313095D01*
X183310952Y-42455952D01*
X182739523Y-43027380D01*
X183358571Y-43027380D01*
D12*
X142607657Y-43238057D02*
X142693371Y-43266628D01*
X142836228Y-43266628D01*
X142893371Y-43238057D01*
X142921942Y-43209485D01*
X142950514Y-43152342D01*
X142950514Y-43095200D01*
X142921942Y-43038057D01*
X142893371Y-43009485D01*
X142836228Y-42980914D01*
X142721942Y-42952342D01*
X142664800Y-42923771D01*
X142636228Y-42895200D01*
X142607657Y-42838057D01*
X142607657Y-42780914D01*
X142636228Y-42723771D01*
X142664800Y-42695200D01*
X142721942Y-42666628D01*
X142864800Y-42666628D01*
X142950514Y-42695200D01*
X143150514Y-42666628D02*
X143293371Y-43266628D01*
X143407657Y-42838057D01*
X143521942Y-43266628D01*
X143664800Y-42666628D01*
X144236228Y-43209485D02*
X144207657Y-43238057D01*
X144121942Y-43266628D01*
X144064800Y-43266628D01*
X143979085Y-43238057D01*
X143921942Y-43180914D01*
X143893371Y-43123771D01*
X143864800Y-43009485D01*
X143864800Y-42923771D01*
X143893371Y-42809485D01*
X143921942Y-42752342D01*
X143979085Y-42695200D01*
X144064800Y-42666628D01*
X144121942Y-42666628D01*
X144207657Y-42695200D01*
X144236228Y-42723771D01*
X144779085Y-43266628D02*
X144493371Y-43266628D01*
X144493371Y-42666628D01*
X144979085Y-43266628D02*
X144979085Y-42666628D01*
X145321942Y-43266628D02*
X145064800Y-42923771D01*
X145321942Y-42666628D02*
X144979085Y-43009485D01*
X150379085Y-43866628D02*
X150379085Y-43266628D01*
X150721942Y-43866628D01*
X150721942Y-43266628D01*
X151350514Y-43866628D02*
X151150514Y-43580914D01*
X151007657Y-43866628D02*
X151007657Y-43266628D01*
X151236228Y-43266628D01*
X151293371Y-43295200D01*
X151321942Y-43323771D01*
X151350514Y-43380914D01*
X151350514Y-43466628D01*
X151321942Y-43523771D01*
X151293371Y-43552342D01*
X151236228Y-43580914D01*
X151007657Y-43580914D01*
X151579085Y-43838057D02*
X151664800Y-43866628D01*
X151807657Y-43866628D01*
X151864800Y-43838057D01*
X151893371Y-43809485D01*
X151921942Y-43752342D01*
X151921942Y-43695200D01*
X151893371Y-43638057D01*
X151864800Y-43609485D01*
X151807657Y-43580914D01*
X151693371Y-43552342D01*
X151636228Y-43523771D01*
X151607657Y-43495200D01*
X151579085Y-43438057D01*
X151579085Y-43380914D01*
X151607657Y-43323771D01*
X151636228Y-43295200D01*
X151693371Y-43266628D01*
X151836228Y-43266628D01*
X151921942Y-43295200D01*
X152093371Y-43266628D02*
X152436228Y-43266628D01*
X152264800Y-43866628D02*
X152264800Y-43266628D01*
X147593371Y-43238057D02*
X147679085Y-43266628D01*
X147821942Y-43266628D01*
X147879085Y-43238057D01*
X147907657Y-43209485D01*
X147936228Y-43152342D01*
X147936228Y-43095200D01*
X147907657Y-43038057D01*
X147879085Y-43009485D01*
X147821942Y-42980914D01*
X147707657Y-42952342D01*
X147650514Y-42923771D01*
X147621942Y-42895200D01*
X147593371Y-42838057D01*
X147593371Y-42780914D01*
X147621942Y-42723771D01*
X147650514Y-42695200D01*
X147707657Y-42666628D01*
X147850514Y-42666628D01*
X147936228Y-42695200D01*
X148136228Y-42666628D02*
X148279085Y-43266628D01*
X148393371Y-42838057D01*
X148507657Y-43266628D01*
X148650514Y-42666628D01*
X148879085Y-43266628D02*
X148879085Y-42666628D01*
X149021942Y-42666628D01*
X149107657Y-42695200D01*
X149164800Y-42752342D01*
X149193371Y-42809485D01*
X149221942Y-42923771D01*
X149221942Y-43009485D01*
X149193371Y-43123771D01*
X149164800Y-43180914D01*
X149107657Y-43238057D01*
X149021942Y-43266628D01*
X148879085Y-43266628D01*
X149479085Y-43266628D02*
X149479085Y-42666628D01*
X149879085Y-42666628D02*
X149993371Y-42666628D01*
X150050514Y-42695200D01*
X150107657Y-42752342D01*
X150136228Y-42866628D01*
X150136228Y-43066628D01*
X150107657Y-43180914D01*
X150050514Y-43238057D01*
X149993371Y-43266628D01*
X149879085Y-43266628D01*
X149821942Y-43238057D01*
X149764800Y-43180914D01*
X149736228Y-43066628D01*
X149736228Y-42866628D01*
X149764800Y-42752342D01*
X149821942Y-42695200D01*
X149879085Y-42666628D01*
D10*
X118747619Y-55071428D02*
X119747619Y-55071428D01*
X119033333Y-55404761D01*
X119747619Y-55738095D01*
X118747619Y-55738095D01*
X118747619Y-56357142D02*
X118795238Y-56261904D01*
X118842857Y-56214285D01*
X118938095Y-56166666D01*
X119223809Y-56166666D01*
X119319047Y-56214285D01*
X119366666Y-56261904D01*
X119414285Y-56357142D01*
X119414285Y-56500000D01*
X119366666Y-56595238D01*
X119319047Y-56642857D01*
X119223809Y-56690476D01*
X118938095Y-56690476D01*
X118842857Y-56642857D01*
X118795238Y-56595238D01*
X118747619Y-56500000D01*
X118747619Y-56357142D01*
X119414285Y-56976190D02*
X119414285Y-57357142D01*
X119747619Y-57119047D02*
X118890476Y-57119047D01*
X118795238Y-57166666D01*
X118747619Y-57261904D01*
X118747619Y-57357142D01*
X118747619Y-57833333D02*
X118795238Y-57738095D01*
X118842857Y-57690476D01*
X118938095Y-57642857D01*
X119223809Y-57642857D01*
X119319047Y-57690476D01*
X119366666Y-57738095D01*
X119414285Y-57833333D01*
X119414285Y-57976190D01*
X119366666Y-58071428D01*
X119319047Y-58119047D01*
X119223809Y-58166666D01*
X118938095Y-58166666D01*
X118842857Y-58119047D01*
X118795238Y-58071428D01*
X118747619Y-57976190D01*
X118747619Y-57833333D01*
X118747619Y-58595238D02*
X119414285Y-58595238D01*
X119223809Y-58595238D02*
X119319047Y-58642857D01*
X119366666Y-58690476D01*
X119414285Y-58785714D01*
X119414285Y-58880952D01*
X119128571Y-59214285D02*
X119128571Y-59976190D01*
X119747619Y-60642857D02*
X119747619Y-60738095D01*
X119700000Y-60833333D01*
X119652380Y-60880952D01*
X119557142Y-60928571D01*
X119366666Y-60976190D01*
X119128571Y-60976190D01*
X118938095Y-60928571D01*
X118842857Y-60880952D01*
X118795238Y-60833333D01*
X118747619Y-60738095D01*
X118747619Y-60642857D01*
X118795238Y-60547619D01*
X118842857Y-60500000D01*
X118938095Y-60452380D01*
X119128571Y-60404761D01*
X119366666Y-60404761D01*
X119557142Y-60452380D01*
X119652380Y-60500000D01*
X119700000Y-60547619D01*
X119747619Y-60642857D01*
X118967000Y-81305495D02*
X119014619Y-81210257D01*
X119014619Y-81067400D01*
X118967000Y-80924542D01*
X118871761Y-80829304D01*
X118776523Y-80781685D01*
X118586047Y-80734066D01*
X118443190Y-80734066D01*
X118252714Y-80781685D01*
X118157476Y-80829304D01*
X118062238Y-80924542D01*
X118014619Y-81067400D01*
X118014619Y-81162638D01*
X118062238Y-81305495D01*
X118109857Y-81353114D01*
X118443190Y-81353114D01*
X118443190Y-81162638D01*
X118014619Y-81781685D02*
X119014619Y-81781685D01*
X118014619Y-82353114D01*
X119014619Y-82353114D01*
X118014619Y-82829304D02*
X119014619Y-82829304D01*
X119014619Y-83067400D01*
X118967000Y-83210257D01*
X118871761Y-83305495D01*
X118776523Y-83353114D01*
X118586047Y-83400733D01*
X118443190Y-83400733D01*
X118252714Y-83353114D01*
X118157476Y-83305495D01*
X118062238Y-83210257D01*
X118014619Y-83067400D01*
X118014619Y-82829304D01*
D13*
X120714285Y-81266666D02*
X120676190Y-81228571D01*
X120638095Y-81114285D01*
X120638095Y-81038095D01*
X120676190Y-80923809D01*
X120752380Y-80847619D01*
X120828571Y-80809523D01*
X120980952Y-80771428D01*
X121095238Y-80771428D01*
X121247619Y-80809523D01*
X121323809Y-80847619D01*
X121400000Y-80923809D01*
X121438095Y-81038095D01*
X121438095Y-81114285D01*
X121400000Y-81228571D01*
X121361904Y-81266666D01*
X120866666Y-81571428D02*
X120866666Y-81952380D01*
X120638095Y-81495238D02*
X121438095Y-81761904D01*
X120638095Y-82028571D01*
X120638095Y-82295238D02*
X121438095Y-82295238D01*
X120638095Y-82752380D01*
X121438095Y-82752380D01*
X120638095Y-83133333D02*
X121438095Y-83133333D01*
X121057142Y-83133333D02*
X121057142Y-83590476D01*
X120638095Y-83590476D02*
X121438095Y-83590476D01*
X120778095Y-70649428D02*
X120778095Y-70268476D01*
X121578095Y-70268476D01*
X121197142Y-70916095D02*
X121197142Y-71182761D01*
X120778095Y-71297047D02*
X120778095Y-70916095D01*
X121578095Y-70916095D01*
X121578095Y-71297047D01*
X120778095Y-71639904D02*
X121578095Y-71639904D01*
X121578095Y-71830380D01*
X121540000Y-71944666D01*
X121463809Y-72020857D01*
X121387619Y-72058952D01*
X121235238Y-72097047D01*
X121120952Y-72097047D01*
X120968571Y-72058952D01*
X120892380Y-72020857D01*
X120816190Y-71944666D01*
X120778095Y-71830380D01*
X120778095Y-71639904D01*
X120258095Y-70420857D02*
X120258095Y-70497047D01*
X120220000Y-70573238D01*
X120181904Y-70611333D01*
X120105714Y-70649428D01*
X119953333Y-70687523D01*
X119762857Y-70687523D01*
X119610476Y-70649428D01*
X119534285Y-70611333D01*
X119496190Y-70573238D01*
X119458095Y-70497047D01*
X119458095Y-70420857D01*
X119496190Y-70344666D01*
X119534285Y-70306571D01*
X119610476Y-70268476D01*
X119762857Y-70230380D01*
X119953333Y-70230380D01*
X120105714Y-70268476D01*
X120181904Y-70306571D01*
X120220000Y-70344666D01*
X120258095Y-70420857D01*
X120258095Y-71182761D02*
X120258095Y-71258952D01*
X120220000Y-71335142D01*
X120181904Y-71373238D01*
X120105714Y-71411333D01*
X119953333Y-71449428D01*
X119762857Y-71449428D01*
X119610476Y-71411333D01*
X119534285Y-71373238D01*
X119496190Y-71335142D01*
X119458095Y-71258952D01*
X119458095Y-71182761D01*
X119496190Y-71106571D01*
X119534285Y-71068476D01*
X119610476Y-71030380D01*
X119762857Y-70992285D01*
X119953333Y-70992285D01*
X120105714Y-71030380D01*
X120181904Y-71068476D01*
X120220000Y-71106571D01*
X120258095Y-71182761D01*
X119762857Y-72401809D02*
X119762857Y-73011333D01*
X119991428Y-73392285D02*
X119762857Y-74001809D01*
X119534285Y-73392285D01*
X119877142Y-75258952D02*
X119877142Y-74992285D01*
X119458095Y-74992285D02*
X120258095Y-74992285D01*
X120258095Y-75373238D01*
X119458095Y-75678000D02*
X119991428Y-75678000D01*
X119839047Y-75678000D02*
X119915238Y-75716095D01*
X119953333Y-75754190D01*
X119991428Y-75830380D01*
X119991428Y-75906571D01*
X119496190Y-76478000D02*
X119458095Y-76401809D01*
X119458095Y-76249428D01*
X119496190Y-76173238D01*
X119572380Y-76135142D01*
X119877142Y-76135142D01*
X119953333Y-76173238D01*
X119991428Y-76249428D01*
X119991428Y-76401809D01*
X119953333Y-76478000D01*
X119877142Y-76516095D01*
X119800952Y-76516095D01*
X119724761Y-76135142D01*
X119496190Y-77163714D02*
X119458095Y-77087523D01*
X119458095Y-76935142D01*
X119496190Y-76858952D01*
X119572380Y-76820857D01*
X119877142Y-76820857D01*
X119953333Y-76858952D01*
X119991428Y-76935142D01*
X119991428Y-77087523D01*
X119953333Y-77163714D01*
X119877142Y-77201809D01*
X119800952Y-77201809D01*
X119724761Y-76820857D01*
X118938095Y-70420857D02*
X118938095Y-70497047D01*
X118900000Y-70573238D01*
X118861904Y-70611333D01*
X118785714Y-70649428D01*
X118633333Y-70687523D01*
X118442857Y-70687523D01*
X118290476Y-70649428D01*
X118214285Y-70611333D01*
X118176190Y-70573238D01*
X118138095Y-70497047D01*
X118138095Y-70420857D01*
X118176190Y-70344666D01*
X118214285Y-70306571D01*
X118290476Y-70268476D01*
X118442857Y-70230380D01*
X118633333Y-70230380D01*
X118785714Y-70268476D01*
X118861904Y-70306571D01*
X118900000Y-70344666D01*
X118938095Y-70420857D01*
X118138095Y-71449428D02*
X118138095Y-70992285D01*
X118138095Y-71220857D02*
X118938095Y-71220857D01*
X118823809Y-71144666D01*
X118747619Y-71068476D01*
X118709523Y-70992285D01*
X118442857Y-72401809D02*
X118442857Y-73011333D01*
X118671428Y-73392285D02*
X118442857Y-74001809D01*
X118214285Y-73392285D01*
X118214285Y-75449428D02*
X118176190Y-75411333D01*
X118138095Y-75297047D01*
X118138095Y-75220857D01*
X118176190Y-75106571D01*
X118252380Y-75030380D01*
X118328571Y-74992285D01*
X118480952Y-74954190D01*
X118595238Y-74954190D01*
X118747619Y-74992285D01*
X118823809Y-75030380D01*
X118900000Y-75106571D01*
X118938095Y-75220857D01*
X118938095Y-75297047D01*
X118900000Y-75411333D01*
X118861904Y-75449428D01*
X118938095Y-75716095D02*
X118138095Y-75906571D01*
X118709523Y-76058952D01*
X118138095Y-76211333D01*
X118938095Y-76401809D01*
X116818095Y-70687523D02*
X116818095Y-70230380D01*
X116818095Y-70458952D02*
X117618095Y-70458952D01*
X117503809Y-70382761D01*
X117427619Y-70306571D01*
X117389523Y-70230380D01*
X117618095Y-71182761D02*
X117618095Y-71258952D01*
X117580000Y-71335142D01*
X117541904Y-71373238D01*
X117465714Y-71411333D01*
X117313333Y-71449428D01*
X117122857Y-71449428D01*
X116970476Y-71411333D01*
X116894285Y-71373238D01*
X116856190Y-71335142D01*
X116818095Y-71258952D01*
X116818095Y-71182761D01*
X116856190Y-71106571D01*
X116894285Y-71068476D01*
X116970476Y-71030380D01*
X117122857Y-70992285D01*
X117313333Y-70992285D01*
X117465714Y-71030380D01*
X117541904Y-71068476D01*
X117580000Y-71106571D01*
X117618095Y-71182761D01*
X117122857Y-72401809D02*
X117122857Y-73011333D01*
X117351428Y-73392285D02*
X117122857Y-74001809D01*
X116894285Y-73392285D01*
X116894285Y-75449428D02*
X116856190Y-75411333D01*
X116818095Y-75297047D01*
X116818095Y-75220857D01*
X116856190Y-75106571D01*
X116932380Y-75030380D01*
X117008571Y-74992285D01*
X117160952Y-74954190D01*
X117275238Y-74954190D01*
X117427619Y-74992285D01*
X117503809Y-75030380D01*
X117580000Y-75106571D01*
X117618095Y-75220857D01*
X117618095Y-75297047D01*
X117580000Y-75411333D01*
X117541904Y-75449428D01*
X116894285Y-76249428D02*
X116856190Y-76211333D01*
X116818095Y-76097047D01*
X116818095Y-76020857D01*
X116856190Y-75906571D01*
X116932380Y-75830380D01*
X117008571Y-75792285D01*
X117160952Y-75754190D01*
X117275238Y-75754190D01*
X117427619Y-75792285D01*
X117503809Y-75830380D01*
X117580000Y-75906571D01*
X117618095Y-76020857D01*
X117618095Y-76097047D01*
X117580000Y-76211333D01*
X117541904Y-76249428D01*
X117618095Y-76516095D02*
X116818095Y-76706571D01*
X117389523Y-76858952D01*
X116818095Y-77011333D01*
X117618095Y-77201809D01*
X115498095Y-70687523D02*
X115498095Y-70230380D01*
X115498095Y-70458952D02*
X116298095Y-70458952D01*
X116183809Y-70382761D01*
X116107619Y-70306571D01*
X116069523Y-70230380D01*
X115498095Y-71449428D02*
X115498095Y-70992285D01*
X115498095Y-71220857D02*
X116298095Y-71220857D01*
X116183809Y-71144666D01*
X116107619Y-71068476D01*
X116069523Y-70992285D01*
X115802857Y-72401809D02*
X115802857Y-73011333D01*
X116031428Y-73392285D02*
X115802857Y-74001809D01*
X115574285Y-73392285D01*
X115917142Y-75258952D02*
X115879047Y-75373238D01*
X115840952Y-75411333D01*
X115764761Y-75449428D01*
X115650476Y-75449428D01*
X115574285Y-75411333D01*
X115536190Y-75373238D01*
X115498095Y-75297047D01*
X115498095Y-74992285D01*
X116298095Y-74992285D01*
X116298095Y-75258952D01*
X116260000Y-75335142D01*
X116221904Y-75373238D01*
X116145714Y-75411333D01*
X116069523Y-75411333D01*
X115993333Y-75373238D01*
X115955238Y-75335142D01*
X115917142Y-75258952D01*
X115917142Y-74992285D01*
X115498095Y-75792285D02*
X116031428Y-75792285D01*
X115879047Y-75792285D02*
X115955238Y-75830380D01*
X115993333Y-75868476D01*
X116031428Y-75944666D01*
X116031428Y-76020857D01*
X115498095Y-76630380D02*
X115917142Y-76630380D01*
X115993333Y-76592285D01*
X116031428Y-76516095D01*
X116031428Y-76363714D01*
X115993333Y-76287523D01*
X115536190Y-76630380D02*
X115498095Y-76554190D01*
X115498095Y-76363714D01*
X115536190Y-76287523D01*
X115612380Y-76249428D01*
X115688571Y-76249428D01*
X115764761Y-76287523D01*
X115802857Y-76363714D01*
X115802857Y-76554190D01*
X115840952Y-76630380D01*
X115498095Y-77011333D02*
X116298095Y-77011333D01*
X115802857Y-77087523D02*
X115498095Y-77316095D01*
X116031428Y-77316095D02*
X115726666Y-77011333D01*
X115536190Y-77963714D02*
X115498095Y-77887523D01*
X115498095Y-77735142D01*
X115536190Y-77658952D01*
X115612380Y-77620857D01*
X115917142Y-77620857D01*
X115993333Y-77658952D01*
X116031428Y-77735142D01*
X116031428Y-77887523D01*
X115993333Y-77963714D01*
X115917142Y-78001809D01*
X115840952Y-78001809D01*
X115764761Y-77620857D01*
D10*
X118947619Y-113171428D02*
X119947619Y-113171428D01*
X119233333Y-113504761D01*
X119947619Y-113838095D01*
X118947619Y-113838095D01*
X118947619Y-114457142D02*
X118995238Y-114361904D01*
X119042857Y-114314285D01*
X119138095Y-114266666D01*
X119423809Y-114266666D01*
X119519047Y-114314285D01*
X119566666Y-114361904D01*
X119614285Y-114457142D01*
X119614285Y-114600000D01*
X119566666Y-114695238D01*
X119519047Y-114742857D01*
X119423809Y-114790476D01*
X119138095Y-114790476D01*
X119042857Y-114742857D01*
X118995238Y-114695238D01*
X118947619Y-114600000D01*
X118947619Y-114457142D01*
X119614285Y-115076190D02*
X119614285Y-115457142D01*
X119947619Y-115219047D02*
X119090476Y-115219047D01*
X118995238Y-115266666D01*
X118947619Y-115361904D01*
X118947619Y-115457142D01*
X118947619Y-115933333D02*
X118995238Y-115838095D01*
X119042857Y-115790476D01*
X119138095Y-115742857D01*
X119423809Y-115742857D01*
X119519047Y-115790476D01*
X119566666Y-115838095D01*
X119614285Y-115933333D01*
X119614285Y-116076190D01*
X119566666Y-116171428D01*
X119519047Y-116219047D01*
X119423809Y-116266666D01*
X119138095Y-116266666D01*
X119042857Y-116219047D01*
X118995238Y-116171428D01*
X118947619Y-116076190D01*
X118947619Y-115933333D01*
X118947619Y-116695238D02*
X119614285Y-116695238D01*
X119423809Y-116695238D02*
X119519047Y-116742857D01*
X119566666Y-116790476D01*
X119614285Y-116885714D01*
X119614285Y-116980952D01*
X119328571Y-117314285D02*
X119328571Y-118076190D01*
X118947619Y-119076190D02*
X118947619Y-118504761D01*
X118947619Y-118790476D02*
X119947619Y-118790476D01*
X119804761Y-118695238D01*
X119709523Y-118600000D01*
X119661904Y-118504761D01*
D13*
X120714285Y-131266666D02*
X120676190Y-131228571D01*
X120638095Y-131114285D01*
X120638095Y-131038095D01*
X120676190Y-130923809D01*
X120752380Y-130847619D01*
X120828571Y-130809523D01*
X120980952Y-130771428D01*
X121095238Y-130771428D01*
X121247619Y-130809523D01*
X121323809Y-130847619D01*
X121400000Y-130923809D01*
X121438095Y-131038095D01*
X121438095Y-131114285D01*
X121400000Y-131228571D01*
X121361904Y-131266666D01*
X120866666Y-131571428D02*
X120866666Y-131952380D01*
X120638095Y-131495238D02*
X121438095Y-131761904D01*
X120638095Y-132028571D01*
X120638095Y-132295238D02*
X121438095Y-132295238D01*
X120638095Y-132752380D01*
X121438095Y-132752380D01*
X120638095Y-133133333D02*
X121438095Y-133133333D01*
X121057142Y-133133333D02*
X121057142Y-133590476D01*
X120638095Y-133590476D02*
X121438095Y-133590476D01*
X119614285Y-131261904D02*
X119576190Y-131223809D01*
X119538095Y-131109523D01*
X119538095Y-131033333D01*
X119576190Y-130919047D01*
X119652380Y-130842857D01*
X119728571Y-130804761D01*
X119880952Y-130766666D01*
X119995238Y-130766666D01*
X120147619Y-130804761D01*
X120223809Y-130842857D01*
X120300000Y-130919047D01*
X120338095Y-131033333D01*
X120338095Y-131109523D01*
X120300000Y-131223809D01*
X120261904Y-131261904D01*
X119766666Y-131566666D02*
X119766666Y-131947619D01*
X119538095Y-131490476D02*
X120338095Y-131757142D01*
X119538095Y-132023809D01*
X119538095Y-132290476D02*
X120338095Y-132290476D01*
X119538095Y-132747619D01*
X120338095Y-132747619D01*
X119538095Y-133509523D02*
X119538095Y-133128571D01*
X120338095Y-133128571D01*
D11*
X198678571Y-124392857D02*
X197178571Y-124392857D01*
X198250000Y-123892857D01*
X197178571Y-123392857D01*
X198678571Y-123392857D01*
X198678571Y-122464285D02*
X198607142Y-122607142D01*
X198535714Y-122678571D01*
X198392857Y-122750000D01*
X197964285Y-122750000D01*
X197821428Y-122678571D01*
X197750000Y-122607142D01*
X197678571Y-122464285D01*
X197678571Y-122250000D01*
X197750000Y-122107142D01*
X197821428Y-122035714D01*
X197964285Y-121964285D01*
X198392857Y-121964285D01*
X198535714Y-122035714D01*
X198607142Y-122107142D01*
X198678571Y-122250000D01*
X198678571Y-122464285D01*
X197678571Y-121535714D02*
X197678571Y-120964285D01*
X197178571Y-121321428D02*
X198464285Y-121321428D01*
X198607142Y-121250000D01*
X198678571Y-121107142D01*
X198678571Y-120964285D01*
X198678571Y-120250000D02*
X198607142Y-120392857D01*
X198535714Y-120464285D01*
X198392857Y-120535714D01*
X197964285Y-120535714D01*
X197821428Y-120464285D01*
X197750000Y-120392857D01*
X197678571Y-120250000D01*
X197678571Y-120035714D01*
X197750000Y-119892857D01*
X197821428Y-119821428D01*
X197964285Y-119750000D01*
X198392857Y-119750000D01*
X198535714Y-119821428D01*
X198607142Y-119892857D01*
X198678571Y-120035714D01*
X198678571Y-120250000D01*
X198678571Y-119107142D02*
X197678571Y-119107142D01*
X197964285Y-119107142D02*
X197821428Y-119035714D01*
X197750000Y-118964285D01*
X197678571Y-118821428D01*
X197678571Y-118678571D01*
X198107142Y-118178571D02*
X198107142Y-117035714D01*
X198678571Y-115535714D02*
X198678571Y-116392857D01*
X198678571Y-115964285D02*
X197178571Y-115964285D01*
X197392857Y-116107142D01*
X197535714Y-116250000D01*
X197607142Y-116392857D01*
X198678571Y-105392857D02*
X197178571Y-105392857D01*
X198250000Y-104892857D01*
X197178571Y-104392857D01*
X198678571Y-104392857D01*
X198678571Y-103464285D02*
X198607142Y-103607142D01*
X198535714Y-103678571D01*
X198392857Y-103750000D01*
X197964285Y-103750000D01*
X197821428Y-103678571D01*
X197750000Y-103607142D01*
X197678571Y-103464285D01*
X197678571Y-103250000D01*
X197750000Y-103107142D01*
X197821428Y-103035714D01*
X197964285Y-102964285D01*
X198392857Y-102964285D01*
X198535714Y-103035714D01*
X198607142Y-103107142D01*
X198678571Y-103250000D01*
X198678571Y-103464285D01*
X197678571Y-102535714D02*
X197678571Y-101964285D01*
X197178571Y-102321428D02*
X198464285Y-102321428D01*
X198607142Y-102250000D01*
X198678571Y-102107142D01*
X198678571Y-101964285D01*
X198678571Y-101250000D02*
X198607142Y-101392857D01*
X198535714Y-101464285D01*
X198392857Y-101535714D01*
X197964285Y-101535714D01*
X197821428Y-101464285D01*
X197750000Y-101392857D01*
X197678571Y-101250000D01*
X197678571Y-101035714D01*
X197750000Y-100892857D01*
X197821428Y-100821428D01*
X197964285Y-100750000D01*
X198392857Y-100750000D01*
X198535714Y-100821428D01*
X198607142Y-100892857D01*
X198678571Y-101035714D01*
X198678571Y-101250000D01*
X198678571Y-100107142D02*
X197678571Y-100107142D01*
X197964285Y-100107142D02*
X197821428Y-100035714D01*
X197750000Y-99964285D01*
X197678571Y-99821428D01*
X197678571Y-99678571D01*
X198107142Y-99178571D02*
X198107142Y-98035714D01*
X197178571Y-97035714D02*
X197178571Y-96892857D01*
X197250000Y-96750000D01*
X197321428Y-96678571D01*
X197464285Y-96607142D01*
X197750000Y-96535714D01*
X198107142Y-96535714D01*
X198392857Y-96607142D01*
X198535714Y-96678571D01*
X198607142Y-96750000D01*
X198678571Y-96892857D01*
X198678571Y-97035714D01*
X198607142Y-97178571D01*
X198535714Y-97250000D01*
X198392857Y-97321428D01*
X198107142Y-97392857D01*
X197750000Y-97392857D01*
X197464285Y-97321428D01*
X197321428Y-97250000D01*
X197250000Y-97178571D01*
X197178571Y-97035714D01*
D13*
X120778095Y-120649428D02*
X120778095Y-120268476D01*
X121578095Y-120268476D01*
X121197142Y-120916095D02*
X121197142Y-121182761D01*
X120778095Y-121297047D02*
X120778095Y-120916095D01*
X121578095Y-120916095D01*
X121578095Y-121297047D01*
X120778095Y-121639904D02*
X121578095Y-121639904D01*
X121578095Y-121830380D01*
X121540000Y-121944666D01*
X121463809Y-122020857D01*
X121387619Y-122058952D01*
X121235238Y-122097047D01*
X121120952Y-122097047D01*
X120968571Y-122058952D01*
X120892380Y-122020857D01*
X120816190Y-121944666D01*
X120778095Y-121830380D01*
X120778095Y-121639904D01*
X120258095Y-120420857D02*
X120258095Y-120497047D01*
X120220000Y-120573238D01*
X120181904Y-120611333D01*
X120105714Y-120649428D01*
X119953333Y-120687523D01*
X119762857Y-120687523D01*
X119610476Y-120649428D01*
X119534285Y-120611333D01*
X119496190Y-120573238D01*
X119458095Y-120497047D01*
X119458095Y-120420857D01*
X119496190Y-120344666D01*
X119534285Y-120306571D01*
X119610476Y-120268476D01*
X119762857Y-120230380D01*
X119953333Y-120230380D01*
X120105714Y-120268476D01*
X120181904Y-120306571D01*
X120220000Y-120344666D01*
X120258095Y-120420857D01*
X120258095Y-121182761D02*
X120258095Y-121258952D01*
X120220000Y-121335142D01*
X120181904Y-121373238D01*
X120105714Y-121411333D01*
X119953333Y-121449428D01*
X119762857Y-121449428D01*
X119610476Y-121411333D01*
X119534285Y-121373238D01*
X119496190Y-121335142D01*
X119458095Y-121258952D01*
X119458095Y-121182761D01*
X119496190Y-121106571D01*
X119534285Y-121068476D01*
X119610476Y-121030380D01*
X119762857Y-120992285D01*
X119953333Y-120992285D01*
X120105714Y-121030380D01*
X120181904Y-121068476D01*
X120220000Y-121106571D01*
X120258095Y-121182761D01*
X119762857Y-122401809D02*
X119762857Y-123011333D01*
X119991428Y-123392285D02*
X119762857Y-124001809D01*
X119534285Y-123392285D01*
X119877142Y-125258952D02*
X119877142Y-124992285D01*
X119458095Y-124992285D02*
X120258095Y-124992285D01*
X120258095Y-125373238D01*
X119458095Y-125678000D02*
X119991428Y-125678000D01*
X119839047Y-125678000D02*
X119915238Y-125716095D01*
X119953333Y-125754190D01*
X119991428Y-125830380D01*
X119991428Y-125906571D01*
X119496190Y-126478000D02*
X119458095Y-126401809D01*
X119458095Y-126249428D01*
X119496190Y-126173238D01*
X119572380Y-126135142D01*
X119877142Y-126135142D01*
X119953333Y-126173238D01*
X119991428Y-126249428D01*
X119991428Y-126401809D01*
X119953333Y-126478000D01*
X119877142Y-126516095D01*
X119800952Y-126516095D01*
X119724761Y-126135142D01*
X119496190Y-127163714D02*
X119458095Y-127087523D01*
X119458095Y-126935142D01*
X119496190Y-126858952D01*
X119572380Y-126820857D01*
X119877142Y-126820857D01*
X119953333Y-126858952D01*
X119991428Y-126935142D01*
X119991428Y-127087523D01*
X119953333Y-127163714D01*
X119877142Y-127201809D01*
X119800952Y-127201809D01*
X119724761Y-126820857D01*
X118938095Y-120420857D02*
X118938095Y-120497047D01*
X118900000Y-120573238D01*
X118861904Y-120611333D01*
X118785714Y-120649428D01*
X118633333Y-120687523D01*
X118442857Y-120687523D01*
X118290476Y-120649428D01*
X118214285Y-120611333D01*
X118176190Y-120573238D01*
X118138095Y-120497047D01*
X118138095Y-120420857D01*
X118176190Y-120344666D01*
X118214285Y-120306571D01*
X118290476Y-120268476D01*
X118442857Y-120230380D01*
X118633333Y-120230380D01*
X118785714Y-120268476D01*
X118861904Y-120306571D01*
X118900000Y-120344666D01*
X118938095Y-120420857D01*
X118138095Y-121449428D02*
X118138095Y-120992285D01*
X118138095Y-121220857D02*
X118938095Y-121220857D01*
X118823809Y-121144666D01*
X118747619Y-121068476D01*
X118709523Y-120992285D01*
X118442857Y-122401809D02*
X118442857Y-123011333D01*
X118671428Y-123392285D02*
X118442857Y-124001809D01*
X118214285Y-123392285D01*
X118214285Y-125449428D02*
X118176190Y-125411333D01*
X118138095Y-125297047D01*
X118138095Y-125220857D01*
X118176190Y-125106571D01*
X118252380Y-125030380D01*
X118328571Y-124992285D01*
X118480952Y-124954190D01*
X118595238Y-124954190D01*
X118747619Y-124992285D01*
X118823809Y-125030380D01*
X118900000Y-125106571D01*
X118938095Y-125220857D01*
X118938095Y-125297047D01*
X118900000Y-125411333D01*
X118861904Y-125449428D01*
X118938095Y-125716095D02*
X118138095Y-125906571D01*
X118709523Y-126058952D01*
X118138095Y-126211333D01*
X118938095Y-126401809D01*
X116818095Y-120687523D02*
X116818095Y-120230380D01*
X116818095Y-120458952D02*
X117618095Y-120458952D01*
X117503809Y-120382761D01*
X117427619Y-120306571D01*
X117389523Y-120230380D01*
X117618095Y-121182761D02*
X117618095Y-121258952D01*
X117580000Y-121335142D01*
X117541904Y-121373238D01*
X117465714Y-121411333D01*
X117313333Y-121449428D01*
X117122857Y-121449428D01*
X116970476Y-121411333D01*
X116894285Y-121373238D01*
X116856190Y-121335142D01*
X116818095Y-121258952D01*
X116818095Y-121182761D01*
X116856190Y-121106571D01*
X116894285Y-121068476D01*
X116970476Y-121030380D01*
X117122857Y-120992285D01*
X117313333Y-120992285D01*
X117465714Y-121030380D01*
X117541904Y-121068476D01*
X117580000Y-121106571D01*
X117618095Y-121182761D01*
X117122857Y-122401809D02*
X117122857Y-123011333D01*
X117351428Y-123392285D02*
X117122857Y-124001809D01*
X116894285Y-123392285D01*
X116894285Y-125449428D02*
X116856190Y-125411333D01*
X116818095Y-125297047D01*
X116818095Y-125220857D01*
X116856190Y-125106571D01*
X116932380Y-125030380D01*
X117008571Y-124992285D01*
X117160952Y-124954190D01*
X117275238Y-124954190D01*
X117427619Y-124992285D01*
X117503809Y-125030380D01*
X117580000Y-125106571D01*
X117618095Y-125220857D01*
X117618095Y-125297047D01*
X117580000Y-125411333D01*
X117541904Y-125449428D01*
X116894285Y-126249428D02*
X116856190Y-126211333D01*
X116818095Y-126097047D01*
X116818095Y-126020857D01*
X116856190Y-125906571D01*
X116932380Y-125830380D01*
X117008571Y-125792285D01*
X117160952Y-125754190D01*
X117275238Y-125754190D01*
X117427619Y-125792285D01*
X117503809Y-125830380D01*
X117580000Y-125906571D01*
X117618095Y-126020857D01*
X117618095Y-126097047D01*
X117580000Y-126211333D01*
X117541904Y-126249428D01*
X117618095Y-126516095D02*
X116818095Y-126706571D01*
X117389523Y-126858952D01*
X116818095Y-127011333D01*
X117618095Y-127201809D01*
X115498095Y-120687523D02*
X115498095Y-120230380D01*
X115498095Y-120458952D02*
X116298095Y-120458952D01*
X116183809Y-120382761D01*
X116107619Y-120306571D01*
X116069523Y-120230380D01*
X115498095Y-121449428D02*
X115498095Y-120992285D01*
X115498095Y-121220857D02*
X116298095Y-121220857D01*
X116183809Y-121144666D01*
X116107619Y-121068476D01*
X116069523Y-120992285D01*
X115802857Y-122401809D02*
X115802857Y-123011333D01*
X116031428Y-123392285D02*
X115802857Y-124001809D01*
X115574285Y-123392285D01*
X115917142Y-125258952D02*
X115879047Y-125373238D01*
X115840952Y-125411333D01*
X115764761Y-125449428D01*
X115650476Y-125449428D01*
X115574285Y-125411333D01*
X115536190Y-125373238D01*
X115498095Y-125297047D01*
X115498095Y-124992285D01*
X116298095Y-124992285D01*
X116298095Y-125258952D01*
X116260000Y-125335142D01*
X116221904Y-125373238D01*
X116145714Y-125411333D01*
X116069523Y-125411333D01*
X115993333Y-125373238D01*
X115955238Y-125335142D01*
X115917142Y-125258952D01*
X115917142Y-124992285D01*
X115498095Y-125792285D02*
X116031428Y-125792285D01*
X115879047Y-125792285D02*
X115955238Y-125830380D01*
X115993333Y-125868476D01*
X116031428Y-125944666D01*
X116031428Y-126020857D01*
X115498095Y-126630380D02*
X115917142Y-126630380D01*
X115993333Y-126592285D01*
X116031428Y-126516095D01*
X116031428Y-126363714D01*
X115993333Y-126287523D01*
X115536190Y-126630380D02*
X115498095Y-126554190D01*
X115498095Y-126363714D01*
X115536190Y-126287523D01*
X115612380Y-126249428D01*
X115688571Y-126249428D01*
X115764761Y-126287523D01*
X115802857Y-126363714D01*
X115802857Y-126554190D01*
X115840952Y-126630380D01*
X115498095Y-127011333D02*
X116298095Y-127011333D01*
X115802857Y-127087523D02*
X115498095Y-127316095D01*
X116031428Y-127316095D02*
X115726666Y-127011333D01*
X115536190Y-127963714D02*
X115498095Y-127887523D01*
X115498095Y-127735142D01*
X115536190Y-127658952D01*
X115612380Y-127620857D01*
X115917142Y-127620857D01*
X115993333Y-127658952D01*
X116031428Y-127735142D01*
X116031428Y-127887523D01*
X115993333Y-127963714D01*
X115917142Y-128001809D01*
X115840952Y-128001809D01*
X115764761Y-127620857D01*
D10*
X118747619Y-105071428D02*
X119747619Y-105071428D01*
X119033333Y-105404761D01*
X119747619Y-105738095D01*
X118747619Y-105738095D01*
X118747619Y-106357142D02*
X118795238Y-106261904D01*
X118842857Y-106214285D01*
X118938095Y-106166666D01*
X119223809Y-106166666D01*
X119319047Y-106214285D01*
X119366666Y-106261904D01*
X119414285Y-106357142D01*
X119414285Y-106500000D01*
X119366666Y-106595238D01*
X119319047Y-106642857D01*
X119223809Y-106690476D01*
X118938095Y-106690476D01*
X118842857Y-106642857D01*
X118795238Y-106595238D01*
X118747619Y-106500000D01*
X118747619Y-106357142D01*
X119414285Y-106976190D02*
X119414285Y-107357142D01*
X119747619Y-107119047D02*
X118890476Y-107119047D01*
X118795238Y-107166666D01*
X118747619Y-107261904D01*
X118747619Y-107357142D01*
X118747619Y-107833333D02*
X118795238Y-107738095D01*
X118842857Y-107690476D01*
X118938095Y-107642857D01*
X119223809Y-107642857D01*
X119319047Y-107690476D01*
X119366666Y-107738095D01*
X119414285Y-107833333D01*
X119414285Y-107976190D01*
X119366666Y-108071428D01*
X119319047Y-108119047D01*
X119223809Y-108166666D01*
X118938095Y-108166666D01*
X118842857Y-108119047D01*
X118795238Y-108071428D01*
X118747619Y-107976190D01*
X118747619Y-107833333D01*
X118747619Y-108595238D02*
X119414285Y-108595238D01*
X119223809Y-108595238D02*
X119319047Y-108642857D01*
X119366666Y-108690476D01*
X119414285Y-108785714D01*
X119414285Y-108880952D01*
X119128571Y-109214285D02*
X119128571Y-109976190D01*
X119747619Y-110642857D02*
X119747619Y-110738095D01*
X119700000Y-110833333D01*
X119652380Y-110880952D01*
X119557142Y-110928571D01*
X119366666Y-110976190D01*
X119128571Y-110976190D01*
X118938095Y-110928571D01*
X118842857Y-110880952D01*
X118795238Y-110833333D01*
X118747619Y-110738095D01*
X118747619Y-110642857D01*
X118795238Y-110547619D01*
X118842857Y-110500000D01*
X118938095Y-110452380D01*
X119128571Y-110404761D01*
X119366666Y-110404761D01*
X119557142Y-110452380D01*
X119652380Y-110500000D01*
X119700000Y-110547619D01*
X119747619Y-110642857D01*
D12*
X150379085Y-93866628D02*
X150379085Y-93266628D01*
X150721942Y-93866628D01*
X150721942Y-93266628D01*
X151350514Y-93866628D02*
X151150514Y-93580914D01*
X151007657Y-93866628D02*
X151007657Y-93266628D01*
X151236228Y-93266628D01*
X151293371Y-93295200D01*
X151321942Y-93323771D01*
X151350514Y-93380914D01*
X151350514Y-93466628D01*
X151321942Y-93523771D01*
X151293371Y-93552342D01*
X151236228Y-93580914D01*
X151007657Y-93580914D01*
X151579085Y-93838057D02*
X151664800Y-93866628D01*
X151807657Y-93866628D01*
X151864800Y-93838057D01*
X151893371Y-93809485D01*
X151921942Y-93752342D01*
X151921942Y-93695200D01*
X151893371Y-93638057D01*
X151864800Y-93609485D01*
X151807657Y-93580914D01*
X151693371Y-93552342D01*
X151636228Y-93523771D01*
X151607657Y-93495200D01*
X151579085Y-93438057D01*
X151579085Y-93380914D01*
X151607657Y-93323771D01*
X151636228Y-93295200D01*
X151693371Y-93266628D01*
X151836228Y-93266628D01*
X151921942Y-93295200D01*
X152093371Y-93266628D02*
X152436228Y-93266628D01*
X152264800Y-93866628D02*
X152264800Y-93266628D01*
X147593371Y-93238057D02*
X147679085Y-93266628D01*
X147821942Y-93266628D01*
X147879085Y-93238057D01*
X147907657Y-93209485D01*
X147936228Y-93152342D01*
X147936228Y-93095200D01*
X147907657Y-93038057D01*
X147879085Y-93009485D01*
X147821942Y-92980914D01*
X147707657Y-92952342D01*
X147650514Y-92923771D01*
X147621942Y-92895200D01*
X147593371Y-92838057D01*
X147593371Y-92780914D01*
X147621942Y-92723771D01*
X147650514Y-92695200D01*
X147707657Y-92666628D01*
X147850514Y-92666628D01*
X147936228Y-92695200D01*
X148136228Y-92666628D02*
X148279085Y-93266628D01*
X148393371Y-92838057D01*
X148507657Y-93266628D01*
X148650514Y-92666628D01*
X148879085Y-93266628D02*
X148879085Y-92666628D01*
X149021942Y-92666628D01*
X149107657Y-92695200D01*
X149164800Y-92752342D01*
X149193371Y-92809485D01*
X149221942Y-92923771D01*
X149221942Y-93009485D01*
X149193371Y-93123771D01*
X149164800Y-93180914D01*
X149107657Y-93238057D01*
X149021942Y-93266628D01*
X148879085Y-93266628D01*
X149479085Y-93266628D02*
X149479085Y-92666628D01*
X149879085Y-92666628D02*
X149993371Y-92666628D01*
X150050514Y-92695200D01*
X150107657Y-92752342D01*
X150136228Y-92866628D01*
X150136228Y-93066628D01*
X150107657Y-93180914D01*
X150050514Y-93238057D01*
X149993371Y-93266628D01*
X149879085Y-93266628D01*
X149821942Y-93238057D01*
X149764800Y-93180914D01*
X149736228Y-93066628D01*
X149736228Y-92866628D01*
X149764800Y-92752342D01*
X149821942Y-92695200D01*
X149879085Y-92666628D01*
X142607657Y-93238057D02*
X142693371Y-93266628D01*
X142836228Y-93266628D01*
X142893371Y-93238057D01*
X142921942Y-93209485D01*
X142950514Y-93152342D01*
X142950514Y-93095200D01*
X142921942Y-93038057D01*
X142893371Y-93009485D01*
X142836228Y-92980914D01*
X142721942Y-92952342D01*
X142664800Y-92923771D01*
X142636228Y-92895200D01*
X142607657Y-92838057D01*
X142607657Y-92780914D01*
X142636228Y-92723771D01*
X142664800Y-92695200D01*
X142721942Y-92666628D01*
X142864800Y-92666628D01*
X142950514Y-92695200D01*
X143150514Y-92666628D02*
X143293371Y-93266628D01*
X143407657Y-92838057D01*
X143521942Y-93266628D01*
X143664800Y-92666628D01*
X144236228Y-93209485D02*
X144207657Y-93238057D01*
X144121942Y-93266628D01*
X144064800Y-93266628D01*
X143979085Y-93238057D01*
X143921942Y-93180914D01*
X143893371Y-93123771D01*
X143864800Y-93009485D01*
X143864800Y-92923771D01*
X143893371Y-92809485D01*
X143921942Y-92752342D01*
X143979085Y-92695200D01*
X144064800Y-92666628D01*
X144121942Y-92666628D01*
X144207657Y-92695200D01*
X144236228Y-92723771D01*
X144779085Y-93266628D02*
X144493371Y-93266628D01*
X144493371Y-92666628D01*
X144979085Y-93266628D02*
X144979085Y-92666628D01*
X145321942Y-93266628D02*
X145064800Y-92923771D01*
X145321942Y-92666628D02*
X144979085Y-93009485D01*
X145907657Y-93295200D02*
X145850514Y-93266628D01*
X145764800Y-93266628D01*
X145679085Y-93295200D01*
X145621942Y-93352342D01*
X145593371Y-93409485D01*
X145564800Y-93523771D01*
X145564800Y-93609485D01*
X145593371Y-93723771D01*
X145621942Y-93780914D01*
X145679085Y-93838057D01*
X145764800Y-93866628D01*
X145821942Y-93866628D01*
X145907657Y-93838057D01*
X145936228Y-93809485D01*
X145936228Y-93609485D01*
X145821942Y-93609485D01*
X146193371Y-93866628D02*
X146193371Y-93266628D01*
X146536228Y-93866628D01*
X146536228Y-93266628D01*
X146821942Y-93866628D02*
X146821942Y-93266628D01*
X146964800Y-93266628D01*
X147050514Y-93295200D01*
X147107657Y-93352342D01*
X147136228Y-93409485D01*
X147164800Y-93523771D01*
X147164800Y-93609485D01*
X147136228Y-93723771D01*
X147107657Y-93780914D01*
X147050514Y-93838057D01*
X146964800Y-93866628D01*
X146821942Y-93866628D01*
X140407657Y-93638057D02*
X140864800Y-93638057D01*
X140636228Y-93866628D02*
X140636228Y-93409485D01*
X141093371Y-93266628D02*
X141464800Y-93266628D01*
X141264800Y-93495200D01*
X141350514Y-93495200D01*
X141407657Y-93523771D01*
X141436228Y-93552342D01*
X141464800Y-93609485D01*
X141464800Y-93752342D01*
X141436228Y-93809485D01*
X141407657Y-93838057D01*
X141350514Y-93866628D01*
X141179085Y-93866628D01*
X141121942Y-93838057D01*
X141093371Y-93809485D01*
X141636228Y-93266628D02*
X141836228Y-93866628D01*
X142036228Y-93266628D01*
X142179085Y-93266628D02*
X142550514Y-93266628D01*
X142350514Y-93495200D01*
X142436228Y-93495200D01*
X142493371Y-93523771D01*
X142521942Y-93552342D01*
X142550514Y-93609485D01*
X142550514Y-93752342D01*
X142521942Y-93809485D01*
X142493371Y-93838057D01*
X142436228Y-93866628D01*
X142264800Y-93866628D01*
X142207657Y-93838057D01*
X142179085Y-93809485D01*
D10*
X170382380Y-91282142D02*
X170334761Y-91329761D01*
X170191904Y-91377380D01*
X170096666Y-91377380D01*
X169953809Y-91329761D01*
X169858571Y-91234523D01*
X169810952Y-91139285D01*
X169763333Y-90948809D01*
X169763333Y-90805952D01*
X169810952Y-90615476D01*
X169858571Y-90520238D01*
X169953809Y-90425000D01*
X170096666Y-90377380D01*
X170191904Y-90377380D01*
X170334761Y-90425000D01*
X170382380Y-90472619D01*
X170763333Y-91091666D02*
X171239523Y-91091666D01*
X170668095Y-91377380D02*
X171001428Y-90377380D01*
X171334761Y-91377380D01*
X171668095Y-91377380D02*
X171668095Y-90377380D01*
X172239523Y-91377380D01*
X172239523Y-90377380D01*
X173477619Y-91377380D02*
X173477619Y-90377380D01*
X173477619Y-90853571D02*
X174049047Y-90853571D01*
X174049047Y-91377380D02*
X174049047Y-90377380D01*
X174525238Y-90996428D02*
X175287142Y-90996428D01*
X176096666Y-90853571D02*
X176239523Y-90901190D01*
X176287142Y-90948809D01*
X176334761Y-91044047D01*
X176334761Y-91186904D01*
X176287142Y-91282142D01*
X176239523Y-91329761D01*
X176144285Y-91377380D01*
X175763333Y-91377380D01*
X175763333Y-90377380D01*
X176096666Y-90377380D01*
X176191904Y-90425000D01*
X176239523Y-90472619D01*
X176287142Y-90567857D01*
X176287142Y-90663095D01*
X176239523Y-90758333D01*
X176191904Y-90805952D01*
X176096666Y-90853571D01*
X175763333Y-90853571D01*
X176763333Y-91377380D02*
X176763333Y-90710714D01*
X176763333Y-90901190D02*
X176810952Y-90805952D01*
X176858571Y-90758333D01*
X176953809Y-90710714D01*
X177049047Y-90710714D01*
X177382380Y-91377380D02*
X177382380Y-90710714D01*
X177382380Y-90377380D02*
X177334761Y-90425000D01*
X177382380Y-90472619D01*
X177430000Y-90425000D01*
X177382380Y-90377380D01*
X177382380Y-90472619D01*
X178287142Y-91377380D02*
X178287142Y-90377380D01*
X178287142Y-91329761D02*
X178191904Y-91377380D01*
X178001428Y-91377380D01*
X177906190Y-91329761D01*
X177858571Y-91282142D01*
X177810952Y-91186904D01*
X177810952Y-90901190D01*
X177858571Y-90805952D01*
X177906190Y-90758333D01*
X178001428Y-90710714D01*
X178191904Y-90710714D01*
X178287142Y-90758333D01*
X179191904Y-90710714D02*
X179191904Y-91520238D01*
X179144285Y-91615476D01*
X179096666Y-91663095D01*
X179001428Y-91710714D01*
X178858571Y-91710714D01*
X178763333Y-91663095D01*
X179191904Y-91329761D02*
X179096666Y-91377380D01*
X178906190Y-91377380D01*
X178810952Y-91329761D01*
X178763333Y-91282142D01*
X178715714Y-91186904D01*
X178715714Y-90901190D01*
X178763333Y-90805952D01*
X178810952Y-90758333D01*
X178906190Y-90710714D01*
X179096666Y-90710714D01*
X179191904Y-90758333D01*
X180049047Y-91329761D02*
X179953809Y-91377380D01*
X179763333Y-91377380D01*
X179668095Y-91329761D01*
X179620476Y-91234523D01*
X179620476Y-90853571D01*
X179668095Y-90758333D01*
X179763333Y-90710714D01*
X179953809Y-90710714D01*
X180049047Y-90758333D01*
X180096666Y-90853571D01*
X180096666Y-90948809D01*
X179620476Y-91044047D01*
X181287142Y-91377380D02*
X181287142Y-90377380D01*
X181525238Y-90377380D01*
X181668095Y-90425000D01*
X181763333Y-90520238D01*
X181810952Y-90615476D01*
X181858571Y-90805952D01*
X181858571Y-90948809D01*
X181810952Y-91139285D01*
X181763333Y-91234523D01*
X181668095Y-91329761D01*
X181525238Y-91377380D01*
X181287142Y-91377380D01*
X182715714Y-90710714D02*
X182715714Y-91377380D01*
X182287142Y-90710714D02*
X182287142Y-91234523D01*
X182334761Y-91329761D01*
X182430000Y-91377380D01*
X182572857Y-91377380D01*
X182668095Y-91329761D01*
X182715714Y-91282142D01*
X183620476Y-91377380D02*
X183620476Y-90853571D01*
X183572857Y-90758333D01*
X183477619Y-90710714D01*
X183287142Y-90710714D01*
X183191904Y-90758333D01*
X183620476Y-91329761D02*
X183525238Y-91377380D01*
X183287142Y-91377380D01*
X183191904Y-91329761D01*
X183144285Y-91234523D01*
X183144285Y-91139285D01*
X183191904Y-91044047D01*
X183287142Y-90996428D01*
X183525238Y-90996428D01*
X183620476Y-90948809D01*
X184239523Y-91377380D02*
X184144285Y-91329761D01*
X184096666Y-91234523D01*
X184096666Y-90377380D01*
X185382380Y-91377380D02*
X185382380Y-90377380D01*
X185715714Y-91091666D01*
X186049047Y-90377380D01*
X186049047Y-91377380D01*
X186525238Y-91377380D02*
X186525238Y-90377380D01*
X186763333Y-90377380D01*
X186906190Y-90425000D01*
X187001428Y-90520238D01*
X187049047Y-90615476D01*
X187096666Y-90805952D01*
X187096666Y-90948809D01*
X187049047Y-91139285D01*
X187001428Y-91234523D01*
X186906190Y-91329761D01*
X186763333Y-91377380D01*
X186525238Y-91377380D01*
X173549047Y-93027380D02*
X173549047Y-92027380D01*
X173930000Y-92027380D01*
X174025238Y-92075000D01*
X174072857Y-92122619D01*
X174120476Y-92217857D01*
X174120476Y-92360714D01*
X174072857Y-92455952D01*
X174025238Y-92503571D01*
X173930000Y-92551190D01*
X173549047Y-92551190D01*
X174549047Y-93027380D02*
X174549047Y-92360714D01*
X174549047Y-92551190D02*
X174596666Y-92455952D01*
X174644285Y-92408333D01*
X174739523Y-92360714D01*
X174834761Y-92360714D01*
X175310952Y-93027380D02*
X175215714Y-92979761D01*
X175168095Y-92932142D01*
X175120476Y-92836904D01*
X175120476Y-92551190D01*
X175168095Y-92455952D01*
X175215714Y-92408333D01*
X175310952Y-92360714D01*
X175453809Y-92360714D01*
X175549047Y-92408333D01*
X175596666Y-92455952D01*
X175644285Y-92551190D01*
X175644285Y-92836904D01*
X175596666Y-92932142D01*
X175549047Y-92979761D01*
X175453809Y-93027380D01*
X175310952Y-93027380D01*
X175930000Y-92360714D02*
X176310952Y-92360714D01*
X176072857Y-92027380D02*
X176072857Y-92884523D01*
X176120476Y-92979761D01*
X176215714Y-93027380D01*
X176310952Y-93027380D01*
X176787142Y-93027380D02*
X176691904Y-92979761D01*
X176644285Y-92932142D01*
X176596666Y-92836904D01*
X176596666Y-92551190D01*
X176644285Y-92455952D01*
X176691904Y-92408333D01*
X176787142Y-92360714D01*
X176930000Y-92360714D01*
X177025238Y-92408333D01*
X177072857Y-92455952D01*
X177120476Y-92551190D01*
X177120476Y-92836904D01*
X177072857Y-92932142D01*
X177025238Y-92979761D01*
X176930000Y-93027380D01*
X176787142Y-93027380D01*
X177406190Y-92360714D02*
X177787142Y-92360714D01*
X177549047Y-92027380D02*
X177549047Y-92884523D01*
X177596666Y-92979761D01*
X177691904Y-93027380D01*
X177787142Y-93027380D01*
X178025238Y-92360714D02*
X178263333Y-93027380D01*
X178501428Y-92360714D02*
X178263333Y-93027380D01*
X178168095Y-93265476D01*
X178120476Y-93313095D01*
X178025238Y-93360714D01*
X178882380Y-92360714D02*
X178882380Y-93360714D01*
X178882380Y-92408333D02*
X178977619Y-92360714D01*
X179168095Y-92360714D01*
X179263333Y-92408333D01*
X179310952Y-92455952D01*
X179358571Y-92551190D01*
X179358571Y-92836904D01*
X179310952Y-92932142D01*
X179263333Y-92979761D01*
X179168095Y-93027380D01*
X178977619Y-93027380D01*
X178882380Y-92979761D01*
X180168095Y-92979761D02*
X180072857Y-93027380D01*
X179882380Y-93027380D01*
X179787142Y-92979761D01*
X179739523Y-92884523D01*
X179739523Y-92503571D01*
X179787142Y-92408333D01*
X179882380Y-92360714D01*
X180072857Y-92360714D01*
X180168095Y-92408333D01*
X180215714Y-92503571D01*
X180215714Y-92598809D01*
X179739523Y-92694047D01*
X181930000Y-93027380D02*
X181358571Y-93027380D01*
X181644285Y-93027380D02*
X181644285Y-92027380D01*
X181549047Y-92170238D01*
X181453809Y-92265476D01*
X181358571Y-92313095D01*
X182358571Y-92932142D02*
X182406190Y-92979761D01*
X182358571Y-93027380D01*
X182310952Y-92979761D01*
X182358571Y-92932142D01*
X182358571Y-93027380D01*
X182787142Y-92122619D02*
X182834761Y-92075000D01*
X182930000Y-92027380D01*
X183168095Y-92027380D01*
X183263333Y-92075000D01*
X183310952Y-92122619D01*
X183358571Y-92217857D01*
X183358571Y-92313095D01*
X183310952Y-92455952D01*
X182739523Y-93027380D01*
X183358571Y-93027380D01*
X118967000Y-131305495D02*
X119014619Y-131210257D01*
X119014619Y-131067400D01*
X118967000Y-130924542D01*
X118871761Y-130829304D01*
X118776523Y-130781685D01*
X118586047Y-130734066D01*
X118443190Y-130734066D01*
X118252714Y-130781685D01*
X118157476Y-130829304D01*
X118062238Y-130924542D01*
X118014619Y-131067400D01*
X118014619Y-131162638D01*
X118062238Y-131305495D01*
X118109857Y-131353114D01*
X118443190Y-131353114D01*
X118443190Y-131162638D01*
X118014619Y-131781685D02*
X119014619Y-131781685D01*
X118014619Y-132353114D01*
X119014619Y-132353114D01*
X118014619Y-132829304D02*
X119014619Y-132829304D01*
X119014619Y-133067400D01*
X118967000Y-133210257D01*
X118871761Y-133305495D01*
X118776523Y-133353114D01*
X118586047Y-133400733D01*
X118443190Y-133400733D01*
X118252714Y-133353114D01*
X118157476Y-133305495D01*
X118062238Y-133210257D01*
X118014619Y-133067400D01*
X118014619Y-132829304D01*
X116363571Y-130502285D02*
X116363571Y-131264190D01*
X115982619Y-130883238D02*
X116744523Y-130883238D01*
X116982619Y-132216571D02*
X116982619Y-131740380D01*
X116506428Y-131692761D01*
X116554047Y-131740380D01*
X116601666Y-131835619D01*
X116601666Y-132073714D01*
X116554047Y-132168952D01*
X116506428Y-132216571D01*
X116411190Y-132264190D01*
X116173095Y-132264190D01*
X116077857Y-132216571D01*
X116030238Y-132168952D01*
X115982619Y-132073714D01*
X115982619Y-131835619D01*
X116030238Y-131740380D01*
X116077857Y-131692761D01*
X116982619Y-132549904D02*
X115982619Y-132883238D01*
X116982619Y-133216571D01*
D13*
X143058578Y-67004000D02*
X142541422Y-67004000D01*
X143058578Y-65584000D02*
X142541422Y-65584000D01*
X152928000Y-71003922D02*
X152928000Y-71521078D01*
X154348000Y-71003922D02*
X154348000Y-71521078D01*
X154402000Y-57058578D02*
X154402000Y-56541422D01*
X152982000Y-57058578D02*
X152982000Y-56541422D01*
X123510000Y-72203922D02*
X123510000Y-72721078D01*
X122090000Y-72203922D02*
X122090000Y-72721078D01*
X123510000Y-77941422D02*
X123510000Y-78458578D01*
X122090000Y-77941422D02*
X122090000Y-78458578D01*
X154348000Y-76121078D02*
X154348000Y-75603922D01*
X152928000Y-76121078D02*
X152928000Y-75603922D01*
X154410000Y-61821078D02*
X154410000Y-61303922D01*
X152990000Y-61821078D02*
X152990000Y-61303922D01*
D14*
X149447000Y-63474000D02*
X147972000Y-63474000D01*
D13*
X125240000Y-63687221D02*
X125240000Y-64012779D01*
X126260000Y-63687221D02*
X126260000Y-64012779D01*
X168037221Y-60210000D02*
X168362779Y-60210000D01*
X168037221Y-59190000D02*
X168362779Y-59190000D01*
X137324279Y-59490000D02*
X136998721Y-59490000D01*
X137324279Y-60510000D02*
X136998721Y-60510000D01*
X117645500Y-63983000D02*
X115360500Y-63983000D01*
X115360500Y-63983000D02*
X115360500Y-65453000D01*
X115360500Y-65453000D02*
X117645500Y-65453000D01*
X168037221Y-79310000D02*
X168362779Y-79310000D01*
X168037221Y-78290000D02*
X168362779Y-78290000D01*
X193049721Y-41610000D02*
X193375279Y-41610000D01*
X193049721Y-40590000D02*
X193375279Y-40590000D01*
X149112000Y-51081000D02*
X146827000Y-51081000D01*
X146827000Y-51081000D02*
X146827000Y-52551000D01*
X146827000Y-52551000D02*
X149112000Y-52551000D01*
X137324279Y-62240000D02*
X136998721Y-62240000D01*
X137324279Y-63260000D02*
X136998721Y-63260000D01*
X139460000Y-52891422D02*
X139460000Y-53408578D01*
X138040000Y-52891422D02*
X138040000Y-53408578D01*
D14*
X115838000Y-50694000D02*
X115838000Y-43894000D01*
X115838000Y-43894000D02*
X126938000Y-43894000D01*
X126938000Y-43894000D02*
X126938000Y-50694000D01*
X126938000Y-50694000D02*
X115838000Y-50694000D01*
X116828000Y-52644000D02*
X116828000Y-51044000D01*
D13*
X131460000Y-78310000D02*
X131460000Y-77050000D01*
X131460000Y-71490000D02*
X131460000Y-72750000D01*
X127700000Y-78310000D02*
X131460000Y-78310000D01*
X125450000Y-71490000D02*
X131460000Y-71490000D01*
X165175279Y-60890000D02*
X164849721Y-60890000D01*
X165175279Y-61910000D02*
X164849721Y-61910000D01*
X168775279Y-41790000D02*
X168449721Y-41790000D01*
X168775279Y-42810000D02*
X168449721Y-42810000D01*
X188850279Y-40990000D02*
X188524721Y-40990000D01*
X188850279Y-42010000D02*
X188524721Y-42010000D01*
X189103279Y-60090000D02*
X188777721Y-60090000D01*
X189103279Y-61110000D02*
X188777721Y-61110000D01*
X117645500Y-59209000D02*
X115360500Y-59209000D01*
X115360500Y-59209000D02*
X115360500Y-60679000D01*
X115360500Y-60679000D02*
X117645500Y-60679000D01*
X138960000Y-67341422D02*
X138960000Y-67858578D01*
X137540000Y-67341422D02*
X137540000Y-67858578D01*
X117620000Y-56161000D02*
X115335000Y-56161000D01*
X115335000Y-56161000D02*
X115335000Y-57631000D01*
X115335000Y-57631000D02*
X117620000Y-57631000D01*
X137298779Y-74240000D02*
X136973221Y-74240000D01*
X137298779Y-75260000D02*
X136973221Y-75260000D01*
X188463521Y-78990000D02*
X188789079Y-78990000D01*
X188463521Y-80010000D02*
X188789079Y-80010000D01*
X149112000Y-65559000D02*
X146827000Y-65559000D01*
X146827000Y-65559000D02*
X146827000Y-67029000D01*
X146827000Y-67029000D02*
X149112000Y-67029000D01*
X137324279Y-71275000D02*
X136998721Y-71275000D01*
X137324279Y-72295000D02*
X136998721Y-72295000D01*
X137298779Y-76990000D02*
X136973221Y-76990000D01*
X137298779Y-78010000D02*
X136973221Y-78010000D01*
X137324279Y-56636000D02*
X136998721Y-56636000D01*
X137324279Y-57656000D02*
X136998721Y-57656000D01*
X143096078Y-51106000D02*
X142578922Y-51106000D01*
X143096078Y-52526000D02*
X142578922Y-52526000D01*
D14*
X149447000Y-77952000D02*
X147972000Y-77952000D01*
D13*
X122250000Y-66320000D02*
X121450000Y-66320000D01*
X122250000Y-62880000D02*
X121450000Y-62880000D01*
X199670000Y-83950000D02*
X199670000Y-89750000D01*
X128370000Y-83950000D02*
X128370000Y-89750000D01*
X128370000Y-89750000D02*
X199670000Y-89750000D01*
X199670000Y-83950000D02*
X128370000Y-83950000D01*
X115270000Y-89750000D02*
X115270000Y-83950000D01*
X126570000Y-89750000D02*
X115270000Y-89750000D01*
X126570000Y-83950000D02*
X126570000Y-89750000D01*
X115270000Y-83950000D02*
X126570000Y-83950000D01*
X128370000Y-80750000D02*
X128370000Y-83950000D01*
X126570000Y-80750000D02*
X128370000Y-80750000D01*
X126570000Y-83950000D02*
X126570000Y-80750000D01*
X117645500Y-67031000D02*
X115360500Y-67031000D01*
X115360500Y-67031000D02*
X115360500Y-68501000D01*
X115360500Y-68501000D02*
X117645500Y-68501000D01*
X131259400Y-43870000D02*
X131259400Y-46530000D01*
X136399400Y-43870000D02*
X131259400Y-43870000D01*
X136399400Y-46530000D02*
X131259400Y-46530000D01*
X136399400Y-43870000D02*
X136399400Y-46530000D01*
X137669400Y-43870000D02*
X138999400Y-43870000D01*
X138999400Y-43870000D02*
X138999400Y-45200000D01*
D12*
X164148000Y-72450000D02*
X164598000Y-72450000D01*
X164148000Y-67550000D02*
X164598000Y-67550000D01*
X169098000Y-72450000D02*
X170048000Y-72450000D01*
X170048000Y-67550000D02*
X169098000Y-67550000D01*
D14*
X170898000Y-72000000D02*
X170898000Y-72000000D01*
X170898000Y-71800000D02*
X170898000Y-71800000D01*
X170898000Y-71800000D02*
G75*
G03X170898000Y-72000000I0J-100000D01*
G01*
X170898000Y-72000000D02*
G75*
G03X170898000Y-71800000I0J100000D01*
G01*
D12*
X184545000Y-72510000D02*
X184995000Y-72510000D01*
X184545000Y-67610000D02*
X184995000Y-67610000D01*
X189495000Y-72510000D02*
X190445000Y-72510000D01*
X190445000Y-67610000D02*
X189495000Y-67610000D01*
D14*
X191295000Y-72060000D02*
X191295000Y-72060000D01*
X191295000Y-71860000D02*
X191295000Y-71860000D01*
X191295000Y-71860000D02*
G75*
G03X191295000Y-72060000I0J-100000D01*
G01*
X191295000Y-72060000D02*
G75*
G03X191295000Y-71860000I0J100000D01*
G01*
D12*
X184545000Y-53550000D02*
X184995000Y-53550000D01*
X184545000Y-48650000D02*
X184995000Y-48650000D01*
X189495000Y-53550000D02*
X190445000Y-53550000D01*
X190445000Y-48650000D02*
X189495000Y-48650000D01*
D14*
X191295000Y-53100000D02*
X191295000Y-53100000D01*
X191295000Y-52900000D02*
X191295000Y-52900000D01*
X191295000Y-52900000D02*
G75*
G03X191295000Y-53100000I0J-100000D01*
G01*
X191295000Y-53100000D02*
G75*
G03X191295000Y-52900000I0J100000D01*
G01*
D12*
X164148000Y-53650000D02*
X164598000Y-53650000D01*
X164148000Y-48750000D02*
X164598000Y-48750000D01*
X169098000Y-53650000D02*
X170048000Y-53650000D01*
X170048000Y-48750000D02*
X169098000Y-48750000D01*
D14*
X170898000Y-53200000D02*
X170898000Y-53200000D01*
X170898000Y-53000000D02*
X170898000Y-53000000D01*
X170898000Y-53000000D02*
G75*
G03X170898000Y-53200000I0J-100000D01*
G01*
X170898000Y-53200000D02*
G75*
G03X170898000Y-53000000I0J100000D01*
G01*
X170898000Y-103200000D02*
G75*
G03X170898000Y-103000000I0J100000D01*
G01*
X170898000Y-103000000D02*
G75*
G03X170898000Y-103200000I0J-100000D01*
G01*
X170898000Y-103000000D02*
X170898000Y-103000000D01*
X170898000Y-103200000D02*
X170898000Y-103200000D01*
D12*
X170048000Y-98750000D02*
X169098000Y-98750000D01*
X169098000Y-103650000D02*
X170048000Y-103650000D01*
X164148000Y-98750000D02*
X164598000Y-98750000D01*
X164148000Y-103650000D02*
X164598000Y-103650000D01*
D14*
X191295000Y-103100000D02*
G75*
G03X191295000Y-102900000I0J100000D01*
G01*
X191295000Y-102900000D02*
G75*
G03X191295000Y-103100000I0J-100000D01*
G01*
X191295000Y-102900000D02*
X191295000Y-102900000D01*
X191295000Y-103100000D02*
X191295000Y-103100000D01*
D12*
X190445000Y-98650000D02*
X189495000Y-98650000D01*
X189495000Y-103550000D02*
X190445000Y-103550000D01*
X184545000Y-98650000D02*
X184995000Y-98650000D01*
X184545000Y-103550000D02*
X184995000Y-103550000D01*
D14*
X191295000Y-122060000D02*
G75*
G03X191295000Y-121860000I0J100000D01*
G01*
X191295000Y-121860000D02*
G75*
G03X191295000Y-122060000I0J-100000D01*
G01*
X191295000Y-121860000D02*
X191295000Y-121860000D01*
X191295000Y-122060000D02*
X191295000Y-122060000D01*
D12*
X190445000Y-117610000D02*
X189495000Y-117610000D01*
X189495000Y-122510000D02*
X190445000Y-122510000D01*
X184545000Y-117610000D02*
X184995000Y-117610000D01*
X184545000Y-122510000D02*
X184995000Y-122510000D01*
D14*
X170898000Y-122000000D02*
G75*
G03X170898000Y-121800000I0J100000D01*
G01*
X170898000Y-121800000D02*
G75*
G03X170898000Y-122000000I0J-100000D01*
G01*
X170898000Y-121800000D02*
X170898000Y-121800000D01*
X170898000Y-122000000D02*
X170898000Y-122000000D01*
D12*
X170048000Y-117550000D02*
X169098000Y-117550000D01*
X169098000Y-122450000D02*
X170048000Y-122450000D01*
X164148000Y-117550000D02*
X164598000Y-117550000D01*
X164148000Y-122450000D02*
X164598000Y-122450000D01*
D13*
X138999400Y-93870000D02*
X138999400Y-95200000D01*
X137669400Y-93870000D02*
X138999400Y-93870000D01*
X136399400Y-93870000D02*
X136399400Y-96530000D01*
X136399400Y-96530000D02*
X131259400Y-96530000D01*
X136399400Y-93870000D02*
X131259400Y-93870000D01*
X131259400Y-93870000D02*
X131259400Y-96530000D01*
X126570000Y-133950000D02*
X126570000Y-130750000D01*
X126570000Y-130750000D02*
X128370000Y-130750000D01*
X128370000Y-130750000D02*
X128370000Y-133950000D01*
X115270000Y-133950000D02*
X126570000Y-133950000D01*
X126570000Y-133950000D02*
X126570000Y-139750000D01*
X126570000Y-139750000D02*
X115270000Y-139750000D01*
X115270000Y-139750000D02*
X115270000Y-133950000D01*
X199670000Y-133950000D02*
X128370000Y-133950000D01*
X128370000Y-139750000D02*
X199670000Y-139750000D01*
X128370000Y-133950000D02*
X128370000Y-139750000D01*
X199670000Y-133950000D02*
X199670000Y-139750000D01*
X122250000Y-112880000D02*
X121450000Y-112880000D01*
X122250000Y-116320000D02*
X121450000Y-116320000D01*
X115360500Y-118501000D02*
X117645500Y-118501000D01*
X115360500Y-117031000D02*
X115360500Y-118501000D01*
X117645500Y-117031000D02*
X115360500Y-117031000D01*
X115360500Y-115453000D02*
X117645500Y-115453000D01*
X115360500Y-113983000D02*
X115360500Y-115453000D01*
X117645500Y-113983000D02*
X115360500Y-113983000D01*
X115360500Y-110679000D02*
X117645500Y-110679000D01*
X115360500Y-109209000D02*
X115360500Y-110679000D01*
X117645500Y-109209000D02*
X115360500Y-109209000D01*
X115335000Y-107631000D02*
X117620000Y-107631000D01*
X115335000Y-106161000D02*
X115335000Y-107631000D01*
X117620000Y-106161000D02*
X115335000Y-106161000D01*
X138040000Y-102891422D02*
X138040000Y-103408578D01*
X139460000Y-102891422D02*
X139460000Y-103408578D01*
X137540000Y-117341422D02*
X137540000Y-117858578D01*
X138960000Y-117341422D02*
X138960000Y-117858578D01*
X125450000Y-121490000D02*
X131460000Y-121490000D01*
X127700000Y-128310000D02*
X131460000Y-128310000D01*
X131460000Y-121490000D02*
X131460000Y-122750000D01*
X131460000Y-128310000D02*
X131460000Y-127050000D01*
X146827000Y-102551000D02*
X149112000Y-102551000D01*
X146827000Y-101081000D02*
X146827000Y-102551000D01*
X149112000Y-101081000D02*
X146827000Y-101081000D01*
X146827000Y-117029000D02*
X149112000Y-117029000D01*
X146827000Y-115559000D02*
X146827000Y-117029000D01*
X149112000Y-115559000D02*
X146827000Y-115559000D01*
D14*
X116828000Y-102644000D02*
X116828000Y-101044000D01*
X126938000Y-100694000D02*
X115838000Y-100694000D01*
X126938000Y-93894000D02*
X126938000Y-100694000D01*
X115838000Y-93894000D02*
X126938000Y-93894000D01*
X115838000Y-100694000D02*
X115838000Y-93894000D01*
D13*
X137324279Y-113260000D02*
X136998721Y-113260000D01*
X137324279Y-112240000D02*
X136998721Y-112240000D01*
X137324279Y-110510000D02*
X136998721Y-110510000D01*
X137324279Y-109490000D02*
X136998721Y-109490000D01*
X137324279Y-107656000D02*
X136998721Y-107656000D01*
X137324279Y-106636000D02*
X136998721Y-106636000D01*
X188850279Y-92010000D02*
X188524721Y-92010000D01*
X188850279Y-90990000D02*
X188524721Y-90990000D01*
X193049721Y-90590000D02*
X193375279Y-90590000D01*
X193049721Y-91610000D02*
X193375279Y-91610000D01*
X137298779Y-128010000D02*
X136973221Y-128010000D01*
X137298779Y-126990000D02*
X136973221Y-126990000D01*
X137298779Y-125260000D02*
X136973221Y-125260000D01*
X137298779Y-124240000D02*
X136973221Y-124240000D01*
X137324279Y-122295000D02*
X136998721Y-122295000D01*
X137324279Y-121275000D02*
X136998721Y-121275000D01*
X189103279Y-111110000D02*
X188777721Y-111110000D01*
X189103279Y-110090000D02*
X188777721Y-110090000D01*
X188463521Y-130010000D02*
X188789079Y-130010000D01*
X188463521Y-128990000D02*
X188789079Y-128990000D01*
X168775279Y-92810000D02*
X168449721Y-92810000D01*
X168775279Y-91790000D02*
X168449721Y-91790000D01*
X168037221Y-109190000D02*
X168362779Y-109190000D01*
X168037221Y-110210000D02*
X168362779Y-110210000D01*
X165175279Y-111910000D02*
X164849721Y-111910000D01*
X165175279Y-110890000D02*
X164849721Y-110890000D01*
X168037221Y-128290000D02*
X168362779Y-128290000D01*
X168037221Y-129310000D02*
X168362779Y-129310000D01*
X126260000Y-113687221D02*
X126260000Y-114012779D01*
X125240000Y-113687221D02*
X125240000Y-114012779D01*
D14*
X149447000Y-113474000D02*
X147972000Y-113474000D01*
X149447000Y-127952000D02*
X147972000Y-127952000D01*
D13*
X143096078Y-102526000D02*
X142578922Y-102526000D01*
X143096078Y-101106000D02*
X142578922Y-101106000D01*
X152982000Y-107058578D02*
X152982000Y-106541422D01*
X154402000Y-107058578D02*
X154402000Y-106541422D01*
X152990000Y-111821078D02*
X152990000Y-111303922D01*
X154410000Y-111821078D02*
X154410000Y-111303922D01*
X143058578Y-115584000D02*
X142541422Y-115584000D01*
X143058578Y-117004000D02*
X142541422Y-117004000D01*
X154348000Y-121003922D02*
X154348000Y-121521078D01*
X152928000Y-121003922D02*
X152928000Y-121521078D01*
X152928000Y-126121078D02*
X152928000Y-125603922D01*
X154348000Y-126121078D02*
X154348000Y-125603922D01*
X122090000Y-122203922D02*
X122090000Y-122721078D01*
X123510000Y-122203922D02*
X123510000Y-122721078D01*
X122090000Y-127941422D02*
X122090000Y-128458578D01*
X123510000Y-127941422D02*
X123510000Y-128458578D01*
D10*
X142633333Y-65057142D02*
X142585714Y-65104761D01*
X142442857Y-65152380D01*
X142347619Y-65152380D01*
X142204761Y-65104761D01*
X142109523Y-65009523D01*
X142061904Y-64914285D01*
X142014285Y-64723809D01*
X142014285Y-64580952D01*
X142061904Y-64390476D01*
X142109523Y-64295238D01*
X142204761Y-64200000D01*
X142347619Y-64152380D01*
X142442857Y-64152380D01*
X142585714Y-64200000D01*
X142633333Y-64247619D01*
X143109523Y-65152380D02*
X143300000Y-65152380D01*
X143395238Y-65104761D01*
X143442857Y-65057142D01*
X143538095Y-64914285D01*
X143585714Y-64723809D01*
X143585714Y-64342857D01*
X143538095Y-64247619D01*
X143490476Y-64200000D01*
X143395238Y-64152380D01*
X143204761Y-64152380D01*
X143109523Y-64200000D01*
X143061904Y-64247619D01*
X143014285Y-64342857D01*
X143014285Y-64580952D01*
X143061904Y-64676190D01*
X143109523Y-64723809D01*
X143204761Y-64771428D01*
X143395238Y-64771428D01*
X143490476Y-64723809D01*
X143538095Y-64676190D01*
X143585714Y-64580952D01*
X152357142Y-70666666D02*
X152404761Y-70714285D01*
X152452380Y-70857142D01*
X152452380Y-70952380D01*
X152404761Y-71095238D01*
X152309523Y-71190476D01*
X152214285Y-71238095D01*
X152023809Y-71285714D01*
X151880952Y-71285714D01*
X151690476Y-71238095D01*
X151595238Y-71190476D01*
X151500000Y-71095238D01*
X151452380Y-70952380D01*
X151452380Y-70857142D01*
X151500000Y-70714285D01*
X151547619Y-70666666D01*
X151880952Y-70095238D02*
X151833333Y-70190476D01*
X151785714Y-70238095D01*
X151690476Y-70285714D01*
X151642857Y-70285714D01*
X151547619Y-70238095D01*
X151500000Y-70190476D01*
X151452380Y-70095238D01*
X151452380Y-69904761D01*
X151500000Y-69809523D01*
X151547619Y-69761904D01*
X151642857Y-69714285D01*
X151690476Y-69714285D01*
X151785714Y-69761904D01*
X151833333Y-69809523D01*
X151880952Y-69904761D01*
X151880952Y-70095238D01*
X151928571Y-70190476D01*
X151976190Y-70238095D01*
X152071428Y-70285714D01*
X152261904Y-70285714D01*
X152357142Y-70238095D01*
X152404761Y-70190476D01*
X152452380Y-70095238D01*
X152452380Y-69904761D01*
X152404761Y-69809523D01*
X152357142Y-69761904D01*
X152261904Y-69714285D01*
X152071428Y-69714285D01*
X151976190Y-69761904D01*
X151928571Y-69809523D01*
X151880952Y-69904761D01*
X152399142Y-57442857D02*
X152446761Y-57490476D01*
X152494380Y-57633333D01*
X152494380Y-57728571D01*
X152446761Y-57871428D01*
X152351523Y-57966666D01*
X152256285Y-58014285D01*
X152065809Y-58061904D01*
X151922952Y-58061904D01*
X151732476Y-58014285D01*
X151637238Y-57966666D01*
X151542000Y-57871428D01*
X151494380Y-57728571D01*
X151494380Y-57633333D01*
X151542000Y-57490476D01*
X151589619Y-57442857D01*
X152494380Y-56490476D02*
X152494380Y-57061904D01*
X152494380Y-56776190D02*
X151494380Y-56776190D01*
X151637238Y-56871428D01*
X151732476Y-56966666D01*
X151780095Y-57061904D01*
X151827714Y-55633333D02*
X152494380Y-55633333D01*
X151446761Y-55871428D02*
X152161047Y-56109523D01*
X152161047Y-55490476D01*
X124807142Y-72629166D02*
X124854761Y-72676785D01*
X124902380Y-72819642D01*
X124902380Y-72914880D01*
X124854761Y-73057738D01*
X124759523Y-73152976D01*
X124664285Y-73200595D01*
X124473809Y-73248214D01*
X124330952Y-73248214D01*
X124140476Y-73200595D01*
X124045238Y-73152976D01*
X123950000Y-73057738D01*
X123902380Y-72914880D01*
X123902380Y-72819642D01*
X123950000Y-72676785D01*
X123997619Y-72629166D01*
X123997619Y-72248214D02*
X123950000Y-72200595D01*
X123902380Y-72105357D01*
X123902380Y-71867261D01*
X123950000Y-71772023D01*
X123997619Y-71724404D01*
X124092857Y-71676785D01*
X124188095Y-71676785D01*
X124330952Y-71724404D01*
X124902380Y-72295833D01*
X124902380Y-71676785D01*
X124857142Y-78366666D02*
X124904761Y-78414285D01*
X124952380Y-78557142D01*
X124952380Y-78652380D01*
X124904761Y-78795238D01*
X124809523Y-78890476D01*
X124714285Y-78938095D01*
X124523809Y-78985714D01*
X124380952Y-78985714D01*
X124190476Y-78938095D01*
X124095238Y-78890476D01*
X124000000Y-78795238D01*
X123952380Y-78652380D01*
X123952380Y-78557142D01*
X124000000Y-78414285D01*
X124047619Y-78366666D01*
X124952380Y-77414285D02*
X124952380Y-77985714D01*
X124952380Y-77700000D02*
X123952380Y-77700000D01*
X124095238Y-77795238D01*
X124190476Y-77890476D01*
X124238095Y-77985714D01*
X152345142Y-76466666D02*
X152392761Y-76514285D01*
X152440380Y-76657142D01*
X152440380Y-76752380D01*
X152392761Y-76895238D01*
X152297523Y-76990476D01*
X152202285Y-77038095D01*
X152011809Y-77085714D01*
X151868952Y-77085714D01*
X151678476Y-77038095D01*
X151583238Y-76990476D01*
X151488000Y-76895238D01*
X151440380Y-76752380D01*
X151440380Y-76657142D01*
X151488000Y-76514285D01*
X151535619Y-76466666D01*
X151440380Y-76133333D02*
X151440380Y-75466666D01*
X152440380Y-75895238D01*
X152407142Y-62205357D02*
X152454761Y-62252976D01*
X152502380Y-62395833D01*
X152502380Y-62491071D01*
X152454761Y-62633928D01*
X152359523Y-62729166D01*
X152264285Y-62776785D01*
X152073809Y-62824404D01*
X151930952Y-62824404D01*
X151740476Y-62776785D01*
X151645238Y-62729166D01*
X151550000Y-62633928D01*
X151502380Y-62491071D01*
X151502380Y-62395833D01*
X151550000Y-62252976D01*
X151597619Y-62205357D01*
X152502380Y-61252976D02*
X152502380Y-61824404D01*
X152502380Y-61538690D02*
X151502380Y-61538690D01*
X151645238Y-61633928D01*
X151740476Y-61729166D01*
X151788095Y-61824404D01*
X151502380Y-60919642D02*
X151502380Y-60300595D01*
X151883333Y-60633928D01*
X151883333Y-60491071D01*
X151930952Y-60395833D01*
X151978571Y-60348214D01*
X152073809Y-60300595D01*
X152311904Y-60300595D01*
X152407142Y-60348214D01*
X152454761Y-60395833D01*
X152502380Y-60491071D01*
X152502380Y-60776785D01*
X152454761Y-60872023D01*
X152407142Y-60919642D01*
D15*
X144532238Y-59248523D02*
X144532238Y-57978523D01*
X145862714Y-59127571D02*
X145802238Y-59188047D01*
X145620809Y-59248523D01*
X145499857Y-59248523D01*
X145318428Y-59188047D01*
X145197476Y-59067095D01*
X145137000Y-58946142D01*
X145076523Y-58704238D01*
X145076523Y-58522809D01*
X145137000Y-58280904D01*
X145197476Y-58159952D01*
X145318428Y-58039000D01*
X145499857Y-57978523D01*
X145620809Y-57978523D01*
X145802238Y-58039000D01*
X145862714Y-58099476D01*
X146951285Y-58401857D02*
X146951285Y-59248523D01*
X146648904Y-57918047D02*
X146346523Y-58825190D01*
X147132714Y-58825190D01*
D10*
X127632380Y-64016666D02*
X127156190Y-64350000D01*
X127632380Y-64588095D02*
X126632380Y-64588095D01*
X126632380Y-64207142D01*
X126680000Y-64111904D01*
X126727619Y-64064285D01*
X126822857Y-64016666D01*
X126965714Y-64016666D01*
X127060952Y-64064285D01*
X127108571Y-64111904D01*
X127156190Y-64207142D01*
X127156190Y-64588095D01*
X126632380Y-63683333D02*
X126632380Y-63064285D01*
X127013333Y-63397619D01*
X127013333Y-63254761D01*
X127060952Y-63159523D01*
X127108571Y-63111904D01*
X127203809Y-63064285D01*
X127441904Y-63064285D01*
X127537142Y-63111904D01*
X127584761Y-63159523D01*
X127632380Y-63254761D01*
X127632380Y-63540476D01*
X127584761Y-63635714D01*
X127537142Y-63683333D01*
X167557142Y-61470380D02*
X167223809Y-60994190D01*
X166985714Y-61470380D02*
X166985714Y-60470380D01*
X167366666Y-60470380D01*
X167461904Y-60518000D01*
X167509523Y-60565619D01*
X167557142Y-60660857D01*
X167557142Y-60803714D01*
X167509523Y-60898952D01*
X167461904Y-60946571D01*
X167366666Y-60994190D01*
X166985714Y-60994190D01*
X168509523Y-61470380D02*
X167938095Y-61470380D01*
X168223809Y-61470380D02*
X168223809Y-60470380D01*
X168128571Y-60613238D01*
X168033333Y-60708476D01*
X167938095Y-60756095D01*
X168890476Y-60565619D02*
X168938095Y-60518000D01*
X169033333Y-60470380D01*
X169271428Y-60470380D01*
X169366666Y-60518000D01*
X169414285Y-60565619D01*
X169461904Y-60660857D01*
X169461904Y-60756095D01*
X169414285Y-60898952D01*
X168842857Y-61470380D01*
X169461904Y-61470380D01*
X136518642Y-61882380D02*
X136185309Y-61406190D01*
X135947214Y-61882380D02*
X135947214Y-60882380D01*
X136328166Y-60882380D01*
X136423404Y-60930000D01*
X136471023Y-60977619D01*
X136518642Y-61072857D01*
X136518642Y-61215714D01*
X136471023Y-61310952D01*
X136423404Y-61358571D01*
X136328166Y-61406190D01*
X135947214Y-61406190D01*
X137471023Y-61882380D02*
X136899595Y-61882380D01*
X137185309Y-61882380D02*
X137185309Y-60882380D01*
X137090071Y-61025238D01*
X136994833Y-61120476D01*
X136899595Y-61168095D01*
X138042452Y-61310952D02*
X137947214Y-61263333D01*
X137899595Y-61215714D01*
X137851976Y-61120476D01*
X137851976Y-61072857D01*
X137899595Y-60977619D01*
X137947214Y-60930000D01*
X138042452Y-60882380D01*
X138232928Y-60882380D01*
X138328166Y-60930000D01*
X138375785Y-60977619D01*
X138423404Y-61072857D01*
X138423404Y-61120476D01*
X138375785Y-61215714D01*
X138328166Y-61263333D01*
X138232928Y-61310952D01*
X138042452Y-61310952D01*
X137947214Y-61358571D01*
X137899595Y-61406190D01*
X137851976Y-61501428D01*
X137851976Y-61691904D01*
X137899595Y-61787142D01*
X137947214Y-61834761D01*
X138042452Y-61882380D01*
X138232928Y-61882380D01*
X138328166Y-61834761D01*
X138375785Y-61787142D01*
X138423404Y-61691904D01*
X138423404Y-61501428D01*
X138375785Y-61406190D01*
X138328166Y-61358571D01*
X138232928Y-61310952D01*
X116107404Y-63740380D02*
X116107404Y-62740380D01*
X116345500Y-62740380D01*
X116488357Y-62788000D01*
X116583595Y-62883238D01*
X116631214Y-62978476D01*
X116678833Y-63168952D01*
X116678833Y-63311809D01*
X116631214Y-63502285D01*
X116583595Y-63597523D01*
X116488357Y-63692761D01*
X116345500Y-63740380D01*
X116107404Y-63740380D01*
X117012166Y-62740380D02*
X117631214Y-62740380D01*
X117297880Y-63121333D01*
X117440738Y-63121333D01*
X117535976Y-63168952D01*
X117583595Y-63216571D01*
X117631214Y-63311809D01*
X117631214Y-63549904D01*
X117583595Y-63645142D01*
X117535976Y-63692761D01*
X117440738Y-63740380D01*
X117155023Y-63740380D01*
X117059785Y-63692761D01*
X117012166Y-63645142D01*
X168033333Y-80652380D02*
X167700000Y-80176190D01*
X167461904Y-80652380D02*
X167461904Y-79652380D01*
X167842857Y-79652380D01*
X167938095Y-79700000D01*
X167985714Y-79747619D01*
X168033333Y-79842857D01*
X168033333Y-79985714D01*
X167985714Y-80080952D01*
X167938095Y-80128571D01*
X167842857Y-80176190D01*
X167461904Y-80176190D01*
X168985714Y-80652380D02*
X168414285Y-80652380D01*
X168700000Y-80652380D02*
X168700000Y-79652380D01*
X168604761Y-79795238D01*
X168509523Y-79890476D01*
X168414285Y-79938095D01*
X193045833Y-43052380D02*
X192712500Y-42576190D01*
X192474404Y-43052380D02*
X192474404Y-42052380D01*
X192855357Y-42052380D01*
X192950595Y-42100000D01*
X192998214Y-42147619D01*
X193045833Y-42242857D01*
X193045833Y-42385714D01*
X192998214Y-42480952D01*
X192950595Y-42528571D01*
X192855357Y-42576190D01*
X192474404Y-42576190D01*
X193902976Y-42052380D02*
X193712500Y-42052380D01*
X193617261Y-42100000D01*
X193569642Y-42147619D01*
X193474404Y-42290476D01*
X193426785Y-42480952D01*
X193426785Y-42861904D01*
X193474404Y-42957142D01*
X193522023Y-43004761D01*
X193617261Y-43052380D01*
X193807738Y-43052380D01*
X193902976Y-43004761D01*
X193950595Y-42957142D01*
X193998214Y-42861904D01*
X193998214Y-42623809D01*
X193950595Y-42528571D01*
X193902976Y-42480952D01*
X193807738Y-42433333D01*
X193617261Y-42433333D01*
X193522023Y-42480952D01*
X193474404Y-42528571D01*
X193426785Y-42623809D01*
X147097714Y-50838380D02*
X147097714Y-49838380D01*
X147335809Y-49838380D01*
X147478666Y-49886000D01*
X147573904Y-49981238D01*
X147621523Y-50076476D01*
X147669142Y-50266952D01*
X147669142Y-50409809D01*
X147621523Y-50600285D01*
X147573904Y-50695523D01*
X147478666Y-50790761D01*
X147335809Y-50838380D01*
X147097714Y-50838380D01*
X148621523Y-50838380D02*
X148050095Y-50838380D01*
X148335809Y-50838380D02*
X148335809Y-49838380D01*
X148240571Y-49981238D01*
X148145333Y-50076476D01*
X148050095Y-50124095D01*
X149240571Y-49838380D02*
X149335809Y-49838380D01*
X149431047Y-49886000D01*
X149478666Y-49933619D01*
X149526285Y-50028857D01*
X149573904Y-50219333D01*
X149573904Y-50457428D01*
X149526285Y-50647904D01*
X149478666Y-50743142D01*
X149431047Y-50790761D01*
X149335809Y-50838380D01*
X149240571Y-50838380D01*
X149145333Y-50790761D01*
X149097714Y-50743142D01*
X149050095Y-50647904D01*
X149002476Y-50457428D01*
X149002476Y-50219333D01*
X149050095Y-50028857D01*
X149097714Y-49933619D01*
X149145333Y-49886000D01*
X149240571Y-49838380D01*
X136518642Y-64632380D02*
X136185309Y-64156190D01*
X135947214Y-64632380D02*
X135947214Y-63632380D01*
X136328166Y-63632380D01*
X136423404Y-63680000D01*
X136471023Y-63727619D01*
X136518642Y-63822857D01*
X136518642Y-63965714D01*
X136471023Y-64060952D01*
X136423404Y-64108571D01*
X136328166Y-64156190D01*
X135947214Y-64156190D01*
X137471023Y-64632380D02*
X136899595Y-64632380D01*
X137185309Y-64632380D02*
X137185309Y-63632380D01*
X137090071Y-63775238D01*
X136994833Y-63870476D01*
X136899595Y-63918095D01*
X137947214Y-64632380D02*
X138137690Y-64632380D01*
X138232928Y-64584761D01*
X138280547Y-64537142D01*
X138375785Y-64394285D01*
X138423404Y-64203809D01*
X138423404Y-63822857D01*
X138375785Y-63727619D01*
X138328166Y-63680000D01*
X138232928Y-63632380D01*
X138042452Y-63632380D01*
X137947214Y-63680000D01*
X137899595Y-63727619D01*
X137851976Y-63822857D01*
X137851976Y-64060952D01*
X137899595Y-64156190D01*
X137947214Y-64203809D01*
X138042452Y-64251428D01*
X138232928Y-64251428D01*
X138328166Y-64203809D01*
X138375785Y-64156190D01*
X138423404Y-64060952D01*
X140757142Y-53792857D02*
X140804761Y-53840476D01*
X140852380Y-53983333D01*
X140852380Y-54078571D01*
X140804761Y-54221428D01*
X140709523Y-54316666D01*
X140614285Y-54364285D01*
X140423809Y-54411904D01*
X140280952Y-54411904D01*
X140090476Y-54364285D01*
X139995238Y-54316666D01*
X139900000Y-54221428D01*
X139852380Y-54078571D01*
X139852380Y-53983333D01*
X139900000Y-53840476D01*
X139947619Y-53792857D01*
X140852380Y-52840476D02*
X140852380Y-53411904D01*
X140852380Y-53126190D02*
X139852380Y-53126190D01*
X139995238Y-53221428D01*
X140090476Y-53316666D01*
X140138095Y-53411904D01*
X140280952Y-52269047D02*
X140233333Y-52364285D01*
X140185714Y-52411904D01*
X140090476Y-52459523D01*
X140042857Y-52459523D01*
X139947619Y-52411904D01*
X139900000Y-52364285D01*
X139852380Y-52269047D01*
X139852380Y-52078571D01*
X139900000Y-51983333D01*
X139947619Y-51935714D01*
X140042857Y-51888095D01*
X140090476Y-51888095D01*
X140185714Y-51935714D01*
X140233333Y-51983333D01*
X140280952Y-52078571D01*
X140280952Y-52269047D01*
X140328571Y-52364285D01*
X140376190Y-52411904D01*
X140471428Y-52459523D01*
X140661904Y-52459523D01*
X140757142Y-52411904D01*
X140804761Y-52364285D01*
X140852380Y-52269047D01*
X140852380Y-52078571D01*
X140804761Y-51983333D01*
X140757142Y-51935714D01*
X140661904Y-51888095D01*
X140471428Y-51888095D01*
X140376190Y-51935714D01*
X140328571Y-51983333D01*
X140280952Y-52078571D01*
D15*
X121902047Y-48261619D02*
X121962523Y-48080190D01*
X121962523Y-47777809D01*
X121902047Y-47656857D01*
X121841571Y-47596380D01*
X121720619Y-47535904D01*
X121599666Y-47535904D01*
X121478714Y-47596380D01*
X121418238Y-47656857D01*
X121357761Y-47777809D01*
X121297285Y-48019714D01*
X121236809Y-48140666D01*
X121176333Y-48201142D01*
X121055380Y-48261619D01*
X120934428Y-48261619D01*
X120813476Y-48201142D01*
X120753000Y-48140666D01*
X120692523Y-48019714D01*
X120692523Y-47717333D01*
X120753000Y-47535904D01*
X121962523Y-46326380D02*
X121962523Y-47052095D01*
X121962523Y-46689238D02*
X120692523Y-46689238D01*
X120873952Y-46810190D01*
X120994904Y-46931142D01*
X121055380Y-47052095D01*
D10*
X128788095Y-69852380D02*
X128788095Y-70661904D01*
X128835714Y-70757142D01*
X128883333Y-70804761D01*
X128978571Y-70852380D01*
X129169047Y-70852380D01*
X129264285Y-70804761D01*
X129311904Y-70757142D01*
X129359523Y-70661904D01*
X129359523Y-69852380D01*
X130359523Y-70852380D02*
X129788095Y-70852380D01*
X130073809Y-70852380D02*
X130073809Y-69852380D01*
X129978571Y-69995238D01*
X129883333Y-70090476D01*
X129788095Y-70138095D01*
X164845833Y-63282380D02*
X164512500Y-62806190D01*
X164274404Y-63282380D02*
X164274404Y-62282380D01*
X164655357Y-62282380D01*
X164750595Y-62330000D01*
X164798214Y-62377619D01*
X164845833Y-62472857D01*
X164845833Y-62615714D01*
X164798214Y-62710952D01*
X164750595Y-62758571D01*
X164655357Y-62806190D01*
X164274404Y-62806190D01*
X165226785Y-62377619D02*
X165274404Y-62330000D01*
X165369642Y-62282380D01*
X165607738Y-62282380D01*
X165702976Y-62330000D01*
X165750595Y-62377619D01*
X165798214Y-62472857D01*
X165798214Y-62568095D01*
X165750595Y-62710952D01*
X165179166Y-63282380D01*
X165798214Y-63282380D01*
X165057142Y-42852380D02*
X164723809Y-42376190D01*
X164485714Y-42852380D02*
X164485714Y-41852380D01*
X164866666Y-41852380D01*
X164961904Y-41900000D01*
X165009523Y-41947619D01*
X165057142Y-42042857D01*
X165057142Y-42185714D01*
X165009523Y-42280952D01*
X164961904Y-42328571D01*
X164866666Y-42376190D01*
X164485714Y-42376190D01*
X166009523Y-42852380D02*
X165438095Y-42852380D01*
X165723809Y-42852380D02*
X165723809Y-41852380D01*
X165628571Y-41995238D01*
X165533333Y-42090476D01*
X165438095Y-42138095D01*
X166342857Y-41852380D02*
X166961904Y-41852380D01*
X166628571Y-42233333D01*
X166771428Y-42233333D01*
X166866666Y-42280952D01*
X166914285Y-42328571D01*
X166961904Y-42423809D01*
X166961904Y-42661904D01*
X166914285Y-42757142D01*
X166866666Y-42804761D01*
X166771428Y-42852380D01*
X166485714Y-42852380D01*
X166390476Y-42804761D01*
X166342857Y-42757142D01*
X188520833Y-43382380D02*
X188187500Y-42906190D01*
X187949404Y-43382380D02*
X187949404Y-42382380D01*
X188330357Y-42382380D01*
X188425595Y-42430000D01*
X188473214Y-42477619D01*
X188520833Y-42572857D01*
X188520833Y-42715714D01*
X188473214Y-42810952D01*
X188425595Y-42858571D01*
X188330357Y-42906190D01*
X187949404Y-42906190D01*
X188854166Y-42382380D02*
X189520833Y-42382380D01*
X189092261Y-43382380D01*
X188773833Y-59730380D02*
X188440500Y-59254190D01*
X188202404Y-59730380D02*
X188202404Y-58730380D01*
X188583357Y-58730380D01*
X188678595Y-58778000D01*
X188726214Y-58825619D01*
X188773833Y-58920857D01*
X188773833Y-59063714D01*
X188726214Y-59158952D01*
X188678595Y-59206571D01*
X188583357Y-59254190D01*
X188202404Y-59254190D01*
X189678595Y-58730380D02*
X189202404Y-58730380D01*
X189154785Y-59206571D01*
X189202404Y-59158952D01*
X189297642Y-59111333D01*
X189535738Y-59111333D01*
X189630976Y-59158952D01*
X189678595Y-59206571D01*
X189726214Y-59301809D01*
X189726214Y-59539904D01*
X189678595Y-59635142D01*
X189630976Y-59682761D01*
X189535738Y-59730380D01*
X189297642Y-59730380D01*
X189202404Y-59682761D01*
X189154785Y-59635142D01*
X116107404Y-58966380D02*
X116107404Y-57966380D01*
X116345500Y-57966380D01*
X116488357Y-58014000D01*
X116583595Y-58109238D01*
X116631214Y-58204476D01*
X116678833Y-58394952D01*
X116678833Y-58537809D01*
X116631214Y-58728285D01*
X116583595Y-58823523D01*
X116488357Y-58918761D01*
X116345500Y-58966380D01*
X116107404Y-58966380D01*
X117059785Y-58061619D02*
X117107404Y-58014000D01*
X117202642Y-57966380D01*
X117440738Y-57966380D01*
X117535976Y-58014000D01*
X117583595Y-58061619D01*
X117631214Y-58156857D01*
X117631214Y-58252095D01*
X117583595Y-58394952D01*
X117012166Y-58966380D01*
X117631214Y-58966380D01*
X140257142Y-68242857D02*
X140304761Y-68290476D01*
X140352380Y-68433333D01*
X140352380Y-68528571D01*
X140304761Y-68671428D01*
X140209523Y-68766666D01*
X140114285Y-68814285D01*
X139923809Y-68861904D01*
X139780952Y-68861904D01*
X139590476Y-68814285D01*
X139495238Y-68766666D01*
X139400000Y-68671428D01*
X139352380Y-68528571D01*
X139352380Y-68433333D01*
X139400000Y-68290476D01*
X139447619Y-68242857D01*
X140352380Y-67290476D02*
X140352380Y-67861904D01*
X140352380Y-67576190D02*
X139352380Y-67576190D01*
X139495238Y-67671428D01*
X139590476Y-67766666D01*
X139638095Y-67861904D01*
X139352380Y-66671428D02*
X139352380Y-66576190D01*
X139400000Y-66480952D01*
X139447619Y-66433333D01*
X139542857Y-66385714D01*
X139733333Y-66338095D01*
X139971428Y-66338095D01*
X140161904Y-66385714D01*
X140257142Y-66433333D01*
X140304761Y-66480952D01*
X140352380Y-66576190D01*
X140352380Y-66671428D01*
X140304761Y-66766666D01*
X140257142Y-66814285D01*
X140161904Y-66861904D01*
X139971428Y-66909523D01*
X139733333Y-66909523D01*
X139542857Y-66861904D01*
X139447619Y-66814285D01*
X139400000Y-66766666D01*
X139352380Y-66671428D01*
X116081904Y-55918380D02*
X116081904Y-54918380D01*
X116320000Y-54918380D01*
X116462857Y-54966000D01*
X116558095Y-55061238D01*
X116605714Y-55156476D01*
X116653333Y-55346952D01*
X116653333Y-55489809D01*
X116605714Y-55680285D01*
X116558095Y-55775523D01*
X116462857Y-55870761D01*
X116320000Y-55918380D01*
X116081904Y-55918380D01*
X117605714Y-55918380D02*
X117034285Y-55918380D01*
X117320000Y-55918380D02*
X117320000Y-54918380D01*
X117224761Y-55061238D01*
X117129523Y-55156476D01*
X117034285Y-55204095D01*
X136493142Y-76632380D02*
X136159809Y-76156190D01*
X135921714Y-76632380D02*
X135921714Y-75632380D01*
X136302666Y-75632380D01*
X136397904Y-75680000D01*
X136445523Y-75727619D01*
X136493142Y-75822857D01*
X136493142Y-75965714D01*
X136445523Y-76060952D01*
X136397904Y-76108571D01*
X136302666Y-76156190D01*
X135921714Y-76156190D01*
X137445523Y-76632380D02*
X136874095Y-76632380D01*
X137159809Y-76632380D02*
X137159809Y-75632380D01*
X137064571Y-75775238D01*
X136969333Y-75870476D01*
X136874095Y-75918095D01*
X138350285Y-75632380D02*
X137874095Y-75632380D01*
X137826476Y-76108571D01*
X137874095Y-76060952D01*
X137969333Y-76013333D01*
X138207428Y-76013333D01*
X138302666Y-76060952D01*
X138350285Y-76108571D01*
X138397904Y-76203809D01*
X138397904Y-76441904D01*
X138350285Y-76537142D01*
X138302666Y-76584761D01*
X138207428Y-76632380D01*
X137969333Y-76632380D01*
X137874095Y-76584761D01*
X137826476Y-76537142D01*
X188459633Y-78652380D02*
X188126300Y-78176190D01*
X187888204Y-78652380D02*
X187888204Y-77652380D01*
X188269157Y-77652380D01*
X188364395Y-77700000D01*
X188412014Y-77747619D01*
X188459633Y-77842857D01*
X188459633Y-77985714D01*
X188412014Y-78080952D01*
X188364395Y-78128571D01*
X188269157Y-78176190D01*
X187888204Y-78176190D01*
X189316776Y-77985714D02*
X189316776Y-78652380D01*
X189078680Y-77604761D02*
X188840585Y-78319047D01*
X189459633Y-78319047D01*
X147573904Y-65316380D02*
X147573904Y-64316380D01*
X147812000Y-64316380D01*
X147954857Y-64364000D01*
X148050095Y-64459238D01*
X148097714Y-64554476D01*
X148145333Y-64744952D01*
X148145333Y-64887809D01*
X148097714Y-65078285D01*
X148050095Y-65173523D01*
X147954857Y-65268761D01*
X147812000Y-65316380D01*
X147573904Y-65316380D01*
X149050095Y-64316380D02*
X148573904Y-64316380D01*
X148526285Y-64792571D01*
X148573904Y-64744952D01*
X148669142Y-64697333D01*
X148907238Y-64697333D01*
X149002476Y-64744952D01*
X149050095Y-64792571D01*
X149097714Y-64887809D01*
X149097714Y-65125904D01*
X149050095Y-65221142D01*
X149002476Y-65268761D01*
X148907238Y-65316380D01*
X148669142Y-65316380D01*
X148573904Y-65268761D01*
X148526285Y-65221142D01*
X136518642Y-73667380D02*
X136185309Y-73191190D01*
X135947214Y-73667380D02*
X135947214Y-72667380D01*
X136328166Y-72667380D01*
X136423404Y-72715000D01*
X136471023Y-72762619D01*
X136518642Y-72857857D01*
X136518642Y-73000714D01*
X136471023Y-73095952D01*
X136423404Y-73143571D01*
X136328166Y-73191190D01*
X135947214Y-73191190D01*
X137471023Y-73667380D02*
X136899595Y-73667380D01*
X137185309Y-73667380D02*
X137185309Y-72667380D01*
X137090071Y-72810238D01*
X136994833Y-72905476D01*
X136899595Y-72953095D01*
X138328166Y-73000714D02*
X138328166Y-73667380D01*
X138090071Y-72619761D02*
X137851976Y-73334047D01*
X138471023Y-73334047D01*
X136493142Y-79382380D02*
X136159809Y-78906190D01*
X135921714Y-79382380D02*
X135921714Y-78382380D01*
X136302666Y-78382380D01*
X136397904Y-78430000D01*
X136445523Y-78477619D01*
X136493142Y-78572857D01*
X136493142Y-78715714D01*
X136445523Y-78810952D01*
X136397904Y-78858571D01*
X136302666Y-78906190D01*
X135921714Y-78906190D01*
X137445523Y-79382380D02*
X136874095Y-79382380D01*
X137159809Y-79382380D02*
X137159809Y-78382380D01*
X137064571Y-78525238D01*
X136969333Y-78620476D01*
X136874095Y-78668095D01*
X138302666Y-78382380D02*
X138112190Y-78382380D01*
X138016952Y-78430000D01*
X137969333Y-78477619D01*
X137874095Y-78620476D01*
X137826476Y-78810952D01*
X137826476Y-79191904D01*
X137874095Y-79287142D01*
X137921714Y-79334761D01*
X138016952Y-79382380D01*
X138207428Y-79382380D01*
X138302666Y-79334761D01*
X138350285Y-79287142D01*
X138397904Y-79191904D01*
X138397904Y-78953809D01*
X138350285Y-78858571D01*
X138302666Y-78810952D01*
X138207428Y-78763333D01*
X138016952Y-78763333D01*
X137921714Y-78810952D01*
X137874095Y-78858571D01*
X137826476Y-78953809D01*
X136518642Y-59028380D02*
X136185309Y-58552190D01*
X135947214Y-59028380D02*
X135947214Y-58028380D01*
X136328166Y-58028380D01*
X136423404Y-58076000D01*
X136471023Y-58123619D01*
X136518642Y-58218857D01*
X136518642Y-58361714D01*
X136471023Y-58456952D01*
X136423404Y-58504571D01*
X136328166Y-58552190D01*
X135947214Y-58552190D01*
X137471023Y-59028380D02*
X136899595Y-59028380D01*
X137185309Y-59028380D02*
X137185309Y-58028380D01*
X137090071Y-58171238D01*
X136994833Y-58266476D01*
X136899595Y-58314095D01*
X137804357Y-58028380D02*
X138471023Y-58028380D01*
X138042452Y-59028380D01*
X142194642Y-50557142D02*
X142147023Y-50604761D01*
X142004166Y-50652380D01*
X141908928Y-50652380D01*
X141766071Y-50604761D01*
X141670833Y-50509523D01*
X141623214Y-50414285D01*
X141575595Y-50223809D01*
X141575595Y-50080952D01*
X141623214Y-49890476D01*
X141670833Y-49795238D01*
X141766071Y-49700000D01*
X141908928Y-49652380D01*
X142004166Y-49652380D01*
X142147023Y-49700000D01*
X142194642Y-49747619D01*
X143147023Y-50652380D02*
X142575595Y-50652380D01*
X142861309Y-50652380D02*
X142861309Y-49652380D01*
X142766071Y-49795238D01*
X142670833Y-49890476D01*
X142575595Y-49938095D01*
X144051785Y-49652380D02*
X143575595Y-49652380D01*
X143527976Y-50128571D01*
X143575595Y-50080952D01*
X143670833Y-50033333D01*
X143908928Y-50033333D01*
X144004166Y-50080952D01*
X144051785Y-50128571D01*
X144099404Y-50223809D01*
X144099404Y-50461904D01*
X144051785Y-50557142D01*
X144004166Y-50604761D01*
X143908928Y-50652380D01*
X143670833Y-50652380D01*
X143575595Y-50604761D01*
X143527976Y-50557142D01*
D15*
X144532238Y-73726523D02*
X144532238Y-72456523D01*
X145862714Y-73605571D02*
X145802238Y-73666047D01*
X145620809Y-73726523D01*
X145499857Y-73726523D01*
X145318428Y-73666047D01*
X145197476Y-73545095D01*
X145137000Y-73424142D01*
X145076523Y-73182238D01*
X145076523Y-73000809D01*
X145137000Y-72758904D01*
X145197476Y-72637952D01*
X145318428Y-72517000D01*
X145499857Y-72456523D01*
X145620809Y-72456523D01*
X145802238Y-72517000D01*
X145862714Y-72577476D01*
X146346523Y-72577476D02*
X146407000Y-72517000D01*
X146527952Y-72456523D01*
X146830333Y-72456523D01*
X146951285Y-72517000D01*
X147011761Y-72577476D01*
X147072238Y-72698428D01*
X147072238Y-72819380D01*
X147011761Y-73000809D01*
X146286047Y-73726523D01*
X147072238Y-73726523D01*
D10*
X121159523Y-67652380D02*
X120826190Y-67176190D01*
X120588095Y-67652380D02*
X120588095Y-66652380D01*
X120969047Y-66652380D01*
X121064285Y-66700000D01*
X121111904Y-66747619D01*
X121159523Y-66842857D01*
X121159523Y-66985714D01*
X121111904Y-67080952D01*
X121064285Y-67128571D01*
X120969047Y-67176190D01*
X120588095Y-67176190D01*
X121588095Y-67652380D02*
X121588095Y-66652380D01*
X122159523Y-67652380D01*
X122159523Y-66652380D01*
X123159523Y-67652380D02*
X122588095Y-67652380D01*
X122873809Y-67652380D02*
X122873809Y-66652380D01*
X122778571Y-66795238D01*
X122683333Y-66890476D01*
X122588095Y-66938095D01*
X125116666Y-82152380D02*
X125116666Y-82866666D01*
X125069047Y-83009523D01*
X124973809Y-83104761D01*
X124830952Y-83152380D01*
X124735714Y-83152380D01*
X126069047Y-82152380D02*
X125592857Y-82152380D01*
X125545238Y-82628571D01*
X125592857Y-82580952D01*
X125688095Y-82533333D01*
X125926190Y-82533333D01*
X126021428Y-82580952D01*
X126069047Y-82628571D01*
X126116666Y-82723809D01*
X126116666Y-82961904D01*
X126069047Y-83057142D01*
X126021428Y-83104761D01*
X125926190Y-83152380D01*
X125688095Y-83152380D01*
X125592857Y-83104761D01*
X125545238Y-83057142D01*
X116107404Y-66788380D02*
X116107404Y-65788380D01*
X116345500Y-65788380D01*
X116488357Y-65836000D01*
X116583595Y-65931238D01*
X116631214Y-66026476D01*
X116678833Y-66216952D01*
X116678833Y-66359809D01*
X116631214Y-66550285D01*
X116583595Y-66645523D01*
X116488357Y-66740761D01*
X116345500Y-66788380D01*
X116107404Y-66788380D01*
X117535976Y-66121714D02*
X117535976Y-66788380D01*
X117297880Y-65740761D02*
X117059785Y-66455047D01*
X117678833Y-66455047D01*
X139451780Y-45533333D02*
X140166066Y-45533333D01*
X140308923Y-45580952D01*
X140404161Y-45676190D01*
X140451780Y-45819047D01*
X140451780Y-45914285D01*
X139547019Y-45104761D02*
X139499400Y-45057142D01*
X139451780Y-44961904D01*
X139451780Y-44723809D01*
X139499400Y-44628571D01*
X139547019Y-44580952D01*
X139642257Y-44533333D01*
X139737495Y-44533333D01*
X139880352Y-44580952D01*
X140451780Y-45152380D01*
X140451780Y-44533333D01*
D15*
X168095476Y-70120952D02*
X168035000Y-70241904D01*
X167914047Y-70362857D01*
X167732619Y-70544285D01*
X167672142Y-70665238D01*
X167672142Y-70786190D01*
X167974523Y-70725714D02*
X167914047Y-70846666D01*
X167793095Y-70967619D01*
X167551190Y-71028095D01*
X167127857Y-71028095D01*
X166885952Y-70967619D01*
X166765000Y-70846666D01*
X166704523Y-70725714D01*
X166704523Y-70483809D01*
X166765000Y-70362857D01*
X166885952Y-70241904D01*
X167127857Y-70181428D01*
X167551190Y-70181428D01*
X167793095Y-70241904D01*
X167914047Y-70362857D01*
X167974523Y-70483809D01*
X167974523Y-70725714D01*
X167974523Y-68971904D02*
X167974523Y-69697619D01*
X167974523Y-69334761D02*
X166704523Y-69334761D01*
X166885952Y-69455714D01*
X167006904Y-69576666D01*
X167067380Y-69697619D01*
X188492476Y-70180952D02*
X188432000Y-70301904D01*
X188311047Y-70422857D01*
X188129619Y-70604285D01*
X188069142Y-70725238D01*
X188069142Y-70846190D01*
X188371523Y-70785714D02*
X188311047Y-70906666D01*
X188190095Y-71027619D01*
X187948190Y-71088095D01*
X187524857Y-71088095D01*
X187282952Y-71027619D01*
X187162000Y-70906666D01*
X187101523Y-70785714D01*
X187101523Y-70543809D01*
X187162000Y-70422857D01*
X187282952Y-70301904D01*
X187524857Y-70241428D01*
X187948190Y-70241428D01*
X188190095Y-70301904D01*
X188311047Y-70422857D01*
X188371523Y-70543809D01*
X188371523Y-70785714D01*
X187222476Y-69757619D02*
X187162000Y-69697142D01*
X187101523Y-69576190D01*
X187101523Y-69273809D01*
X187162000Y-69152857D01*
X187222476Y-69092380D01*
X187343428Y-69031904D01*
X187464380Y-69031904D01*
X187645809Y-69092380D01*
X188371523Y-69818095D01*
X188371523Y-69031904D01*
X188492476Y-51220952D02*
X188432000Y-51341904D01*
X188311047Y-51462857D01*
X188129619Y-51644285D01*
X188069142Y-51765238D01*
X188069142Y-51886190D01*
X188371523Y-51825714D02*
X188311047Y-51946666D01*
X188190095Y-52067619D01*
X187948190Y-52128095D01*
X187524857Y-52128095D01*
X187282952Y-52067619D01*
X187162000Y-51946666D01*
X187101523Y-51825714D01*
X187101523Y-51583809D01*
X187162000Y-51462857D01*
X187282952Y-51341904D01*
X187524857Y-51281428D01*
X187948190Y-51281428D01*
X188190095Y-51341904D01*
X188311047Y-51462857D01*
X188371523Y-51583809D01*
X188371523Y-51825714D01*
X187101523Y-50858095D02*
X187101523Y-50071904D01*
X187585333Y-50495238D01*
X187585333Y-50313809D01*
X187645809Y-50192857D01*
X187706285Y-50132380D01*
X187827238Y-50071904D01*
X188129619Y-50071904D01*
X188250571Y-50132380D01*
X188311047Y-50192857D01*
X188371523Y-50313809D01*
X188371523Y-50676666D01*
X188311047Y-50797619D01*
X188250571Y-50858095D01*
X168095476Y-51320952D02*
X168035000Y-51441904D01*
X167914047Y-51562857D01*
X167732619Y-51744285D01*
X167672142Y-51865238D01*
X167672142Y-51986190D01*
X167974523Y-51925714D02*
X167914047Y-52046666D01*
X167793095Y-52167619D01*
X167551190Y-52228095D01*
X167127857Y-52228095D01*
X166885952Y-52167619D01*
X166765000Y-52046666D01*
X166704523Y-51925714D01*
X166704523Y-51683809D01*
X166765000Y-51562857D01*
X166885952Y-51441904D01*
X167127857Y-51381428D01*
X167551190Y-51381428D01*
X167793095Y-51441904D01*
X167914047Y-51562857D01*
X167974523Y-51683809D01*
X167974523Y-51925714D01*
X167127857Y-50292857D02*
X167974523Y-50292857D01*
X166644047Y-50595238D02*
X167551190Y-50897619D01*
X167551190Y-50111428D01*
X168095476Y-101320952D02*
X168035000Y-101441904D01*
X167914047Y-101562857D01*
X167732619Y-101744285D01*
X167672142Y-101865238D01*
X167672142Y-101986190D01*
X167974523Y-101925714D02*
X167914047Y-102046666D01*
X167793095Y-102167619D01*
X167551190Y-102228095D01*
X167127857Y-102228095D01*
X166885952Y-102167619D01*
X166765000Y-102046666D01*
X166704523Y-101925714D01*
X166704523Y-101683809D01*
X166765000Y-101562857D01*
X166885952Y-101441904D01*
X167127857Y-101381428D01*
X167551190Y-101381428D01*
X167793095Y-101441904D01*
X167914047Y-101562857D01*
X167974523Y-101683809D01*
X167974523Y-101925714D01*
X167127857Y-100292857D02*
X167974523Y-100292857D01*
X166644047Y-100595238D02*
X167551190Y-100897619D01*
X167551190Y-100111428D01*
X188492476Y-101220952D02*
X188432000Y-101341904D01*
X188311047Y-101462857D01*
X188129619Y-101644285D01*
X188069142Y-101765238D01*
X188069142Y-101886190D01*
X188371523Y-101825714D02*
X188311047Y-101946666D01*
X188190095Y-102067619D01*
X187948190Y-102128095D01*
X187524857Y-102128095D01*
X187282952Y-102067619D01*
X187162000Y-101946666D01*
X187101523Y-101825714D01*
X187101523Y-101583809D01*
X187162000Y-101462857D01*
X187282952Y-101341904D01*
X187524857Y-101281428D01*
X187948190Y-101281428D01*
X188190095Y-101341904D01*
X188311047Y-101462857D01*
X188371523Y-101583809D01*
X188371523Y-101825714D01*
X187101523Y-100858095D02*
X187101523Y-100071904D01*
X187585333Y-100495238D01*
X187585333Y-100313809D01*
X187645809Y-100192857D01*
X187706285Y-100132380D01*
X187827238Y-100071904D01*
X188129619Y-100071904D01*
X188250571Y-100132380D01*
X188311047Y-100192857D01*
X188371523Y-100313809D01*
X188371523Y-100676666D01*
X188311047Y-100797619D01*
X188250571Y-100858095D01*
X188492476Y-120180952D02*
X188432000Y-120301904D01*
X188311047Y-120422857D01*
X188129619Y-120604285D01*
X188069142Y-120725238D01*
X188069142Y-120846190D01*
X188371523Y-120785714D02*
X188311047Y-120906666D01*
X188190095Y-121027619D01*
X187948190Y-121088095D01*
X187524857Y-121088095D01*
X187282952Y-121027619D01*
X187162000Y-120906666D01*
X187101523Y-120785714D01*
X187101523Y-120543809D01*
X187162000Y-120422857D01*
X187282952Y-120301904D01*
X187524857Y-120241428D01*
X187948190Y-120241428D01*
X188190095Y-120301904D01*
X188311047Y-120422857D01*
X188371523Y-120543809D01*
X188371523Y-120785714D01*
X187222476Y-119757619D02*
X187162000Y-119697142D01*
X187101523Y-119576190D01*
X187101523Y-119273809D01*
X187162000Y-119152857D01*
X187222476Y-119092380D01*
X187343428Y-119031904D01*
X187464380Y-119031904D01*
X187645809Y-119092380D01*
X188371523Y-119818095D01*
X188371523Y-119031904D01*
X168095476Y-120120952D02*
X168035000Y-120241904D01*
X167914047Y-120362857D01*
X167732619Y-120544285D01*
X167672142Y-120665238D01*
X167672142Y-120786190D01*
X167974523Y-120725714D02*
X167914047Y-120846666D01*
X167793095Y-120967619D01*
X167551190Y-121028095D01*
X167127857Y-121028095D01*
X166885952Y-120967619D01*
X166765000Y-120846666D01*
X166704523Y-120725714D01*
X166704523Y-120483809D01*
X166765000Y-120362857D01*
X166885952Y-120241904D01*
X167127857Y-120181428D01*
X167551190Y-120181428D01*
X167793095Y-120241904D01*
X167914047Y-120362857D01*
X167974523Y-120483809D01*
X167974523Y-120725714D01*
X167974523Y-118971904D02*
X167974523Y-119697619D01*
X167974523Y-119334761D02*
X166704523Y-119334761D01*
X166885952Y-119455714D01*
X167006904Y-119576666D01*
X167067380Y-119697619D01*
D10*
X139451780Y-95533333D02*
X140166066Y-95533333D01*
X140308923Y-95580952D01*
X140404161Y-95676190D01*
X140451780Y-95819047D01*
X140451780Y-95914285D01*
X139547019Y-95104761D02*
X139499400Y-95057142D01*
X139451780Y-94961904D01*
X139451780Y-94723809D01*
X139499400Y-94628571D01*
X139547019Y-94580952D01*
X139642257Y-94533333D01*
X139737495Y-94533333D01*
X139880352Y-94580952D01*
X140451780Y-95152380D01*
X140451780Y-94533333D01*
X125116666Y-132152380D02*
X125116666Y-132866666D01*
X125069047Y-133009523D01*
X124973809Y-133104761D01*
X124830952Y-133152380D01*
X124735714Y-133152380D01*
X126069047Y-132152380D02*
X125592857Y-132152380D01*
X125545238Y-132628571D01*
X125592857Y-132580952D01*
X125688095Y-132533333D01*
X125926190Y-132533333D01*
X126021428Y-132580952D01*
X126069047Y-132628571D01*
X126116666Y-132723809D01*
X126116666Y-132961904D01*
X126069047Y-133057142D01*
X126021428Y-133104761D01*
X125926190Y-133152380D01*
X125688095Y-133152380D01*
X125592857Y-133104761D01*
X125545238Y-133057142D01*
X121159523Y-117652380D02*
X120826190Y-117176190D01*
X120588095Y-117652380D02*
X120588095Y-116652380D01*
X120969047Y-116652380D01*
X121064285Y-116700000D01*
X121111904Y-116747619D01*
X121159523Y-116842857D01*
X121159523Y-116985714D01*
X121111904Y-117080952D01*
X121064285Y-117128571D01*
X120969047Y-117176190D01*
X120588095Y-117176190D01*
X121588095Y-117652380D02*
X121588095Y-116652380D01*
X122159523Y-117652380D01*
X122159523Y-116652380D01*
X123159523Y-117652380D02*
X122588095Y-117652380D01*
X122873809Y-117652380D02*
X122873809Y-116652380D01*
X122778571Y-116795238D01*
X122683333Y-116890476D01*
X122588095Y-116938095D01*
X116107404Y-116788380D02*
X116107404Y-115788380D01*
X116345500Y-115788380D01*
X116488357Y-115836000D01*
X116583595Y-115931238D01*
X116631214Y-116026476D01*
X116678833Y-116216952D01*
X116678833Y-116359809D01*
X116631214Y-116550285D01*
X116583595Y-116645523D01*
X116488357Y-116740761D01*
X116345500Y-116788380D01*
X116107404Y-116788380D01*
X117535976Y-116121714D02*
X117535976Y-116788380D01*
X117297880Y-115740761D02*
X117059785Y-116455047D01*
X117678833Y-116455047D01*
X116107404Y-113740380D02*
X116107404Y-112740380D01*
X116345500Y-112740380D01*
X116488357Y-112788000D01*
X116583595Y-112883238D01*
X116631214Y-112978476D01*
X116678833Y-113168952D01*
X116678833Y-113311809D01*
X116631214Y-113502285D01*
X116583595Y-113597523D01*
X116488357Y-113692761D01*
X116345500Y-113740380D01*
X116107404Y-113740380D01*
X117012166Y-112740380D02*
X117631214Y-112740380D01*
X117297880Y-113121333D01*
X117440738Y-113121333D01*
X117535976Y-113168952D01*
X117583595Y-113216571D01*
X117631214Y-113311809D01*
X117631214Y-113549904D01*
X117583595Y-113645142D01*
X117535976Y-113692761D01*
X117440738Y-113740380D01*
X117155023Y-113740380D01*
X117059785Y-113692761D01*
X117012166Y-113645142D01*
X116107404Y-108966380D02*
X116107404Y-107966380D01*
X116345500Y-107966380D01*
X116488357Y-108014000D01*
X116583595Y-108109238D01*
X116631214Y-108204476D01*
X116678833Y-108394952D01*
X116678833Y-108537809D01*
X116631214Y-108728285D01*
X116583595Y-108823523D01*
X116488357Y-108918761D01*
X116345500Y-108966380D01*
X116107404Y-108966380D01*
X117059785Y-108061619D02*
X117107404Y-108014000D01*
X117202642Y-107966380D01*
X117440738Y-107966380D01*
X117535976Y-108014000D01*
X117583595Y-108061619D01*
X117631214Y-108156857D01*
X117631214Y-108252095D01*
X117583595Y-108394952D01*
X117012166Y-108966380D01*
X117631214Y-108966380D01*
X116081904Y-105918380D02*
X116081904Y-104918380D01*
X116320000Y-104918380D01*
X116462857Y-104966000D01*
X116558095Y-105061238D01*
X116605714Y-105156476D01*
X116653333Y-105346952D01*
X116653333Y-105489809D01*
X116605714Y-105680285D01*
X116558095Y-105775523D01*
X116462857Y-105870761D01*
X116320000Y-105918380D01*
X116081904Y-105918380D01*
X117605714Y-105918380D02*
X117034285Y-105918380D01*
X117320000Y-105918380D02*
X117320000Y-104918380D01*
X117224761Y-105061238D01*
X117129523Y-105156476D01*
X117034285Y-105204095D01*
X140757142Y-103792857D02*
X140804761Y-103840476D01*
X140852380Y-103983333D01*
X140852380Y-104078571D01*
X140804761Y-104221428D01*
X140709523Y-104316666D01*
X140614285Y-104364285D01*
X140423809Y-104411904D01*
X140280952Y-104411904D01*
X140090476Y-104364285D01*
X139995238Y-104316666D01*
X139900000Y-104221428D01*
X139852380Y-104078571D01*
X139852380Y-103983333D01*
X139900000Y-103840476D01*
X139947619Y-103792857D01*
X140852380Y-102840476D02*
X140852380Y-103411904D01*
X140852380Y-103126190D02*
X139852380Y-103126190D01*
X139995238Y-103221428D01*
X140090476Y-103316666D01*
X140138095Y-103411904D01*
X140280952Y-102269047D02*
X140233333Y-102364285D01*
X140185714Y-102411904D01*
X140090476Y-102459523D01*
X140042857Y-102459523D01*
X139947619Y-102411904D01*
X139900000Y-102364285D01*
X139852380Y-102269047D01*
X139852380Y-102078571D01*
X139900000Y-101983333D01*
X139947619Y-101935714D01*
X140042857Y-101888095D01*
X140090476Y-101888095D01*
X140185714Y-101935714D01*
X140233333Y-101983333D01*
X140280952Y-102078571D01*
X140280952Y-102269047D01*
X140328571Y-102364285D01*
X140376190Y-102411904D01*
X140471428Y-102459523D01*
X140661904Y-102459523D01*
X140757142Y-102411904D01*
X140804761Y-102364285D01*
X140852380Y-102269047D01*
X140852380Y-102078571D01*
X140804761Y-101983333D01*
X140757142Y-101935714D01*
X140661904Y-101888095D01*
X140471428Y-101888095D01*
X140376190Y-101935714D01*
X140328571Y-101983333D01*
X140280952Y-102078571D01*
X140257142Y-118242857D02*
X140304761Y-118290476D01*
X140352380Y-118433333D01*
X140352380Y-118528571D01*
X140304761Y-118671428D01*
X140209523Y-118766666D01*
X140114285Y-118814285D01*
X139923809Y-118861904D01*
X139780952Y-118861904D01*
X139590476Y-118814285D01*
X139495238Y-118766666D01*
X139400000Y-118671428D01*
X139352380Y-118528571D01*
X139352380Y-118433333D01*
X139400000Y-118290476D01*
X139447619Y-118242857D01*
X140352380Y-117290476D02*
X140352380Y-117861904D01*
X140352380Y-117576190D02*
X139352380Y-117576190D01*
X139495238Y-117671428D01*
X139590476Y-117766666D01*
X139638095Y-117861904D01*
X139352380Y-116671428D02*
X139352380Y-116576190D01*
X139400000Y-116480952D01*
X139447619Y-116433333D01*
X139542857Y-116385714D01*
X139733333Y-116338095D01*
X139971428Y-116338095D01*
X140161904Y-116385714D01*
X140257142Y-116433333D01*
X140304761Y-116480952D01*
X140352380Y-116576190D01*
X140352380Y-116671428D01*
X140304761Y-116766666D01*
X140257142Y-116814285D01*
X140161904Y-116861904D01*
X139971428Y-116909523D01*
X139733333Y-116909523D01*
X139542857Y-116861904D01*
X139447619Y-116814285D01*
X139400000Y-116766666D01*
X139352380Y-116671428D01*
X128788095Y-119852380D02*
X128788095Y-120661904D01*
X128835714Y-120757142D01*
X128883333Y-120804761D01*
X128978571Y-120852380D01*
X129169047Y-120852380D01*
X129264285Y-120804761D01*
X129311904Y-120757142D01*
X129359523Y-120661904D01*
X129359523Y-119852380D01*
X130359523Y-120852380D02*
X129788095Y-120852380D01*
X130073809Y-120852380D02*
X130073809Y-119852380D01*
X129978571Y-119995238D01*
X129883333Y-120090476D01*
X129788095Y-120138095D01*
X147097714Y-100838380D02*
X147097714Y-99838380D01*
X147335809Y-99838380D01*
X147478666Y-99886000D01*
X147573904Y-99981238D01*
X147621523Y-100076476D01*
X147669142Y-100266952D01*
X147669142Y-100409809D01*
X147621523Y-100600285D01*
X147573904Y-100695523D01*
X147478666Y-100790761D01*
X147335809Y-100838380D01*
X147097714Y-100838380D01*
X148621523Y-100838380D02*
X148050095Y-100838380D01*
X148335809Y-100838380D02*
X148335809Y-99838380D01*
X148240571Y-99981238D01*
X148145333Y-100076476D01*
X148050095Y-100124095D01*
X149240571Y-99838380D02*
X149335809Y-99838380D01*
X149431047Y-99886000D01*
X149478666Y-99933619D01*
X149526285Y-100028857D01*
X149573904Y-100219333D01*
X149573904Y-100457428D01*
X149526285Y-100647904D01*
X149478666Y-100743142D01*
X149431047Y-100790761D01*
X149335809Y-100838380D01*
X149240571Y-100838380D01*
X149145333Y-100790761D01*
X149097714Y-100743142D01*
X149050095Y-100647904D01*
X149002476Y-100457428D01*
X149002476Y-100219333D01*
X149050095Y-100028857D01*
X149097714Y-99933619D01*
X149145333Y-99886000D01*
X149240571Y-99838380D01*
X147573904Y-115316380D02*
X147573904Y-114316380D01*
X147812000Y-114316380D01*
X147954857Y-114364000D01*
X148050095Y-114459238D01*
X148097714Y-114554476D01*
X148145333Y-114744952D01*
X148145333Y-114887809D01*
X148097714Y-115078285D01*
X148050095Y-115173523D01*
X147954857Y-115268761D01*
X147812000Y-115316380D01*
X147573904Y-115316380D01*
X149050095Y-114316380D02*
X148573904Y-114316380D01*
X148526285Y-114792571D01*
X148573904Y-114744952D01*
X148669142Y-114697333D01*
X148907238Y-114697333D01*
X149002476Y-114744952D01*
X149050095Y-114792571D01*
X149097714Y-114887809D01*
X149097714Y-115125904D01*
X149050095Y-115221142D01*
X149002476Y-115268761D01*
X148907238Y-115316380D01*
X148669142Y-115316380D01*
X148573904Y-115268761D01*
X148526285Y-115221142D01*
D15*
X121902047Y-98261619D02*
X121962523Y-98080190D01*
X121962523Y-97777809D01*
X121902047Y-97656857D01*
X121841571Y-97596380D01*
X121720619Y-97535904D01*
X121599666Y-97535904D01*
X121478714Y-97596380D01*
X121418238Y-97656857D01*
X121357761Y-97777809D01*
X121297285Y-98019714D01*
X121236809Y-98140666D01*
X121176333Y-98201142D01*
X121055380Y-98261619D01*
X120934428Y-98261619D01*
X120813476Y-98201142D01*
X120753000Y-98140666D01*
X120692523Y-98019714D01*
X120692523Y-97717333D01*
X120753000Y-97535904D01*
X121962523Y-96326380D02*
X121962523Y-97052095D01*
X121962523Y-96689238D02*
X120692523Y-96689238D01*
X120873952Y-96810190D01*
X120994904Y-96931142D01*
X121055380Y-97052095D01*
D10*
X136518642Y-114632380D02*
X136185309Y-114156190D01*
X135947214Y-114632380D02*
X135947214Y-113632380D01*
X136328166Y-113632380D01*
X136423404Y-113680000D01*
X136471023Y-113727619D01*
X136518642Y-113822857D01*
X136518642Y-113965714D01*
X136471023Y-114060952D01*
X136423404Y-114108571D01*
X136328166Y-114156190D01*
X135947214Y-114156190D01*
X137471023Y-114632380D02*
X136899595Y-114632380D01*
X137185309Y-114632380D02*
X137185309Y-113632380D01*
X137090071Y-113775238D01*
X136994833Y-113870476D01*
X136899595Y-113918095D01*
X137947214Y-114632380D02*
X138137690Y-114632380D01*
X138232928Y-114584761D01*
X138280547Y-114537142D01*
X138375785Y-114394285D01*
X138423404Y-114203809D01*
X138423404Y-113822857D01*
X138375785Y-113727619D01*
X138328166Y-113680000D01*
X138232928Y-113632380D01*
X138042452Y-113632380D01*
X137947214Y-113680000D01*
X137899595Y-113727619D01*
X137851976Y-113822857D01*
X137851976Y-114060952D01*
X137899595Y-114156190D01*
X137947214Y-114203809D01*
X138042452Y-114251428D01*
X138232928Y-114251428D01*
X138328166Y-114203809D01*
X138375785Y-114156190D01*
X138423404Y-114060952D01*
X136518642Y-111882380D02*
X136185309Y-111406190D01*
X135947214Y-111882380D02*
X135947214Y-110882380D01*
X136328166Y-110882380D01*
X136423404Y-110930000D01*
X136471023Y-110977619D01*
X136518642Y-111072857D01*
X136518642Y-111215714D01*
X136471023Y-111310952D01*
X136423404Y-111358571D01*
X136328166Y-111406190D01*
X135947214Y-111406190D01*
X137471023Y-111882380D02*
X136899595Y-111882380D01*
X137185309Y-111882380D02*
X137185309Y-110882380D01*
X137090071Y-111025238D01*
X136994833Y-111120476D01*
X136899595Y-111168095D01*
X138042452Y-111310952D02*
X137947214Y-111263333D01*
X137899595Y-111215714D01*
X137851976Y-111120476D01*
X137851976Y-111072857D01*
X137899595Y-110977619D01*
X137947214Y-110930000D01*
X138042452Y-110882380D01*
X138232928Y-110882380D01*
X138328166Y-110930000D01*
X138375785Y-110977619D01*
X138423404Y-111072857D01*
X138423404Y-111120476D01*
X138375785Y-111215714D01*
X138328166Y-111263333D01*
X138232928Y-111310952D01*
X138042452Y-111310952D01*
X137947214Y-111358571D01*
X137899595Y-111406190D01*
X137851976Y-111501428D01*
X137851976Y-111691904D01*
X137899595Y-111787142D01*
X137947214Y-111834761D01*
X138042452Y-111882380D01*
X138232928Y-111882380D01*
X138328166Y-111834761D01*
X138375785Y-111787142D01*
X138423404Y-111691904D01*
X138423404Y-111501428D01*
X138375785Y-111406190D01*
X138328166Y-111358571D01*
X138232928Y-111310952D01*
X136518642Y-109028380D02*
X136185309Y-108552190D01*
X135947214Y-109028380D02*
X135947214Y-108028380D01*
X136328166Y-108028380D01*
X136423404Y-108076000D01*
X136471023Y-108123619D01*
X136518642Y-108218857D01*
X136518642Y-108361714D01*
X136471023Y-108456952D01*
X136423404Y-108504571D01*
X136328166Y-108552190D01*
X135947214Y-108552190D01*
X137471023Y-109028380D02*
X136899595Y-109028380D01*
X137185309Y-109028380D02*
X137185309Y-108028380D01*
X137090071Y-108171238D01*
X136994833Y-108266476D01*
X136899595Y-108314095D01*
X137804357Y-108028380D02*
X138471023Y-108028380D01*
X138042452Y-109028380D01*
X188520833Y-93382380D02*
X188187500Y-92906190D01*
X187949404Y-93382380D02*
X187949404Y-92382380D01*
X188330357Y-92382380D01*
X188425595Y-92430000D01*
X188473214Y-92477619D01*
X188520833Y-92572857D01*
X188520833Y-92715714D01*
X188473214Y-92810952D01*
X188425595Y-92858571D01*
X188330357Y-92906190D01*
X187949404Y-92906190D01*
X188854166Y-92382380D02*
X189520833Y-92382380D01*
X189092261Y-93382380D01*
X193045833Y-93052380D02*
X192712500Y-92576190D01*
X192474404Y-93052380D02*
X192474404Y-92052380D01*
X192855357Y-92052380D01*
X192950595Y-92100000D01*
X192998214Y-92147619D01*
X193045833Y-92242857D01*
X193045833Y-92385714D01*
X192998214Y-92480952D01*
X192950595Y-92528571D01*
X192855357Y-92576190D01*
X192474404Y-92576190D01*
X193902976Y-92052380D02*
X193712500Y-92052380D01*
X193617261Y-92100000D01*
X193569642Y-92147619D01*
X193474404Y-92290476D01*
X193426785Y-92480952D01*
X193426785Y-92861904D01*
X193474404Y-92957142D01*
X193522023Y-93004761D01*
X193617261Y-93052380D01*
X193807738Y-93052380D01*
X193902976Y-93004761D01*
X193950595Y-92957142D01*
X193998214Y-92861904D01*
X193998214Y-92623809D01*
X193950595Y-92528571D01*
X193902976Y-92480952D01*
X193807738Y-92433333D01*
X193617261Y-92433333D01*
X193522023Y-92480952D01*
X193474404Y-92528571D01*
X193426785Y-92623809D01*
X136493142Y-129382380D02*
X136159809Y-128906190D01*
X135921714Y-129382380D02*
X135921714Y-128382380D01*
X136302666Y-128382380D01*
X136397904Y-128430000D01*
X136445523Y-128477619D01*
X136493142Y-128572857D01*
X136493142Y-128715714D01*
X136445523Y-128810952D01*
X136397904Y-128858571D01*
X136302666Y-128906190D01*
X135921714Y-128906190D01*
X137445523Y-129382380D02*
X136874095Y-129382380D01*
X137159809Y-129382380D02*
X137159809Y-128382380D01*
X137064571Y-128525238D01*
X136969333Y-128620476D01*
X136874095Y-128668095D01*
X138302666Y-128382380D02*
X138112190Y-128382380D01*
X138016952Y-128430000D01*
X137969333Y-128477619D01*
X137874095Y-128620476D01*
X137826476Y-128810952D01*
X137826476Y-129191904D01*
X137874095Y-129287142D01*
X137921714Y-129334761D01*
X138016952Y-129382380D01*
X138207428Y-129382380D01*
X138302666Y-129334761D01*
X138350285Y-129287142D01*
X138397904Y-129191904D01*
X138397904Y-128953809D01*
X138350285Y-128858571D01*
X138302666Y-128810952D01*
X138207428Y-128763333D01*
X138016952Y-128763333D01*
X137921714Y-128810952D01*
X137874095Y-128858571D01*
X137826476Y-128953809D01*
X136493142Y-126632380D02*
X136159809Y-126156190D01*
X135921714Y-126632380D02*
X135921714Y-125632380D01*
X136302666Y-125632380D01*
X136397904Y-125680000D01*
X136445523Y-125727619D01*
X136493142Y-125822857D01*
X136493142Y-125965714D01*
X136445523Y-126060952D01*
X136397904Y-126108571D01*
X136302666Y-126156190D01*
X135921714Y-126156190D01*
X137445523Y-126632380D02*
X136874095Y-126632380D01*
X137159809Y-126632380D02*
X137159809Y-125632380D01*
X137064571Y-125775238D01*
X136969333Y-125870476D01*
X136874095Y-125918095D01*
X138350285Y-125632380D02*
X137874095Y-125632380D01*
X137826476Y-126108571D01*
X137874095Y-126060952D01*
X137969333Y-126013333D01*
X138207428Y-126013333D01*
X138302666Y-126060952D01*
X138350285Y-126108571D01*
X138397904Y-126203809D01*
X138397904Y-126441904D01*
X138350285Y-126537142D01*
X138302666Y-126584761D01*
X138207428Y-126632380D01*
X137969333Y-126632380D01*
X137874095Y-126584761D01*
X137826476Y-126537142D01*
X136518642Y-123667380D02*
X136185309Y-123191190D01*
X135947214Y-123667380D02*
X135947214Y-122667380D01*
X136328166Y-122667380D01*
X136423404Y-122715000D01*
X136471023Y-122762619D01*
X136518642Y-122857857D01*
X136518642Y-123000714D01*
X136471023Y-123095952D01*
X136423404Y-123143571D01*
X136328166Y-123191190D01*
X135947214Y-123191190D01*
X137471023Y-123667380D02*
X136899595Y-123667380D01*
X137185309Y-123667380D02*
X137185309Y-122667380D01*
X137090071Y-122810238D01*
X136994833Y-122905476D01*
X136899595Y-122953095D01*
X138328166Y-123000714D02*
X138328166Y-123667380D01*
X138090071Y-122619761D02*
X137851976Y-123334047D01*
X138471023Y-123334047D01*
X188773833Y-109730380D02*
X188440500Y-109254190D01*
X188202404Y-109730380D02*
X188202404Y-108730380D01*
X188583357Y-108730380D01*
X188678595Y-108778000D01*
X188726214Y-108825619D01*
X188773833Y-108920857D01*
X188773833Y-109063714D01*
X188726214Y-109158952D01*
X188678595Y-109206571D01*
X188583357Y-109254190D01*
X188202404Y-109254190D01*
X189678595Y-108730380D02*
X189202404Y-108730380D01*
X189154785Y-109206571D01*
X189202404Y-109158952D01*
X189297642Y-109111333D01*
X189535738Y-109111333D01*
X189630976Y-109158952D01*
X189678595Y-109206571D01*
X189726214Y-109301809D01*
X189726214Y-109539904D01*
X189678595Y-109635142D01*
X189630976Y-109682761D01*
X189535738Y-109730380D01*
X189297642Y-109730380D01*
X189202404Y-109682761D01*
X189154785Y-109635142D01*
X188459633Y-128652380D02*
X188126300Y-128176190D01*
X187888204Y-128652380D02*
X187888204Y-127652380D01*
X188269157Y-127652380D01*
X188364395Y-127700000D01*
X188412014Y-127747619D01*
X188459633Y-127842857D01*
X188459633Y-127985714D01*
X188412014Y-128080952D01*
X188364395Y-128128571D01*
X188269157Y-128176190D01*
X187888204Y-128176190D01*
X189316776Y-127985714D02*
X189316776Y-128652380D01*
X189078680Y-127604761D02*
X188840585Y-128319047D01*
X189459633Y-128319047D01*
X165057142Y-92852380D02*
X164723809Y-92376190D01*
X164485714Y-92852380D02*
X164485714Y-91852380D01*
X164866666Y-91852380D01*
X164961904Y-91900000D01*
X165009523Y-91947619D01*
X165057142Y-92042857D01*
X165057142Y-92185714D01*
X165009523Y-92280952D01*
X164961904Y-92328571D01*
X164866666Y-92376190D01*
X164485714Y-92376190D01*
X166009523Y-92852380D02*
X165438095Y-92852380D01*
X165723809Y-92852380D02*
X165723809Y-91852380D01*
X165628571Y-91995238D01*
X165533333Y-92090476D01*
X165438095Y-92138095D01*
X166342857Y-91852380D02*
X166961904Y-91852380D01*
X166628571Y-92233333D01*
X166771428Y-92233333D01*
X166866666Y-92280952D01*
X166914285Y-92328571D01*
X166961904Y-92423809D01*
X166961904Y-92661904D01*
X166914285Y-92757142D01*
X166866666Y-92804761D01*
X166771428Y-92852380D01*
X166485714Y-92852380D01*
X166390476Y-92804761D01*
X166342857Y-92757142D01*
X167557142Y-111470380D02*
X167223809Y-110994190D01*
X166985714Y-111470380D02*
X166985714Y-110470380D01*
X167366666Y-110470380D01*
X167461904Y-110518000D01*
X167509523Y-110565619D01*
X167557142Y-110660857D01*
X167557142Y-110803714D01*
X167509523Y-110898952D01*
X167461904Y-110946571D01*
X167366666Y-110994190D01*
X166985714Y-110994190D01*
X168509523Y-111470380D02*
X167938095Y-111470380D01*
X168223809Y-111470380D02*
X168223809Y-110470380D01*
X168128571Y-110613238D01*
X168033333Y-110708476D01*
X167938095Y-110756095D01*
X168890476Y-110565619D02*
X168938095Y-110518000D01*
X169033333Y-110470380D01*
X169271428Y-110470380D01*
X169366666Y-110518000D01*
X169414285Y-110565619D01*
X169461904Y-110660857D01*
X169461904Y-110756095D01*
X169414285Y-110898952D01*
X168842857Y-111470380D01*
X169461904Y-111470380D01*
X164845833Y-113282380D02*
X164512500Y-112806190D01*
X164274404Y-113282380D02*
X164274404Y-112282380D01*
X164655357Y-112282380D01*
X164750595Y-112330000D01*
X164798214Y-112377619D01*
X164845833Y-112472857D01*
X164845833Y-112615714D01*
X164798214Y-112710952D01*
X164750595Y-112758571D01*
X164655357Y-112806190D01*
X164274404Y-112806190D01*
X165226785Y-112377619D02*
X165274404Y-112330000D01*
X165369642Y-112282380D01*
X165607738Y-112282380D01*
X165702976Y-112330000D01*
X165750595Y-112377619D01*
X165798214Y-112472857D01*
X165798214Y-112568095D01*
X165750595Y-112710952D01*
X165179166Y-113282380D01*
X165798214Y-113282380D01*
X168033333Y-130652380D02*
X167700000Y-130176190D01*
X167461904Y-130652380D02*
X167461904Y-129652380D01*
X167842857Y-129652380D01*
X167938095Y-129700000D01*
X167985714Y-129747619D01*
X168033333Y-129842857D01*
X168033333Y-129985714D01*
X167985714Y-130080952D01*
X167938095Y-130128571D01*
X167842857Y-130176190D01*
X167461904Y-130176190D01*
X168985714Y-130652380D02*
X168414285Y-130652380D01*
X168700000Y-130652380D02*
X168700000Y-129652380D01*
X168604761Y-129795238D01*
X168509523Y-129890476D01*
X168414285Y-129938095D01*
X127632380Y-114016666D02*
X127156190Y-114350000D01*
X127632380Y-114588095D02*
X126632380Y-114588095D01*
X126632380Y-114207142D01*
X126680000Y-114111904D01*
X126727619Y-114064285D01*
X126822857Y-114016666D01*
X126965714Y-114016666D01*
X127060952Y-114064285D01*
X127108571Y-114111904D01*
X127156190Y-114207142D01*
X127156190Y-114588095D01*
X126632380Y-113683333D02*
X126632380Y-113064285D01*
X127013333Y-113397619D01*
X127013333Y-113254761D01*
X127060952Y-113159523D01*
X127108571Y-113111904D01*
X127203809Y-113064285D01*
X127441904Y-113064285D01*
X127537142Y-113111904D01*
X127584761Y-113159523D01*
X127632380Y-113254761D01*
X127632380Y-113540476D01*
X127584761Y-113635714D01*
X127537142Y-113683333D01*
D15*
X144532238Y-109248523D02*
X144532238Y-107978523D01*
X145862714Y-109127571D02*
X145802238Y-109188047D01*
X145620809Y-109248523D01*
X145499857Y-109248523D01*
X145318428Y-109188047D01*
X145197476Y-109067095D01*
X145137000Y-108946142D01*
X145076523Y-108704238D01*
X145076523Y-108522809D01*
X145137000Y-108280904D01*
X145197476Y-108159952D01*
X145318428Y-108039000D01*
X145499857Y-107978523D01*
X145620809Y-107978523D01*
X145802238Y-108039000D01*
X145862714Y-108099476D01*
X146951285Y-108401857D02*
X146951285Y-109248523D01*
X146648904Y-107918047D02*
X146346523Y-108825190D01*
X147132714Y-108825190D01*
X144532238Y-123726523D02*
X144532238Y-122456523D01*
X145862714Y-123605571D02*
X145802238Y-123666047D01*
X145620809Y-123726523D01*
X145499857Y-123726523D01*
X145318428Y-123666047D01*
X145197476Y-123545095D01*
X145137000Y-123424142D01*
X145076523Y-123182238D01*
X145076523Y-123000809D01*
X145137000Y-122758904D01*
X145197476Y-122637952D01*
X145318428Y-122517000D01*
X145499857Y-122456523D01*
X145620809Y-122456523D01*
X145802238Y-122517000D01*
X145862714Y-122577476D01*
X146346523Y-122577476D02*
X146407000Y-122517000D01*
X146527952Y-122456523D01*
X146830333Y-122456523D01*
X146951285Y-122517000D01*
X147011761Y-122577476D01*
X147072238Y-122698428D01*
X147072238Y-122819380D01*
X147011761Y-123000809D01*
X146286047Y-123726523D01*
X147072238Y-123726523D01*
D10*
X142194642Y-100557142D02*
X142147023Y-100604761D01*
X142004166Y-100652380D01*
X141908928Y-100652380D01*
X141766071Y-100604761D01*
X141670833Y-100509523D01*
X141623214Y-100414285D01*
X141575595Y-100223809D01*
X141575595Y-100080952D01*
X141623214Y-99890476D01*
X141670833Y-99795238D01*
X141766071Y-99700000D01*
X141908928Y-99652380D01*
X142004166Y-99652380D01*
X142147023Y-99700000D01*
X142194642Y-99747619D01*
X143147023Y-100652380D02*
X142575595Y-100652380D01*
X142861309Y-100652380D02*
X142861309Y-99652380D01*
X142766071Y-99795238D01*
X142670833Y-99890476D01*
X142575595Y-99938095D01*
X144051785Y-99652380D02*
X143575595Y-99652380D01*
X143527976Y-100128571D01*
X143575595Y-100080952D01*
X143670833Y-100033333D01*
X143908928Y-100033333D01*
X144004166Y-100080952D01*
X144051785Y-100128571D01*
X144099404Y-100223809D01*
X144099404Y-100461904D01*
X144051785Y-100557142D01*
X144004166Y-100604761D01*
X143908928Y-100652380D01*
X143670833Y-100652380D01*
X143575595Y-100604761D01*
X143527976Y-100557142D01*
X152399142Y-107442857D02*
X152446761Y-107490476D01*
X152494380Y-107633333D01*
X152494380Y-107728571D01*
X152446761Y-107871428D01*
X152351523Y-107966666D01*
X152256285Y-108014285D01*
X152065809Y-108061904D01*
X151922952Y-108061904D01*
X151732476Y-108014285D01*
X151637238Y-107966666D01*
X151542000Y-107871428D01*
X151494380Y-107728571D01*
X151494380Y-107633333D01*
X151542000Y-107490476D01*
X151589619Y-107442857D01*
X152494380Y-106490476D02*
X152494380Y-107061904D01*
X152494380Y-106776190D02*
X151494380Y-106776190D01*
X151637238Y-106871428D01*
X151732476Y-106966666D01*
X151780095Y-107061904D01*
X151827714Y-105633333D02*
X152494380Y-105633333D01*
X151446761Y-105871428D02*
X152161047Y-106109523D01*
X152161047Y-105490476D01*
X152407142Y-112205357D02*
X152454761Y-112252976D01*
X152502380Y-112395833D01*
X152502380Y-112491071D01*
X152454761Y-112633928D01*
X152359523Y-112729166D01*
X152264285Y-112776785D01*
X152073809Y-112824404D01*
X151930952Y-112824404D01*
X151740476Y-112776785D01*
X151645238Y-112729166D01*
X151550000Y-112633928D01*
X151502380Y-112491071D01*
X151502380Y-112395833D01*
X151550000Y-112252976D01*
X151597619Y-112205357D01*
X152502380Y-111252976D02*
X152502380Y-111824404D01*
X152502380Y-111538690D02*
X151502380Y-111538690D01*
X151645238Y-111633928D01*
X151740476Y-111729166D01*
X151788095Y-111824404D01*
X151502380Y-110919642D02*
X151502380Y-110300595D01*
X151883333Y-110633928D01*
X151883333Y-110491071D01*
X151930952Y-110395833D01*
X151978571Y-110348214D01*
X152073809Y-110300595D01*
X152311904Y-110300595D01*
X152407142Y-110348214D01*
X152454761Y-110395833D01*
X152502380Y-110491071D01*
X152502380Y-110776785D01*
X152454761Y-110872023D01*
X152407142Y-110919642D01*
X142633333Y-115057142D02*
X142585714Y-115104761D01*
X142442857Y-115152380D01*
X142347619Y-115152380D01*
X142204761Y-115104761D01*
X142109523Y-115009523D01*
X142061904Y-114914285D01*
X142014285Y-114723809D01*
X142014285Y-114580952D01*
X142061904Y-114390476D01*
X142109523Y-114295238D01*
X142204761Y-114200000D01*
X142347619Y-114152380D01*
X142442857Y-114152380D01*
X142585714Y-114200000D01*
X142633333Y-114247619D01*
X143109523Y-115152380D02*
X143300000Y-115152380D01*
X143395238Y-115104761D01*
X143442857Y-115057142D01*
X143538095Y-114914285D01*
X143585714Y-114723809D01*
X143585714Y-114342857D01*
X143538095Y-114247619D01*
X143490476Y-114200000D01*
X143395238Y-114152380D01*
X143204761Y-114152380D01*
X143109523Y-114200000D01*
X143061904Y-114247619D01*
X143014285Y-114342857D01*
X143014285Y-114580952D01*
X143061904Y-114676190D01*
X143109523Y-114723809D01*
X143204761Y-114771428D01*
X143395238Y-114771428D01*
X143490476Y-114723809D01*
X143538095Y-114676190D01*
X143585714Y-114580952D01*
X152357142Y-120666666D02*
X152404761Y-120714285D01*
X152452380Y-120857142D01*
X152452380Y-120952380D01*
X152404761Y-121095238D01*
X152309523Y-121190476D01*
X152214285Y-121238095D01*
X152023809Y-121285714D01*
X151880952Y-121285714D01*
X151690476Y-121238095D01*
X151595238Y-121190476D01*
X151500000Y-121095238D01*
X151452380Y-120952380D01*
X151452380Y-120857142D01*
X151500000Y-120714285D01*
X151547619Y-120666666D01*
X151880952Y-120095238D02*
X151833333Y-120190476D01*
X151785714Y-120238095D01*
X151690476Y-120285714D01*
X151642857Y-120285714D01*
X151547619Y-120238095D01*
X151500000Y-120190476D01*
X151452380Y-120095238D01*
X151452380Y-119904761D01*
X151500000Y-119809523D01*
X151547619Y-119761904D01*
X151642857Y-119714285D01*
X151690476Y-119714285D01*
X151785714Y-119761904D01*
X151833333Y-119809523D01*
X151880952Y-119904761D01*
X151880952Y-120095238D01*
X151928571Y-120190476D01*
X151976190Y-120238095D01*
X152071428Y-120285714D01*
X152261904Y-120285714D01*
X152357142Y-120238095D01*
X152404761Y-120190476D01*
X152452380Y-120095238D01*
X152452380Y-119904761D01*
X152404761Y-119809523D01*
X152357142Y-119761904D01*
X152261904Y-119714285D01*
X152071428Y-119714285D01*
X151976190Y-119761904D01*
X151928571Y-119809523D01*
X151880952Y-119904761D01*
X152345142Y-126466666D02*
X152392761Y-126514285D01*
X152440380Y-126657142D01*
X152440380Y-126752380D01*
X152392761Y-126895238D01*
X152297523Y-126990476D01*
X152202285Y-127038095D01*
X152011809Y-127085714D01*
X151868952Y-127085714D01*
X151678476Y-127038095D01*
X151583238Y-126990476D01*
X151488000Y-126895238D01*
X151440380Y-126752380D01*
X151440380Y-126657142D01*
X151488000Y-126514285D01*
X151535619Y-126466666D01*
X151440380Y-126133333D02*
X151440380Y-125466666D01*
X152440380Y-125895238D01*
X124807142Y-122629166D02*
X124854761Y-122676785D01*
X124902380Y-122819642D01*
X124902380Y-122914880D01*
X124854761Y-123057738D01*
X124759523Y-123152976D01*
X124664285Y-123200595D01*
X124473809Y-123248214D01*
X124330952Y-123248214D01*
X124140476Y-123200595D01*
X124045238Y-123152976D01*
X123950000Y-123057738D01*
X123902380Y-122914880D01*
X123902380Y-122819642D01*
X123950000Y-122676785D01*
X123997619Y-122629166D01*
X123997619Y-122248214D02*
X123950000Y-122200595D01*
X123902380Y-122105357D01*
X123902380Y-121867261D01*
X123950000Y-121772023D01*
X123997619Y-121724404D01*
X124092857Y-121676785D01*
X124188095Y-121676785D01*
X124330952Y-121724404D01*
X124902380Y-122295833D01*
X124902380Y-121676785D01*
X124857142Y-128366666D02*
X124904761Y-128414285D01*
X124952380Y-128557142D01*
X124952380Y-128652380D01*
X124904761Y-128795238D01*
X124809523Y-128890476D01*
X124714285Y-128938095D01*
X124523809Y-128985714D01*
X124380952Y-128985714D01*
X124190476Y-128938095D01*
X124095238Y-128890476D01*
X124000000Y-128795238D01*
X123952380Y-128652380D01*
X123952380Y-128557142D01*
X124000000Y-128414285D01*
X124047619Y-128366666D01*
X124952380Y-127414285D02*
X124952380Y-127985714D01*
X124952380Y-127700000D02*
X123952380Y-127700000D01*
X124095238Y-127795238D01*
X124190476Y-127890476D01*
X124238095Y-127985714D01*
M02*
