G04 #@! TF.GenerationSoftware,KiCad,Pcbnew,(5.1.5)-3*
G04 #@! TF.CreationDate,2019-12-11T22:47:02+09:00*
G04 #@! TF.ProjectId,CAN_Dual_MDexpress,43414e5f-4475-4616-9c5f-4d4465787072,rev?*
G04 #@! TF.SameCoordinates,Original*
G04 #@! TF.FileFunction,Profile,NP*
%FSLAX46Y46*%
G04 Gerber Fmt 4.6, Leading zero omitted, Abs format (unit mm)*
G04 Created by KiCad (PCBNEW (5.1.5)-3) date 2019-12-11 22:47:02*
%MOMM*%
%LPD*%
G04 APERTURE LIST*
%ADD10C,0.050000*%
%ADD11C,0.120000*%
G04 APERTURE END LIST*
D10*
X133373000Y-75772000D02*
X131468000Y-75772000D01*
X205000000Y-38500000D02*
X205000000Y-85000000D01*
X120000000Y-38500000D02*
X120000000Y-85000000D01*
X201500000Y-35000000D02*
X123500000Y-35000000D01*
X131468000Y-85000000D02*
X131468000Y-75772000D01*
X133373000Y-75772000D02*
X133373000Y-85000000D01*
X201500000Y-35000000D02*
G75*
G02X205000000Y-38500000I0J-3500000D01*
G01*
X120000000Y-38500000D02*
G75*
G02X123500000Y-35000000I3500000J0D01*
G01*
X133373000Y-85000000D02*
X205000000Y-85000000D01*
X120000000Y-85000000D02*
X131468000Y-85000000D01*
X205000000Y-88500000D02*
X205000000Y-135000000D01*
X120000000Y-88500000D02*
X120000000Y-135000000D01*
X201500000Y-85000000D02*
X123500000Y-85000000D01*
X131468000Y-135000000D02*
X131468000Y-125772000D01*
X133373000Y-125772000D02*
X133373000Y-135000000D01*
X201500000Y-85000000D02*
G75*
G02X205000000Y-88500000I0J-3500000D01*
G01*
X120000000Y-88500000D02*
G75*
G02X123500000Y-85000000I3500000J0D01*
G01*
X133373000Y-125772000D02*
X131468000Y-125772000D01*
X133373000Y-135000000D02*
X205000000Y-135000000D01*
X120000000Y-135000000D02*
X131468000Y-135000000D01*
D11*
X110000000Y-85000000D02*
X215000000Y-85000000D01*
M02*
