M48
; DRILL file {KiCad (5.1.4)-1} date 2019/12/04 1:37:46
; FORMAT={3:3/ absolute / metric / suppress leading zeros}
; #@! TF.CreationDate,2019-12-04T01:37:46+09:00
; #@! TF.GenerationSoftware,Kicad,Pcbnew,(5.1.4)-1
FMAT,2
METRIC,TZ
T1C0.300
T2C0.400
T3C0.950
T4C1.000
T5C3.400
%
G90
G05
T1
X120970Y-127830
X120970Y-128530
X121000Y-89000
X121000Y-99000
X121000Y-103500
X121000Y-107000
X121000Y-114000
X121000Y-117500
X121000Y-121000
X121000Y-123500
X121000Y-125000
X122000Y-44000
X122000Y-48000
X122000Y-52000
X122000Y-56000
X122000Y-60000
X122000Y-64000
X122000Y-68000
X122000Y-72000
X122000Y-83500
X122500Y-123500
X122500Y-125000
X123000Y-42000
X123000Y-46000
X123000Y-50000
X123000Y-54000
X123000Y-58000
X123000Y-62000
X123000Y-66000
X123000Y-70000
X123000Y-76000
X123000Y-78000
X123000Y-80000
X123000Y-128000
X123750Y-103500
X124000Y-127500
X124200Y-111110
X124300Y-94500
X124500Y-50000
X124500Y-50750
X124500Y-51500
X124500Y-52250
X124500Y-53000
X124500Y-53750
X124500Y-54500
X124500Y-55250
X124500Y-56000
X124500Y-56750
X124500Y-57500
X124500Y-58250
X124500Y-59000
X124500Y-59750
X124500Y-68750
X124500Y-69500
X124500Y-70250
X124500Y-71000
X124500Y-71750
X124500Y-72500
X124500Y-74250
X124500Y-75000
X124500Y-75750
X124500Y-76500
X124500Y-77250
X124500Y-78000
X124500Y-78750
X124500Y-79500
X124600Y-114800
X125000Y-126500
X125250Y-50000
X125250Y-50750
X125250Y-51500
X125250Y-52250
X125250Y-53000
X125250Y-53750
X125250Y-54500
X125250Y-55250
X125250Y-56000
X125250Y-56750
X125250Y-57500
X125250Y-58250
X125250Y-59000
X125250Y-59750
X125250Y-68750
X125250Y-69500
X125250Y-70250
X125250Y-71000
X125250Y-71000
X125250Y-71750
X125250Y-72500
X125250Y-74250
X125250Y-75000
X125250Y-75750
X125250Y-76500
X125250Y-77250
X125250Y-78000
X125250Y-78750
X125250Y-79500
X126000Y-50000
X126000Y-50750
X126000Y-51500
X126000Y-52250
X126000Y-53000
X126000Y-53750
X126000Y-54500
X126000Y-55250
X126000Y-56000
X126000Y-56750
X126000Y-57500
X126000Y-58250
X126000Y-59000
X126000Y-59750
X126000Y-68750
X126000Y-69500
X126000Y-70250
X126000Y-71000
X126000Y-71750
X126000Y-72500
X126000Y-74250
X126000Y-75000
X126000Y-75750
X126000Y-76500
X126000Y-77250
X126000Y-78000
X126000Y-78750
X126000Y-79500
X126000Y-125500
X126300Y-100100
X126439Y-88561
X126750Y-50000
X126750Y-50750
X126750Y-51500
X126750Y-52250
X126750Y-53000
X126750Y-53750
X126750Y-54500
X126750Y-55250
X126750Y-56000
X126750Y-56750
X126750Y-57500
X126750Y-58250
X126750Y-59000
X126750Y-59750
X126750Y-68750
X126750Y-69500
X126750Y-70250
X126750Y-71000
X126750Y-71750
X126750Y-72500
X126750Y-74250
X126750Y-75000
X126750Y-75750
X126750Y-76500
X126750Y-77250
X126750Y-78000
X126750Y-78750
X126750Y-79500
X127000Y-114500
X127000Y-124500
X127500Y-50000
X127500Y-50750
X127500Y-51500
X127500Y-52250
X127500Y-53000
X127500Y-53750
X127500Y-54500
X127500Y-55250
X127500Y-56000
X127500Y-56750
X127500Y-57500
X127500Y-58250
X127500Y-59000
X127500Y-59750
X127500Y-68750
X127500Y-69500
X127500Y-70250
X127500Y-71000
X127500Y-71750
X127500Y-72500
X127500Y-74250
X127500Y-75000
X127500Y-75750
X127500Y-76500
X127500Y-77250
X127500Y-78000
X127500Y-78750
X127500Y-79500
X128250Y-50000
X128250Y-50750
X128250Y-51500
X128250Y-52250
X128250Y-53000
X128250Y-53750
X128250Y-54500
X128250Y-55250
X128250Y-56000
X128250Y-56750
X128250Y-57500
X128250Y-58250
X128250Y-59000
X128250Y-59750
X128250Y-68750
X128250Y-69500
X128250Y-70250
X128250Y-71000
X128250Y-71750
X128250Y-72500
X128250Y-74250
X128250Y-75000
X128250Y-75750
X128250Y-76500
X128250Y-77250
X128250Y-78000
X128250Y-78750
X128250Y-79500
X128500Y-127500
X129000Y-50000
X129000Y-50750
X129000Y-51500
X129000Y-58250
X129000Y-59000
X129000Y-59750
X129000Y-68750
X129000Y-69500
X129000Y-70250
X129000Y-71000
X129000Y-77250
X129000Y-78000
X129000Y-78750
X129000Y-79500
X129100Y-107600
X129750Y-50000
X129750Y-50750
X129750Y-51500
X129750Y-68750
X129750Y-69500
X129750Y-70250
X129750Y-71000
X129750Y-77250
X129750Y-78000
X129750Y-78750
X129750Y-79500
X130200Y-110600
X131250Y-50000
X131250Y-50750
X131250Y-51500
X131250Y-52250
X131250Y-53000
X131250Y-53750
X131250Y-53750
X131250Y-54500
X131250Y-55500
X131250Y-56250
X131250Y-57000
X131250Y-57750
X131250Y-58500
X131250Y-59250
X131250Y-60000
X131250Y-68250
X131250Y-69000
X131250Y-69750
X131250Y-70500
X131250Y-71250
X131250Y-72000
X131250Y-72750
X131250Y-73500
X131250Y-74500
X131250Y-75250
X131250Y-76000
X131250Y-76750
X131250Y-77500
X131250Y-78250
X131250Y-79000
X131250Y-79750
X131750Y-124756
X132000Y-50000
X132000Y-50750
X132000Y-51500
X132000Y-52250
X132000Y-53000
X132000Y-53750
X132000Y-54500
X132000Y-55500
X132000Y-56250
X132000Y-57000
X132000Y-57750
X132000Y-58500
X132000Y-59250
X132000Y-60000
X132000Y-68250
X132000Y-69000
X132000Y-69750
X132000Y-70500
X132000Y-71250
X132000Y-72000
X132000Y-72750
X132000Y-73500
X132000Y-74500
X132000Y-75250
X132000Y-76000
X132000Y-76750
X132000Y-77500
X132000Y-78250
X132000Y-79000
X132000Y-79750
X132750Y-50000
X132750Y-50750
X132750Y-51500
X132750Y-52250
X132750Y-53000
X132750Y-53750
X132750Y-54500
X132750Y-55500
X132750Y-56250
X132750Y-57000
X132750Y-57750
X132750Y-58500
X132750Y-59250
X132750Y-60000
X132750Y-68250
X132750Y-69000
X132750Y-69750
X132750Y-70500
X132750Y-71250
X132750Y-72000
X132750Y-72750
X132750Y-72750
X132750Y-73500
X132750Y-74500
X132750Y-75250
X132750Y-76000
X132750Y-76750
X132750Y-77500
X132750Y-78250
X132750Y-79000
X132750Y-79750
X133000Y-91000
X133470Y-97460
X133500Y-50000
X133500Y-50750
X133500Y-51500
X133500Y-52250
X133500Y-53000
X133500Y-53750
X133500Y-54500
X133500Y-55500
X133500Y-56250
X133500Y-57000
X133500Y-57750
X133500Y-58500
X133500Y-59250
X133500Y-60000
X133500Y-68250
X133500Y-69000
X133500Y-69750
X133500Y-70500
X133500Y-71250
X133500Y-72000
X133500Y-72750
X133500Y-73500
X133500Y-74500
X133500Y-75250
X133500Y-76000
X133500Y-76750
X133500Y-77500
X133500Y-78250
X133500Y-79000
X134000Y-123500
X134250Y-50000
X134250Y-50750
X134250Y-51500
X134250Y-52250
X134250Y-53000
X134250Y-53750
X134250Y-54500
X134250Y-55500
X134250Y-56250
X134250Y-57000
X134250Y-57750
X134250Y-58500
X134250Y-59250
X134250Y-60000
X134250Y-69000
X134250Y-69750
X134250Y-70500
X134250Y-71250
X134250Y-72000
X134250Y-72750
X134250Y-73500
X134250Y-74500
X134250Y-75250
X134250Y-76000
X134250Y-76750
X134250Y-77500
X134250Y-78250
X134250Y-79000
X135000Y-50000
X135000Y-50750
X135000Y-51500
X135000Y-52250
X135000Y-53000
X135000Y-53750
X135000Y-54500
X135000Y-55500
X135000Y-56250
X135000Y-57000
X135000Y-57750
X135000Y-58500
X135000Y-59250
X135000Y-60000
X135000Y-69000
X135000Y-69750
X135000Y-70500
X135000Y-71250
X135000Y-72000
X135000Y-72750
X135000Y-73500
X135000Y-74500
X135000Y-75250
X135000Y-76000
X135000Y-76750
X135000Y-77500
X135000Y-77500
X135000Y-78250
X135000Y-79000
X135750Y-50000
X135750Y-50750
X135750Y-51500
X135750Y-51500
X135750Y-52250
X135750Y-53000
X135750Y-53750
X135750Y-54500
X135750Y-54500
X135750Y-55500
X135750Y-56250
X135750Y-57000
X135750Y-57750
X135750Y-58500
X135750Y-59250
X135750Y-59250
X135750Y-60000
X135750Y-69000
X135750Y-69750
X135750Y-70500
X135750Y-70500
X135750Y-71250
X135750Y-72000
X135750Y-72750
X135750Y-73500
X135750Y-74500
X135750Y-75250
X135750Y-76000
X135750Y-76750
X135750Y-77500
X135750Y-78250
X135750Y-79000
X136000Y-100100
X136000Y-127000
X136500Y-50000
X136500Y-50750
X136500Y-51500
X136500Y-52250
X136500Y-53000
X136500Y-53750
X136500Y-54500
X136500Y-55500
X136500Y-56250
X136500Y-57000
X136500Y-57750
X136500Y-58500
X136500Y-59250
X136500Y-60000
X136500Y-69000
X136500Y-69750
X136500Y-70500
X136500Y-71250
X136500Y-72000
X136500Y-72750
X136500Y-73500
X136500Y-74500
X136500Y-75250
X136500Y-76000
X136500Y-76750
X136500Y-77500
X136500Y-78250
X136500Y-79000
X136670Y-92840
X137250Y-50000
X137250Y-50750
X137250Y-51500
X137250Y-52250
X137250Y-53000
X137250Y-53750
X137250Y-54500
X137250Y-55500
X137250Y-56250
X137250Y-57000
X137250Y-57750
X137250Y-58500
X137250Y-59250
X137250Y-60000
X137250Y-68250
X137250Y-69000
X137250Y-69750
X137250Y-70500
X137250Y-71250
X137250Y-72000
X137250Y-72000
X137250Y-72750
X137250Y-73500
X137250Y-74500
X137250Y-75250
X137250Y-76000
X137250Y-76750
X137250Y-77500
X137250Y-78250
X137250Y-79000
X137250Y-79750
X138000Y-50000
X138000Y-52250
X138000Y-53000
X138000Y-53750
X138000Y-54500
X138000Y-55500
X138000Y-56250
X138000Y-57000
X138000Y-72000
X138000Y-72750
X138000Y-73500
X138000Y-74500
X138000Y-75250
X138000Y-76000
X138000Y-79000
X138000Y-79750
X138000Y-86300
X138000Y-127000
X138750Y-53750
X138750Y-54500
X138750Y-56000
X138750Y-72750
X138750Y-73500
X138750Y-74500
X140000Y-127000
X140250Y-103750
X141000Y-96000
X141000Y-113000
X141000Y-125000
X142000Y-127000
X144000Y-127000
X144100Y-90900
X144750Y-49250
X144750Y-50000
X144750Y-50750
X144750Y-51500
X144750Y-52250
X144750Y-53000
X144750Y-53750
X144750Y-54500
X144750Y-55500
X144750Y-56250
X144750Y-57000
X144750Y-57750
X144750Y-58500
X144750Y-59250
X144750Y-60000
X144750Y-69000
X144750Y-69750
X144750Y-70500
X144750Y-71250
X144750Y-72000
X144750Y-72750
X144750Y-73500
X144750Y-74500
X144750Y-75250
X144750Y-76000
X144750Y-76750
X144750Y-77500
X144750Y-78250
X144750Y-79000
X145000Y-109500
X145500Y-49250
X145500Y-50000
X145500Y-50750
X145500Y-51500
X145500Y-52250
X145500Y-53000
X145500Y-53750
X145500Y-54500
X145500Y-55500
X145500Y-56250
X145500Y-57000
X145500Y-57750
X145500Y-58500
X145500Y-58500
X145500Y-59250
X145500Y-60000
X145500Y-69000
X145500Y-69750
X145500Y-70500
X145500Y-71250
X145500Y-72000
X145500Y-72750
X145500Y-73500
X145500Y-74500
X145500Y-75250
X145500Y-76000
X145500Y-76750
X145500Y-77500
X145500Y-78250
X145500Y-79000
X145700Y-106800
X145750Y-124000
X146000Y-95000
X146000Y-126000
X146000Y-128000
X146127Y-120427
X146151Y-105949
X146160Y-121350
X146250Y-50000
X146250Y-50750
X146250Y-51500
X146250Y-52250
X146250Y-53000
X146250Y-53750
X146250Y-54500
X146250Y-55500
X146250Y-56250
X146250Y-57000
X146250Y-57750
X146250Y-58500
X146250Y-59250
X146250Y-60000
X146250Y-69000
X146250Y-69750
X146250Y-70500
X146250Y-71250
X146250Y-72000
X146250Y-72750
X146250Y-73500
X146250Y-74500
X146250Y-75250
X146250Y-76000
X146250Y-76750
X146250Y-77500
X146250Y-78250
X146250Y-79000
X147000Y-50000
X147000Y-50750
X147000Y-51500
X147000Y-52250
X147000Y-53000
X147000Y-53750
X147000Y-54500
X147000Y-55500
X147000Y-56250
X147000Y-57000
X147000Y-57750
X147000Y-58500
X147000Y-59250
X147000Y-60000
X147000Y-69000
X147000Y-69750
X147000Y-70500
X147000Y-71250
X147000Y-72000
X147000Y-72750
X147000Y-73500
X147000Y-74500
X147000Y-75250
X147000Y-76000
X147000Y-76750
X147000Y-77500
X147000Y-78250
X147000Y-79000
X147750Y-50000
X147750Y-50750
X147750Y-51500
X147750Y-52250
X147750Y-53000
X147750Y-53750
X147750Y-54500
X147750Y-55500
X147750Y-56250
X147750Y-57000
X147750Y-57750
X147750Y-58500
X147750Y-59250
X147750Y-60000
X147750Y-69000
X147750Y-69750
X147750Y-70500
X147750Y-71250
X147750Y-72000
X147750Y-72750
X147750Y-73500
X147750Y-74500
X147750Y-75250
X147750Y-76000
X147750Y-76750
X147750Y-77500
X147750Y-78250
X147750Y-79000
X148000Y-125000
X148000Y-127000
X148500Y-50000
X148500Y-50750
X148500Y-51500
X148500Y-52250
X148500Y-53750
X148500Y-54500
X148500Y-56250
X148500Y-57000
X148500Y-57750
X148500Y-58500
X148500Y-59250
X148500Y-60000
X148500Y-69000
X148500Y-69750
X148500Y-70500
X148500Y-71250
X148500Y-73500
X148500Y-75250
X148500Y-76000
X148500Y-76750
X148500Y-77500
X148500Y-78250
X148500Y-79000
X149250Y-49250
X149250Y-50000
X149250Y-50750
X149250Y-51500
X149250Y-52250
X149250Y-57750
X149250Y-58500
X149250Y-59250
X149250Y-60000
X149250Y-69000
X149250Y-69750
X149250Y-70500
X149250Y-71250
X149250Y-76750
X149250Y-77500
X149250Y-78250
X149250Y-79000
X149750Y-114500
X149750Y-124000
X150000Y-49250
X150000Y-50000
X150000Y-50750
X150000Y-51500
X150000Y-52250
X150000Y-69000
X150000Y-69750
X150000Y-70500
X150000Y-99000
X150000Y-103000
X150000Y-104000
X150000Y-105000
X150000Y-126000
X150000Y-128000
X150049Y-101951
X150500Y-86100
X151000Y-42000
X151000Y-44000
X151000Y-102000
X151000Y-105000
X151000Y-106000
X151000Y-116000
X151000Y-117000
X151000Y-118000
X151000Y-119000
X151000Y-120000
X151500Y-77000
X151500Y-77750
X151500Y-78500
X151500Y-79250
X151500Y-80000
X151700Y-53200
X151700Y-54050
X151700Y-56000
X151700Y-56850
X151700Y-58250
X151700Y-59000
X151700Y-59750
X151700Y-60500
X151750Y-48750
X151750Y-49500
X151750Y-50250
X151750Y-51000
X151750Y-51750
X151750Y-61250
X151750Y-69000
X151750Y-69750
X151750Y-70500
X151750Y-72000
X151750Y-72850
X151750Y-74650
X151750Y-75500
X151963Y-102038
X152000Y-105000
X152000Y-106000
X152000Y-116000
X152000Y-117000
X152000Y-119000
X152000Y-120000
X152000Y-125000
X152000Y-127000
X152250Y-77000
X152250Y-77750
X152250Y-78500
X152250Y-79250
X152250Y-80000
X152450Y-58250
X152450Y-59000
X152450Y-59750
X152450Y-60500
X152500Y-48750
X152500Y-49500
X152500Y-50250
X152500Y-51000
X152500Y-51750
X152500Y-61250
X152500Y-67500
X152500Y-68250
X152500Y-69000
X152500Y-69750
X152500Y-70500
X152600Y-53200
X152600Y-54050
X152600Y-56000
X152600Y-56850
X152650Y-72000
X152650Y-72850
X152650Y-74650
X152650Y-75500
X153000Y-43000
X153000Y-77000
X153000Y-77750
X153000Y-78500
X153000Y-79250
X153000Y-80000
X153200Y-58250
X153200Y-59000
X153200Y-59750
X153200Y-60500
X153200Y-98300
X153250Y-48750
X153250Y-49500
X153250Y-50250
X153250Y-51000
X153250Y-51750
X153250Y-61250
X153250Y-67500
X153250Y-68250
X153250Y-69000
X153250Y-69750
X153250Y-70500
X153500Y-53200
X153500Y-54050
X153500Y-56000
X153500Y-56850
X153500Y-109500
X153550Y-72000
X153550Y-72850
X153550Y-74650
X153550Y-75500
X153750Y-77000
X153750Y-77750
X153750Y-78500
X153750Y-79250
X153750Y-80000
X153950Y-58250
X153950Y-59000
X153950Y-59750
X153950Y-60500
X154000Y-48750
X154000Y-49500
X154000Y-50250
X154000Y-51000
X154000Y-51750
X154000Y-61250
X154000Y-67500
X154000Y-68250
X154000Y-69000
X154000Y-69750
X154000Y-70500
X154000Y-124000
X154000Y-126000
X154000Y-128000
X154400Y-53200
X154400Y-54050
X154400Y-56000
X154400Y-56850
X154450Y-72000
X154450Y-72850
X154450Y-74650
X154450Y-75500
X154500Y-77000
X154500Y-77750
X154500Y-78500
X154500Y-79250
X154500Y-80000
X154700Y-58250
X154700Y-59000
X154700Y-59750
X154700Y-60500
X154750Y-48750
X154750Y-49500
X154750Y-50250
X154750Y-51000
X154750Y-51750
X154750Y-61250
X154750Y-67500
X154750Y-68250
X154750Y-69000
X154750Y-69750
X154750Y-70500
X155000Y-42000
X155000Y-44000
X155000Y-109000
X155250Y-77000
X155250Y-77750
X155250Y-78500
X155250Y-79250
X155250Y-80000
X155300Y-53200
X155300Y-54050
X155300Y-56000
X155300Y-56850
X155300Y-103500
X155350Y-72000
X155350Y-72850
X155350Y-74650
X155350Y-75500
X155450Y-58250
X155450Y-59000
X155450Y-59750
X155450Y-60500
X155500Y-48750
X155500Y-49500
X155500Y-50250
X155500Y-51000
X155500Y-51750
X155500Y-61250
X155500Y-67500
X155500Y-68250
X155500Y-69000
X155500Y-69750
X155500Y-70500
X156000Y-77000
X156000Y-77750
X156000Y-78500
X156000Y-79250
X156000Y-80000
X156000Y-123000
X156000Y-125000
X156000Y-127000
X156200Y-58250
X156200Y-59000
X156200Y-59750
X156200Y-60500
X156250Y-48750
X156250Y-49500
X156250Y-50250
X156250Y-51000
X156250Y-51750
X156250Y-61250
X156250Y-67500
X156250Y-68250
X156250Y-69000
X156250Y-69750
X156250Y-70500
X156500Y-108500
X156650Y-56750
X156650Y-57500
X156700Y-52500
X156700Y-53250
X156700Y-54000
X156750Y-75500
X156750Y-76250
X156750Y-77000
X156750Y-77750
X156750Y-78500
X156750Y-79250
X156750Y-80000
X156950Y-58250
X156950Y-59000
X156950Y-59750
X156950Y-60500
X157000Y-43000
X157000Y-48750
X157000Y-49500
X157000Y-50250
X157000Y-51000
X157000Y-51750
X157000Y-61250
X157000Y-67500
X157000Y-68250
X157000Y-69000
X157000Y-69750
X157000Y-70500
X157000Y-71250
X157000Y-72000
X157000Y-72750
X157000Y-93250
X157000Y-110000
X157400Y-56000
X157400Y-56750
X157400Y-57500
X157450Y-52500
X157450Y-53250
X157450Y-54000
X157500Y-74750
X157500Y-75500
X157500Y-76250
X157500Y-77000
X157500Y-77750
X157500Y-78500
X157500Y-79250
X157500Y-80000
X157700Y-58250
X157700Y-59000
X157700Y-59750
X157700Y-60500
X157750Y-48750
X157750Y-49500
X157750Y-50250
X157750Y-51000
X157750Y-51750
X157750Y-61250
X157750Y-67500
X157750Y-68250
X157750Y-69000
X157750Y-69750
X157750Y-70500
X157750Y-71250
X157750Y-72000
X157750Y-72750
X158000Y-124000
X158000Y-126000
X158000Y-128000
X158150Y-56000
X158150Y-56750
X158150Y-57500
X158200Y-52500
X158200Y-53250
X158200Y-54000
X158250Y-74750
X158250Y-75500
X158250Y-76250
X158250Y-77000
X158250Y-77750
X158250Y-78500
X158250Y-79250
X158250Y-80000
X158450Y-58250
X158450Y-59000
X158450Y-59750
X158450Y-60500
X158500Y-48750
X158500Y-49500
X158500Y-50250
X158500Y-51000
X158500Y-51750
X158500Y-61250
X158500Y-67500
X158500Y-68250
X158500Y-69000
X158500Y-69750
X158500Y-70500
X158500Y-71250
X158500Y-72000
X158500Y-72750
X158800Y-118500
X158900Y-56000
X158900Y-56750
X158900Y-57500
X158950Y-52500
X158950Y-53250
X158950Y-54000
X159000Y-42000
X159000Y-44000
X159000Y-74750
X159000Y-75500
X159000Y-76250
X159000Y-77000
X159000Y-77750
X159000Y-78500
X159000Y-79250
X159000Y-80000
X159000Y-97000
X159000Y-99000
X159200Y-58250
X159200Y-59000
X159200Y-59750
X159200Y-60500
X159250Y-48750
X159250Y-49500
X159250Y-50250
X159250Y-51000
X159250Y-51750
X159250Y-61250
X159250Y-67500
X159250Y-68250
X159250Y-69000
X159250Y-69750
X159250Y-70500
X159250Y-71250
X159250Y-72000
X159250Y-72750
X159650Y-56000
X159650Y-56750
X159650Y-57500
X159700Y-52500
X159700Y-53250
X159700Y-54000
X159750Y-74750
X159750Y-75500
X159750Y-76250
X159750Y-77000
X159750Y-77750
X159750Y-78500
X159750Y-79250
X159750Y-80000
X160000Y-48750
X160000Y-49500
X160000Y-50250
X160000Y-51000
X160000Y-51750
X160000Y-58250
X160000Y-59000
X160000Y-59750
X160000Y-60500
X160000Y-61250
X160000Y-67500
X160000Y-68250
X160000Y-69000
X160000Y-69750
X160000Y-70500
X160000Y-71250
X160000Y-72000
X160000Y-96000
X160000Y-98000
X160000Y-113000
X160000Y-123000
X160000Y-125000
X160000Y-127000
X160500Y-105000
X160500Y-106500
X161000Y-43000
X161000Y-45000
X161000Y-50000
X161000Y-52000
X161000Y-57000
X161000Y-59000
X161000Y-61000
X161000Y-67000
X161000Y-69000
X161000Y-71000
X161000Y-76000
X161000Y-78000
X161000Y-95000
X161000Y-97000
X161000Y-102000
X161000Y-112000
X162000Y-56000
X162000Y-58000
X162000Y-60000
X162000Y-68000
X162000Y-70000
X162000Y-75000
X162000Y-77000
X162000Y-87000
X162000Y-94000
X162000Y-96000
X162000Y-101000
X162000Y-103000
X162000Y-111000
X162000Y-113000
X162000Y-122000
X162000Y-124000
X162000Y-126000
X162000Y-128000
X163000Y-42000
X163000Y-44000
X163000Y-46000
X163000Y-48000
X163000Y-57000
X163000Y-59000
X163000Y-67000
X163000Y-69000
X163000Y-74000
X163000Y-76000
X163000Y-83000
X163000Y-93000
X163000Y-95000
X163000Y-100000
X163000Y-102000
X163000Y-110000
X163000Y-112000
X163000Y-114000
X164000Y-58000
X164000Y-68000
X164000Y-73000
X164000Y-75000
X164000Y-92000
X164000Y-94000
X164000Y-99000
X164000Y-101000
X164000Y-103000
X164000Y-109000
X164000Y-111000
X164000Y-113000
X164000Y-118000
X164000Y-120000
X164000Y-125000
X164000Y-127000
X164500Y-63500
X164500Y-65000
X165000Y-43000
X165000Y-45000
X165000Y-47000
X165000Y-57000
X165000Y-72000
X165000Y-74000
X165000Y-98000
X165000Y-98750
X165000Y-99500
X165000Y-100250
X165000Y-101000
X165000Y-101750
X165000Y-102500
X165000Y-108750
X165000Y-109500
X165000Y-110250
X165000Y-111000
X165000Y-111750
X165000Y-118250
X165000Y-119000
X165000Y-119750
X165000Y-120500
X165000Y-121250
X165250Y-90000
X165250Y-90750
X165250Y-91500
X165250Y-92250
X165250Y-93000
X165250Y-93750
X165250Y-94500
X165250Y-95250
X165300Y-116000
X165300Y-116750
X165300Y-117500
X165350Y-112500
X165350Y-113250
X165350Y-114000
X165750Y-97250
X165750Y-98000
X165750Y-98750
X165750Y-99500
X165750Y-100250
X165750Y-101000
X165750Y-101750
X165750Y-102500
X165750Y-108750
X165750Y-118250
X165750Y-119000
X165750Y-119750
X165750Y-120500
X165750Y-121250
X165800Y-109500
X165800Y-110250
X165800Y-111000
X165800Y-111750
X166000Y-71000
X166000Y-73000
X166000Y-90000
X166000Y-90750
X166000Y-91500
X166000Y-92250
X166000Y-93000
X166000Y-93750
X166000Y-94500
X166000Y-95250
X166000Y-126000
X166000Y-128000
X166050Y-116000
X166050Y-116750
X166050Y-117500
X166100Y-112500
X166100Y-113250
X166100Y-114000
X166200Y-51500
X166500Y-97250
X166500Y-98000
X166500Y-98750
X166500Y-99500
X166500Y-100250
X166500Y-101000
X166500Y-101750
X166500Y-102500
X166500Y-108750
X166500Y-118250
X166500Y-119000
X166500Y-119750
X166500Y-120500
X166500Y-121250
X166550Y-109500
X166550Y-110250
X166550Y-111000
X166550Y-111750
X166750Y-90000
X166750Y-90750
X166750Y-91500
X166750Y-92250
X166750Y-93000
X166750Y-93750
X166750Y-94500
X166750Y-95250
X166800Y-116000
X166800Y-116750
X166800Y-117500
X166850Y-112500
X166850Y-113250
X166850Y-114000
X167000Y-42000
X167000Y-44000
X167000Y-46000
X167250Y-97250
X167250Y-98000
X167250Y-98750
X167250Y-99500
X167250Y-100250
X167250Y-101000
X167250Y-101750
X167250Y-102500
X167250Y-108750
X167250Y-118250
X167250Y-119000
X167250Y-119750
X167250Y-120500
X167250Y-121250
X167300Y-109500
X167300Y-110250
X167300Y-111000
X167300Y-111750
X167500Y-90000
X167500Y-90750
X167500Y-91500
X167500Y-92250
X167500Y-93000
X167500Y-93750
X167500Y-94500
X167500Y-95250
X167550Y-116000
X167550Y-116750
X167550Y-117500
X167600Y-112500
X167600Y-113250
X167600Y-114000
X168000Y-60000
X168000Y-76750
X168000Y-97250
X168000Y-98000
X168000Y-98750
X168000Y-99500
X168000Y-100250
X168000Y-101000
X168000Y-101750
X168000Y-102500
X168000Y-108750
X168000Y-118250
X168000Y-119000
X168000Y-119750
X168000Y-120500
X168000Y-121250
X168000Y-127000
X168050Y-109500
X168050Y-110250
X168050Y-111000
X168050Y-111750
X168250Y-90000
X168250Y-90750
X168250Y-91500
X168250Y-92250
X168250Y-93000
X168250Y-93750
X168250Y-94500
X168300Y-116000
X168300Y-116750
X168300Y-117500
X168350Y-112500
X168350Y-113250
X168500Y-61500
X168750Y-99500
X168750Y-100250
X168750Y-101000
X168750Y-101750
X168750Y-102500
X168750Y-108750
X168750Y-118250
X168750Y-119000
X168750Y-119750
X168750Y-120500
X168750Y-121250
X168800Y-109500
X168800Y-110250
X168800Y-111000
X168800Y-111750
X169000Y-43000
X169000Y-45000
X169000Y-47000
X169000Y-90000
X169000Y-90750
X169000Y-91500
X169000Y-92250
X169000Y-93000
X169500Y-99500
X169500Y-100250
X169500Y-101000
X169500Y-101750
X169500Y-102500
X169500Y-108750
X169500Y-118250
X169500Y-119000
X169500Y-119750
X169500Y-120500
X169500Y-121250
X169550Y-109500
X169550Y-110250
X169550Y-111000
X169550Y-111750
X169650Y-94500
X169650Y-95350
X169650Y-97150
X169650Y-98000
X169700Y-66500
X169700Y-113150
X169700Y-114000
X169700Y-115950
X169700Y-116800
X169750Y-90000
X169750Y-90750
X169750Y-91500
X169750Y-92250
X169750Y-93000
X170000Y-61000
X170000Y-126000
X170000Y-128000
X170250Y-99500
X170250Y-100250
X170250Y-101000
X170250Y-101750
X170250Y-102500
X170250Y-108750
X170250Y-118250
X170250Y-119000
X170250Y-119750
X170250Y-120500
X170250Y-121250
X170300Y-109500
X170300Y-110250
X170300Y-111000
X170300Y-111750
X170500Y-90000
X170500Y-90750
X170500Y-91500
X170500Y-92250
X170500Y-93000
X170550Y-94500
X170550Y-95350
X170550Y-97150
X170550Y-98000
X170600Y-113150
X170600Y-114000
X170600Y-115950
X170600Y-116800
X171000Y-42000
X171000Y-44000
X171000Y-46000
X171000Y-99500
X171000Y-100250
X171000Y-101000
X171000Y-101750
X171000Y-102500
X171000Y-108750
X171000Y-118250
X171000Y-119000
X171000Y-119750
X171000Y-120500
X171000Y-121250
X171050Y-109500
X171050Y-110250
X171050Y-111000
X171050Y-111750
X171250Y-90000
X171250Y-90750
X171250Y-91500
X171250Y-92250
X171250Y-93000
X171450Y-94500
X171450Y-95350
X171450Y-97150
X171450Y-98000
X171500Y-60500
X171500Y-113150
X171500Y-114000
X171500Y-115950
X171500Y-116800
X171750Y-99500
X171750Y-100250
X171750Y-101000
X171750Y-101750
X171750Y-102500
X171750Y-108750
X171750Y-118250
X171750Y-119000
X171750Y-119750
X171750Y-120500
X171750Y-121250
X171800Y-71700
X171800Y-109500
X171800Y-110250
X171800Y-111000
X171800Y-111750
X172000Y-90000
X172000Y-90750
X172000Y-91500
X172000Y-92250
X172000Y-93000
X172000Y-127000
X172350Y-94500
X172350Y-95350
X172350Y-97150
X172350Y-98000
X172400Y-113150
X172400Y-114000
X172400Y-115950
X172400Y-116800
X172500Y-99500
X172500Y-100250
X172500Y-101000
X172500Y-101750
X172500Y-102500
X172500Y-108750
X172500Y-118250
X172500Y-119000
X172500Y-119750
X172500Y-120500
X172500Y-121250
X172550Y-109500
X172550Y-110250
X172550Y-111000
X172550Y-111750
X172750Y-90000
X172750Y-90750
X172750Y-91500
X172750Y-92250
X172750Y-93000
X173000Y-43000
X173000Y-45000
X173000Y-50000
X173000Y-51000
X173000Y-53000
X173000Y-54000
X173000Y-64000
X173000Y-65000
X173038Y-67962
X173250Y-94500
X173250Y-95350
X173250Y-97150
X173250Y-98000
X173250Y-99500
X173250Y-100250
X173250Y-101000
X173250Y-108750
X173250Y-118250
X173250Y-119000
X173250Y-119750
X173250Y-120500
X173250Y-121250
X173300Y-109500
X173300Y-110250
X173300Y-111000
X173300Y-111750
X173300Y-113150
X173300Y-114000
X173300Y-115950
X173300Y-116800
X173500Y-90000
X173500Y-90750
X173500Y-91500
X173500Y-92250
X173500Y-93000
X174000Y-50000
X174000Y-51000
X174000Y-52000
X174000Y-53000
X174000Y-54000
X174000Y-64000
X174000Y-65000
X174000Y-68000
X174000Y-126000
X174000Y-128000
X174500Y-83900
X174951Y-68049
X175000Y-42000
X175000Y-44000
X175000Y-65000
X175000Y-66000
X175000Y-67000
X175000Y-71000
X175000Y-99500
X175000Y-100250
X175000Y-101000
X175000Y-117750
X175000Y-118500
X175000Y-119250
X175000Y-120000
X175000Y-120750
X175250Y-46000
X175250Y-55500
X175750Y-91000
X175750Y-91750
X175750Y-92500
X175750Y-93250
X175750Y-98750
X175750Y-99500
X175750Y-100250
X175750Y-101000
X175750Y-110000
X175750Y-110750
X175750Y-111500
X175750Y-112250
X175750Y-117750
X175750Y-118500
X175750Y-119250
X175750Y-120000
X175750Y-120750
X176500Y-91000
X176500Y-91750
X176500Y-92500
X176500Y-93250
X176500Y-94000
X176500Y-94750
X176500Y-96500
X176500Y-98750
X176500Y-99500
X176500Y-100250
X176500Y-101000
X176500Y-110000
X176500Y-110750
X176500Y-111500
X176500Y-112250
X176500Y-113000
X176500Y-113750
X176500Y-115500
X176500Y-116250
X176500Y-117750
X176500Y-118500
X176500Y-119250
X176500Y-120000
X177000Y-43000
X177000Y-45000
X177250Y-91000
X177250Y-91750
X177250Y-92500
X177250Y-93250
X177250Y-94000
X177250Y-94750
X177250Y-95500
X177250Y-96500
X177250Y-97250
X177250Y-98000
X177250Y-98750
X177250Y-99500
X177250Y-100250
X177250Y-101000
X177250Y-110000
X177250Y-110750
X177250Y-111500
X177250Y-112250
X177250Y-113000
X177250Y-113750
X177250Y-114500
X177250Y-115500
X177250Y-116250
X177250Y-117000
X177250Y-117750
X177250Y-118500
X177250Y-119250
X177250Y-120000
X178000Y-91000
X178000Y-91750
X178000Y-92500
X178000Y-93250
X178000Y-94000
X178000Y-94750
X178000Y-95500
X178000Y-96500
X178000Y-97250
X178000Y-98000
X178000Y-98750
X178000Y-99500
X178000Y-100250
X178000Y-101000
X178000Y-110000
X178000Y-110750
X178000Y-111500
X178000Y-112250
X178000Y-113000
X178000Y-113750
X178000Y-114500
X178000Y-115500
X178000Y-116250
X178000Y-117000
X178000Y-117750
X178000Y-118500
X178000Y-119250
X178000Y-120000
X178750Y-91000
X178750Y-91750
X178750Y-92500
X178750Y-93250
X178750Y-94000
X178750Y-94750
X178750Y-95500
X178750Y-96500
X178750Y-97250
X178750Y-98000
X178750Y-98750
X178750Y-99500
X178750Y-100250
X178750Y-101000
X178750Y-110000
X178750Y-110750
X178750Y-111500
X178750Y-112250
X178750Y-113000
X178750Y-113750
X178750Y-114500
X178750Y-115500
X178750Y-116250
X178750Y-117000
X178750Y-117750
X178750Y-118500
X178750Y-119250
X178750Y-120000
X178840Y-48650
X178849Y-64051
X178873Y-49573
X179000Y-42000
X179000Y-44000
X179000Y-75000
X179250Y-46000
X179300Y-63200
X179500Y-91000
X179500Y-91750
X179500Y-92500
X179500Y-93250
X179500Y-94000
X179500Y-94750
X179500Y-95500
X179500Y-96500
X179500Y-97250
X179500Y-98000
X179500Y-98750
X179500Y-99500
X179500Y-100250
X179500Y-101000
X179500Y-110000
X179500Y-110750
X179500Y-111500
X179500Y-111500
X179500Y-112250
X179500Y-113000
X179500Y-113750
X179500Y-114500
X179500Y-115500
X179500Y-116250
X179500Y-117000
X179500Y-117750
X179500Y-118500
X179500Y-119250
X179500Y-120000
X179500Y-120750
X180000Y-60500
X180250Y-91000
X180250Y-91750
X180250Y-92500
X180250Y-93250
X180250Y-94000
X180250Y-94750
X180250Y-95500
X180250Y-96500
X180250Y-97250
X180250Y-98000
X180250Y-98750
X180250Y-99500
X180250Y-100250
X180250Y-101000
X180250Y-110000
X180250Y-110750
X180250Y-111500
X180250Y-112250
X180250Y-113000
X180250Y-113750
X180250Y-114500
X180250Y-115500
X180250Y-116250
X180250Y-117000
X180250Y-117750
X180250Y-118500
X180250Y-119250
X180250Y-120000
X180250Y-120750
X180900Y-79100
X181000Y-43000
X183000Y-43000
X184000Y-45000
X184000Y-57000
X184000Y-74000
X184750Y-66250
X185000Y-43000
X186250Y-95500
X186250Y-96500
X186250Y-97250
X186250Y-114000
X186250Y-115500
X186250Y-116250
X187000Y-43000
X187000Y-83700
X187000Y-90250
X187000Y-91000
X187000Y-94000
X187000Y-94750
X187000Y-95500
X187000Y-96500
X187000Y-97250
X187000Y-98000
X187000Y-113000
X187000Y-113750
X187000Y-114500
X187000Y-115500
X187000Y-116250
X187000Y-117000
X187000Y-117750
X187000Y-120000
X187750Y-90250
X187750Y-91000
X187750Y-91750
X187750Y-92500
X187750Y-93250
X187750Y-94000
X187750Y-94750
X187750Y-95500
X187750Y-96500
X187750Y-97250
X187750Y-98000
X187750Y-98000
X187750Y-98750
X187750Y-99500
X187750Y-100250
X187750Y-101000
X187750Y-101750
X187750Y-110000
X187750Y-110750
X187750Y-111500
X187750Y-112250
X187750Y-113000
X187750Y-113750
X187750Y-114500
X187750Y-115500
X187750Y-116250
X187750Y-117000
X187750Y-117750
X187750Y-118500
X187750Y-119250
X187750Y-120000
X188330Y-77160
X188500Y-91000
X188500Y-91750
X188500Y-92500
X188500Y-93250
X188500Y-94000
X188500Y-94750
X188500Y-95500
X188500Y-96500
X188500Y-97250
X188500Y-98000
X188500Y-98750
X188500Y-99500
X188500Y-100250
X188500Y-101000
X188500Y-110000
X188500Y-110750
X188500Y-111500
X188500Y-112250
X188500Y-113000
X188500Y-113750
X188500Y-114500
X188500Y-115500
X188500Y-116250
X188500Y-117000
X188500Y-117750
X188500Y-118500
X188500Y-119250
X188500Y-120000
X189000Y-43000
X189000Y-69900
X189250Y-91000
X189250Y-91750
X189250Y-92500
X189250Y-93250
X189250Y-94000
X189250Y-94750
X189250Y-95500
X189250Y-96500
X189250Y-97250
X189250Y-98000
X189250Y-98750
X189250Y-99500
X189250Y-99500
X189250Y-100250
X189250Y-101000
X189250Y-110000
X189250Y-110750
X189250Y-110750
X189250Y-111500
X189250Y-112250
X189250Y-113000
X189250Y-113750
X189250Y-114500
X189250Y-115500
X189250Y-115500
X189250Y-116250
X189250Y-117000
X189250Y-117750
X189250Y-118500
X189250Y-118500
X189250Y-119250
X189250Y-120000
X190000Y-91000
X190000Y-91750
X190000Y-92500
X190000Y-92500
X190000Y-93250
X190000Y-94000
X190000Y-94750
X190000Y-95500
X190000Y-96500
X190000Y-97250
X190000Y-98000
X190000Y-98750
X190000Y-99500
X190000Y-100250
X190000Y-101000
X190000Y-110000
X190000Y-110750
X190000Y-111500
X190000Y-112250
X190000Y-113000
X190000Y-113750
X190000Y-114500
X190000Y-115500
X190000Y-116250
X190000Y-117000
X190000Y-117750
X190000Y-118500
X190000Y-119250
X190000Y-120000
X190750Y-91000
X190750Y-91750
X190750Y-92500
X190750Y-93250
X190750Y-94000
X190750Y-94750
X190750Y-95500
X190750Y-96500
X190750Y-97250
X190750Y-98000
X190750Y-98750
X190750Y-99500
X190750Y-100250
X190750Y-101000
X190750Y-110000
X190750Y-110750
X190750Y-111500
X190750Y-112250
X190750Y-113000
X190750Y-113750
X190750Y-114500
X190750Y-115500
X190750Y-116250
X190750Y-117000
X190750Y-117750
X190750Y-118500
X190750Y-119250
X190750Y-120000
X191000Y-46500
X191500Y-91000
X191500Y-91750
X191500Y-92500
X191500Y-93250
X191500Y-94000
X191500Y-94750
X191500Y-95500
X191500Y-96500
X191500Y-97250
X191500Y-98000
X191500Y-98750
X191500Y-99500
X191500Y-100250
X191500Y-101000
X191500Y-101750
X191500Y-110000
X191500Y-110750
X191500Y-111500
X191500Y-112250
X191500Y-113000
X191500Y-113750
X191500Y-114500
X191500Y-115500
X191500Y-116250
X191500Y-117000
X191500Y-117750
X191500Y-118500
X191500Y-119250
X191500Y-120000
X191530Y-72540
X192000Y-79000
X192250Y-90250
X192250Y-91000
X192250Y-91750
X192250Y-92500
X192250Y-93250
X192250Y-94000
X192250Y-94750
X192250Y-95500
X192250Y-96500
X192250Y-97250
X192250Y-97250
X192250Y-98000
X192250Y-98750
X192250Y-99500
X192250Y-100250
X192250Y-101000
X192250Y-101750
X192250Y-110000
X192250Y-110750
X192250Y-111500
X192250Y-112250
X192250Y-113000
X192250Y-113750
X192250Y-114500
X192250Y-115500
X192250Y-116250
X192250Y-117000
X192250Y-117750
X192250Y-118500
X192250Y-119250
X192250Y-120000
X193000Y-90250
X193000Y-91000
X193000Y-91750
X193000Y-92500
X193000Y-93250
X193000Y-94000
X193000Y-94750
X193000Y-95500
X193000Y-96500
X193000Y-97250
X193000Y-98000
X193000Y-98750
X193000Y-99500
X193000Y-100250
X193000Y-101000
X193000Y-101750
X193000Y-110000
X193000Y-110750
X193000Y-111500
X193000Y-112250
X193000Y-113000
X193000Y-113750
X193000Y-114500
X193000Y-115500
X193000Y-116250
X193000Y-117000
X193000Y-117750
X193000Y-118500
X193000Y-119250
X193000Y-120000
X193250Y-45244
X193750Y-90250
X193750Y-91000
X193750Y-91750
X193750Y-92500
X193750Y-93250
X193750Y-94000
X193750Y-94750
X193750Y-95500
X193750Y-96500
X193750Y-97250
X193750Y-98000
X193750Y-98750
X193750Y-99500
X193750Y-100250
X193750Y-101000
X193750Y-101750
X193750Y-110000
X193750Y-110750
X193750Y-111500
X193750Y-112250
X193750Y-113000
X193750Y-113750
X193750Y-114500
X193750Y-115500
X193750Y-116250
X193750Y-116250
X193750Y-117000
X193750Y-117750
X193750Y-118500
X193750Y-119250
X193750Y-120000
X194800Y-59400
X195250Y-90500
X195250Y-91250
X195250Y-92000
X195250Y-92750
X195250Y-99000
X195250Y-99750
X195250Y-100500
X195250Y-101250
X195250Y-118500
X195250Y-119250
X195250Y-120000
X195900Y-62400
X196000Y-90500
X196000Y-91250
X196000Y-92000
X196000Y-92750
X196000Y-99000
X196000Y-99750
X196000Y-100500
X196000Y-101250
X196000Y-110250
X196000Y-111000
X196000Y-111750
X196000Y-118500
X196000Y-119250
X196000Y-120000
X196500Y-42500
X196750Y-90500
X196750Y-91250
X196750Y-92000
X196750Y-92750
X196750Y-93500
X196750Y-94250
X196750Y-95000
X196750Y-95750
X196750Y-97500
X196750Y-98250
X196750Y-99000
X196750Y-99750
X196750Y-100500
X196750Y-101250
X196750Y-110250
X196750Y-111000
X196750Y-111750
X196750Y-112500
X196750Y-113250
X196750Y-114000
X196750Y-114750
X196750Y-115500
X196750Y-116250
X196750Y-117000
X196750Y-117750
X196750Y-118500
X196750Y-119250
X196750Y-120000
X197500Y-90500
X197500Y-91250
X197500Y-92000
X197500Y-92750
X197500Y-93500
X197500Y-94250
X197500Y-95000
X197500Y-95750
X197500Y-97500
X197500Y-98250
X197500Y-99000
X197500Y-99750
X197500Y-100500
X197500Y-101250
X197500Y-110250
X197500Y-111000
X197500Y-111750
X197500Y-112500
X197500Y-113250
X197500Y-114000
X197500Y-114750
X197500Y-115500
X197500Y-116250
X197500Y-117000
X197500Y-117750
X197500Y-118500
X197500Y-119250
X197500Y-120000
X198000Y-45500
X198000Y-55500
X198250Y-90500
X198250Y-91250
X198250Y-92000
X198250Y-92750
X198250Y-93500
X198250Y-94250
X198250Y-95000
X198250Y-95750
X198250Y-97500
X198250Y-98250
X198250Y-99000
X198250Y-99750
X198250Y-100500
X198250Y-101250
X198250Y-110250
X198250Y-111000
X198250Y-111750
X198250Y-112500
X198250Y-113250
X198250Y-114000
X198250Y-114750
X198250Y-115500
X198250Y-116250
X198250Y-117000
X198250Y-117750
X198250Y-118500
X198250Y-119250
X198250Y-120000
X198561Y-81439
X198700Y-69900
X199000Y-44500
X199000Y-90500
X199000Y-91250
X199000Y-92000
X199000Y-92750
X199000Y-93500
X199000Y-94250
X199000Y-95000
X199000Y-95750
X199000Y-97500
X199000Y-98250
X199000Y-99000
X199000Y-99750
X199000Y-100500
X199000Y-101250
X199000Y-110250
X199000Y-111000
X199000Y-111750
X199000Y-112500
X199000Y-113250
X199000Y-114000
X199000Y-114750
X199000Y-115500
X199000Y-116250
X199000Y-117000
X199000Y-117750
X199000Y-118500
X199000Y-119250
X199000Y-120000
X199750Y-90500
X199750Y-91250
X199750Y-92000
X199750Y-92750
X199750Y-93500
X199750Y-94250
X199750Y-95000
X199750Y-95750
X199750Y-97500
X199750Y-98250
X199750Y-99000
X199750Y-99000
X199750Y-99750
X199750Y-100500
X199750Y-101250
X199750Y-110250
X199750Y-111000
X199750Y-111750
X199750Y-112500
X199750Y-113250
X199750Y-114000
X199750Y-114750
X199750Y-115500
X199750Y-116250
X199750Y-117000
X199750Y-117750
X199750Y-118500
X199750Y-119250
X199750Y-120000
X200000Y-43500
X200400Y-55200
X200500Y-90500
X200500Y-91250
X200500Y-92000
X200500Y-92750
X200500Y-93500
X200500Y-94250
X200500Y-95000
X200500Y-95750
X200500Y-97500
X200500Y-98250
X200500Y-99000
X200500Y-99750
X200500Y-100500
X200500Y-101250
X200500Y-110250
X200500Y-111000
X200500Y-111750
X200500Y-112500
X200500Y-113250
X200500Y-114000
X200500Y-114750
X200500Y-115500
X200500Y-116250
X200500Y-117000
X200500Y-117750
X200500Y-118500
X200500Y-119250
X200500Y-120000
X200700Y-75500
X200800Y-58890
X201000Y-42500
X201250Y-66500
X202000Y-42000
X202000Y-90000
X202000Y-92000
X202000Y-94000
X202000Y-100000
X202000Y-104000
X202000Y-108000
X202000Y-112000
X202000Y-116000
X202000Y-120000
X202000Y-124000
X202000Y-128000
X202500Y-45000
X202500Y-46500
X203000Y-86500
X203000Y-98000
X203000Y-102000
X203000Y-106000
X203000Y-110000
X203000Y-114000
X203000Y-118000
X203000Y-122000
X203000Y-126000
X204000Y-45000
X204000Y-46500
X204000Y-49000
X204000Y-52500
X204000Y-56000
X204000Y-63000
X204000Y-66500
X204000Y-71000
X204000Y-81000
X204030Y-41470
X204030Y-42170
T2
X124000Y-107100
X124300Y-123500
X127459Y-105500
X127617Y-120783
X128000Y-109300
X128184Y-106329
X128200Y-102800
X128700Y-88000
X128790Y-111000
X128998Y-101914
X129000Y-105750
X129723Y-102752
X130651Y-102380
X131260Y-99760
X131326Y-97833
X131639Y-98783
X131865Y-105854
X132005Y-102271
X132250Y-111000
X132700Y-94000
X132760Y-99760
X132967Y-107067
X133189Y-114003
X133975Y-113258
X134000Y-103300
X134300Y-111900
X134596Y-104368
X135600Y-91000
X135900Y-115300
X135970Y-107082
X136300Y-116800
X136500Y-113700
X136526Y-104585
X136946Y-95578
X137002Y-97602
X137003Y-96576
X137900Y-110800
X138100Y-93300
X138800Y-97900
X139228Y-113481
X139300Y-93700
X141300Y-93300
X141900Y-120600
X142000Y-106250
X144681Y-106700
X144691Y-103222
X144781Y-119208
X144791Y-101692
X144837Y-117063
X144887Y-105287
X144900Y-104200
X144900Y-118100
X145000Y-120600
X145731Y-115735
X148700Y-55600
X148800Y-53100
X148800Y-71900
X149000Y-74500
X154975Y-117966
X155200Y-106500
X155300Y-114300
X155314Y-120810
X156000Y-101100
X156472Y-114153
X156702Y-105005
X157000Y-106200
X157145Y-119852
X157200Y-100600
X157300Y-116800
X159662Y-116120
X160710Y-117250
X160750Y-114250
X160800Y-100600
X161112Y-116317
X161250Y-119000
X163750Y-51000
X163888Y-53683
X164200Y-69400
X164250Y-55750
X164290Y-52750
X165338Y-53880
X167700Y-53200
X167800Y-69400
X167855Y-50148
X168000Y-63800
X168298Y-64995
X168528Y-55847
X169000Y-68900
X169686Y-49190
X169700Y-55700
X169800Y-63500
X170025Y-52034
X176000Y-95500
X176200Y-98100
X176200Y-116900
X176300Y-114400
X179269Y-54265
X180000Y-49400
X180100Y-51900
X180100Y-65800
X180113Y-64713
X180163Y-52937
X180209Y-68308
X180219Y-50792
X180309Y-66778
X180319Y-63300
X183000Y-63750
X183100Y-49400
X183700Y-76700
X185700Y-76300
X185772Y-56519
X186200Y-72100
X186900Y-76700
X187100Y-59200
X187997Y-73424
X187998Y-72398
X188054Y-74422
X188474Y-65415
X188500Y-56300
X188700Y-53200
X189030Y-62918
X189100Y-54700
X189400Y-79000
X190404Y-65632
X190700Y-58100
X191000Y-66700
X191025Y-56742
X191811Y-55997
X192033Y-62933
X192240Y-70240
X192300Y-76000
X192750Y-59000
X192995Y-67729
X193135Y-64146
X193361Y-71217
X193674Y-72167
X193740Y-70240
X194349Y-67620
X195277Y-67248
X196000Y-64250
X196002Y-68086
X196210Y-59000
X196300Y-82000
X196800Y-67200
X196816Y-63671
X197000Y-60700
X197383Y-49217
X197541Y-64500
X200700Y-46500
X201000Y-62900
T3
X148600Y-91200
X151100Y-91200
X153600Y-91200
X156100Y-91200
X158600Y-91200
X166400Y-78800
X168900Y-78800
X171400Y-78800
X173900Y-78800
X176400Y-78800
T4
X184900Y-79000
X187400Y-79000
X137600Y-91000
X140100Y-91000
T5
X141102Y-70200
X141102Y-77400
X183898Y-92600
X183898Y-99800
X183898Y-111600
X183898Y-118800
X141102Y-51200
X141102Y-58400
T4
G00X178498Y-89450
M15
G01X177298Y-89450
M16
G05
G00X178498Y-102950
M15
G01X177298Y-102950
M16
G05
G00X190498Y-89450
M15
G01X189298Y-89450
M16
G05
G00X190498Y-102950
M15
G01X189298Y-102950
M16
G05
G00X178498Y-108450
M15
G01X177298Y-108450
M16
G05
G00X178498Y-121950
M15
G01X177298Y-121950
M16
G05
G00X190498Y-108450
M15
G01X189298Y-108450
M16
G05
G00X190498Y-121950
M15
G01X189298Y-121950
M16
G05
G00X134502Y-48050
M15
G01X135702Y-48050
M16
G05
G00X134502Y-61550
M15
G01X135702Y-61550
M16
G05
G00X146502Y-48050
M15
G01X147702Y-48050
M16
G05
G00X146502Y-61550
M15
G01X147702Y-61550
M16
G05
G00X134502Y-67050
M15
G01X135702Y-67050
M16
G05
G00X134502Y-80550
M15
G01X135702Y-80550
M16
G05
G00X146502Y-67050
M15
G01X147702Y-67050
M16
G05
G00X146502Y-80550
M15
G01X147702Y-80550
M16
G05
T0
M30
