M48
; DRILL file {KiCad (5.1.5)-3} date 2019/12/12 18:32:03
; FORMAT={-:-/ absolute / metric / decimal}
; #@! TF.CreationDate,2019-12-12T18:32:03+09:00
; #@! TF.GenerationSoftware,Kicad,Pcbnew,(5.1.5)-3
FMAT,2
METRIC
T1C0.300
T2C0.400
T3C1.000
T4C3.400
%
G90
G05
T1
X115.97Y-83.53
X115.97Y-133.53
X116.0Y-54.0
X116.0Y-61.8
X116.0Y-69.0
X116.0Y-72.5
X116.0Y-104.0
X116.0Y-111.8
X116.0Y-119.0
X116.0Y-122.5
X116.1Y-43.4
X116.1Y-93.4
X118.0Y-83.5
X118.0Y-133.5
X119.9Y-67.5
X119.9Y-117.5
X120.25Y-56.0
X120.25Y-106.0
X121.4Y-47.0
X121.4Y-97.0
X122.0Y-80.8
X122.0Y-130.8
X122.1Y-69.2
X122.1Y-119.2
X124.5Y-81.8
X124.5Y-131.8
X125.85Y-61.3
X125.85Y-111.3
X126.0Y-46.2
X126.0Y-96.2
X126.2Y-56.1
X126.2Y-65.8
X126.2Y-106.1
X126.2Y-115.8
X126.75Y-79.2
X126.75Y-129.2
X128.6Y-52.0
X128.6Y-102.0
X129.0Y-59.5
X129.0Y-109.5
X130.2Y-71.2
X130.2Y-121.2
X130.6Y-51.6
X130.6Y-101.6
X131.0Y-55.1
X131.0Y-82.0
X131.0Y-105.1
X131.0Y-132.0
X131.3Y-68.55
X131.3Y-118.55
X131.4Y-64.45
X131.4Y-114.45
X133.0Y-41.3
X133.0Y-48.4
X133.0Y-91.3
X133.0Y-98.4
X133.4Y-79.2
X133.4Y-129.2
X135.0Y-82.0
X135.0Y-132.0
X135.25Y-58.75
X135.25Y-108.75
X135.75Y-68.0
X135.75Y-118.0
X136.0Y-51.0
X136.0Y-101.0
X136.4Y-48.2
X136.4Y-98.2
X139.0Y-82.0
X139.0Y-132.0
X139.672Y-76.381
X139.672Y-126.381
X140.4Y-50.2
X140.4Y-100.2
X140.5Y-67.6
X140.5Y-117.6
X140.55Y-64.35
X140.55Y-114.35
X140.7Y-61.8
X140.7Y-111.8
X140.842Y-74.942
X140.842Y-124.942
X140.9Y-61.0
X140.9Y-111.0
X141.0Y-83.0
X141.0Y-133.0
X142.0Y-80.0
X142.0Y-130.0
X143.0Y-82.0
X143.0Y-132.0
X144.5Y-69.5
X144.5Y-119.5
X144.6Y-73.75
X144.6Y-123.75
X144.8Y-57.6
X144.8Y-58.8
X144.8Y-60.0
X144.8Y-107.6
X144.8Y-108.8
X144.8Y-110.0
X144.9Y-50.55
X144.9Y-100.55
X145.0Y-81.0
X145.0Y-83.0
X145.0Y-131.0
X145.0Y-133.0
X145.5Y-41.1
X145.5Y-91.1
X145.6Y-73.0
X145.6Y-74.4
X145.6Y-123.0
X145.6Y-124.4
X145.75Y-50.55
X145.75Y-100.55
X145.8Y-57.0
X145.8Y-58.2
X145.8Y-59.4
X145.8Y-60.6
X145.8Y-107.0
X145.8Y-108.2
X145.8Y-109.4
X145.8Y-110.6
X146.4Y-48.2
X146.4Y-98.2
X146.5Y-71.0
X146.5Y-72.25
X146.5Y-73.75
X146.5Y-75.0
X146.5Y-121.0
X146.5Y-122.25
X146.5Y-123.75
X146.5Y-125.0
X146.7Y-77.5
X146.7Y-127.5
X146.75Y-50.55
X146.75Y-100.55
X146.8Y-57.6
X146.8Y-58.8
X146.8Y-60.0
X146.8Y-107.6
X146.8Y-108.8
X146.8Y-110.0
X147.0Y-80.0
X147.0Y-82.0
X147.0Y-130.0
X147.0Y-132.0
X149.0Y-79.0
X149.0Y-81.0
X149.0Y-83.0
X149.0Y-129.0
X149.0Y-131.0
X149.0Y-133.0
X150.0Y-64.0
X150.0Y-114.0
X150.111Y-58.629
X150.111Y-108.629
X150.4Y-50.9
X150.4Y-51.8
X150.4Y-100.9
X150.4Y-101.8
X151.0Y-51.3
X151.0Y-52.2
X151.0Y-65.1
X151.0Y-78.0
X151.0Y-80.0
X151.0Y-82.0
X151.0Y-101.3
X151.0Y-102.2
X151.0Y-115.1
X151.0Y-128.0
X151.0Y-130.0
X151.0Y-132.0
X151.5Y-63.5
X151.5Y-113.5
X152.2Y-48.0
X152.2Y-98.0
X152.6Y-41.2
X152.6Y-73.4
X152.6Y-91.2
X152.6Y-123.4
X153.0Y-79.0
X153.0Y-81.0
X153.0Y-83.0
X153.0Y-129.0
X153.0Y-131.0
X153.0Y-133.0
X153.6Y-59.2
X153.6Y-109.2
X155.0Y-51.0
X155.0Y-53.0
X155.0Y-68.0
X155.0Y-78.0
X155.0Y-80.0
X155.0Y-82.0
X155.0Y-101.0
X155.0Y-103.0
X155.0Y-118.0
X155.0Y-128.0
X155.0Y-130.0
X155.0Y-132.0
X156.0Y-50.0
X156.0Y-52.0
X156.0Y-57.0
X156.0Y-67.0
X156.0Y-100.0
X156.0Y-102.0
X156.0Y-107.0
X156.0Y-117.0
X156.4Y-61.2
X156.4Y-111.2
X157.0Y-49.0
X157.0Y-51.0
X157.0Y-52.5
X157.0Y-54.0
X157.0Y-56.0
X157.0Y-58.0
X157.0Y-66.0
X157.0Y-68.0
X157.0Y-81.0
X157.0Y-83.0
X157.0Y-99.0
X157.0Y-101.0
X157.0Y-102.5
X157.0Y-104.0
X157.0Y-106.0
X157.0Y-108.0
X157.0Y-116.0
X157.0Y-118.0
X157.0Y-131.0
X157.0Y-133.0
X158.0Y-48.0
X158.0Y-50.0
X158.0Y-51.75
X158.0Y-53.25
X158.0Y-55.0
X158.0Y-57.0
X158.0Y-65.0
X158.0Y-67.0
X158.0Y-69.0
X158.0Y-98.0
X158.0Y-100.0
X158.0Y-101.75
X158.0Y-103.25
X158.0Y-105.0
X158.0Y-107.0
X158.0Y-115.0
X158.0Y-117.0
X158.0Y-119.0
X159.0Y-47.0
X159.0Y-49.0
X159.0Y-51.0
X159.0Y-52.5
X159.0Y-54.0
X159.0Y-56.0
X159.0Y-58.0
X159.0Y-64.0
X159.0Y-66.0
X159.0Y-68.0
X159.0Y-73.0
X159.0Y-75.0
X159.0Y-80.0
X159.0Y-82.0
X159.0Y-97.0
X159.0Y-99.0
X159.0Y-101.0
X159.0Y-102.5
X159.0Y-104.0
X159.0Y-106.0
X159.0Y-108.0
X159.0Y-114.0
X159.0Y-116.0
X159.0Y-118.0
X159.0Y-123.0
X159.0Y-125.0
X159.0Y-130.0
X159.0Y-132.0
X160.0Y-52.25
X160.0Y-53.0
X160.0Y-53.75
X160.0Y-54.5
X160.0Y-55.25
X160.0Y-56.0
X160.0Y-56.75
X160.0Y-57.5
X160.0Y-64.5
X160.0Y-65.25
X160.0Y-66.0
X160.0Y-66.75
X160.0Y-73.4
X160.0Y-74.15
X160.0Y-74.9
X160.0Y-75.65
X160.0Y-76.4
X160.0Y-102.25
X160.0Y-103.0
X160.0Y-103.75
X160.0Y-104.5
X160.0Y-105.25
X160.0Y-106.0
X160.0Y-106.75
X160.0Y-107.5
X160.0Y-114.5
X160.0Y-115.25
X160.0Y-116.0
X160.0Y-116.75
X160.0Y-123.4
X160.0Y-124.15
X160.0Y-124.9
X160.0Y-125.65
X160.0Y-126.4
X160.05Y-63.75
X160.05Y-113.75
X160.2Y-68.2
X160.2Y-68.95
X160.2Y-69.7
X160.2Y-70.45
X160.2Y-118.2
X160.2Y-118.95
X160.2Y-119.7
X160.2Y-120.45
X160.25Y-45.0
X160.25Y-45.75
X160.25Y-46.5
X160.25Y-47.25
X160.25Y-48.0
X160.25Y-48.75
X160.25Y-49.5
X160.25Y-50.25
X160.25Y-51.0
X160.25Y-67.5
X160.25Y-71.2
X160.25Y-71.95
X160.25Y-72.7
X160.25Y-95.0
X160.25Y-95.75
X160.25Y-96.5
X160.25Y-97.25
X160.25Y-98.0
X160.25Y-98.75
X160.25Y-99.5
X160.25Y-100.25
X160.25Y-101.0
X160.25Y-117.5
X160.25Y-121.2
X160.25Y-121.95
X160.25Y-122.7
X160.35Y-51.65
X160.35Y-101.65
X160.75Y-52.25
X160.75Y-53.0
X160.75Y-53.75
X160.75Y-54.5
X160.75Y-55.25
X160.75Y-56.0
X160.75Y-56.75
X160.75Y-57.5
X160.75Y-73.4
X160.75Y-74.15
X160.75Y-74.9
X160.75Y-75.65
X160.75Y-76.4
X160.75Y-102.25
X160.75Y-103.0
X160.75Y-103.75
X160.75Y-104.5
X160.75Y-105.25
X160.75Y-106.0
X160.75Y-106.75
X160.75Y-107.5
X160.75Y-123.4
X160.75Y-124.15
X160.75Y-124.9
X160.75Y-125.65
X160.75Y-126.4
X160.8Y-63.75
X160.8Y-64.5
X160.8Y-65.25
X160.8Y-66.0
X160.8Y-66.75
X160.8Y-113.75
X160.8Y-114.5
X160.8Y-115.25
X160.8Y-116.0
X160.8Y-116.75
X161.0Y-45.0
X161.0Y-45.75
X161.0Y-46.5
X161.0Y-47.25
X161.0Y-48.0
X161.0Y-48.75
X161.0Y-49.5
X161.0Y-50.25
X161.0Y-51.0
X161.0Y-67.5
X161.0Y-68.2
X161.0Y-68.95
X161.0Y-69.7
X161.0Y-70.45
X161.0Y-71.2
X161.0Y-71.95
X161.0Y-72.7
X161.0Y-81.0
X161.0Y-83.0
X161.0Y-95.0
X161.0Y-95.75
X161.0Y-96.5
X161.0Y-97.25
X161.0Y-98.0
X161.0Y-98.75
X161.0Y-99.5
X161.0Y-100.25
X161.0Y-101.0
X161.0Y-117.5
X161.0Y-118.2
X161.0Y-118.95
X161.0Y-119.7
X161.0Y-120.45
X161.0Y-121.2
X161.0Y-121.95
X161.0Y-122.7
X161.0Y-131.0
X161.0Y-133.0
X161.1Y-51.65
X161.1Y-101.65
X161.5Y-52.25
X161.5Y-53.0
X161.5Y-53.75
X161.5Y-54.5
X161.5Y-55.25
X161.5Y-56.0
X161.5Y-56.75
X161.5Y-57.5
X161.5Y-73.4
X161.5Y-74.15
X161.5Y-74.9
X161.5Y-75.65
X161.5Y-76.4
X161.5Y-102.25
X161.5Y-103.0
X161.5Y-103.75
X161.5Y-104.5
X161.5Y-105.25
X161.5Y-106.0
X161.5Y-106.75
X161.5Y-107.5
X161.5Y-123.4
X161.5Y-124.15
X161.5Y-124.9
X161.5Y-125.65
X161.5Y-126.4
X161.55Y-63.75
X161.55Y-64.5
X161.55Y-65.25
X161.55Y-66.0
X161.55Y-66.75
X161.55Y-113.75
X161.55Y-114.5
X161.55Y-115.25
X161.55Y-116.0
X161.55Y-116.75
X161.75Y-45.0
X161.75Y-45.75
X161.75Y-46.5
X161.75Y-47.25
X161.75Y-48.0
X161.75Y-48.75
X161.75Y-49.5
X161.75Y-50.25
X161.75Y-51.0
X161.75Y-67.5
X161.75Y-68.2
X161.75Y-68.95
X161.75Y-69.7
X161.75Y-70.45
X161.75Y-71.2
X161.75Y-71.95
X161.75Y-72.7
X161.75Y-95.0
X161.75Y-95.75
X161.75Y-96.5
X161.75Y-97.25
X161.75Y-98.0
X161.75Y-98.75
X161.75Y-99.5
X161.75Y-100.25
X161.75Y-101.0
X161.75Y-117.5
X161.75Y-118.2
X161.75Y-118.95
X161.75Y-119.7
X161.75Y-120.45
X161.75Y-121.2
X161.75Y-121.95
X161.75Y-122.7
X161.85Y-51.65
X161.85Y-101.65
X162.25Y-52.25
X162.25Y-53.0
X162.25Y-53.75
X162.25Y-54.5
X162.25Y-55.25
X162.25Y-56.0
X162.25Y-56.75
X162.25Y-57.5
X162.25Y-73.4
X162.25Y-74.15
X162.25Y-74.9
X162.25Y-75.65
X162.25Y-76.4
X162.25Y-102.25
X162.25Y-103.0
X162.25Y-103.75
X162.25Y-104.5
X162.25Y-105.25
X162.25Y-106.0
X162.25Y-106.75
X162.25Y-107.5
X162.25Y-123.4
X162.25Y-124.15
X162.25Y-124.9
X162.25Y-125.65
X162.25Y-126.4
X162.3Y-63.75
X162.3Y-64.5
X162.3Y-65.25
X162.3Y-66.0
X162.3Y-66.75
X162.3Y-113.75
X162.3Y-114.5
X162.3Y-115.25
X162.3Y-116.0
X162.3Y-116.75
X162.5Y-45.0
X162.5Y-45.75
X162.5Y-46.5
X162.5Y-47.25
X162.5Y-48.0
X162.5Y-48.75
X162.5Y-49.5
X162.5Y-50.25
X162.5Y-51.0
X162.5Y-67.5
X162.5Y-68.2
X162.5Y-68.95
X162.5Y-69.7
X162.5Y-70.45
X162.5Y-71.2
X162.5Y-71.95
X162.5Y-72.7
X162.5Y-95.0
X162.5Y-95.75
X162.5Y-96.5
X162.5Y-97.25
X162.5Y-98.0
X162.5Y-98.75
X162.5Y-99.5
X162.5Y-100.25
X162.5Y-101.0
X162.5Y-117.5
X162.5Y-118.2
X162.5Y-118.95
X162.5Y-119.7
X162.5Y-120.45
X162.5Y-121.2
X162.5Y-121.95
X162.5Y-122.7
X162.6Y-51.65
X162.6Y-101.65
X163.0Y-52.25
X163.0Y-53.0
X163.0Y-53.75
X163.0Y-54.5
X163.0Y-55.25
X163.0Y-56.0
X163.0Y-56.75
X163.0Y-57.5
X163.0Y-73.4
X163.0Y-74.15
X163.0Y-74.9
X163.0Y-75.65
X163.0Y-76.4
X163.0Y-80.0
X163.0Y-82.0
X163.0Y-102.25
X163.0Y-103.0
X163.0Y-103.75
X163.0Y-104.5
X163.0Y-105.25
X163.0Y-106.0
X163.0Y-106.75
X163.0Y-107.5
X163.0Y-123.4
X163.0Y-124.15
X163.0Y-124.9
X163.0Y-125.65
X163.0Y-126.4
X163.0Y-130.0
X163.0Y-132.0
X163.05Y-63.75
X163.05Y-64.5
X163.05Y-65.25
X163.05Y-66.0
X163.05Y-66.75
X163.05Y-113.75
X163.05Y-114.5
X163.05Y-115.25
X163.05Y-116.0
X163.05Y-116.75
X163.25Y-45.0
X163.25Y-45.75
X163.25Y-46.5
X163.25Y-47.25
X163.25Y-48.0
X163.25Y-48.75
X163.25Y-49.5
X163.25Y-50.25
X163.25Y-51.0
X163.25Y-67.5
X163.25Y-68.2
X163.25Y-68.95
X163.25Y-69.7
X163.25Y-70.45
X163.25Y-71.2
X163.25Y-71.95
X163.25Y-72.7
X163.25Y-95.0
X163.25Y-95.75
X163.25Y-96.5
X163.25Y-97.25
X163.25Y-98.0
X163.25Y-98.75
X163.25Y-99.5
X163.25Y-100.25
X163.25Y-101.0
X163.25Y-117.5
X163.25Y-118.2
X163.25Y-118.95
X163.25Y-119.7
X163.25Y-120.45
X163.25Y-121.2
X163.25Y-121.95
X163.25Y-122.7
X163.75Y-54.5
X163.75Y-55.25
X163.75Y-56.0
X163.75Y-56.75
X163.75Y-57.5
X163.75Y-73.25
X163.75Y-74.0
X163.75Y-74.75
X163.75Y-75.5
X163.75Y-76.25
X163.75Y-104.5
X163.75Y-105.25
X163.75Y-106.0
X163.75Y-106.75
X163.75Y-107.5
X163.75Y-123.25
X163.75Y-124.0
X163.75Y-124.75
X163.75Y-125.5
X163.75Y-126.25
X163.8Y-63.75
X163.8Y-64.5
X163.8Y-65.25
X163.8Y-66.0
X163.8Y-66.75
X163.8Y-113.75
X163.8Y-114.5
X163.8Y-115.25
X163.8Y-116.0
X163.8Y-116.75
X164.0Y-45.0
X164.0Y-45.75
X164.0Y-46.5
X164.0Y-47.25
X164.0Y-48.0
X164.0Y-95.0
X164.0Y-95.75
X164.0Y-96.5
X164.0Y-97.25
X164.0Y-98.0
X164.5Y-54.5
X164.5Y-55.25
X164.5Y-56.0
X164.5Y-56.75
X164.5Y-57.5
X164.5Y-73.25
X164.5Y-74.0
X164.5Y-74.75
X164.5Y-75.5
X164.5Y-76.25
X164.5Y-104.5
X164.5Y-105.25
X164.5Y-106.0
X164.5Y-106.75
X164.5Y-107.5
X164.5Y-123.25
X164.5Y-124.0
X164.5Y-124.75
X164.5Y-125.5
X164.5Y-126.25
X164.55Y-63.75
X164.55Y-64.5
X164.55Y-65.25
X164.55Y-66.0
X164.55Y-66.75
X164.55Y-113.75
X164.55Y-114.5
X164.55Y-115.25
X164.55Y-116.0
X164.55Y-116.75
X164.65Y-49.5
X164.65Y-50.35
X164.65Y-52.15
X164.65Y-53.0
X164.65Y-99.5
X164.65Y-100.35
X164.65Y-102.15
X164.65Y-103.0
X164.7Y-68.25
X164.7Y-69.2
X164.7Y-70.75
X164.7Y-71.7
X164.7Y-118.25
X164.7Y-119.2
X164.7Y-120.75
X164.7Y-121.7
X164.75Y-45.0
X164.75Y-45.75
X164.75Y-46.5
X164.75Y-47.25
X164.75Y-48.0
X164.75Y-95.0
X164.75Y-95.75
X164.75Y-96.5
X164.75Y-97.25
X164.75Y-98.0
X165.0Y-81.0
X165.0Y-83.0
X165.0Y-131.0
X165.0Y-133.0
X165.25Y-54.5
X165.25Y-55.25
X165.25Y-56.0
X165.25Y-56.75
X165.25Y-57.5
X165.25Y-73.25
X165.25Y-74.0
X165.25Y-74.75
X165.25Y-75.5
X165.25Y-76.25
X165.25Y-104.5
X165.25Y-105.25
X165.25Y-106.0
X165.25Y-106.75
X165.25Y-107.5
X165.25Y-123.25
X165.25Y-124.0
X165.25Y-124.75
X165.25Y-125.5
X165.25Y-126.25
X165.3Y-63.75
X165.3Y-64.5
X165.3Y-65.25
X165.3Y-66.0
X165.3Y-66.75
X165.3Y-113.75
X165.3Y-114.5
X165.3Y-115.25
X165.3Y-116.0
X165.3Y-116.75
X165.5Y-45.0
X165.5Y-45.75
X165.5Y-46.5
X165.5Y-47.25
X165.5Y-48.0
X165.5Y-95.0
X165.5Y-95.75
X165.5Y-96.5
X165.5Y-97.25
X165.5Y-98.0
X165.55Y-49.5
X165.55Y-50.35
X165.55Y-52.15
X165.55Y-53.0
X165.55Y-99.5
X165.55Y-100.35
X165.55Y-102.15
X165.55Y-103.0
X165.6Y-68.25
X165.6Y-69.2
X165.6Y-70.75
X165.6Y-71.7
X165.6Y-118.25
X165.6Y-119.2
X165.6Y-120.75
X165.6Y-121.7
X166.0Y-54.5
X166.0Y-55.25
X166.0Y-56.0
X166.0Y-56.75
X166.0Y-57.5
X166.0Y-73.25
X166.0Y-74.0
X166.0Y-74.75
X166.0Y-75.5
X166.0Y-76.25
X166.0Y-104.5
X166.0Y-105.25
X166.0Y-106.0
X166.0Y-106.75
X166.0Y-107.5
X166.0Y-123.25
X166.0Y-124.0
X166.0Y-124.75
X166.0Y-125.5
X166.0Y-126.25
X166.05Y-63.75
X166.05Y-64.5
X166.05Y-65.25
X166.05Y-66.0
X166.05Y-66.75
X166.05Y-113.75
X166.05Y-114.5
X166.05Y-115.25
X166.05Y-116.0
X166.05Y-116.75
X166.25Y-45.0
X166.25Y-45.75
X166.25Y-46.5
X166.25Y-47.25
X166.25Y-48.0
X166.25Y-95.0
X166.25Y-95.75
X166.25Y-96.5
X166.25Y-97.25
X166.25Y-98.0
X166.45Y-49.5
X166.45Y-50.35
X166.45Y-52.15
X166.45Y-53.0
X166.45Y-99.5
X166.45Y-100.35
X166.45Y-102.15
X166.45Y-103.0
X166.5Y-68.25
X166.5Y-69.2
X166.5Y-70.75
X166.5Y-71.7
X166.5Y-118.25
X166.5Y-119.2
X166.5Y-120.75
X166.5Y-121.7
X166.75Y-54.5
X166.75Y-55.25
X166.75Y-56.0
X166.75Y-56.75
X166.75Y-57.5
X166.75Y-73.25
X166.75Y-74.0
X166.75Y-74.75
X166.75Y-75.5
X166.75Y-76.25
X166.75Y-104.5
X166.75Y-105.25
X166.75Y-106.0
X166.75Y-106.75
X166.75Y-107.5
X166.75Y-123.25
X166.75Y-124.0
X166.75Y-124.75
X166.75Y-125.5
X166.75Y-126.25
X166.8Y-63.75
X166.8Y-64.5
X166.8Y-65.25
X166.8Y-66.0
X166.8Y-66.75
X166.8Y-113.75
X166.8Y-114.5
X166.8Y-115.25
X166.8Y-116.0
X166.8Y-116.75
X166.9Y-82.0
X166.9Y-132.0
X167.0Y-45.0
X167.0Y-45.75
X167.0Y-46.5
X167.0Y-47.25
X167.0Y-48.0
X167.0Y-80.0
X167.0Y-95.0
X167.0Y-95.75
X167.0Y-96.5
X167.0Y-97.25
X167.0Y-98.0
X167.0Y-130.0
X167.35Y-49.5
X167.35Y-50.35
X167.35Y-52.15
X167.35Y-53.0
X167.35Y-99.5
X167.35Y-100.35
X167.35Y-102.15
X167.35Y-103.0
X167.4Y-68.25
X167.4Y-69.2
X167.4Y-70.75
X167.4Y-71.7
X167.4Y-118.25
X167.4Y-119.2
X167.4Y-120.75
X167.4Y-121.7
X167.5Y-54.5
X167.5Y-55.25
X167.5Y-56.0
X167.5Y-56.75
X167.5Y-57.5
X167.5Y-73.25
X167.5Y-74.0
X167.5Y-74.75
X167.5Y-75.5
X167.5Y-76.25
X167.5Y-104.5
X167.5Y-105.25
X167.5Y-106.0
X167.5Y-106.75
X167.5Y-107.5
X167.5Y-123.25
X167.5Y-124.0
X167.5Y-124.75
X167.5Y-125.5
X167.5Y-126.25
X167.55Y-63.75
X167.55Y-64.5
X167.55Y-65.25
X167.55Y-66.0
X167.55Y-66.75
X167.55Y-113.75
X167.55Y-114.5
X167.55Y-115.25
X167.55Y-116.0
X167.55Y-116.75
X167.75Y-45.0
X167.75Y-45.75
X167.75Y-46.5
X167.75Y-47.25
X167.75Y-48.0
X167.75Y-95.0
X167.75Y-95.75
X167.75Y-96.5
X167.75Y-97.25
X167.75Y-98.0
X168.25Y-49.5
X168.25Y-50.35
X168.25Y-52.15
X168.25Y-53.0
X168.25Y-54.5
X168.25Y-55.25
X168.25Y-56.0
X168.25Y-73.25
X168.25Y-74.0
X168.25Y-74.75
X168.25Y-75.5
X168.25Y-76.25
X168.25Y-99.5
X168.25Y-100.35
X168.25Y-102.15
X168.25Y-103.0
X168.25Y-104.5
X168.25Y-105.25
X168.25Y-106.0
X168.25Y-123.25
X168.25Y-124.0
X168.25Y-124.75
X168.25Y-125.5
X168.25Y-126.25
X168.3Y-63.75
X168.3Y-64.5
X168.3Y-65.25
X168.3Y-66.0
X168.3Y-66.75
X168.3Y-68.25
X168.3Y-69.2
X168.3Y-70.75
X168.3Y-71.7
X168.3Y-113.75
X168.3Y-114.5
X168.3Y-115.25
X168.3Y-116.0
X168.3Y-116.75
X168.3Y-118.25
X168.3Y-119.2
X168.3Y-120.75
X168.3Y-121.7
X168.5Y-45.0
X168.5Y-45.75
X168.5Y-46.5
X168.5Y-47.25
X168.5Y-48.0
X168.5Y-95.0
X168.5Y-95.75
X168.5Y-96.5
X168.5Y-97.25
X168.5Y-98.0
X168.7Y-81.0
X168.7Y-83.0
X168.7Y-131.0
X168.7Y-133.0
X170.0Y-46.0
X170.0Y-46.75
X170.0Y-47.5
X170.0Y-48.25
X170.0Y-54.5
X170.0Y-55.25
X170.0Y-56.0
X170.0Y-72.75
X170.0Y-73.5
X170.0Y-74.25
X170.0Y-75.0
X170.0Y-75.75
X170.0Y-96.0
X170.0Y-96.75
X170.0Y-97.5
X170.0Y-98.25
X170.0Y-104.5
X170.0Y-105.25
X170.0Y-106.0
X170.0Y-122.75
X170.0Y-123.5
X170.0Y-124.25
X170.0Y-125.0
X170.0Y-125.75
X170.75Y-46.0
X170.75Y-46.75
X170.75Y-47.5
X170.75Y-48.25
X170.75Y-53.75
X170.75Y-54.5
X170.75Y-55.25
X170.75Y-56.0
X170.75Y-65.0
X170.75Y-65.75
X170.75Y-66.5
X170.75Y-67.25
X170.75Y-72.75
X170.75Y-73.5
X170.75Y-74.25
X170.75Y-75.0
X170.75Y-75.75
X170.75Y-96.0
X170.75Y-96.75
X170.75Y-97.5
X170.75Y-98.25
X170.75Y-103.75
X170.75Y-104.5
X170.75Y-105.25
X170.75Y-106.0
X170.75Y-115.0
X170.75Y-115.75
X170.75Y-116.5
X170.75Y-117.25
X170.75Y-122.75
X170.75Y-123.5
X170.75Y-124.25
X170.75Y-125.0
X170.75Y-125.75
X171.0Y-83.0
X171.0Y-133.0
X171.5Y-46.0
X171.5Y-46.75
X171.5Y-47.5
X171.5Y-48.25
X171.5Y-49.0
X171.5Y-49.75
X171.5Y-51.5
X171.5Y-52.25
X171.5Y-53.0
X171.5Y-53.75
X171.5Y-54.5
X171.5Y-55.25
X171.5Y-56.0
X171.5Y-65.0
X171.5Y-65.75
X171.5Y-66.5
X171.5Y-67.25
X171.5Y-68.0
X171.5Y-68.75
X171.5Y-69.5
X171.5Y-70.5
X171.5Y-71.25
X171.5Y-72.0
X171.5Y-72.75
X171.5Y-73.5
X171.5Y-74.25
X171.5Y-75.0
X171.5Y-96.0
X171.5Y-96.75
X171.5Y-97.5
X171.5Y-98.25
X171.5Y-99.0
X171.5Y-99.75
X171.5Y-101.5
X171.5Y-102.25
X171.5Y-103.0
X171.5Y-103.75
X171.5Y-104.5
X171.5Y-105.25
X171.5Y-106.0
X171.5Y-115.0
X171.5Y-115.75
X171.5Y-116.5
X171.5Y-117.25
X171.5Y-118.0
X171.5Y-118.75
X171.5Y-119.5
X171.5Y-120.5
X171.5Y-121.25
X171.5Y-122.0
X171.5Y-122.75
X171.5Y-123.5
X171.5Y-124.25
X171.5Y-125.0
X172.25Y-46.0
X172.25Y-46.75
X172.25Y-47.5
X172.25Y-48.25
X172.25Y-49.0
X172.25Y-49.75
X172.25Y-50.5
X172.25Y-51.5
X172.25Y-52.25
X172.25Y-53.0
X172.25Y-53.75
X172.25Y-54.5
X172.25Y-55.25
X172.25Y-56.0
X172.25Y-65.0
X172.25Y-65.75
X172.25Y-66.5
X172.25Y-67.25
X172.25Y-68.0
X172.25Y-68.75
X172.25Y-69.5
X172.25Y-70.5
X172.25Y-71.25
X172.25Y-72.0
X172.25Y-72.75
X172.25Y-73.5
X172.25Y-74.25
X172.25Y-75.0
X172.25Y-96.0
X172.25Y-96.75
X172.25Y-97.5
X172.25Y-98.25
X172.25Y-99.0
X172.25Y-99.75
X172.25Y-100.5
X172.25Y-101.5
X172.25Y-102.25
X172.25Y-103.0
X172.25Y-103.75
X172.25Y-104.5
X172.25Y-105.25
X172.25Y-106.0
X172.25Y-115.0
X172.25Y-115.75
X172.25Y-116.5
X172.25Y-117.25
X172.25Y-118.0
X172.25Y-118.75
X172.25Y-119.5
X172.25Y-120.5
X172.25Y-121.25
X172.25Y-122.0
X172.25Y-122.75
X172.25Y-123.5
X172.25Y-124.25
X172.25Y-125.0
X173.0Y-46.0
X173.0Y-46.75
X173.0Y-47.5
X173.0Y-48.25
X173.0Y-49.0
X173.0Y-49.75
X173.0Y-50.5
X173.0Y-51.5
X173.0Y-52.25
X173.0Y-53.0
X173.0Y-53.75
X173.0Y-54.5
X173.0Y-55.25
X173.0Y-56.0
X173.0Y-65.0
X173.0Y-65.75
X173.0Y-66.5
X173.0Y-67.25
X173.0Y-68.0
X173.0Y-68.75
X173.0Y-69.5
X173.0Y-70.5
X173.0Y-71.25
X173.0Y-72.0
X173.0Y-72.75
X173.0Y-73.5
X173.0Y-74.25
X173.0Y-75.0
X173.0Y-96.0
X173.0Y-96.75
X173.0Y-97.5
X173.0Y-98.25
X173.0Y-99.0
X173.0Y-99.75
X173.0Y-100.5
X173.0Y-101.5
X173.0Y-102.25
X173.0Y-103.0
X173.0Y-103.75
X173.0Y-104.5
X173.0Y-105.25
X173.0Y-106.0
X173.0Y-115.0
X173.0Y-115.75
X173.0Y-116.5
X173.0Y-117.25
X173.0Y-118.0
X173.0Y-118.75
X173.0Y-119.5
X173.0Y-120.5
X173.0Y-121.25
X173.0Y-122.0
X173.0Y-122.75
X173.0Y-123.5
X173.0Y-124.25
X173.0Y-125.0
X173.75Y-46.0
X173.75Y-46.75
X173.75Y-47.5
X173.75Y-48.25
X173.75Y-49.0
X173.75Y-49.75
X173.75Y-50.5
X173.75Y-51.5
X173.75Y-52.25
X173.75Y-53.0
X173.75Y-53.75
X173.75Y-54.5
X173.75Y-55.25
X173.75Y-56.0
X173.75Y-65.0
X173.75Y-65.75
X173.75Y-66.5
X173.75Y-67.25
X173.75Y-68.0
X173.75Y-68.75
X173.75Y-69.5
X173.75Y-70.5
X173.75Y-71.25
X173.75Y-72.0
X173.75Y-72.75
X173.75Y-73.5
X173.75Y-74.25
X173.75Y-75.0
X173.75Y-96.0
X173.75Y-96.75
X173.75Y-97.5
X173.75Y-98.25
X173.75Y-99.0
X173.75Y-99.75
X173.75Y-100.5
X173.75Y-101.5
X173.75Y-102.25
X173.75Y-103.0
X173.75Y-103.75
X173.75Y-104.5
X173.75Y-105.25
X173.75Y-106.0
X173.75Y-115.0
X173.75Y-115.75
X173.75Y-116.5
X173.75Y-117.25
X173.75Y-118.0
X173.75Y-118.75
X173.75Y-119.5
X173.75Y-120.5
X173.75Y-121.25
X173.75Y-122.0
X173.75Y-122.75
X173.75Y-123.5
X173.75Y-124.25
X173.75Y-125.0
X174.5Y-46.0
X174.5Y-46.75
X174.5Y-47.5
X174.5Y-48.25
X174.5Y-49.0
X174.5Y-49.75
X174.5Y-50.5
X174.5Y-51.5
X174.5Y-52.25
X174.5Y-53.0
X174.5Y-53.75
X174.5Y-54.5
X174.5Y-55.25
X174.5Y-56.0
X174.5Y-65.0
X174.5Y-65.75
X174.5Y-66.5
X174.5Y-66.5
X174.5Y-67.25
X174.5Y-68.0
X174.5Y-68.75
X174.5Y-69.5
X174.5Y-70.5
X174.5Y-71.25
X174.5Y-72.0
X174.5Y-72.75
X174.5Y-73.5
X174.5Y-74.25
X174.5Y-75.0
X174.5Y-75.75
X174.5Y-96.0
X174.5Y-96.75
X174.5Y-97.5
X174.5Y-98.25
X174.5Y-99.0
X174.5Y-99.75
X174.5Y-100.5
X174.5Y-101.5
X174.5Y-102.25
X174.5Y-103.0
X174.5Y-103.75
X174.5Y-104.5
X174.5Y-105.25
X174.5Y-106.0
X174.5Y-115.0
X174.5Y-115.75
X174.5Y-116.5
X174.5Y-116.5
X174.5Y-117.25
X174.5Y-118.0
X174.5Y-118.75
X174.5Y-119.5
X174.5Y-120.5
X174.5Y-121.25
X174.5Y-122.0
X174.5Y-122.75
X174.5Y-123.5
X174.5Y-124.25
X174.5Y-125.0
X174.5Y-125.75
X175.0Y-83.0
X175.0Y-133.0
X175.25Y-46.0
X175.25Y-46.75
X175.25Y-47.5
X175.25Y-48.25
X175.25Y-49.0
X175.25Y-49.75
X175.25Y-50.5
X175.25Y-51.5
X175.25Y-52.25
X175.25Y-53.0
X175.25Y-53.75
X175.25Y-54.5
X175.25Y-55.25
X175.25Y-56.0
X175.25Y-65.0
X175.25Y-65.75
X175.25Y-66.5
X175.25Y-67.25
X175.25Y-68.0
X175.25Y-68.75
X175.25Y-69.5
X175.25Y-70.5
X175.25Y-71.25
X175.25Y-72.0
X175.25Y-72.75
X175.25Y-73.5
X175.25Y-74.25
X175.25Y-75.0
X175.25Y-75.75
X175.25Y-96.0
X175.25Y-96.75
X175.25Y-97.5
X175.25Y-98.25
X175.25Y-99.0
X175.25Y-99.75
X175.25Y-100.5
X175.25Y-101.5
X175.25Y-102.25
X175.25Y-103.0
X175.25Y-103.75
X175.25Y-104.5
X175.25Y-105.25
X175.25Y-106.0
X175.25Y-115.0
X175.25Y-115.75
X175.25Y-116.5
X175.25Y-117.25
X175.25Y-118.0
X175.25Y-118.75
X175.25Y-119.5
X175.25Y-120.5
X175.25Y-121.25
X175.25Y-122.0
X175.25Y-122.75
X175.25Y-123.5
X175.25Y-124.25
X175.25Y-125.0
X175.25Y-125.75
X179.0Y-83.0
X179.0Y-133.0
X181.25Y-50.5
X181.25Y-51.5
X181.25Y-52.25
X181.25Y-69.0
X181.25Y-70.5
X181.25Y-71.25
X181.25Y-100.5
X181.25Y-101.5
X181.25Y-102.25
X181.25Y-119.0
X181.25Y-120.5
X181.25Y-121.25
X182.0Y-45.25
X182.0Y-46.0
X182.0Y-49.0
X182.0Y-49.75
X182.0Y-50.5
X182.0Y-51.5
X182.0Y-52.25
X182.0Y-53.0
X182.0Y-68.0
X182.0Y-68.75
X182.0Y-69.5
X182.0Y-70.5
X182.0Y-71.25
X182.0Y-72.0
X182.0Y-72.75
X182.0Y-75.0
X182.0Y-75.75
X182.0Y-95.25
X182.0Y-96.0
X182.0Y-99.0
X182.0Y-99.75
X182.0Y-100.5
X182.0Y-101.5
X182.0Y-102.25
X182.0Y-103.0
X182.0Y-118.0
X182.0Y-118.75
X182.0Y-119.5
X182.0Y-120.5
X182.0Y-121.25
X182.0Y-122.0
X182.0Y-122.75
X182.0Y-125.0
X182.0Y-125.75
X182.75Y-45.25
X182.75Y-46.0
X182.75Y-46.75
X182.75Y-47.5
X182.75Y-48.25
X182.75Y-49.0
X182.75Y-49.75
X182.75Y-50.5
X182.75Y-51.5
X182.75Y-52.25
X182.75Y-53.0
X182.75Y-53.0
X182.75Y-53.75
X182.75Y-54.5
X182.75Y-55.25
X182.75Y-56.0
X182.75Y-56.75
X182.75Y-64.25
X182.75Y-65.0
X182.75Y-65.75
X182.75Y-66.5
X182.75Y-67.25
X182.75Y-68.0
X182.75Y-68.75
X182.75Y-69.5
X182.75Y-70.5
X182.75Y-71.25
X182.75Y-72.0
X182.75Y-72.75
X182.75Y-73.5
X182.75Y-74.25
X182.75Y-75.0
X182.75Y-75.75
X182.75Y-95.25
X182.75Y-96.0
X182.75Y-96.75
X182.75Y-97.5
X182.75Y-98.25
X182.75Y-99.0
X182.75Y-99.75
X182.75Y-100.5
X182.75Y-101.5
X182.75Y-102.25
X182.75Y-103.0
X182.75Y-103.0
X182.75Y-103.75
X182.75Y-104.5
X182.75Y-105.25
X182.75Y-106.0
X182.75Y-106.75
X182.75Y-114.25
X182.75Y-115.0
X182.75Y-115.75
X182.75Y-116.5
X182.75Y-117.25
X182.75Y-118.0
X182.75Y-118.75
X182.75Y-119.5
X182.75Y-120.5
X182.75Y-121.25
X182.75Y-122.0
X182.75Y-122.75
X182.75Y-123.5
X182.75Y-124.25
X182.75Y-125.0
X182.75Y-125.75
X183.0Y-83.0
X183.0Y-133.0
X183.5Y-46.0
X183.5Y-46.75
X183.5Y-47.5
X183.5Y-48.25
X183.5Y-49.0
X183.5Y-49.75
X183.5Y-50.5
X183.5Y-51.5
X183.5Y-52.25
X183.5Y-53.0
X183.5Y-53.75
X183.5Y-54.5
X183.5Y-55.25
X183.5Y-56.0
X183.5Y-65.0
X183.5Y-65.75
X183.5Y-66.5
X183.5Y-67.25
X183.5Y-68.0
X183.5Y-68.75
X183.5Y-69.5
X183.5Y-70.5
X183.5Y-71.25
X183.5Y-72.0
X183.5Y-72.75
X183.5Y-73.5
X183.5Y-74.25
X183.5Y-75.0
X183.5Y-96.0
X183.5Y-96.75
X183.5Y-97.5
X183.5Y-98.25
X183.5Y-99.0
X183.5Y-99.75
X183.5Y-100.5
X183.5Y-101.5
X183.5Y-102.25
X183.5Y-103.0
X183.5Y-103.75
X183.5Y-104.5
X183.5Y-105.25
X183.5Y-106.0
X183.5Y-115.0
X183.5Y-115.75
X183.5Y-116.5
X183.5Y-117.25
X183.5Y-118.0
X183.5Y-118.75
X183.5Y-119.5
X183.5Y-120.5
X183.5Y-121.25
X183.5Y-122.0
X183.5Y-122.75
X183.5Y-123.5
X183.5Y-124.25
X183.5Y-125.0
X184.25Y-46.0
X184.25Y-46.75
X184.25Y-47.5
X184.25Y-48.25
X184.25Y-54.5
X184.25Y-54.5
X184.25Y-55.25
X184.25Y-56.0
X184.25Y-65.0
X184.25Y-65.75
X184.25Y-65.75
X184.25Y-66.5
X184.25Y-73.5
X184.25Y-73.5
X184.25Y-74.25
X184.25Y-75.0
X184.25Y-96.0
X184.25Y-96.75
X184.25Y-97.5
X184.25Y-98.25
X184.25Y-104.5
X184.25Y-104.5
X184.25Y-105.25
X184.25Y-106.0
X184.25Y-115.0
X184.25Y-115.75
X184.25Y-115.75
X184.25Y-116.5
X184.25Y-123.5
X184.25Y-123.5
X184.25Y-124.25
X184.25Y-125.0
X185.0Y-46.0
X185.0Y-46.75
X185.0Y-47.5
X185.0Y-47.5
X185.0Y-54.5
X185.0Y-55.25
X185.0Y-56.0
X185.0Y-65.0
X185.0Y-65.75
X185.0Y-66.5
X185.0Y-73.5
X185.0Y-74.25
X185.0Y-75.0
X185.0Y-96.0
X185.0Y-96.75
X185.0Y-97.5
X185.0Y-97.5
X185.0Y-104.5
X185.0Y-105.25
X185.0Y-106.0
X185.0Y-115.0
X185.0Y-115.75
X185.0Y-116.5
X185.0Y-123.5
X185.0Y-124.25
X185.0Y-125.0
X185.1Y-51.85
X185.1Y-52.8
X185.1Y-68.35
X185.1Y-69.3
X185.1Y-70.85
X185.1Y-71.8
X185.1Y-101.85
X185.1Y-102.8
X185.1Y-118.35
X185.1Y-119.3
X185.1Y-120.85
X185.1Y-121.8
X185.14Y-49.35
X185.14Y-50.3
X185.14Y-99.35
X185.14Y-100.3
X185.75Y-46.0
X185.75Y-46.75
X185.75Y-47.5
X185.75Y-54.5
X185.75Y-55.25
X185.75Y-56.0
X185.75Y-65.0
X185.75Y-65.75
X185.75Y-66.5
X185.75Y-73.5
X185.75Y-74.25
X185.75Y-75.0
X185.75Y-96.0
X185.75Y-96.75
X185.75Y-97.5
X185.75Y-104.5
X185.75Y-105.25
X185.75Y-106.0
X185.75Y-115.0
X185.75Y-115.75
X185.75Y-116.5
X185.75Y-123.5
X185.75Y-124.25
X185.75Y-125.0
X186.0Y-51.85
X186.0Y-52.8
X186.0Y-68.35
X186.0Y-69.3
X186.0Y-70.85
X186.0Y-71.8
X186.0Y-101.85
X186.0Y-102.8
X186.0Y-118.35
X186.0Y-119.3
X186.0Y-120.85
X186.0Y-121.8
X186.04Y-49.35
X186.04Y-50.3
X186.04Y-99.35
X186.04Y-100.3
X186.5Y-46.0
X186.5Y-46.75
X186.5Y-47.5
X186.5Y-54.5
X186.5Y-55.25
X186.5Y-56.0
X186.5Y-56.75
X186.5Y-65.0
X186.5Y-65.75
X186.5Y-66.5
X186.5Y-73.5
X186.5Y-74.25
X186.5Y-75.0
X186.5Y-75.75
X186.5Y-96.0
X186.5Y-96.75
X186.5Y-97.5
X186.5Y-104.5
X186.5Y-105.25
X186.5Y-106.0
X186.5Y-106.75
X186.5Y-115.0
X186.5Y-115.75
X186.5Y-116.5
X186.5Y-123.5
X186.5Y-124.25
X186.5Y-125.0
X186.5Y-125.75
X186.9Y-51.85
X186.9Y-52.8
X186.9Y-68.35
X186.9Y-69.3
X186.9Y-70.85
X186.9Y-71.8
X186.9Y-101.85
X186.9Y-102.8
X186.9Y-118.35
X186.9Y-119.3
X186.9Y-120.85
X186.9Y-121.8
X186.94Y-49.35
X186.94Y-50.3
X186.94Y-99.35
X186.94Y-100.3
X187.0Y-83.0
X187.0Y-133.0
X187.25Y-45.25
X187.25Y-46.0
X187.25Y-46.75
X187.25Y-47.5
X187.25Y-54.5
X187.25Y-55.25
X187.25Y-56.0
X187.25Y-56.75
X187.25Y-64.25
X187.25Y-65.0
X187.25Y-65.75
X187.25Y-66.5
X187.25Y-73.5
X187.25Y-74.25
X187.25Y-75.0
X187.25Y-75.75
X187.25Y-95.25
X187.25Y-96.0
X187.25Y-96.75
X187.25Y-97.5
X187.25Y-104.5
X187.25Y-105.25
X187.25Y-106.0
X187.25Y-106.75
X187.25Y-114.25
X187.25Y-115.0
X187.25Y-115.75
X187.25Y-116.5
X187.25Y-123.5
X187.25Y-124.25
X187.25Y-125.0
X187.25Y-125.75
X187.8Y-51.85
X187.8Y-52.8
X187.8Y-68.35
X187.8Y-69.3
X187.8Y-70.85
X187.8Y-71.8
X187.8Y-101.85
X187.8Y-102.8
X187.8Y-118.35
X187.8Y-119.3
X187.8Y-120.85
X187.8Y-121.8
X187.84Y-49.35
X187.84Y-50.3
X187.84Y-99.35
X187.84Y-100.3
X188.0Y-45.25
X188.0Y-46.0
X188.0Y-46.75
X188.0Y-47.5
X188.0Y-54.5
X188.0Y-55.25
X188.0Y-56.0
X188.0Y-56.75
X188.0Y-64.25
X188.0Y-65.0
X188.0Y-65.75
X188.0Y-66.5
X188.0Y-73.5
X188.0Y-74.25
X188.0Y-75.0
X188.0Y-75.75
X188.0Y-95.25
X188.0Y-96.0
X188.0Y-96.75
X188.0Y-97.5
X188.0Y-104.5
X188.0Y-105.25
X188.0Y-106.0
X188.0Y-106.75
X188.0Y-114.25
X188.0Y-115.0
X188.0Y-115.75
X188.0Y-116.5
X188.0Y-123.5
X188.0Y-124.25
X188.0Y-125.0
X188.0Y-125.75
X188.7Y-51.85
X188.7Y-52.8
X188.7Y-68.35
X188.7Y-69.3
X188.7Y-70.85
X188.7Y-71.8
X188.7Y-101.85
X188.7Y-102.8
X188.7Y-118.35
X188.7Y-119.3
X188.7Y-120.85
X188.7Y-121.8
X188.74Y-49.35
X188.74Y-50.3
X188.74Y-99.35
X188.74Y-100.3
X188.75Y-45.25
X188.75Y-46.0
X188.75Y-46.75
X188.75Y-47.5
X188.75Y-54.5
X188.75Y-55.25
X188.75Y-56.0
X188.75Y-56.75
X188.75Y-64.25
X188.75Y-65.0
X188.75Y-65.75
X188.75Y-66.5
X188.75Y-73.5
X188.75Y-74.25
X188.75Y-75.0
X188.75Y-75.75
X188.75Y-95.25
X188.75Y-96.0
X188.75Y-96.75
X188.75Y-97.5
X188.75Y-104.5
X188.75Y-105.25
X188.75Y-106.0
X188.75Y-106.75
X188.75Y-114.25
X188.75Y-115.0
X188.75Y-115.75
X188.75Y-116.5
X188.75Y-123.5
X188.75Y-124.25
X188.75Y-125.0
X188.75Y-125.75
X190.25Y-45.5
X190.25Y-46.25
X190.25Y-47.0
X190.25Y-47.75
X190.25Y-54.0
X190.25Y-54.75
X190.25Y-55.5
X190.25Y-56.25
X190.25Y-73.5
X190.25Y-74.25
X190.25Y-75.0
X190.25Y-75.75
X190.25Y-95.5
X190.25Y-96.25
X190.25Y-97.0
X190.25Y-97.75
X190.25Y-104.0
X190.25Y-104.75
X190.25Y-105.5
X190.25Y-106.25
X190.25Y-123.5
X190.25Y-124.25
X190.25Y-125.0
X190.25Y-125.75
X191.0Y-45.5
X191.0Y-46.25
X191.0Y-47.0
X191.0Y-47.75
X191.0Y-54.0
X191.0Y-54.75
X191.0Y-55.5
X191.0Y-56.25
X191.0Y-64.5
X191.0Y-65.25
X191.0Y-66.0
X191.0Y-66.75
X191.0Y-73.5
X191.0Y-74.25
X191.0Y-75.0
X191.0Y-75.75
X191.0Y-77.0
X191.0Y-83.0
X191.0Y-95.5
X191.0Y-96.25
X191.0Y-97.0
X191.0Y-97.75
X191.0Y-104.0
X191.0Y-104.75
X191.0Y-105.5
X191.0Y-106.25
X191.0Y-114.5
X191.0Y-115.25
X191.0Y-116.0
X191.0Y-116.75
X191.0Y-123.5
X191.0Y-124.25
X191.0Y-125.0
X191.0Y-125.75
X191.0Y-127.0
X191.0Y-133.0
X191.2Y-42.4
X191.2Y-92.4
X191.75Y-45.5
X191.75Y-46.25
X191.75Y-47.0
X191.75Y-47.75
X191.75Y-48.5
X191.75Y-49.25
X191.75Y-50.0
X191.75Y-50.75
X191.75Y-53.25
X191.75Y-54.0
X191.75Y-54.75
X191.75Y-55.5
X191.75Y-56.25
X191.75Y-64.5
X191.75Y-65.25
X191.75Y-66.0
X191.75Y-66.75
X191.75Y-67.5
X191.75Y-68.25
X191.75Y-69.0
X191.75Y-69.75
X191.75Y-70.5
X191.75Y-71.25
X191.75Y-72.0
X191.75Y-72.75
X191.75Y-73.5
X191.75Y-74.25
X191.75Y-75.0
X191.75Y-75.75
X191.75Y-95.5
X191.75Y-96.25
X191.75Y-97.0
X191.75Y-97.75
X191.75Y-98.5
X191.75Y-99.25
X191.75Y-100.0
X191.75Y-100.75
X191.75Y-103.25
X191.75Y-104.0
X191.75Y-104.75
X191.75Y-105.5
X191.75Y-106.25
X191.75Y-114.5
X191.75Y-115.25
X191.75Y-116.0
X191.75Y-116.75
X191.75Y-117.5
X191.75Y-118.25
X191.75Y-119.0
X191.75Y-119.75
X191.75Y-120.5
X191.75Y-121.25
X191.75Y-122.0
X191.75Y-122.75
X191.75Y-123.5
X191.75Y-124.25
X191.75Y-125.0
X191.75Y-125.75
X192.5Y-45.5
X192.5Y-46.25
X192.5Y-47.0
X192.5Y-47.75
X192.5Y-48.5
X192.5Y-49.25
X192.5Y-50.0
X192.5Y-50.75
X192.5Y-52.5
X192.5Y-53.25
X192.5Y-54.0
X192.5Y-54.75
X192.5Y-55.5
X192.5Y-56.25
X192.5Y-64.5
X192.5Y-65.25
X192.5Y-66.0
X192.5Y-66.75
X192.5Y-67.5
X192.5Y-68.25
X192.5Y-69.0
X192.5Y-69.75
X192.5Y-70.5
X192.5Y-71.25
X192.5Y-72.0
X192.5Y-72.75
X192.5Y-73.5
X192.5Y-74.25
X192.5Y-75.0
X192.5Y-75.75
X192.5Y-95.5
X192.5Y-96.25
X192.5Y-97.0
X192.5Y-97.75
X192.5Y-98.5
X192.5Y-99.25
X192.5Y-100.0
X192.5Y-100.75
X192.5Y-102.5
X192.5Y-103.25
X192.5Y-104.0
X192.5Y-104.75
X192.5Y-105.5
X192.5Y-106.25
X192.5Y-114.5
X192.5Y-115.25
X192.5Y-116.0
X192.5Y-116.75
X192.5Y-117.5
X192.5Y-118.25
X192.5Y-119.0
X192.5Y-119.75
X192.5Y-120.5
X192.5Y-121.25
X192.5Y-122.0
X192.5Y-122.75
X192.5Y-123.5
X192.5Y-124.25
X192.5Y-125.0
X192.5Y-125.75
X193.0Y-58.0
X193.0Y-61.0
X193.0Y-80.0
X193.0Y-108.0
X193.0Y-111.0
X193.0Y-130.0
X193.25Y-45.5
X193.25Y-46.25
X193.25Y-47.0
X193.25Y-47.75
X193.25Y-48.5
X193.25Y-49.25
X193.25Y-50.0
X193.25Y-50.75
X193.25Y-52.5
X193.25Y-53.25
X193.25Y-54.0
X193.25Y-54.75
X193.25Y-55.5
X193.25Y-56.25
X193.25Y-64.5
X193.25Y-65.25
X193.25Y-66.0
X193.25Y-66.75
X193.25Y-67.5
X193.25Y-68.25
X193.25Y-69.0
X193.25Y-69.75
X193.25Y-70.5
X193.25Y-71.25
X193.25Y-72.0
X193.25Y-72.75
X193.25Y-73.5
X193.25Y-74.25
X193.25Y-75.0
X193.25Y-75.75
X193.25Y-95.5
X193.25Y-96.25
X193.25Y-97.0
X193.25Y-97.75
X193.25Y-98.5
X193.25Y-99.25
X193.25Y-100.0
X193.25Y-100.75
X193.25Y-102.5
X193.25Y-103.25
X193.25Y-104.0
X193.25Y-104.75
X193.25Y-105.5
X193.25Y-106.25
X193.25Y-114.5
X193.25Y-115.25
X193.25Y-116.0
X193.25Y-116.75
X193.25Y-117.5
X193.25Y-118.25
X193.25Y-119.0
X193.25Y-119.75
X193.25Y-120.5
X193.25Y-121.25
X193.25Y-122.0
X193.25Y-122.75
X193.25Y-123.5
X193.25Y-124.25
X193.25Y-125.0
X193.25Y-125.75
X194.0Y-45.5
X194.0Y-46.25
X194.0Y-47.0
X194.0Y-47.75
X194.0Y-48.5
X194.0Y-49.25
X194.0Y-50.0
X194.0Y-50.75
X194.0Y-52.5
X194.0Y-53.25
X194.0Y-54.0
X194.0Y-54.75
X194.0Y-55.5
X194.0Y-56.25
X194.0Y-64.5
X194.0Y-65.25
X194.0Y-66.0
X194.0Y-66.75
X194.0Y-67.5
X194.0Y-68.25
X194.0Y-69.0
X194.0Y-69.75
X194.0Y-70.5
X194.0Y-71.25
X194.0Y-72.0
X194.0Y-72.75
X194.0Y-73.5
X194.0Y-74.25
X194.0Y-75.0
X194.0Y-75.75
X194.0Y-95.5
X194.0Y-96.25
X194.0Y-97.0
X194.0Y-97.75
X194.0Y-98.5
X194.0Y-99.25
X194.0Y-100.0
X194.0Y-100.75
X194.0Y-102.5
X194.0Y-103.25
X194.0Y-104.0
X194.0Y-104.75
X194.0Y-105.5
X194.0Y-106.25
X194.0Y-114.5
X194.0Y-115.25
X194.0Y-116.0
X194.0Y-116.75
X194.0Y-117.5
X194.0Y-118.25
X194.0Y-119.0
X194.0Y-119.75
X194.0Y-120.5
X194.0Y-121.25
X194.0Y-122.0
X194.0Y-122.75
X194.0Y-123.5
X194.0Y-124.25
X194.0Y-125.0
X194.0Y-125.75
X194.75Y-45.5
X194.75Y-46.25
X194.75Y-47.0
X194.75Y-47.75
X194.75Y-48.5
X194.75Y-49.25
X194.75Y-50.0
X194.75Y-50.75
X194.75Y-52.5
X194.75Y-53.25
X194.75Y-54.0
X194.75Y-54.0
X194.75Y-54.75
X194.75Y-55.5
X194.75Y-56.25
X194.75Y-64.5
X194.75Y-65.25
X194.75Y-66.0
X194.75Y-66.75
X194.75Y-67.5
X194.75Y-68.25
X194.75Y-69.0
X194.75Y-69.75
X194.75Y-70.5
X194.75Y-71.25
X194.75Y-72.0
X194.75Y-72.75
X194.75Y-73.5
X194.75Y-74.25
X194.75Y-75.0
X194.75Y-75.75
X194.75Y-95.5
X194.75Y-96.25
X194.75Y-97.0
X194.75Y-97.75
X194.75Y-98.5
X194.75Y-99.25
X194.75Y-100.0
X194.75Y-100.75
X194.75Y-102.5
X194.75Y-103.25
X194.75Y-104.0
X194.75Y-104.0
X194.75Y-104.75
X194.75Y-105.5
X194.75Y-106.25
X194.75Y-114.5
X194.75Y-115.25
X194.75Y-116.0
X194.75Y-116.75
X194.75Y-117.5
X194.75Y-118.25
X194.75Y-119.0
X194.75Y-119.75
X194.75Y-120.5
X194.75Y-121.25
X194.75Y-122.0
X194.75Y-122.75
X194.75Y-123.5
X194.75Y-124.25
X194.75Y-125.0
X194.75Y-125.75
X195.0Y-77.0
X195.0Y-83.0
X195.0Y-127.0
X195.0Y-133.0
X195.5Y-45.5
X195.5Y-46.25
X195.5Y-47.0
X195.5Y-47.75
X195.5Y-48.5
X195.5Y-49.25
X195.5Y-50.0
X195.5Y-50.75
X195.5Y-52.5
X195.5Y-53.25
X195.5Y-54.0
X195.5Y-54.75
X195.5Y-55.5
X195.5Y-56.25
X195.5Y-64.5
X195.5Y-65.25
X195.5Y-66.0
X195.5Y-66.75
X195.5Y-67.5
X195.5Y-68.25
X195.5Y-69.0
X195.5Y-69.75
X195.5Y-70.5
X195.5Y-71.25
X195.5Y-72.0
X195.5Y-72.75
X195.5Y-73.5
X195.5Y-74.25
X195.5Y-75.0
X195.5Y-75.75
X195.5Y-95.5
X195.5Y-96.25
X195.5Y-97.0
X195.5Y-97.75
X195.5Y-98.5
X195.5Y-99.25
X195.5Y-100.0
X195.5Y-100.75
X195.5Y-102.5
X195.5Y-103.25
X195.5Y-104.0
X195.5Y-104.75
X195.5Y-105.5
X195.5Y-106.25
X195.5Y-114.5
X195.5Y-115.25
X195.5Y-116.0
X195.5Y-116.75
X195.5Y-117.5
X195.5Y-118.25
X195.5Y-119.0
X195.5Y-119.75
X195.5Y-120.5
X195.5Y-121.25
X195.5Y-122.0
X195.5Y-122.75
X195.5Y-123.5
X195.5Y-124.25
X195.5Y-125.0
X195.5Y-125.75
X196.7Y-43.7
X196.7Y-93.7
X198.0Y-57.0
X198.0Y-61.0
X198.0Y-65.0
X198.0Y-77.0
X198.0Y-81.0
X198.0Y-107.0
X198.0Y-111.0
X198.0Y-115.0
X198.0Y-127.0
X198.0Y-131.0
T2
X118.2Y-73.1
X118.2Y-123.1
X118.3Y-77.9
X118.3Y-127.9
X122.6Y-62.1
X122.6Y-112.1
X123.2Y-57.8
X123.2Y-107.8
X123.7Y-60.63
X123.7Y-110.63
X123.9Y-62.9
X123.9Y-112.9
X123.998Y-56.914
X123.998Y-106.914
X124.3Y-66.0
X124.3Y-72.4
X124.3Y-116.0
X124.3Y-122.4
X124.5Y-63.8
X124.5Y-113.8
X124.723Y-57.752
X124.723Y-107.752
X125.651Y-57.38
X125.651Y-107.38
X126.26Y-54.76
X126.26Y-104.76
X126.326Y-52.833
X126.326Y-102.833
X126.639Y-53.783
X126.639Y-103.783
X127.005Y-57.271
X127.005Y-107.271
X127.25Y-64.75
X127.25Y-114.75
X127.76Y-54.76
X127.76Y-104.76
X128.0Y-61.4
X128.0Y-111.4
X128.189Y-69.003
X128.189Y-119.003
X128.6Y-48.6
X128.6Y-48.6
X128.6Y-98.6
X128.6Y-98.6
X128.75Y-57.5
X128.75Y-107.5
X128.971Y-68.254
X128.971Y-118.254
X129.3Y-66.9
X129.3Y-116.9
X130.0Y-69.9
X130.0Y-119.9
X130.97Y-62.082
X130.97Y-112.082
X131.28Y-69.874
X131.28Y-119.874
X131.775Y-59.539
X131.775Y-109.539
X132.002Y-52.602
X132.002Y-102.602
X132.003Y-51.576
X132.003Y-101.576
X133.1Y-65.3
X133.1Y-115.3
X133.95Y-52.9
X133.95Y-102.9
X134.228Y-68.481
X134.228Y-118.481
X135.2Y-76.294
X135.2Y-126.294
X135.3Y-60.9
X135.3Y-110.9
X139.625Y-74.018
X139.625Y-124.018
X139.642Y-58.245
X139.642Y-108.245
X139.681Y-61.7
X139.681Y-111.7
X139.767Y-60.183
X139.767Y-110.183
X139.814Y-75.0
X139.814Y-125.0
X139.822Y-72.085
X139.822Y-122.085
X139.841Y-70.282
X139.841Y-120.282
X139.942Y-59.199
X139.942Y-109.199
X139.96Y-73.076
X139.96Y-123.076
X140.4Y-56.9
X140.4Y-106.9
X149.975Y-72.966
X149.975Y-122.966
X150.2Y-76.7
X150.2Y-126.7
X150.223Y-56.086
X150.223Y-106.086
X150.25Y-62.0
X150.25Y-112.0
X150.3Y-69.3
X150.3Y-119.3
X151.0Y-60.5
X151.0Y-110.5
X151.2Y-56.3
X151.2Y-106.3
X151.472Y-69.153
X151.472Y-119.153
X152.145Y-74.925
X152.145Y-124.925
X153.2Y-68.6
X153.2Y-118.6
X154.975Y-73.5
X154.975Y-123.5
X155.0Y-70.7
X155.0Y-120.7
X155.0Y-62.5
X155.0Y-112.5
X155.4Y-55.0
X155.4Y-105.0
X156.082Y-69.683
X156.082Y-119.683
X168.1Y-77.3
X168.1Y-127.3
X168.2Y-58.6
X168.2Y-108.6
X168.65Y-43.45
X168.65Y-93.45
X191.465Y-51.735
X191.465Y-101.735
X195.2Y-41.1
X195.2Y-91.1
T3
X132.589Y-95.2
X135.129Y-95.2
X137.669Y-95.2
X141.251Y-45.2
X143.791Y-45.2
X146.331Y-45.2
X148.871Y-45.2
X151.411Y-45.2
X141.251Y-95.2
X143.791Y-95.2
X146.331Y-95.2
X148.871Y-95.2
X151.411Y-95.2
X132.589Y-45.2
X135.129Y-45.2
X137.669Y-45.2
T4
X178.9Y-97.6
X178.9Y-104.8
X178.9Y-47.6
X178.9Y-54.8
X178.9Y-116.6
X178.9Y-123.8
X178.9Y-66.6
X178.9Y-73.8
T3
G00X173.5Y-94.45
M15
G01X172.3Y-94.45
M16
G05
G00X173.5Y-107.95
M15
G01X172.3Y-107.95
M16
G05
G00X185.5Y-94.45
M15
G01X184.3Y-94.45
M16
G05
G00X185.5Y-107.95
M15
G01X184.3Y-107.95
M16
G05
G00X173.5Y-44.45
M15
G01X172.3Y-44.45
M16
G05
G00X173.5Y-57.95
M15
G01X172.3Y-57.95
M16
G05
G00X185.5Y-44.45
M15
G01X184.3Y-44.45
M16
G05
G00X185.5Y-57.95
M15
G01X184.3Y-57.95
M16
G05
G00X173.5Y-113.45
M15
G01X172.3Y-113.45
M16
G05
G00X173.5Y-126.95
M15
G01X172.3Y-126.95
M16
G05
G00X185.5Y-113.45
M15
G01X184.3Y-113.45
M16
G05
G00X185.5Y-126.95
M15
G01X184.3Y-126.95
M16
G05
G00X173.5Y-63.45
M15
G01X172.3Y-63.45
M16
G05
G00X173.5Y-76.95
M15
G01X172.3Y-76.95
M16
G05
G00X185.5Y-63.45
M15
G01X184.3Y-63.45
M16
G05
G00X185.5Y-76.95
M15
G01X184.3Y-76.95
M16
G05
T0
M30
