G04 #@! TF.GenerationSoftware,KiCad,Pcbnew,(5.1.4)-1*
G04 #@! TF.CreationDate,2019-12-04T01:37:38+09:00*
G04 #@! TF.ProjectId,CAN_Dual_MDexpress,43414e5f-4475-4616-9c5f-4d4465787072,rev?*
G04 #@! TF.SameCoordinates,Original*
G04 #@! TF.FileFunction,Legend,Bot*
G04 #@! TF.FilePolarity,Positive*
%FSLAX46Y46*%
G04 Gerber Fmt 4.6, Leading zero omitted, Abs format (unit mm)*
G04 Created by KiCad (PCBNEW (5.1.4)-1) date 2019-12-04 01:37:38*
%MOMM*%
%LPD*%
G04 APERTURE LIST*
%ADD10C,0.150000*%
%ADD11C,0.100000*%
%ADD12C,0.300000*%
%ADD13C,0.120000*%
%ADD14C,0.200000*%
%ADD15C,0.254000*%
G04 APERTURE END LIST*
D10*
X190942857Y-82747619D02*
X190942857Y-83747619D01*
X191180952Y-83747619D01*
X191323809Y-83700000D01*
X191419047Y-83604761D01*
X191466666Y-83509523D01*
X191514285Y-83319047D01*
X191514285Y-83176190D01*
X191466666Y-82985714D01*
X191419047Y-82890476D01*
X191323809Y-82795238D01*
X191180952Y-82747619D01*
X190942857Y-82747619D01*
X192323809Y-82795238D02*
X192228571Y-82747619D01*
X192038095Y-82747619D01*
X191942857Y-82795238D01*
X191895238Y-82890476D01*
X191895238Y-83271428D01*
X191942857Y-83366666D01*
X192038095Y-83414285D01*
X192228571Y-83414285D01*
X192323809Y-83366666D01*
X192371428Y-83271428D01*
X192371428Y-83176190D01*
X191895238Y-83080952D01*
X192752380Y-82795238D02*
X192847619Y-82747619D01*
X193038095Y-82747619D01*
X193133333Y-82795238D01*
X193180952Y-82890476D01*
X193180952Y-82938095D01*
X193133333Y-83033333D01*
X193038095Y-83080952D01*
X192895238Y-83080952D01*
X192800000Y-83128571D01*
X192752380Y-83223809D01*
X192752380Y-83271428D01*
X192800000Y-83366666D01*
X192895238Y-83414285D01*
X193038095Y-83414285D01*
X193133333Y-83366666D01*
X193609523Y-82747619D02*
X193609523Y-83414285D01*
X193609523Y-83747619D02*
X193561904Y-83700000D01*
X193609523Y-83652380D01*
X193657142Y-83700000D01*
X193609523Y-83747619D01*
X193609523Y-83652380D01*
X194514285Y-83414285D02*
X194514285Y-82604761D01*
X194466666Y-82509523D01*
X194419047Y-82461904D01*
X194323809Y-82414285D01*
X194180952Y-82414285D01*
X194085714Y-82461904D01*
X194514285Y-82795238D02*
X194419047Y-82747619D01*
X194228571Y-82747619D01*
X194133333Y-82795238D01*
X194085714Y-82842857D01*
X194038095Y-82938095D01*
X194038095Y-83223809D01*
X194085714Y-83319047D01*
X194133333Y-83366666D01*
X194228571Y-83414285D01*
X194419047Y-83414285D01*
X194514285Y-83366666D01*
X194990476Y-83414285D02*
X194990476Y-82747619D01*
X194990476Y-83319047D02*
X195038095Y-83366666D01*
X195133333Y-83414285D01*
X195276190Y-83414285D01*
X195371428Y-83366666D01*
X195419047Y-83271428D01*
X195419047Y-82747619D01*
X196276190Y-82795238D02*
X196180952Y-82747619D01*
X195990476Y-82747619D01*
X195895238Y-82795238D01*
X195847619Y-82890476D01*
X195847619Y-83271428D01*
X195895238Y-83366666D01*
X195990476Y-83414285D01*
X196180952Y-83414285D01*
X196276190Y-83366666D01*
X196323809Y-83271428D01*
X196323809Y-83176190D01*
X195847619Y-83080952D01*
X197180952Y-82747619D02*
X197180952Y-83747619D01*
X197180952Y-82795238D02*
X197085714Y-82747619D01*
X196895238Y-82747619D01*
X196800000Y-82795238D01*
X196752380Y-82842857D01*
X196704761Y-82938095D01*
X196704761Y-83223809D01*
X196752380Y-83319047D01*
X196800000Y-83366666D01*
X196895238Y-83414285D01*
X197085714Y-83414285D01*
X197180952Y-83366666D01*
X198419047Y-82747619D02*
X198419047Y-83747619D01*
X198419047Y-83366666D02*
X198514285Y-83414285D01*
X198704761Y-83414285D01*
X198800000Y-83366666D01*
X198847619Y-83319047D01*
X198895238Y-83223809D01*
X198895238Y-82938095D01*
X198847619Y-82842857D01*
X198800000Y-82795238D01*
X198704761Y-82747619D01*
X198514285Y-82747619D01*
X198419047Y-82795238D01*
X199228571Y-83414285D02*
X199466666Y-82747619D01*
X199704761Y-83414285D02*
X199466666Y-82747619D01*
X199371428Y-82509523D01*
X199323809Y-82461904D01*
X199228571Y-82414285D01*
X200704761Y-83747619D02*
X201276190Y-83747619D01*
X200990476Y-82747619D02*
X200990476Y-83747619D01*
X201609523Y-82747619D02*
X201609523Y-83747619D01*
X202180952Y-82747619D01*
X202180952Y-83747619D01*
X202657142Y-82747619D02*
X202657142Y-83747619D01*
X203228571Y-82747619D02*
X202800000Y-83319047D01*
X203228571Y-83747619D02*
X202657142Y-83176190D01*
X203657142Y-82842857D02*
X203704761Y-82795238D01*
X203657142Y-82747619D01*
X203609523Y-82795238D01*
X203657142Y-82842857D01*
X203657142Y-82747619D01*
D11*
X167628571Y-81157142D02*
X167714285Y-81128571D01*
X167857142Y-81128571D01*
X167914285Y-81157142D01*
X167942857Y-81185714D01*
X167971428Y-81242857D01*
X167971428Y-81300000D01*
X167942857Y-81357142D01*
X167914285Y-81385714D01*
X167857142Y-81414285D01*
X167742857Y-81442857D01*
X167685714Y-81471428D01*
X167657142Y-81500000D01*
X167628571Y-81557142D01*
X167628571Y-81614285D01*
X167657142Y-81671428D01*
X167685714Y-81700000D01*
X167742857Y-81728571D01*
X167885714Y-81728571D01*
X167971428Y-81700000D01*
X168171428Y-81728571D02*
X168314285Y-81128571D01*
X168428571Y-81557142D01*
X168542857Y-81128571D01*
X168685714Y-81728571D01*
X168914285Y-81128571D02*
X168914285Y-81728571D01*
X169057142Y-81728571D01*
X169142857Y-81700000D01*
X169200000Y-81642857D01*
X169228571Y-81585714D01*
X169257142Y-81471428D01*
X169257142Y-81385714D01*
X169228571Y-81271428D01*
X169200000Y-81214285D01*
X169142857Y-81157142D01*
X169057142Y-81128571D01*
X168914285Y-81128571D01*
X169514285Y-81128571D02*
X169514285Y-81728571D01*
X169914285Y-81728571D02*
X170028571Y-81728571D01*
X170085714Y-81700000D01*
X170142857Y-81642857D01*
X170171428Y-81528571D01*
X170171428Y-81328571D01*
X170142857Y-81214285D01*
X170085714Y-81157142D01*
X170028571Y-81128571D01*
X169914285Y-81128571D01*
X169857142Y-81157142D01*
X169800000Y-81214285D01*
X169771428Y-81328571D01*
X169771428Y-81528571D01*
X169800000Y-81642857D01*
X169857142Y-81700000D01*
X169914285Y-81728571D01*
D10*
X177488095Y-46321428D02*
X177154761Y-46321428D01*
X177154761Y-45797619D02*
X177154761Y-46797619D01*
X177630952Y-46797619D01*
X178345238Y-46321428D02*
X178011904Y-46321428D01*
X178011904Y-45797619D02*
X178011904Y-46797619D01*
X178488095Y-46797619D01*
X178821428Y-46702380D02*
X178869047Y-46750000D01*
X178964285Y-46797619D01*
X179202380Y-46797619D01*
X179297619Y-46750000D01*
X179345238Y-46702380D01*
X179392857Y-46607142D01*
X179392857Y-46511904D01*
X179345238Y-46369047D01*
X178773809Y-45797619D01*
X179392857Y-45797619D01*
D11*
X165414285Y-81728571D02*
X165414285Y-82328571D01*
X165757142Y-81728571D01*
X165757142Y-82328571D01*
X166385714Y-81728571D02*
X166185714Y-82014285D01*
X166042857Y-81728571D02*
X166042857Y-82328571D01*
X166271428Y-82328571D01*
X166328571Y-82300000D01*
X166357142Y-82271428D01*
X166385714Y-82214285D01*
X166385714Y-82128571D01*
X166357142Y-82071428D01*
X166328571Y-82042857D01*
X166271428Y-82014285D01*
X166042857Y-82014285D01*
X166614285Y-81757142D02*
X166700000Y-81728571D01*
X166842857Y-81728571D01*
X166900000Y-81757142D01*
X166928571Y-81785714D01*
X166957142Y-81842857D01*
X166957142Y-81900000D01*
X166928571Y-81957142D01*
X166900000Y-81985714D01*
X166842857Y-82014285D01*
X166728571Y-82042857D01*
X166671428Y-82071428D01*
X166642857Y-82100000D01*
X166614285Y-82157142D01*
X166614285Y-82214285D01*
X166642857Y-82271428D01*
X166671428Y-82300000D01*
X166728571Y-82328571D01*
X166871428Y-82328571D01*
X166957142Y-82300000D01*
X167128571Y-82328571D02*
X167471428Y-82328571D01*
X167300000Y-81728571D02*
X167300000Y-82328571D01*
D10*
X174560095Y-56373428D02*
X174226761Y-56373428D01*
X174226761Y-55849619D02*
X174226761Y-56849619D01*
X174702952Y-56849619D01*
X175417238Y-56373428D02*
X175083904Y-56373428D01*
X175083904Y-55849619D02*
X175083904Y-56849619D01*
X175560095Y-56849619D01*
X176464857Y-55849619D02*
X175893428Y-55849619D01*
X176179142Y-55849619D02*
X176179142Y-56849619D01*
X176083904Y-56706761D01*
X175988666Y-56611523D01*
X175893428Y-56563904D01*
D11*
X173542857Y-81700000D02*
X173485714Y-81728571D01*
X173400000Y-81728571D01*
X173314285Y-81700000D01*
X173257142Y-81642857D01*
X173228571Y-81585714D01*
X173200000Y-81471428D01*
X173200000Y-81385714D01*
X173228571Y-81271428D01*
X173257142Y-81214285D01*
X173314285Y-81157142D01*
X173400000Y-81128571D01*
X173457142Y-81128571D01*
X173542857Y-81157142D01*
X173571428Y-81185714D01*
X173571428Y-81385714D01*
X173457142Y-81385714D01*
X173828571Y-81128571D02*
X173828571Y-81728571D01*
X174171428Y-81128571D01*
X174171428Y-81728571D01*
X174457142Y-81128571D02*
X174457142Y-81728571D01*
X174600000Y-81728571D01*
X174685714Y-81700000D01*
X174742857Y-81642857D01*
X174771428Y-81585714D01*
X174800000Y-81471428D01*
X174800000Y-81385714D01*
X174771428Y-81271428D01*
X174742857Y-81214285D01*
X174685714Y-81157142D01*
X174600000Y-81128571D01*
X174457142Y-81128571D01*
D10*
X174488095Y-46321428D02*
X174154761Y-46321428D01*
X174154761Y-45797619D02*
X174154761Y-46797619D01*
X174630952Y-46797619D01*
X175345238Y-46321428D02*
X175011904Y-46321428D01*
X175011904Y-45797619D02*
X175011904Y-46797619D01*
X175488095Y-46797619D01*
X176392857Y-45797619D02*
X175821428Y-45797619D01*
X176107142Y-45797619D02*
X176107142Y-46797619D01*
X176011904Y-46654761D01*
X175916666Y-46559523D01*
X175821428Y-46511904D01*
D11*
X175242857Y-81957142D02*
X175700000Y-81957142D01*
X175471428Y-81728571D02*
X175471428Y-82185714D01*
X175928571Y-82328571D02*
X176300000Y-82328571D01*
X176100000Y-82100000D01*
X176185714Y-82100000D01*
X176242857Y-82071428D01*
X176271428Y-82042857D01*
X176300000Y-81985714D01*
X176300000Y-81842857D01*
X176271428Y-81785714D01*
X176242857Y-81757142D01*
X176185714Y-81728571D01*
X176014285Y-81728571D01*
X175957142Y-81757142D01*
X175928571Y-81785714D01*
X176471428Y-82328571D02*
X176671428Y-81728571D01*
X176871428Y-82328571D01*
X177014285Y-82328571D02*
X177385714Y-82328571D01*
X177185714Y-82100000D01*
X177271428Y-82100000D01*
X177328571Y-82071428D01*
X177357142Y-82042857D01*
X177385714Y-81985714D01*
X177385714Y-81842857D01*
X177357142Y-81785714D01*
X177328571Y-81757142D01*
X177271428Y-81728571D01*
X177100000Y-81728571D01*
X177042857Y-81757142D01*
X177014285Y-81785714D01*
D10*
X202952380Y-65190476D02*
X201952380Y-65190476D01*
X202666666Y-65523809D01*
X201952380Y-65857142D01*
X202952380Y-65857142D01*
X202952380Y-66333333D02*
X201952380Y-66333333D01*
X201952380Y-66571428D01*
X202000000Y-66714285D01*
X202095238Y-66809523D01*
X202190476Y-66857142D01*
X202380952Y-66904761D01*
X202523809Y-66904761D01*
X202714285Y-66857142D01*
X202809523Y-66809523D01*
X202904761Y-66714285D01*
X202952380Y-66571428D01*
X202952380Y-66333333D01*
X201952380Y-67523809D02*
X201952380Y-67619047D01*
X202000000Y-67714285D01*
X202047619Y-67761904D01*
X202142857Y-67809523D01*
X202333333Y-67857142D01*
X202571428Y-67857142D01*
X202761904Y-67809523D01*
X202857142Y-67761904D01*
X202904761Y-67714285D01*
X202952380Y-67619047D01*
X202952380Y-67523809D01*
X202904761Y-67428571D01*
X202857142Y-67380952D01*
X202761904Y-67333333D01*
X202571428Y-67285714D01*
X202333333Y-67285714D01*
X202142857Y-67333333D01*
X202047619Y-67380952D01*
X202000000Y-67428571D01*
X201952380Y-67523809D01*
D11*
X170342857Y-81757142D02*
X170428571Y-81728571D01*
X170571428Y-81728571D01*
X170628571Y-81757142D01*
X170657142Y-81785714D01*
X170685714Y-81842857D01*
X170685714Y-81900000D01*
X170657142Y-81957142D01*
X170628571Y-81985714D01*
X170571428Y-82014285D01*
X170457142Y-82042857D01*
X170400000Y-82071428D01*
X170371428Y-82100000D01*
X170342857Y-82157142D01*
X170342857Y-82214285D01*
X170371428Y-82271428D01*
X170400000Y-82300000D01*
X170457142Y-82328571D01*
X170600000Y-82328571D01*
X170685714Y-82300000D01*
X170885714Y-82328571D02*
X171028571Y-81728571D01*
X171142857Y-82157142D01*
X171257142Y-81728571D01*
X171400000Y-82328571D01*
X171971428Y-81785714D02*
X171942857Y-81757142D01*
X171857142Y-81728571D01*
X171800000Y-81728571D01*
X171714285Y-81757142D01*
X171657142Y-81814285D01*
X171628571Y-81871428D01*
X171600000Y-81985714D01*
X171600000Y-82071428D01*
X171628571Y-82185714D01*
X171657142Y-82242857D01*
X171714285Y-82300000D01*
X171800000Y-82328571D01*
X171857142Y-82328571D01*
X171942857Y-82300000D01*
X171971428Y-82271428D01*
X172514285Y-81728571D02*
X172228571Y-81728571D01*
X172228571Y-82328571D01*
X172714285Y-81728571D02*
X172714285Y-82328571D01*
X173057142Y-81728571D02*
X172800000Y-82071428D01*
X173057142Y-82328571D02*
X172714285Y-81985714D01*
D10*
X202952380Y-57190476D02*
X201952380Y-57190476D01*
X202666666Y-57523809D01*
X201952380Y-57857142D01*
X202952380Y-57857142D01*
X202952380Y-58333333D02*
X201952380Y-58333333D01*
X201952380Y-58571428D01*
X202000000Y-58714285D01*
X202095238Y-58809523D01*
X202190476Y-58857142D01*
X202380952Y-58904761D01*
X202523809Y-58904761D01*
X202714285Y-58857142D01*
X202809523Y-58809523D01*
X202904761Y-58714285D01*
X202952380Y-58571428D01*
X202952380Y-58333333D01*
X202952380Y-59857142D02*
X202952380Y-59285714D01*
X202952380Y-59571428D02*
X201952380Y-59571428D01*
X202095238Y-59476190D01*
X202190476Y-59380952D01*
X202238095Y-59285714D01*
X177560095Y-56373428D02*
X177226761Y-56373428D01*
X177226761Y-55849619D02*
X177226761Y-56849619D01*
X177702952Y-56849619D01*
X178417238Y-56373428D02*
X178083904Y-56373428D01*
X178083904Y-55849619D02*
X178083904Y-56849619D01*
X178560095Y-56849619D01*
X178893428Y-56754380D02*
X178941047Y-56802000D01*
X179036285Y-56849619D01*
X179274380Y-56849619D01*
X179369619Y-56802000D01*
X179417238Y-56754380D01*
X179464857Y-56659142D01*
X179464857Y-56563904D01*
X179417238Y-56421047D01*
X178845809Y-55849619D01*
X179464857Y-55849619D01*
D12*
X224714285Y-83904761D02*
X224047619Y-85904761D01*
X223380952Y-83904761D01*
X222714285Y-85142857D02*
X221190476Y-85142857D01*
X219095238Y-85714285D02*
X219190476Y-85809523D01*
X219476190Y-85904761D01*
X219666666Y-85904761D01*
X219952380Y-85809523D01*
X220142857Y-85619047D01*
X220238095Y-85428571D01*
X220333333Y-85047619D01*
X220333333Y-84761904D01*
X220238095Y-84380952D01*
X220142857Y-84190476D01*
X219952380Y-84000000D01*
X219666666Y-83904761D01*
X219476190Y-83904761D01*
X219190476Y-84000000D01*
X219095238Y-84095238D01*
X218238095Y-83904761D02*
X218238095Y-85523809D01*
X218142857Y-85714285D01*
X218047619Y-85809523D01*
X217857142Y-85904761D01*
X217476190Y-85904761D01*
X217285714Y-85809523D01*
X217190476Y-85714285D01*
X217095238Y-85523809D01*
X217095238Y-83904761D01*
X216428571Y-83904761D02*
X215285714Y-83904761D01*
X215857142Y-85904761D02*
X215857142Y-83904761D01*
D10*
X122047619Y-112809523D02*
X123047619Y-112809523D01*
X122333333Y-112476190D01*
X123047619Y-112142857D01*
X122047619Y-112142857D01*
X122047619Y-111666666D02*
X123047619Y-111666666D01*
X123047619Y-111428571D01*
X123000000Y-111285714D01*
X122904761Y-111190476D01*
X122809523Y-111142857D01*
X122619047Y-111095238D01*
X122476190Y-111095238D01*
X122285714Y-111142857D01*
X122190476Y-111190476D01*
X122095238Y-111285714D01*
X122047619Y-111428571D01*
X122047619Y-111666666D01*
X122047619Y-110142857D02*
X122047619Y-110714285D01*
X122047619Y-110428571D02*
X123047619Y-110428571D01*
X122904761Y-110523809D01*
X122809523Y-110619047D01*
X122761904Y-110714285D01*
X122047619Y-104809523D02*
X123047619Y-104809523D01*
X122333333Y-104476190D01*
X123047619Y-104142857D01*
X122047619Y-104142857D01*
X122047619Y-103666666D02*
X123047619Y-103666666D01*
X123047619Y-103428571D01*
X123000000Y-103285714D01*
X122904761Y-103190476D01*
X122809523Y-103142857D01*
X122619047Y-103095238D01*
X122476190Y-103095238D01*
X122285714Y-103142857D01*
X122190476Y-103190476D01*
X122095238Y-103285714D01*
X122047619Y-103428571D01*
X122047619Y-103666666D01*
X123047619Y-102476190D02*
X123047619Y-102380952D01*
X123000000Y-102285714D01*
X122952380Y-102238095D01*
X122857142Y-102190476D01*
X122666666Y-102142857D01*
X122428571Y-102142857D01*
X122238095Y-102190476D01*
X122142857Y-102238095D01*
X122095238Y-102285714D01*
X122047619Y-102380952D01*
X122047619Y-102476190D01*
X122095238Y-102571428D01*
X122142857Y-102619047D01*
X122238095Y-102666666D01*
X122428571Y-102714285D01*
X122666666Y-102714285D01*
X122857142Y-102666666D01*
X122952380Y-102619047D01*
X123000000Y-102571428D01*
X123047619Y-102476190D01*
D11*
X159585714Y-88271428D02*
X159585714Y-87671428D01*
X159242857Y-88271428D01*
X159242857Y-87671428D01*
X158614285Y-88271428D02*
X158814285Y-87985714D01*
X158957142Y-88271428D02*
X158957142Y-87671428D01*
X158728571Y-87671428D01*
X158671428Y-87700000D01*
X158642857Y-87728571D01*
X158614285Y-87785714D01*
X158614285Y-87871428D01*
X158642857Y-87928571D01*
X158671428Y-87957142D01*
X158728571Y-87985714D01*
X158957142Y-87985714D01*
X158385714Y-88242857D02*
X158300000Y-88271428D01*
X158157142Y-88271428D01*
X158100000Y-88242857D01*
X158071428Y-88214285D01*
X158042857Y-88157142D01*
X158042857Y-88100000D01*
X158071428Y-88042857D01*
X158100000Y-88014285D01*
X158157142Y-87985714D01*
X158271428Y-87957142D01*
X158328571Y-87928571D01*
X158357142Y-87900000D01*
X158385714Y-87842857D01*
X158385714Y-87785714D01*
X158357142Y-87728571D01*
X158328571Y-87700000D01*
X158271428Y-87671428D01*
X158128571Y-87671428D01*
X158042857Y-87700000D01*
X157871428Y-87671428D02*
X157528571Y-87671428D01*
X157700000Y-88271428D02*
X157700000Y-87671428D01*
X157371428Y-88842857D02*
X157285714Y-88871428D01*
X157142857Y-88871428D01*
X157085714Y-88842857D01*
X157057142Y-88814285D01*
X157028571Y-88757142D01*
X157028571Y-88700000D01*
X157057142Y-88642857D01*
X157085714Y-88614285D01*
X157142857Y-88585714D01*
X157257142Y-88557142D01*
X157314285Y-88528571D01*
X157342857Y-88500000D01*
X157371428Y-88442857D01*
X157371428Y-88385714D01*
X157342857Y-88328571D01*
X157314285Y-88300000D01*
X157257142Y-88271428D01*
X157114285Y-88271428D01*
X157028571Y-88300000D01*
X156828571Y-88271428D02*
X156685714Y-88871428D01*
X156571428Y-88442857D01*
X156457142Y-88871428D01*
X156314285Y-88271428D01*
X156085714Y-88871428D02*
X156085714Y-88271428D01*
X155942857Y-88271428D01*
X155857142Y-88300000D01*
X155800000Y-88357142D01*
X155771428Y-88414285D01*
X155742857Y-88528571D01*
X155742857Y-88614285D01*
X155771428Y-88728571D01*
X155800000Y-88785714D01*
X155857142Y-88842857D01*
X155942857Y-88871428D01*
X156085714Y-88871428D01*
X155485714Y-88871428D02*
X155485714Y-88271428D01*
X155085714Y-88271428D02*
X154971428Y-88271428D01*
X154914285Y-88300000D01*
X154857142Y-88357142D01*
X154828571Y-88471428D01*
X154828571Y-88671428D01*
X154857142Y-88785714D01*
X154914285Y-88842857D01*
X154971428Y-88871428D01*
X155085714Y-88871428D01*
X155142857Y-88842857D01*
X155200000Y-88785714D01*
X155228571Y-88671428D01*
X155228571Y-88471428D01*
X155200000Y-88357142D01*
X155142857Y-88300000D01*
X155085714Y-88271428D01*
X154657142Y-88242857D02*
X154571428Y-88271428D01*
X154428571Y-88271428D01*
X154371428Y-88242857D01*
X154342857Y-88214285D01*
X154314285Y-88157142D01*
X154314285Y-88100000D01*
X154342857Y-88042857D01*
X154371428Y-88014285D01*
X154428571Y-87985714D01*
X154542857Y-87957142D01*
X154600000Y-87928571D01*
X154628571Y-87900000D01*
X154657142Y-87842857D01*
X154657142Y-87785714D01*
X154628571Y-87728571D01*
X154600000Y-87700000D01*
X154542857Y-87671428D01*
X154400000Y-87671428D01*
X154314285Y-87700000D01*
X154114285Y-87671428D02*
X153971428Y-88271428D01*
X153857142Y-87842857D01*
X153742857Y-88271428D01*
X153600000Y-87671428D01*
X153028571Y-88214285D02*
X153057142Y-88242857D01*
X153142857Y-88271428D01*
X153200000Y-88271428D01*
X153285714Y-88242857D01*
X153342857Y-88185714D01*
X153371428Y-88128571D01*
X153400000Y-88014285D01*
X153400000Y-87928571D01*
X153371428Y-87814285D01*
X153342857Y-87757142D01*
X153285714Y-87700000D01*
X153200000Y-87671428D01*
X153142857Y-87671428D01*
X153057142Y-87700000D01*
X153028571Y-87728571D01*
X152485714Y-88271428D02*
X152771428Y-88271428D01*
X152771428Y-87671428D01*
X152285714Y-88271428D02*
X152285714Y-87671428D01*
X151942857Y-88271428D02*
X152200000Y-87928571D01*
X151942857Y-87671428D02*
X152285714Y-88014285D01*
X151457142Y-88300000D02*
X151514285Y-88271428D01*
X151600000Y-88271428D01*
X151685714Y-88300000D01*
X151742857Y-88357142D01*
X151771428Y-88414285D01*
X151800000Y-88528571D01*
X151800000Y-88614285D01*
X151771428Y-88728571D01*
X151742857Y-88785714D01*
X151685714Y-88842857D01*
X151600000Y-88871428D01*
X151542857Y-88871428D01*
X151457142Y-88842857D01*
X151428571Y-88814285D01*
X151428571Y-88614285D01*
X151542857Y-88614285D01*
X151171428Y-88871428D02*
X151171428Y-88271428D01*
X150828571Y-88871428D01*
X150828571Y-88271428D01*
X150542857Y-88871428D02*
X150542857Y-88271428D01*
X150400000Y-88271428D01*
X150314285Y-88300000D01*
X150257142Y-88357142D01*
X150228571Y-88414285D01*
X150200000Y-88528571D01*
X150200000Y-88614285D01*
X150228571Y-88728571D01*
X150257142Y-88785714D01*
X150314285Y-88842857D01*
X150400000Y-88871428D01*
X150542857Y-88871428D01*
X149757142Y-88042857D02*
X149300000Y-88042857D01*
X149528571Y-88271428D02*
X149528571Y-87814285D01*
X149071428Y-87671428D02*
X148700000Y-87671428D01*
X148900000Y-87900000D01*
X148814285Y-87900000D01*
X148757142Y-87928571D01*
X148728571Y-87957142D01*
X148700000Y-88014285D01*
X148700000Y-88157142D01*
X148728571Y-88214285D01*
X148757142Y-88242857D01*
X148814285Y-88271428D01*
X148985714Y-88271428D01*
X149042857Y-88242857D01*
X149071428Y-88214285D01*
X148528571Y-87671428D02*
X148328571Y-88271428D01*
X148128571Y-87671428D01*
X147985714Y-87671428D02*
X147614285Y-87671428D01*
X147814285Y-87900000D01*
X147728571Y-87900000D01*
X147671428Y-87928571D01*
X147642857Y-87957142D01*
X147614285Y-88014285D01*
X147614285Y-88157142D01*
X147642857Y-88214285D01*
X147671428Y-88242857D01*
X147728571Y-88271428D01*
X147900000Y-88271428D01*
X147957142Y-88242857D01*
X147985714Y-88214285D01*
D10*
X150439904Y-113626571D02*
X150773238Y-113626571D01*
X150773238Y-114150380D02*
X150773238Y-113150380D01*
X150297047Y-113150380D01*
X149582761Y-113626571D02*
X149916095Y-113626571D01*
X149916095Y-114150380D02*
X149916095Y-113150380D01*
X149439904Y-113150380D01*
X148535142Y-114150380D02*
X149106571Y-114150380D01*
X148820857Y-114150380D02*
X148820857Y-113150380D01*
X148916095Y-113293238D01*
X149011333Y-113388476D01*
X149106571Y-113436095D01*
X147439904Y-113626571D02*
X147773238Y-113626571D01*
X147773238Y-114150380D02*
X147773238Y-113150380D01*
X147297047Y-113150380D01*
X146582761Y-113626571D02*
X146916095Y-113626571D01*
X146916095Y-114150380D02*
X146916095Y-113150380D01*
X146439904Y-113150380D01*
X146106571Y-113245619D02*
X146058952Y-113198000D01*
X145963714Y-113150380D01*
X145725619Y-113150380D01*
X145630380Y-113198000D01*
X145582761Y-113245619D01*
X145535142Y-113340857D01*
X145535142Y-113436095D01*
X145582761Y-113578952D01*
X146154190Y-114150380D01*
X145535142Y-114150380D01*
X147511904Y-123678571D02*
X147845238Y-123678571D01*
X147845238Y-124202380D02*
X147845238Y-123202380D01*
X147369047Y-123202380D01*
X146654761Y-123678571D02*
X146988095Y-123678571D01*
X146988095Y-124202380D02*
X146988095Y-123202380D01*
X146511904Y-123202380D01*
X146178571Y-123297619D02*
X146130952Y-123250000D01*
X146035714Y-123202380D01*
X145797619Y-123202380D01*
X145702380Y-123250000D01*
X145654761Y-123297619D01*
X145607142Y-123392857D01*
X145607142Y-123488095D01*
X145654761Y-123630952D01*
X146226190Y-124202380D01*
X145607142Y-124202380D01*
X150511904Y-123678571D02*
X150845238Y-123678571D01*
X150845238Y-124202380D02*
X150845238Y-123202380D01*
X150369047Y-123202380D01*
X149654761Y-123678571D02*
X149988095Y-123678571D01*
X149988095Y-124202380D02*
X149988095Y-123202380D01*
X149511904Y-123202380D01*
X148607142Y-124202380D02*
X149178571Y-124202380D01*
X148892857Y-124202380D02*
X148892857Y-123202380D01*
X148988095Y-123345238D01*
X149083333Y-123440476D01*
X149178571Y-123488095D01*
X134057142Y-87252380D02*
X134057142Y-86252380D01*
X133819047Y-86252380D01*
X133676190Y-86300000D01*
X133580952Y-86395238D01*
X133533333Y-86490476D01*
X133485714Y-86680952D01*
X133485714Y-86823809D01*
X133533333Y-87014285D01*
X133580952Y-87109523D01*
X133676190Y-87204761D01*
X133819047Y-87252380D01*
X134057142Y-87252380D01*
X132676190Y-87204761D02*
X132771428Y-87252380D01*
X132961904Y-87252380D01*
X133057142Y-87204761D01*
X133104761Y-87109523D01*
X133104761Y-86728571D01*
X133057142Y-86633333D01*
X132961904Y-86585714D01*
X132771428Y-86585714D01*
X132676190Y-86633333D01*
X132628571Y-86728571D01*
X132628571Y-86823809D01*
X133104761Y-86919047D01*
X132247619Y-87204761D02*
X132152380Y-87252380D01*
X131961904Y-87252380D01*
X131866666Y-87204761D01*
X131819047Y-87109523D01*
X131819047Y-87061904D01*
X131866666Y-86966666D01*
X131961904Y-86919047D01*
X132104761Y-86919047D01*
X132200000Y-86871428D01*
X132247619Y-86776190D01*
X132247619Y-86728571D01*
X132200000Y-86633333D01*
X132104761Y-86585714D01*
X131961904Y-86585714D01*
X131866666Y-86633333D01*
X131390476Y-87252380D02*
X131390476Y-86585714D01*
X131390476Y-86252380D02*
X131438095Y-86300000D01*
X131390476Y-86347619D01*
X131342857Y-86300000D01*
X131390476Y-86252380D01*
X131390476Y-86347619D01*
X130485714Y-86585714D02*
X130485714Y-87395238D01*
X130533333Y-87490476D01*
X130580952Y-87538095D01*
X130676190Y-87585714D01*
X130819047Y-87585714D01*
X130914285Y-87538095D01*
X130485714Y-87204761D02*
X130580952Y-87252380D01*
X130771428Y-87252380D01*
X130866666Y-87204761D01*
X130914285Y-87157142D01*
X130961904Y-87061904D01*
X130961904Y-86776190D01*
X130914285Y-86680952D01*
X130866666Y-86633333D01*
X130771428Y-86585714D01*
X130580952Y-86585714D01*
X130485714Y-86633333D01*
X130009523Y-86585714D02*
X130009523Y-87252380D01*
X130009523Y-86680952D02*
X129961904Y-86633333D01*
X129866666Y-86585714D01*
X129723809Y-86585714D01*
X129628571Y-86633333D01*
X129580952Y-86728571D01*
X129580952Y-87252380D01*
X128723809Y-87204761D02*
X128819047Y-87252380D01*
X129009523Y-87252380D01*
X129104761Y-87204761D01*
X129152380Y-87109523D01*
X129152380Y-86728571D01*
X129104761Y-86633333D01*
X129009523Y-86585714D01*
X128819047Y-86585714D01*
X128723809Y-86633333D01*
X128676190Y-86728571D01*
X128676190Y-86823809D01*
X129152380Y-86919047D01*
X127819047Y-87252380D02*
X127819047Y-86252380D01*
X127819047Y-87204761D02*
X127914285Y-87252380D01*
X128104761Y-87252380D01*
X128200000Y-87204761D01*
X128247619Y-87157142D01*
X128295238Y-87061904D01*
X128295238Y-86776190D01*
X128247619Y-86680952D01*
X128200000Y-86633333D01*
X128104761Y-86585714D01*
X127914285Y-86585714D01*
X127819047Y-86633333D01*
X126580952Y-87252380D02*
X126580952Y-86252380D01*
X126580952Y-86633333D02*
X126485714Y-86585714D01*
X126295238Y-86585714D01*
X126200000Y-86633333D01*
X126152380Y-86680952D01*
X126104761Y-86776190D01*
X126104761Y-87061904D01*
X126152380Y-87157142D01*
X126200000Y-87204761D01*
X126295238Y-87252380D01*
X126485714Y-87252380D01*
X126580952Y-87204761D01*
X125771428Y-86585714D02*
X125533333Y-87252380D01*
X125295238Y-86585714D02*
X125533333Y-87252380D01*
X125628571Y-87490476D01*
X125676190Y-87538095D01*
X125771428Y-87585714D01*
X124295238Y-86252380D02*
X123723809Y-86252380D01*
X124009523Y-87252380D02*
X124009523Y-86252380D01*
X123390476Y-87252380D02*
X123390476Y-86252380D01*
X122819047Y-87252380D01*
X122819047Y-86252380D01*
X122342857Y-87252380D02*
X122342857Y-86252380D01*
X121771428Y-87252380D02*
X122200000Y-86680952D01*
X121771428Y-86252380D02*
X122342857Y-86823809D01*
X121342857Y-87157142D02*
X121295238Y-87204761D01*
X121342857Y-87252380D01*
X121390476Y-87204761D01*
X121342857Y-87157142D01*
X121342857Y-87252380D01*
D13*
X182278922Y-45296000D02*
X182796078Y-45296000D01*
X182278922Y-46716000D02*
X182796078Y-46716000D01*
D14*
X187711000Y-47490000D02*
X186211000Y-47490000D01*
X185861000Y-57560000D02*
X185861000Y-47660000D01*
X182661000Y-57560000D02*
X185861000Y-57560000D01*
X182661000Y-47660000D02*
X182661000Y-57560000D01*
X185861000Y-47660000D02*
X182661000Y-47660000D01*
D13*
X182278922Y-58758000D02*
X182796078Y-58758000D01*
X182278922Y-60178000D02*
X182796078Y-60178000D01*
X171841422Y-65890000D02*
X172358578Y-65890000D01*
X171841422Y-67310000D02*
X172358578Y-67310000D01*
X192861221Y-75218000D02*
X193186779Y-75218000D01*
X192861221Y-74198000D02*
X193186779Y-74198000D01*
D14*
X187711000Y-61079000D02*
X186211000Y-61079000D01*
X185861000Y-71149000D02*
X185861000Y-61249000D01*
X182661000Y-71149000D02*
X185861000Y-71149000D01*
X182661000Y-61249000D02*
X182661000Y-71149000D01*
X185861000Y-61249000D02*
X182661000Y-61249000D01*
D13*
X197928922Y-75418000D02*
X198446078Y-75418000D01*
X197928922Y-73998000D02*
X198446078Y-73998000D01*
X191552000Y-49303422D02*
X191552000Y-49820578D01*
X192972000Y-49303422D02*
X192972000Y-49820578D01*
X171941422Y-51290000D02*
X172458578Y-51290000D01*
X171941422Y-52710000D02*
X172458578Y-52710000D01*
X197845422Y-53424000D02*
X198362578Y-53424000D01*
X197845422Y-54844000D02*
X198362578Y-54844000D01*
D14*
X156102000Y-78050000D02*
X156102000Y-65897000D01*
X156102000Y-65897000D02*
X126138000Y-65900000D01*
X126138000Y-65900000D02*
X126152000Y-81650000D01*
X126142000Y-81650000D02*
X141102000Y-81632000D01*
D13*
X198112000Y-58144000D02*
X198412000Y-58144000D01*
X198412000Y-58144000D02*
X198412000Y-58444000D01*
X191492000Y-58144000D02*
X191192000Y-58144000D01*
X191192000Y-58144000D02*
X191192000Y-58444000D01*
X198112000Y-65364000D02*
X198412000Y-65364000D01*
X198412000Y-65364000D02*
X198412000Y-65064000D01*
X191492000Y-65364000D02*
X191192000Y-65364000D01*
X191192000Y-65364000D02*
X191192000Y-65064000D01*
X191192000Y-65064000D02*
X189877000Y-65064000D01*
D11*
X197866000Y-81530000D02*
X199866000Y-81530000D01*
X197866000Y-77030000D02*
X199866000Y-77030000D01*
X196616000Y-79780000D02*
X196616000Y-78780000D01*
X201116000Y-79780000D02*
X201116000Y-78780000D01*
D13*
X197200000Y-52260000D02*
X195250000Y-52260000D01*
X197200000Y-52260000D02*
X199150000Y-52260000D01*
X197200000Y-47140000D02*
X195250000Y-47140000D01*
X197200000Y-47140000D02*
X200650000Y-47140000D01*
X201390000Y-49178922D02*
X201390000Y-49696078D01*
X202810000Y-49178922D02*
X202810000Y-49696078D01*
D14*
X156102000Y-59050000D02*
X156102000Y-46897000D01*
X156102000Y-46897000D02*
X126138000Y-46900000D01*
X126138000Y-46900000D02*
X126152000Y-62650000D01*
X126142000Y-62650000D02*
X141102000Y-62632000D01*
D13*
X176875279Y-63390000D02*
X176549721Y-63390000D01*
X176875279Y-64410000D02*
X176549721Y-64410000D01*
X178210000Y-53525279D02*
X178210000Y-53199721D01*
X177190000Y-53525279D02*
X177190000Y-53199721D01*
X182340000Y-81460000D02*
X182340000Y-75490000D01*
X182340000Y-75490000D02*
X189960000Y-75490000D01*
X189960000Y-75490000D02*
X189960000Y-81460000D01*
X189960000Y-81460000D02*
X182340000Y-81460000D01*
X185650000Y-81450000D02*
X185650000Y-80700000D01*
X185650000Y-80700000D02*
X186650000Y-80700000D01*
X186650000Y-80700000D02*
X186650000Y-81450000D01*
X186650000Y-81450000D02*
X185650000Y-81450000D01*
X182350000Y-81450000D02*
X182350000Y-80700000D01*
X182350000Y-80700000D02*
X184150000Y-80700000D01*
X184150000Y-80700000D02*
X184150000Y-81450000D01*
X184150000Y-81450000D02*
X182350000Y-81450000D01*
X188150000Y-81450000D02*
X188150000Y-80700000D01*
X188150000Y-80700000D02*
X189950000Y-80700000D01*
X189950000Y-80700000D02*
X189950000Y-81450000D01*
X189950000Y-81450000D02*
X188150000Y-81450000D01*
X182350000Y-79200000D02*
X183100000Y-79200000D01*
X183100000Y-79200000D02*
X183100000Y-76250000D01*
X183100000Y-76250000D02*
X186150000Y-76250000D01*
X189950000Y-79200000D02*
X189200000Y-79200000D01*
X189200000Y-79200000D02*
X189200000Y-76250000D01*
X189200000Y-76250000D02*
X186150000Y-76250000D01*
X183300000Y-81750000D02*
X182050000Y-81750000D01*
X182050000Y-81750000D02*
X182050000Y-80500000D01*
X174965000Y-59550000D02*
X174965000Y-57265000D01*
X174965000Y-57265000D02*
X176435000Y-57265000D01*
X176435000Y-57265000D02*
X176435000Y-59550000D01*
X178435000Y-47527500D02*
X178435000Y-49812500D01*
X176965000Y-47527500D02*
X178435000Y-47527500D01*
X176965000Y-49812500D02*
X176965000Y-47527500D01*
X176210000Y-53562779D02*
X176210000Y-53237221D01*
X175190000Y-53562779D02*
X175190000Y-53237221D01*
X176965000Y-59550000D02*
X176965000Y-57265000D01*
X176965000Y-57265000D02*
X178435000Y-57265000D01*
X178435000Y-57265000D02*
X178435000Y-59550000D01*
X178675279Y-61490000D02*
X178349721Y-61490000D01*
X178675279Y-62510000D02*
X178349721Y-62510000D01*
X174965000Y-49812500D02*
X174965000Y-47527500D01*
X174965000Y-47527500D02*
X176435000Y-47527500D01*
X176435000Y-47527500D02*
X176435000Y-49812500D01*
X142950000Y-88250000D02*
X142950000Y-89500000D01*
X141700000Y-88250000D02*
X142950000Y-88250000D01*
X135800000Y-93750000D02*
X138850000Y-93750000D01*
X135800000Y-90800000D02*
X135800000Y-93750000D01*
X135050000Y-90800000D02*
X135800000Y-90800000D01*
X141900000Y-93750000D02*
X138850000Y-93750000D01*
X141900000Y-90800000D02*
X141900000Y-93750000D01*
X142650000Y-90800000D02*
X141900000Y-90800000D01*
X135050000Y-88550000D02*
X136850000Y-88550000D01*
X135050000Y-89300000D02*
X135050000Y-88550000D01*
X136850000Y-89300000D02*
X135050000Y-89300000D01*
X136850000Y-88550000D02*
X136850000Y-89300000D01*
X140850000Y-88550000D02*
X142650000Y-88550000D01*
X140850000Y-89300000D02*
X140850000Y-88550000D01*
X142650000Y-89300000D02*
X140850000Y-89300000D01*
X142650000Y-88550000D02*
X142650000Y-89300000D01*
X138350000Y-88550000D02*
X139350000Y-88550000D01*
X138350000Y-89300000D02*
X138350000Y-88550000D01*
X139350000Y-89300000D02*
X138350000Y-89300000D01*
X139350000Y-88550000D02*
X139350000Y-89300000D01*
X135040000Y-88540000D02*
X142660000Y-88540000D01*
X135040000Y-94510000D02*
X135040000Y-88540000D01*
X142660000Y-94510000D02*
X135040000Y-94510000D01*
X142660000Y-88540000D02*
X142660000Y-94510000D01*
D14*
X198858000Y-88350000D02*
X183898000Y-88368000D01*
X198862000Y-104100000D02*
X198848000Y-88350000D01*
X168898000Y-104103000D02*
X198862000Y-104100000D01*
X168898000Y-91950000D02*
X168898000Y-104103000D01*
D13*
X146324721Y-107490000D02*
X146650279Y-107490000D01*
X146324721Y-108510000D02*
X146650279Y-108510000D01*
X148124721Y-105590000D02*
X148450279Y-105590000D01*
X148124721Y-106610000D02*
X148450279Y-106610000D01*
X146565000Y-112735000D02*
X146565000Y-110450000D01*
X148035000Y-112735000D02*
X146565000Y-112735000D01*
X148035000Y-110450000D02*
X148035000Y-112735000D01*
X148565000Y-112735000D02*
X148565000Y-110450000D01*
X150035000Y-112735000D02*
X148565000Y-112735000D01*
X150035000Y-110450000D02*
X150035000Y-112735000D01*
X149810000Y-116437221D02*
X149810000Y-116762779D01*
X148790000Y-116437221D02*
X148790000Y-116762779D01*
X147810000Y-116474721D02*
X147810000Y-116800279D01*
X146790000Y-116474721D02*
X146790000Y-116800279D01*
X148565000Y-122472500D02*
X148565000Y-120187500D01*
X150035000Y-122472500D02*
X148565000Y-122472500D01*
X150035000Y-120187500D02*
X150035000Y-122472500D01*
X148035000Y-120187500D02*
X148035000Y-122472500D01*
X148035000Y-122472500D02*
X146565000Y-122472500D01*
X146565000Y-122472500D02*
X146565000Y-120187500D01*
D14*
X198858000Y-107350000D02*
X183898000Y-107368000D01*
X198862000Y-123100000D02*
X198848000Y-107350000D01*
X168898000Y-123103000D02*
X198862000Y-123100000D01*
X168898000Y-110950000D02*
X168898000Y-123103000D01*
D13*
X122190000Y-120821078D02*
X122190000Y-120303922D01*
X123610000Y-120821078D02*
X123610000Y-120303922D01*
X127800000Y-122860000D02*
X124350000Y-122860000D01*
X127800000Y-122860000D02*
X129750000Y-122860000D01*
X127800000Y-117740000D02*
X125850000Y-117740000D01*
X127800000Y-117740000D02*
X129750000Y-117740000D01*
D11*
X123884000Y-90220000D02*
X123884000Y-91220000D01*
X128384000Y-90220000D02*
X128384000Y-91220000D01*
X127134000Y-92970000D02*
X125134000Y-92970000D01*
X127134000Y-88470000D02*
X125134000Y-88470000D01*
D13*
X133808000Y-104936000D02*
X135123000Y-104936000D01*
X133808000Y-104636000D02*
X133808000Y-104936000D01*
X133508000Y-104636000D02*
X133808000Y-104636000D01*
X126588000Y-104636000D02*
X126588000Y-104936000D01*
X126888000Y-104636000D02*
X126588000Y-104636000D01*
X133808000Y-111856000D02*
X133808000Y-111556000D01*
X133508000Y-111856000D02*
X133808000Y-111856000D01*
X126588000Y-111856000D02*
X126588000Y-111556000D01*
X126888000Y-111856000D02*
X126588000Y-111856000D01*
D14*
X139139000Y-108751000D02*
X142339000Y-108751000D01*
X142339000Y-108751000D02*
X142339000Y-98851000D01*
X142339000Y-98851000D02*
X139139000Y-98851000D01*
X139139000Y-98851000D02*
X139139000Y-108751000D01*
X137289000Y-108921000D02*
X138789000Y-108921000D01*
D13*
X132138779Y-95802000D02*
X131813221Y-95802000D01*
X132138779Y-94782000D02*
X131813221Y-94782000D01*
D14*
X139139000Y-122340000D02*
X142339000Y-122340000D01*
X142339000Y-122340000D02*
X142339000Y-112440000D01*
X142339000Y-112440000D02*
X139139000Y-112440000D01*
X139139000Y-112440000D02*
X139139000Y-122340000D01*
X137289000Y-122510000D02*
X138789000Y-122510000D01*
D13*
X142721078Y-109822000D02*
X142203922Y-109822000D01*
X142721078Y-111242000D02*
X142203922Y-111242000D01*
X142721078Y-123284000D02*
X142203922Y-123284000D01*
X142721078Y-124704000D02*
X142203922Y-124704000D01*
X153158578Y-102690000D02*
X152641422Y-102690000D01*
X153158578Y-104110000D02*
X152641422Y-104110000D01*
X153058578Y-117290000D02*
X152541422Y-117290000D01*
X153058578Y-118710000D02*
X152541422Y-118710000D01*
X132028000Y-120696578D02*
X132028000Y-120179422D01*
X133448000Y-120696578D02*
X133448000Y-120179422D01*
X127154578Y-115156000D02*
X126637422Y-115156000D01*
X127154578Y-116576000D02*
X126637422Y-116576000D01*
X127071078Y-96002000D02*
X126553922Y-96002000D01*
X127071078Y-94582000D02*
X126553922Y-94582000D01*
D10*
X183180357Y-44757142D02*
X183227976Y-44804761D01*
X183370833Y-44852380D01*
X183466071Y-44852380D01*
X183608928Y-44804761D01*
X183704166Y-44709523D01*
X183751785Y-44614285D01*
X183799404Y-44423809D01*
X183799404Y-44280952D01*
X183751785Y-44090476D01*
X183704166Y-43995238D01*
X183608928Y-43900000D01*
X183466071Y-43852380D01*
X183370833Y-43852380D01*
X183227976Y-43900000D01*
X183180357Y-43947619D01*
X182227976Y-44852380D02*
X182799404Y-44852380D01*
X182513690Y-44852380D02*
X182513690Y-43852380D01*
X182608928Y-43995238D01*
X182704166Y-44090476D01*
X182799404Y-44138095D01*
X181847023Y-43947619D02*
X181799404Y-43900000D01*
X181704166Y-43852380D01*
X181466071Y-43852380D01*
X181370833Y-43900000D01*
X181323214Y-43947619D01*
X181275595Y-44042857D01*
X181275595Y-44138095D01*
X181323214Y-44280952D01*
X181894642Y-44852380D01*
X181275595Y-44852380D01*
D15*
X185500761Y-53184523D02*
X185500761Y-51914523D01*
X184170285Y-53063571D02*
X184230761Y-53124047D01*
X184412190Y-53184523D01*
X184533142Y-53184523D01*
X184714571Y-53124047D01*
X184835523Y-53003095D01*
X184896000Y-52882142D01*
X184956476Y-52640238D01*
X184956476Y-52458809D01*
X184896000Y-52216904D01*
X184835523Y-52095952D01*
X184714571Y-51975000D01*
X184533142Y-51914523D01*
X184412190Y-51914523D01*
X184230761Y-51975000D01*
X184170285Y-52035476D01*
X182960761Y-53184523D02*
X183686476Y-53184523D01*
X183323619Y-53184523D02*
X183323619Y-51914523D01*
X183444571Y-52095952D01*
X183565523Y-52216904D01*
X183686476Y-52277380D01*
D10*
X183180357Y-61475142D02*
X183227976Y-61522761D01*
X183370833Y-61570380D01*
X183466071Y-61570380D01*
X183608928Y-61522761D01*
X183704166Y-61427523D01*
X183751785Y-61332285D01*
X183799404Y-61141809D01*
X183799404Y-60998952D01*
X183751785Y-60808476D01*
X183704166Y-60713238D01*
X183608928Y-60618000D01*
X183466071Y-60570380D01*
X183370833Y-60570380D01*
X183227976Y-60618000D01*
X183180357Y-60665619D01*
X182227976Y-61570380D02*
X182799404Y-61570380D01*
X182513690Y-61570380D02*
X182513690Y-60570380D01*
X182608928Y-60713238D01*
X182704166Y-60808476D01*
X182799404Y-60856095D01*
X181656547Y-60998952D02*
X181751785Y-60951333D01*
X181799404Y-60903714D01*
X181847023Y-60808476D01*
X181847023Y-60760857D01*
X181799404Y-60665619D01*
X181751785Y-60618000D01*
X181656547Y-60570380D01*
X181466071Y-60570380D01*
X181370833Y-60618000D01*
X181323214Y-60665619D01*
X181275595Y-60760857D01*
X181275595Y-60808476D01*
X181323214Y-60903714D01*
X181370833Y-60951333D01*
X181466071Y-60998952D01*
X181656547Y-60998952D01*
X181751785Y-61046571D01*
X181799404Y-61094190D01*
X181847023Y-61189428D01*
X181847023Y-61379904D01*
X181799404Y-61475142D01*
X181751785Y-61522761D01*
X181656547Y-61570380D01*
X181466071Y-61570380D01*
X181370833Y-61522761D01*
X181323214Y-61475142D01*
X181275595Y-61379904D01*
X181275595Y-61189428D01*
X181323214Y-61094190D01*
X181370833Y-61046571D01*
X181466071Y-60998952D01*
X172742857Y-68607142D02*
X172790476Y-68654761D01*
X172933333Y-68702380D01*
X173028571Y-68702380D01*
X173171428Y-68654761D01*
X173266666Y-68559523D01*
X173314285Y-68464285D01*
X173361904Y-68273809D01*
X173361904Y-68130952D01*
X173314285Y-67940476D01*
X173266666Y-67845238D01*
X173171428Y-67750000D01*
X173028571Y-67702380D01*
X172933333Y-67702380D01*
X172790476Y-67750000D01*
X172742857Y-67797619D01*
X171790476Y-68702380D02*
X172361904Y-68702380D01*
X172076190Y-68702380D02*
X172076190Y-67702380D01*
X172171428Y-67845238D01*
X172266666Y-67940476D01*
X172361904Y-67988095D01*
X171457142Y-67702380D02*
X170838095Y-67702380D01*
X171171428Y-68083333D01*
X171028571Y-68083333D01*
X170933333Y-68130952D01*
X170885714Y-68178571D01*
X170838095Y-68273809D01*
X170838095Y-68511904D01*
X170885714Y-68607142D01*
X170933333Y-68654761D01*
X171028571Y-68702380D01*
X171314285Y-68702380D01*
X171409523Y-68654761D01*
X171457142Y-68607142D01*
X193666857Y-73752380D02*
X194000190Y-73276190D01*
X194238285Y-73752380D02*
X194238285Y-72752380D01*
X193857333Y-72752380D01*
X193762095Y-72800000D01*
X193714476Y-72847619D01*
X193666857Y-72942857D01*
X193666857Y-73085714D01*
X193714476Y-73180952D01*
X193762095Y-73228571D01*
X193857333Y-73276190D01*
X194238285Y-73276190D01*
X192714476Y-73752380D02*
X193285904Y-73752380D01*
X193000190Y-73752380D02*
X193000190Y-72752380D01*
X193095428Y-72895238D01*
X193190666Y-72990476D01*
X193285904Y-73038095D01*
X191762095Y-73752380D02*
X192333523Y-73752380D01*
X192047809Y-73752380D02*
X192047809Y-72752380D01*
X192143047Y-72895238D01*
X192238285Y-72990476D01*
X192333523Y-73038095D01*
D15*
X185500761Y-66773523D02*
X185500761Y-65503523D01*
X184170285Y-66652571D02*
X184230761Y-66713047D01*
X184412190Y-66773523D01*
X184533142Y-66773523D01*
X184714571Y-66713047D01*
X184835523Y-66592095D01*
X184896000Y-66471142D01*
X184956476Y-66229238D01*
X184956476Y-66047809D01*
X184896000Y-65805904D01*
X184835523Y-65684952D01*
X184714571Y-65564000D01*
X184533142Y-65503523D01*
X184412190Y-65503523D01*
X184230761Y-65564000D01*
X184170285Y-65624476D01*
X183746952Y-65503523D02*
X182960761Y-65503523D01*
X183384095Y-65987333D01*
X183202666Y-65987333D01*
X183081714Y-66047809D01*
X183021238Y-66108285D01*
X182960761Y-66229238D01*
X182960761Y-66531619D01*
X183021238Y-66652571D01*
X183081714Y-66713047D01*
X183202666Y-66773523D01*
X183565523Y-66773523D01*
X183686476Y-66713047D01*
X183746952Y-66652571D01*
D10*
X198354166Y-73357142D02*
X198401785Y-73404761D01*
X198544642Y-73452380D01*
X198639880Y-73452380D01*
X198782738Y-73404761D01*
X198877976Y-73309523D01*
X198925595Y-73214285D01*
X198973214Y-73023809D01*
X198973214Y-72880952D01*
X198925595Y-72690476D01*
X198877976Y-72595238D01*
X198782738Y-72500000D01*
X198639880Y-72452380D01*
X198544642Y-72452380D01*
X198401785Y-72500000D01*
X198354166Y-72547619D01*
X198020833Y-72452380D02*
X197401785Y-72452380D01*
X197735119Y-72833333D01*
X197592261Y-72833333D01*
X197497023Y-72880952D01*
X197449404Y-72928571D01*
X197401785Y-73023809D01*
X197401785Y-73261904D01*
X197449404Y-73357142D01*
X197497023Y-73404761D01*
X197592261Y-73452380D01*
X197877976Y-73452380D01*
X197973214Y-73404761D01*
X198020833Y-73357142D01*
X190969142Y-49395333D02*
X191016761Y-49347714D01*
X191064380Y-49204857D01*
X191064380Y-49109619D01*
X191016761Y-48966761D01*
X190921523Y-48871523D01*
X190826285Y-48823904D01*
X190635809Y-48776285D01*
X190492952Y-48776285D01*
X190302476Y-48823904D01*
X190207238Y-48871523D01*
X190112000Y-48966761D01*
X190064380Y-49109619D01*
X190064380Y-49204857D01*
X190112000Y-49347714D01*
X190159619Y-49395333D01*
X190064380Y-50300095D02*
X190064380Y-49823904D01*
X190540571Y-49776285D01*
X190492952Y-49823904D01*
X190445333Y-49919142D01*
X190445333Y-50157238D01*
X190492952Y-50252476D01*
X190540571Y-50300095D01*
X190635809Y-50347714D01*
X190873904Y-50347714D01*
X190969142Y-50300095D01*
X191016761Y-50252476D01*
X191064380Y-50157238D01*
X191064380Y-49919142D01*
X191016761Y-49823904D01*
X190969142Y-49776285D01*
X172366666Y-54007142D02*
X172414285Y-54054761D01*
X172557142Y-54102380D01*
X172652380Y-54102380D01*
X172795238Y-54054761D01*
X172890476Y-53959523D01*
X172938095Y-53864285D01*
X172985714Y-53673809D01*
X172985714Y-53530952D01*
X172938095Y-53340476D01*
X172890476Y-53245238D01*
X172795238Y-53150000D01*
X172652380Y-53102380D01*
X172557142Y-53102380D01*
X172414285Y-53150000D01*
X172366666Y-53197619D01*
X172033333Y-53102380D02*
X171366666Y-53102380D01*
X171795238Y-54102380D01*
X198270666Y-56141142D02*
X198318285Y-56188761D01*
X198461142Y-56236380D01*
X198556380Y-56236380D01*
X198699238Y-56188761D01*
X198794476Y-56093523D01*
X198842095Y-55998285D01*
X198889714Y-55807809D01*
X198889714Y-55664952D01*
X198842095Y-55474476D01*
X198794476Y-55379238D01*
X198699238Y-55284000D01*
X198556380Y-55236380D01*
X198461142Y-55236380D01*
X198318285Y-55284000D01*
X198270666Y-55331619D01*
X197413523Y-55569714D02*
X197413523Y-56236380D01*
X197651619Y-55188761D02*
X197889714Y-55903047D01*
X197270666Y-55903047D01*
D15*
X143404523Y-73376666D02*
X144311666Y-73376666D01*
X144493095Y-73316190D01*
X144614047Y-73195238D01*
X144674523Y-73013809D01*
X144674523Y-72892857D01*
X143827857Y-74525714D02*
X144674523Y-74525714D01*
X143344047Y-74223333D02*
X144251190Y-73920952D01*
X144251190Y-74707142D01*
D10*
X195563904Y-67086380D02*
X195563904Y-67895904D01*
X195516285Y-67991142D01*
X195468666Y-68038761D01*
X195373428Y-68086380D01*
X195182952Y-68086380D01*
X195087714Y-68038761D01*
X195040095Y-67991142D01*
X194992476Y-67895904D01*
X194992476Y-67086380D01*
X194563904Y-67181619D02*
X194516285Y-67134000D01*
X194421047Y-67086380D01*
X194182952Y-67086380D01*
X194087714Y-67134000D01*
X194040095Y-67181619D01*
X193992476Y-67276857D01*
X193992476Y-67372095D01*
X194040095Y-67514952D01*
X194611523Y-68086380D01*
X193992476Y-68086380D01*
D15*
X200559333Y-79794047D02*
X200377904Y-79854523D01*
X200075523Y-79854523D01*
X199954571Y-79794047D01*
X199894095Y-79733571D01*
X199833619Y-79612619D01*
X199833619Y-79491666D01*
X199894095Y-79370714D01*
X199954571Y-79310238D01*
X200075523Y-79249761D01*
X200317428Y-79189285D01*
X200438380Y-79128809D01*
X200498857Y-79068333D01*
X200559333Y-78947380D01*
X200559333Y-78826428D01*
X200498857Y-78705476D01*
X200438380Y-78645000D01*
X200317428Y-78584523D01*
X200015047Y-78584523D01*
X199833619Y-78645000D01*
X199410285Y-78584523D02*
X199107904Y-79854523D01*
X198866000Y-78947380D01*
X198624095Y-79854523D01*
X198321714Y-78584523D01*
X197172666Y-79854523D02*
X197898380Y-79854523D01*
X197535523Y-79854523D02*
X197535523Y-78584523D01*
X197656476Y-78765952D01*
X197777428Y-78886904D01*
X197898380Y-78947380D01*
D10*
X197961904Y-45752380D02*
X197961904Y-46561904D01*
X197914285Y-46657142D01*
X197866666Y-46704761D01*
X197771428Y-46752380D01*
X197580952Y-46752380D01*
X197485714Y-46704761D01*
X197438095Y-46657142D01*
X197390476Y-46561904D01*
X197390476Y-45752380D01*
X197009523Y-45752380D02*
X196390476Y-45752380D01*
X196723809Y-46133333D01*
X196580952Y-46133333D01*
X196485714Y-46180952D01*
X196438095Y-46228571D01*
X196390476Y-46323809D01*
X196390476Y-46561904D01*
X196438095Y-46657142D01*
X196485714Y-46704761D01*
X196580952Y-46752380D01*
X196866666Y-46752380D01*
X196961904Y-46704761D01*
X197009523Y-46657142D01*
X204057142Y-49270833D02*
X204104761Y-49223214D01*
X204152380Y-49080357D01*
X204152380Y-48985119D01*
X204104761Y-48842261D01*
X204009523Y-48747023D01*
X203914285Y-48699404D01*
X203723809Y-48651785D01*
X203580952Y-48651785D01*
X203390476Y-48699404D01*
X203295238Y-48747023D01*
X203200000Y-48842261D01*
X203152380Y-48985119D01*
X203152380Y-49080357D01*
X203200000Y-49223214D01*
X203247619Y-49270833D01*
X203152380Y-50127976D02*
X203152380Y-49937500D01*
X203200000Y-49842261D01*
X203247619Y-49794642D01*
X203390476Y-49699404D01*
X203580952Y-49651785D01*
X203961904Y-49651785D01*
X204057142Y-49699404D01*
X204104761Y-49747023D01*
X204152380Y-49842261D01*
X204152380Y-50032738D01*
X204104761Y-50127976D01*
X204057142Y-50175595D01*
X203961904Y-50223214D01*
X203723809Y-50223214D01*
X203628571Y-50175595D01*
X203580952Y-50127976D01*
X203533333Y-50032738D01*
X203533333Y-49842261D01*
X203580952Y-49747023D01*
X203628571Y-49699404D01*
X203723809Y-49651785D01*
D15*
X142704523Y-54376666D02*
X143611666Y-54376666D01*
X143793095Y-54316190D01*
X143914047Y-54195238D01*
X143974523Y-54013809D01*
X143974523Y-53892857D01*
X143974523Y-55646666D02*
X143974523Y-54920952D01*
X143974523Y-55283809D02*
X142704523Y-55283809D01*
X142885952Y-55162857D01*
X143006904Y-55041904D01*
X143067380Y-54920952D01*
D10*
X177355357Y-65752380D02*
X177688690Y-65276190D01*
X177926785Y-65752380D02*
X177926785Y-64752380D01*
X177545833Y-64752380D01*
X177450595Y-64800000D01*
X177402976Y-64847619D01*
X177355357Y-64942857D01*
X177355357Y-65085714D01*
X177402976Y-65180952D01*
X177450595Y-65228571D01*
X177545833Y-65276190D01*
X177926785Y-65276190D01*
X177022023Y-64752380D02*
X176402976Y-64752380D01*
X176736309Y-65133333D01*
X176593452Y-65133333D01*
X176498214Y-65180952D01*
X176450595Y-65228571D01*
X176402976Y-65323809D01*
X176402976Y-65561904D01*
X176450595Y-65657142D01*
X176498214Y-65704761D01*
X176593452Y-65752380D01*
X176879166Y-65752380D01*
X176974404Y-65704761D01*
X177022023Y-65657142D01*
X175783928Y-64752380D02*
X175688690Y-64752380D01*
X175593452Y-64800000D01*
X175545833Y-64847619D01*
X175498214Y-64942857D01*
X175450595Y-65133333D01*
X175450595Y-65371428D01*
X175498214Y-65561904D01*
X175545833Y-65657142D01*
X175593452Y-65704761D01*
X175688690Y-65752380D01*
X175783928Y-65752380D01*
X175879166Y-65704761D01*
X175926785Y-65657142D01*
X175974404Y-65561904D01*
X176022023Y-65371428D01*
X176022023Y-65133333D01*
X175974404Y-64942857D01*
X175926785Y-64847619D01*
X175879166Y-64800000D01*
X175783928Y-64752380D01*
X179582380Y-52719642D02*
X179106190Y-52386309D01*
X179582380Y-52148214D02*
X178582380Y-52148214D01*
X178582380Y-52529166D01*
X178630000Y-52624404D01*
X178677619Y-52672023D01*
X178772857Y-52719642D01*
X178915714Y-52719642D01*
X179010952Y-52672023D01*
X179058571Y-52624404D01*
X179106190Y-52529166D01*
X179106190Y-52148214D01*
X178582380Y-53052976D02*
X178582380Y-53672023D01*
X178963333Y-53338690D01*
X178963333Y-53481547D01*
X179010952Y-53576785D01*
X179058571Y-53624404D01*
X179153809Y-53672023D01*
X179391904Y-53672023D01*
X179487142Y-53624404D01*
X179534761Y-53576785D01*
X179582380Y-53481547D01*
X179582380Y-53195833D01*
X179534761Y-53100595D01*
X179487142Y-53052976D01*
X178677619Y-54052976D02*
X178630000Y-54100595D01*
X178582380Y-54195833D01*
X178582380Y-54433928D01*
X178630000Y-54529166D01*
X178677619Y-54576785D01*
X178772857Y-54624404D01*
X178868095Y-54624404D01*
X179010952Y-54576785D01*
X179582380Y-54005357D01*
X179582380Y-54624404D01*
X186483333Y-82002380D02*
X186483333Y-82716666D01*
X186530952Y-82859523D01*
X186626190Y-82954761D01*
X186769047Y-83002380D01*
X186864285Y-83002380D01*
X186054761Y-82097619D02*
X186007142Y-82050000D01*
X185911904Y-82002380D01*
X185673809Y-82002380D01*
X185578571Y-82050000D01*
X185530952Y-82097619D01*
X185483333Y-82192857D01*
X185483333Y-82288095D01*
X185530952Y-82430952D01*
X186102380Y-83002380D01*
X185483333Y-83002380D01*
X174722380Y-58011904D02*
X173722380Y-58011904D01*
X173722380Y-58250000D01*
X173770000Y-58392857D01*
X173865238Y-58488095D01*
X173960476Y-58535714D01*
X174150952Y-58583333D01*
X174293809Y-58583333D01*
X174484285Y-58535714D01*
X174579523Y-58488095D01*
X174674761Y-58392857D01*
X174722380Y-58250000D01*
X174722380Y-58011904D01*
X174150952Y-59154761D02*
X174103333Y-59059523D01*
X174055714Y-59011904D01*
X173960476Y-58964285D01*
X173912857Y-58964285D01*
X173817619Y-59011904D01*
X173770000Y-59059523D01*
X173722380Y-59154761D01*
X173722380Y-59345238D01*
X173770000Y-59440476D01*
X173817619Y-59488095D01*
X173912857Y-59535714D01*
X173960476Y-59535714D01*
X174055714Y-59488095D01*
X174103333Y-59440476D01*
X174150952Y-59345238D01*
X174150952Y-59154761D01*
X174198571Y-59059523D01*
X174246190Y-59011904D01*
X174341428Y-58964285D01*
X174531904Y-58964285D01*
X174627142Y-59011904D01*
X174674761Y-59059523D01*
X174722380Y-59154761D01*
X174722380Y-59345238D01*
X174674761Y-59440476D01*
X174627142Y-59488095D01*
X174531904Y-59535714D01*
X174341428Y-59535714D01*
X174246190Y-59488095D01*
X174198571Y-59440476D01*
X174150952Y-59345238D01*
X179452380Y-47785714D02*
X178452380Y-47785714D01*
X178452380Y-48023809D01*
X178500000Y-48166666D01*
X178595238Y-48261904D01*
X178690476Y-48309523D01*
X178880952Y-48357142D01*
X179023809Y-48357142D01*
X179214285Y-48309523D01*
X179309523Y-48261904D01*
X179404761Y-48166666D01*
X179452380Y-48023809D01*
X179452380Y-47785714D01*
X179452380Y-49309523D02*
X179452380Y-48738095D01*
X179452380Y-49023809D02*
X178452380Y-49023809D01*
X178595238Y-48928571D01*
X178690476Y-48833333D01*
X178738095Y-48738095D01*
X178452380Y-49928571D02*
X178452380Y-50023809D01*
X178500000Y-50119047D01*
X178547619Y-50166666D01*
X178642857Y-50214285D01*
X178833333Y-50261904D01*
X179071428Y-50261904D01*
X179261904Y-50214285D01*
X179357142Y-50166666D01*
X179404761Y-50119047D01*
X179452380Y-50023809D01*
X179452380Y-49928571D01*
X179404761Y-49833333D01*
X179357142Y-49785714D01*
X179261904Y-49738095D01*
X179071428Y-49690476D01*
X178833333Y-49690476D01*
X178642857Y-49738095D01*
X178547619Y-49785714D01*
X178500000Y-49833333D01*
X178452380Y-49928571D01*
X174952380Y-52757142D02*
X174476190Y-52423809D01*
X174952380Y-52185714D02*
X173952380Y-52185714D01*
X173952380Y-52566666D01*
X174000000Y-52661904D01*
X174047619Y-52709523D01*
X174142857Y-52757142D01*
X174285714Y-52757142D01*
X174380952Y-52709523D01*
X174428571Y-52661904D01*
X174476190Y-52566666D01*
X174476190Y-52185714D01*
X173952380Y-53090476D02*
X173952380Y-53709523D01*
X174333333Y-53376190D01*
X174333333Y-53519047D01*
X174380952Y-53614285D01*
X174428571Y-53661904D01*
X174523809Y-53709523D01*
X174761904Y-53709523D01*
X174857142Y-53661904D01*
X174904761Y-53614285D01*
X174952380Y-53519047D01*
X174952380Y-53233333D01*
X174904761Y-53138095D01*
X174857142Y-53090476D01*
X173952380Y-54042857D02*
X173952380Y-54661904D01*
X174333333Y-54328571D01*
X174333333Y-54471428D01*
X174380952Y-54566666D01*
X174428571Y-54614285D01*
X174523809Y-54661904D01*
X174761904Y-54661904D01*
X174857142Y-54614285D01*
X174904761Y-54566666D01*
X174952380Y-54471428D01*
X174952380Y-54185714D01*
X174904761Y-54090476D01*
X174857142Y-54042857D01*
X179552380Y-58011904D02*
X178552380Y-58011904D01*
X178552380Y-58250000D01*
X178600000Y-58392857D01*
X178695238Y-58488095D01*
X178790476Y-58535714D01*
X178980952Y-58583333D01*
X179123809Y-58583333D01*
X179314285Y-58535714D01*
X179409523Y-58488095D01*
X179504761Y-58392857D01*
X179552380Y-58250000D01*
X179552380Y-58011904D01*
X179552380Y-59059523D02*
X179552380Y-59250000D01*
X179504761Y-59345238D01*
X179457142Y-59392857D01*
X179314285Y-59488095D01*
X179123809Y-59535714D01*
X178742857Y-59535714D01*
X178647619Y-59488095D01*
X178600000Y-59440476D01*
X178552380Y-59345238D01*
X178552380Y-59154761D01*
X178600000Y-59059523D01*
X178647619Y-59011904D01*
X178742857Y-58964285D01*
X178980952Y-58964285D01*
X179076190Y-59011904D01*
X179123809Y-59059523D01*
X179171428Y-59154761D01*
X179171428Y-59345238D01*
X179123809Y-59440476D01*
X179076190Y-59488095D01*
X178980952Y-59535714D01*
X176242857Y-62452380D02*
X176576190Y-61976190D01*
X176814285Y-62452380D02*
X176814285Y-61452380D01*
X176433333Y-61452380D01*
X176338095Y-61500000D01*
X176290476Y-61547619D01*
X176242857Y-61642857D01*
X176242857Y-61785714D01*
X176290476Y-61880952D01*
X176338095Y-61928571D01*
X176433333Y-61976190D01*
X176814285Y-61976190D01*
X175909523Y-61452380D02*
X175290476Y-61452380D01*
X175623809Y-61833333D01*
X175480952Y-61833333D01*
X175385714Y-61880952D01*
X175338095Y-61928571D01*
X175290476Y-62023809D01*
X175290476Y-62261904D01*
X175338095Y-62357142D01*
X175385714Y-62404761D01*
X175480952Y-62452380D01*
X175766666Y-62452380D01*
X175861904Y-62404761D01*
X175909523Y-62357142D01*
X174338095Y-62452380D02*
X174909523Y-62452380D01*
X174623809Y-62452380D02*
X174623809Y-61452380D01*
X174719047Y-61595238D01*
X174814285Y-61690476D01*
X174909523Y-61738095D01*
X174722380Y-47798214D02*
X173722380Y-47798214D01*
X173722380Y-48036309D01*
X173770000Y-48179166D01*
X173865238Y-48274404D01*
X173960476Y-48322023D01*
X174150952Y-48369642D01*
X174293809Y-48369642D01*
X174484285Y-48322023D01*
X174579523Y-48274404D01*
X174674761Y-48179166D01*
X174722380Y-48036309D01*
X174722380Y-47798214D01*
X174722380Y-49322023D02*
X174722380Y-48750595D01*
X174722380Y-49036309D02*
X173722380Y-49036309D01*
X173865238Y-48941071D01*
X173960476Y-48845833D01*
X174008095Y-48750595D01*
X174722380Y-50274404D02*
X174722380Y-49702976D01*
X174722380Y-49988690D02*
X173722380Y-49988690D01*
X173865238Y-49893452D01*
X173960476Y-49798214D01*
X174008095Y-49702976D01*
X139183333Y-86902380D02*
X139183333Y-87616666D01*
X139230952Y-87759523D01*
X139326190Y-87854761D01*
X139469047Y-87902380D01*
X139564285Y-87902380D01*
X138754761Y-86997619D02*
X138707142Y-86950000D01*
X138611904Y-86902380D01*
X138373809Y-86902380D01*
X138278571Y-86950000D01*
X138230952Y-86997619D01*
X138183333Y-87092857D01*
X138183333Y-87188095D01*
X138230952Y-87330952D01*
X138802380Y-87902380D01*
X138183333Y-87902380D01*
D15*
X180204523Y-95776666D02*
X181111666Y-95776666D01*
X181293095Y-95716190D01*
X181414047Y-95595238D01*
X181474523Y-95413809D01*
X181474523Y-95292857D01*
X180627857Y-96925714D02*
X181474523Y-96925714D01*
X180144047Y-96623333D02*
X181051190Y-96320952D01*
X181051190Y-97107142D01*
D10*
X150042857Y-108452380D02*
X150376190Y-107976190D01*
X150614285Y-108452380D02*
X150614285Y-107452380D01*
X150233333Y-107452380D01*
X150138095Y-107500000D01*
X150090476Y-107547619D01*
X150042857Y-107642857D01*
X150042857Y-107785714D01*
X150090476Y-107880952D01*
X150138095Y-107928571D01*
X150233333Y-107976190D01*
X150614285Y-107976190D01*
X149709523Y-107452380D02*
X149090476Y-107452380D01*
X149423809Y-107833333D01*
X149280952Y-107833333D01*
X149185714Y-107880952D01*
X149138095Y-107928571D01*
X149090476Y-108023809D01*
X149090476Y-108261904D01*
X149138095Y-108357142D01*
X149185714Y-108404761D01*
X149280952Y-108452380D01*
X149566666Y-108452380D01*
X149661904Y-108404761D01*
X149709523Y-108357142D01*
X148138095Y-108452380D02*
X148709523Y-108452380D01*
X148423809Y-108452380D02*
X148423809Y-107452380D01*
X148519047Y-107595238D01*
X148614285Y-107690476D01*
X148709523Y-107738095D01*
X148930357Y-105152380D02*
X149263690Y-104676190D01*
X149501785Y-105152380D02*
X149501785Y-104152380D01*
X149120833Y-104152380D01*
X149025595Y-104200000D01*
X148977976Y-104247619D01*
X148930357Y-104342857D01*
X148930357Y-104485714D01*
X148977976Y-104580952D01*
X149025595Y-104628571D01*
X149120833Y-104676190D01*
X149501785Y-104676190D01*
X148597023Y-104152380D02*
X147977976Y-104152380D01*
X148311309Y-104533333D01*
X148168452Y-104533333D01*
X148073214Y-104580952D01*
X148025595Y-104628571D01*
X147977976Y-104723809D01*
X147977976Y-104961904D01*
X148025595Y-105057142D01*
X148073214Y-105104761D01*
X148168452Y-105152380D01*
X148454166Y-105152380D01*
X148549404Y-105104761D01*
X148597023Y-105057142D01*
X147358928Y-104152380D02*
X147263690Y-104152380D01*
X147168452Y-104200000D01*
X147120833Y-104247619D01*
X147073214Y-104342857D01*
X147025595Y-104533333D01*
X147025595Y-104771428D01*
X147073214Y-104961904D01*
X147120833Y-105057142D01*
X147168452Y-105104761D01*
X147263690Y-105152380D01*
X147358928Y-105152380D01*
X147454166Y-105104761D01*
X147501785Y-105057142D01*
X147549404Y-104961904D01*
X147597023Y-104771428D01*
X147597023Y-104533333D01*
X147549404Y-104342857D01*
X147501785Y-104247619D01*
X147454166Y-104200000D01*
X147358928Y-104152380D01*
X146352380Y-110511904D02*
X145352380Y-110511904D01*
X145352380Y-110750000D01*
X145400000Y-110892857D01*
X145495238Y-110988095D01*
X145590476Y-111035714D01*
X145780952Y-111083333D01*
X145923809Y-111083333D01*
X146114285Y-111035714D01*
X146209523Y-110988095D01*
X146304761Y-110892857D01*
X146352380Y-110750000D01*
X146352380Y-110511904D01*
X146352380Y-111559523D02*
X146352380Y-111750000D01*
X146304761Y-111845238D01*
X146257142Y-111892857D01*
X146114285Y-111988095D01*
X145923809Y-112035714D01*
X145542857Y-112035714D01*
X145447619Y-111988095D01*
X145400000Y-111940476D01*
X145352380Y-111845238D01*
X145352380Y-111654761D01*
X145400000Y-111559523D01*
X145447619Y-111511904D01*
X145542857Y-111464285D01*
X145780952Y-111464285D01*
X145876190Y-111511904D01*
X145923809Y-111559523D01*
X145971428Y-111654761D01*
X145971428Y-111845238D01*
X145923809Y-111940476D01*
X145876190Y-111988095D01*
X145780952Y-112035714D01*
X151182380Y-110511904D02*
X150182380Y-110511904D01*
X150182380Y-110750000D01*
X150230000Y-110892857D01*
X150325238Y-110988095D01*
X150420476Y-111035714D01*
X150610952Y-111083333D01*
X150753809Y-111083333D01*
X150944285Y-111035714D01*
X151039523Y-110988095D01*
X151134761Y-110892857D01*
X151182380Y-110750000D01*
X151182380Y-110511904D01*
X150610952Y-111654761D02*
X150563333Y-111559523D01*
X150515714Y-111511904D01*
X150420476Y-111464285D01*
X150372857Y-111464285D01*
X150277619Y-111511904D01*
X150230000Y-111559523D01*
X150182380Y-111654761D01*
X150182380Y-111845238D01*
X150230000Y-111940476D01*
X150277619Y-111988095D01*
X150372857Y-112035714D01*
X150420476Y-112035714D01*
X150515714Y-111988095D01*
X150563333Y-111940476D01*
X150610952Y-111845238D01*
X150610952Y-111654761D01*
X150658571Y-111559523D01*
X150706190Y-111511904D01*
X150801428Y-111464285D01*
X150991904Y-111464285D01*
X151087142Y-111511904D01*
X151134761Y-111559523D01*
X151182380Y-111654761D01*
X151182380Y-111845238D01*
X151134761Y-111940476D01*
X151087142Y-111988095D01*
X150991904Y-112035714D01*
X150801428Y-112035714D01*
X150706190Y-111988095D01*
X150658571Y-111940476D01*
X150610952Y-111845238D01*
X150952380Y-115957142D02*
X150476190Y-115623809D01*
X150952380Y-115385714D02*
X149952380Y-115385714D01*
X149952380Y-115766666D01*
X150000000Y-115861904D01*
X150047619Y-115909523D01*
X150142857Y-115957142D01*
X150285714Y-115957142D01*
X150380952Y-115909523D01*
X150428571Y-115861904D01*
X150476190Y-115766666D01*
X150476190Y-115385714D01*
X149952380Y-116290476D02*
X149952380Y-116909523D01*
X150333333Y-116576190D01*
X150333333Y-116719047D01*
X150380952Y-116814285D01*
X150428571Y-116861904D01*
X150523809Y-116909523D01*
X150761904Y-116909523D01*
X150857142Y-116861904D01*
X150904761Y-116814285D01*
X150952380Y-116719047D01*
X150952380Y-116433333D01*
X150904761Y-116338095D01*
X150857142Y-116290476D01*
X149952380Y-117242857D02*
X149952380Y-117861904D01*
X150333333Y-117528571D01*
X150333333Y-117671428D01*
X150380952Y-117766666D01*
X150428571Y-117814285D01*
X150523809Y-117861904D01*
X150761904Y-117861904D01*
X150857142Y-117814285D01*
X150904761Y-117766666D01*
X150952380Y-117671428D01*
X150952380Y-117385714D01*
X150904761Y-117290476D01*
X150857142Y-117242857D01*
X146322380Y-115994642D02*
X145846190Y-115661309D01*
X146322380Y-115423214D02*
X145322380Y-115423214D01*
X145322380Y-115804166D01*
X145370000Y-115899404D01*
X145417619Y-115947023D01*
X145512857Y-115994642D01*
X145655714Y-115994642D01*
X145750952Y-115947023D01*
X145798571Y-115899404D01*
X145846190Y-115804166D01*
X145846190Y-115423214D01*
X145322380Y-116327976D02*
X145322380Y-116947023D01*
X145703333Y-116613690D01*
X145703333Y-116756547D01*
X145750952Y-116851785D01*
X145798571Y-116899404D01*
X145893809Y-116947023D01*
X146131904Y-116947023D01*
X146227142Y-116899404D01*
X146274761Y-116851785D01*
X146322380Y-116756547D01*
X146322380Y-116470833D01*
X146274761Y-116375595D01*
X146227142Y-116327976D01*
X145417619Y-117327976D02*
X145370000Y-117375595D01*
X145322380Y-117470833D01*
X145322380Y-117708928D01*
X145370000Y-117804166D01*
X145417619Y-117851785D01*
X145512857Y-117899404D01*
X145608095Y-117899404D01*
X145750952Y-117851785D01*
X146322380Y-117280357D01*
X146322380Y-117899404D01*
X151182380Y-119773214D02*
X150182380Y-119773214D01*
X150182380Y-120011309D01*
X150230000Y-120154166D01*
X150325238Y-120249404D01*
X150420476Y-120297023D01*
X150610952Y-120344642D01*
X150753809Y-120344642D01*
X150944285Y-120297023D01*
X151039523Y-120249404D01*
X151134761Y-120154166D01*
X151182380Y-120011309D01*
X151182380Y-119773214D01*
X151182380Y-121297023D02*
X151182380Y-120725595D01*
X151182380Y-121011309D02*
X150182380Y-121011309D01*
X150325238Y-120916071D01*
X150420476Y-120820833D01*
X150468095Y-120725595D01*
X151182380Y-122249404D02*
X151182380Y-121677976D01*
X151182380Y-121963690D02*
X150182380Y-121963690D01*
X150325238Y-121868452D01*
X150420476Y-121773214D01*
X150468095Y-121677976D01*
X146452380Y-119785714D02*
X145452380Y-119785714D01*
X145452380Y-120023809D01*
X145500000Y-120166666D01*
X145595238Y-120261904D01*
X145690476Y-120309523D01*
X145880952Y-120357142D01*
X146023809Y-120357142D01*
X146214285Y-120309523D01*
X146309523Y-120261904D01*
X146404761Y-120166666D01*
X146452380Y-120023809D01*
X146452380Y-119785714D01*
X146452380Y-121309523D02*
X146452380Y-120738095D01*
X146452380Y-121023809D02*
X145452380Y-121023809D01*
X145595238Y-120928571D01*
X145690476Y-120833333D01*
X145738095Y-120738095D01*
X145452380Y-121928571D02*
X145452380Y-122023809D01*
X145500000Y-122119047D01*
X145547619Y-122166666D01*
X145642857Y-122214285D01*
X145833333Y-122261904D01*
X146071428Y-122261904D01*
X146261904Y-122214285D01*
X146357142Y-122166666D01*
X146404761Y-122119047D01*
X146452380Y-122023809D01*
X146452380Y-121928571D01*
X146404761Y-121833333D01*
X146357142Y-121785714D01*
X146261904Y-121738095D01*
X146071428Y-121690476D01*
X145833333Y-121690476D01*
X145642857Y-121738095D01*
X145547619Y-121785714D01*
X145500000Y-121833333D01*
X145452380Y-121928571D01*
D15*
X180904523Y-114776666D02*
X181811666Y-114776666D01*
X181993095Y-114716190D01*
X182114047Y-114595238D01*
X182174523Y-114413809D01*
X182174523Y-114292857D01*
X182174523Y-116046666D02*
X182174523Y-115320952D01*
X182174523Y-115683809D02*
X180904523Y-115683809D01*
X181085952Y-115562857D01*
X181206904Y-115441904D01*
X181267380Y-115320952D01*
D10*
X121657142Y-120395833D02*
X121704761Y-120348214D01*
X121752380Y-120205357D01*
X121752380Y-120110119D01*
X121704761Y-119967261D01*
X121609523Y-119872023D01*
X121514285Y-119824404D01*
X121323809Y-119776785D01*
X121180952Y-119776785D01*
X120990476Y-119824404D01*
X120895238Y-119872023D01*
X120800000Y-119967261D01*
X120752380Y-120110119D01*
X120752380Y-120205357D01*
X120800000Y-120348214D01*
X120847619Y-120395833D01*
X120752380Y-121252976D02*
X120752380Y-121062500D01*
X120800000Y-120967261D01*
X120847619Y-120919642D01*
X120990476Y-120824404D01*
X121180952Y-120776785D01*
X121561904Y-120776785D01*
X121657142Y-120824404D01*
X121704761Y-120872023D01*
X121752380Y-120967261D01*
X121752380Y-121157738D01*
X121704761Y-121252976D01*
X121657142Y-121300595D01*
X121561904Y-121348214D01*
X121323809Y-121348214D01*
X121228571Y-121300595D01*
X121180952Y-121252976D01*
X121133333Y-121157738D01*
X121133333Y-120967261D01*
X121180952Y-120872023D01*
X121228571Y-120824404D01*
X121323809Y-120776785D01*
X128561904Y-123152380D02*
X128561904Y-123961904D01*
X128514285Y-124057142D01*
X128466666Y-124104761D01*
X128371428Y-124152380D01*
X128180952Y-124152380D01*
X128085714Y-124104761D01*
X128038095Y-124057142D01*
X127990476Y-123961904D01*
X127990476Y-123152380D01*
X127609523Y-123152380D02*
X126990476Y-123152380D01*
X127323809Y-123533333D01*
X127180952Y-123533333D01*
X127085714Y-123580952D01*
X127038095Y-123628571D01*
X126990476Y-123723809D01*
X126990476Y-123961904D01*
X127038095Y-124057142D01*
X127085714Y-124104761D01*
X127180952Y-124152380D01*
X127466666Y-124152380D01*
X127561904Y-124104761D01*
X127609523Y-124057142D01*
D15*
X127827333Y-91234047D02*
X127645904Y-91294523D01*
X127343523Y-91294523D01*
X127222571Y-91234047D01*
X127162095Y-91173571D01*
X127101619Y-91052619D01*
X127101619Y-90931666D01*
X127162095Y-90810714D01*
X127222571Y-90750238D01*
X127343523Y-90689761D01*
X127585428Y-90629285D01*
X127706380Y-90568809D01*
X127766857Y-90508333D01*
X127827333Y-90387380D01*
X127827333Y-90266428D01*
X127766857Y-90145476D01*
X127706380Y-90085000D01*
X127585428Y-90024523D01*
X127283047Y-90024523D01*
X127101619Y-90085000D01*
X126678285Y-90024523D02*
X126375904Y-91294523D01*
X126134000Y-90387380D01*
X125892095Y-91294523D01*
X125589714Y-90024523D01*
X124440666Y-91294523D02*
X125166380Y-91294523D01*
X124803523Y-91294523D02*
X124803523Y-90024523D01*
X124924476Y-90205952D01*
X125045428Y-90326904D01*
X125166380Y-90387380D01*
D10*
X130959904Y-101818380D02*
X130959904Y-102627904D01*
X130912285Y-102723142D01*
X130864666Y-102770761D01*
X130769428Y-102818380D01*
X130578952Y-102818380D01*
X130483714Y-102770761D01*
X130436095Y-102723142D01*
X130388476Y-102627904D01*
X130388476Y-101818380D01*
X129959904Y-101913619D02*
X129912285Y-101866000D01*
X129817047Y-101818380D01*
X129578952Y-101818380D01*
X129483714Y-101866000D01*
X129436095Y-101913619D01*
X129388476Y-102008857D01*
X129388476Y-102104095D01*
X129436095Y-102246952D01*
X130007523Y-102818380D01*
X129388476Y-102818380D01*
D15*
X141978761Y-104375523D02*
X141978761Y-103105523D01*
X140648285Y-104254571D02*
X140708761Y-104315047D01*
X140890190Y-104375523D01*
X141011142Y-104375523D01*
X141192571Y-104315047D01*
X141313523Y-104194095D01*
X141374000Y-104073142D01*
X141434476Y-103831238D01*
X141434476Y-103649809D01*
X141374000Y-103407904D01*
X141313523Y-103286952D01*
X141192571Y-103166000D01*
X141011142Y-103105523D01*
X140890190Y-103105523D01*
X140708761Y-103166000D01*
X140648285Y-103226476D01*
X140224952Y-103105523D02*
X139438761Y-103105523D01*
X139862095Y-103589333D01*
X139680666Y-103589333D01*
X139559714Y-103649809D01*
X139499238Y-103710285D01*
X139438761Y-103831238D01*
X139438761Y-104133619D01*
X139499238Y-104254571D01*
X139559714Y-104315047D01*
X139680666Y-104375523D01*
X140043523Y-104375523D01*
X140164476Y-104315047D01*
X140224952Y-104254571D01*
D10*
X132618857Y-97152380D02*
X132952190Y-96676190D01*
X133190285Y-97152380D02*
X133190285Y-96152380D01*
X132809333Y-96152380D01*
X132714095Y-96200000D01*
X132666476Y-96247619D01*
X132618857Y-96342857D01*
X132618857Y-96485714D01*
X132666476Y-96580952D01*
X132714095Y-96628571D01*
X132809333Y-96676190D01*
X133190285Y-96676190D01*
X131666476Y-97152380D02*
X132237904Y-97152380D01*
X131952190Y-97152380D02*
X131952190Y-96152380D01*
X132047428Y-96295238D01*
X132142666Y-96390476D01*
X132237904Y-96438095D01*
X130714095Y-97152380D02*
X131285523Y-97152380D01*
X130999809Y-97152380D02*
X130999809Y-96152380D01*
X131095047Y-96295238D01*
X131190285Y-96390476D01*
X131285523Y-96438095D01*
D15*
X141978761Y-117964523D02*
X141978761Y-116694523D01*
X140648285Y-117843571D02*
X140708761Y-117904047D01*
X140890190Y-117964523D01*
X141011142Y-117964523D01*
X141192571Y-117904047D01*
X141313523Y-117783095D01*
X141374000Y-117662142D01*
X141434476Y-117420238D01*
X141434476Y-117238809D01*
X141374000Y-116996904D01*
X141313523Y-116875952D01*
X141192571Y-116755000D01*
X141011142Y-116694523D01*
X140890190Y-116694523D01*
X140708761Y-116755000D01*
X140648285Y-116815476D01*
X139438761Y-117964523D02*
X140164476Y-117964523D01*
X139801619Y-117964523D02*
X139801619Y-116694523D01*
X139922571Y-116875952D01*
X140043523Y-116996904D01*
X140164476Y-117057380D01*
D10*
X143105357Y-109239142D02*
X143152976Y-109286761D01*
X143295833Y-109334380D01*
X143391071Y-109334380D01*
X143533928Y-109286761D01*
X143629166Y-109191523D01*
X143676785Y-109096285D01*
X143724404Y-108905809D01*
X143724404Y-108762952D01*
X143676785Y-108572476D01*
X143629166Y-108477238D01*
X143533928Y-108382000D01*
X143391071Y-108334380D01*
X143295833Y-108334380D01*
X143152976Y-108382000D01*
X143105357Y-108429619D01*
X142152976Y-109334380D02*
X142724404Y-109334380D01*
X142438690Y-109334380D02*
X142438690Y-108334380D01*
X142533928Y-108477238D01*
X142629166Y-108572476D01*
X142724404Y-108620095D01*
X141581547Y-108762952D02*
X141676785Y-108715333D01*
X141724404Y-108667714D01*
X141772023Y-108572476D01*
X141772023Y-108524857D01*
X141724404Y-108429619D01*
X141676785Y-108382000D01*
X141581547Y-108334380D01*
X141391071Y-108334380D01*
X141295833Y-108382000D01*
X141248214Y-108429619D01*
X141200595Y-108524857D01*
X141200595Y-108572476D01*
X141248214Y-108667714D01*
X141295833Y-108715333D01*
X141391071Y-108762952D01*
X141581547Y-108762952D01*
X141676785Y-108810571D01*
X141724404Y-108858190D01*
X141772023Y-108953428D01*
X141772023Y-109143904D01*
X141724404Y-109239142D01*
X141676785Y-109286761D01*
X141581547Y-109334380D01*
X141391071Y-109334380D01*
X141295833Y-109286761D01*
X141248214Y-109239142D01*
X141200595Y-109143904D01*
X141200595Y-108953428D01*
X141248214Y-108858190D01*
X141295833Y-108810571D01*
X141391071Y-108762952D01*
X143105357Y-125957142D02*
X143152976Y-126004761D01*
X143295833Y-126052380D01*
X143391071Y-126052380D01*
X143533928Y-126004761D01*
X143629166Y-125909523D01*
X143676785Y-125814285D01*
X143724404Y-125623809D01*
X143724404Y-125480952D01*
X143676785Y-125290476D01*
X143629166Y-125195238D01*
X143533928Y-125100000D01*
X143391071Y-125052380D01*
X143295833Y-125052380D01*
X143152976Y-125100000D01*
X143105357Y-125147619D01*
X142152976Y-126052380D02*
X142724404Y-126052380D01*
X142438690Y-126052380D02*
X142438690Y-125052380D01*
X142533928Y-125195238D01*
X142629166Y-125290476D01*
X142724404Y-125338095D01*
X141772023Y-125147619D02*
X141724404Y-125100000D01*
X141629166Y-125052380D01*
X141391071Y-125052380D01*
X141295833Y-125100000D01*
X141248214Y-125147619D01*
X141200595Y-125242857D01*
X141200595Y-125338095D01*
X141248214Y-125480952D01*
X141819642Y-126052380D01*
X141200595Y-126052380D01*
X153542857Y-102107142D02*
X153590476Y-102154761D01*
X153733333Y-102202380D01*
X153828571Y-102202380D01*
X153971428Y-102154761D01*
X154066666Y-102059523D01*
X154114285Y-101964285D01*
X154161904Y-101773809D01*
X154161904Y-101630952D01*
X154114285Y-101440476D01*
X154066666Y-101345238D01*
X153971428Y-101250000D01*
X153828571Y-101202380D01*
X153733333Y-101202380D01*
X153590476Y-101250000D01*
X153542857Y-101297619D01*
X152590476Y-102202380D02*
X153161904Y-102202380D01*
X152876190Y-102202380D02*
X152876190Y-101202380D01*
X152971428Y-101345238D01*
X153066666Y-101440476D01*
X153161904Y-101488095D01*
X152257142Y-101202380D02*
X151638095Y-101202380D01*
X151971428Y-101583333D01*
X151828571Y-101583333D01*
X151733333Y-101630952D01*
X151685714Y-101678571D01*
X151638095Y-101773809D01*
X151638095Y-102011904D01*
X151685714Y-102107142D01*
X151733333Y-102154761D01*
X151828571Y-102202380D01*
X152114285Y-102202380D01*
X152209523Y-102154761D01*
X152257142Y-102107142D01*
X152966666Y-116707142D02*
X153014285Y-116754761D01*
X153157142Y-116802380D01*
X153252380Y-116802380D01*
X153395238Y-116754761D01*
X153490476Y-116659523D01*
X153538095Y-116564285D01*
X153585714Y-116373809D01*
X153585714Y-116230952D01*
X153538095Y-116040476D01*
X153490476Y-115945238D01*
X153395238Y-115850000D01*
X153252380Y-115802380D01*
X153157142Y-115802380D01*
X153014285Y-115850000D01*
X152966666Y-115897619D01*
X152633333Y-115802380D02*
X151966666Y-115802380D01*
X152395238Y-116802380D01*
X134745142Y-120271333D02*
X134792761Y-120223714D01*
X134840380Y-120080857D01*
X134840380Y-119985619D01*
X134792761Y-119842761D01*
X134697523Y-119747523D01*
X134602285Y-119699904D01*
X134411809Y-119652285D01*
X134268952Y-119652285D01*
X134078476Y-119699904D01*
X133983238Y-119747523D01*
X133888000Y-119842761D01*
X133840380Y-119985619D01*
X133840380Y-120080857D01*
X133888000Y-120223714D01*
X133935619Y-120271333D01*
X133840380Y-121176095D02*
X133840380Y-120699904D01*
X134316571Y-120652285D01*
X134268952Y-120699904D01*
X134221333Y-120795142D01*
X134221333Y-121033238D01*
X134268952Y-121128476D01*
X134316571Y-121176095D01*
X134411809Y-121223714D01*
X134649904Y-121223714D01*
X134745142Y-121176095D01*
X134792761Y-121128476D01*
X134840380Y-121033238D01*
X134840380Y-120795142D01*
X134792761Y-120699904D01*
X134745142Y-120652285D01*
X127062666Y-114573142D02*
X127110285Y-114620761D01*
X127253142Y-114668380D01*
X127348380Y-114668380D01*
X127491238Y-114620761D01*
X127586476Y-114525523D01*
X127634095Y-114430285D01*
X127681714Y-114239809D01*
X127681714Y-114096952D01*
X127634095Y-113906476D01*
X127586476Y-113811238D01*
X127491238Y-113716000D01*
X127348380Y-113668380D01*
X127253142Y-113668380D01*
X127110285Y-113716000D01*
X127062666Y-113763619D01*
X126205523Y-114001714D02*
X126205523Y-114668380D01*
X126443619Y-113620761D02*
X126681714Y-114335047D01*
X126062666Y-114335047D01*
X126979166Y-97357142D02*
X127026785Y-97404761D01*
X127169642Y-97452380D01*
X127264880Y-97452380D01*
X127407738Y-97404761D01*
X127502976Y-97309523D01*
X127550595Y-97214285D01*
X127598214Y-97023809D01*
X127598214Y-96880952D01*
X127550595Y-96690476D01*
X127502976Y-96595238D01*
X127407738Y-96500000D01*
X127264880Y-96452380D01*
X127169642Y-96452380D01*
X127026785Y-96500000D01*
X126979166Y-96547619D01*
X126645833Y-96452380D02*
X126026785Y-96452380D01*
X126360119Y-96833333D01*
X126217261Y-96833333D01*
X126122023Y-96880952D01*
X126074404Y-96928571D01*
X126026785Y-97023809D01*
X126026785Y-97261904D01*
X126074404Y-97357142D01*
X126122023Y-97404761D01*
X126217261Y-97452380D01*
X126502976Y-97452380D01*
X126598214Y-97404761D01*
X126645833Y-97357142D01*
M02*
