G04 #@! TF.GenerationSoftware,KiCad,Pcbnew,(5.1.5)-3*
G04 #@! TF.CreationDate,2019-12-11T22:47:01+09:00*
G04 #@! TF.ProjectId,CAN_Dual_MDexpress,43414e5f-4475-4616-9c5f-4d4465787072,rev?*
G04 #@! TF.SameCoordinates,Original*
G04 #@! TF.FileFunction,Legend,Top*
G04 #@! TF.FilePolarity,Positive*
%FSLAX46Y46*%
G04 Gerber Fmt 4.6, Leading zero omitted, Abs format (unit mm)*
G04 Created by KiCad (PCBNEW (5.1.5)-3) date 2019-12-11 22:47:01*
%MOMM*%
%LPD*%
G04 APERTURE LIST*
%ADD10C,0.100000*%
%ADD11C,0.120000*%
%ADD12C,0.150000*%
%ADD13C,0.225000*%
%ADD14C,0.200000*%
%ADD15C,0.254000*%
G04 APERTURE END LIST*
D10*
X155379085Y-38866628D02*
X155379085Y-38266628D01*
X155721942Y-38866628D01*
X155721942Y-38266628D01*
X156350514Y-38866628D02*
X156150514Y-38580914D01*
X156007657Y-38866628D02*
X156007657Y-38266628D01*
X156236228Y-38266628D01*
X156293371Y-38295200D01*
X156321942Y-38323771D01*
X156350514Y-38380914D01*
X156350514Y-38466628D01*
X156321942Y-38523771D01*
X156293371Y-38552342D01*
X156236228Y-38580914D01*
X156007657Y-38580914D01*
X156579085Y-38838057D02*
X156664800Y-38866628D01*
X156807657Y-38866628D01*
X156864800Y-38838057D01*
X156893371Y-38809485D01*
X156921942Y-38752342D01*
X156921942Y-38695200D01*
X156893371Y-38638057D01*
X156864800Y-38609485D01*
X156807657Y-38580914D01*
X156693371Y-38552342D01*
X156636228Y-38523771D01*
X156607657Y-38495200D01*
X156579085Y-38438057D01*
X156579085Y-38380914D01*
X156607657Y-38323771D01*
X156636228Y-38295200D01*
X156693371Y-38266628D01*
X156836228Y-38266628D01*
X156921942Y-38295200D01*
X157093371Y-38266628D02*
X157436228Y-38266628D01*
X157264800Y-38866628D02*
X157264800Y-38266628D01*
X150907657Y-38295200D02*
X150850514Y-38266628D01*
X150764800Y-38266628D01*
X150679085Y-38295200D01*
X150621942Y-38352342D01*
X150593371Y-38409485D01*
X150564800Y-38523771D01*
X150564800Y-38609485D01*
X150593371Y-38723771D01*
X150621942Y-38780914D01*
X150679085Y-38838057D01*
X150764800Y-38866628D01*
X150821942Y-38866628D01*
X150907657Y-38838057D01*
X150936228Y-38809485D01*
X150936228Y-38609485D01*
X150821942Y-38609485D01*
X151193371Y-38866628D02*
X151193371Y-38266628D01*
X151536228Y-38866628D01*
X151536228Y-38266628D01*
X151821942Y-38866628D02*
X151821942Y-38266628D01*
X151964800Y-38266628D01*
X152050514Y-38295200D01*
X152107657Y-38352342D01*
X152136228Y-38409485D01*
X152164800Y-38523771D01*
X152164800Y-38609485D01*
X152136228Y-38723771D01*
X152107657Y-38780914D01*
X152050514Y-38838057D01*
X151964800Y-38866628D01*
X151821942Y-38866628D01*
X147607657Y-38238057D02*
X147693371Y-38266628D01*
X147836228Y-38266628D01*
X147893371Y-38238057D01*
X147921942Y-38209485D01*
X147950514Y-38152342D01*
X147950514Y-38095200D01*
X147921942Y-38038057D01*
X147893371Y-38009485D01*
X147836228Y-37980914D01*
X147721942Y-37952342D01*
X147664800Y-37923771D01*
X147636228Y-37895200D01*
X147607657Y-37838057D01*
X147607657Y-37780914D01*
X147636228Y-37723771D01*
X147664800Y-37695200D01*
X147721942Y-37666628D01*
X147864800Y-37666628D01*
X147950514Y-37695200D01*
X148150514Y-37666628D02*
X148293371Y-38266628D01*
X148407657Y-37838057D01*
X148521942Y-38266628D01*
X148664800Y-37666628D01*
X149236228Y-38209485D02*
X149207657Y-38238057D01*
X149121942Y-38266628D01*
X149064800Y-38266628D01*
X148979085Y-38238057D01*
X148921942Y-38180914D01*
X148893371Y-38123771D01*
X148864800Y-38009485D01*
X148864800Y-37923771D01*
X148893371Y-37809485D01*
X148921942Y-37752342D01*
X148979085Y-37695200D01*
X149064800Y-37666628D01*
X149121942Y-37666628D01*
X149207657Y-37695200D01*
X149236228Y-37723771D01*
X149779085Y-38266628D02*
X149493371Y-38266628D01*
X149493371Y-37666628D01*
X149979085Y-38266628D02*
X149979085Y-37666628D01*
X150321942Y-38266628D02*
X150064800Y-37923771D01*
X150321942Y-37666628D02*
X149979085Y-38009485D01*
X152593371Y-38238057D02*
X152679085Y-38266628D01*
X152821942Y-38266628D01*
X152879085Y-38238057D01*
X152907657Y-38209485D01*
X152936228Y-38152342D01*
X152936228Y-38095200D01*
X152907657Y-38038057D01*
X152879085Y-38009485D01*
X152821942Y-37980914D01*
X152707657Y-37952342D01*
X152650514Y-37923771D01*
X152621942Y-37895200D01*
X152593371Y-37838057D01*
X152593371Y-37780914D01*
X152621942Y-37723771D01*
X152650514Y-37695200D01*
X152707657Y-37666628D01*
X152850514Y-37666628D01*
X152936228Y-37695200D01*
X153136228Y-37666628D02*
X153279085Y-38266628D01*
X153393371Y-37838057D01*
X153507657Y-38266628D01*
X153650514Y-37666628D01*
X153879085Y-38266628D02*
X153879085Y-37666628D01*
X154021942Y-37666628D01*
X154107657Y-37695200D01*
X154164800Y-37752342D01*
X154193371Y-37809485D01*
X154221942Y-37923771D01*
X154221942Y-38009485D01*
X154193371Y-38123771D01*
X154164800Y-38180914D01*
X154107657Y-38238057D01*
X154021942Y-38266628D01*
X153879085Y-38266628D01*
X154479085Y-38266628D02*
X154479085Y-37666628D01*
X154879085Y-37666628D02*
X154993371Y-37666628D01*
X155050514Y-37695200D01*
X155107657Y-37752342D01*
X155136228Y-37866628D01*
X155136228Y-38066628D01*
X155107657Y-38180914D01*
X155050514Y-38238057D01*
X154993371Y-38266628D01*
X154879085Y-38266628D01*
X154821942Y-38238057D01*
X154764800Y-38180914D01*
X154736228Y-38066628D01*
X154736228Y-37866628D01*
X154764800Y-37752342D01*
X154821942Y-37695200D01*
X154879085Y-37666628D01*
D11*
X124614285Y-76261904D02*
X124576190Y-76223809D01*
X124538095Y-76109523D01*
X124538095Y-76033333D01*
X124576190Y-75919047D01*
X124652380Y-75842857D01*
X124728571Y-75804761D01*
X124880952Y-75766666D01*
X124995238Y-75766666D01*
X125147619Y-75804761D01*
X125223809Y-75842857D01*
X125300000Y-75919047D01*
X125338095Y-76033333D01*
X125338095Y-76109523D01*
X125300000Y-76223809D01*
X125261904Y-76261904D01*
X124766666Y-76566666D02*
X124766666Y-76947619D01*
X124538095Y-76490476D02*
X125338095Y-76757142D01*
X124538095Y-77023809D01*
X124538095Y-77290476D02*
X125338095Y-77290476D01*
X124538095Y-77747619D01*
X125338095Y-77747619D01*
X124538095Y-78509523D02*
X124538095Y-78128571D01*
X125338095Y-78128571D01*
X125778095Y-65649428D02*
X125778095Y-65268476D01*
X126578095Y-65268476D01*
X126197142Y-65916095D02*
X126197142Y-66182761D01*
X125778095Y-66297047D02*
X125778095Y-65916095D01*
X126578095Y-65916095D01*
X126578095Y-66297047D01*
X125778095Y-66639904D02*
X126578095Y-66639904D01*
X126578095Y-66830380D01*
X126540000Y-66944666D01*
X126463809Y-67020857D01*
X126387619Y-67058952D01*
X126235238Y-67097047D01*
X126120952Y-67097047D01*
X125968571Y-67058952D01*
X125892380Y-67020857D01*
X125816190Y-66944666D01*
X125778095Y-66830380D01*
X125778095Y-66639904D01*
X125258095Y-65420857D02*
X125258095Y-65497047D01*
X125220000Y-65573238D01*
X125181904Y-65611333D01*
X125105714Y-65649428D01*
X124953333Y-65687523D01*
X124762857Y-65687523D01*
X124610476Y-65649428D01*
X124534285Y-65611333D01*
X124496190Y-65573238D01*
X124458095Y-65497047D01*
X124458095Y-65420857D01*
X124496190Y-65344666D01*
X124534285Y-65306571D01*
X124610476Y-65268476D01*
X124762857Y-65230380D01*
X124953333Y-65230380D01*
X125105714Y-65268476D01*
X125181904Y-65306571D01*
X125220000Y-65344666D01*
X125258095Y-65420857D01*
X125258095Y-66182761D02*
X125258095Y-66258952D01*
X125220000Y-66335142D01*
X125181904Y-66373238D01*
X125105714Y-66411333D01*
X124953333Y-66449428D01*
X124762857Y-66449428D01*
X124610476Y-66411333D01*
X124534285Y-66373238D01*
X124496190Y-66335142D01*
X124458095Y-66258952D01*
X124458095Y-66182761D01*
X124496190Y-66106571D01*
X124534285Y-66068476D01*
X124610476Y-66030380D01*
X124762857Y-65992285D01*
X124953333Y-65992285D01*
X125105714Y-66030380D01*
X125181904Y-66068476D01*
X125220000Y-66106571D01*
X125258095Y-66182761D01*
X124762857Y-67401809D02*
X124762857Y-68011333D01*
X124991428Y-68392285D02*
X124762857Y-69001809D01*
X124534285Y-68392285D01*
X124877142Y-70258952D02*
X124877142Y-69992285D01*
X124458095Y-69992285D02*
X125258095Y-69992285D01*
X125258095Y-70373238D01*
X124458095Y-70678000D02*
X124991428Y-70678000D01*
X124839047Y-70678000D02*
X124915238Y-70716095D01*
X124953333Y-70754190D01*
X124991428Y-70830380D01*
X124991428Y-70906571D01*
X124496190Y-71478000D02*
X124458095Y-71401809D01*
X124458095Y-71249428D01*
X124496190Y-71173238D01*
X124572380Y-71135142D01*
X124877142Y-71135142D01*
X124953333Y-71173238D01*
X124991428Y-71249428D01*
X124991428Y-71401809D01*
X124953333Y-71478000D01*
X124877142Y-71516095D01*
X124800952Y-71516095D01*
X124724761Y-71135142D01*
X124496190Y-72163714D02*
X124458095Y-72087523D01*
X124458095Y-71935142D01*
X124496190Y-71858952D01*
X124572380Y-71820857D01*
X124877142Y-71820857D01*
X124953333Y-71858952D01*
X124991428Y-71935142D01*
X124991428Y-72087523D01*
X124953333Y-72163714D01*
X124877142Y-72201809D01*
X124800952Y-72201809D01*
X124724761Y-71820857D01*
X123938095Y-65420857D02*
X123938095Y-65497047D01*
X123900000Y-65573238D01*
X123861904Y-65611333D01*
X123785714Y-65649428D01*
X123633333Y-65687523D01*
X123442857Y-65687523D01*
X123290476Y-65649428D01*
X123214285Y-65611333D01*
X123176190Y-65573238D01*
X123138095Y-65497047D01*
X123138095Y-65420857D01*
X123176190Y-65344666D01*
X123214285Y-65306571D01*
X123290476Y-65268476D01*
X123442857Y-65230380D01*
X123633333Y-65230380D01*
X123785714Y-65268476D01*
X123861904Y-65306571D01*
X123900000Y-65344666D01*
X123938095Y-65420857D01*
X123138095Y-66449428D02*
X123138095Y-65992285D01*
X123138095Y-66220857D02*
X123938095Y-66220857D01*
X123823809Y-66144666D01*
X123747619Y-66068476D01*
X123709523Y-65992285D01*
X123442857Y-67401809D02*
X123442857Y-68011333D01*
X123671428Y-68392285D02*
X123442857Y-69001809D01*
X123214285Y-68392285D01*
X123214285Y-70449428D02*
X123176190Y-70411333D01*
X123138095Y-70297047D01*
X123138095Y-70220857D01*
X123176190Y-70106571D01*
X123252380Y-70030380D01*
X123328571Y-69992285D01*
X123480952Y-69954190D01*
X123595238Y-69954190D01*
X123747619Y-69992285D01*
X123823809Y-70030380D01*
X123900000Y-70106571D01*
X123938095Y-70220857D01*
X123938095Y-70297047D01*
X123900000Y-70411333D01*
X123861904Y-70449428D01*
X123938095Y-70716095D02*
X123138095Y-70906571D01*
X123709523Y-71058952D01*
X123138095Y-71211333D01*
X123938095Y-71401809D01*
X121818095Y-65687523D02*
X121818095Y-65230380D01*
X121818095Y-65458952D02*
X122618095Y-65458952D01*
X122503809Y-65382761D01*
X122427619Y-65306571D01*
X122389523Y-65230380D01*
X122618095Y-66182761D02*
X122618095Y-66258952D01*
X122580000Y-66335142D01*
X122541904Y-66373238D01*
X122465714Y-66411333D01*
X122313333Y-66449428D01*
X122122857Y-66449428D01*
X121970476Y-66411333D01*
X121894285Y-66373238D01*
X121856190Y-66335142D01*
X121818095Y-66258952D01*
X121818095Y-66182761D01*
X121856190Y-66106571D01*
X121894285Y-66068476D01*
X121970476Y-66030380D01*
X122122857Y-65992285D01*
X122313333Y-65992285D01*
X122465714Y-66030380D01*
X122541904Y-66068476D01*
X122580000Y-66106571D01*
X122618095Y-66182761D01*
X122122857Y-67401809D02*
X122122857Y-68011333D01*
X122351428Y-68392285D02*
X122122857Y-69001809D01*
X121894285Y-68392285D01*
X121894285Y-70449428D02*
X121856190Y-70411333D01*
X121818095Y-70297047D01*
X121818095Y-70220857D01*
X121856190Y-70106571D01*
X121932380Y-70030380D01*
X122008571Y-69992285D01*
X122160952Y-69954190D01*
X122275238Y-69954190D01*
X122427619Y-69992285D01*
X122503809Y-70030380D01*
X122580000Y-70106571D01*
X122618095Y-70220857D01*
X122618095Y-70297047D01*
X122580000Y-70411333D01*
X122541904Y-70449428D01*
X121894285Y-71249428D02*
X121856190Y-71211333D01*
X121818095Y-71097047D01*
X121818095Y-71020857D01*
X121856190Y-70906571D01*
X121932380Y-70830380D01*
X122008571Y-70792285D01*
X122160952Y-70754190D01*
X122275238Y-70754190D01*
X122427619Y-70792285D01*
X122503809Y-70830380D01*
X122580000Y-70906571D01*
X122618095Y-71020857D01*
X122618095Y-71097047D01*
X122580000Y-71211333D01*
X122541904Y-71249428D01*
X122618095Y-71516095D02*
X121818095Y-71706571D01*
X122389523Y-71858952D01*
X121818095Y-72011333D01*
X122618095Y-72201809D01*
X120498095Y-65687523D02*
X120498095Y-65230380D01*
X120498095Y-65458952D02*
X121298095Y-65458952D01*
X121183809Y-65382761D01*
X121107619Y-65306571D01*
X121069523Y-65230380D01*
X120498095Y-66449428D02*
X120498095Y-65992285D01*
X120498095Y-66220857D02*
X121298095Y-66220857D01*
X121183809Y-66144666D01*
X121107619Y-66068476D01*
X121069523Y-65992285D01*
X120802857Y-67401809D02*
X120802857Y-68011333D01*
X121031428Y-68392285D02*
X120802857Y-69001809D01*
X120574285Y-68392285D01*
X120917142Y-70258952D02*
X120879047Y-70373238D01*
X120840952Y-70411333D01*
X120764761Y-70449428D01*
X120650476Y-70449428D01*
X120574285Y-70411333D01*
X120536190Y-70373238D01*
X120498095Y-70297047D01*
X120498095Y-69992285D01*
X121298095Y-69992285D01*
X121298095Y-70258952D01*
X121260000Y-70335142D01*
X121221904Y-70373238D01*
X121145714Y-70411333D01*
X121069523Y-70411333D01*
X120993333Y-70373238D01*
X120955238Y-70335142D01*
X120917142Y-70258952D01*
X120917142Y-69992285D01*
X120498095Y-70792285D02*
X121031428Y-70792285D01*
X120879047Y-70792285D02*
X120955238Y-70830380D01*
X120993333Y-70868476D01*
X121031428Y-70944666D01*
X121031428Y-71020857D01*
X120498095Y-71630380D02*
X120917142Y-71630380D01*
X120993333Y-71592285D01*
X121031428Y-71516095D01*
X121031428Y-71363714D01*
X120993333Y-71287523D01*
X120536190Y-71630380D02*
X120498095Y-71554190D01*
X120498095Y-71363714D01*
X120536190Y-71287523D01*
X120612380Y-71249428D01*
X120688571Y-71249428D01*
X120764761Y-71287523D01*
X120802857Y-71363714D01*
X120802857Y-71554190D01*
X120840952Y-71630380D01*
X120498095Y-72011333D02*
X121298095Y-72011333D01*
X120802857Y-72087523D02*
X120498095Y-72316095D01*
X121031428Y-72316095D02*
X120726666Y-72011333D01*
X120536190Y-72963714D02*
X120498095Y-72887523D01*
X120498095Y-72735142D01*
X120536190Y-72658952D01*
X120612380Y-72620857D01*
X120917142Y-72620857D01*
X120993333Y-72658952D01*
X121031428Y-72735142D01*
X121031428Y-72887523D01*
X120993333Y-72963714D01*
X120917142Y-73001809D01*
X120840952Y-73001809D01*
X120764761Y-72620857D01*
D12*
X123967000Y-76305495D02*
X124014619Y-76210257D01*
X124014619Y-76067400D01*
X123967000Y-75924542D01*
X123871761Y-75829304D01*
X123776523Y-75781685D01*
X123586047Y-75734066D01*
X123443190Y-75734066D01*
X123252714Y-75781685D01*
X123157476Y-75829304D01*
X123062238Y-75924542D01*
X123014619Y-76067400D01*
X123014619Y-76162638D01*
X123062238Y-76305495D01*
X123109857Y-76353114D01*
X123443190Y-76353114D01*
X123443190Y-76162638D01*
X123014619Y-76781685D02*
X124014619Y-76781685D01*
X123014619Y-77353114D01*
X124014619Y-77353114D01*
X123014619Y-77829304D02*
X124014619Y-77829304D01*
X124014619Y-78067400D01*
X123967000Y-78210257D01*
X123871761Y-78305495D01*
X123776523Y-78353114D01*
X123586047Y-78400733D01*
X123443190Y-78400733D01*
X123252714Y-78353114D01*
X123157476Y-78305495D01*
X123062238Y-78210257D01*
X123014619Y-78067400D01*
X123014619Y-77829304D01*
D13*
X203678571Y-69392857D02*
X202178571Y-69392857D01*
X203250000Y-68892857D01*
X202178571Y-68392857D01*
X203678571Y-68392857D01*
X203678571Y-67464285D02*
X203607142Y-67607142D01*
X203535714Y-67678571D01*
X203392857Y-67750000D01*
X202964285Y-67750000D01*
X202821428Y-67678571D01*
X202750000Y-67607142D01*
X202678571Y-67464285D01*
X202678571Y-67250000D01*
X202750000Y-67107142D01*
X202821428Y-67035714D01*
X202964285Y-66964285D01*
X203392857Y-66964285D01*
X203535714Y-67035714D01*
X203607142Y-67107142D01*
X203678571Y-67250000D01*
X203678571Y-67464285D01*
X202678571Y-66535714D02*
X202678571Y-65964285D01*
X202178571Y-66321428D02*
X203464285Y-66321428D01*
X203607142Y-66250000D01*
X203678571Y-66107142D01*
X203678571Y-65964285D01*
X203678571Y-65250000D02*
X203607142Y-65392857D01*
X203535714Y-65464285D01*
X203392857Y-65535714D01*
X202964285Y-65535714D01*
X202821428Y-65464285D01*
X202750000Y-65392857D01*
X202678571Y-65250000D01*
X202678571Y-65035714D01*
X202750000Y-64892857D01*
X202821428Y-64821428D01*
X202964285Y-64750000D01*
X203392857Y-64750000D01*
X203535714Y-64821428D01*
X203607142Y-64892857D01*
X203678571Y-65035714D01*
X203678571Y-65250000D01*
X203678571Y-64107142D02*
X202678571Y-64107142D01*
X202964285Y-64107142D02*
X202821428Y-64035714D01*
X202750000Y-63964285D01*
X202678571Y-63821428D01*
X202678571Y-63678571D01*
X203107142Y-63178571D02*
X203107142Y-62035714D01*
X203678571Y-60535714D02*
X203678571Y-61392857D01*
X203678571Y-60964285D02*
X202178571Y-60964285D01*
X202392857Y-61107142D01*
X202535714Y-61250000D01*
X202607142Y-61392857D01*
D12*
X123547619Y-58171428D02*
X124547619Y-58171428D01*
X123833333Y-58504761D01*
X124547619Y-58838095D01*
X123547619Y-58838095D01*
X123547619Y-59457142D02*
X123595238Y-59361904D01*
X123642857Y-59314285D01*
X123738095Y-59266666D01*
X124023809Y-59266666D01*
X124119047Y-59314285D01*
X124166666Y-59361904D01*
X124214285Y-59457142D01*
X124214285Y-59600000D01*
X124166666Y-59695238D01*
X124119047Y-59742857D01*
X124023809Y-59790476D01*
X123738095Y-59790476D01*
X123642857Y-59742857D01*
X123595238Y-59695238D01*
X123547619Y-59600000D01*
X123547619Y-59457142D01*
X124214285Y-60076190D02*
X124214285Y-60457142D01*
X124547619Y-60219047D02*
X123690476Y-60219047D01*
X123595238Y-60266666D01*
X123547619Y-60361904D01*
X123547619Y-60457142D01*
X123547619Y-60933333D02*
X123595238Y-60838095D01*
X123642857Y-60790476D01*
X123738095Y-60742857D01*
X124023809Y-60742857D01*
X124119047Y-60790476D01*
X124166666Y-60838095D01*
X124214285Y-60933333D01*
X124214285Y-61076190D01*
X124166666Y-61171428D01*
X124119047Y-61219047D01*
X124023809Y-61266666D01*
X123738095Y-61266666D01*
X123642857Y-61219047D01*
X123595238Y-61171428D01*
X123547619Y-61076190D01*
X123547619Y-60933333D01*
X123547619Y-61695238D02*
X124214285Y-61695238D01*
X124023809Y-61695238D02*
X124119047Y-61742857D01*
X124166666Y-61790476D01*
X124214285Y-61885714D01*
X124214285Y-61980952D01*
X123928571Y-62314285D02*
X123928571Y-63076190D01*
X123547619Y-64076190D02*
X123547619Y-63504761D01*
X123547619Y-63790476D02*
X124547619Y-63790476D01*
X124404761Y-63695238D01*
X124309523Y-63600000D01*
X124261904Y-63504761D01*
X121363571Y-75502285D02*
X121363571Y-76264190D01*
X120982619Y-75883238D02*
X121744523Y-75883238D01*
X121982619Y-77216571D02*
X121982619Y-76740380D01*
X121506428Y-76692761D01*
X121554047Y-76740380D01*
X121601666Y-76835619D01*
X121601666Y-77073714D01*
X121554047Y-77168952D01*
X121506428Y-77216571D01*
X121411190Y-77264190D01*
X121173095Y-77264190D01*
X121077857Y-77216571D01*
X121030238Y-77168952D01*
X120982619Y-77073714D01*
X120982619Y-76835619D01*
X121030238Y-76740380D01*
X121077857Y-76692761D01*
X121982619Y-77549904D02*
X120982619Y-77883238D01*
X121982619Y-78216571D01*
D10*
X145407657Y-38638057D02*
X145864800Y-38638057D01*
X145636228Y-38866628D02*
X145636228Y-38409485D01*
X146093371Y-38266628D02*
X146464800Y-38266628D01*
X146264800Y-38495200D01*
X146350514Y-38495200D01*
X146407657Y-38523771D01*
X146436228Y-38552342D01*
X146464800Y-38609485D01*
X146464800Y-38752342D01*
X146436228Y-38809485D01*
X146407657Y-38838057D01*
X146350514Y-38866628D01*
X146179085Y-38866628D01*
X146121942Y-38838057D01*
X146093371Y-38809485D01*
X146636228Y-38266628D02*
X146836228Y-38866628D01*
X147036228Y-38266628D01*
X147179085Y-38266628D02*
X147550514Y-38266628D01*
X147350514Y-38495200D01*
X147436228Y-38495200D01*
X147493371Y-38523771D01*
X147521942Y-38552342D01*
X147550514Y-38609485D01*
X147550514Y-38752342D01*
X147521942Y-38809485D01*
X147493371Y-38838057D01*
X147436228Y-38866628D01*
X147264800Y-38866628D01*
X147207657Y-38838057D01*
X147179085Y-38809485D01*
D12*
X123347619Y-50071428D02*
X124347619Y-50071428D01*
X123633333Y-50404761D01*
X124347619Y-50738095D01*
X123347619Y-50738095D01*
X123347619Y-51357142D02*
X123395238Y-51261904D01*
X123442857Y-51214285D01*
X123538095Y-51166666D01*
X123823809Y-51166666D01*
X123919047Y-51214285D01*
X123966666Y-51261904D01*
X124014285Y-51357142D01*
X124014285Y-51500000D01*
X123966666Y-51595238D01*
X123919047Y-51642857D01*
X123823809Y-51690476D01*
X123538095Y-51690476D01*
X123442857Y-51642857D01*
X123395238Y-51595238D01*
X123347619Y-51500000D01*
X123347619Y-51357142D01*
X124014285Y-51976190D02*
X124014285Y-52357142D01*
X124347619Y-52119047D02*
X123490476Y-52119047D01*
X123395238Y-52166666D01*
X123347619Y-52261904D01*
X123347619Y-52357142D01*
X123347619Y-52833333D02*
X123395238Y-52738095D01*
X123442857Y-52690476D01*
X123538095Y-52642857D01*
X123823809Y-52642857D01*
X123919047Y-52690476D01*
X123966666Y-52738095D01*
X124014285Y-52833333D01*
X124014285Y-52976190D01*
X123966666Y-53071428D01*
X123919047Y-53119047D01*
X123823809Y-53166666D01*
X123538095Y-53166666D01*
X123442857Y-53119047D01*
X123395238Y-53071428D01*
X123347619Y-52976190D01*
X123347619Y-52833333D01*
X123347619Y-53595238D02*
X124014285Y-53595238D01*
X123823809Y-53595238D02*
X123919047Y-53642857D01*
X123966666Y-53690476D01*
X124014285Y-53785714D01*
X124014285Y-53880952D01*
X123728571Y-54214285D02*
X123728571Y-54976190D01*
X124347619Y-55642857D02*
X124347619Y-55738095D01*
X124300000Y-55833333D01*
X124252380Y-55880952D01*
X124157142Y-55928571D01*
X123966666Y-55976190D01*
X123728571Y-55976190D01*
X123538095Y-55928571D01*
X123442857Y-55880952D01*
X123395238Y-55833333D01*
X123347619Y-55738095D01*
X123347619Y-55642857D01*
X123395238Y-55547619D01*
X123442857Y-55500000D01*
X123538095Y-55452380D01*
X123728571Y-55404761D01*
X123966666Y-55404761D01*
X124157142Y-55452380D01*
X124252380Y-55500000D01*
X124300000Y-55547619D01*
X124347619Y-55642857D01*
D13*
X203678571Y-50392857D02*
X202178571Y-50392857D01*
X203250000Y-49892857D01*
X202178571Y-49392857D01*
X203678571Y-49392857D01*
X203678571Y-48464285D02*
X203607142Y-48607142D01*
X203535714Y-48678571D01*
X203392857Y-48750000D01*
X202964285Y-48750000D01*
X202821428Y-48678571D01*
X202750000Y-48607142D01*
X202678571Y-48464285D01*
X202678571Y-48250000D01*
X202750000Y-48107142D01*
X202821428Y-48035714D01*
X202964285Y-47964285D01*
X203392857Y-47964285D01*
X203535714Y-48035714D01*
X203607142Y-48107142D01*
X203678571Y-48250000D01*
X203678571Y-48464285D01*
X202678571Y-47535714D02*
X202678571Y-46964285D01*
X202178571Y-47321428D02*
X203464285Y-47321428D01*
X203607142Y-47250000D01*
X203678571Y-47107142D01*
X203678571Y-46964285D01*
X203678571Y-46250000D02*
X203607142Y-46392857D01*
X203535714Y-46464285D01*
X203392857Y-46535714D01*
X202964285Y-46535714D01*
X202821428Y-46464285D01*
X202750000Y-46392857D01*
X202678571Y-46250000D01*
X202678571Y-46035714D01*
X202750000Y-45892857D01*
X202821428Y-45821428D01*
X202964285Y-45750000D01*
X203392857Y-45750000D01*
X203535714Y-45821428D01*
X203607142Y-45892857D01*
X203678571Y-46035714D01*
X203678571Y-46250000D01*
X203678571Y-45107142D02*
X202678571Y-45107142D01*
X202964285Y-45107142D02*
X202821428Y-45035714D01*
X202750000Y-44964285D01*
X202678571Y-44821428D01*
X202678571Y-44678571D01*
X203107142Y-44178571D02*
X203107142Y-43035714D01*
X202178571Y-42035714D02*
X202178571Y-41892857D01*
X202250000Y-41750000D01*
X202321428Y-41678571D01*
X202464285Y-41607142D01*
X202750000Y-41535714D01*
X203107142Y-41535714D01*
X203392857Y-41607142D01*
X203535714Y-41678571D01*
X203607142Y-41750000D01*
X203678571Y-41892857D01*
X203678571Y-42035714D01*
X203607142Y-42178571D01*
X203535714Y-42250000D01*
X203392857Y-42321428D01*
X203107142Y-42392857D01*
X202750000Y-42392857D01*
X202464285Y-42321428D01*
X202321428Y-42250000D01*
X202250000Y-42178571D01*
X202178571Y-42035714D01*
D11*
X125714285Y-76266666D02*
X125676190Y-76228571D01*
X125638095Y-76114285D01*
X125638095Y-76038095D01*
X125676190Y-75923809D01*
X125752380Y-75847619D01*
X125828571Y-75809523D01*
X125980952Y-75771428D01*
X126095238Y-75771428D01*
X126247619Y-75809523D01*
X126323809Y-75847619D01*
X126400000Y-75923809D01*
X126438095Y-76038095D01*
X126438095Y-76114285D01*
X126400000Y-76228571D01*
X126361904Y-76266666D01*
X125866666Y-76571428D02*
X125866666Y-76952380D01*
X125638095Y-76495238D02*
X126438095Y-76761904D01*
X125638095Y-77028571D01*
X125638095Y-77295238D02*
X126438095Y-77295238D01*
X125638095Y-77752380D01*
X126438095Y-77752380D01*
X125638095Y-78133333D02*
X126438095Y-78133333D01*
X126057142Y-78133333D02*
X126057142Y-78590476D01*
X125638095Y-78590476D02*
X126438095Y-78590476D01*
D12*
X175382380Y-36282142D02*
X175334761Y-36329761D01*
X175191904Y-36377380D01*
X175096666Y-36377380D01*
X174953809Y-36329761D01*
X174858571Y-36234523D01*
X174810952Y-36139285D01*
X174763333Y-35948809D01*
X174763333Y-35805952D01*
X174810952Y-35615476D01*
X174858571Y-35520238D01*
X174953809Y-35425000D01*
X175096666Y-35377380D01*
X175191904Y-35377380D01*
X175334761Y-35425000D01*
X175382380Y-35472619D01*
X175763333Y-36091666D02*
X176239523Y-36091666D01*
X175668095Y-36377380D02*
X176001428Y-35377380D01*
X176334761Y-36377380D01*
X176668095Y-36377380D02*
X176668095Y-35377380D01*
X177239523Y-36377380D01*
X177239523Y-35377380D01*
X178477619Y-36377380D02*
X178477619Y-35377380D01*
X178477619Y-35853571D02*
X179049047Y-35853571D01*
X179049047Y-36377380D02*
X179049047Y-35377380D01*
X179525238Y-35996428D02*
X180287142Y-35996428D01*
X181096666Y-35853571D02*
X181239523Y-35901190D01*
X181287142Y-35948809D01*
X181334761Y-36044047D01*
X181334761Y-36186904D01*
X181287142Y-36282142D01*
X181239523Y-36329761D01*
X181144285Y-36377380D01*
X180763333Y-36377380D01*
X180763333Y-35377380D01*
X181096666Y-35377380D01*
X181191904Y-35425000D01*
X181239523Y-35472619D01*
X181287142Y-35567857D01*
X181287142Y-35663095D01*
X181239523Y-35758333D01*
X181191904Y-35805952D01*
X181096666Y-35853571D01*
X180763333Y-35853571D01*
X181763333Y-36377380D02*
X181763333Y-35710714D01*
X181763333Y-35901190D02*
X181810952Y-35805952D01*
X181858571Y-35758333D01*
X181953809Y-35710714D01*
X182049047Y-35710714D01*
X182382380Y-36377380D02*
X182382380Y-35710714D01*
X182382380Y-35377380D02*
X182334761Y-35425000D01*
X182382380Y-35472619D01*
X182430000Y-35425000D01*
X182382380Y-35377380D01*
X182382380Y-35472619D01*
X183287142Y-36377380D02*
X183287142Y-35377380D01*
X183287142Y-36329761D02*
X183191904Y-36377380D01*
X183001428Y-36377380D01*
X182906190Y-36329761D01*
X182858571Y-36282142D01*
X182810952Y-36186904D01*
X182810952Y-35901190D01*
X182858571Y-35805952D01*
X182906190Y-35758333D01*
X183001428Y-35710714D01*
X183191904Y-35710714D01*
X183287142Y-35758333D01*
X184191904Y-35710714D02*
X184191904Y-36520238D01*
X184144285Y-36615476D01*
X184096666Y-36663095D01*
X184001428Y-36710714D01*
X183858571Y-36710714D01*
X183763333Y-36663095D01*
X184191904Y-36329761D02*
X184096666Y-36377380D01*
X183906190Y-36377380D01*
X183810952Y-36329761D01*
X183763333Y-36282142D01*
X183715714Y-36186904D01*
X183715714Y-35901190D01*
X183763333Y-35805952D01*
X183810952Y-35758333D01*
X183906190Y-35710714D01*
X184096666Y-35710714D01*
X184191904Y-35758333D01*
X185049047Y-36329761D02*
X184953809Y-36377380D01*
X184763333Y-36377380D01*
X184668095Y-36329761D01*
X184620476Y-36234523D01*
X184620476Y-35853571D01*
X184668095Y-35758333D01*
X184763333Y-35710714D01*
X184953809Y-35710714D01*
X185049047Y-35758333D01*
X185096666Y-35853571D01*
X185096666Y-35948809D01*
X184620476Y-36044047D01*
X186287142Y-36377380D02*
X186287142Y-35377380D01*
X186525238Y-35377380D01*
X186668095Y-35425000D01*
X186763333Y-35520238D01*
X186810952Y-35615476D01*
X186858571Y-35805952D01*
X186858571Y-35948809D01*
X186810952Y-36139285D01*
X186763333Y-36234523D01*
X186668095Y-36329761D01*
X186525238Y-36377380D01*
X186287142Y-36377380D01*
X187715714Y-35710714D02*
X187715714Y-36377380D01*
X187287142Y-35710714D02*
X187287142Y-36234523D01*
X187334761Y-36329761D01*
X187430000Y-36377380D01*
X187572857Y-36377380D01*
X187668095Y-36329761D01*
X187715714Y-36282142D01*
X188620476Y-36377380D02*
X188620476Y-35853571D01*
X188572857Y-35758333D01*
X188477619Y-35710714D01*
X188287142Y-35710714D01*
X188191904Y-35758333D01*
X188620476Y-36329761D02*
X188525238Y-36377380D01*
X188287142Y-36377380D01*
X188191904Y-36329761D01*
X188144285Y-36234523D01*
X188144285Y-36139285D01*
X188191904Y-36044047D01*
X188287142Y-35996428D01*
X188525238Y-35996428D01*
X188620476Y-35948809D01*
X189239523Y-36377380D02*
X189144285Y-36329761D01*
X189096666Y-36234523D01*
X189096666Y-35377380D01*
X190382380Y-36377380D02*
X190382380Y-35377380D01*
X190715714Y-36091666D01*
X191049047Y-35377380D01*
X191049047Y-36377380D01*
X191525238Y-36377380D02*
X191525238Y-35377380D01*
X191763333Y-35377380D01*
X191906190Y-35425000D01*
X192001428Y-35520238D01*
X192049047Y-35615476D01*
X192096666Y-35805952D01*
X192096666Y-35948809D01*
X192049047Y-36139285D01*
X192001428Y-36234523D01*
X191906190Y-36329761D01*
X191763333Y-36377380D01*
X191525238Y-36377380D01*
X178549047Y-38027380D02*
X178549047Y-37027380D01*
X178930000Y-37027380D01*
X179025238Y-37075000D01*
X179072857Y-37122619D01*
X179120476Y-37217857D01*
X179120476Y-37360714D01*
X179072857Y-37455952D01*
X179025238Y-37503571D01*
X178930000Y-37551190D01*
X178549047Y-37551190D01*
X179549047Y-38027380D02*
X179549047Y-37360714D01*
X179549047Y-37551190D02*
X179596666Y-37455952D01*
X179644285Y-37408333D01*
X179739523Y-37360714D01*
X179834761Y-37360714D01*
X180310952Y-38027380D02*
X180215714Y-37979761D01*
X180168095Y-37932142D01*
X180120476Y-37836904D01*
X180120476Y-37551190D01*
X180168095Y-37455952D01*
X180215714Y-37408333D01*
X180310952Y-37360714D01*
X180453809Y-37360714D01*
X180549047Y-37408333D01*
X180596666Y-37455952D01*
X180644285Y-37551190D01*
X180644285Y-37836904D01*
X180596666Y-37932142D01*
X180549047Y-37979761D01*
X180453809Y-38027380D01*
X180310952Y-38027380D01*
X180930000Y-37360714D02*
X181310952Y-37360714D01*
X181072857Y-37027380D02*
X181072857Y-37884523D01*
X181120476Y-37979761D01*
X181215714Y-38027380D01*
X181310952Y-38027380D01*
X181787142Y-38027380D02*
X181691904Y-37979761D01*
X181644285Y-37932142D01*
X181596666Y-37836904D01*
X181596666Y-37551190D01*
X181644285Y-37455952D01*
X181691904Y-37408333D01*
X181787142Y-37360714D01*
X181930000Y-37360714D01*
X182025238Y-37408333D01*
X182072857Y-37455952D01*
X182120476Y-37551190D01*
X182120476Y-37836904D01*
X182072857Y-37932142D01*
X182025238Y-37979761D01*
X181930000Y-38027380D01*
X181787142Y-38027380D01*
X182406190Y-37360714D02*
X182787142Y-37360714D01*
X182549047Y-37027380D02*
X182549047Y-37884523D01*
X182596666Y-37979761D01*
X182691904Y-38027380D01*
X182787142Y-38027380D01*
X183025238Y-37360714D02*
X183263333Y-38027380D01*
X183501428Y-37360714D02*
X183263333Y-38027380D01*
X183168095Y-38265476D01*
X183120476Y-38313095D01*
X183025238Y-38360714D01*
X183882380Y-37360714D02*
X183882380Y-38360714D01*
X183882380Y-37408333D02*
X183977619Y-37360714D01*
X184168095Y-37360714D01*
X184263333Y-37408333D01*
X184310952Y-37455952D01*
X184358571Y-37551190D01*
X184358571Y-37836904D01*
X184310952Y-37932142D01*
X184263333Y-37979761D01*
X184168095Y-38027380D01*
X183977619Y-38027380D01*
X183882380Y-37979761D01*
X185168095Y-37979761D02*
X185072857Y-38027380D01*
X184882380Y-38027380D01*
X184787142Y-37979761D01*
X184739523Y-37884523D01*
X184739523Y-37503571D01*
X184787142Y-37408333D01*
X184882380Y-37360714D01*
X185072857Y-37360714D01*
X185168095Y-37408333D01*
X185215714Y-37503571D01*
X185215714Y-37598809D01*
X184739523Y-37694047D01*
X186930000Y-38027380D02*
X186358571Y-38027380D01*
X186644285Y-38027380D02*
X186644285Y-37027380D01*
X186549047Y-37170238D01*
X186453809Y-37265476D01*
X186358571Y-37313095D01*
X187358571Y-37932142D02*
X187406190Y-37979761D01*
X187358571Y-38027380D01*
X187310952Y-37979761D01*
X187358571Y-37932142D01*
X187358571Y-38027380D01*
X187739523Y-37027380D02*
X188358571Y-37027380D01*
X188025238Y-37408333D01*
X188168095Y-37408333D01*
X188263333Y-37455952D01*
X188310952Y-37503571D01*
X188358571Y-37598809D01*
X188358571Y-37836904D01*
X188310952Y-37932142D01*
X188263333Y-37979761D01*
X188168095Y-38027380D01*
X187882380Y-38027380D01*
X187787142Y-37979761D01*
X187739523Y-37932142D01*
X121363571Y-125502285D02*
X121363571Y-126264190D01*
X120982619Y-125883238D02*
X121744523Y-125883238D01*
X121982619Y-127216571D02*
X121982619Y-126740380D01*
X121506428Y-126692761D01*
X121554047Y-126740380D01*
X121601666Y-126835619D01*
X121601666Y-127073714D01*
X121554047Y-127168952D01*
X121506428Y-127216571D01*
X121411190Y-127264190D01*
X121173095Y-127264190D01*
X121077857Y-127216571D01*
X121030238Y-127168952D01*
X120982619Y-127073714D01*
X120982619Y-126835619D01*
X121030238Y-126740380D01*
X121077857Y-126692761D01*
X121982619Y-127549904D02*
X120982619Y-127883238D01*
X121982619Y-128216571D01*
X123967000Y-126305495D02*
X124014619Y-126210257D01*
X124014619Y-126067400D01*
X123967000Y-125924542D01*
X123871761Y-125829304D01*
X123776523Y-125781685D01*
X123586047Y-125734066D01*
X123443190Y-125734066D01*
X123252714Y-125781685D01*
X123157476Y-125829304D01*
X123062238Y-125924542D01*
X123014619Y-126067400D01*
X123014619Y-126162638D01*
X123062238Y-126305495D01*
X123109857Y-126353114D01*
X123443190Y-126353114D01*
X123443190Y-126162638D01*
X123014619Y-126781685D02*
X124014619Y-126781685D01*
X123014619Y-127353114D01*
X124014619Y-127353114D01*
X123014619Y-127829304D02*
X124014619Y-127829304D01*
X124014619Y-128067400D01*
X123967000Y-128210257D01*
X123871761Y-128305495D01*
X123776523Y-128353114D01*
X123586047Y-128400733D01*
X123443190Y-128400733D01*
X123252714Y-128353114D01*
X123157476Y-128305495D01*
X123062238Y-128210257D01*
X123014619Y-128067400D01*
X123014619Y-127829304D01*
X175382380Y-86282142D02*
X175334761Y-86329761D01*
X175191904Y-86377380D01*
X175096666Y-86377380D01*
X174953809Y-86329761D01*
X174858571Y-86234523D01*
X174810952Y-86139285D01*
X174763333Y-85948809D01*
X174763333Y-85805952D01*
X174810952Y-85615476D01*
X174858571Y-85520238D01*
X174953809Y-85425000D01*
X175096666Y-85377380D01*
X175191904Y-85377380D01*
X175334761Y-85425000D01*
X175382380Y-85472619D01*
X175763333Y-86091666D02*
X176239523Y-86091666D01*
X175668095Y-86377380D02*
X176001428Y-85377380D01*
X176334761Y-86377380D01*
X176668095Y-86377380D02*
X176668095Y-85377380D01*
X177239523Y-86377380D01*
X177239523Y-85377380D01*
X178477619Y-86377380D02*
X178477619Y-85377380D01*
X178477619Y-85853571D02*
X179049047Y-85853571D01*
X179049047Y-86377380D02*
X179049047Y-85377380D01*
X179525238Y-85996428D02*
X180287142Y-85996428D01*
X181096666Y-85853571D02*
X181239523Y-85901190D01*
X181287142Y-85948809D01*
X181334761Y-86044047D01*
X181334761Y-86186904D01*
X181287142Y-86282142D01*
X181239523Y-86329761D01*
X181144285Y-86377380D01*
X180763333Y-86377380D01*
X180763333Y-85377380D01*
X181096666Y-85377380D01*
X181191904Y-85425000D01*
X181239523Y-85472619D01*
X181287142Y-85567857D01*
X181287142Y-85663095D01*
X181239523Y-85758333D01*
X181191904Y-85805952D01*
X181096666Y-85853571D01*
X180763333Y-85853571D01*
X181763333Y-86377380D02*
X181763333Y-85710714D01*
X181763333Y-85901190D02*
X181810952Y-85805952D01*
X181858571Y-85758333D01*
X181953809Y-85710714D01*
X182049047Y-85710714D01*
X182382380Y-86377380D02*
X182382380Y-85710714D01*
X182382380Y-85377380D02*
X182334761Y-85425000D01*
X182382380Y-85472619D01*
X182430000Y-85425000D01*
X182382380Y-85377380D01*
X182382380Y-85472619D01*
X183287142Y-86377380D02*
X183287142Y-85377380D01*
X183287142Y-86329761D02*
X183191904Y-86377380D01*
X183001428Y-86377380D01*
X182906190Y-86329761D01*
X182858571Y-86282142D01*
X182810952Y-86186904D01*
X182810952Y-85901190D01*
X182858571Y-85805952D01*
X182906190Y-85758333D01*
X183001428Y-85710714D01*
X183191904Y-85710714D01*
X183287142Y-85758333D01*
X184191904Y-85710714D02*
X184191904Y-86520238D01*
X184144285Y-86615476D01*
X184096666Y-86663095D01*
X184001428Y-86710714D01*
X183858571Y-86710714D01*
X183763333Y-86663095D01*
X184191904Y-86329761D02*
X184096666Y-86377380D01*
X183906190Y-86377380D01*
X183810952Y-86329761D01*
X183763333Y-86282142D01*
X183715714Y-86186904D01*
X183715714Y-85901190D01*
X183763333Y-85805952D01*
X183810952Y-85758333D01*
X183906190Y-85710714D01*
X184096666Y-85710714D01*
X184191904Y-85758333D01*
X185049047Y-86329761D02*
X184953809Y-86377380D01*
X184763333Y-86377380D01*
X184668095Y-86329761D01*
X184620476Y-86234523D01*
X184620476Y-85853571D01*
X184668095Y-85758333D01*
X184763333Y-85710714D01*
X184953809Y-85710714D01*
X185049047Y-85758333D01*
X185096666Y-85853571D01*
X185096666Y-85948809D01*
X184620476Y-86044047D01*
X186287142Y-86377380D02*
X186287142Y-85377380D01*
X186525238Y-85377380D01*
X186668095Y-85425000D01*
X186763333Y-85520238D01*
X186810952Y-85615476D01*
X186858571Y-85805952D01*
X186858571Y-85948809D01*
X186810952Y-86139285D01*
X186763333Y-86234523D01*
X186668095Y-86329761D01*
X186525238Y-86377380D01*
X186287142Y-86377380D01*
X187715714Y-85710714D02*
X187715714Y-86377380D01*
X187287142Y-85710714D02*
X187287142Y-86234523D01*
X187334761Y-86329761D01*
X187430000Y-86377380D01*
X187572857Y-86377380D01*
X187668095Y-86329761D01*
X187715714Y-86282142D01*
X188620476Y-86377380D02*
X188620476Y-85853571D01*
X188572857Y-85758333D01*
X188477619Y-85710714D01*
X188287142Y-85710714D01*
X188191904Y-85758333D01*
X188620476Y-86329761D02*
X188525238Y-86377380D01*
X188287142Y-86377380D01*
X188191904Y-86329761D01*
X188144285Y-86234523D01*
X188144285Y-86139285D01*
X188191904Y-86044047D01*
X188287142Y-85996428D01*
X188525238Y-85996428D01*
X188620476Y-85948809D01*
X189239523Y-86377380D02*
X189144285Y-86329761D01*
X189096666Y-86234523D01*
X189096666Y-85377380D01*
X190382380Y-86377380D02*
X190382380Y-85377380D01*
X190715714Y-86091666D01*
X191049047Y-85377380D01*
X191049047Y-86377380D01*
X191525238Y-86377380D02*
X191525238Y-85377380D01*
X191763333Y-85377380D01*
X191906190Y-85425000D01*
X192001428Y-85520238D01*
X192049047Y-85615476D01*
X192096666Y-85805952D01*
X192096666Y-85948809D01*
X192049047Y-86139285D01*
X192001428Y-86234523D01*
X191906190Y-86329761D01*
X191763333Y-86377380D01*
X191525238Y-86377380D01*
X178549047Y-88027380D02*
X178549047Y-87027380D01*
X178930000Y-87027380D01*
X179025238Y-87075000D01*
X179072857Y-87122619D01*
X179120476Y-87217857D01*
X179120476Y-87360714D01*
X179072857Y-87455952D01*
X179025238Y-87503571D01*
X178930000Y-87551190D01*
X178549047Y-87551190D01*
X179549047Y-88027380D02*
X179549047Y-87360714D01*
X179549047Y-87551190D02*
X179596666Y-87455952D01*
X179644285Y-87408333D01*
X179739523Y-87360714D01*
X179834761Y-87360714D01*
X180310952Y-88027380D02*
X180215714Y-87979761D01*
X180168095Y-87932142D01*
X180120476Y-87836904D01*
X180120476Y-87551190D01*
X180168095Y-87455952D01*
X180215714Y-87408333D01*
X180310952Y-87360714D01*
X180453809Y-87360714D01*
X180549047Y-87408333D01*
X180596666Y-87455952D01*
X180644285Y-87551190D01*
X180644285Y-87836904D01*
X180596666Y-87932142D01*
X180549047Y-87979761D01*
X180453809Y-88027380D01*
X180310952Y-88027380D01*
X180930000Y-87360714D02*
X181310952Y-87360714D01*
X181072857Y-87027380D02*
X181072857Y-87884523D01*
X181120476Y-87979761D01*
X181215714Y-88027380D01*
X181310952Y-88027380D01*
X181787142Y-88027380D02*
X181691904Y-87979761D01*
X181644285Y-87932142D01*
X181596666Y-87836904D01*
X181596666Y-87551190D01*
X181644285Y-87455952D01*
X181691904Y-87408333D01*
X181787142Y-87360714D01*
X181930000Y-87360714D01*
X182025238Y-87408333D01*
X182072857Y-87455952D01*
X182120476Y-87551190D01*
X182120476Y-87836904D01*
X182072857Y-87932142D01*
X182025238Y-87979761D01*
X181930000Y-88027380D01*
X181787142Y-88027380D01*
X182406190Y-87360714D02*
X182787142Y-87360714D01*
X182549047Y-87027380D02*
X182549047Y-87884523D01*
X182596666Y-87979761D01*
X182691904Y-88027380D01*
X182787142Y-88027380D01*
X183025238Y-87360714D02*
X183263333Y-88027380D01*
X183501428Y-87360714D02*
X183263333Y-88027380D01*
X183168095Y-88265476D01*
X183120476Y-88313095D01*
X183025238Y-88360714D01*
X183882380Y-87360714D02*
X183882380Y-88360714D01*
X183882380Y-87408333D02*
X183977619Y-87360714D01*
X184168095Y-87360714D01*
X184263333Y-87408333D01*
X184310952Y-87455952D01*
X184358571Y-87551190D01*
X184358571Y-87836904D01*
X184310952Y-87932142D01*
X184263333Y-87979761D01*
X184168095Y-88027380D01*
X183977619Y-88027380D01*
X183882380Y-87979761D01*
X185168095Y-87979761D02*
X185072857Y-88027380D01*
X184882380Y-88027380D01*
X184787142Y-87979761D01*
X184739523Y-87884523D01*
X184739523Y-87503571D01*
X184787142Y-87408333D01*
X184882380Y-87360714D01*
X185072857Y-87360714D01*
X185168095Y-87408333D01*
X185215714Y-87503571D01*
X185215714Y-87598809D01*
X184739523Y-87694047D01*
X186930000Y-88027380D02*
X186358571Y-88027380D01*
X186644285Y-88027380D02*
X186644285Y-87027380D01*
X186549047Y-87170238D01*
X186453809Y-87265476D01*
X186358571Y-87313095D01*
X187358571Y-87932142D02*
X187406190Y-87979761D01*
X187358571Y-88027380D01*
X187310952Y-87979761D01*
X187358571Y-87932142D01*
X187358571Y-88027380D01*
X187739523Y-87027380D02*
X188358571Y-87027380D01*
X188025238Y-87408333D01*
X188168095Y-87408333D01*
X188263333Y-87455952D01*
X188310952Y-87503571D01*
X188358571Y-87598809D01*
X188358571Y-87836904D01*
X188310952Y-87932142D01*
X188263333Y-87979761D01*
X188168095Y-88027380D01*
X187882380Y-88027380D01*
X187787142Y-87979761D01*
X187739523Y-87932142D01*
D10*
X145407657Y-88638057D02*
X145864800Y-88638057D01*
X145636228Y-88866628D02*
X145636228Y-88409485D01*
X146093371Y-88266628D02*
X146464800Y-88266628D01*
X146264800Y-88495200D01*
X146350514Y-88495200D01*
X146407657Y-88523771D01*
X146436228Y-88552342D01*
X146464800Y-88609485D01*
X146464800Y-88752342D01*
X146436228Y-88809485D01*
X146407657Y-88838057D01*
X146350514Y-88866628D01*
X146179085Y-88866628D01*
X146121942Y-88838057D01*
X146093371Y-88809485D01*
X146636228Y-88266628D02*
X146836228Y-88866628D01*
X147036228Y-88266628D01*
X147179085Y-88266628D02*
X147550514Y-88266628D01*
X147350514Y-88495200D01*
X147436228Y-88495200D01*
X147493371Y-88523771D01*
X147521942Y-88552342D01*
X147550514Y-88609485D01*
X147550514Y-88752342D01*
X147521942Y-88809485D01*
X147493371Y-88838057D01*
X147436228Y-88866628D01*
X147264800Y-88866628D01*
X147207657Y-88838057D01*
X147179085Y-88809485D01*
X150907657Y-88295200D02*
X150850514Y-88266628D01*
X150764800Y-88266628D01*
X150679085Y-88295200D01*
X150621942Y-88352342D01*
X150593371Y-88409485D01*
X150564800Y-88523771D01*
X150564800Y-88609485D01*
X150593371Y-88723771D01*
X150621942Y-88780914D01*
X150679085Y-88838057D01*
X150764800Y-88866628D01*
X150821942Y-88866628D01*
X150907657Y-88838057D01*
X150936228Y-88809485D01*
X150936228Y-88609485D01*
X150821942Y-88609485D01*
X151193371Y-88866628D02*
X151193371Y-88266628D01*
X151536228Y-88866628D01*
X151536228Y-88266628D01*
X151821942Y-88866628D02*
X151821942Y-88266628D01*
X151964800Y-88266628D01*
X152050514Y-88295200D01*
X152107657Y-88352342D01*
X152136228Y-88409485D01*
X152164800Y-88523771D01*
X152164800Y-88609485D01*
X152136228Y-88723771D01*
X152107657Y-88780914D01*
X152050514Y-88838057D01*
X151964800Y-88866628D01*
X151821942Y-88866628D01*
X147607657Y-88238057D02*
X147693371Y-88266628D01*
X147836228Y-88266628D01*
X147893371Y-88238057D01*
X147921942Y-88209485D01*
X147950514Y-88152342D01*
X147950514Y-88095200D01*
X147921942Y-88038057D01*
X147893371Y-88009485D01*
X147836228Y-87980914D01*
X147721942Y-87952342D01*
X147664800Y-87923771D01*
X147636228Y-87895200D01*
X147607657Y-87838057D01*
X147607657Y-87780914D01*
X147636228Y-87723771D01*
X147664800Y-87695200D01*
X147721942Y-87666628D01*
X147864800Y-87666628D01*
X147950514Y-87695200D01*
X148150514Y-87666628D02*
X148293371Y-88266628D01*
X148407657Y-87838057D01*
X148521942Y-88266628D01*
X148664800Y-87666628D01*
X149236228Y-88209485D02*
X149207657Y-88238057D01*
X149121942Y-88266628D01*
X149064800Y-88266628D01*
X148979085Y-88238057D01*
X148921942Y-88180914D01*
X148893371Y-88123771D01*
X148864800Y-88009485D01*
X148864800Y-87923771D01*
X148893371Y-87809485D01*
X148921942Y-87752342D01*
X148979085Y-87695200D01*
X149064800Y-87666628D01*
X149121942Y-87666628D01*
X149207657Y-87695200D01*
X149236228Y-87723771D01*
X149779085Y-88266628D02*
X149493371Y-88266628D01*
X149493371Y-87666628D01*
X149979085Y-88266628D02*
X149979085Y-87666628D01*
X150321942Y-88266628D02*
X150064800Y-87923771D01*
X150321942Y-87666628D02*
X149979085Y-88009485D01*
X152593371Y-88238057D02*
X152679085Y-88266628D01*
X152821942Y-88266628D01*
X152879085Y-88238057D01*
X152907657Y-88209485D01*
X152936228Y-88152342D01*
X152936228Y-88095200D01*
X152907657Y-88038057D01*
X152879085Y-88009485D01*
X152821942Y-87980914D01*
X152707657Y-87952342D01*
X152650514Y-87923771D01*
X152621942Y-87895200D01*
X152593371Y-87838057D01*
X152593371Y-87780914D01*
X152621942Y-87723771D01*
X152650514Y-87695200D01*
X152707657Y-87666628D01*
X152850514Y-87666628D01*
X152936228Y-87695200D01*
X153136228Y-87666628D02*
X153279085Y-88266628D01*
X153393371Y-87838057D01*
X153507657Y-88266628D01*
X153650514Y-87666628D01*
X153879085Y-88266628D02*
X153879085Y-87666628D01*
X154021942Y-87666628D01*
X154107657Y-87695200D01*
X154164800Y-87752342D01*
X154193371Y-87809485D01*
X154221942Y-87923771D01*
X154221942Y-88009485D01*
X154193371Y-88123771D01*
X154164800Y-88180914D01*
X154107657Y-88238057D01*
X154021942Y-88266628D01*
X153879085Y-88266628D01*
X154479085Y-88266628D02*
X154479085Y-87666628D01*
X154879085Y-87666628D02*
X154993371Y-87666628D01*
X155050514Y-87695200D01*
X155107657Y-87752342D01*
X155136228Y-87866628D01*
X155136228Y-88066628D01*
X155107657Y-88180914D01*
X155050514Y-88238057D01*
X154993371Y-88266628D01*
X154879085Y-88266628D01*
X154821942Y-88238057D01*
X154764800Y-88180914D01*
X154736228Y-88066628D01*
X154736228Y-87866628D01*
X154764800Y-87752342D01*
X154821942Y-87695200D01*
X154879085Y-87666628D01*
X155379085Y-88866628D02*
X155379085Y-88266628D01*
X155721942Y-88866628D01*
X155721942Y-88266628D01*
X156350514Y-88866628D02*
X156150514Y-88580914D01*
X156007657Y-88866628D02*
X156007657Y-88266628D01*
X156236228Y-88266628D01*
X156293371Y-88295200D01*
X156321942Y-88323771D01*
X156350514Y-88380914D01*
X156350514Y-88466628D01*
X156321942Y-88523771D01*
X156293371Y-88552342D01*
X156236228Y-88580914D01*
X156007657Y-88580914D01*
X156579085Y-88838057D02*
X156664800Y-88866628D01*
X156807657Y-88866628D01*
X156864800Y-88838057D01*
X156893371Y-88809485D01*
X156921942Y-88752342D01*
X156921942Y-88695200D01*
X156893371Y-88638057D01*
X156864800Y-88609485D01*
X156807657Y-88580914D01*
X156693371Y-88552342D01*
X156636228Y-88523771D01*
X156607657Y-88495200D01*
X156579085Y-88438057D01*
X156579085Y-88380914D01*
X156607657Y-88323771D01*
X156636228Y-88295200D01*
X156693371Y-88266628D01*
X156836228Y-88266628D01*
X156921942Y-88295200D01*
X157093371Y-88266628D02*
X157436228Y-88266628D01*
X157264800Y-88866628D02*
X157264800Y-88266628D01*
D12*
X123347619Y-100071428D02*
X124347619Y-100071428D01*
X123633333Y-100404761D01*
X124347619Y-100738095D01*
X123347619Y-100738095D01*
X123347619Y-101357142D02*
X123395238Y-101261904D01*
X123442857Y-101214285D01*
X123538095Y-101166666D01*
X123823809Y-101166666D01*
X123919047Y-101214285D01*
X123966666Y-101261904D01*
X124014285Y-101357142D01*
X124014285Y-101500000D01*
X123966666Y-101595238D01*
X123919047Y-101642857D01*
X123823809Y-101690476D01*
X123538095Y-101690476D01*
X123442857Y-101642857D01*
X123395238Y-101595238D01*
X123347619Y-101500000D01*
X123347619Y-101357142D01*
X124014285Y-101976190D02*
X124014285Y-102357142D01*
X124347619Y-102119047D02*
X123490476Y-102119047D01*
X123395238Y-102166666D01*
X123347619Y-102261904D01*
X123347619Y-102357142D01*
X123347619Y-102833333D02*
X123395238Y-102738095D01*
X123442857Y-102690476D01*
X123538095Y-102642857D01*
X123823809Y-102642857D01*
X123919047Y-102690476D01*
X123966666Y-102738095D01*
X124014285Y-102833333D01*
X124014285Y-102976190D01*
X123966666Y-103071428D01*
X123919047Y-103119047D01*
X123823809Y-103166666D01*
X123538095Y-103166666D01*
X123442857Y-103119047D01*
X123395238Y-103071428D01*
X123347619Y-102976190D01*
X123347619Y-102833333D01*
X123347619Y-103595238D02*
X124014285Y-103595238D01*
X123823809Y-103595238D02*
X123919047Y-103642857D01*
X123966666Y-103690476D01*
X124014285Y-103785714D01*
X124014285Y-103880952D01*
X123728571Y-104214285D02*
X123728571Y-104976190D01*
X124347619Y-105642857D02*
X124347619Y-105738095D01*
X124300000Y-105833333D01*
X124252380Y-105880952D01*
X124157142Y-105928571D01*
X123966666Y-105976190D01*
X123728571Y-105976190D01*
X123538095Y-105928571D01*
X123442857Y-105880952D01*
X123395238Y-105833333D01*
X123347619Y-105738095D01*
X123347619Y-105642857D01*
X123395238Y-105547619D01*
X123442857Y-105500000D01*
X123538095Y-105452380D01*
X123728571Y-105404761D01*
X123966666Y-105404761D01*
X124157142Y-105452380D01*
X124252380Y-105500000D01*
X124300000Y-105547619D01*
X124347619Y-105642857D01*
D11*
X125778095Y-115649428D02*
X125778095Y-115268476D01*
X126578095Y-115268476D01*
X126197142Y-115916095D02*
X126197142Y-116182761D01*
X125778095Y-116297047D02*
X125778095Y-115916095D01*
X126578095Y-115916095D01*
X126578095Y-116297047D01*
X125778095Y-116639904D02*
X126578095Y-116639904D01*
X126578095Y-116830380D01*
X126540000Y-116944666D01*
X126463809Y-117020857D01*
X126387619Y-117058952D01*
X126235238Y-117097047D01*
X126120952Y-117097047D01*
X125968571Y-117058952D01*
X125892380Y-117020857D01*
X125816190Y-116944666D01*
X125778095Y-116830380D01*
X125778095Y-116639904D01*
X125258095Y-115420857D02*
X125258095Y-115497047D01*
X125220000Y-115573238D01*
X125181904Y-115611333D01*
X125105714Y-115649428D01*
X124953333Y-115687523D01*
X124762857Y-115687523D01*
X124610476Y-115649428D01*
X124534285Y-115611333D01*
X124496190Y-115573238D01*
X124458095Y-115497047D01*
X124458095Y-115420857D01*
X124496190Y-115344666D01*
X124534285Y-115306571D01*
X124610476Y-115268476D01*
X124762857Y-115230380D01*
X124953333Y-115230380D01*
X125105714Y-115268476D01*
X125181904Y-115306571D01*
X125220000Y-115344666D01*
X125258095Y-115420857D01*
X125258095Y-116182761D02*
X125258095Y-116258952D01*
X125220000Y-116335142D01*
X125181904Y-116373238D01*
X125105714Y-116411333D01*
X124953333Y-116449428D01*
X124762857Y-116449428D01*
X124610476Y-116411333D01*
X124534285Y-116373238D01*
X124496190Y-116335142D01*
X124458095Y-116258952D01*
X124458095Y-116182761D01*
X124496190Y-116106571D01*
X124534285Y-116068476D01*
X124610476Y-116030380D01*
X124762857Y-115992285D01*
X124953333Y-115992285D01*
X125105714Y-116030380D01*
X125181904Y-116068476D01*
X125220000Y-116106571D01*
X125258095Y-116182761D01*
X124762857Y-117401809D02*
X124762857Y-118011333D01*
X124991428Y-118392285D02*
X124762857Y-119001809D01*
X124534285Y-118392285D01*
X124877142Y-120258952D02*
X124877142Y-119992285D01*
X124458095Y-119992285D02*
X125258095Y-119992285D01*
X125258095Y-120373238D01*
X124458095Y-120678000D02*
X124991428Y-120678000D01*
X124839047Y-120678000D02*
X124915238Y-120716095D01*
X124953333Y-120754190D01*
X124991428Y-120830380D01*
X124991428Y-120906571D01*
X124496190Y-121478000D02*
X124458095Y-121401809D01*
X124458095Y-121249428D01*
X124496190Y-121173238D01*
X124572380Y-121135142D01*
X124877142Y-121135142D01*
X124953333Y-121173238D01*
X124991428Y-121249428D01*
X124991428Y-121401809D01*
X124953333Y-121478000D01*
X124877142Y-121516095D01*
X124800952Y-121516095D01*
X124724761Y-121135142D01*
X124496190Y-122163714D02*
X124458095Y-122087523D01*
X124458095Y-121935142D01*
X124496190Y-121858952D01*
X124572380Y-121820857D01*
X124877142Y-121820857D01*
X124953333Y-121858952D01*
X124991428Y-121935142D01*
X124991428Y-122087523D01*
X124953333Y-122163714D01*
X124877142Y-122201809D01*
X124800952Y-122201809D01*
X124724761Y-121820857D01*
X123938095Y-115420857D02*
X123938095Y-115497047D01*
X123900000Y-115573238D01*
X123861904Y-115611333D01*
X123785714Y-115649428D01*
X123633333Y-115687523D01*
X123442857Y-115687523D01*
X123290476Y-115649428D01*
X123214285Y-115611333D01*
X123176190Y-115573238D01*
X123138095Y-115497047D01*
X123138095Y-115420857D01*
X123176190Y-115344666D01*
X123214285Y-115306571D01*
X123290476Y-115268476D01*
X123442857Y-115230380D01*
X123633333Y-115230380D01*
X123785714Y-115268476D01*
X123861904Y-115306571D01*
X123900000Y-115344666D01*
X123938095Y-115420857D01*
X123138095Y-116449428D02*
X123138095Y-115992285D01*
X123138095Y-116220857D02*
X123938095Y-116220857D01*
X123823809Y-116144666D01*
X123747619Y-116068476D01*
X123709523Y-115992285D01*
X123442857Y-117401809D02*
X123442857Y-118011333D01*
X123671428Y-118392285D02*
X123442857Y-119001809D01*
X123214285Y-118392285D01*
X123214285Y-120449428D02*
X123176190Y-120411333D01*
X123138095Y-120297047D01*
X123138095Y-120220857D01*
X123176190Y-120106571D01*
X123252380Y-120030380D01*
X123328571Y-119992285D01*
X123480952Y-119954190D01*
X123595238Y-119954190D01*
X123747619Y-119992285D01*
X123823809Y-120030380D01*
X123900000Y-120106571D01*
X123938095Y-120220857D01*
X123938095Y-120297047D01*
X123900000Y-120411333D01*
X123861904Y-120449428D01*
X123938095Y-120716095D02*
X123138095Y-120906571D01*
X123709523Y-121058952D01*
X123138095Y-121211333D01*
X123938095Y-121401809D01*
X121818095Y-115687523D02*
X121818095Y-115230380D01*
X121818095Y-115458952D02*
X122618095Y-115458952D01*
X122503809Y-115382761D01*
X122427619Y-115306571D01*
X122389523Y-115230380D01*
X122618095Y-116182761D02*
X122618095Y-116258952D01*
X122580000Y-116335142D01*
X122541904Y-116373238D01*
X122465714Y-116411333D01*
X122313333Y-116449428D01*
X122122857Y-116449428D01*
X121970476Y-116411333D01*
X121894285Y-116373238D01*
X121856190Y-116335142D01*
X121818095Y-116258952D01*
X121818095Y-116182761D01*
X121856190Y-116106571D01*
X121894285Y-116068476D01*
X121970476Y-116030380D01*
X122122857Y-115992285D01*
X122313333Y-115992285D01*
X122465714Y-116030380D01*
X122541904Y-116068476D01*
X122580000Y-116106571D01*
X122618095Y-116182761D01*
X122122857Y-117401809D02*
X122122857Y-118011333D01*
X122351428Y-118392285D02*
X122122857Y-119001809D01*
X121894285Y-118392285D01*
X121894285Y-120449428D02*
X121856190Y-120411333D01*
X121818095Y-120297047D01*
X121818095Y-120220857D01*
X121856190Y-120106571D01*
X121932380Y-120030380D01*
X122008571Y-119992285D01*
X122160952Y-119954190D01*
X122275238Y-119954190D01*
X122427619Y-119992285D01*
X122503809Y-120030380D01*
X122580000Y-120106571D01*
X122618095Y-120220857D01*
X122618095Y-120297047D01*
X122580000Y-120411333D01*
X122541904Y-120449428D01*
X121894285Y-121249428D02*
X121856190Y-121211333D01*
X121818095Y-121097047D01*
X121818095Y-121020857D01*
X121856190Y-120906571D01*
X121932380Y-120830380D01*
X122008571Y-120792285D01*
X122160952Y-120754190D01*
X122275238Y-120754190D01*
X122427619Y-120792285D01*
X122503809Y-120830380D01*
X122580000Y-120906571D01*
X122618095Y-121020857D01*
X122618095Y-121097047D01*
X122580000Y-121211333D01*
X122541904Y-121249428D01*
X122618095Y-121516095D02*
X121818095Y-121706571D01*
X122389523Y-121858952D01*
X121818095Y-122011333D01*
X122618095Y-122201809D01*
X120498095Y-115687523D02*
X120498095Y-115230380D01*
X120498095Y-115458952D02*
X121298095Y-115458952D01*
X121183809Y-115382761D01*
X121107619Y-115306571D01*
X121069523Y-115230380D01*
X120498095Y-116449428D02*
X120498095Y-115992285D01*
X120498095Y-116220857D02*
X121298095Y-116220857D01*
X121183809Y-116144666D01*
X121107619Y-116068476D01*
X121069523Y-115992285D01*
X120802857Y-117401809D02*
X120802857Y-118011333D01*
X121031428Y-118392285D02*
X120802857Y-119001809D01*
X120574285Y-118392285D01*
X120917142Y-120258952D02*
X120879047Y-120373238D01*
X120840952Y-120411333D01*
X120764761Y-120449428D01*
X120650476Y-120449428D01*
X120574285Y-120411333D01*
X120536190Y-120373238D01*
X120498095Y-120297047D01*
X120498095Y-119992285D01*
X121298095Y-119992285D01*
X121298095Y-120258952D01*
X121260000Y-120335142D01*
X121221904Y-120373238D01*
X121145714Y-120411333D01*
X121069523Y-120411333D01*
X120993333Y-120373238D01*
X120955238Y-120335142D01*
X120917142Y-120258952D01*
X120917142Y-119992285D01*
X120498095Y-120792285D02*
X121031428Y-120792285D01*
X120879047Y-120792285D02*
X120955238Y-120830380D01*
X120993333Y-120868476D01*
X121031428Y-120944666D01*
X121031428Y-121020857D01*
X120498095Y-121630380D02*
X120917142Y-121630380D01*
X120993333Y-121592285D01*
X121031428Y-121516095D01*
X121031428Y-121363714D01*
X120993333Y-121287523D01*
X120536190Y-121630380D02*
X120498095Y-121554190D01*
X120498095Y-121363714D01*
X120536190Y-121287523D01*
X120612380Y-121249428D01*
X120688571Y-121249428D01*
X120764761Y-121287523D01*
X120802857Y-121363714D01*
X120802857Y-121554190D01*
X120840952Y-121630380D01*
X120498095Y-122011333D02*
X121298095Y-122011333D01*
X120802857Y-122087523D02*
X120498095Y-122316095D01*
X121031428Y-122316095D02*
X120726666Y-122011333D01*
X120536190Y-122963714D02*
X120498095Y-122887523D01*
X120498095Y-122735142D01*
X120536190Y-122658952D01*
X120612380Y-122620857D01*
X120917142Y-122620857D01*
X120993333Y-122658952D01*
X121031428Y-122735142D01*
X121031428Y-122887523D01*
X120993333Y-122963714D01*
X120917142Y-123001809D01*
X120840952Y-123001809D01*
X120764761Y-122620857D01*
D13*
X203678571Y-100392857D02*
X202178571Y-100392857D01*
X203250000Y-99892857D01*
X202178571Y-99392857D01*
X203678571Y-99392857D01*
X203678571Y-98464285D02*
X203607142Y-98607142D01*
X203535714Y-98678571D01*
X203392857Y-98750000D01*
X202964285Y-98750000D01*
X202821428Y-98678571D01*
X202750000Y-98607142D01*
X202678571Y-98464285D01*
X202678571Y-98250000D01*
X202750000Y-98107142D01*
X202821428Y-98035714D01*
X202964285Y-97964285D01*
X203392857Y-97964285D01*
X203535714Y-98035714D01*
X203607142Y-98107142D01*
X203678571Y-98250000D01*
X203678571Y-98464285D01*
X202678571Y-97535714D02*
X202678571Y-96964285D01*
X202178571Y-97321428D02*
X203464285Y-97321428D01*
X203607142Y-97250000D01*
X203678571Y-97107142D01*
X203678571Y-96964285D01*
X203678571Y-96250000D02*
X203607142Y-96392857D01*
X203535714Y-96464285D01*
X203392857Y-96535714D01*
X202964285Y-96535714D01*
X202821428Y-96464285D01*
X202750000Y-96392857D01*
X202678571Y-96250000D01*
X202678571Y-96035714D01*
X202750000Y-95892857D01*
X202821428Y-95821428D01*
X202964285Y-95750000D01*
X203392857Y-95750000D01*
X203535714Y-95821428D01*
X203607142Y-95892857D01*
X203678571Y-96035714D01*
X203678571Y-96250000D01*
X203678571Y-95107142D02*
X202678571Y-95107142D01*
X202964285Y-95107142D02*
X202821428Y-95035714D01*
X202750000Y-94964285D01*
X202678571Y-94821428D01*
X202678571Y-94678571D01*
X203107142Y-94178571D02*
X203107142Y-93035714D01*
X202178571Y-92035714D02*
X202178571Y-91892857D01*
X202250000Y-91750000D01*
X202321428Y-91678571D01*
X202464285Y-91607142D01*
X202750000Y-91535714D01*
X203107142Y-91535714D01*
X203392857Y-91607142D01*
X203535714Y-91678571D01*
X203607142Y-91750000D01*
X203678571Y-91892857D01*
X203678571Y-92035714D01*
X203607142Y-92178571D01*
X203535714Y-92250000D01*
X203392857Y-92321428D01*
X203107142Y-92392857D01*
X202750000Y-92392857D01*
X202464285Y-92321428D01*
X202321428Y-92250000D01*
X202250000Y-92178571D01*
X202178571Y-92035714D01*
X203678571Y-119392857D02*
X202178571Y-119392857D01*
X203250000Y-118892857D01*
X202178571Y-118392857D01*
X203678571Y-118392857D01*
X203678571Y-117464285D02*
X203607142Y-117607142D01*
X203535714Y-117678571D01*
X203392857Y-117750000D01*
X202964285Y-117750000D01*
X202821428Y-117678571D01*
X202750000Y-117607142D01*
X202678571Y-117464285D01*
X202678571Y-117250000D01*
X202750000Y-117107142D01*
X202821428Y-117035714D01*
X202964285Y-116964285D01*
X203392857Y-116964285D01*
X203535714Y-117035714D01*
X203607142Y-117107142D01*
X203678571Y-117250000D01*
X203678571Y-117464285D01*
X202678571Y-116535714D02*
X202678571Y-115964285D01*
X202178571Y-116321428D02*
X203464285Y-116321428D01*
X203607142Y-116250000D01*
X203678571Y-116107142D01*
X203678571Y-115964285D01*
X203678571Y-115250000D02*
X203607142Y-115392857D01*
X203535714Y-115464285D01*
X203392857Y-115535714D01*
X202964285Y-115535714D01*
X202821428Y-115464285D01*
X202750000Y-115392857D01*
X202678571Y-115250000D01*
X202678571Y-115035714D01*
X202750000Y-114892857D01*
X202821428Y-114821428D01*
X202964285Y-114750000D01*
X203392857Y-114750000D01*
X203535714Y-114821428D01*
X203607142Y-114892857D01*
X203678571Y-115035714D01*
X203678571Y-115250000D01*
X203678571Y-114107142D02*
X202678571Y-114107142D01*
X202964285Y-114107142D02*
X202821428Y-114035714D01*
X202750000Y-113964285D01*
X202678571Y-113821428D01*
X202678571Y-113678571D01*
X203107142Y-113178571D02*
X203107142Y-112035714D01*
X203678571Y-110535714D02*
X203678571Y-111392857D01*
X203678571Y-110964285D02*
X202178571Y-110964285D01*
X202392857Y-111107142D01*
X202535714Y-111250000D01*
X202607142Y-111392857D01*
D11*
X124614285Y-126261904D02*
X124576190Y-126223809D01*
X124538095Y-126109523D01*
X124538095Y-126033333D01*
X124576190Y-125919047D01*
X124652380Y-125842857D01*
X124728571Y-125804761D01*
X124880952Y-125766666D01*
X124995238Y-125766666D01*
X125147619Y-125804761D01*
X125223809Y-125842857D01*
X125300000Y-125919047D01*
X125338095Y-126033333D01*
X125338095Y-126109523D01*
X125300000Y-126223809D01*
X125261904Y-126261904D01*
X124766666Y-126566666D02*
X124766666Y-126947619D01*
X124538095Y-126490476D02*
X125338095Y-126757142D01*
X124538095Y-127023809D01*
X124538095Y-127290476D02*
X125338095Y-127290476D01*
X124538095Y-127747619D01*
X125338095Y-127747619D01*
X124538095Y-128509523D02*
X124538095Y-128128571D01*
X125338095Y-128128571D01*
X125714285Y-126266666D02*
X125676190Y-126228571D01*
X125638095Y-126114285D01*
X125638095Y-126038095D01*
X125676190Y-125923809D01*
X125752380Y-125847619D01*
X125828571Y-125809523D01*
X125980952Y-125771428D01*
X126095238Y-125771428D01*
X126247619Y-125809523D01*
X126323809Y-125847619D01*
X126400000Y-125923809D01*
X126438095Y-126038095D01*
X126438095Y-126114285D01*
X126400000Y-126228571D01*
X126361904Y-126266666D01*
X125866666Y-126571428D02*
X125866666Y-126952380D01*
X125638095Y-126495238D02*
X126438095Y-126761904D01*
X125638095Y-127028571D01*
X125638095Y-127295238D02*
X126438095Y-127295238D01*
X125638095Y-127752380D01*
X126438095Y-127752380D01*
X125638095Y-128133333D02*
X126438095Y-128133333D01*
X126057142Y-128133333D02*
X126057142Y-128590476D01*
X125638095Y-128590476D02*
X126438095Y-128590476D01*
D12*
X123547619Y-108171428D02*
X124547619Y-108171428D01*
X123833333Y-108504761D01*
X124547619Y-108838095D01*
X123547619Y-108838095D01*
X123547619Y-109457142D02*
X123595238Y-109361904D01*
X123642857Y-109314285D01*
X123738095Y-109266666D01*
X124023809Y-109266666D01*
X124119047Y-109314285D01*
X124166666Y-109361904D01*
X124214285Y-109457142D01*
X124214285Y-109600000D01*
X124166666Y-109695238D01*
X124119047Y-109742857D01*
X124023809Y-109790476D01*
X123738095Y-109790476D01*
X123642857Y-109742857D01*
X123595238Y-109695238D01*
X123547619Y-109600000D01*
X123547619Y-109457142D01*
X124214285Y-110076190D02*
X124214285Y-110457142D01*
X124547619Y-110219047D02*
X123690476Y-110219047D01*
X123595238Y-110266666D01*
X123547619Y-110361904D01*
X123547619Y-110457142D01*
X123547619Y-110933333D02*
X123595238Y-110838095D01*
X123642857Y-110790476D01*
X123738095Y-110742857D01*
X124023809Y-110742857D01*
X124119047Y-110790476D01*
X124166666Y-110838095D01*
X124214285Y-110933333D01*
X124214285Y-111076190D01*
X124166666Y-111171428D01*
X124119047Y-111219047D01*
X124023809Y-111266666D01*
X123738095Y-111266666D01*
X123642857Y-111219047D01*
X123595238Y-111171428D01*
X123547619Y-111076190D01*
X123547619Y-110933333D01*
X123547619Y-111695238D02*
X124214285Y-111695238D01*
X124023809Y-111695238D02*
X124119047Y-111742857D01*
X124166666Y-111790476D01*
X124214285Y-111885714D01*
X124214285Y-111980952D01*
X123928571Y-112314285D02*
X123928571Y-113076190D01*
X123547619Y-114076190D02*
X123547619Y-113504761D01*
X123547619Y-113790476D02*
X124547619Y-113790476D01*
X124404761Y-113695238D01*
X124309523Y-113600000D01*
X124261904Y-113504761D01*
D11*
X130240000Y-58687221D02*
X130240000Y-59012779D01*
X131260000Y-58687221D02*
X131260000Y-59012779D01*
X148096078Y-46106000D02*
X147578922Y-46106000D01*
X148096078Y-47526000D02*
X147578922Y-47526000D01*
X159348000Y-71121078D02*
X159348000Y-70603922D01*
X157928000Y-71121078D02*
X157928000Y-70603922D01*
X157928000Y-66003922D02*
X157928000Y-66521078D01*
X159348000Y-66003922D02*
X159348000Y-66521078D01*
X159410000Y-56821078D02*
X159410000Y-56303922D01*
X157990000Y-56821078D02*
X157990000Y-56303922D01*
X173037221Y-74310000D02*
X173362779Y-74310000D01*
X173037221Y-73290000D02*
X173362779Y-73290000D01*
D14*
X154447000Y-72952000D02*
X152972000Y-72952000D01*
D11*
X128510000Y-67203922D02*
X128510000Y-67721078D01*
X127090000Y-67203922D02*
X127090000Y-67721078D01*
D14*
X154447000Y-58474000D02*
X152972000Y-58474000D01*
D11*
X148058578Y-62004000D02*
X147541422Y-62004000D01*
X148058578Y-60584000D02*
X147541422Y-60584000D01*
X159402000Y-52058578D02*
X159402000Y-51541422D01*
X157982000Y-52058578D02*
X157982000Y-51541422D01*
X128510000Y-72941422D02*
X128510000Y-73458578D01*
X127090000Y-72941422D02*
X127090000Y-73458578D01*
X154112000Y-46081000D02*
X151827000Y-46081000D01*
X151827000Y-46081000D02*
X151827000Y-47551000D01*
X151827000Y-47551000D02*
X154112000Y-47551000D01*
X122645500Y-54209000D02*
X120360500Y-54209000D01*
X120360500Y-54209000D02*
X120360500Y-55679000D01*
X120360500Y-55679000D02*
X122645500Y-55679000D01*
X127250000Y-61320000D02*
X126450000Y-61320000D01*
X127250000Y-57880000D02*
X126450000Y-57880000D01*
X122620000Y-51161000D02*
X120335000Y-51161000D01*
X120335000Y-51161000D02*
X120335000Y-52631000D01*
X120335000Y-52631000D02*
X122620000Y-52631000D01*
X143960000Y-62341422D02*
X143960000Y-62858578D01*
X142540000Y-62341422D02*
X142540000Y-62858578D01*
X144460000Y-47891422D02*
X144460000Y-48408578D01*
X143040000Y-47891422D02*
X143040000Y-48408578D01*
X122645500Y-58983000D02*
X120360500Y-58983000D01*
X120360500Y-58983000D02*
X120360500Y-60453000D01*
X120360500Y-60453000D02*
X122645500Y-60453000D01*
X154112000Y-60559000D02*
X151827000Y-60559000D01*
X151827000Y-60559000D02*
X151827000Y-62029000D01*
X151827000Y-62029000D02*
X154112000Y-62029000D01*
X136460000Y-73310000D02*
X136460000Y-72050000D01*
X136460000Y-66490000D02*
X136460000Y-67750000D01*
X132700000Y-73310000D02*
X136460000Y-73310000D01*
X130450000Y-66490000D02*
X136460000Y-66490000D01*
X122645500Y-62031000D02*
X120360500Y-62031000D01*
X120360500Y-62031000D02*
X120360500Y-63501000D01*
X120360500Y-63501000D02*
X122645500Y-63501000D01*
X193850279Y-35990000D02*
X193524721Y-35990000D01*
X193850279Y-37010000D02*
X193524721Y-37010000D01*
X173037221Y-55210000D02*
X173362779Y-55210000D01*
X173037221Y-54190000D02*
X173362779Y-54190000D01*
X142324279Y-66275000D02*
X141998721Y-66275000D01*
X142324279Y-67295000D02*
X141998721Y-67295000D01*
X142298779Y-71990000D02*
X141973221Y-71990000D01*
X142298779Y-73010000D02*
X141973221Y-73010000D01*
X170175279Y-55890000D02*
X169849721Y-55890000D01*
X170175279Y-56910000D02*
X169849721Y-56910000D01*
X193463521Y-73990000D02*
X193789079Y-73990000D01*
X193463521Y-75010000D02*
X193789079Y-75010000D01*
X142324279Y-51636000D02*
X141998721Y-51636000D01*
X142324279Y-52656000D02*
X141998721Y-52656000D01*
X173775279Y-36790000D02*
X173449721Y-36790000D01*
X173775279Y-37810000D02*
X173449721Y-37810000D01*
X142298779Y-69240000D02*
X141973221Y-69240000D01*
X142298779Y-70260000D02*
X141973221Y-70260000D01*
X198049721Y-36610000D02*
X198375279Y-36610000D01*
X198049721Y-35590000D02*
X198375279Y-35590000D01*
D14*
X120838000Y-45694000D02*
X120838000Y-38894000D01*
X120838000Y-38894000D02*
X131938000Y-38894000D01*
X131938000Y-38894000D02*
X131938000Y-45694000D01*
X131938000Y-45694000D02*
X120838000Y-45694000D01*
X121828000Y-47644000D02*
X121828000Y-46044000D01*
D11*
X194103279Y-55090000D02*
X193777721Y-55090000D01*
X194103279Y-56110000D02*
X193777721Y-56110000D01*
X142324279Y-54490000D02*
X141998721Y-54490000D01*
X142324279Y-55510000D02*
X141998721Y-55510000D01*
X142324279Y-57240000D02*
X141998721Y-57240000D01*
X142324279Y-58260000D02*
X141998721Y-58260000D01*
X136259400Y-38870000D02*
X136259400Y-41530000D01*
X141399400Y-38870000D02*
X136259400Y-38870000D01*
X141399400Y-41530000D02*
X136259400Y-41530000D01*
X141399400Y-38870000D02*
X141399400Y-41530000D01*
X142669400Y-38870000D02*
X143999400Y-38870000D01*
X143999400Y-38870000D02*
X143999400Y-40200000D01*
X204670000Y-78950000D02*
X204670000Y-84750000D01*
X133370000Y-78950000D02*
X133370000Y-84750000D01*
X133370000Y-84750000D02*
X204670000Y-84750000D01*
X204670000Y-78950000D02*
X133370000Y-78950000D01*
X120270000Y-84750000D02*
X120270000Y-78950000D01*
X131570000Y-84750000D02*
X120270000Y-84750000D01*
X131570000Y-78950000D02*
X131570000Y-84750000D01*
X120270000Y-78950000D02*
X131570000Y-78950000D01*
X133370000Y-75750000D02*
X133370000Y-78950000D01*
X131570000Y-75750000D02*
X133370000Y-75750000D01*
X131570000Y-78950000D02*
X131570000Y-75750000D01*
D10*
X169148000Y-67450000D02*
X169598000Y-67450000D01*
X169148000Y-62550000D02*
X169598000Y-62550000D01*
X174098000Y-67450000D02*
X175048000Y-67450000D01*
X175048000Y-62550000D02*
X174098000Y-62550000D01*
D14*
X175898000Y-67000000D02*
X175898000Y-67000000D01*
X175898000Y-66800000D02*
X175898000Y-66800000D01*
X175898000Y-66800000D02*
G75*
G03X175898000Y-67000000I0J-100000D01*
G01*
X175898000Y-67000000D02*
G75*
G03X175898000Y-66800000I0J100000D01*
G01*
D10*
X189545000Y-67510000D02*
X189995000Y-67510000D01*
X189545000Y-62610000D02*
X189995000Y-62610000D01*
X194495000Y-67510000D02*
X195445000Y-67510000D01*
X195445000Y-62610000D02*
X194495000Y-62610000D01*
D14*
X196295000Y-67060000D02*
X196295000Y-67060000D01*
X196295000Y-66860000D02*
X196295000Y-66860000D01*
X196295000Y-66860000D02*
G75*
G03X196295000Y-67060000I0J-100000D01*
G01*
X196295000Y-67060000D02*
G75*
G03X196295000Y-66860000I0J100000D01*
G01*
D10*
X189545000Y-48550000D02*
X189995000Y-48550000D01*
X189545000Y-43650000D02*
X189995000Y-43650000D01*
X194495000Y-48550000D02*
X195445000Y-48550000D01*
X195445000Y-43650000D02*
X194495000Y-43650000D01*
D14*
X196295000Y-48100000D02*
X196295000Y-48100000D01*
X196295000Y-47900000D02*
X196295000Y-47900000D01*
X196295000Y-47900000D02*
G75*
G03X196295000Y-48100000I0J-100000D01*
G01*
X196295000Y-48100000D02*
G75*
G03X196295000Y-47900000I0J100000D01*
G01*
D10*
X169148000Y-48650000D02*
X169598000Y-48650000D01*
X169148000Y-43750000D02*
X169598000Y-43750000D01*
X174098000Y-48650000D02*
X175048000Y-48650000D01*
X175048000Y-43750000D02*
X174098000Y-43750000D01*
D14*
X175898000Y-48200000D02*
X175898000Y-48200000D01*
X175898000Y-48000000D02*
X175898000Y-48000000D01*
X175898000Y-48000000D02*
G75*
G03X175898000Y-48200000I0J-100000D01*
G01*
X175898000Y-48200000D02*
G75*
G03X175898000Y-48000000I0J100000D01*
G01*
D11*
X127090000Y-122941422D02*
X127090000Y-123458578D01*
X128510000Y-122941422D02*
X128510000Y-123458578D01*
X127090000Y-117203922D02*
X127090000Y-117721078D01*
X128510000Y-117203922D02*
X128510000Y-117721078D01*
X157928000Y-121121078D02*
X157928000Y-120603922D01*
X159348000Y-121121078D02*
X159348000Y-120603922D01*
X159348000Y-116003922D02*
X159348000Y-116521078D01*
X157928000Y-116003922D02*
X157928000Y-116521078D01*
X148058578Y-110584000D02*
X147541422Y-110584000D01*
X148058578Y-112004000D02*
X147541422Y-112004000D01*
X157990000Y-106821078D02*
X157990000Y-106303922D01*
X159410000Y-106821078D02*
X159410000Y-106303922D01*
X157982000Y-102058578D02*
X157982000Y-101541422D01*
X159402000Y-102058578D02*
X159402000Y-101541422D01*
X148096078Y-97526000D02*
X147578922Y-97526000D01*
X148096078Y-96106000D02*
X147578922Y-96106000D01*
D14*
X154447000Y-122952000D02*
X152972000Y-122952000D01*
X154447000Y-108474000D02*
X152972000Y-108474000D01*
D11*
X131260000Y-108687221D02*
X131260000Y-109012779D01*
X130240000Y-108687221D02*
X130240000Y-109012779D01*
X173037221Y-123290000D02*
X173362779Y-123290000D01*
X173037221Y-124310000D02*
X173362779Y-124310000D01*
X170175279Y-106910000D02*
X169849721Y-106910000D01*
X170175279Y-105890000D02*
X169849721Y-105890000D01*
X173037221Y-104190000D02*
X173362779Y-104190000D01*
X173037221Y-105210000D02*
X173362779Y-105210000D01*
X173775279Y-87810000D02*
X173449721Y-87810000D01*
X173775279Y-86790000D02*
X173449721Y-86790000D01*
X193463521Y-125010000D02*
X193789079Y-125010000D01*
X193463521Y-123990000D02*
X193789079Y-123990000D01*
X194103279Y-106110000D02*
X193777721Y-106110000D01*
X194103279Y-105090000D02*
X193777721Y-105090000D01*
X142324279Y-117295000D02*
X141998721Y-117295000D01*
X142324279Y-116275000D02*
X141998721Y-116275000D01*
X142298779Y-120260000D02*
X141973221Y-120260000D01*
X142298779Y-119240000D02*
X141973221Y-119240000D01*
X142298779Y-123010000D02*
X141973221Y-123010000D01*
X142298779Y-121990000D02*
X141973221Y-121990000D01*
X198049721Y-85590000D02*
X198375279Y-85590000D01*
X198049721Y-86610000D02*
X198375279Y-86610000D01*
X193850279Y-87010000D02*
X193524721Y-87010000D01*
X193850279Y-85990000D02*
X193524721Y-85990000D01*
X142324279Y-102656000D02*
X141998721Y-102656000D01*
X142324279Y-101636000D02*
X141998721Y-101636000D01*
X142324279Y-105510000D02*
X141998721Y-105510000D01*
X142324279Y-104490000D02*
X141998721Y-104490000D01*
X142324279Y-108260000D02*
X141998721Y-108260000D01*
X142324279Y-107240000D02*
X141998721Y-107240000D01*
D14*
X121828000Y-97644000D02*
X121828000Y-96044000D01*
X131938000Y-95694000D02*
X120838000Y-95694000D01*
X131938000Y-88894000D02*
X131938000Y-95694000D01*
X120838000Y-88894000D02*
X131938000Y-88894000D01*
X120838000Y-95694000D02*
X120838000Y-88894000D01*
D11*
X151827000Y-112029000D02*
X154112000Y-112029000D01*
X151827000Y-110559000D02*
X151827000Y-112029000D01*
X154112000Y-110559000D02*
X151827000Y-110559000D01*
X151827000Y-97551000D02*
X154112000Y-97551000D01*
X151827000Y-96081000D02*
X151827000Y-97551000D01*
X154112000Y-96081000D02*
X151827000Y-96081000D01*
X130450000Y-116490000D02*
X136460000Y-116490000D01*
X132700000Y-123310000D02*
X136460000Y-123310000D01*
X136460000Y-116490000D02*
X136460000Y-117750000D01*
X136460000Y-123310000D02*
X136460000Y-122050000D01*
X142540000Y-112341422D02*
X142540000Y-112858578D01*
X143960000Y-112341422D02*
X143960000Y-112858578D01*
X143040000Y-97891422D02*
X143040000Y-98408578D01*
X144460000Y-97891422D02*
X144460000Y-98408578D01*
X120335000Y-102631000D02*
X122620000Y-102631000D01*
X120335000Y-101161000D02*
X120335000Y-102631000D01*
X122620000Y-101161000D02*
X120335000Y-101161000D01*
X120360500Y-105679000D02*
X122645500Y-105679000D01*
X120360500Y-104209000D02*
X120360500Y-105679000D01*
X122645500Y-104209000D02*
X120360500Y-104209000D01*
X120360500Y-110453000D02*
X122645500Y-110453000D01*
X120360500Y-108983000D02*
X120360500Y-110453000D01*
X122645500Y-108983000D02*
X120360500Y-108983000D01*
X120360500Y-113501000D02*
X122645500Y-113501000D01*
X120360500Y-112031000D02*
X120360500Y-113501000D01*
X122645500Y-112031000D02*
X120360500Y-112031000D01*
X127250000Y-107880000D02*
X126450000Y-107880000D01*
X127250000Y-111320000D02*
X126450000Y-111320000D01*
X131570000Y-128950000D02*
X131570000Y-125750000D01*
X131570000Y-125750000D02*
X133370000Y-125750000D01*
X133370000Y-125750000D02*
X133370000Y-128950000D01*
X120270000Y-128950000D02*
X131570000Y-128950000D01*
X131570000Y-128950000D02*
X131570000Y-134750000D01*
X131570000Y-134750000D02*
X120270000Y-134750000D01*
X120270000Y-134750000D02*
X120270000Y-128950000D01*
X204670000Y-128950000D02*
X133370000Y-128950000D01*
X133370000Y-134750000D02*
X204670000Y-134750000D01*
X133370000Y-128950000D02*
X133370000Y-134750000D01*
X204670000Y-128950000D02*
X204670000Y-134750000D01*
X143999400Y-88870000D02*
X143999400Y-90200000D01*
X142669400Y-88870000D02*
X143999400Y-88870000D01*
X141399400Y-88870000D02*
X141399400Y-91530000D01*
X141399400Y-91530000D02*
X136259400Y-91530000D01*
X141399400Y-88870000D02*
X136259400Y-88870000D01*
X136259400Y-88870000D02*
X136259400Y-91530000D01*
D14*
X175898000Y-117000000D02*
G75*
G03X175898000Y-116800000I0J100000D01*
G01*
X175898000Y-116800000D02*
G75*
G03X175898000Y-117000000I0J-100000D01*
G01*
X175898000Y-116800000D02*
X175898000Y-116800000D01*
X175898000Y-117000000D02*
X175898000Y-117000000D01*
D10*
X175048000Y-112550000D02*
X174098000Y-112550000D01*
X174098000Y-117450000D02*
X175048000Y-117450000D01*
X169148000Y-112550000D02*
X169598000Y-112550000D01*
X169148000Y-117450000D02*
X169598000Y-117450000D01*
D14*
X196295000Y-117060000D02*
G75*
G03X196295000Y-116860000I0J100000D01*
G01*
X196295000Y-116860000D02*
G75*
G03X196295000Y-117060000I0J-100000D01*
G01*
X196295000Y-116860000D02*
X196295000Y-116860000D01*
X196295000Y-117060000D02*
X196295000Y-117060000D01*
D10*
X195445000Y-112610000D02*
X194495000Y-112610000D01*
X194495000Y-117510000D02*
X195445000Y-117510000D01*
X189545000Y-112610000D02*
X189995000Y-112610000D01*
X189545000Y-117510000D02*
X189995000Y-117510000D01*
D14*
X196295000Y-98100000D02*
G75*
G03X196295000Y-97900000I0J100000D01*
G01*
X196295000Y-97900000D02*
G75*
G03X196295000Y-98100000I0J-100000D01*
G01*
X196295000Y-97900000D02*
X196295000Y-97900000D01*
X196295000Y-98100000D02*
X196295000Y-98100000D01*
D10*
X195445000Y-93650000D02*
X194495000Y-93650000D01*
X194495000Y-98550000D02*
X195445000Y-98550000D01*
X189545000Y-93650000D02*
X189995000Y-93650000D01*
X189545000Y-98550000D02*
X189995000Y-98550000D01*
D14*
X175898000Y-98200000D02*
G75*
G03X175898000Y-98000000I0J100000D01*
G01*
X175898000Y-98000000D02*
G75*
G03X175898000Y-98200000I0J-100000D01*
G01*
X175898000Y-98000000D02*
X175898000Y-98000000D01*
X175898000Y-98200000D02*
X175898000Y-98200000D01*
D10*
X175048000Y-93750000D02*
X174098000Y-93750000D01*
X174098000Y-98650000D02*
X175048000Y-98650000D01*
X169148000Y-93750000D02*
X169598000Y-93750000D01*
X169148000Y-98650000D02*
X169598000Y-98650000D01*
D12*
X132632380Y-59492857D02*
X132156190Y-59826190D01*
X132632380Y-60064285D02*
X131632380Y-60064285D01*
X131632380Y-59683333D01*
X131680000Y-59588095D01*
X131727619Y-59540476D01*
X131822857Y-59492857D01*
X131965714Y-59492857D01*
X132060952Y-59540476D01*
X132108571Y-59588095D01*
X132156190Y-59683333D01*
X132156190Y-60064285D01*
X132632380Y-58540476D02*
X132632380Y-59111904D01*
X132632380Y-58826190D02*
X131632380Y-58826190D01*
X131775238Y-58921428D01*
X131870476Y-59016666D01*
X131918095Y-59111904D01*
X131632380Y-57921428D02*
X131632380Y-57826190D01*
X131680000Y-57730952D01*
X131727619Y-57683333D01*
X131822857Y-57635714D01*
X132013333Y-57588095D01*
X132251428Y-57588095D01*
X132441904Y-57635714D01*
X132537142Y-57683333D01*
X132584761Y-57730952D01*
X132632380Y-57826190D01*
X132632380Y-57921428D01*
X132584761Y-58016666D01*
X132537142Y-58064285D01*
X132441904Y-58111904D01*
X132251428Y-58159523D01*
X132013333Y-58159523D01*
X131822857Y-58111904D01*
X131727619Y-58064285D01*
X131680000Y-58016666D01*
X131632380Y-57921428D01*
X147194642Y-45557142D02*
X147147023Y-45604761D01*
X147004166Y-45652380D01*
X146908928Y-45652380D01*
X146766071Y-45604761D01*
X146670833Y-45509523D01*
X146623214Y-45414285D01*
X146575595Y-45223809D01*
X146575595Y-45080952D01*
X146623214Y-44890476D01*
X146670833Y-44795238D01*
X146766071Y-44700000D01*
X146908928Y-44652380D01*
X147004166Y-44652380D01*
X147147023Y-44700000D01*
X147194642Y-44747619D01*
X148147023Y-45652380D02*
X147575595Y-45652380D01*
X147861309Y-45652380D02*
X147861309Y-44652380D01*
X147766071Y-44795238D01*
X147670833Y-44890476D01*
X147575595Y-44938095D01*
X149004166Y-44652380D02*
X148813690Y-44652380D01*
X148718452Y-44700000D01*
X148670833Y-44747619D01*
X148575595Y-44890476D01*
X148527976Y-45080952D01*
X148527976Y-45461904D01*
X148575595Y-45557142D01*
X148623214Y-45604761D01*
X148718452Y-45652380D01*
X148908928Y-45652380D01*
X149004166Y-45604761D01*
X149051785Y-45557142D01*
X149099404Y-45461904D01*
X149099404Y-45223809D01*
X149051785Y-45128571D01*
X149004166Y-45080952D01*
X148908928Y-45033333D01*
X148718452Y-45033333D01*
X148623214Y-45080952D01*
X148575595Y-45128571D01*
X148527976Y-45223809D01*
X157345142Y-71466666D02*
X157392761Y-71514285D01*
X157440380Y-71657142D01*
X157440380Y-71752380D01*
X157392761Y-71895238D01*
X157297523Y-71990476D01*
X157202285Y-72038095D01*
X157011809Y-72085714D01*
X156868952Y-72085714D01*
X156678476Y-72038095D01*
X156583238Y-71990476D01*
X156488000Y-71895238D01*
X156440380Y-71752380D01*
X156440380Y-71657142D01*
X156488000Y-71514285D01*
X156535619Y-71466666D01*
X156868952Y-70895238D02*
X156821333Y-70990476D01*
X156773714Y-71038095D01*
X156678476Y-71085714D01*
X156630857Y-71085714D01*
X156535619Y-71038095D01*
X156488000Y-70990476D01*
X156440380Y-70895238D01*
X156440380Y-70704761D01*
X156488000Y-70609523D01*
X156535619Y-70561904D01*
X156630857Y-70514285D01*
X156678476Y-70514285D01*
X156773714Y-70561904D01*
X156821333Y-70609523D01*
X156868952Y-70704761D01*
X156868952Y-70895238D01*
X156916571Y-70990476D01*
X156964190Y-71038095D01*
X157059428Y-71085714D01*
X157249904Y-71085714D01*
X157345142Y-71038095D01*
X157392761Y-70990476D01*
X157440380Y-70895238D01*
X157440380Y-70704761D01*
X157392761Y-70609523D01*
X157345142Y-70561904D01*
X157249904Y-70514285D01*
X157059428Y-70514285D01*
X156964190Y-70561904D01*
X156916571Y-70609523D01*
X156868952Y-70704761D01*
X157357142Y-65666666D02*
X157404761Y-65714285D01*
X157452380Y-65857142D01*
X157452380Y-65952380D01*
X157404761Y-66095238D01*
X157309523Y-66190476D01*
X157214285Y-66238095D01*
X157023809Y-66285714D01*
X156880952Y-66285714D01*
X156690476Y-66238095D01*
X156595238Y-66190476D01*
X156500000Y-66095238D01*
X156452380Y-65952380D01*
X156452380Y-65857142D01*
X156500000Y-65714285D01*
X156547619Y-65666666D01*
X157452380Y-65190476D02*
X157452380Y-65000000D01*
X157404761Y-64904761D01*
X157357142Y-64857142D01*
X157214285Y-64761904D01*
X157023809Y-64714285D01*
X156642857Y-64714285D01*
X156547619Y-64761904D01*
X156500000Y-64809523D01*
X156452380Y-64904761D01*
X156452380Y-65095238D01*
X156500000Y-65190476D01*
X156547619Y-65238095D01*
X156642857Y-65285714D01*
X156880952Y-65285714D01*
X156976190Y-65238095D01*
X157023809Y-65190476D01*
X157071428Y-65095238D01*
X157071428Y-64904761D01*
X157023809Y-64809523D01*
X156976190Y-64761904D01*
X156880952Y-64714285D01*
X157407142Y-57205357D02*
X157454761Y-57252976D01*
X157502380Y-57395833D01*
X157502380Y-57491071D01*
X157454761Y-57633928D01*
X157359523Y-57729166D01*
X157264285Y-57776785D01*
X157073809Y-57824404D01*
X156930952Y-57824404D01*
X156740476Y-57776785D01*
X156645238Y-57729166D01*
X156550000Y-57633928D01*
X156502380Y-57491071D01*
X156502380Y-57395833D01*
X156550000Y-57252976D01*
X156597619Y-57205357D01*
X157502380Y-56252976D02*
X157502380Y-56824404D01*
X157502380Y-56538690D02*
X156502380Y-56538690D01*
X156645238Y-56633928D01*
X156740476Y-56729166D01*
X156788095Y-56824404D01*
X156835714Y-55395833D02*
X157502380Y-55395833D01*
X156454761Y-55633928D02*
X157169047Y-55872023D01*
X157169047Y-55252976D01*
X173033333Y-72822380D02*
X172700000Y-72346190D01*
X172461904Y-72822380D02*
X172461904Y-71822380D01*
X172842857Y-71822380D01*
X172938095Y-71870000D01*
X172985714Y-71917619D01*
X173033333Y-72012857D01*
X173033333Y-72155714D01*
X172985714Y-72250952D01*
X172938095Y-72298571D01*
X172842857Y-72346190D01*
X172461904Y-72346190D01*
X173890476Y-72155714D02*
X173890476Y-72822380D01*
X173652380Y-71774761D02*
X173414285Y-72489047D01*
X174033333Y-72489047D01*
D15*
X149532238Y-68726523D02*
X149532238Y-67456523D01*
X150862714Y-68605571D02*
X150802238Y-68666047D01*
X150620809Y-68726523D01*
X150499857Y-68726523D01*
X150318428Y-68666047D01*
X150197476Y-68545095D01*
X150137000Y-68424142D01*
X150076523Y-68182238D01*
X150076523Y-68000809D01*
X150137000Y-67758904D01*
X150197476Y-67637952D01*
X150318428Y-67517000D01*
X150499857Y-67456523D01*
X150620809Y-67456523D01*
X150802238Y-67517000D01*
X150862714Y-67577476D01*
X151346523Y-67577476D02*
X151407000Y-67517000D01*
X151527952Y-67456523D01*
X151830333Y-67456523D01*
X151951285Y-67517000D01*
X152011761Y-67577476D01*
X152072238Y-67698428D01*
X152072238Y-67819380D01*
X152011761Y-68000809D01*
X151286047Y-68726523D01*
X152072238Y-68726523D01*
D12*
X129807142Y-67629166D02*
X129854761Y-67676785D01*
X129902380Y-67819642D01*
X129902380Y-67914880D01*
X129854761Y-68057738D01*
X129759523Y-68152976D01*
X129664285Y-68200595D01*
X129473809Y-68248214D01*
X129330952Y-68248214D01*
X129140476Y-68200595D01*
X129045238Y-68152976D01*
X128950000Y-68057738D01*
X128902380Y-67914880D01*
X128902380Y-67819642D01*
X128950000Y-67676785D01*
X128997619Y-67629166D01*
X128997619Y-67248214D02*
X128950000Y-67200595D01*
X128902380Y-67105357D01*
X128902380Y-66867261D01*
X128950000Y-66772023D01*
X128997619Y-66724404D01*
X129092857Y-66676785D01*
X129188095Y-66676785D01*
X129330952Y-66724404D01*
X129902380Y-67295833D01*
X129902380Y-66676785D01*
D15*
X149532238Y-54248523D02*
X149532238Y-52978523D01*
X150862714Y-54127571D02*
X150802238Y-54188047D01*
X150620809Y-54248523D01*
X150499857Y-54248523D01*
X150318428Y-54188047D01*
X150197476Y-54067095D01*
X150137000Y-53946142D01*
X150076523Y-53704238D01*
X150076523Y-53522809D01*
X150137000Y-53280904D01*
X150197476Y-53159952D01*
X150318428Y-53039000D01*
X150499857Y-52978523D01*
X150620809Y-52978523D01*
X150802238Y-53039000D01*
X150862714Y-53099476D01*
X151951285Y-53401857D02*
X151951285Y-54248523D01*
X151648904Y-52918047D02*
X151346523Y-53825190D01*
X152132714Y-53825190D01*
D12*
X147157142Y-60057142D02*
X147109523Y-60104761D01*
X146966666Y-60152380D01*
X146871428Y-60152380D01*
X146728571Y-60104761D01*
X146633333Y-60009523D01*
X146585714Y-59914285D01*
X146538095Y-59723809D01*
X146538095Y-59580952D01*
X146585714Y-59390476D01*
X146633333Y-59295238D01*
X146728571Y-59200000D01*
X146871428Y-59152380D01*
X146966666Y-59152380D01*
X147109523Y-59200000D01*
X147157142Y-59247619D01*
X148109523Y-60152380D02*
X147538095Y-60152380D01*
X147823809Y-60152380D02*
X147823809Y-59152380D01*
X147728571Y-59295238D01*
X147633333Y-59390476D01*
X147538095Y-59438095D01*
X148728571Y-59152380D02*
X148823809Y-59152380D01*
X148919047Y-59200000D01*
X148966666Y-59247619D01*
X149014285Y-59342857D01*
X149061904Y-59533333D01*
X149061904Y-59771428D01*
X149014285Y-59961904D01*
X148966666Y-60057142D01*
X148919047Y-60104761D01*
X148823809Y-60152380D01*
X148728571Y-60152380D01*
X148633333Y-60104761D01*
X148585714Y-60057142D01*
X148538095Y-59961904D01*
X148490476Y-59771428D01*
X148490476Y-59533333D01*
X148538095Y-59342857D01*
X148585714Y-59247619D01*
X148633333Y-59200000D01*
X148728571Y-59152380D01*
X157399142Y-52442857D02*
X157446761Y-52490476D01*
X157494380Y-52633333D01*
X157494380Y-52728571D01*
X157446761Y-52871428D01*
X157351523Y-52966666D01*
X157256285Y-53014285D01*
X157065809Y-53061904D01*
X156922952Y-53061904D01*
X156732476Y-53014285D01*
X156637238Y-52966666D01*
X156542000Y-52871428D01*
X156494380Y-52728571D01*
X156494380Y-52633333D01*
X156542000Y-52490476D01*
X156589619Y-52442857D01*
X157494380Y-51490476D02*
X157494380Y-52061904D01*
X157494380Y-51776190D02*
X156494380Y-51776190D01*
X156637238Y-51871428D01*
X156732476Y-51966666D01*
X156780095Y-52061904D01*
X156494380Y-50585714D02*
X156494380Y-51061904D01*
X156970571Y-51109523D01*
X156922952Y-51061904D01*
X156875333Y-50966666D01*
X156875333Y-50728571D01*
X156922952Y-50633333D01*
X156970571Y-50585714D01*
X157065809Y-50538095D01*
X157303904Y-50538095D01*
X157399142Y-50585714D01*
X157446761Y-50633333D01*
X157494380Y-50728571D01*
X157494380Y-50966666D01*
X157446761Y-51061904D01*
X157399142Y-51109523D01*
X129857142Y-73366666D02*
X129904761Y-73414285D01*
X129952380Y-73557142D01*
X129952380Y-73652380D01*
X129904761Y-73795238D01*
X129809523Y-73890476D01*
X129714285Y-73938095D01*
X129523809Y-73985714D01*
X129380952Y-73985714D01*
X129190476Y-73938095D01*
X129095238Y-73890476D01*
X129000000Y-73795238D01*
X128952380Y-73652380D01*
X128952380Y-73557142D01*
X129000000Y-73414285D01*
X129047619Y-73366666D01*
X129952380Y-72414285D02*
X129952380Y-72985714D01*
X129952380Y-72700000D02*
X128952380Y-72700000D01*
X129095238Y-72795238D01*
X129190476Y-72890476D01*
X129238095Y-72985714D01*
X152573904Y-45838380D02*
X152573904Y-44838380D01*
X152812000Y-44838380D01*
X152954857Y-44886000D01*
X153050095Y-44981238D01*
X153097714Y-45076476D01*
X153145333Y-45266952D01*
X153145333Y-45409809D01*
X153097714Y-45600285D01*
X153050095Y-45695523D01*
X152954857Y-45790761D01*
X152812000Y-45838380D01*
X152573904Y-45838380D01*
X153478666Y-44838380D02*
X154145333Y-44838380D01*
X153716761Y-45838380D01*
X121107404Y-53966380D02*
X121107404Y-52966380D01*
X121345500Y-52966380D01*
X121488357Y-53014000D01*
X121583595Y-53109238D01*
X121631214Y-53204476D01*
X121678833Y-53394952D01*
X121678833Y-53537809D01*
X121631214Y-53728285D01*
X121583595Y-53823523D01*
X121488357Y-53918761D01*
X121345500Y-53966380D01*
X121107404Y-53966380D01*
X122059785Y-53061619D02*
X122107404Y-53014000D01*
X122202642Y-52966380D01*
X122440738Y-52966380D01*
X122535976Y-53014000D01*
X122583595Y-53061619D01*
X122631214Y-53156857D01*
X122631214Y-53252095D01*
X122583595Y-53394952D01*
X122012166Y-53966380D01*
X122631214Y-53966380D01*
X126159523Y-62652380D02*
X125826190Y-62176190D01*
X125588095Y-62652380D02*
X125588095Y-61652380D01*
X125969047Y-61652380D01*
X126064285Y-61700000D01*
X126111904Y-61747619D01*
X126159523Y-61842857D01*
X126159523Y-61985714D01*
X126111904Y-62080952D01*
X126064285Y-62128571D01*
X125969047Y-62176190D01*
X125588095Y-62176190D01*
X126588095Y-62652380D02*
X126588095Y-61652380D01*
X127159523Y-62652380D01*
X127159523Y-61652380D01*
X128159523Y-62652380D02*
X127588095Y-62652380D01*
X127873809Y-62652380D02*
X127873809Y-61652380D01*
X127778571Y-61795238D01*
X127683333Y-61890476D01*
X127588095Y-61938095D01*
X121081904Y-50918380D02*
X121081904Y-49918380D01*
X121320000Y-49918380D01*
X121462857Y-49966000D01*
X121558095Y-50061238D01*
X121605714Y-50156476D01*
X121653333Y-50346952D01*
X121653333Y-50489809D01*
X121605714Y-50680285D01*
X121558095Y-50775523D01*
X121462857Y-50870761D01*
X121320000Y-50918380D01*
X121081904Y-50918380D01*
X122605714Y-50918380D02*
X122034285Y-50918380D01*
X122320000Y-50918380D02*
X122320000Y-49918380D01*
X122224761Y-50061238D01*
X122129523Y-50156476D01*
X122034285Y-50204095D01*
X145257142Y-63242857D02*
X145304761Y-63290476D01*
X145352380Y-63433333D01*
X145352380Y-63528571D01*
X145304761Y-63671428D01*
X145209523Y-63766666D01*
X145114285Y-63814285D01*
X144923809Y-63861904D01*
X144780952Y-63861904D01*
X144590476Y-63814285D01*
X144495238Y-63766666D01*
X144400000Y-63671428D01*
X144352380Y-63528571D01*
X144352380Y-63433333D01*
X144400000Y-63290476D01*
X144447619Y-63242857D01*
X145352380Y-62290476D02*
X145352380Y-62861904D01*
X145352380Y-62576190D02*
X144352380Y-62576190D01*
X144495238Y-62671428D01*
X144590476Y-62766666D01*
X144638095Y-62861904D01*
X145352380Y-61338095D02*
X145352380Y-61909523D01*
X145352380Y-61623809D02*
X144352380Y-61623809D01*
X144495238Y-61719047D01*
X144590476Y-61814285D01*
X144638095Y-61909523D01*
X145757142Y-48792857D02*
X145804761Y-48840476D01*
X145852380Y-48983333D01*
X145852380Y-49078571D01*
X145804761Y-49221428D01*
X145709523Y-49316666D01*
X145614285Y-49364285D01*
X145423809Y-49411904D01*
X145280952Y-49411904D01*
X145090476Y-49364285D01*
X144995238Y-49316666D01*
X144900000Y-49221428D01*
X144852380Y-49078571D01*
X144852380Y-48983333D01*
X144900000Y-48840476D01*
X144947619Y-48792857D01*
X145852380Y-47840476D02*
X145852380Y-48411904D01*
X145852380Y-48126190D02*
X144852380Y-48126190D01*
X144995238Y-48221428D01*
X145090476Y-48316666D01*
X145138095Y-48411904D01*
X144852380Y-47507142D02*
X144852380Y-46840476D01*
X145852380Y-47269047D01*
X121107404Y-58740380D02*
X121107404Y-57740380D01*
X121345500Y-57740380D01*
X121488357Y-57788000D01*
X121583595Y-57883238D01*
X121631214Y-57978476D01*
X121678833Y-58168952D01*
X121678833Y-58311809D01*
X121631214Y-58502285D01*
X121583595Y-58597523D01*
X121488357Y-58692761D01*
X121345500Y-58740380D01*
X121107404Y-58740380D01*
X122012166Y-57740380D02*
X122631214Y-57740380D01*
X122297880Y-58121333D01*
X122440738Y-58121333D01*
X122535976Y-58168952D01*
X122583595Y-58216571D01*
X122631214Y-58311809D01*
X122631214Y-58549904D01*
X122583595Y-58645142D01*
X122535976Y-58692761D01*
X122440738Y-58740380D01*
X122155023Y-58740380D01*
X122059785Y-58692761D01*
X122012166Y-58645142D01*
X152573904Y-60316380D02*
X152573904Y-59316380D01*
X152812000Y-59316380D01*
X152954857Y-59364000D01*
X153050095Y-59459238D01*
X153097714Y-59554476D01*
X153145333Y-59744952D01*
X153145333Y-59887809D01*
X153097714Y-60078285D01*
X153050095Y-60173523D01*
X152954857Y-60268761D01*
X152812000Y-60316380D01*
X152573904Y-60316380D01*
X154002476Y-59316380D02*
X153812000Y-59316380D01*
X153716761Y-59364000D01*
X153669142Y-59411619D01*
X153573904Y-59554476D01*
X153526285Y-59744952D01*
X153526285Y-60125904D01*
X153573904Y-60221142D01*
X153621523Y-60268761D01*
X153716761Y-60316380D01*
X153907238Y-60316380D01*
X154002476Y-60268761D01*
X154050095Y-60221142D01*
X154097714Y-60125904D01*
X154097714Y-59887809D01*
X154050095Y-59792571D01*
X154002476Y-59744952D01*
X153907238Y-59697333D01*
X153716761Y-59697333D01*
X153621523Y-59744952D01*
X153573904Y-59792571D01*
X153526285Y-59887809D01*
X133788095Y-64852380D02*
X133788095Y-65661904D01*
X133835714Y-65757142D01*
X133883333Y-65804761D01*
X133978571Y-65852380D01*
X134169047Y-65852380D01*
X134264285Y-65804761D01*
X134311904Y-65757142D01*
X134359523Y-65661904D01*
X134359523Y-64852380D01*
X135359523Y-65852380D02*
X134788095Y-65852380D01*
X135073809Y-65852380D02*
X135073809Y-64852380D01*
X134978571Y-64995238D01*
X134883333Y-65090476D01*
X134788095Y-65138095D01*
X121107404Y-61788380D02*
X121107404Y-60788380D01*
X121345500Y-60788380D01*
X121488357Y-60836000D01*
X121583595Y-60931238D01*
X121631214Y-61026476D01*
X121678833Y-61216952D01*
X121678833Y-61359809D01*
X121631214Y-61550285D01*
X121583595Y-61645523D01*
X121488357Y-61740761D01*
X121345500Y-61788380D01*
X121107404Y-61788380D01*
X122535976Y-61121714D02*
X122535976Y-61788380D01*
X122297880Y-60740761D02*
X122059785Y-61455047D01*
X122678833Y-61455047D01*
X193044642Y-38382380D02*
X192711309Y-37906190D01*
X192473214Y-38382380D02*
X192473214Y-37382380D01*
X192854166Y-37382380D01*
X192949404Y-37430000D01*
X192997023Y-37477619D01*
X193044642Y-37572857D01*
X193044642Y-37715714D01*
X192997023Y-37810952D01*
X192949404Y-37858571D01*
X192854166Y-37906190D01*
X192473214Y-37906190D01*
X193997023Y-38382380D02*
X193425595Y-38382380D01*
X193711309Y-38382380D02*
X193711309Y-37382380D01*
X193616071Y-37525238D01*
X193520833Y-37620476D01*
X193425595Y-37668095D01*
X194330357Y-37382380D02*
X194997023Y-37382380D01*
X194568452Y-38382380D01*
X172557142Y-56470380D02*
X172223809Y-55994190D01*
X171985714Y-56470380D02*
X171985714Y-55470380D01*
X172366666Y-55470380D01*
X172461904Y-55518000D01*
X172509523Y-55565619D01*
X172557142Y-55660857D01*
X172557142Y-55803714D01*
X172509523Y-55898952D01*
X172461904Y-55946571D01*
X172366666Y-55994190D01*
X171985714Y-55994190D01*
X172938095Y-55565619D02*
X172985714Y-55518000D01*
X173080952Y-55470380D01*
X173319047Y-55470380D01*
X173414285Y-55518000D01*
X173461904Y-55565619D01*
X173509523Y-55660857D01*
X173509523Y-55756095D01*
X173461904Y-55898952D01*
X172890476Y-56470380D01*
X173509523Y-56470380D01*
X174128571Y-55470380D02*
X174223809Y-55470380D01*
X174319047Y-55518000D01*
X174366666Y-55565619D01*
X174414285Y-55660857D01*
X174461904Y-55851333D01*
X174461904Y-56089428D01*
X174414285Y-56279904D01*
X174366666Y-56375142D01*
X174319047Y-56422761D01*
X174223809Y-56470380D01*
X174128571Y-56470380D01*
X174033333Y-56422761D01*
X173985714Y-56375142D01*
X173938095Y-56279904D01*
X173890476Y-56089428D01*
X173890476Y-55851333D01*
X173938095Y-55660857D01*
X173985714Y-55565619D01*
X174033333Y-55518000D01*
X174128571Y-55470380D01*
X141518642Y-68667380D02*
X141185309Y-68191190D01*
X140947214Y-68667380D02*
X140947214Y-67667380D01*
X141328166Y-67667380D01*
X141423404Y-67715000D01*
X141471023Y-67762619D01*
X141518642Y-67857857D01*
X141518642Y-68000714D01*
X141471023Y-68095952D01*
X141423404Y-68143571D01*
X141328166Y-68191190D01*
X140947214Y-68191190D01*
X141899595Y-67762619D02*
X141947214Y-67715000D01*
X142042452Y-67667380D01*
X142280547Y-67667380D01*
X142375785Y-67715000D01*
X142423404Y-67762619D01*
X142471023Y-67857857D01*
X142471023Y-67953095D01*
X142423404Y-68095952D01*
X141851976Y-68667380D01*
X142471023Y-68667380D01*
X143328166Y-68000714D02*
X143328166Y-68667380D01*
X143090071Y-67619761D02*
X142851976Y-68334047D01*
X143471023Y-68334047D01*
X141493142Y-74382380D02*
X141159809Y-73906190D01*
X140921714Y-74382380D02*
X140921714Y-73382380D01*
X141302666Y-73382380D01*
X141397904Y-73430000D01*
X141445523Y-73477619D01*
X141493142Y-73572857D01*
X141493142Y-73715714D01*
X141445523Y-73810952D01*
X141397904Y-73858571D01*
X141302666Y-73906190D01*
X140921714Y-73906190D01*
X141874095Y-73477619D02*
X141921714Y-73430000D01*
X142016952Y-73382380D01*
X142255047Y-73382380D01*
X142350285Y-73430000D01*
X142397904Y-73477619D01*
X142445523Y-73572857D01*
X142445523Y-73668095D01*
X142397904Y-73810952D01*
X141826476Y-74382380D01*
X142445523Y-74382380D01*
X143302666Y-73382380D02*
X143112190Y-73382380D01*
X143016952Y-73430000D01*
X142969333Y-73477619D01*
X142874095Y-73620476D01*
X142826476Y-73810952D01*
X142826476Y-74191904D01*
X142874095Y-74287142D01*
X142921714Y-74334761D01*
X143016952Y-74382380D01*
X143207428Y-74382380D01*
X143302666Y-74334761D01*
X143350285Y-74287142D01*
X143397904Y-74191904D01*
X143397904Y-73953809D01*
X143350285Y-73858571D01*
X143302666Y-73810952D01*
X143207428Y-73763333D01*
X143016952Y-73763333D01*
X142921714Y-73810952D01*
X142874095Y-73858571D01*
X142826476Y-73953809D01*
X169845833Y-58282380D02*
X169512500Y-57806190D01*
X169274404Y-58282380D02*
X169274404Y-57282380D01*
X169655357Y-57282380D01*
X169750595Y-57330000D01*
X169798214Y-57377619D01*
X169845833Y-57472857D01*
X169845833Y-57615714D01*
X169798214Y-57710952D01*
X169750595Y-57758571D01*
X169655357Y-57806190D01*
X169274404Y-57806190D01*
X170750595Y-57282380D02*
X170274404Y-57282380D01*
X170226785Y-57758571D01*
X170274404Y-57710952D01*
X170369642Y-57663333D01*
X170607738Y-57663333D01*
X170702976Y-57710952D01*
X170750595Y-57758571D01*
X170798214Y-57853809D01*
X170798214Y-58091904D01*
X170750595Y-58187142D01*
X170702976Y-58234761D01*
X170607738Y-58282380D01*
X170369642Y-58282380D01*
X170274404Y-58234761D01*
X170226785Y-58187142D01*
X192983442Y-73652380D02*
X192650109Y-73176190D01*
X192412014Y-73652380D02*
X192412014Y-72652380D01*
X192792966Y-72652380D01*
X192888204Y-72700000D01*
X192935823Y-72747619D01*
X192983442Y-72842857D01*
X192983442Y-72985714D01*
X192935823Y-73080952D01*
X192888204Y-73128571D01*
X192792966Y-73176190D01*
X192412014Y-73176190D01*
X193935823Y-73652380D02*
X193364395Y-73652380D01*
X193650109Y-73652380D02*
X193650109Y-72652380D01*
X193554871Y-72795238D01*
X193459633Y-72890476D01*
X193364395Y-72938095D01*
X194316776Y-72747619D02*
X194364395Y-72700000D01*
X194459633Y-72652380D01*
X194697728Y-72652380D01*
X194792966Y-72700000D01*
X194840585Y-72747619D01*
X194888204Y-72842857D01*
X194888204Y-72938095D01*
X194840585Y-73080952D01*
X194269157Y-73652380D01*
X194888204Y-73652380D01*
X141518642Y-54028380D02*
X141185309Y-53552190D01*
X140947214Y-54028380D02*
X140947214Y-53028380D01*
X141328166Y-53028380D01*
X141423404Y-53076000D01*
X141471023Y-53123619D01*
X141518642Y-53218857D01*
X141518642Y-53361714D01*
X141471023Y-53456952D01*
X141423404Y-53504571D01*
X141328166Y-53552190D01*
X140947214Y-53552190D01*
X141899595Y-53123619D02*
X141947214Y-53076000D01*
X142042452Y-53028380D01*
X142280547Y-53028380D01*
X142375785Y-53076000D01*
X142423404Y-53123619D01*
X142471023Y-53218857D01*
X142471023Y-53314095D01*
X142423404Y-53456952D01*
X141851976Y-54028380D01*
X142471023Y-54028380D01*
X142804357Y-53028380D02*
X143471023Y-53028380D01*
X143042452Y-54028380D01*
X172969642Y-39182380D02*
X172636309Y-38706190D01*
X172398214Y-39182380D02*
X172398214Y-38182380D01*
X172779166Y-38182380D01*
X172874404Y-38230000D01*
X172922023Y-38277619D01*
X172969642Y-38372857D01*
X172969642Y-38515714D01*
X172922023Y-38610952D01*
X172874404Y-38658571D01*
X172779166Y-38706190D01*
X172398214Y-38706190D01*
X173350595Y-38277619D02*
X173398214Y-38230000D01*
X173493452Y-38182380D01*
X173731547Y-38182380D01*
X173826785Y-38230000D01*
X173874404Y-38277619D01*
X173922023Y-38372857D01*
X173922023Y-38468095D01*
X173874404Y-38610952D01*
X173302976Y-39182380D01*
X173922023Y-39182380D01*
X174874404Y-39182380D02*
X174302976Y-39182380D01*
X174588690Y-39182380D02*
X174588690Y-38182380D01*
X174493452Y-38325238D01*
X174398214Y-38420476D01*
X174302976Y-38468095D01*
X141493142Y-71632380D02*
X141159809Y-71156190D01*
X140921714Y-71632380D02*
X140921714Y-70632380D01*
X141302666Y-70632380D01*
X141397904Y-70680000D01*
X141445523Y-70727619D01*
X141493142Y-70822857D01*
X141493142Y-70965714D01*
X141445523Y-71060952D01*
X141397904Y-71108571D01*
X141302666Y-71156190D01*
X140921714Y-71156190D01*
X141874095Y-70727619D02*
X141921714Y-70680000D01*
X142016952Y-70632380D01*
X142255047Y-70632380D01*
X142350285Y-70680000D01*
X142397904Y-70727619D01*
X142445523Y-70822857D01*
X142445523Y-70918095D01*
X142397904Y-71060952D01*
X141826476Y-71632380D01*
X142445523Y-71632380D01*
X143350285Y-70632380D02*
X142874095Y-70632380D01*
X142826476Y-71108571D01*
X142874095Y-71060952D01*
X142969333Y-71013333D01*
X143207428Y-71013333D01*
X143302666Y-71060952D01*
X143350285Y-71108571D01*
X143397904Y-71203809D01*
X143397904Y-71441904D01*
X143350285Y-71537142D01*
X143302666Y-71584761D01*
X143207428Y-71632380D01*
X142969333Y-71632380D01*
X142874095Y-71584761D01*
X142826476Y-71537142D01*
X197569642Y-38052380D02*
X197236309Y-37576190D01*
X196998214Y-38052380D02*
X196998214Y-37052380D01*
X197379166Y-37052380D01*
X197474404Y-37100000D01*
X197522023Y-37147619D01*
X197569642Y-37242857D01*
X197569642Y-37385714D01*
X197522023Y-37480952D01*
X197474404Y-37528571D01*
X197379166Y-37576190D01*
X196998214Y-37576190D01*
X198522023Y-38052380D02*
X197950595Y-38052380D01*
X198236309Y-38052380D02*
X198236309Y-37052380D01*
X198141071Y-37195238D01*
X198045833Y-37290476D01*
X197950595Y-37338095D01*
X199379166Y-37052380D02*
X199188690Y-37052380D01*
X199093452Y-37100000D01*
X199045833Y-37147619D01*
X198950595Y-37290476D01*
X198902976Y-37480952D01*
X198902976Y-37861904D01*
X198950595Y-37957142D01*
X198998214Y-38004761D01*
X199093452Y-38052380D01*
X199283928Y-38052380D01*
X199379166Y-38004761D01*
X199426785Y-37957142D01*
X199474404Y-37861904D01*
X199474404Y-37623809D01*
X199426785Y-37528571D01*
X199379166Y-37480952D01*
X199283928Y-37433333D01*
X199093452Y-37433333D01*
X198998214Y-37480952D01*
X198950595Y-37528571D01*
X198902976Y-37623809D01*
D15*
X126902047Y-43261619D02*
X126962523Y-43080190D01*
X126962523Y-42777809D01*
X126902047Y-42656857D01*
X126841571Y-42596380D01*
X126720619Y-42535904D01*
X126599666Y-42535904D01*
X126478714Y-42596380D01*
X126418238Y-42656857D01*
X126357761Y-42777809D01*
X126297285Y-43019714D01*
X126236809Y-43140666D01*
X126176333Y-43201142D01*
X126055380Y-43261619D01*
X125934428Y-43261619D01*
X125813476Y-43201142D01*
X125753000Y-43140666D01*
X125692523Y-43019714D01*
X125692523Y-42717333D01*
X125753000Y-42535904D01*
X126962523Y-41326380D02*
X126962523Y-42052095D01*
X126962523Y-41689238D02*
X125692523Y-41689238D01*
X125873952Y-41810190D01*
X125994904Y-41931142D01*
X126055380Y-42052095D01*
D12*
X193297642Y-54730380D02*
X192964309Y-54254190D01*
X192726214Y-54730380D02*
X192726214Y-53730380D01*
X193107166Y-53730380D01*
X193202404Y-53778000D01*
X193250023Y-53825619D01*
X193297642Y-53920857D01*
X193297642Y-54063714D01*
X193250023Y-54158952D01*
X193202404Y-54206571D01*
X193107166Y-54254190D01*
X192726214Y-54254190D01*
X194250023Y-54730380D02*
X193678595Y-54730380D01*
X193964309Y-54730380D02*
X193964309Y-53730380D01*
X193869071Y-53873238D01*
X193773833Y-53968476D01*
X193678595Y-54016095D01*
X194583357Y-53730380D02*
X195202404Y-53730380D01*
X194869071Y-54111333D01*
X195011928Y-54111333D01*
X195107166Y-54158952D01*
X195154785Y-54206571D01*
X195202404Y-54301809D01*
X195202404Y-54539904D01*
X195154785Y-54635142D01*
X195107166Y-54682761D01*
X195011928Y-54730380D01*
X194726214Y-54730380D01*
X194630976Y-54682761D01*
X194583357Y-54635142D01*
X141518642Y-56882380D02*
X141185309Y-56406190D01*
X140947214Y-56882380D02*
X140947214Y-55882380D01*
X141328166Y-55882380D01*
X141423404Y-55930000D01*
X141471023Y-55977619D01*
X141518642Y-56072857D01*
X141518642Y-56215714D01*
X141471023Y-56310952D01*
X141423404Y-56358571D01*
X141328166Y-56406190D01*
X140947214Y-56406190D01*
X141899595Y-55977619D02*
X141947214Y-55930000D01*
X142042452Y-55882380D01*
X142280547Y-55882380D01*
X142375785Y-55930000D01*
X142423404Y-55977619D01*
X142471023Y-56072857D01*
X142471023Y-56168095D01*
X142423404Y-56310952D01*
X141851976Y-56882380D01*
X142471023Y-56882380D01*
X143042452Y-56310952D02*
X142947214Y-56263333D01*
X142899595Y-56215714D01*
X142851976Y-56120476D01*
X142851976Y-56072857D01*
X142899595Y-55977619D01*
X142947214Y-55930000D01*
X143042452Y-55882380D01*
X143232928Y-55882380D01*
X143328166Y-55930000D01*
X143375785Y-55977619D01*
X143423404Y-56072857D01*
X143423404Y-56120476D01*
X143375785Y-56215714D01*
X143328166Y-56263333D01*
X143232928Y-56310952D01*
X143042452Y-56310952D01*
X142947214Y-56358571D01*
X142899595Y-56406190D01*
X142851976Y-56501428D01*
X142851976Y-56691904D01*
X142899595Y-56787142D01*
X142947214Y-56834761D01*
X143042452Y-56882380D01*
X143232928Y-56882380D01*
X143328166Y-56834761D01*
X143375785Y-56787142D01*
X143423404Y-56691904D01*
X143423404Y-56501428D01*
X143375785Y-56406190D01*
X143328166Y-56358571D01*
X143232928Y-56310952D01*
X141518642Y-59632380D02*
X141185309Y-59156190D01*
X140947214Y-59632380D02*
X140947214Y-58632380D01*
X141328166Y-58632380D01*
X141423404Y-58680000D01*
X141471023Y-58727619D01*
X141518642Y-58822857D01*
X141518642Y-58965714D01*
X141471023Y-59060952D01*
X141423404Y-59108571D01*
X141328166Y-59156190D01*
X140947214Y-59156190D01*
X141899595Y-58727619D02*
X141947214Y-58680000D01*
X142042452Y-58632380D01*
X142280547Y-58632380D01*
X142375785Y-58680000D01*
X142423404Y-58727619D01*
X142471023Y-58822857D01*
X142471023Y-58918095D01*
X142423404Y-59060952D01*
X141851976Y-59632380D01*
X142471023Y-59632380D01*
X142947214Y-59632380D02*
X143137690Y-59632380D01*
X143232928Y-59584761D01*
X143280547Y-59537142D01*
X143375785Y-59394285D01*
X143423404Y-59203809D01*
X143423404Y-58822857D01*
X143375785Y-58727619D01*
X143328166Y-58680000D01*
X143232928Y-58632380D01*
X143042452Y-58632380D01*
X142947214Y-58680000D01*
X142899595Y-58727619D01*
X142851976Y-58822857D01*
X142851976Y-59060952D01*
X142899595Y-59156190D01*
X142947214Y-59203809D01*
X143042452Y-59251428D01*
X143232928Y-59251428D01*
X143328166Y-59203809D01*
X143375785Y-59156190D01*
X143423404Y-59060952D01*
X144451780Y-40533333D02*
X145166066Y-40533333D01*
X145308923Y-40580952D01*
X145404161Y-40676190D01*
X145451780Y-40819047D01*
X145451780Y-40914285D01*
X144547019Y-40104761D02*
X144499400Y-40057142D01*
X144451780Y-39961904D01*
X144451780Y-39723809D01*
X144499400Y-39628571D01*
X144547019Y-39580952D01*
X144642257Y-39533333D01*
X144737495Y-39533333D01*
X144880352Y-39580952D01*
X145451780Y-40152380D01*
X145451780Y-39533333D01*
X130116666Y-77152380D02*
X130116666Y-77866666D01*
X130069047Y-78009523D01*
X129973809Y-78104761D01*
X129830952Y-78152380D01*
X129735714Y-78152380D01*
X131069047Y-77152380D02*
X130592857Y-77152380D01*
X130545238Y-77628571D01*
X130592857Y-77580952D01*
X130688095Y-77533333D01*
X130926190Y-77533333D01*
X131021428Y-77580952D01*
X131069047Y-77628571D01*
X131116666Y-77723809D01*
X131116666Y-77961904D01*
X131069047Y-78057142D01*
X131021428Y-78104761D01*
X130926190Y-78152380D01*
X130688095Y-78152380D01*
X130592857Y-78104761D01*
X130545238Y-78057142D01*
D15*
X173095476Y-65120952D02*
X173035000Y-65241904D01*
X172914047Y-65362857D01*
X172732619Y-65544285D01*
X172672142Y-65665238D01*
X172672142Y-65786190D01*
X172974523Y-65725714D02*
X172914047Y-65846666D01*
X172793095Y-65967619D01*
X172551190Y-66028095D01*
X172127857Y-66028095D01*
X171885952Y-65967619D01*
X171765000Y-65846666D01*
X171704523Y-65725714D01*
X171704523Y-65483809D01*
X171765000Y-65362857D01*
X171885952Y-65241904D01*
X172127857Y-65181428D01*
X172551190Y-65181428D01*
X172793095Y-65241904D01*
X172914047Y-65362857D01*
X172974523Y-65483809D01*
X172974523Y-65725714D01*
X172974523Y-63971904D02*
X172974523Y-64697619D01*
X172974523Y-64334761D02*
X171704523Y-64334761D01*
X171885952Y-64455714D01*
X172006904Y-64576666D01*
X172067380Y-64697619D01*
X193492476Y-65180952D02*
X193432000Y-65301904D01*
X193311047Y-65422857D01*
X193129619Y-65604285D01*
X193069142Y-65725238D01*
X193069142Y-65846190D01*
X193371523Y-65785714D02*
X193311047Y-65906666D01*
X193190095Y-66027619D01*
X192948190Y-66088095D01*
X192524857Y-66088095D01*
X192282952Y-66027619D01*
X192162000Y-65906666D01*
X192101523Y-65785714D01*
X192101523Y-65543809D01*
X192162000Y-65422857D01*
X192282952Y-65301904D01*
X192524857Y-65241428D01*
X192948190Y-65241428D01*
X193190095Y-65301904D01*
X193311047Y-65422857D01*
X193371523Y-65543809D01*
X193371523Y-65785714D01*
X192222476Y-64757619D02*
X192162000Y-64697142D01*
X192101523Y-64576190D01*
X192101523Y-64273809D01*
X192162000Y-64152857D01*
X192222476Y-64092380D01*
X192343428Y-64031904D01*
X192464380Y-64031904D01*
X192645809Y-64092380D01*
X193371523Y-64818095D01*
X193371523Y-64031904D01*
X193492476Y-46220952D02*
X193432000Y-46341904D01*
X193311047Y-46462857D01*
X193129619Y-46644285D01*
X193069142Y-46765238D01*
X193069142Y-46886190D01*
X193371523Y-46825714D02*
X193311047Y-46946666D01*
X193190095Y-47067619D01*
X192948190Y-47128095D01*
X192524857Y-47128095D01*
X192282952Y-47067619D01*
X192162000Y-46946666D01*
X192101523Y-46825714D01*
X192101523Y-46583809D01*
X192162000Y-46462857D01*
X192282952Y-46341904D01*
X192524857Y-46281428D01*
X192948190Y-46281428D01*
X193190095Y-46341904D01*
X193311047Y-46462857D01*
X193371523Y-46583809D01*
X193371523Y-46825714D01*
X192101523Y-45858095D02*
X192101523Y-45071904D01*
X192585333Y-45495238D01*
X192585333Y-45313809D01*
X192645809Y-45192857D01*
X192706285Y-45132380D01*
X192827238Y-45071904D01*
X193129619Y-45071904D01*
X193250571Y-45132380D01*
X193311047Y-45192857D01*
X193371523Y-45313809D01*
X193371523Y-45676666D01*
X193311047Y-45797619D01*
X193250571Y-45858095D01*
X173095476Y-46320952D02*
X173035000Y-46441904D01*
X172914047Y-46562857D01*
X172732619Y-46744285D01*
X172672142Y-46865238D01*
X172672142Y-46986190D01*
X172974523Y-46925714D02*
X172914047Y-47046666D01*
X172793095Y-47167619D01*
X172551190Y-47228095D01*
X172127857Y-47228095D01*
X171885952Y-47167619D01*
X171765000Y-47046666D01*
X171704523Y-46925714D01*
X171704523Y-46683809D01*
X171765000Y-46562857D01*
X171885952Y-46441904D01*
X172127857Y-46381428D01*
X172551190Y-46381428D01*
X172793095Y-46441904D01*
X172914047Y-46562857D01*
X172974523Y-46683809D01*
X172974523Y-46925714D01*
X172127857Y-45292857D02*
X172974523Y-45292857D01*
X171644047Y-45595238D02*
X172551190Y-45897619D01*
X172551190Y-45111428D01*
D12*
X129857142Y-123366666D02*
X129904761Y-123414285D01*
X129952380Y-123557142D01*
X129952380Y-123652380D01*
X129904761Y-123795238D01*
X129809523Y-123890476D01*
X129714285Y-123938095D01*
X129523809Y-123985714D01*
X129380952Y-123985714D01*
X129190476Y-123938095D01*
X129095238Y-123890476D01*
X129000000Y-123795238D01*
X128952380Y-123652380D01*
X128952380Y-123557142D01*
X129000000Y-123414285D01*
X129047619Y-123366666D01*
X129952380Y-122414285D02*
X129952380Y-122985714D01*
X129952380Y-122700000D02*
X128952380Y-122700000D01*
X129095238Y-122795238D01*
X129190476Y-122890476D01*
X129238095Y-122985714D01*
X129807142Y-117629166D02*
X129854761Y-117676785D01*
X129902380Y-117819642D01*
X129902380Y-117914880D01*
X129854761Y-118057738D01*
X129759523Y-118152976D01*
X129664285Y-118200595D01*
X129473809Y-118248214D01*
X129330952Y-118248214D01*
X129140476Y-118200595D01*
X129045238Y-118152976D01*
X128950000Y-118057738D01*
X128902380Y-117914880D01*
X128902380Y-117819642D01*
X128950000Y-117676785D01*
X128997619Y-117629166D01*
X128997619Y-117248214D02*
X128950000Y-117200595D01*
X128902380Y-117105357D01*
X128902380Y-116867261D01*
X128950000Y-116772023D01*
X128997619Y-116724404D01*
X129092857Y-116676785D01*
X129188095Y-116676785D01*
X129330952Y-116724404D01*
X129902380Y-117295833D01*
X129902380Y-116676785D01*
X157345142Y-121466666D02*
X157392761Y-121514285D01*
X157440380Y-121657142D01*
X157440380Y-121752380D01*
X157392761Y-121895238D01*
X157297523Y-121990476D01*
X157202285Y-122038095D01*
X157011809Y-122085714D01*
X156868952Y-122085714D01*
X156678476Y-122038095D01*
X156583238Y-121990476D01*
X156488000Y-121895238D01*
X156440380Y-121752380D01*
X156440380Y-121657142D01*
X156488000Y-121514285D01*
X156535619Y-121466666D01*
X156868952Y-120895238D02*
X156821333Y-120990476D01*
X156773714Y-121038095D01*
X156678476Y-121085714D01*
X156630857Y-121085714D01*
X156535619Y-121038095D01*
X156488000Y-120990476D01*
X156440380Y-120895238D01*
X156440380Y-120704761D01*
X156488000Y-120609523D01*
X156535619Y-120561904D01*
X156630857Y-120514285D01*
X156678476Y-120514285D01*
X156773714Y-120561904D01*
X156821333Y-120609523D01*
X156868952Y-120704761D01*
X156868952Y-120895238D01*
X156916571Y-120990476D01*
X156964190Y-121038095D01*
X157059428Y-121085714D01*
X157249904Y-121085714D01*
X157345142Y-121038095D01*
X157392761Y-120990476D01*
X157440380Y-120895238D01*
X157440380Y-120704761D01*
X157392761Y-120609523D01*
X157345142Y-120561904D01*
X157249904Y-120514285D01*
X157059428Y-120514285D01*
X156964190Y-120561904D01*
X156916571Y-120609523D01*
X156868952Y-120704761D01*
X157357142Y-115666666D02*
X157404761Y-115714285D01*
X157452380Y-115857142D01*
X157452380Y-115952380D01*
X157404761Y-116095238D01*
X157309523Y-116190476D01*
X157214285Y-116238095D01*
X157023809Y-116285714D01*
X156880952Y-116285714D01*
X156690476Y-116238095D01*
X156595238Y-116190476D01*
X156500000Y-116095238D01*
X156452380Y-115952380D01*
X156452380Y-115857142D01*
X156500000Y-115714285D01*
X156547619Y-115666666D01*
X157452380Y-115190476D02*
X157452380Y-115000000D01*
X157404761Y-114904761D01*
X157357142Y-114857142D01*
X157214285Y-114761904D01*
X157023809Y-114714285D01*
X156642857Y-114714285D01*
X156547619Y-114761904D01*
X156500000Y-114809523D01*
X156452380Y-114904761D01*
X156452380Y-115095238D01*
X156500000Y-115190476D01*
X156547619Y-115238095D01*
X156642857Y-115285714D01*
X156880952Y-115285714D01*
X156976190Y-115238095D01*
X157023809Y-115190476D01*
X157071428Y-115095238D01*
X157071428Y-114904761D01*
X157023809Y-114809523D01*
X156976190Y-114761904D01*
X156880952Y-114714285D01*
X147157142Y-110057142D02*
X147109523Y-110104761D01*
X146966666Y-110152380D01*
X146871428Y-110152380D01*
X146728571Y-110104761D01*
X146633333Y-110009523D01*
X146585714Y-109914285D01*
X146538095Y-109723809D01*
X146538095Y-109580952D01*
X146585714Y-109390476D01*
X146633333Y-109295238D01*
X146728571Y-109200000D01*
X146871428Y-109152380D01*
X146966666Y-109152380D01*
X147109523Y-109200000D01*
X147157142Y-109247619D01*
X148109523Y-110152380D02*
X147538095Y-110152380D01*
X147823809Y-110152380D02*
X147823809Y-109152380D01*
X147728571Y-109295238D01*
X147633333Y-109390476D01*
X147538095Y-109438095D01*
X148728571Y-109152380D02*
X148823809Y-109152380D01*
X148919047Y-109200000D01*
X148966666Y-109247619D01*
X149014285Y-109342857D01*
X149061904Y-109533333D01*
X149061904Y-109771428D01*
X149014285Y-109961904D01*
X148966666Y-110057142D01*
X148919047Y-110104761D01*
X148823809Y-110152380D01*
X148728571Y-110152380D01*
X148633333Y-110104761D01*
X148585714Y-110057142D01*
X148538095Y-109961904D01*
X148490476Y-109771428D01*
X148490476Y-109533333D01*
X148538095Y-109342857D01*
X148585714Y-109247619D01*
X148633333Y-109200000D01*
X148728571Y-109152380D01*
X157407142Y-107205357D02*
X157454761Y-107252976D01*
X157502380Y-107395833D01*
X157502380Y-107491071D01*
X157454761Y-107633928D01*
X157359523Y-107729166D01*
X157264285Y-107776785D01*
X157073809Y-107824404D01*
X156930952Y-107824404D01*
X156740476Y-107776785D01*
X156645238Y-107729166D01*
X156550000Y-107633928D01*
X156502380Y-107491071D01*
X156502380Y-107395833D01*
X156550000Y-107252976D01*
X156597619Y-107205357D01*
X157502380Y-106252976D02*
X157502380Y-106824404D01*
X157502380Y-106538690D02*
X156502380Y-106538690D01*
X156645238Y-106633928D01*
X156740476Y-106729166D01*
X156788095Y-106824404D01*
X156835714Y-105395833D02*
X157502380Y-105395833D01*
X156454761Y-105633928D02*
X157169047Y-105872023D01*
X157169047Y-105252976D01*
X157399142Y-102442857D02*
X157446761Y-102490476D01*
X157494380Y-102633333D01*
X157494380Y-102728571D01*
X157446761Y-102871428D01*
X157351523Y-102966666D01*
X157256285Y-103014285D01*
X157065809Y-103061904D01*
X156922952Y-103061904D01*
X156732476Y-103014285D01*
X156637238Y-102966666D01*
X156542000Y-102871428D01*
X156494380Y-102728571D01*
X156494380Y-102633333D01*
X156542000Y-102490476D01*
X156589619Y-102442857D01*
X157494380Y-101490476D02*
X157494380Y-102061904D01*
X157494380Y-101776190D02*
X156494380Y-101776190D01*
X156637238Y-101871428D01*
X156732476Y-101966666D01*
X156780095Y-102061904D01*
X156494380Y-100585714D02*
X156494380Y-101061904D01*
X156970571Y-101109523D01*
X156922952Y-101061904D01*
X156875333Y-100966666D01*
X156875333Y-100728571D01*
X156922952Y-100633333D01*
X156970571Y-100585714D01*
X157065809Y-100538095D01*
X157303904Y-100538095D01*
X157399142Y-100585714D01*
X157446761Y-100633333D01*
X157494380Y-100728571D01*
X157494380Y-100966666D01*
X157446761Y-101061904D01*
X157399142Y-101109523D01*
X147194642Y-95557142D02*
X147147023Y-95604761D01*
X147004166Y-95652380D01*
X146908928Y-95652380D01*
X146766071Y-95604761D01*
X146670833Y-95509523D01*
X146623214Y-95414285D01*
X146575595Y-95223809D01*
X146575595Y-95080952D01*
X146623214Y-94890476D01*
X146670833Y-94795238D01*
X146766071Y-94700000D01*
X146908928Y-94652380D01*
X147004166Y-94652380D01*
X147147023Y-94700000D01*
X147194642Y-94747619D01*
X148147023Y-95652380D02*
X147575595Y-95652380D01*
X147861309Y-95652380D02*
X147861309Y-94652380D01*
X147766071Y-94795238D01*
X147670833Y-94890476D01*
X147575595Y-94938095D01*
X149004166Y-94652380D02*
X148813690Y-94652380D01*
X148718452Y-94700000D01*
X148670833Y-94747619D01*
X148575595Y-94890476D01*
X148527976Y-95080952D01*
X148527976Y-95461904D01*
X148575595Y-95557142D01*
X148623214Y-95604761D01*
X148718452Y-95652380D01*
X148908928Y-95652380D01*
X149004166Y-95604761D01*
X149051785Y-95557142D01*
X149099404Y-95461904D01*
X149099404Y-95223809D01*
X149051785Y-95128571D01*
X149004166Y-95080952D01*
X148908928Y-95033333D01*
X148718452Y-95033333D01*
X148623214Y-95080952D01*
X148575595Y-95128571D01*
X148527976Y-95223809D01*
D15*
X149532238Y-118726523D02*
X149532238Y-117456523D01*
X150862714Y-118605571D02*
X150802238Y-118666047D01*
X150620809Y-118726523D01*
X150499857Y-118726523D01*
X150318428Y-118666047D01*
X150197476Y-118545095D01*
X150137000Y-118424142D01*
X150076523Y-118182238D01*
X150076523Y-118000809D01*
X150137000Y-117758904D01*
X150197476Y-117637952D01*
X150318428Y-117517000D01*
X150499857Y-117456523D01*
X150620809Y-117456523D01*
X150802238Y-117517000D01*
X150862714Y-117577476D01*
X151346523Y-117577476D02*
X151407000Y-117517000D01*
X151527952Y-117456523D01*
X151830333Y-117456523D01*
X151951285Y-117517000D01*
X152011761Y-117577476D01*
X152072238Y-117698428D01*
X152072238Y-117819380D01*
X152011761Y-118000809D01*
X151286047Y-118726523D01*
X152072238Y-118726523D01*
X149532238Y-104248523D02*
X149532238Y-102978523D01*
X150862714Y-104127571D02*
X150802238Y-104188047D01*
X150620809Y-104248523D01*
X150499857Y-104248523D01*
X150318428Y-104188047D01*
X150197476Y-104067095D01*
X150137000Y-103946142D01*
X150076523Y-103704238D01*
X150076523Y-103522809D01*
X150137000Y-103280904D01*
X150197476Y-103159952D01*
X150318428Y-103039000D01*
X150499857Y-102978523D01*
X150620809Y-102978523D01*
X150802238Y-103039000D01*
X150862714Y-103099476D01*
X151951285Y-103401857D02*
X151951285Y-104248523D01*
X151648904Y-102918047D02*
X151346523Y-103825190D01*
X152132714Y-103825190D01*
D12*
X132632380Y-109492857D02*
X132156190Y-109826190D01*
X132632380Y-110064285D02*
X131632380Y-110064285D01*
X131632380Y-109683333D01*
X131680000Y-109588095D01*
X131727619Y-109540476D01*
X131822857Y-109492857D01*
X131965714Y-109492857D01*
X132060952Y-109540476D01*
X132108571Y-109588095D01*
X132156190Y-109683333D01*
X132156190Y-110064285D01*
X132632380Y-108540476D02*
X132632380Y-109111904D01*
X132632380Y-108826190D02*
X131632380Y-108826190D01*
X131775238Y-108921428D01*
X131870476Y-109016666D01*
X131918095Y-109111904D01*
X131632380Y-107921428D02*
X131632380Y-107826190D01*
X131680000Y-107730952D01*
X131727619Y-107683333D01*
X131822857Y-107635714D01*
X132013333Y-107588095D01*
X132251428Y-107588095D01*
X132441904Y-107635714D01*
X132537142Y-107683333D01*
X132584761Y-107730952D01*
X132632380Y-107826190D01*
X132632380Y-107921428D01*
X132584761Y-108016666D01*
X132537142Y-108064285D01*
X132441904Y-108111904D01*
X132251428Y-108159523D01*
X132013333Y-108159523D01*
X131822857Y-108111904D01*
X131727619Y-108064285D01*
X131680000Y-108016666D01*
X131632380Y-107921428D01*
X173033333Y-122822380D02*
X172700000Y-122346190D01*
X172461904Y-122822380D02*
X172461904Y-121822380D01*
X172842857Y-121822380D01*
X172938095Y-121870000D01*
X172985714Y-121917619D01*
X173033333Y-122012857D01*
X173033333Y-122155714D01*
X172985714Y-122250952D01*
X172938095Y-122298571D01*
X172842857Y-122346190D01*
X172461904Y-122346190D01*
X173890476Y-122155714D02*
X173890476Y-122822380D01*
X173652380Y-121774761D02*
X173414285Y-122489047D01*
X174033333Y-122489047D01*
X169845833Y-108282380D02*
X169512500Y-107806190D01*
X169274404Y-108282380D02*
X169274404Y-107282380D01*
X169655357Y-107282380D01*
X169750595Y-107330000D01*
X169798214Y-107377619D01*
X169845833Y-107472857D01*
X169845833Y-107615714D01*
X169798214Y-107710952D01*
X169750595Y-107758571D01*
X169655357Y-107806190D01*
X169274404Y-107806190D01*
X170750595Y-107282380D02*
X170274404Y-107282380D01*
X170226785Y-107758571D01*
X170274404Y-107710952D01*
X170369642Y-107663333D01*
X170607738Y-107663333D01*
X170702976Y-107710952D01*
X170750595Y-107758571D01*
X170798214Y-107853809D01*
X170798214Y-108091904D01*
X170750595Y-108187142D01*
X170702976Y-108234761D01*
X170607738Y-108282380D01*
X170369642Y-108282380D01*
X170274404Y-108234761D01*
X170226785Y-108187142D01*
X172557142Y-106470380D02*
X172223809Y-105994190D01*
X171985714Y-106470380D02*
X171985714Y-105470380D01*
X172366666Y-105470380D01*
X172461904Y-105518000D01*
X172509523Y-105565619D01*
X172557142Y-105660857D01*
X172557142Y-105803714D01*
X172509523Y-105898952D01*
X172461904Y-105946571D01*
X172366666Y-105994190D01*
X171985714Y-105994190D01*
X172938095Y-105565619D02*
X172985714Y-105518000D01*
X173080952Y-105470380D01*
X173319047Y-105470380D01*
X173414285Y-105518000D01*
X173461904Y-105565619D01*
X173509523Y-105660857D01*
X173509523Y-105756095D01*
X173461904Y-105898952D01*
X172890476Y-106470380D01*
X173509523Y-106470380D01*
X174128571Y-105470380D02*
X174223809Y-105470380D01*
X174319047Y-105518000D01*
X174366666Y-105565619D01*
X174414285Y-105660857D01*
X174461904Y-105851333D01*
X174461904Y-106089428D01*
X174414285Y-106279904D01*
X174366666Y-106375142D01*
X174319047Y-106422761D01*
X174223809Y-106470380D01*
X174128571Y-106470380D01*
X174033333Y-106422761D01*
X173985714Y-106375142D01*
X173938095Y-106279904D01*
X173890476Y-106089428D01*
X173890476Y-105851333D01*
X173938095Y-105660857D01*
X173985714Y-105565619D01*
X174033333Y-105518000D01*
X174128571Y-105470380D01*
X172969642Y-89182380D02*
X172636309Y-88706190D01*
X172398214Y-89182380D02*
X172398214Y-88182380D01*
X172779166Y-88182380D01*
X172874404Y-88230000D01*
X172922023Y-88277619D01*
X172969642Y-88372857D01*
X172969642Y-88515714D01*
X172922023Y-88610952D01*
X172874404Y-88658571D01*
X172779166Y-88706190D01*
X172398214Y-88706190D01*
X173350595Y-88277619D02*
X173398214Y-88230000D01*
X173493452Y-88182380D01*
X173731547Y-88182380D01*
X173826785Y-88230000D01*
X173874404Y-88277619D01*
X173922023Y-88372857D01*
X173922023Y-88468095D01*
X173874404Y-88610952D01*
X173302976Y-89182380D01*
X173922023Y-89182380D01*
X174874404Y-89182380D02*
X174302976Y-89182380D01*
X174588690Y-89182380D02*
X174588690Y-88182380D01*
X174493452Y-88325238D01*
X174398214Y-88420476D01*
X174302976Y-88468095D01*
X192983442Y-123652380D02*
X192650109Y-123176190D01*
X192412014Y-123652380D02*
X192412014Y-122652380D01*
X192792966Y-122652380D01*
X192888204Y-122700000D01*
X192935823Y-122747619D01*
X192983442Y-122842857D01*
X192983442Y-122985714D01*
X192935823Y-123080952D01*
X192888204Y-123128571D01*
X192792966Y-123176190D01*
X192412014Y-123176190D01*
X193935823Y-123652380D02*
X193364395Y-123652380D01*
X193650109Y-123652380D02*
X193650109Y-122652380D01*
X193554871Y-122795238D01*
X193459633Y-122890476D01*
X193364395Y-122938095D01*
X194316776Y-122747619D02*
X194364395Y-122700000D01*
X194459633Y-122652380D01*
X194697728Y-122652380D01*
X194792966Y-122700000D01*
X194840585Y-122747619D01*
X194888204Y-122842857D01*
X194888204Y-122938095D01*
X194840585Y-123080952D01*
X194269157Y-123652380D01*
X194888204Y-123652380D01*
X193297642Y-104730380D02*
X192964309Y-104254190D01*
X192726214Y-104730380D02*
X192726214Y-103730380D01*
X193107166Y-103730380D01*
X193202404Y-103778000D01*
X193250023Y-103825619D01*
X193297642Y-103920857D01*
X193297642Y-104063714D01*
X193250023Y-104158952D01*
X193202404Y-104206571D01*
X193107166Y-104254190D01*
X192726214Y-104254190D01*
X194250023Y-104730380D02*
X193678595Y-104730380D01*
X193964309Y-104730380D02*
X193964309Y-103730380D01*
X193869071Y-103873238D01*
X193773833Y-103968476D01*
X193678595Y-104016095D01*
X194583357Y-103730380D02*
X195202404Y-103730380D01*
X194869071Y-104111333D01*
X195011928Y-104111333D01*
X195107166Y-104158952D01*
X195154785Y-104206571D01*
X195202404Y-104301809D01*
X195202404Y-104539904D01*
X195154785Y-104635142D01*
X195107166Y-104682761D01*
X195011928Y-104730380D01*
X194726214Y-104730380D01*
X194630976Y-104682761D01*
X194583357Y-104635142D01*
X141518642Y-118667380D02*
X141185309Y-118191190D01*
X140947214Y-118667380D02*
X140947214Y-117667380D01*
X141328166Y-117667380D01*
X141423404Y-117715000D01*
X141471023Y-117762619D01*
X141518642Y-117857857D01*
X141518642Y-118000714D01*
X141471023Y-118095952D01*
X141423404Y-118143571D01*
X141328166Y-118191190D01*
X140947214Y-118191190D01*
X141899595Y-117762619D02*
X141947214Y-117715000D01*
X142042452Y-117667380D01*
X142280547Y-117667380D01*
X142375785Y-117715000D01*
X142423404Y-117762619D01*
X142471023Y-117857857D01*
X142471023Y-117953095D01*
X142423404Y-118095952D01*
X141851976Y-118667380D01*
X142471023Y-118667380D01*
X143328166Y-118000714D02*
X143328166Y-118667380D01*
X143090071Y-117619761D02*
X142851976Y-118334047D01*
X143471023Y-118334047D01*
X141493142Y-121632380D02*
X141159809Y-121156190D01*
X140921714Y-121632380D02*
X140921714Y-120632380D01*
X141302666Y-120632380D01*
X141397904Y-120680000D01*
X141445523Y-120727619D01*
X141493142Y-120822857D01*
X141493142Y-120965714D01*
X141445523Y-121060952D01*
X141397904Y-121108571D01*
X141302666Y-121156190D01*
X140921714Y-121156190D01*
X141874095Y-120727619D02*
X141921714Y-120680000D01*
X142016952Y-120632380D01*
X142255047Y-120632380D01*
X142350285Y-120680000D01*
X142397904Y-120727619D01*
X142445523Y-120822857D01*
X142445523Y-120918095D01*
X142397904Y-121060952D01*
X141826476Y-121632380D01*
X142445523Y-121632380D01*
X143350285Y-120632380D02*
X142874095Y-120632380D01*
X142826476Y-121108571D01*
X142874095Y-121060952D01*
X142969333Y-121013333D01*
X143207428Y-121013333D01*
X143302666Y-121060952D01*
X143350285Y-121108571D01*
X143397904Y-121203809D01*
X143397904Y-121441904D01*
X143350285Y-121537142D01*
X143302666Y-121584761D01*
X143207428Y-121632380D01*
X142969333Y-121632380D01*
X142874095Y-121584761D01*
X142826476Y-121537142D01*
X141493142Y-124382380D02*
X141159809Y-123906190D01*
X140921714Y-124382380D02*
X140921714Y-123382380D01*
X141302666Y-123382380D01*
X141397904Y-123430000D01*
X141445523Y-123477619D01*
X141493142Y-123572857D01*
X141493142Y-123715714D01*
X141445523Y-123810952D01*
X141397904Y-123858571D01*
X141302666Y-123906190D01*
X140921714Y-123906190D01*
X141874095Y-123477619D02*
X141921714Y-123430000D01*
X142016952Y-123382380D01*
X142255047Y-123382380D01*
X142350285Y-123430000D01*
X142397904Y-123477619D01*
X142445523Y-123572857D01*
X142445523Y-123668095D01*
X142397904Y-123810952D01*
X141826476Y-124382380D01*
X142445523Y-124382380D01*
X143302666Y-123382380D02*
X143112190Y-123382380D01*
X143016952Y-123430000D01*
X142969333Y-123477619D01*
X142874095Y-123620476D01*
X142826476Y-123810952D01*
X142826476Y-124191904D01*
X142874095Y-124287142D01*
X142921714Y-124334761D01*
X143016952Y-124382380D01*
X143207428Y-124382380D01*
X143302666Y-124334761D01*
X143350285Y-124287142D01*
X143397904Y-124191904D01*
X143397904Y-123953809D01*
X143350285Y-123858571D01*
X143302666Y-123810952D01*
X143207428Y-123763333D01*
X143016952Y-123763333D01*
X142921714Y-123810952D01*
X142874095Y-123858571D01*
X142826476Y-123953809D01*
X197569642Y-88052380D02*
X197236309Y-87576190D01*
X196998214Y-88052380D02*
X196998214Y-87052380D01*
X197379166Y-87052380D01*
X197474404Y-87100000D01*
X197522023Y-87147619D01*
X197569642Y-87242857D01*
X197569642Y-87385714D01*
X197522023Y-87480952D01*
X197474404Y-87528571D01*
X197379166Y-87576190D01*
X196998214Y-87576190D01*
X198522023Y-88052380D02*
X197950595Y-88052380D01*
X198236309Y-88052380D02*
X198236309Y-87052380D01*
X198141071Y-87195238D01*
X198045833Y-87290476D01*
X197950595Y-87338095D01*
X199379166Y-87052380D02*
X199188690Y-87052380D01*
X199093452Y-87100000D01*
X199045833Y-87147619D01*
X198950595Y-87290476D01*
X198902976Y-87480952D01*
X198902976Y-87861904D01*
X198950595Y-87957142D01*
X198998214Y-88004761D01*
X199093452Y-88052380D01*
X199283928Y-88052380D01*
X199379166Y-88004761D01*
X199426785Y-87957142D01*
X199474404Y-87861904D01*
X199474404Y-87623809D01*
X199426785Y-87528571D01*
X199379166Y-87480952D01*
X199283928Y-87433333D01*
X199093452Y-87433333D01*
X198998214Y-87480952D01*
X198950595Y-87528571D01*
X198902976Y-87623809D01*
X193044642Y-88382380D02*
X192711309Y-87906190D01*
X192473214Y-88382380D02*
X192473214Y-87382380D01*
X192854166Y-87382380D01*
X192949404Y-87430000D01*
X192997023Y-87477619D01*
X193044642Y-87572857D01*
X193044642Y-87715714D01*
X192997023Y-87810952D01*
X192949404Y-87858571D01*
X192854166Y-87906190D01*
X192473214Y-87906190D01*
X193997023Y-88382380D02*
X193425595Y-88382380D01*
X193711309Y-88382380D02*
X193711309Y-87382380D01*
X193616071Y-87525238D01*
X193520833Y-87620476D01*
X193425595Y-87668095D01*
X194330357Y-87382380D02*
X194997023Y-87382380D01*
X194568452Y-88382380D01*
X141518642Y-104028380D02*
X141185309Y-103552190D01*
X140947214Y-104028380D02*
X140947214Y-103028380D01*
X141328166Y-103028380D01*
X141423404Y-103076000D01*
X141471023Y-103123619D01*
X141518642Y-103218857D01*
X141518642Y-103361714D01*
X141471023Y-103456952D01*
X141423404Y-103504571D01*
X141328166Y-103552190D01*
X140947214Y-103552190D01*
X141899595Y-103123619D02*
X141947214Y-103076000D01*
X142042452Y-103028380D01*
X142280547Y-103028380D01*
X142375785Y-103076000D01*
X142423404Y-103123619D01*
X142471023Y-103218857D01*
X142471023Y-103314095D01*
X142423404Y-103456952D01*
X141851976Y-104028380D01*
X142471023Y-104028380D01*
X142804357Y-103028380D02*
X143471023Y-103028380D01*
X143042452Y-104028380D01*
X141518642Y-106882380D02*
X141185309Y-106406190D01*
X140947214Y-106882380D02*
X140947214Y-105882380D01*
X141328166Y-105882380D01*
X141423404Y-105930000D01*
X141471023Y-105977619D01*
X141518642Y-106072857D01*
X141518642Y-106215714D01*
X141471023Y-106310952D01*
X141423404Y-106358571D01*
X141328166Y-106406190D01*
X140947214Y-106406190D01*
X141899595Y-105977619D02*
X141947214Y-105930000D01*
X142042452Y-105882380D01*
X142280547Y-105882380D01*
X142375785Y-105930000D01*
X142423404Y-105977619D01*
X142471023Y-106072857D01*
X142471023Y-106168095D01*
X142423404Y-106310952D01*
X141851976Y-106882380D01*
X142471023Y-106882380D01*
X143042452Y-106310952D02*
X142947214Y-106263333D01*
X142899595Y-106215714D01*
X142851976Y-106120476D01*
X142851976Y-106072857D01*
X142899595Y-105977619D01*
X142947214Y-105930000D01*
X143042452Y-105882380D01*
X143232928Y-105882380D01*
X143328166Y-105930000D01*
X143375785Y-105977619D01*
X143423404Y-106072857D01*
X143423404Y-106120476D01*
X143375785Y-106215714D01*
X143328166Y-106263333D01*
X143232928Y-106310952D01*
X143042452Y-106310952D01*
X142947214Y-106358571D01*
X142899595Y-106406190D01*
X142851976Y-106501428D01*
X142851976Y-106691904D01*
X142899595Y-106787142D01*
X142947214Y-106834761D01*
X143042452Y-106882380D01*
X143232928Y-106882380D01*
X143328166Y-106834761D01*
X143375785Y-106787142D01*
X143423404Y-106691904D01*
X143423404Y-106501428D01*
X143375785Y-106406190D01*
X143328166Y-106358571D01*
X143232928Y-106310952D01*
X141518642Y-109632380D02*
X141185309Y-109156190D01*
X140947214Y-109632380D02*
X140947214Y-108632380D01*
X141328166Y-108632380D01*
X141423404Y-108680000D01*
X141471023Y-108727619D01*
X141518642Y-108822857D01*
X141518642Y-108965714D01*
X141471023Y-109060952D01*
X141423404Y-109108571D01*
X141328166Y-109156190D01*
X140947214Y-109156190D01*
X141899595Y-108727619D02*
X141947214Y-108680000D01*
X142042452Y-108632380D01*
X142280547Y-108632380D01*
X142375785Y-108680000D01*
X142423404Y-108727619D01*
X142471023Y-108822857D01*
X142471023Y-108918095D01*
X142423404Y-109060952D01*
X141851976Y-109632380D01*
X142471023Y-109632380D01*
X142947214Y-109632380D02*
X143137690Y-109632380D01*
X143232928Y-109584761D01*
X143280547Y-109537142D01*
X143375785Y-109394285D01*
X143423404Y-109203809D01*
X143423404Y-108822857D01*
X143375785Y-108727619D01*
X143328166Y-108680000D01*
X143232928Y-108632380D01*
X143042452Y-108632380D01*
X142947214Y-108680000D01*
X142899595Y-108727619D01*
X142851976Y-108822857D01*
X142851976Y-109060952D01*
X142899595Y-109156190D01*
X142947214Y-109203809D01*
X143042452Y-109251428D01*
X143232928Y-109251428D01*
X143328166Y-109203809D01*
X143375785Y-109156190D01*
X143423404Y-109060952D01*
D15*
X126902047Y-93261619D02*
X126962523Y-93080190D01*
X126962523Y-92777809D01*
X126902047Y-92656857D01*
X126841571Y-92596380D01*
X126720619Y-92535904D01*
X126599666Y-92535904D01*
X126478714Y-92596380D01*
X126418238Y-92656857D01*
X126357761Y-92777809D01*
X126297285Y-93019714D01*
X126236809Y-93140666D01*
X126176333Y-93201142D01*
X126055380Y-93261619D01*
X125934428Y-93261619D01*
X125813476Y-93201142D01*
X125753000Y-93140666D01*
X125692523Y-93019714D01*
X125692523Y-92717333D01*
X125753000Y-92535904D01*
X126962523Y-91326380D02*
X126962523Y-92052095D01*
X126962523Y-91689238D02*
X125692523Y-91689238D01*
X125873952Y-91810190D01*
X125994904Y-91931142D01*
X126055380Y-92052095D01*
D12*
X152573904Y-110316380D02*
X152573904Y-109316380D01*
X152812000Y-109316380D01*
X152954857Y-109364000D01*
X153050095Y-109459238D01*
X153097714Y-109554476D01*
X153145333Y-109744952D01*
X153145333Y-109887809D01*
X153097714Y-110078285D01*
X153050095Y-110173523D01*
X152954857Y-110268761D01*
X152812000Y-110316380D01*
X152573904Y-110316380D01*
X154002476Y-109316380D02*
X153812000Y-109316380D01*
X153716761Y-109364000D01*
X153669142Y-109411619D01*
X153573904Y-109554476D01*
X153526285Y-109744952D01*
X153526285Y-110125904D01*
X153573904Y-110221142D01*
X153621523Y-110268761D01*
X153716761Y-110316380D01*
X153907238Y-110316380D01*
X154002476Y-110268761D01*
X154050095Y-110221142D01*
X154097714Y-110125904D01*
X154097714Y-109887809D01*
X154050095Y-109792571D01*
X154002476Y-109744952D01*
X153907238Y-109697333D01*
X153716761Y-109697333D01*
X153621523Y-109744952D01*
X153573904Y-109792571D01*
X153526285Y-109887809D01*
X152573904Y-95838380D02*
X152573904Y-94838380D01*
X152812000Y-94838380D01*
X152954857Y-94886000D01*
X153050095Y-94981238D01*
X153097714Y-95076476D01*
X153145333Y-95266952D01*
X153145333Y-95409809D01*
X153097714Y-95600285D01*
X153050095Y-95695523D01*
X152954857Y-95790761D01*
X152812000Y-95838380D01*
X152573904Y-95838380D01*
X153478666Y-94838380D02*
X154145333Y-94838380D01*
X153716761Y-95838380D01*
X133788095Y-114852380D02*
X133788095Y-115661904D01*
X133835714Y-115757142D01*
X133883333Y-115804761D01*
X133978571Y-115852380D01*
X134169047Y-115852380D01*
X134264285Y-115804761D01*
X134311904Y-115757142D01*
X134359523Y-115661904D01*
X134359523Y-114852380D01*
X135359523Y-115852380D02*
X134788095Y-115852380D01*
X135073809Y-115852380D02*
X135073809Y-114852380D01*
X134978571Y-114995238D01*
X134883333Y-115090476D01*
X134788095Y-115138095D01*
X145257142Y-113242857D02*
X145304761Y-113290476D01*
X145352380Y-113433333D01*
X145352380Y-113528571D01*
X145304761Y-113671428D01*
X145209523Y-113766666D01*
X145114285Y-113814285D01*
X144923809Y-113861904D01*
X144780952Y-113861904D01*
X144590476Y-113814285D01*
X144495238Y-113766666D01*
X144400000Y-113671428D01*
X144352380Y-113528571D01*
X144352380Y-113433333D01*
X144400000Y-113290476D01*
X144447619Y-113242857D01*
X145352380Y-112290476D02*
X145352380Y-112861904D01*
X145352380Y-112576190D02*
X144352380Y-112576190D01*
X144495238Y-112671428D01*
X144590476Y-112766666D01*
X144638095Y-112861904D01*
X145352380Y-111338095D02*
X145352380Y-111909523D01*
X145352380Y-111623809D02*
X144352380Y-111623809D01*
X144495238Y-111719047D01*
X144590476Y-111814285D01*
X144638095Y-111909523D01*
X145757142Y-98792857D02*
X145804761Y-98840476D01*
X145852380Y-98983333D01*
X145852380Y-99078571D01*
X145804761Y-99221428D01*
X145709523Y-99316666D01*
X145614285Y-99364285D01*
X145423809Y-99411904D01*
X145280952Y-99411904D01*
X145090476Y-99364285D01*
X144995238Y-99316666D01*
X144900000Y-99221428D01*
X144852380Y-99078571D01*
X144852380Y-98983333D01*
X144900000Y-98840476D01*
X144947619Y-98792857D01*
X145852380Y-97840476D02*
X145852380Y-98411904D01*
X145852380Y-98126190D02*
X144852380Y-98126190D01*
X144995238Y-98221428D01*
X145090476Y-98316666D01*
X145138095Y-98411904D01*
X144852380Y-97507142D02*
X144852380Y-96840476D01*
X145852380Y-97269047D01*
X121081904Y-100918380D02*
X121081904Y-99918380D01*
X121320000Y-99918380D01*
X121462857Y-99966000D01*
X121558095Y-100061238D01*
X121605714Y-100156476D01*
X121653333Y-100346952D01*
X121653333Y-100489809D01*
X121605714Y-100680285D01*
X121558095Y-100775523D01*
X121462857Y-100870761D01*
X121320000Y-100918380D01*
X121081904Y-100918380D01*
X122605714Y-100918380D02*
X122034285Y-100918380D01*
X122320000Y-100918380D02*
X122320000Y-99918380D01*
X122224761Y-100061238D01*
X122129523Y-100156476D01*
X122034285Y-100204095D01*
X121107404Y-103966380D02*
X121107404Y-102966380D01*
X121345500Y-102966380D01*
X121488357Y-103014000D01*
X121583595Y-103109238D01*
X121631214Y-103204476D01*
X121678833Y-103394952D01*
X121678833Y-103537809D01*
X121631214Y-103728285D01*
X121583595Y-103823523D01*
X121488357Y-103918761D01*
X121345500Y-103966380D01*
X121107404Y-103966380D01*
X122059785Y-103061619D02*
X122107404Y-103014000D01*
X122202642Y-102966380D01*
X122440738Y-102966380D01*
X122535976Y-103014000D01*
X122583595Y-103061619D01*
X122631214Y-103156857D01*
X122631214Y-103252095D01*
X122583595Y-103394952D01*
X122012166Y-103966380D01*
X122631214Y-103966380D01*
X121107404Y-108740380D02*
X121107404Y-107740380D01*
X121345500Y-107740380D01*
X121488357Y-107788000D01*
X121583595Y-107883238D01*
X121631214Y-107978476D01*
X121678833Y-108168952D01*
X121678833Y-108311809D01*
X121631214Y-108502285D01*
X121583595Y-108597523D01*
X121488357Y-108692761D01*
X121345500Y-108740380D01*
X121107404Y-108740380D01*
X122012166Y-107740380D02*
X122631214Y-107740380D01*
X122297880Y-108121333D01*
X122440738Y-108121333D01*
X122535976Y-108168952D01*
X122583595Y-108216571D01*
X122631214Y-108311809D01*
X122631214Y-108549904D01*
X122583595Y-108645142D01*
X122535976Y-108692761D01*
X122440738Y-108740380D01*
X122155023Y-108740380D01*
X122059785Y-108692761D01*
X122012166Y-108645142D01*
X121107404Y-111788380D02*
X121107404Y-110788380D01*
X121345500Y-110788380D01*
X121488357Y-110836000D01*
X121583595Y-110931238D01*
X121631214Y-111026476D01*
X121678833Y-111216952D01*
X121678833Y-111359809D01*
X121631214Y-111550285D01*
X121583595Y-111645523D01*
X121488357Y-111740761D01*
X121345500Y-111788380D01*
X121107404Y-111788380D01*
X122535976Y-111121714D02*
X122535976Y-111788380D01*
X122297880Y-110740761D02*
X122059785Y-111455047D01*
X122678833Y-111455047D01*
X126159523Y-112652380D02*
X125826190Y-112176190D01*
X125588095Y-112652380D02*
X125588095Y-111652380D01*
X125969047Y-111652380D01*
X126064285Y-111700000D01*
X126111904Y-111747619D01*
X126159523Y-111842857D01*
X126159523Y-111985714D01*
X126111904Y-112080952D01*
X126064285Y-112128571D01*
X125969047Y-112176190D01*
X125588095Y-112176190D01*
X126588095Y-112652380D02*
X126588095Y-111652380D01*
X127159523Y-112652380D01*
X127159523Y-111652380D01*
X128159523Y-112652380D02*
X127588095Y-112652380D01*
X127873809Y-112652380D02*
X127873809Y-111652380D01*
X127778571Y-111795238D01*
X127683333Y-111890476D01*
X127588095Y-111938095D01*
X130116666Y-127152380D02*
X130116666Y-127866666D01*
X130069047Y-128009523D01*
X129973809Y-128104761D01*
X129830952Y-128152380D01*
X129735714Y-128152380D01*
X131069047Y-127152380D02*
X130592857Y-127152380D01*
X130545238Y-127628571D01*
X130592857Y-127580952D01*
X130688095Y-127533333D01*
X130926190Y-127533333D01*
X131021428Y-127580952D01*
X131069047Y-127628571D01*
X131116666Y-127723809D01*
X131116666Y-127961904D01*
X131069047Y-128057142D01*
X131021428Y-128104761D01*
X130926190Y-128152380D01*
X130688095Y-128152380D01*
X130592857Y-128104761D01*
X130545238Y-128057142D01*
X144451780Y-90533333D02*
X145166066Y-90533333D01*
X145308923Y-90580952D01*
X145404161Y-90676190D01*
X145451780Y-90819047D01*
X145451780Y-90914285D01*
X144547019Y-90104761D02*
X144499400Y-90057142D01*
X144451780Y-89961904D01*
X144451780Y-89723809D01*
X144499400Y-89628571D01*
X144547019Y-89580952D01*
X144642257Y-89533333D01*
X144737495Y-89533333D01*
X144880352Y-89580952D01*
X145451780Y-90152380D01*
X145451780Y-89533333D01*
D15*
X173095476Y-115120952D02*
X173035000Y-115241904D01*
X172914047Y-115362857D01*
X172732619Y-115544285D01*
X172672142Y-115665238D01*
X172672142Y-115786190D01*
X172974523Y-115725714D02*
X172914047Y-115846666D01*
X172793095Y-115967619D01*
X172551190Y-116028095D01*
X172127857Y-116028095D01*
X171885952Y-115967619D01*
X171765000Y-115846666D01*
X171704523Y-115725714D01*
X171704523Y-115483809D01*
X171765000Y-115362857D01*
X171885952Y-115241904D01*
X172127857Y-115181428D01*
X172551190Y-115181428D01*
X172793095Y-115241904D01*
X172914047Y-115362857D01*
X172974523Y-115483809D01*
X172974523Y-115725714D01*
X172974523Y-113971904D02*
X172974523Y-114697619D01*
X172974523Y-114334761D02*
X171704523Y-114334761D01*
X171885952Y-114455714D01*
X172006904Y-114576666D01*
X172067380Y-114697619D01*
X193492476Y-115180952D02*
X193432000Y-115301904D01*
X193311047Y-115422857D01*
X193129619Y-115604285D01*
X193069142Y-115725238D01*
X193069142Y-115846190D01*
X193371523Y-115785714D02*
X193311047Y-115906666D01*
X193190095Y-116027619D01*
X192948190Y-116088095D01*
X192524857Y-116088095D01*
X192282952Y-116027619D01*
X192162000Y-115906666D01*
X192101523Y-115785714D01*
X192101523Y-115543809D01*
X192162000Y-115422857D01*
X192282952Y-115301904D01*
X192524857Y-115241428D01*
X192948190Y-115241428D01*
X193190095Y-115301904D01*
X193311047Y-115422857D01*
X193371523Y-115543809D01*
X193371523Y-115785714D01*
X192222476Y-114757619D02*
X192162000Y-114697142D01*
X192101523Y-114576190D01*
X192101523Y-114273809D01*
X192162000Y-114152857D01*
X192222476Y-114092380D01*
X192343428Y-114031904D01*
X192464380Y-114031904D01*
X192645809Y-114092380D01*
X193371523Y-114818095D01*
X193371523Y-114031904D01*
X193492476Y-96220952D02*
X193432000Y-96341904D01*
X193311047Y-96462857D01*
X193129619Y-96644285D01*
X193069142Y-96765238D01*
X193069142Y-96886190D01*
X193371523Y-96825714D02*
X193311047Y-96946666D01*
X193190095Y-97067619D01*
X192948190Y-97128095D01*
X192524857Y-97128095D01*
X192282952Y-97067619D01*
X192162000Y-96946666D01*
X192101523Y-96825714D01*
X192101523Y-96583809D01*
X192162000Y-96462857D01*
X192282952Y-96341904D01*
X192524857Y-96281428D01*
X192948190Y-96281428D01*
X193190095Y-96341904D01*
X193311047Y-96462857D01*
X193371523Y-96583809D01*
X193371523Y-96825714D01*
X192101523Y-95858095D02*
X192101523Y-95071904D01*
X192585333Y-95495238D01*
X192585333Y-95313809D01*
X192645809Y-95192857D01*
X192706285Y-95132380D01*
X192827238Y-95071904D01*
X193129619Y-95071904D01*
X193250571Y-95132380D01*
X193311047Y-95192857D01*
X193371523Y-95313809D01*
X193371523Y-95676666D01*
X193311047Y-95797619D01*
X193250571Y-95858095D01*
X173095476Y-96320952D02*
X173035000Y-96441904D01*
X172914047Y-96562857D01*
X172732619Y-96744285D01*
X172672142Y-96865238D01*
X172672142Y-96986190D01*
X172974523Y-96925714D02*
X172914047Y-97046666D01*
X172793095Y-97167619D01*
X172551190Y-97228095D01*
X172127857Y-97228095D01*
X171885952Y-97167619D01*
X171765000Y-97046666D01*
X171704523Y-96925714D01*
X171704523Y-96683809D01*
X171765000Y-96562857D01*
X171885952Y-96441904D01*
X172127857Y-96381428D01*
X172551190Y-96381428D01*
X172793095Y-96441904D01*
X172914047Y-96562857D01*
X172974523Y-96683809D01*
X172974523Y-96925714D01*
X172127857Y-95292857D02*
X172974523Y-95292857D01*
X171644047Y-95595238D02*
X172551190Y-95897619D01*
X172551190Y-95111428D01*
M02*
