G04 #@! TF.GenerationSoftware,KiCad,Pcbnew,(5.1.4)-1*
G04 #@! TF.CreationDate,2019-11-07T17:21:05+09:00*
G04 #@! TF.ProjectId,CAN_Dual_MDexpress,43414e5f-4475-4616-9c5f-4d4465787072,rev?*
G04 #@! TF.SameCoordinates,Original*
G04 #@! TF.FileFunction,Legend,Bot*
G04 #@! TF.FilePolarity,Positive*
%FSLAX46Y46*%
G04 Gerber Fmt 4.6, Leading zero omitted, Abs format (unit mm)*
G04 Created by KiCad (PCBNEW (5.1.4)-1) date 2019-11-07 17:21:05*
%MOMM*%
%LPD*%
G04 APERTURE LIST*
%ADD10C,0.300000*%
%ADD11C,0.120000*%
%ADD12C,0.150000*%
%ADD13C,0.100000*%
%ADD14C,0.200000*%
%ADD15C,0.254000*%
G04 APERTURE END LIST*
D10*
X224714285Y-83904761D02*
X224047619Y-85904761D01*
X223380952Y-83904761D01*
X222714285Y-85142857D02*
X221190476Y-85142857D01*
X219095238Y-85714285D02*
X219190476Y-85809523D01*
X219476190Y-85904761D01*
X219666666Y-85904761D01*
X219952380Y-85809523D01*
X220142857Y-85619047D01*
X220238095Y-85428571D01*
X220333333Y-85047619D01*
X220333333Y-84761904D01*
X220238095Y-84380952D01*
X220142857Y-84190476D01*
X219952380Y-84000000D01*
X219666666Y-83904761D01*
X219476190Y-83904761D01*
X219190476Y-84000000D01*
X219095238Y-84095238D01*
X218238095Y-83904761D02*
X218238095Y-85523809D01*
X218142857Y-85714285D01*
X218047619Y-85809523D01*
X217857142Y-85904761D01*
X217476190Y-85904761D01*
X217285714Y-85809523D01*
X217190476Y-85714285D01*
X217095238Y-85523809D01*
X217095238Y-83904761D01*
X216428571Y-83904761D02*
X215285714Y-83904761D01*
X215857142Y-85904761D02*
X215857142Y-83904761D01*
D11*
X110000000Y-85000000D02*
X215000000Y-85000000D01*
D12*
X134057142Y-37252380D02*
X134057142Y-36252380D01*
X133819047Y-36252380D01*
X133676190Y-36300000D01*
X133580952Y-36395238D01*
X133533333Y-36490476D01*
X133485714Y-36680952D01*
X133485714Y-36823809D01*
X133533333Y-37014285D01*
X133580952Y-37109523D01*
X133676190Y-37204761D01*
X133819047Y-37252380D01*
X134057142Y-37252380D01*
X132676190Y-37204761D02*
X132771428Y-37252380D01*
X132961904Y-37252380D01*
X133057142Y-37204761D01*
X133104761Y-37109523D01*
X133104761Y-36728571D01*
X133057142Y-36633333D01*
X132961904Y-36585714D01*
X132771428Y-36585714D01*
X132676190Y-36633333D01*
X132628571Y-36728571D01*
X132628571Y-36823809D01*
X133104761Y-36919047D01*
X132247619Y-37204761D02*
X132152380Y-37252380D01*
X131961904Y-37252380D01*
X131866666Y-37204761D01*
X131819047Y-37109523D01*
X131819047Y-37061904D01*
X131866666Y-36966666D01*
X131961904Y-36919047D01*
X132104761Y-36919047D01*
X132200000Y-36871428D01*
X132247619Y-36776190D01*
X132247619Y-36728571D01*
X132200000Y-36633333D01*
X132104761Y-36585714D01*
X131961904Y-36585714D01*
X131866666Y-36633333D01*
X131390476Y-37252380D02*
X131390476Y-36585714D01*
X131390476Y-36252380D02*
X131438095Y-36300000D01*
X131390476Y-36347619D01*
X131342857Y-36300000D01*
X131390476Y-36252380D01*
X131390476Y-36347619D01*
X130485714Y-36585714D02*
X130485714Y-37395238D01*
X130533333Y-37490476D01*
X130580952Y-37538095D01*
X130676190Y-37585714D01*
X130819047Y-37585714D01*
X130914285Y-37538095D01*
X130485714Y-37204761D02*
X130580952Y-37252380D01*
X130771428Y-37252380D01*
X130866666Y-37204761D01*
X130914285Y-37157142D01*
X130961904Y-37061904D01*
X130961904Y-36776190D01*
X130914285Y-36680952D01*
X130866666Y-36633333D01*
X130771428Y-36585714D01*
X130580952Y-36585714D01*
X130485714Y-36633333D01*
X130009523Y-36585714D02*
X130009523Y-37252380D01*
X130009523Y-36680952D02*
X129961904Y-36633333D01*
X129866666Y-36585714D01*
X129723809Y-36585714D01*
X129628571Y-36633333D01*
X129580952Y-36728571D01*
X129580952Y-37252380D01*
X128723809Y-37204761D02*
X128819047Y-37252380D01*
X129009523Y-37252380D01*
X129104761Y-37204761D01*
X129152380Y-37109523D01*
X129152380Y-36728571D01*
X129104761Y-36633333D01*
X129009523Y-36585714D01*
X128819047Y-36585714D01*
X128723809Y-36633333D01*
X128676190Y-36728571D01*
X128676190Y-36823809D01*
X129152380Y-36919047D01*
X127819047Y-37252380D02*
X127819047Y-36252380D01*
X127819047Y-37204761D02*
X127914285Y-37252380D01*
X128104761Y-37252380D01*
X128200000Y-37204761D01*
X128247619Y-37157142D01*
X128295238Y-37061904D01*
X128295238Y-36776190D01*
X128247619Y-36680952D01*
X128200000Y-36633333D01*
X128104761Y-36585714D01*
X127914285Y-36585714D01*
X127819047Y-36633333D01*
X126580952Y-37252380D02*
X126580952Y-36252380D01*
X126580952Y-36633333D02*
X126485714Y-36585714D01*
X126295238Y-36585714D01*
X126200000Y-36633333D01*
X126152380Y-36680952D01*
X126104761Y-36776190D01*
X126104761Y-37061904D01*
X126152380Y-37157142D01*
X126200000Y-37204761D01*
X126295238Y-37252380D01*
X126485714Y-37252380D01*
X126580952Y-37204761D01*
X125771428Y-36585714D02*
X125533333Y-37252380D01*
X125295238Y-36585714D02*
X125533333Y-37252380D01*
X125628571Y-37490476D01*
X125676190Y-37538095D01*
X125771428Y-37585714D01*
X124295238Y-36252380D02*
X123723809Y-36252380D01*
X124009523Y-37252380D02*
X124009523Y-36252380D01*
X123390476Y-37252380D02*
X123390476Y-36252380D01*
X122819047Y-37252380D01*
X122819047Y-36252380D01*
X122342857Y-37252380D02*
X122342857Y-36252380D01*
X121771428Y-37252380D02*
X122200000Y-36680952D01*
X121771428Y-36252380D02*
X122342857Y-36823809D01*
X121342857Y-37157142D02*
X121295238Y-37204761D01*
X121342857Y-37252380D01*
X121390476Y-37204761D01*
X121342857Y-37157142D01*
X121342857Y-37252380D01*
X150761904Y-73428571D02*
X151095238Y-73428571D01*
X151095238Y-73952380D02*
X151095238Y-72952380D01*
X150619047Y-72952380D01*
X149904761Y-73428571D02*
X150238095Y-73428571D01*
X150238095Y-73952380D02*
X150238095Y-72952380D01*
X149761904Y-72952380D01*
X148857142Y-73952380D02*
X149428571Y-73952380D01*
X149142857Y-73952380D02*
X149142857Y-72952380D01*
X149238095Y-73095238D01*
X149333333Y-73190476D01*
X149428571Y-73238095D01*
X147761904Y-73428571D02*
X148095238Y-73428571D01*
X148095238Y-73952380D02*
X148095238Y-72952380D01*
X147619047Y-72952380D01*
X146904761Y-73428571D02*
X147238095Y-73428571D01*
X147238095Y-73952380D02*
X147238095Y-72952380D01*
X146761904Y-72952380D01*
X146428571Y-73047619D02*
X146380952Y-73000000D01*
X146285714Y-72952380D01*
X146047619Y-72952380D01*
X145952380Y-73000000D01*
X145904761Y-73047619D01*
X145857142Y-73142857D01*
X145857142Y-73238095D01*
X145904761Y-73380952D01*
X146476190Y-73952380D01*
X145857142Y-73952380D01*
X147689904Y-63126571D02*
X148023238Y-63126571D01*
X148023238Y-63650380D02*
X148023238Y-62650380D01*
X147547047Y-62650380D01*
X146832761Y-63126571D02*
X147166095Y-63126571D01*
X147166095Y-63650380D02*
X147166095Y-62650380D01*
X146689904Y-62650380D01*
X146356571Y-62745619D02*
X146308952Y-62698000D01*
X146213714Y-62650380D01*
X145975619Y-62650380D01*
X145880380Y-62698000D01*
X145832761Y-62745619D01*
X145785142Y-62840857D01*
X145785142Y-62936095D01*
X145832761Y-63078952D01*
X146404190Y-63650380D01*
X145785142Y-63650380D01*
X150689904Y-63126571D02*
X151023238Y-63126571D01*
X151023238Y-63650380D02*
X151023238Y-62650380D01*
X150547047Y-62650380D01*
X149832761Y-63126571D02*
X150166095Y-63126571D01*
X150166095Y-63650380D02*
X150166095Y-62650380D01*
X149689904Y-62650380D01*
X148785142Y-63650380D02*
X149356571Y-63650380D01*
X149070857Y-63650380D02*
X149070857Y-62650380D01*
X149166095Y-62793238D01*
X149261333Y-62888476D01*
X149356571Y-62936095D01*
X134057142Y-87252380D02*
X134057142Y-86252380D01*
X133819047Y-86252380D01*
X133676190Y-86300000D01*
X133580952Y-86395238D01*
X133533333Y-86490476D01*
X133485714Y-86680952D01*
X133485714Y-86823809D01*
X133533333Y-87014285D01*
X133580952Y-87109523D01*
X133676190Y-87204761D01*
X133819047Y-87252380D01*
X134057142Y-87252380D01*
X132676190Y-87204761D02*
X132771428Y-87252380D01*
X132961904Y-87252380D01*
X133057142Y-87204761D01*
X133104761Y-87109523D01*
X133104761Y-86728571D01*
X133057142Y-86633333D01*
X132961904Y-86585714D01*
X132771428Y-86585714D01*
X132676190Y-86633333D01*
X132628571Y-86728571D01*
X132628571Y-86823809D01*
X133104761Y-86919047D01*
X132247619Y-87204761D02*
X132152380Y-87252380D01*
X131961904Y-87252380D01*
X131866666Y-87204761D01*
X131819047Y-87109523D01*
X131819047Y-87061904D01*
X131866666Y-86966666D01*
X131961904Y-86919047D01*
X132104761Y-86919047D01*
X132200000Y-86871428D01*
X132247619Y-86776190D01*
X132247619Y-86728571D01*
X132200000Y-86633333D01*
X132104761Y-86585714D01*
X131961904Y-86585714D01*
X131866666Y-86633333D01*
X131390476Y-87252380D02*
X131390476Y-86585714D01*
X131390476Y-86252380D02*
X131438095Y-86300000D01*
X131390476Y-86347619D01*
X131342857Y-86300000D01*
X131390476Y-86252380D01*
X131390476Y-86347619D01*
X130485714Y-86585714D02*
X130485714Y-87395238D01*
X130533333Y-87490476D01*
X130580952Y-87538095D01*
X130676190Y-87585714D01*
X130819047Y-87585714D01*
X130914285Y-87538095D01*
X130485714Y-87204761D02*
X130580952Y-87252380D01*
X130771428Y-87252380D01*
X130866666Y-87204761D01*
X130914285Y-87157142D01*
X130961904Y-87061904D01*
X130961904Y-86776190D01*
X130914285Y-86680952D01*
X130866666Y-86633333D01*
X130771428Y-86585714D01*
X130580952Y-86585714D01*
X130485714Y-86633333D01*
X130009523Y-86585714D02*
X130009523Y-87252380D01*
X130009523Y-86680952D02*
X129961904Y-86633333D01*
X129866666Y-86585714D01*
X129723809Y-86585714D01*
X129628571Y-86633333D01*
X129580952Y-86728571D01*
X129580952Y-87252380D01*
X128723809Y-87204761D02*
X128819047Y-87252380D01*
X129009523Y-87252380D01*
X129104761Y-87204761D01*
X129152380Y-87109523D01*
X129152380Y-86728571D01*
X129104761Y-86633333D01*
X129009523Y-86585714D01*
X128819047Y-86585714D01*
X128723809Y-86633333D01*
X128676190Y-86728571D01*
X128676190Y-86823809D01*
X129152380Y-86919047D01*
X127819047Y-87252380D02*
X127819047Y-86252380D01*
X127819047Y-87204761D02*
X127914285Y-87252380D01*
X128104761Y-87252380D01*
X128200000Y-87204761D01*
X128247619Y-87157142D01*
X128295238Y-87061904D01*
X128295238Y-86776190D01*
X128247619Y-86680952D01*
X128200000Y-86633333D01*
X128104761Y-86585714D01*
X127914285Y-86585714D01*
X127819047Y-86633333D01*
X126580952Y-87252380D02*
X126580952Y-86252380D01*
X126580952Y-86633333D02*
X126485714Y-86585714D01*
X126295238Y-86585714D01*
X126200000Y-86633333D01*
X126152380Y-86680952D01*
X126104761Y-86776190D01*
X126104761Y-87061904D01*
X126152380Y-87157142D01*
X126200000Y-87204761D01*
X126295238Y-87252380D01*
X126485714Y-87252380D01*
X126580952Y-87204761D01*
X125771428Y-86585714D02*
X125533333Y-87252380D01*
X125295238Y-86585714D02*
X125533333Y-87252380D01*
X125628571Y-87490476D01*
X125676190Y-87538095D01*
X125771428Y-87585714D01*
X124295238Y-86252380D02*
X123723809Y-86252380D01*
X124009523Y-87252380D02*
X124009523Y-86252380D01*
X123390476Y-87252380D02*
X123390476Y-86252380D01*
X122819047Y-87252380D01*
X122819047Y-86252380D01*
X122342857Y-87252380D02*
X122342857Y-86252380D01*
X121771428Y-87252380D02*
X122200000Y-86680952D01*
X121771428Y-86252380D02*
X122342857Y-86823809D01*
X121342857Y-87157142D02*
X121295238Y-87204761D01*
X121342857Y-87252380D01*
X121390476Y-87204761D01*
X121342857Y-87157142D01*
X121342857Y-87252380D01*
X150761904Y-123428571D02*
X151095238Y-123428571D01*
X151095238Y-123952380D02*
X151095238Y-122952380D01*
X150619047Y-122952380D01*
X149904761Y-123428571D02*
X150238095Y-123428571D01*
X150238095Y-123952380D02*
X150238095Y-122952380D01*
X149761904Y-122952380D01*
X148857142Y-123952380D02*
X149428571Y-123952380D01*
X149142857Y-123952380D02*
X149142857Y-122952380D01*
X149238095Y-123095238D01*
X149333333Y-123190476D01*
X149428571Y-123238095D01*
X147761904Y-123428571D02*
X148095238Y-123428571D01*
X148095238Y-123952380D02*
X148095238Y-122952380D01*
X147619047Y-122952380D01*
X146904761Y-123428571D02*
X147238095Y-123428571D01*
X147238095Y-123952380D02*
X147238095Y-122952380D01*
X146761904Y-122952380D01*
X146428571Y-123047619D02*
X146380952Y-123000000D01*
X146285714Y-122952380D01*
X146047619Y-122952380D01*
X145952380Y-123000000D01*
X145904761Y-123047619D01*
X145857142Y-123142857D01*
X145857142Y-123238095D01*
X145904761Y-123380952D01*
X146476190Y-123952380D01*
X145857142Y-123952380D01*
X147689904Y-113126571D02*
X148023238Y-113126571D01*
X148023238Y-113650380D02*
X148023238Y-112650380D01*
X147547047Y-112650380D01*
X146832761Y-113126571D02*
X147166095Y-113126571D01*
X147166095Y-113650380D02*
X147166095Y-112650380D01*
X146689904Y-112650380D01*
X146356571Y-112745619D02*
X146308952Y-112698000D01*
X146213714Y-112650380D01*
X145975619Y-112650380D01*
X145880380Y-112698000D01*
X145832761Y-112745619D01*
X145785142Y-112840857D01*
X145785142Y-112936095D01*
X145832761Y-113078952D01*
X146404190Y-113650380D01*
X145785142Y-113650380D01*
X150689904Y-113126571D02*
X151023238Y-113126571D01*
X151023238Y-113650380D02*
X151023238Y-112650380D01*
X150547047Y-112650380D01*
X149832761Y-113126571D02*
X150166095Y-113126571D01*
X150166095Y-113650380D02*
X150166095Y-112650380D01*
X149689904Y-112650380D01*
X148785142Y-113650380D02*
X149356571Y-113650380D01*
X149070857Y-113650380D02*
X149070857Y-112650380D01*
X149166095Y-112793238D01*
X149261333Y-112888476D01*
X149356571Y-112936095D01*
D11*
X126888000Y-61856000D02*
X126588000Y-61856000D01*
X126588000Y-61856000D02*
X126588000Y-61556000D01*
X133508000Y-61856000D02*
X133808000Y-61856000D01*
X133808000Y-61856000D02*
X133808000Y-61556000D01*
X126888000Y-54636000D02*
X126588000Y-54636000D01*
X126588000Y-54636000D02*
X126588000Y-54936000D01*
X133508000Y-54636000D02*
X133808000Y-54636000D01*
X133808000Y-54636000D02*
X133808000Y-54936000D01*
X133808000Y-54936000D02*
X135123000Y-54936000D01*
D13*
X127134000Y-38470000D02*
X125134000Y-38470000D01*
X127134000Y-42970000D02*
X125134000Y-42970000D01*
X128384000Y-40220000D02*
X128384000Y-41220000D01*
X123884000Y-40220000D02*
X123884000Y-41220000D01*
D14*
X137289000Y-58921000D02*
X138789000Y-58921000D01*
X139139000Y-48851000D02*
X139139000Y-58751000D01*
X142339000Y-48851000D02*
X139139000Y-48851000D01*
X142339000Y-58751000D02*
X142339000Y-48851000D01*
X139139000Y-58751000D02*
X142339000Y-58751000D01*
D11*
X127800000Y-67740000D02*
X129750000Y-67740000D01*
X127800000Y-67740000D02*
X125850000Y-67740000D01*
X127800000Y-72860000D02*
X129750000Y-72860000D01*
X127800000Y-72860000D02*
X124350000Y-72860000D01*
X123610000Y-70821078D02*
X123610000Y-70303922D01*
X122190000Y-70821078D02*
X122190000Y-70303922D01*
D14*
X137289000Y-72510000D02*
X138789000Y-72510000D01*
X139139000Y-62440000D02*
X139139000Y-72340000D01*
X142339000Y-62440000D02*
X139139000Y-62440000D01*
X142339000Y-72340000D02*
X142339000Y-62440000D01*
X139139000Y-72340000D02*
X142339000Y-72340000D01*
D11*
X132138779Y-44782000D02*
X131813221Y-44782000D01*
X132138779Y-45802000D02*
X131813221Y-45802000D01*
X153058578Y-68710000D02*
X152541422Y-68710000D01*
X153058578Y-67290000D02*
X152541422Y-67290000D01*
X127154578Y-66576000D02*
X126637422Y-66576000D01*
X127154578Y-65156000D02*
X126637422Y-65156000D01*
X153158578Y-54110000D02*
X152641422Y-54110000D01*
X153158578Y-52690000D02*
X152641422Y-52690000D01*
X127995078Y-44582000D02*
X127477922Y-44582000D01*
X127995078Y-46002000D02*
X127477922Y-46002000D01*
X133448000Y-70696578D02*
X133448000Y-70179422D01*
X132028000Y-70696578D02*
X132028000Y-70179422D01*
X142721078Y-61242000D02*
X142203922Y-61242000D01*
X142721078Y-59822000D02*
X142203922Y-59822000D01*
X142721078Y-74704000D02*
X142203922Y-74704000D01*
X142721078Y-73284000D02*
X142203922Y-73284000D01*
X148035000Y-59787500D02*
X148035000Y-62072500D01*
X148035000Y-62072500D02*
X146565000Y-62072500D01*
X146565000Y-62072500D02*
X146565000Y-59787500D01*
X142660000Y-38540000D02*
X142660000Y-44510000D01*
X142660000Y-44510000D02*
X135040000Y-44510000D01*
X135040000Y-44510000D02*
X135040000Y-38540000D01*
X135040000Y-38540000D02*
X142660000Y-38540000D01*
X139350000Y-38550000D02*
X139350000Y-39300000D01*
X139350000Y-39300000D02*
X138350000Y-39300000D01*
X138350000Y-39300000D02*
X138350000Y-38550000D01*
X138350000Y-38550000D02*
X139350000Y-38550000D01*
X142650000Y-38550000D02*
X142650000Y-39300000D01*
X142650000Y-39300000D02*
X140850000Y-39300000D01*
X140850000Y-39300000D02*
X140850000Y-38550000D01*
X140850000Y-38550000D02*
X142650000Y-38550000D01*
X136850000Y-38550000D02*
X136850000Y-39300000D01*
X136850000Y-39300000D02*
X135050000Y-39300000D01*
X135050000Y-39300000D02*
X135050000Y-38550000D01*
X135050000Y-38550000D02*
X136850000Y-38550000D01*
X142650000Y-40800000D02*
X141900000Y-40800000D01*
X141900000Y-40800000D02*
X141900000Y-43750000D01*
X141900000Y-43750000D02*
X138850000Y-43750000D01*
X135050000Y-40800000D02*
X135800000Y-40800000D01*
X135800000Y-40800000D02*
X135800000Y-43750000D01*
X135800000Y-43750000D02*
X138850000Y-43750000D01*
X141700000Y-38250000D02*
X142950000Y-38250000D01*
X142950000Y-38250000D02*
X142950000Y-39500000D01*
X148790000Y-67437221D02*
X148790000Y-67762779D01*
X149810000Y-67437221D02*
X149810000Y-67762779D01*
X146565000Y-72472500D02*
X146565000Y-70187500D01*
X148035000Y-72472500D02*
X146565000Y-72472500D01*
X148035000Y-70187500D02*
X148035000Y-72472500D01*
X150035000Y-70187500D02*
X150035000Y-72472500D01*
X150035000Y-72472500D02*
X148565000Y-72472500D01*
X148565000Y-72472500D02*
X148565000Y-70187500D01*
X148137221Y-56610000D02*
X148462779Y-56610000D01*
X148137221Y-55590000D02*
X148462779Y-55590000D01*
X146324721Y-58510000D02*
X146650279Y-58510000D01*
X146324721Y-57490000D02*
X146650279Y-57490000D01*
D14*
X168898000Y-60950000D02*
X168898000Y-73103000D01*
X168898000Y-73103000D02*
X198862000Y-73100000D01*
X198862000Y-73100000D02*
X198848000Y-57350000D01*
X198858000Y-57350000D02*
X183898000Y-57368000D01*
D11*
X150035000Y-59812500D02*
X150035000Y-62097500D01*
X150035000Y-62097500D02*
X148565000Y-62097500D01*
X148565000Y-62097500D02*
X148565000Y-59812500D01*
X146790000Y-67474721D02*
X146790000Y-67800279D01*
X147810000Y-67474721D02*
X147810000Y-67800279D01*
D14*
X168898000Y-41950000D02*
X168898000Y-54103000D01*
X168898000Y-54103000D02*
X198862000Y-54100000D01*
X198862000Y-54100000D02*
X198848000Y-38350000D01*
X198858000Y-38350000D02*
X183898000Y-38368000D01*
D11*
X145940000Y-42660000D02*
X145940000Y-36690000D01*
X145940000Y-36690000D02*
X161060000Y-36690000D01*
X161060000Y-36690000D02*
X161060000Y-42660000D01*
X161060000Y-42660000D02*
X145940000Y-42660000D01*
X149250000Y-42650000D02*
X149250000Y-41900000D01*
X149250000Y-41900000D02*
X157750000Y-41900000D01*
X157750000Y-41900000D02*
X157750000Y-42650000D01*
X157750000Y-42650000D02*
X149250000Y-42650000D01*
X145950000Y-42650000D02*
X145950000Y-41900000D01*
X145950000Y-41900000D02*
X147750000Y-41900000D01*
X147750000Y-41900000D02*
X147750000Y-42650000D01*
X147750000Y-42650000D02*
X145950000Y-42650000D01*
X159250000Y-42650000D02*
X159250000Y-41900000D01*
X159250000Y-41900000D02*
X161050000Y-41900000D01*
X161050000Y-41900000D02*
X161050000Y-42650000D01*
X161050000Y-42650000D02*
X159250000Y-42650000D01*
X145950000Y-40400000D02*
X146700000Y-40400000D01*
X146700000Y-40400000D02*
X146700000Y-37450000D01*
X146700000Y-37450000D02*
X153500000Y-37450000D01*
X161050000Y-40400000D02*
X160300000Y-40400000D01*
X160300000Y-40400000D02*
X160300000Y-37450000D01*
X160300000Y-37450000D02*
X153500000Y-37450000D01*
X146900000Y-42950000D02*
X145650000Y-42950000D01*
X145650000Y-42950000D02*
X145650000Y-41700000D01*
X127995078Y-94582000D02*
X127477922Y-94582000D01*
X127995078Y-96002000D02*
X127477922Y-96002000D01*
X127154578Y-116576000D02*
X126637422Y-116576000D01*
X127154578Y-115156000D02*
X126637422Y-115156000D01*
X133448000Y-120696578D02*
X133448000Y-120179422D01*
X132028000Y-120696578D02*
X132028000Y-120179422D01*
X153058578Y-118710000D02*
X152541422Y-118710000D01*
X153058578Y-117290000D02*
X152541422Y-117290000D01*
X153158578Y-104110000D02*
X152641422Y-104110000D01*
X153158578Y-102690000D02*
X152641422Y-102690000D01*
X142721078Y-124704000D02*
X142203922Y-124704000D01*
X142721078Y-123284000D02*
X142203922Y-123284000D01*
X142721078Y-111242000D02*
X142203922Y-111242000D01*
X142721078Y-109822000D02*
X142203922Y-109822000D01*
D14*
X137289000Y-122510000D02*
X138789000Y-122510000D01*
X139139000Y-112440000D02*
X139139000Y-122340000D01*
X142339000Y-112440000D02*
X139139000Y-112440000D01*
X142339000Y-122340000D02*
X142339000Y-112440000D01*
X139139000Y-122340000D02*
X142339000Y-122340000D01*
D11*
X132138779Y-94782000D02*
X131813221Y-94782000D01*
X132138779Y-95802000D02*
X131813221Y-95802000D01*
D14*
X137289000Y-108921000D02*
X138789000Y-108921000D01*
X139139000Y-98851000D02*
X139139000Y-108751000D01*
X142339000Y-98851000D02*
X139139000Y-98851000D01*
X142339000Y-108751000D02*
X142339000Y-98851000D01*
X139139000Y-108751000D02*
X142339000Y-108751000D01*
D11*
X126888000Y-111856000D02*
X126588000Y-111856000D01*
X126588000Y-111856000D02*
X126588000Y-111556000D01*
X133508000Y-111856000D02*
X133808000Y-111856000D01*
X133808000Y-111856000D02*
X133808000Y-111556000D01*
X126888000Y-104636000D02*
X126588000Y-104636000D01*
X126588000Y-104636000D02*
X126588000Y-104936000D01*
X133508000Y-104636000D02*
X133808000Y-104636000D01*
X133808000Y-104636000D02*
X133808000Y-104936000D01*
X133808000Y-104936000D02*
X135123000Y-104936000D01*
D13*
X127134000Y-88470000D02*
X125134000Y-88470000D01*
X127134000Y-92970000D02*
X125134000Y-92970000D01*
X128384000Y-90220000D02*
X128384000Y-91220000D01*
X123884000Y-90220000D02*
X123884000Y-91220000D01*
D11*
X127800000Y-117740000D02*
X129750000Y-117740000D01*
X127800000Y-117740000D02*
X125850000Y-117740000D01*
X127800000Y-122860000D02*
X129750000Y-122860000D01*
X127800000Y-122860000D02*
X124350000Y-122860000D01*
X123610000Y-120821078D02*
X123610000Y-120303922D01*
X122190000Y-120821078D02*
X122190000Y-120303922D01*
D14*
X168898000Y-110950000D02*
X168898000Y-123103000D01*
X168898000Y-123103000D02*
X198862000Y-123100000D01*
X198862000Y-123100000D02*
X198848000Y-107350000D01*
X198858000Y-107350000D02*
X183898000Y-107368000D01*
X168898000Y-91950000D02*
X168898000Y-104103000D01*
X168898000Y-104103000D02*
X198862000Y-104100000D01*
X198862000Y-104100000D02*
X198848000Y-88350000D01*
X198858000Y-88350000D02*
X183898000Y-88368000D01*
D11*
X142660000Y-88540000D02*
X142660000Y-94510000D01*
X142660000Y-94510000D02*
X135040000Y-94510000D01*
X135040000Y-94510000D02*
X135040000Y-88540000D01*
X135040000Y-88540000D02*
X142660000Y-88540000D01*
X139350000Y-88550000D02*
X139350000Y-89300000D01*
X139350000Y-89300000D02*
X138350000Y-89300000D01*
X138350000Y-89300000D02*
X138350000Y-88550000D01*
X138350000Y-88550000D02*
X139350000Y-88550000D01*
X142650000Y-88550000D02*
X142650000Y-89300000D01*
X142650000Y-89300000D02*
X140850000Y-89300000D01*
X140850000Y-89300000D02*
X140850000Y-88550000D01*
X140850000Y-88550000D02*
X142650000Y-88550000D01*
X136850000Y-88550000D02*
X136850000Y-89300000D01*
X136850000Y-89300000D02*
X135050000Y-89300000D01*
X135050000Y-89300000D02*
X135050000Y-88550000D01*
X135050000Y-88550000D02*
X136850000Y-88550000D01*
X142650000Y-90800000D02*
X141900000Y-90800000D01*
X141900000Y-90800000D02*
X141900000Y-93750000D01*
X141900000Y-93750000D02*
X138850000Y-93750000D01*
X135050000Y-90800000D02*
X135800000Y-90800000D01*
X135800000Y-90800000D02*
X135800000Y-93750000D01*
X135800000Y-93750000D02*
X138850000Y-93750000D01*
X141700000Y-88250000D02*
X142950000Y-88250000D01*
X142950000Y-88250000D02*
X142950000Y-89500000D01*
X145940000Y-92660000D02*
X145940000Y-86690000D01*
X145940000Y-86690000D02*
X161060000Y-86690000D01*
X161060000Y-86690000D02*
X161060000Y-92660000D01*
X161060000Y-92660000D02*
X145940000Y-92660000D01*
X149250000Y-92650000D02*
X149250000Y-91900000D01*
X149250000Y-91900000D02*
X157750000Y-91900000D01*
X157750000Y-91900000D02*
X157750000Y-92650000D01*
X157750000Y-92650000D02*
X149250000Y-92650000D01*
X145950000Y-92650000D02*
X145950000Y-91900000D01*
X145950000Y-91900000D02*
X147750000Y-91900000D01*
X147750000Y-91900000D02*
X147750000Y-92650000D01*
X147750000Y-92650000D02*
X145950000Y-92650000D01*
X159250000Y-92650000D02*
X159250000Y-91900000D01*
X159250000Y-91900000D02*
X161050000Y-91900000D01*
X161050000Y-91900000D02*
X161050000Y-92650000D01*
X161050000Y-92650000D02*
X159250000Y-92650000D01*
X145950000Y-90400000D02*
X146700000Y-90400000D01*
X146700000Y-90400000D02*
X146700000Y-87450000D01*
X146700000Y-87450000D02*
X153500000Y-87450000D01*
X161050000Y-90400000D02*
X160300000Y-90400000D01*
X160300000Y-90400000D02*
X160300000Y-87450000D01*
X160300000Y-87450000D02*
X153500000Y-87450000D01*
X146900000Y-92950000D02*
X145650000Y-92950000D01*
X145650000Y-92950000D02*
X145650000Y-91700000D01*
X150035000Y-109812500D02*
X150035000Y-112097500D01*
X150035000Y-112097500D02*
X148565000Y-112097500D01*
X148565000Y-112097500D02*
X148565000Y-109812500D01*
X148035000Y-109787500D02*
X148035000Y-112072500D01*
X148035000Y-112072500D02*
X146565000Y-112072500D01*
X146565000Y-112072500D02*
X146565000Y-109787500D01*
X146565000Y-122472500D02*
X146565000Y-120187500D01*
X148035000Y-122472500D02*
X146565000Y-122472500D01*
X148035000Y-120187500D02*
X148035000Y-122472500D01*
X150035000Y-120187500D02*
X150035000Y-122472500D01*
X150035000Y-122472500D02*
X148565000Y-122472500D01*
X148565000Y-122472500D02*
X148565000Y-120187500D01*
X148137221Y-106610000D02*
X148462779Y-106610000D01*
X148137221Y-105590000D02*
X148462779Y-105590000D01*
X146324721Y-108510000D02*
X146650279Y-108510000D01*
X146324721Y-107490000D02*
X146650279Y-107490000D01*
X146790000Y-117474721D02*
X146790000Y-117800279D01*
X147810000Y-117474721D02*
X147810000Y-117800279D01*
X148790000Y-117437221D02*
X148790000Y-117762779D01*
X149810000Y-117437221D02*
X149810000Y-117762779D01*
D12*
X130959904Y-51818380D02*
X130959904Y-52627904D01*
X130912285Y-52723142D01*
X130864666Y-52770761D01*
X130769428Y-52818380D01*
X130578952Y-52818380D01*
X130483714Y-52770761D01*
X130436095Y-52723142D01*
X130388476Y-52627904D01*
X130388476Y-51818380D01*
X129959904Y-51913619D02*
X129912285Y-51866000D01*
X129817047Y-51818380D01*
X129578952Y-51818380D01*
X129483714Y-51866000D01*
X129436095Y-51913619D01*
X129388476Y-52008857D01*
X129388476Y-52104095D01*
X129436095Y-52246952D01*
X130007523Y-52818380D01*
X129388476Y-52818380D01*
D15*
X127827333Y-41234047D02*
X127645904Y-41294523D01*
X127343523Y-41294523D01*
X127222571Y-41234047D01*
X127162095Y-41173571D01*
X127101619Y-41052619D01*
X127101619Y-40931666D01*
X127162095Y-40810714D01*
X127222571Y-40750238D01*
X127343523Y-40689761D01*
X127585428Y-40629285D01*
X127706380Y-40568809D01*
X127766857Y-40508333D01*
X127827333Y-40387380D01*
X127827333Y-40266428D01*
X127766857Y-40145476D01*
X127706380Y-40085000D01*
X127585428Y-40024523D01*
X127283047Y-40024523D01*
X127101619Y-40085000D01*
X126678285Y-40024523D02*
X126375904Y-41294523D01*
X126134000Y-40387380D01*
X125892095Y-41294523D01*
X125589714Y-40024523D01*
X124440666Y-41294523D02*
X125166380Y-41294523D01*
X124803523Y-41294523D02*
X124803523Y-40024523D01*
X124924476Y-40205952D01*
X125045428Y-40326904D01*
X125166380Y-40387380D01*
X141978761Y-54375523D02*
X141978761Y-53105523D01*
X140648285Y-54254571D02*
X140708761Y-54315047D01*
X140890190Y-54375523D01*
X141011142Y-54375523D01*
X141192571Y-54315047D01*
X141313523Y-54194095D01*
X141374000Y-54073142D01*
X141434476Y-53831238D01*
X141434476Y-53649809D01*
X141374000Y-53407904D01*
X141313523Y-53286952D01*
X141192571Y-53166000D01*
X141011142Y-53105523D01*
X140890190Y-53105523D01*
X140708761Y-53166000D01*
X140648285Y-53226476D01*
X140224952Y-53105523D02*
X139438761Y-53105523D01*
X139862095Y-53589333D01*
X139680666Y-53589333D01*
X139559714Y-53649809D01*
X139499238Y-53710285D01*
X139438761Y-53831238D01*
X139438761Y-54133619D01*
X139499238Y-54254571D01*
X139559714Y-54315047D01*
X139680666Y-54375523D01*
X140043523Y-54375523D01*
X140164476Y-54315047D01*
X140224952Y-54254571D01*
D12*
X128561904Y-73152380D02*
X128561904Y-73961904D01*
X128514285Y-74057142D01*
X128466666Y-74104761D01*
X128371428Y-74152380D01*
X128180952Y-74152380D01*
X128085714Y-74104761D01*
X128038095Y-74057142D01*
X127990476Y-73961904D01*
X127990476Y-73152380D01*
X127609523Y-73152380D02*
X126990476Y-73152380D01*
X127323809Y-73533333D01*
X127180952Y-73533333D01*
X127085714Y-73580952D01*
X127038095Y-73628571D01*
X126990476Y-73723809D01*
X126990476Y-73961904D01*
X127038095Y-74057142D01*
X127085714Y-74104761D01*
X127180952Y-74152380D01*
X127466666Y-74152380D01*
X127561904Y-74104761D01*
X127609523Y-74057142D01*
X121657142Y-70395833D02*
X121704761Y-70348214D01*
X121752380Y-70205357D01*
X121752380Y-70110119D01*
X121704761Y-69967261D01*
X121609523Y-69872023D01*
X121514285Y-69824404D01*
X121323809Y-69776785D01*
X121180952Y-69776785D01*
X120990476Y-69824404D01*
X120895238Y-69872023D01*
X120800000Y-69967261D01*
X120752380Y-70110119D01*
X120752380Y-70205357D01*
X120800000Y-70348214D01*
X120847619Y-70395833D01*
X120752380Y-71252976D02*
X120752380Y-71062500D01*
X120800000Y-70967261D01*
X120847619Y-70919642D01*
X120990476Y-70824404D01*
X121180952Y-70776785D01*
X121561904Y-70776785D01*
X121657142Y-70824404D01*
X121704761Y-70872023D01*
X121752380Y-70967261D01*
X121752380Y-71157738D01*
X121704761Y-71252976D01*
X121657142Y-71300595D01*
X121561904Y-71348214D01*
X121323809Y-71348214D01*
X121228571Y-71300595D01*
X121180952Y-71252976D01*
X121133333Y-71157738D01*
X121133333Y-70967261D01*
X121180952Y-70872023D01*
X121228571Y-70824404D01*
X121323809Y-70776785D01*
D15*
X141978761Y-67964523D02*
X141978761Y-66694523D01*
X140648285Y-67843571D02*
X140708761Y-67904047D01*
X140890190Y-67964523D01*
X141011142Y-67964523D01*
X141192571Y-67904047D01*
X141313523Y-67783095D01*
X141374000Y-67662142D01*
X141434476Y-67420238D01*
X141434476Y-67238809D01*
X141374000Y-66996904D01*
X141313523Y-66875952D01*
X141192571Y-66755000D01*
X141011142Y-66694523D01*
X140890190Y-66694523D01*
X140708761Y-66755000D01*
X140648285Y-66815476D01*
X139438761Y-67964523D02*
X140164476Y-67964523D01*
X139801619Y-67964523D02*
X139801619Y-66694523D01*
X139922571Y-66875952D01*
X140043523Y-66996904D01*
X140164476Y-67057380D01*
D12*
X132618857Y-47152380D02*
X132952190Y-46676190D01*
X133190285Y-47152380D02*
X133190285Y-46152380D01*
X132809333Y-46152380D01*
X132714095Y-46200000D01*
X132666476Y-46247619D01*
X132618857Y-46342857D01*
X132618857Y-46485714D01*
X132666476Y-46580952D01*
X132714095Y-46628571D01*
X132809333Y-46676190D01*
X133190285Y-46676190D01*
X131666476Y-47152380D02*
X132237904Y-47152380D01*
X131952190Y-47152380D02*
X131952190Y-46152380D01*
X132047428Y-46295238D01*
X132142666Y-46390476D01*
X132237904Y-46438095D01*
X130714095Y-47152380D02*
X131285523Y-47152380D01*
X130999809Y-47152380D02*
X130999809Y-46152380D01*
X131095047Y-46295238D01*
X131190285Y-46390476D01*
X131285523Y-46438095D01*
X152966666Y-66707142D02*
X153014285Y-66754761D01*
X153157142Y-66802380D01*
X153252380Y-66802380D01*
X153395238Y-66754761D01*
X153490476Y-66659523D01*
X153538095Y-66564285D01*
X153585714Y-66373809D01*
X153585714Y-66230952D01*
X153538095Y-66040476D01*
X153490476Y-65945238D01*
X153395238Y-65850000D01*
X153252380Y-65802380D01*
X153157142Y-65802380D01*
X153014285Y-65850000D01*
X152966666Y-65897619D01*
X152633333Y-65802380D02*
X151966666Y-65802380D01*
X152395238Y-66802380D01*
X127062666Y-64573142D02*
X127110285Y-64620761D01*
X127253142Y-64668380D01*
X127348380Y-64668380D01*
X127491238Y-64620761D01*
X127586476Y-64525523D01*
X127634095Y-64430285D01*
X127681714Y-64239809D01*
X127681714Y-64096952D01*
X127634095Y-63906476D01*
X127586476Y-63811238D01*
X127491238Y-63716000D01*
X127348380Y-63668380D01*
X127253142Y-63668380D01*
X127110285Y-63716000D01*
X127062666Y-63763619D01*
X126205523Y-64001714D02*
X126205523Y-64668380D01*
X126443619Y-63620761D02*
X126681714Y-64335047D01*
X126062666Y-64335047D01*
X153542857Y-52107142D02*
X153590476Y-52154761D01*
X153733333Y-52202380D01*
X153828571Y-52202380D01*
X153971428Y-52154761D01*
X154066666Y-52059523D01*
X154114285Y-51964285D01*
X154161904Y-51773809D01*
X154161904Y-51630952D01*
X154114285Y-51440476D01*
X154066666Y-51345238D01*
X153971428Y-51250000D01*
X153828571Y-51202380D01*
X153733333Y-51202380D01*
X153590476Y-51250000D01*
X153542857Y-51297619D01*
X152590476Y-52202380D02*
X153161904Y-52202380D01*
X152876190Y-52202380D02*
X152876190Y-51202380D01*
X152971428Y-51345238D01*
X153066666Y-51440476D01*
X153161904Y-51488095D01*
X152257142Y-51202380D02*
X151638095Y-51202380D01*
X151971428Y-51583333D01*
X151828571Y-51583333D01*
X151733333Y-51630952D01*
X151685714Y-51678571D01*
X151638095Y-51773809D01*
X151638095Y-52011904D01*
X151685714Y-52107142D01*
X151733333Y-52154761D01*
X151828571Y-52202380D01*
X152114285Y-52202380D01*
X152209523Y-52154761D01*
X152257142Y-52107142D01*
X127903166Y-47357142D02*
X127950785Y-47404761D01*
X128093642Y-47452380D01*
X128188880Y-47452380D01*
X128331738Y-47404761D01*
X128426976Y-47309523D01*
X128474595Y-47214285D01*
X128522214Y-47023809D01*
X128522214Y-46880952D01*
X128474595Y-46690476D01*
X128426976Y-46595238D01*
X128331738Y-46500000D01*
X128188880Y-46452380D01*
X128093642Y-46452380D01*
X127950785Y-46500000D01*
X127903166Y-46547619D01*
X127569833Y-46452380D02*
X126950785Y-46452380D01*
X127284119Y-46833333D01*
X127141261Y-46833333D01*
X127046023Y-46880952D01*
X126998404Y-46928571D01*
X126950785Y-47023809D01*
X126950785Y-47261904D01*
X126998404Y-47357142D01*
X127046023Y-47404761D01*
X127141261Y-47452380D01*
X127426976Y-47452380D01*
X127522214Y-47404761D01*
X127569833Y-47357142D01*
X134745142Y-70271333D02*
X134792761Y-70223714D01*
X134840380Y-70080857D01*
X134840380Y-69985619D01*
X134792761Y-69842761D01*
X134697523Y-69747523D01*
X134602285Y-69699904D01*
X134411809Y-69652285D01*
X134268952Y-69652285D01*
X134078476Y-69699904D01*
X133983238Y-69747523D01*
X133888000Y-69842761D01*
X133840380Y-69985619D01*
X133840380Y-70080857D01*
X133888000Y-70223714D01*
X133935619Y-70271333D01*
X133840380Y-71176095D02*
X133840380Y-70699904D01*
X134316571Y-70652285D01*
X134268952Y-70699904D01*
X134221333Y-70795142D01*
X134221333Y-71033238D01*
X134268952Y-71128476D01*
X134316571Y-71176095D01*
X134411809Y-71223714D01*
X134649904Y-71223714D01*
X134745142Y-71176095D01*
X134792761Y-71128476D01*
X134840380Y-71033238D01*
X134840380Y-70795142D01*
X134792761Y-70699904D01*
X134745142Y-70652285D01*
X143105357Y-59239142D02*
X143152976Y-59286761D01*
X143295833Y-59334380D01*
X143391071Y-59334380D01*
X143533928Y-59286761D01*
X143629166Y-59191523D01*
X143676785Y-59096285D01*
X143724404Y-58905809D01*
X143724404Y-58762952D01*
X143676785Y-58572476D01*
X143629166Y-58477238D01*
X143533928Y-58382000D01*
X143391071Y-58334380D01*
X143295833Y-58334380D01*
X143152976Y-58382000D01*
X143105357Y-58429619D01*
X142152976Y-59334380D02*
X142724404Y-59334380D01*
X142438690Y-59334380D02*
X142438690Y-58334380D01*
X142533928Y-58477238D01*
X142629166Y-58572476D01*
X142724404Y-58620095D01*
X141581547Y-58762952D02*
X141676785Y-58715333D01*
X141724404Y-58667714D01*
X141772023Y-58572476D01*
X141772023Y-58524857D01*
X141724404Y-58429619D01*
X141676785Y-58382000D01*
X141581547Y-58334380D01*
X141391071Y-58334380D01*
X141295833Y-58382000D01*
X141248214Y-58429619D01*
X141200595Y-58524857D01*
X141200595Y-58572476D01*
X141248214Y-58667714D01*
X141295833Y-58715333D01*
X141391071Y-58762952D01*
X141581547Y-58762952D01*
X141676785Y-58810571D01*
X141724404Y-58858190D01*
X141772023Y-58953428D01*
X141772023Y-59143904D01*
X141724404Y-59239142D01*
X141676785Y-59286761D01*
X141581547Y-59334380D01*
X141391071Y-59334380D01*
X141295833Y-59286761D01*
X141248214Y-59239142D01*
X141200595Y-59143904D01*
X141200595Y-58953428D01*
X141248214Y-58858190D01*
X141295833Y-58810571D01*
X141391071Y-58762952D01*
X143105357Y-75957142D02*
X143152976Y-76004761D01*
X143295833Y-76052380D01*
X143391071Y-76052380D01*
X143533928Y-76004761D01*
X143629166Y-75909523D01*
X143676785Y-75814285D01*
X143724404Y-75623809D01*
X143724404Y-75480952D01*
X143676785Y-75290476D01*
X143629166Y-75195238D01*
X143533928Y-75100000D01*
X143391071Y-75052380D01*
X143295833Y-75052380D01*
X143152976Y-75100000D01*
X143105357Y-75147619D01*
X142152976Y-76052380D02*
X142724404Y-76052380D01*
X142438690Y-76052380D02*
X142438690Y-75052380D01*
X142533928Y-75195238D01*
X142629166Y-75290476D01*
X142724404Y-75338095D01*
X141772023Y-75147619D02*
X141724404Y-75100000D01*
X141629166Y-75052380D01*
X141391071Y-75052380D01*
X141295833Y-75100000D01*
X141248214Y-75147619D01*
X141200595Y-75242857D01*
X141200595Y-75338095D01*
X141248214Y-75480952D01*
X141819642Y-76052380D01*
X141200595Y-76052380D01*
X146452380Y-59849404D02*
X145452380Y-59849404D01*
X145452380Y-60087500D01*
X145500000Y-60230357D01*
X145595238Y-60325595D01*
X145690476Y-60373214D01*
X145880952Y-60420833D01*
X146023809Y-60420833D01*
X146214285Y-60373214D01*
X146309523Y-60325595D01*
X146404761Y-60230357D01*
X146452380Y-60087500D01*
X146452380Y-59849404D01*
X146452380Y-60897023D02*
X146452380Y-61087500D01*
X146404761Y-61182738D01*
X146357142Y-61230357D01*
X146214285Y-61325595D01*
X146023809Y-61373214D01*
X145642857Y-61373214D01*
X145547619Y-61325595D01*
X145500000Y-61277976D01*
X145452380Y-61182738D01*
X145452380Y-60992261D01*
X145500000Y-60897023D01*
X145547619Y-60849404D01*
X145642857Y-60801785D01*
X145880952Y-60801785D01*
X145976190Y-60849404D01*
X146023809Y-60897023D01*
X146071428Y-60992261D01*
X146071428Y-61182738D01*
X146023809Y-61277976D01*
X145976190Y-61325595D01*
X145880952Y-61373214D01*
X139183333Y-36902380D02*
X139183333Y-37616666D01*
X139230952Y-37759523D01*
X139326190Y-37854761D01*
X139469047Y-37902380D01*
X139564285Y-37902380D01*
X138754761Y-36997619D02*
X138707142Y-36950000D01*
X138611904Y-36902380D01*
X138373809Y-36902380D01*
X138278571Y-36950000D01*
X138230952Y-36997619D01*
X138183333Y-37092857D01*
X138183333Y-37188095D01*
X138230952Y-37330952D01*
X138802380Y-37902380D01*
X138183333Y-37902380D01*
X150952380Y-66957142D02*
X150476190Y-66623809D01*
X150952380Y-66385714D02*
X149952380Y-66385714D01*
X149952380Y-66766666D01*
X150000000Y-66861904D01*
X150047619Y-66909523D01*
X150142857Y-66957142D01*
X150285714Y-66957142D01*
X150380952Y-66909523D01*
X150428571Y-66861904D01*
X150476190Y-66766666D01*
X150476190Y-66385714D01*
X149952380Y-67290476D02*
X149952380Y-67909523D01*
X150333333Y-67576190D01*
X150333333Y-67719047D01*
X150380952Y-67814285D01*
X150428571Y-67861904D01*
X150523809Y-67909523D01*
X150761904Y-67909523D01*
X150857142Y-67861904D01*
X150904761Y-67814285D01*
X150952380Y-67719047D01*
X150952380Y-67433333D01*
X150904761Y-67338095D01*
X150857142Y-67290476D01*
X149952380Y-68242857D02*
X149952380Y-68861904D01*
X150333333Y-68528571D01*
X150333333Y-68671428D01*
X150380952Y-68766666D01*
X150428571Y-68814285D01*
X150523809Y-68861904D01*
X150761904Y-68861904D01*
X150857142Y-68814285D01*
X150904761Y-68766666D01*
X150952380Y-68671428D01*
X150952380Y-68385714D01*
X150904761Y-68290476D01*
X150857142Y-68242857D01*
X146452380Y-69785714D02*
X145452380Y-69785714D01*
X145452380Y-70023809D01*
X145500000Y-70166666D01*
X145595238Y-70261904D01*
X145690476Y-70309523D01*
X145880952Y-70357142D01*
X146023809Y-70357142D01*
X146214285Y-70309523D01*
X146309523Y-70261904D01*
X146404761Y-70166666D01*
X146452380Y-70023809D01*
X146452380Y-69785714D01*
X146452380Y-71309523D02*
X146452380Y-70738095D01*
X146452380Y-71023809D02*
X145452380Y-71023809D01*
X145595238Y-70928571D01*
X145690476Y-70833333D01*
X145738095Y-70738095D01*
X145452380Y-71928571D02*
X145452380Y-72023809D01*
X145500000Y-72119047D01*
X145547619Y-72166666D01*
X145642857Y-72214285D01*
X145833333Y-72261904D01*
X146071428Y-72261904D01*
X146261904Y-72214285D01*
X146357142Y-72166666D01*
X146404761Y-72119047D01*
X146452380Y-72023809D01*
X146452380Y-71928571D01*
X146404761Y-71833333D01*
X146357142Y-71785714D01*
X146261904Y-71738095D01*
X146071428Y-71690476D01*
X145833333Y-71690476D01*
X145642857Y-71738095D01*
X145547619Y-71785714D01*
X145500000Y-71833333D01*
X145452380Y-71928571D01*
X151182380Y-69773214D02*
X150182380Y-69773214D01*
X150182380Y-70011309D01*
X150230000Y-70154166D01*
X150325238Y-70249404D01*
X150420476Y-70297023D01*
X150610952Y-70344642D01*
X150753809Y-70344642D01*
X150944285Y-70297023D01*
X151039523Y-70249404D01*
X151134761Y-70154166D01*
X151182380Y-70011309D01*
X151182380Y-69773214D01*
X151182380Y-71297023D02*
X151182380Y-70725595D01*
X151182380Y-71011309D02*
X150182380Y-71011309D01*
X150325238Y-70916071D01*
X150420476Y-70820833D01*
X150468095Y-70725595D01*
X151182380Y-72249404D02*
X151182380Y-71677976D01*
X151182380Y-71963690D02*
X150182380Y-71963690D01*
X150325238Y-71868452D01*
X150420476Y-71773214D01*
X150468095Y-71677976D01*
X148642857Y-55452380D02*
X148976190Y-54976190D01*
X149214285Y-55452380D02*
X149214285Y-54452380D01*
X148833333Y-54452380D01*
X148738095Y-54500000D01*
X148690476Y-54547619D01*
X148642857Y-54642857D01*
X148642857Y-54785714D01*
X148690476Y-54880952D01*
X148738095Y-54928571D01*
X148833333Y-54976190D01*
X149214285Y-54976190D01*
X148309523Y-54452380D02*
X147690476Y-54452380D01*
X148023809Y-54833333D01*
X147880952Y-54833333D01*
X147785714Y-54880952D01*
X147738095Y-54928571D01*
X147690476Y-55023809D01*
X147690476Y-55261904D01*
X147738095Y-55357142D01*
X147785714Y-55404761D01*
X147880952Y-55452380D01*
X148166666Y-55452380D01*
X148261904Y-55404761D01*
X148309523Y-55357142D01*
X147071428Y-54452380D02*
X146976190Y-54452380D01*
X146880952Y-54500000D01*
X146833333Y-54547619D01*
X146785714Y-54642857D01*
X146738095Y-54833333D01*
X146738095Y-55071428D01*
X146785714Y-55261904D01*
X146833333Y-55357142D01*
X146880952Y-55404761D01*
X146976190Y-55452380D01*
X147071428Y-55452380D01*
X147166666Y-55404761D01*
X147214285Y-55357142D01*
X147261904Y-55261904D01*
X147309523Y-55071428D01*
X147309523Y-54833333D01*
X147261904Y-54642857D01*
X147214285Y-54547619D01*
X147166666Y-54500000D01*
X147071428Y-54452380D01*
X149642857Y-58452380D02*
X149976190Y-57976190D01*
X150214285Y-58452380D02*
X150214285Y-57452380D01*
X149833333Y-57452380D01*
X149738095Y-57500000D01*
X149690476Y-57547619D01*
X149642857Y-57642857D01*
X149642857Y-57785714D01*
X149690476Y-57880952D01*
X149738095Y-57928571D01*
X149833333Y-57976190D01*
X150214285Y-57976190D01*
X149309523Y-57452380D02*
X148690476Y-57452380D01*
X149023809Y-57833333D01*
X148880952Y-57833333D01*
X148785714Y-57880952D01*
X148738095Y-57928571D01*
X148690476Y-58023809D01*
X148690476Y-58261904D01*
X148738095Y-58357142D01*
X148785714Y-58404761D01*
X148880952Y-58452380D01*
X149166666Y-58452380D01*
X149261904Y-58404761D01*
X149309523Y-58357142D01*
X147738095Y-58452380D02*
X148309523Y-58452380D01*
X148023809Y-58452380D02*
X148023809Y-57452380D01*
X148119047Y-57595238D01*
X148214285Y-57690476D01*
X148309523Y-57738095D01*
D15*
X180904523Y-64776666D02*
X181811666Y-64776666D01*
X181993095Y-64716190D01*
X182114047Y-64595238D01*
X182174523Y-64413809D01*
X182174523Y-64292857D01*
X182174523Y-66046666D02*
X182174523Y-65320952D01*
X182174523Y-65683809D02*
X180904523Y-65683809D01*
X181085952Y-65562857D01*
X181206904Y-65441904D01*
X181267380Y-65320952D01*
D12*
X151182380Y-59874404D02*
X150182380Y-59874404D01*
X150182380Y-60112500D01*
X150230000Y-60255357D01*
X150325238Y-60350595D01*
X150420476Y-60398214D01*
X150610952Y-60445833D01*
X150753809Y-60445833D01*
X150944285Y-60398214D01*
X151039523Y-60350595D01*
X151134761Y-60255357D01*
X151182380Y-60112500D01*
X151182380Y-59874404D01*
X150610952Y-61017261D02*
X150563333Y-60922023D01*
X150515714Y-60874404D01*
X150420476Y-60826785D01*
X150372857Y-60826785D01*
X150277619Y-60874404D01*
X150230000Y-60922023D01*
X150182380Y-61017261D01*
X150182380Y-61207738D01*
X150230000Y-61302976D01*
X150277619Y-61350595D01*
X150372857Y-61398214D01*
X150420476Y-61398214D01*
X150515714Y-61350595D01*
X150563333Y-61302976D01*
X150610952Y-61207738D01*
X150610952Y-61017261D01*
X150658571Y-60922023D01*
X150706190Y-60874404D01*
X150801428Y-60826785D01*
X150991904Y-60826785D01*
X151087142Y-60874404D01*
X151134761Y-60922023D01*
X151182380Y-61017261D01*
X151182380Y-61207738D01*
X151134761Y-61302976D01*
X151087142Y-61350595D01*
X150991904Y-61398214D01*
X150801428Y-61398214D01*
X150706190Y-61350595D01*
X150658571Y-61302976D01*
X150610952Y-61207738D01*
X146322380Y-66994642D02*
X145846190Y-66661309D01*
X146322380Y-66423214D02*
X145322380Y-66423214D01*
X145322380Y-66804166D01*
X145370000Y-66899404D01*
X145417619Y-66947023D01*
X145512857Y-66994642D01*
X145655714Y-66994642D01*
X145750952Y-66947023D01*
X145798571Y-66899404D01*
X145846190Y-66804166D01*
X145846190Y-66423214D01*
X145322380Y-67327976D02*
X145322380Y-67947023D01*
X145703333Y-67613690D01*
X145703333Y-67756547D01*
X145750952Y-67851785D01*
X145798571Y-67899404D01*
X145893809Y-67947023D01*
X146131904Y-67947023D01*
X146227142Y-67899404D01*
X146274761Y-67851785D01*
X146322380Y-67756547D01*
X146322380Y-67470833D01*
X146274761Y-67375595D01*
X146227142Y-67327976D01*
X145417619Y-68327976D02*
X145370000Y-68375595D01*
X145322380Y-68470833D01*
X145322380Y-68708928D01*
X145370000Y-68804166D01*
X145417619Y-68851785D01*
X145512857Y-68899404D01*
X145608095Y-68899404D01*
X145750952Y-68851785D01*
X146322380Y-68280357D01*
X146322380Y-68899404D01*
D15*
X180204523Y-45776666D02*
X181111666Y-45776666D01*
X181293095Y-45716190D01*
X181414047Y-45595238D01*
X181474523Y-45413809D01*
X181474523Y-45292857D01*
X180627857Y-46925714D02*
X181474523Y-46925714D01*
X180144047Y-46623333D02*
X181051190Y-46320952D01*
X181051190Y-47107142D01*
D12*
X153833333Y-43202380D02*
X153833333Y-43916666D01*
X153880952Y-44059523D01*
X153976190Y-44154761D01*
X154119047Y-44202380D01*
X154214285Y-44202380D01*
X153452380Y-43202380D02*
X152833333Y-43202380D01*
X153166666Y-43583333D01*
X153023809Y-43583333D01*
X152928571Y-43630952D01*
X152880952Y-43678571D01*
X152833333Y-43773809D01*
X152833333Y-44011904D01*
X152880952Y-44107142D01*
X152928571Y-44154761D01*
X153023809Y-44202380D01*
X153309523Y-44202380D01*
X153404761Y-44154761D01*
X153452380Y-44107142D01*
X127903166Y-97357142D02*
X127950785Y-97404761D01*
X128093642Y-97452380D01*
X128188880Y-97452380D01*
X128331738Y-97404761D01*
X128426976Y-97309523D01*
X128474595Y-97214285D01*
X128522214Y-97023809D01*
X128522214Y-96880952D01*
X128474595Y-96690476D01*
X128426976Y-96595238D01*
X128331738Y-96500000D01*
X128188880Y-96452380D01*
X128093642Y-96452380D01*
X127950785Y-96500000D01*
X127903166Y-96547619D01*
X127569833Y-96452380D02*
X126950785Y-96452380D01*
X127284119Y-96833333D01*
X127141261Y-96833333D01*
X127046023Y-96880952D01*
X126998404Y-96928571D01*
X126950785Y-97023809D01*
X126950785Y-97261904D01*
X126998404Y-97357142D01*
X127046023Y-97404761D01*
X127141261Y-97452380D01*
X127426976Y-97452380D01*
X127522214Y-97404761D01*
X127569833Y-97357142D01*
X127062666Y-114573142D02*
X127110285Y-114620761D01*
X127253142Y-114668380D01*
X127348380Y-114668380D01*
X127491238Y-114620761D01*
X127586476Y-114525523D01*
X127634095Y-114430285D01*
X127681714Y-114239809D01*
X127681714Y-114096952D01*
X127634095Y-113906476D01*
X127586476Y-113811238D01*
X127491238Y-113716000D01*
X127348380Y-113668380D01*
X127253142Y-113668380D01*
X127110285Y-113716000D01*
X127062666Y-113763619D01*
X126205523Y-114001714D02*
X126205523Y-114668380D01*
X126443619Y-113620761D02*
X126681714Y-114335047D01*
X126062666Y-114335047D01*
X134745142Y-120271333D02*
X134792761Y-120223714D01*
X134840380Y-120080857D01*
X134840380Y-119985619D01*
X134792761Y-119842761D01*
X134697523Y-119747523D01*
X134602285Y-119699904D01*
X134411809Y-119652285D01*
X134268952Y-119652285D01*
X134078476Y-119699904D01*
X133983238Y-119747523D01*
X133888000Y-119842761D01*
X133840380Y-119985619D01*
X133840380Y-120080857D01*
X133888000Y-120223714D01*
X133935619Y-120271333D01*
X133840380Y-121176095D02*
X133840380Y-120699904D01*
X134316571Y-120652285D01*
X134268952Y-120699904D01*
X134221333Y-120795142D01*
X134221333Y-121033238D01*
X134268952Y-121128476D01*
X134316571Y-121176095D01*
X134411809Y-121223714D01*
X134649904Y-121223714D01*
X134745142Y-121176095D01*
X134792761Y-121128476D01*
X134840380Y-121033238D01*
X134840380Y-120795142D01*
X134792761Y-120699904D01*
X134745142Y-120652285D01*
X152966666Y-116707142D02*
X153014285Y-116754761D01*
X153157142Y-116802380D01*
X153252380Y-116802380D01*
X153395238Y-116754761D01*
X153490476Y-116659523D01*
X153538095Y-116564285D01*
X153585714Y-116373809D01*
X153585714Y-116230952D01*
X153538095Y-116040476D01*
X153490476Y-115945238D01*
X153395238Y-115850000D01*
X153252380Y-115802380D01*
X153157142Y-115802380D01*
X153014285Y-115850000D01*
X152966666Y-115897619D01*
X152633333Y-115802380D02*
X151966666Y-115802380D01*
X152395238Y-116802380D01*
X153542857Y-102107142D02*
X153590476Y-102154761D01*
X153733333Y-102202380D01*
X153828571Y-102202380D01*
X153971428Y-102154761D01*
X154066666Y-102059523D01*
X154114285Y-101964285D01*
X154161904Y-101773809D01*
X154161904Y-101630952D01*
X154114285Y-101440476D01*
X154066666Y-101345238D01*
X153971428Y-101250000D01*
X153828571Y-101202380D01*
X153733333Y-101202380D01*
X153590476Y-101250000D01*
X153542857Y-101297619D01*
X152590476Y-102202380D02*
X153161904Y-102202380D01*
X152876190Y-102202380D02*
X152876190Y-101202380D01*
X152971428Y-101345238D01*
X153066666Y-101440476D01*
X153161904Y-101488095D01*
X152257142Y-101202380D02*
X151638095Y-101202380D01*
X151971428Y-101583333D01*
X151828571Y-101583333D01*
X151733333Y-101630952D01*
X151685714Y-101678571D01*
X151638095Y-101773809D01*
X151638095Y-102011904D01*
X151685714Y-102107142D01*
X151733333Y-102154761D01*
X151828571Y-102202380D01*
X152114285Y-102202380D01*
X152209523Y-102154761D01*
X152257142Y-102107142D01*
X143105357Y-125957142D02*
X143152976Y-126004761D01*
X143295833Y-126052380D01*
X143391071Y-126052380D01*
X143533928Y-126004761D01*
X143629166Y-125909523D01*
X143676785Y-125814285D01*
X143724404Y-125623809D01*
X143724404Y-125480952D01*
X143676785Y-125290476D01*
X143629166Y-125195238D01*
X143533928Y-125100000D01*
X143391071Y-125052380D01*
X143295833Y-125052380D01*
X143152976Y-125100000D01*
X143105357Y-125147619D01*
X142152976Y-126052380D02*
X142724404Y-126052380D01*
X142438690Y-126052380D02*
X142438690Y-125052380D01*
X142533928Y-125195238D01*
X142629166Y-125290476D01*
X142724404Y-125338095D01*
X141772023Y-125147619D02*
X141724404Y-125100000D01*
X141629166Y-125052380D01*
X141391071Y-125052380D01*
X141295833Y-125100000D01*
X141248214Y-125147619D01*
X141200595Y-125242857D01*
X141200595Y-125338095D01*
X141248214Y-125480952D01*
X141819642Y-126052380D01*
X141200595Y-126052380D01*
X143105357Y-109239142D02*
X143152976Y-109286761D01*
X143295833Y-109334380D01*
X143391071Y-109334380D01*
X143533928Y-109286761D01*
X143629166Y-109191523D01*
X143676785Y-109096285D01*
X143724404Y-108905809D01*
X143724404Y-108762952D01*
X143676785Y-108572476D01*
X143629166Y-108477238D01*
X143533928Y-108382000D01*
X143391071Y-108334380D01*
X143295833Y-108334380D01*
X143152976Y-108382000D01*
X143105357Y-108429619D01*
X142152976Y-109334380D02*
X142724404Y-109334380D01*
X142438690Y-109334380D02*
X142438690Y-108334380D01*
X142533928Y-108477238D01*
X142629166Y-108572476D01*
X142724404Y-108620095D01*
X141581547Y-108762952D02*
X141676785Y-108715333D01*
X141724404Y-108667714D01*
X141772023Y-108572476D01*
X141772023Y-108524857D01*
X141724404Y-108429619D01*
X141676785Y-108382000D01*
X141581547Y-108334380D01*
X141391071Y-108334380D01*
X141295833Y-108382000D01*
X141248214Y-108429619D01*
X141200595Y-108524857D01*
X141200595Y-108572476D01*
X141248214Y-108667714D01*
X141295833Y-108715333D01*
X141391071Y-108762952D01*
X141581547Y-108762952D01*
X141676785Y-108810571D01*
X141724404Y-108858190D01*
X141772023Y-108953428D01*
X141772023Y-109143904D01*
X141724404Y-109239142D01*
X141676785Y-109286761D01*
X141581547Y-109334380D01*
X141391071Y-109334380D01*
X141295833Y-109286761D01*
X141248214Y-109239142D01*
X141200595Y-109143904D01*
X141200595Y-108953428D01*
X141248214Y-108858190D01*
X141295833Y-108810571D01*
X141391071Y-108762952D01*
D15*
X141978761Y-117964523D02*
X141978761Y-116694523D01*
X140648285Y-117843571D02*
X140708761Y-117904047D01*
X140890190Y-117964523D01*
X141011142Y-117964523D01*
X141192571Y-117904047D01*
X141313523Y-117783095D01*
X141374000Y-117662142D01*
X141434476Y-117420238D01*
X141434476Y-117238809D01*
X141374000Y-116996904D01*
X141313523Y-116875952D01*
X141192571Y-116755000D01*
X141011142Y-116694523D01*
X140890190Y-116694523D01*
X140708761Y-116755000D01*
X140648285Y-116815476D01*
X139438761Y-117964523D02*
X140164476Y-117964523D01*
X139801619Y-117964523D02*
X139801619Y-116694523D01*
X139922571Y-116875952D01*
X140043523Y-116996904D01*
X140164476Y-117057380D01*
D12*
X132618857Y-97152380D02*
X132952190Y-96676190D01*
X133190285Y-97152380D02*
X133190285Y-96152380D01*
X132809333Y-96152380D01*
X132714095Y-96200000D01*
X132666476Y-96247619D01*
X132618857Y-96342857D01*
X132618857Y-96485714D01*
X132666476Y-96580952D01*
X132714095Y-96628571D01*
X132809333Y-96676190D01*
X133190285Y-96676190D01*
X131666476Y-97152380D02*
X132237904Y-97152380D01*
X131952190Y-97152380D02*
X131952190Y-96152380D01*
X132047428Y-96295238D01*
X132142666Y-96390476D01*
X132237904Y-96438095D01*
X130714095Y-97152380D02*
X131285523Y-97152380D01*
X130999809Y-97152380D02*
X130999809Y-96152380D01*
X131095047Y-96295238D01*
X131190285Y-96390476D01*
X131285523Y-96438095D01*
D15*
X141978761Y-104375523D02*
X141978761Y-103105523D01*
X140648285Y-104254571D02*
X140708761Y-104315047D01*
X140890190Y-104375523D01*
X141011142Y-104375523D01*
X141192571Y-104315047D01*
X141313523Y-104194095D01*
X141374000Y-104073142D01*
X141434476Y-103831238D01*
X141434476Y-103649809D01*
X141374000Y-103407904D01*
X141313523Y-103286952D01*
X141192571Y-103166000D01*
X141011142Y-103105523D01*
X140890190Y-103105523D01*
X140708761Y-103166000D01*
X140648285Y-103226476D01*
X140224952Y-103105523D02*
X139438761Y-103105523D01*
X139862095Y-103589333D01*
X139680666Y-103589333D01*
X139559714Y-103649809D01*
X139499238Y-103710285D01*
X139438761Y-103831238D01*
X139438761Y-104133619D01*
X139499238Y-104254571D01*
X139559714Y-104315047D01*
X139680666Y-104375523D01*
X140043523Y-104375523D01*
X140164476Y-104315047D01*
X140224952Y-104254571D01*
D12*
X130959904Y-101818380D02*
X130959904Y-102627904D01*
X130912285Y-102723142D01*
X130864666Y-102770761D01*
X130769428Y-102818380D01*
X130578952Y-102818380D01*
X130483714Y-102770761D01*
X130436095Y-102723142D01*
X130388476Y-102627904D01*
X130388476Y-101818380D01*
X129959904Y-101913619D02*
X129912285Y-101866000D01*
X129817047Y-101818380D01*
X129578952Y-101818380D01*
X129483714Y-101866000D01*
X129436095Y-101913619D01*
X129388476Y-102008857D01*
X129388476Y-102104095D01*
X129436095Y-102246952D01*
X130007523Y-102818380D01*
X129388476Y-102818380D01*
D15*
X127827333Y-91234047D02*
X127645904Y-91294523D01*
X127343523Y-91294523D01*
X127222571Y-91234047D01*
X127162095Y-91173571D01*
X127101619Y-91052619D01*
X127101619Y-90931666D01*
X127162095Y-90810714D01*
X127222571Y-90750238D01*
X127343523Y-90689761D01*
X127585428Y-90629285D01*
X127706380Y-90568809D01*
X127766857Y-90508333D01*
X127827333Y-90387380D01*
X127827333Y-90266428D01*
X127766857Y-90145476D01*
X127706380Y-90085000D01*
X127585428Y-90024523D01*
X127283047Y-90024523D01*
X127101619Y-90085000D01*
X126678285Y-90024523D02*
X126375904Y-91294523D01*
X126134000Y-90387380D01*
X125892095Y-91294523D01*
X125589714Y-90024523D01*
X124440666Y-91294523D02*
X125166380Y-91294523D01*
X124803523Y-91294523D02*
X124803523Y-90024523D01*
X124924476Y-90205952D01*
X125045428Y-90326904D01*
X125166380Y-90387380D01*
D12*
X128561904Y-123152380D02*
X128561904Y-123961904D01*
X128514285Y-124057142D01*
X128466666Y-124104761D01*
X128371428Y-124152380D01*
X128180952Y-124152380D01*
X128085714Y-124104761D01*
X128038095Y-124057142D01*
X127990476Y-123961904D01*
X127990476Y-123152380D01*
X127609523Y-123152380D02*
X126990476Y-123152380D01*
X127323809Y-123533333D01*
X127180952Y-123533333D01*
X127085714Y-123580952D01*
X127038095Y-123628571D01*
X126990476Y-123723809D01*
X126990476Y-123961904D01*
X127038095Y-124057142D01*
X127085714Y-124104761D01*
X127180952Y-124152380D01*
X127466666Y-124152380D01*
X127561904Y-124104761D01*
X127609523Y-124057142D01*
X121657142Y-120395833D02*
X121704761Y-120348214D01*
X121752380Y-120205357D01*
X121752380Y-120110119D01*
X121704761Y-119967261D01*
X121609523Y-119872023D01*
X121514285Y-119824404D01*
X121323809Y-119776785D01*
X121180952Y-119776785D01*
X120990476Y-119824404D01*
X120895238Y-119872023D01*
X120800000Y-119967261D01*
X120752380Y-120110119D01*
X120752380Y-120205357D01*
X120800000Y-120348214D01*
X120847619Y-120395833D01*
X120752380Y-121252976D02*
X120752380Y-121062500D01*
X120800000Y-120967261D01*
X120847619Y-120919642D01*
X120990476Y-120824404D01*
X121180952Y-120776785D01*
X121561904Y-120776785D01*
X121657142Y-120824404D01*
X121704761Y-120872023D01*
X121752380Y-120967261D01*
X121752380Y-121157738D01*
X121704761Y-121252976D01*
X121657142Y-121300595D01*
X121561904Y-121348214D01*
X121323809Y-121348214D01*
X121228571Y-121300595D01*
X121180952Y-121252976D01*
X121133333Y-121157738D01*
X121133333Y-120967261D01*
X121180952Y-120872023D01*
X121228571Y-120824404D01*
X121323809Y-120776785D01*
D15*
X180904523Y-114776666D02*
X181811666Y-114776666D01*
X181993095Y-114716190D01*
X182114047Y-114595238D01*
X182174523Y-114413809D01*
X182174523Y-114292857D01*
X182174523Y-116046666D02*
X182174523Y-115320952D01*
X182174523Y-115683809D02*
X180904523Y-115683809D01*
X181085952Y-115562857D01*
X181206904Y-115441904D01*
X181267380Y-115320952D01*
X180204523Y-95776666D02*
X181111666Y-95776666D01*
X181293095Y-95716190D01*
X181414047Y-95595238D01*
X181474523Y-95413809D01*
X181474523Y-95292857D01*
X180627857Y-96925714D02*
X181474523Y-96925714D01*
X180144047Y-96623333D02*
X181051190Y-96320952D01*
X181051190Y-97107142D01*
D12*
X139183333Y-86902380D02*
X139183333Y-87616666D01*
X139230952Y-87759523D01*
X139326190Y-87854761D01*
X139469047Y-87902380D01*
X139564285Y-87902380D01*
X138754761Y-86997619D02*
X138707142Y-86950000D01*
X138611904Y-86902380D01*
X138373809Y-86902380D01*
X138278571Y-86950000D01*
X138230952Y-86997619D01*
X138183333Y-87092857D01*
X138183333Y-87188095D01*
X138230952Y-87330952D01*
X138802380Y-87902380D01*
X138183333Y-87902380D01*
X153833333Y-93202380D02*
X153833333Y-93916666D01*
X153880952Y-94059523D01*
X153976190Y-94154761D01*
X154119047Y-94202380D01*
X154214285Y-94202380D01*
X153452380Y-93202380D02*
X152833333Y-93202380D01*
X153166666Y-93583333D01*
X153023809Y-93583333D01*
X152928571Y-93630952D01*
X152880952Y-93678571D01*
X152833333Y-93773809D01*
X152833333Y-94011904D01*
X152880952Y-94107142D01*
X152928571Y-94154761D01*
X153023809Y-94202380D01*
X153309523Y-94202380D01*
X153404761Y-94154761D01*
X153452380Y-94107142D01*
X151182380Y-109874404D02*
X150182380Y-109874404D01*
X150182380Y-110112500D01*
X150230000Y-110255357D01*
X150325238Y-110350595D01*
X150420476Y-110398214D01*
X150610952Y-110445833D01*
X150753809Y-110445833D01*
X150944285Y-110398214D01*
X151039523Y-110350595D01*
X151134761Y-110255357D01*
X151182380Y-110112500D01*
X151182380Y-109874404D01*
X150610952Y-111017261D02*
X150563333Y-110922023D01*
X150515714Y-110874404D01*
X150420476Y-110826785D01*
X150372857Y-110826785D01*
X150277619Y-110874404D01*
X150230000Y-110922023D01*
X150182380Y-111017261D01*
X150182380Y-111207738D01*
X150230000Y-111302976D01*
X150277619Y-111350595D01*
X150372857Y-111398214D01*
X150420476Y-111398214D01*
X150515714Y-111350595D01*
X150563333Y-111302976D01*
X150610952Y-111207738D01*
X150610952Y-111017261D01*
X150658571Y-110922023D01*
X150706190Y-110874404D01*
X150801428Y-110826785D01*
X150991904Y-110826785D01*
X151087142Y-110874404D01*
X151134761Y-110922023D01*
X151182380Y-111017261D01*
X151182380Y-111207738D01*
X151134761Y-111302976D01*
X151087142Y-111350595D01*
X150991904Y-111398214D01*
X150801428Y-111398214D01*
X150706190Y-111350595D01*
X150658571Y-111302976D01*
X150610952Y-111207738D01*
X146452380Y-109849404D02*
X145452380Y-109849404D01*
X145452380Y-110087500D01*
X145500000Y-110230357D01*
X145595238Y-110325595D01*
X145690476Y-110373214D01*
X145880952Y-110420833D01*
X146023809Y-110420833D01*
X146214285Y-110373214D01*
X146309523Y-110325595D01*
X146404761Y-110230357D01*
X146452380Y-110087500D01*
X146452380Y-109849404D01*
X146452380Y-110897023D02*
X146452380Y-111087500D01*
X146404761Y-111182738D01*
X146357142Y-111230357D01*
X146214285Y-111325595D01*
X146023809Y-111373214D01*
X145642857Y-111373214D01*
X145547619Y-111325595D01*
X145500000Y-111277976D01*
X145452380Y-111182738D01*
X145452380Y-110992261D01*
X145500000Y-110897023D01*
X145547619Y-110849404D01*
X145642857Y-110801785D01*
X145880952Y-110801785D01*
X145976190Y-110849404D01*
X146023809Y-110897023D01*
X146071428Y-110992261D01*
X146071428Y-111182738D01*
X146023809Y-111277976D01*
X145976190Y-111325595D01*
X145880952Y-111373214D01*
X146452380Y-119785714D02*
X145452380Y-119785714D01*
X145452380Y-120023809D01*
X145500000Y-120166666D01*
X145595238Y-120261904D01*
X145690476Y-120309523D01*
X145880952Y-120357142D01*
X146023809Y-120357142D01*
X146214285Y-120309523D01*
X146309523Y-120261904D01*
X146404761Y-120166666D01*
X146452380Y-120023809D01*
X146452380Y-119785714D01*
X146452380Y-121309523D02*
X146452380Y-120738095D01*
X146452380Y-121023809D02*
X145452380Y-121023809D01*
X145595238Y-120928571D01*
X145690476Y-120833333D01*
X145738095Y-120738095D01*
X145452380Y-121928571D02*
X145452380Y-122023809D01*
X145500000Y-122119047D01*
X145547619Y-122166666D01*
X145642857Y-122214285D01*
X145833333Y-122261904D01*
X146071428Y-122261904D01*
X146261904Y-122214285D01*
X146357142Y-122166666D01*
X146404761Y-122119047D01*
X146452380Y-122023809D01*
X146452380Y-121928571D01*
X146404761Y-121833333D01*
X146357142Y-121785714D01*
X146261904Y-121738095D01*
X146071428Y-121690476D01*
X145833333Y-121690476D01*
X145642857Y-121738095D01*
X145547619Y-121785714D01*
X145500000Y-121833333D01*
X145452380Y-121928571D01*
X151182380Y-119773214D02*
X150182380Y-119773214D01*
X150182380Y-120011309D01*
X150230000Y-120154166D01*
X150325238Y-120249404D01*
X150420476Y-120297023D01*
X150610952Y-120344642D01*
X150753809Y-120344642D01*
X150944285Y-120297023D01*
X151039523Y-120249404D01*
X151134761Y-120154166D01*
X151182380Y-120011309D01*
X151182380Y-119773214D01*
X151182380Y-121297023D02*
X151182380Y-120725595D01*
X151182380Y-121011309D02*
X150182380Y-121011309D01*
X150325238Y-120916071D01*
X150420476Y-120820833D01*
X150468095Y-120725595D01*
X151182380Y-122249404D02*
X151182380Y-121677976D01*
X151182380Y-121963690D02*
X150182380Y-121963690D01*
X150325238Y-121868452D01*
X150420476Y-121773214D01*
X150468095Y-121677976D01*
X148642857Y-105452380D02*
X148976190Y-104976190D01*
X149214285Y-105452380D02*
X149214285Y-104452380D01*
X148833333Y-104452380D01*
X148738095Y-104500000D01*
X148690476Y-104547619D01*
X148642857Y-104642857D01*
X148642857Y-104785714D01*
X148690476Y-104880952D01*
X148738095Y-104928571D01*
X148833333Y-104976190D01*
X149214285Y-104976190D01*
X148309523Y-104452380D02*
X147690476Y-104452380D01*
X148023809Y-104833333D01*
X147880952Y-104833333D01*
X147785714Y-104880952D01*
X147738095Y-104928571D01*
X147690476Y-105023809D01*
X147690476Y-105261904D01*
X147738095Y-105357142D01*
X147785714Y-105404761D01*
X147880952Y-105452380D01*
X148166666Y-105452380D01*
X148261904Y-105404761D01*
X148309523Y-105357142D01*
X147071428Y-104452380D02*
X146976190Y-104452380D01*
X146880952Y-104500000D01*
X146833333Y-104547619D01*
X146785714Y-104642857D01*
X146738095Y-104833333D01*
X146738095Y-105071428D01*
X146785714Y-105261904D01*
X146833333Y-105357142D01*
X146880952Y-105404761D01*
X146976190Y-105452380D01*
X147071428Y-105452380D01*
X147166666Y-105404761D01*
X147214285Y-105357142D01*
X147261904Y-105261904D01*
X147309523Y-105071428D01*
X147309523Y-104833333D01*
X147261904Y-104642857D01*
X147214285Y-104547619D01*
X147166666Y-104500000D01*
X147071428Y-104452380D01*
X149642857Y-108452380D02*
X149976190Y-107976190D01*
X150214285Y-108452380D02*
X150214285Y-107452380D01*
X149833333Y-107452380D01*
X149738095Y-107500000D01*
X149690476Y-107547619D01*
X149642857Y-107642857D01*
X149642857Y-107785714D01*
X149690476Y-107880952D01*
X149738095Y-107928571D01*
X149833333Y-107976190D01*
X150214285Y-107976190D01*
X149309523Y-107452380D02*
X148690476Y-107452380D01*
X149023809Y-107833333D01*
X148880952Y-107833333D01*
X148785714Y-107880952D01*
X148738095Y-107928571D01*
X148690476Y-108023809D01*
X148690476Y-108261904D01*
X148738095Y-108357142D01*
X148785714Y-108404761D01*
X148880952Y-108452380D01*
X149166666Y-108452380D01*
X149261904Y-108404761D01*
X149309523Y-108357142D01*
X147738095Y-108452380D02*
X148309523Y-108452380D01*
X148023809Y-108452380D02*
X148023809Y-107452380D01*
X148119047Y-107595238D01*
X148214285Y-107690476D01*
X148309523Y-107738095D01*
X146322380Y-116994642D02*
X145846190Y-116661309D01*
X146322380Y-116423214D02*
X145322380Y-116423214D01*
X145322380Y-116804166D01*
X145370000Y-116899404D01*
X145417619Y-116947023D01*
X145512857Y-116994642D01*
X145655714Y-116994642D01*
X145750952Y-116947023D01*
X145798571Y-116899404D01*
X145846190Y-116804166D01*
X145846190Y-116423214D01*
X145322380Y-117327976D02*
X145322380Y-117947023D01*
X145703333Y-117613690D01*
X145703333Y-117756547D01*
X145750952Y-117851785D01*
X145798571Y-117899404D01*
X145893809Y-117947023D01*
X146131904Y-117947023D01*
X146227142Y-117899404D01*
X146274761Y-117851785D01*
X146322380Y-117756547D01*
X146322380Y-117470833D01*
X146274761Y-117375595D01*
X146227142Y-117327976D01*
X145417619Y-118327976D02*
X145370000Y-118375595D01*
X145322380Y-118470833D01*
X145322380Y-118708928D01*
X145370000Y-118804166D01*
X145417619Y-118851785D01*
X145512857Y-118899404D01*
X145608095Y-118899404D01*
X145750952Y-118851785D01*
X146322380Y-118280357D01*
X146322380Y-118899404D01*
X150952380Y-116957142D02*
X150476190Y-116623809D01*
X150952380Y-116385714D02*
X149952380Y-116385714D01*
X149952380Y-116766666D01*
X150000000Y-116861904D01*
X150047619Y-116909523D01*
X150142857Y-116957142D01*
X150285714Y-116957142D01*
X150380952Y-116909523D01*
X150428571Y-116861904D01*
X150476190Y-116766666D01*
X150476190Y-116385714D01*
X149952380Y-117290476D02*
X149952380Y-117909523D01*
X150333333Y-117576190D01*
X150333333Y-117719047D01*
X150380952Y-117814285D01*
X150428571Y-117861904D01*
X150523809Y-117909523D01*
X150761904Y-117909523D01*
X150857142Y-117861904D01*
X150904761Y-117814285D01*
X150952380Y-117719047D01*
X150952380Y-117433333D01*
X150904761Y-117338095D01*
X150857142Y-117290476D01*
X149952380Y-118242857D02*
X149952380Y-118861904D01*
X150333333Y-118528571D01*
X150333333Y-118671428D01*
X150380952Y-118766666D01*
X150428571Y-118814285D01*
X150523809Y-118861904D01*
X150761904Y-118861904D01*
X150857142Y-118814285D01*
X150904761Y-118766666D01*
X150952380Y-118671428D01*
X150952380Y-118385714D01*
X150904761Y-118290476D01*
X150857142Y-118242857D01*
M02*
