M48
; DRILL file {KiCad (5.1.4)-1} date 2019/11/07 17:20:59
; FORMAT={3:3/ absolute / metric / suppress leading zeros}
; #@! TF.CreationDate,2019-11-07T17:20:59+09:00
; #@! TF.GenerationSoftware,Kicad,Pcbnew,(5.1.4)-1
; #@! TF.FileFunction,Plated,1,2,PTH
FMAT,2
METRIC,TZ
T1C0.300
T2C0.400
T3C0.950
T4C1.000
T5C3.400
%
G90
G05
T1
X120970Y-77830
X120970Y-78530
X120970Y-127830
X120970Y-128530
X121000Y-39000
X121000Y-49000
X121000Y-57000
X121000Y-64000
X121000Y-67500
X121000Y-71000
X121000Y-73500
X121000Y-75000
X121000Y-89000
X121000Y-99000
X121000Y-107000
X121000Y-114000
X121000Y-117500
X121000Y-121000
X121000Y-123500
X121000Y-125000
X122500Y-73500
X122500Y-75000
X122500Y-123500
X122500Y-125000
X123000Y-78000
X123000Y-128000
X124000Y-77500
X124000Y-127500
X124200Y-60400
X124200Y-110400
X124600Y-64800
X124600Y-114800
X125000Y-76500
X125000Y-126500
X126000Y-75500
X126000Y-125500
X126300Y-50100
X126300Y-100100
X126439Y-38561
X126439Y-88561
X127000Y-64500
X127000Y-74500
X127000Y-114500
X127000Y-124500
X127200Y-69100
X127200Y-119100
X128500Y-77500
X128500Y-127500
X129100Y-57600
X129100Y-107600
X130200Y-60600
X130200Y-110600
X131750Y-74756
X131750Y-124756
X133000Y-38000
X133000Y-41000
X133000Y-88000
X133000Y-91000
X134000Y-73500
X134000Y-123500
X135200Y-47100
X135200Y-97100
X136000Y-50100
X136000Y-77000
X136000Y-100100
X136000Y-127000
X136670Y-42840
X136670Y-92840
X138000Y-36300
X138000Y-38000
X138000Y-77000
X138000Y-86300
X138000Y-88000
X138000Y-127000
X140000Y-77000
X140000Y-127000
X141000Y-46000
X141000Y-63000
X141000Y-75000
X141000Y-96000
X141000Y-113000
X141000Y-125000
X142000Y-77000
X142000Y-127000
X144000Y-77000
X144000Y-127000
X144100Y-40900
X144100Y-90900
X145000Y-59500
X145000Y-109500
X145355Y-71427
X145355Y-121427
X145700Y-56800
X145700Y-106800
X146000Y-45000
X146000Y-74000
X146000Y-76000
X146000Y-78000
X146000Y-95000
X146000Y-124000
X146000Y-126000
X146000Y-128000
X146127Y-70427
X146127Y-120427
X146151Y-55949
X146151Y-105949
X148000Y-38000
X148000Y-75000
X148000Y-77000
X148000Y-88000
X148000Y-125000
X148000Y-127000
X149000Y-43000
X149000Y-93000
X150000Y-49000
X150000Y-53000
X150000Y-54000
X150000Y-55000
X150000Y-64000
X150000Y-74000
X150000Y-76000
X150000Y-78000
X150000Y-99000
X150000Y-103000
X150000Y-104000
X150000Y-105000
X150000Y-114000
X150000Y-124000
X150000Y-126000
X150000Y-128000
X150049Y-51951
X150049Y-101951
X150500Y-36100
X150500Y-86100
X151000Y-52000
X151000Y-55000
X151000Y-56000
X151000Y-66000
X151000Y-67000
X151000Y-68000
X151000Y-69000
X151000Y-70000
X151000Y-102000
X151000Y-105000
X151000Y-106000
X151000Y-116000
X151000Y-117000
X151000Y-118000
X151000Y-119000
X151000Y-120000
X151963Y-52038
X151963Y-102038
X152000Y-55000
X152000Y-56000
X152000Y-66000
X152000Y-67000
X152000Y-69000
X152000Y-70000
X152000Y-75000
X152000Y-77000
X152000Y-105000
X152000Y-106000
X152000Y-116000
X152000Y-117000
X152000Y-119000
X152000Y-120000
X152000Y-125000
X152000Y-127000
X153200Y-48300
X153200Y-98300
X153500Y-59500
X153500Y-109500
X154000Y-74000
X154000Y-76000
X154000Y-78000
X154000Y-124000
X154000Y-126000
X154000Y-128000
X155000Y-38000
X155000Y-59000
X155000Y-88000
X155000Y-109000
X155300Y-53500
X155300Y-103500
X156000Y-73000
X156000Y-75000
X156000Y-77000
X156000Y-123000
X156000Y-125000
X156000Y-127000
X156500Y-58500
X156500Y-108500
X157000Y-42500
X157000Y-60000
X157000Y-92500
X157000Y-110000
X158000Y-72000
X158000Y-74000
X158000Y-76000
X158000Y-78000
X158000Y-122000
X158000Y-124000
X158000Y-126000
X158000Y-128000
X158500Y-58500
X158500Y-108500
X159000Y-47000
X159000Y-49000
X159000Y-97000
X159000Y-99000
X160000Y-46000
X160000Y-48000
X160000Y-63000
X160000Y-73000
X160000Y-75000
X160000Y-77000
X160000Y-96000
X160000Y-98000
X160000Y-113000
X160000Y-123000
X160000Y-125000
X160000Y-127000
X160500Y-55000
X160500Y-56500
X160500Y-105000
X160500Y-106500
X161000Y-45000
X161000Y-47000
X161000Y-52000
X161000Y-62000
X161000Y-95000
X161000Y-97000
X161000Y-102000
X161000Y-112000
X162000Y-37000
X162000Y-44000
X162000Y-46000
X162000Y-51000
X162000Y-53000
X162000Y-61000
X162000Y-63000
X162000Y-72000
X162000Y-74000
X162000Y-76000
X162000Y-78000
X162000Y-87000
X162000Y-94000
X162000Y-96000
X162000Y-101000
X162000Y-103000
X162000Y-111000
X162000Y-113000
X162000Y-122000
X162000Y-124000
X162000Y-126000
X162000Y-128000
X163000Y-43000
X163000Y-45000
X163000Y-50000
X163000Y-52000
X163000Y-60000
X163000Y-62000
X163000Y-64000
X163000Y-93000
X163000Y-95000
X163000Y-100000
X163000Y-102000
X163000Y-110000
X163000Y-112000
X163000Y-114000
X164000Y-42000
X164000Y-44000
X164000Y-49000
X164000Y-51000
X164000Y-53000
X164000Y-59000
X164000Y-61000
X164000Y-63000
X164000Y-68000
X164000Y-70000
X164000Y-75000
X164000Y-77000
X164000Y-92000
X164000Y-94000
X164000Y-99000
X164000Y-101000
X164000Y-103000
X164000Y-109000
X164000Y-111000
X164000Y-113000
X164000Y-118000
X164000Y-120000
X164000Y-125000
X164000Y-127000
X165000Y-48000
X165000Y-48750
X165000Y-49500
X165000Y-50250
X165000Y-51000
X165000Y-51750
X165000Y-52500
X165000Y-58750
X165000Y-59500
X165000Y-60250
X165000Y-61000
X165000Y-61750
X165000Y-62500
X165000Y-63250
X165000Y-64000
X165000Y-66000
X165000Y-66750
X165000Y-67500
X165000Y-68250
X165000Y-69000
X165000Y-69750
X165000Y-70500
X165000Y-71250
X165000Y-98000
X165000Y-98750
X165000Y-99500
X165000Y-100250
X165000Y-101000
X165000Y-101750
X165000Y-102500
X165000Y-108750
X165000Y-109500
X165000Y-110250
X165000Y-111000
X165000Y-111750
X165000Y-112500
X165000Y-113250
X165000Y-114000
X165000Y-116000
X165000Y-116750
X165000Y-117500
X165000Y-118250
X165000Y-119000
X165000Y-119750
X165000Y-120500
X165000Y-121250
X165250Y-40000
X165250Y-40750
X165250Y-41500
X165250Y-42250
X165250Y-43000
X165250Y-43750
X165250Y-44500
X165250Y-45250
X165250Y-90000
X165250Y-90750
X165250Y-91500
X165250Y-92250
X165250Y-93000
X165250Y-93750
X165250Y-94500
X165250Y-95250
X165750Y-47250
X165750Y-48000
X165750Y-48750
X165750Y-49500
X165750Y-50250
X165750Y-51000
X165750Y-51750
X165750Y-52500
X165750Y-58750
X165750Y-66000
X165750Y-66750
X165750Y-67500
X165750Y-68250
X165750Y-69000
X165750Y-69750
X165750Y-70500
X165750Y-71250
X165750Y-97250
X165750Y-98000
X165750Y-98750
X165750Y-99500
X165750Y-100250
X165750Y-101000
X165750Y-101750
X165750Y-102500
X165750Y-108750
X165750Y-116000
X165750Y-116750
X165750Y-117500
X165750Y-118250
X165750Y-119000
X165750Y-119750
X165750Y-120500
X165750Y-121250
X165800Y-59500
X165800Y-60250
X165800Y-61000
X165800Y-61750
X165800Y-62500
X165800Y-63250
X165800Y-64000
X165800Y-109500
X165800Y-110250
X165800Y-111000
X165800Y-111750
X165800Y-112500
X165800Y-113250
X165800Y-114000
X166000Y-40000
X166000Y-40750
X166000Y-41500
X166000Y-42250
X166000Y-43000
X166000Y-43750
X166000Y-44500
X166000Y-45250
X166000Y-76000
X166000Y-78000
X166000Y-90000
X166000Y-90750
X166000Y-91500
X166000Y-92250
X166000Y-93000
X166000Y-93750
X166000Y-94500
X166000Y-95250
X166000Y-126000
X166000Y-128000
X166500Y-47250
X166500Y-48000
X166500Y-48750
X166500Y-49500
X166500Y-50250
X166500Y-51000
X166500Y-51750
X166500Y-52500
X166500Y-58750
X166500Y-66000
X166500Y-66750
X166500Y-67500
X166500Y-68250
X166500Y-69000
X166500Y-69750
X166500Y-70500
X166500Y-71250
X166500Y-97250
X166500Y-98000
X166500Y-98750
X166500Y-99500
X166500Y-100250
X166500Y-101000
X166500Y-101750
X166500Y-102500
X166500Y-108750
X166500Y-116000
X166500Y-116750
X166500Y-117500
X166500Y-118250
X166500Y-119000
X166500Y-119750
X166500Y-120500
X166500Y-121250
X166550Y-59500
X166550Y-60250
X166550Y-61000
X166550Y-61750
X166550Y-62500
X166550Y-63250
X166550Y-64000
X166550Y-109500
X166550Y-110250
X166550Y-111000
X166550Y-111750
X166550Y-112500
X166550Y-113250
X166550Y-114000
X166750Y-40000
X166750Y-40750
X166750Y-41500
X166750Y-42250
X166750Y-43000
X166750Y-43750
X166750Y-44500
X166750Y-45250
X166750Y-90000
X166750Y-90750
X166750Y-91500
X166750Y-92250
X166750Y-93000
X166750Y-93750
X166750Y-94500
X166750Y-95250
X167250Y-47250
X167250Y-48000
X167250Y-48750
X167250Y-49500
X167250Y-50250
X167250Y-51000
X167250Y-51750
X167250Y-52500
X167250Y-58750
X167250Y-66000
X167250Y-66750
X167250Y-67500
X167250Y-68250
X167250Y-69000
X167250Y-69750
X167250Y-70500
X167250Y-71250
X167250Y-97250
X167250Y-98000
X167250Y-98750
X167250Y-99500
X167250Y-100250
X167250Y-101000
X167250Y-101750
X167250Y-102500
X167250Y-108750
X167250Y-116000
X167250Y-116750
X167250Y-117500
X167250Y-118250
X167250Y-119000
X167250Y-119750
X167250Y-120500
X167250Y-121250
X167300Y-59500
X167300Y-60250
X167300Y-61000
X167300Y-61750
X167300Y-62500
X167300Y-63250
X167300Y-64000
X167300Y-109500
X167300Y-110250
X167300Y-111000
X167300Y-111750
X167300Y-112500
X167300Y-113250
X167300Y-114000
X167500Y-40000
X167500Y-40750
X167500Y-41500
X167500Y-42250
X167500Y-43000
X167500Y-43750
X167500Y-44500
X167500Y-45250
X167500Y-90000
X167500Y-90750
X167500Y-91500
X167500Y-92250
X167500Y-93000
X167500Y-93750
X167500Y-94500
X167500Y-95250
X168000Y-47250
X168000Y-48000
X168000Y-48750
X168000Y-49500
X168000Y-50250
X168000Y-51000
X168000Y-51750
X168000Y-52500
X168000Y-58750
X168000Y-66000
X168000Y-66750
X168000Y-67500
X168000Y-68250
X168000Y-69000
X168000Y-69750
X168000Y-70500
X168000Y-71250
X168000Y-77000
X168000Y-97250
X168000Y-98000
X168000Y-98750
X168000Y-99500
X168000Y-100250
X168000Y-101000
X168000Y-101750
X168000Y-102500
X168000Y-108750
X168000Y-116000
X168000Y-116750
X168000Y-117500
X168000Y-118250
X168000Y-119000
X168000Y-119750
X168000Y-120500
X168000Y-121250
X168000Y-127000
X168050Y-59500
X168050Y-60250
X168050Y-61000
X168050Y-61750
X168050Y-62500
X168050Y-63250
X168050Y-109500
X168050Y-110250
X168050Y-111000
X168050Y-111750
X168050Y-112500
X168050Y-113250
X168250Y-40000
X168250Y-40750
X168250Y-41500
X168250Y-42250
X168250Y-43000
X168250Y-43750
X168250Y-44500
X168250Y-90000
X168250Y-90750
X168250Y-91500
X168250Y-92250
X168250Y-93000
X168250Y-93750
X168250Y-94500
X168750Y-48000
X168750Y-48750
X168750Y-49500
X168750Y-50250
X168750Y-51000
X168750Y-51750
X168750Y-52500
X168750Y-58750
X168750Y-66000
X168750Y-66750
X168750Y-67500
X168750Y-68250
X168750Y-69000
X168750Y-69750
X168750Y-70500
X168750Y-71250
X168750Y-98000
X168750Y-98750
X168750Y-99500
X168750Y-100250
X168750Y-101000
X168750Y-101750
X168750Y-102500
X168750Y-108750
X168750Y-116000
X168750Y-116750
X168750Y-117500
X168750Y-118250
X168750Y-119000
X168750Y-119750
X168750Y-120500
X168750Y-121250
X168800Y-59500
X168800Y-60250
X168800Y-61000
X168800Y-61750
X168800Y-62500
X168800Y-63250
X168800Y-109500
X168800Y-110250
X168800Y-111000
X168800Y-111750
X168800Y-112500
X168800Y-113250
X169000Y-40000
X169000Y-40750
X169000Y-41500
X169000Y-42250
X169000Y-43000
X169000Y-43750
X169000Y-44500
X169000Y-45250
X169000Y-90000
X169000Y-90750
X169000Y-91500
X169000Y-92250
X169000Y-93000
X169000Y-93750
X169000Y-94500
X169000Y-95250
X169500Y-47250
X169500Y-48000
X169500Y-48750
X169500Y-49500
X169500Y-50250
X169500Y-51000
X169500Y-51750
X169500Y-52500
X169500Y-58750
X169500Y-66000
X169500Y-66750
X169500Y-67500
X169500Y-68250
X169500Y-69000
X169500Y-69750
X169500Y-70500
X169500Y-71250
X169500Y-97250
X169500Y-98000
X169500Y-98750
X169500Y-99500
X169500Y-100250
X169500Y-101000
X169500Y-101750
X169500Y-102500
X169500Y-108750
X169500Y-116000
X169500Y-116750
X169500Y-117500
X169500Y-118250
X169500Y-119000
X169500Y-119750
X169500Y-120500
X169500Y-121250
X169550Y-59500
X169550Y-60250
X169550Y-61000
X169550Y-61750
X169550Y-62500
X169550Y-63250
X169550Y-64000
X169550Y-109500
X169550Y-110250
X169550Y-111000
X169550Y-111750
X169550Y-112500
X169550Y-113250
X169550Y-114000
X169750Y-40000
X169750Y-40750
X169750Y-41500
X169750Y-42250
X169750Y-43000
X169750Y-43750
X169750Y-44500
X169750Y-45250
X169750Y-90000
X169750Y-90750
X169750Y-91500
X169750Y-92250
X169750Y-93000
X169750Y-93750
X169750Y-94500
X169750Y-95250
X170000Y-76000
X170000Y-78000
X170000Y-126000
X170000Y-128000
X170250Y-47250
X170250Y-48000
X170250Y-48750
X170250Y-49500
X170250Y-50250
X170250Y-51000
X170250Y-51750
X170250Y-52500
X170250Y-58750
X170250Y-66000
X170250Y-66750
X170250Y-67500
X170250Y-68250
X170250Y-69000
X170250Y-69750
X170250Y-70500
X170250Y-71250
X170250Y-97250
X170250Y-98000
X170250Y-98750
X170250Y-99500
X170250Y-100250
X170250Y-101000
X170250Y-101750
X170250Y-102500
X170250Y-108750
X170250Y-116000
X170250Y-116750
X170250Y-117500
X170250Y-118250
X170250Y-119000
X170250Y-119750
X170250Y-120500
X170250Y-121250
X170300Y-59500
X170300Y-60250
X170300Y-61000
X170300Y-61750
X170300Y-62500
X170300Y-63250
X170300Y-64000
X170300Y-109500
X170300Y-110250
X170300Y-111000
X170300Y-111750
X170300Y-112500
X170300Y-113250
X170300Y-114000
X170500Y-40000
X170500Y-40750
X170500Y-41500
X170500Y-42250
X170500Y-43000
X170500Y-43750
X170500Y-44500
X170500Y-45250
X170500Y-90000
X170500Y-90750
X170500Y-91500
X170500Y-92250
X170500Y-93000
X170500Y-93750
X170500Y-94500
X170500Y-95250
X171000Y-47250
X171000Y-48000
X171000Y-48750
X171000Y-49500
X171000Y-50250
X171000Y-51000
X171000Y-51750
X171000Y-52500
X171000Y-58750
X171000Y-66000
X171000Y-66750
X171000Y-67500
X171000Y-68250
X171000Y-69000
X171000Y-69750
X171000Y-70500
X171000Y-71250
X171000Y-97250
X171000Y-98000
X171000Y-98750
X171000Y-99500
X171000Y-100250
X171000Y-101000
X171000Y-101750
X171000Y-102500
X171000Y-108750
X171000Y-116000
X171000Y-116750
X171000Y-117500
X171000Y-118250
X171000Y-119000
X171000Y-119750
X171000Y-120500
X171000Y-121250
X171050Y-59500
X171050Y-60250
X171050Y-61000
X171050Y-61750
X171050Y-62500
X171050Y-63250
X171050Y-64000
X171050Y-109500
X171050Y-110250
X171050Y-111000
X171050Y-111750
X171050Y-112500
X171050Y-113250
X171050Y-114000
X171250Y-40000
X171250Y-40750
X171250Y-41500
X171250Y-42250
X171250Y-43000
X171250Y-43750
X171250Y-44500
X171250Y-45250
X171250Y-90000
X171250Y-90750
X171250Y-91500
X171250Y-92250
X171250Y-93000
X171250Y-93750
X171250Y-94500
X171250Y-95250
X171750Y-47250
X171750Y-48000
X171750Y-48750
X171750Y-49500
X171750Y-50250
X171750Y-51000
X171750Y-51750
X171750Y-52500
X171750Y-58750
X171750Y-66000
X171750Y-66750
X171750Y-67500
X171750Y-68250
X171750Y-69000
X171750Y-69750
X171750Y-70500
X171750Y-71250
X171750Y-97250
X171750Y-98000
X171750Y-98750
X171750Y-99500
X171750Y-100250
X171750Y-101000
X171750Y-101750
X171750Y-102500
X171750Y-108750
X171750Y-116000
X171750Y-116750
X171750Y-117500
X171750Y-118250
X171750Y-119000
X171750Y-119750
X171750Y-120500
X171750Y-121250
X171800Y-59500
X171800Y-60250
X171800Y-61000
X171800Y-61750
X171800Y-62500
X171800Y-63250
X171800Y-64000
X171800Y-109500
X171800Y-110250
X171800Y-111000
X171800Y-111750
X171800Y-112500
X171800Y-113250
X171800Y-114000
X172000Y-40000
X172000Y-40750
X172000Y-41500
X172000Y-42250
X172000Y-43000
X172000Y-43750
X172000Y-44500
X172000Y-45250
X172000Y-77000
X172000Y-90000
X172000Y-90750
X172000Y-91500
X172000Y-92250
X172000Y-93000
X172000Y-93750
X172000Y-94500
X172000Y-95250
X172000Y-127000
X172500Y-47250
X172500Y-48000
X172500Y-48750
X172500Y-49500
X172500Y-50250
X172500Y-51000
X172500Y-51750
X172500Y-52500
X172500Y-58750
X172500Y-66000
X172500Y-66750
X172500Y-67500
X172500Y-68250
X172500Y-69000
X172500Y-69750
X172500Y-70500
X172500Y-71250
X172500Y-97250
X172500Y-98000
X172500Y-98750
X172500Y-99500
X172500Y-100250
X172500Y-101000
X172500Y-101750
X172500Y-102500
X172500Y-108750
X172500Y-116000
X172500Y-116750
X172500Y-117500
X172500Y-118250
X172500Y-119000
X172500Y-119750
X172500Y-120500
X172500Y-121250
X172550Y-59500
X172550Y-60250
X172550Y-61000
X172550Y-61750
X172550Y-62500
X172550Y-63250
X172550Y-64000
X172550Y-109500
X172550Y-110250
X172550Y-111000
X172550Y-111750
X172550Y-112500
X172550Y-113250
X172550Y-114000
X172750Y-40000
X172750Y-40750
X172750Y-41500
X172750Y-42250
X172750Y-43000
X172750Y-43750
X172750Y-44500
X172750Y-45250
X172750Y-90000
X172750Y-90750
X172750Y-91500
X172750Y-92250
X172750Y-93000
X172750Y-93750
X172750Y-94500
X172750Y-95250
X173250Y-47250
X173250Y-48000
X173250Y-48750
X173250Y-49500
X173250Y-50250
X173250Y-51000
X173250Y-58750
X173250Y-66000
X173250Y-66750
X173250Y-67500
X173250Y-68250
X173250Y-69000
X173250Y-69750
X173250Y-70500
X173250Y-71250
X173250Y-97250
X173250Y-98000
X173250Y-98750
X173250Y-99500
X173250Y-100250
X173250Y-101000
X173250Y-108750
X173250Y-116000
X173250Y-116750
X173250Y-117500
X173250Y-118250
X173250Y-119000
X173250Y-119750
X173250Y-120500
X173250Y-121250
X173300Y-59500
X173300Y-60250
X173300Y-61000
X173300Y-61750
X173300Y-62500
X173300Y-63250
X173300Y-64000
X173300Y-109500
X173300Y-110250
X173300Y-111000
X173300Y-111750
X173300Y-112500
X173300Y-113250
X173300Y-114000
X173500Y-40000
X173500Y-40750
X173500Y-41500
X173500Y-42250
X173500Y-43000
X173500Y-43750
X173500Y-44500
X173500Y-45250
X173500Y-90000
X173500Y-90750
X173500Y-91500
X173500Y-92250
X173500Y-93000
X173500Y-93750
X173500Y-94500
X173500Y-95250
X174000Y-76000
X174000Y-78000
X174000Y-126000
X174000Y-128000
X175000Y-49500
X175000Y-50250
X175000Y-51000
X175000Y-67750
X175000Y-68500
X175000Y-69250
X175000Y-70000
X175000Y-70750
X175000Y-99500
X175000Y-100250
X175000Y-101000
X175000Y-117750
X175000Y-118500
X175000Y-119250
X175000Y-120000
X175000Y-120750
X175750Y-41000
X175750Y-41750
X175750Y-42500
X175750Y-43250
X175750Y-48750
X175750Y-49500
X175750Y-50250
X175750Y-51000
X175750Y-60000
X175750Y-60750
X175750Y-61500
X175750Y-62250
X175750Y-67750
X175750Y-68500
X175750Y-69250
X175750Y-70000
X175750Y-70750
X175750Y-91000
X175750Y-91750
X175750Y-92500
X175750Y-93250
X175750Y-98750
X175750Y-99500
X175750Y-100250
X175750Y-101000
X175750Y-110000
X175750Y-110750
X175750Y-111500
X175750Y-112250
X175750Y-117750
X175750Y-118500
X175750Y-119250
X175750Y-120000
X175750Y-120750
X176500Y-41000
X176500Y-41750
X176500Y-42500
X176500Y-43250
X176500Y-44000
X176500Y-44750
X176500Y-46500
X176500Y-48750
X176500Y-49500
X176500Y-50250
X176500Y-51000
X176500Y-60000
X176500Y-60750
X176500Y-61500
X176500Y-62250
X176500Y-63000
X176500Y-63750
X176500Y-65500
X176500Y-66250
X176500Y-67750
X176500Y-68500
X176500Y-69250
X176500Y-70000
X176500Y-91000
X176500Y-91750
X176500Y-92500
X176500Y-93250
X176500Y-94000
X176500Y-94750
X176500Y-96500
X176500Y-98750
X176500Y-99500
X176500Y-100250
X176500Y-101000
X176500Y-110000
X176500Y-110750
X176500Y-111500
X176500Y-112250
X176500Y-113000
X176500Y-113750
X176500Y-115500
X176500Y-116250
X176500Y-117750
X176500Y-118500
X176500Y-119250
X176500Y-120000
X177250Y-41000
X177250Y-41750
X177250Y-42500
X177250Y-43250
X177250Y-44000
X177250Y-44750
X177250Y-45500
X177250Y-46500
X177250Y-47250
X177250Y-48000
X177250Y-48750
X177250Y-49500
X177250Y-50250
X177250Y-51000
X177250Y-60000
X177250Y-60750
X177250Y-61500
X177250Y-62250
X177250Y-63000
X177250Y-63750
X177250Y-64500
X177250Y-65500
X177250Y-66250
X177250Y-67000
X177250Y-67750
X177250Y-68500
X177250Y-69250
X177250Y-70000
X177250Y-91000
X177250Y-91750
X177250Y-92500
X177250Y-93250
X177250Y-94000
X177250Y-94750
X177250Y-95500
X177250Y-96500
X177250Y-97250
X177250Y-98000
X177250Y-98750
X177250Y-99500
X177250Y-100250
X177250Y-101000
X177250Y-110000
X177250Y-110750
X177250Y-111500
X177250Y-112250
X177250Y-113000
X177250Y-113750
X177250Y-114500
X177250Y-115500
X177250Y-116250
X177250Y-117000
X177250Y-117750
X177250Y-118500
X177250Y-119250
X177250Y-120000
X178000Y-41000
X178000Y-41750
X178000Y-42500
X178000Y-43250
X178000Y-44000
X178000Y-44750
X178000Y-45500
X178000Y-46500
X178000Y-47250
X178000Y-48000
X178000Y-48750
X178000Y-49500
X178000Y-50250
X178000Y-51000
X178000Y-60000
X178000Y-60750
X178000Y-61500
X178000Y-62250
X178000Y-63000
X178000Y-63750
X178000Y-64500
X178000Y-65500
X178000Y-66250
X178000Y-67000
X178000Y-67750
X178000Y-68500
X178000Y-69250
X178000Y-70000
X178000Y-91000
X178000Y-91750
X178000Y-92500
X178000Y-93250
X178000Y-94000
X178000Y-94750
X178000Y-95500
X178000Y-96500
X178000Y-97250
X178000Y-98000
X178000Y-98750
X178000Y-99500
X178000Y-100250
X178000Y-101000
X178000Y-110000
X178000Y-110750
X178000Y-111500
X178000Y-112250
X178000Y-113000
X178000Y-113750
X178000Y-114500
X178000Y-115500
X178000Y-116250
X178000Y-117000
X178000Y-117750
X178000Y-118500
X178000Y-119250
X178000Y-120000
X178750Y-41000
X178750Y-41750
X178750Y-42500
X178750Y-43250
X178750Y-44000
X178750Y-44750
X178750Y-45500
X178750Y-46500
X178750Y-47250
X178750Y-48000
X178750Y-48750
X178750Y-49500
X178750Y-50250
X178750Y-51000
X178750Y-60000
X178750Y-60750
X178750Y-61500
X178750Y-62250
X178750Y-63000
X178750Y-63750
X178750Y-64500
X178750Y-65500
X178750Y-66250
X178750Y-67000
X178750Y-67750
X178750Y-68500
X178750Y-69250
X178750Y-70000
X178750Y-91000
X178750Y-91750
X178750Y-92500
X178750Y-93250
X178750Y-94000
X178750Y-94750
X178750Y-95500
X178750Y-96500
X178750Y-97250
X178750Y-98000
X178750Y-98750
X178750Y-99500
X178750Y-100250
X178750Y-101000
X178750Y-110000
X178750Y-110750
X178750Y-111500
X178750Y-112250
X178750Y-113000
X178750Y-113750
X178750Y-114500
X178750Y-115500
X178750Y-116250
X178750Y-117000
X178750Y-117750
X178750Y-118500
X178750Y-119250
X178750Y-120000
X179500Y-41000
X179500Y-41750
X179500Y-42500
X179500Y-43250
X179500Y-44000
X179500Y-44750
X179500Y-45500
X179500Y-46500
X179500Y-47250
X179500Y-48000
X179500Y-48750
X179500Y-49500
X179500Y-50250
X179500Y-51000
X179500Y-60000
X179500Y-60750
X179500Y-61500
X179500Y-61500
X179500Y-62250
X179500Y-63000
X179500Y-63750
X179500Y-64500
X179500Y-65500
X179500Y-66250
X179500Y-67000
X179500Y-67750
X179500Y-68500
X179500Y-69250
X179500Y-70000
X179500Y-70750
X179500Y-91000
X179500Y-91750
X179500Y-92500
X179500Y-93250
X179500Y-94000
X179500Y-94750
X179500Y-95500
X179500Y-96500
X179500Y-97250
X179500Y-98000
X179500Y-98750
X179500Y-99500
X179500Y-100250
X179500Y-101000
X179500Y-110000
X179500Y-110750
X179500Y-111500
X179500Y-111500
X179500Y-112250
X179500Y-113000
X179500Y-113750
X179500Y-114500
X179500Y-115500
X179500Y-116250
X179500Y-117000
X179500Y-117750
X179500Y-118500
X179500Y-119250
X179500Y-120000
X179500Y-120750
X180250Y-41000
X180250Y-41750
X180250Y-42500
X180250Y-43250
X180250Y-44000
X180250Y-44750
X180250Y-45500
X180250Y-46500
X180250Y-47250
X180250Y-48000
X180250Y-48750
X180250Y-49500
X180250Y-50250
X180250Y-51000
X180250Y-60000
X180250Y-60750
X180250Y-61500
X180250Y-62250
X180250Y-63000
X180250Y-63750
X180250Y-64500
X180250Y-65500
X180250Y-66250
X180250Y-67000
X180250Y-67750
X180250Y-68500
X180250Y-69250
X180250Y-70000
X180250Y-70750
X180250Y-91000
X180250Y-91750
X180250Y-92500
X180250Y-93250
X180250Y-94000
X180250Y-94750
X180250Y-95500
X180250Y-96500
X180250Y-97250
X180250Y-98000
X180250Y-98750
X180250Y-99500
X180250Y-100250
X180250Y-101000
X180250Y-110000
X180250Y-110750
X180250Y-111500
X180250Y-112250
X180250Y-113000
X180250Y-113750
X180250Y-114500
X180250Y-115500
X180250Y-116250
X180250Y-117000
X180250Y-117750
X180250Y-118500
X180250Y-119250
X180250Y-120000
X180250Y-120750
X186250Y-45500
X186250Y-46500
X186250Y-47250
X186250Y-64000
X186250Y-65500
X186250Y-66250
X186250Y-95500
X186250Y-96500
X186250Y-97250
X186250Y-114000
X186250Y-115500
X186250Y-116250
X187000Y-40250
X187000Y-41000
X187000Y-44000
X187000Y-44750
X187000Y-45500
X187000Y-46500
X187000Y-47250
X187000Y-48000
X187000Y-63000
X187000Y-63750
X187000Y-64500
X187000Y-65500
X187000Y-66250
X187000Y-67000
X187000Y-67750
X187000Y-70000
X187000Y-90250
X187000Y-91000
X187000Y-94000
X187000Y-94750
X187000Y-95500
X187000Y-96500
X187000Y-97250
X187000Y-98000
X187000Y-113000
X187000Y-113750
X187000Y-114500
X187000Y-115500
X187000Y-116250
X187000Y-117000
X187000Y-117750
X187000Y-120000
X187750Y-40250
X187750Y-41000
X187750Y-41750
X187750Y-42500
X187750Y-43250
X187750Y-44000
X187750Y-44750
X187750Y-45500
X187750Y-46500
X187750Y-47250
X187750Y-48000
X187750Y-48000
X187750Y-48750
X187750Y-49500
X187750Y-50250
X187750Y-51000
X187750Y-51750
X187750Y-60000
X187750Y-60750
X187750Y-61500
X187750Y-62250
X187750Y-63000
X187750Y-63750
X187750Y-64500
X187750Y-65500
X187750Y-66250
X187750Y-67000
X187750Y-67750
X187750Y-68500
X187750Y-69250
X187750Y-70000
X187750Y-90250
X187750Y-91000
X187750Y-91750
X187750Y-92500
X187750Y-93250
X187750Y-94000
X187750Y-94750
X187750Y-95500
X187750Y-96500
X187750Y-97250
X187750Y-98000
X187750Y-98000
X187750Y-98750
X187750Y-99500
X187750Y-100250
X187750Y-101000
X187750Y-101750
X187750Y-110000
X187750Y-110750
X187750Y-111500
X187750Y-112250
X187750Y-113000
X187750Y-113750
X187750Y-114500
X187750Y-115500
X187750Y-116250
X187750Y-117000
X187750Y-117750
X187750Y-118500
X187750Y-119250
X187750Y-120000
X188500Y-41000
X188500Y-41750
X188500Y-42500
X188500Y-43250
X188500Y-44000
X188500Y-44750
X188500Y-45500
X188500Y-46500
X188500Y-47250
X188500Y-48000
X188500Y-48750
X188500Y-49500
X188500Y-50250
X188500Y-51000
X188500Y-60000
X188500Y-60750
X188500Y-61500
X188500Y-62250
X188500Y-63000
X188500Y-63750
X188500Y-64500
X188500Y-65500
X188500Y-66250
X188500Y-67000
X188500Y-67750
X188500Y-68500
X188500Y-69250
X188500Y-70000
X188500Y-91000
X188500Y-91750
X188500Y-92500
X188500Y-93250
X188500Y-94000
X188500Y-94750
X188500Y-95500
X188500Y-96500
X188500Y-97250
X188500Y-98000
X188500Y-98750
X188500Y-99500
X188500Y-100250
X188500Y-101000
X188500Y-110000
X188500Y-110750
X188500Y-111500
X188500Y-112250
X188500Y-113000
X188500Y-113750
X188500Y-114500
X188500Y-115500
X188500Y-116250
X188500Y-117000
X188500Y-117750
X188500Y-118500
X188500Y-119250
X188500Y-120000
X189250Y-41000
X189250Y-41750
X189250Y-42500
X189250Y-43250
X189250Y-44000
X189250Y-44750
X189250Y-45500
X189250Y-46500
X189250Y-47250
X189250Y-48000
X189250Y-48750
X189250Y-49500
X189250Y-49500
X189250Y-50250
X189250Y-51000
X189250Y-60000
X189250Y-60750
X189250Y-60750
X189250Y-61500
X189250Y-62250
X189250Y-63000
X189250Y-63750
X189250Y-64500
X189250Y-65500
X189250Y-65500
X189250Y-66250
X189250Y-67000
X189250Y-67750
X189250Y-68500
X189250Y-68500
X189250Y-69250
X189250Y-70000
X189250Y-91000
X189250Y-91750
X189250Y-92500
X189250Y-93250
X189250Y-94000
X189250Y-94750
X189250Y-95500
X189250Y-96500
X189250Y-97250
X189250Y-98000
X189250Y-98750
X189250Y-99500
X189250Y-99500
X189250Y-100250
X189250Y-101000
X189250Y-110000
X189250Y-110750
X189250Y-110750
X189250Y-111500
X189250Y-112250
X189250Y-113000
X189250Y-113750
X189250Y-114500
X189250Y-115500
X189250Y-115500
X189250Y-116250
X189250Y-117000
X189250Y-117750
X189250Y-118500
X189250Y-118500
X189250Y-119250
X189250Y-120000
X190000Y-41000
X190000Y-41750
X190000Y-42500
X190000Y-42500
X190000Y-43250
X190000Y-44000
X190000Y-44750
X190000Y-45500
X190000Y-46500
X190000Y-47250
X190000Y-48000
X190000Y-48750
X190000Y-49500
X190000Y-50250
X190000Y-51000
X190000Y-60000
X190000Y-60750
X190000Y-61500
X190000Y-62250
X190000Y-63000
X190000Y-63750
X190000Y-64500
X190000Y-65500
X190000Y-66250
X190000Y-67000
X190000Y-67750
X190000Y-68500
X190000Y-69250
X190000Y-70000
X190000Y-91000
X190000Y-91750
X190000Y-92500
X190000Y-92500
X190000Y-93250
X190000Y-94000
X190000Y-94750
X190000Y-95500
X190000Y-96500
X190000Y-97250
X190000Y-98000
X190000Y-98750
X190000Y-99500
X190000Y-100250
X190000Y-101000
X190000Y-110000
X190000Y-110750
X190000Y-111500
X190000Y-112250
X190000Y-113000
X190000Y-113750
X190000Y-114500
X190000Y-115500
X190000Y-116250
X190000Y-117000
X190000Y-117750
X190000Y-118500
X190000Y-119250
X190000Y-120000
X190750Y-41000
X190750Y-41750
X190750Y-42500
X190750Y-43250
X190750Y-44000
X190750Y-44750
X190750Y-45500
X190750Y-46500
X190750Y-47250
X190750Y-48000
X190750Y-48750
X190750Y-49500
X190750Y-50250
X190750Y-51000
X190750Y-60000
X190750Y-60750
X190750Y-61500
X190750Y-62250
X190750Y-63000
X190750Y-63750
X190750Y-64500
X190750Y-65500
X190750Y-66250
X190750Y-67000
X190750Y-67750
X190750Y-68500
X190750Y-69250
X190750Y-70000
X190750Y-91000
X190750Y-91750
X190750Y-92500
X190750Y-93250
X190750Y-94000
X190750Y-94750
X190750Y-95500
X190750Y-96500
X190750Y-97250
X190750Y-98000
X190750Y-98750
X190750Y-99500
X190750Y-100250
X190750Y-101000
X190750Y-110000
X190750Y-110750
X190750Y-111500
X190750Y-112250
X190750Y-113000
X190750Y-113750
X190750Y-114500
X190750Y-115500
X190750Y-116250
X190750Y-117000
X190750Y-117750
X190750Y-118500
X190750Y-119250
X190750Y-120000
X191500Y-41000
X191500Y-41750
X191500Y-42500
X191500Y-43250
X191500Y-44000
X191500Y-44750
X191500Y-45500
X191500Y-46500
X191500Y-47250
X191500Y-48000
X191500Y-48750
X191500Y-49500
X191500Y-50250
X191500Y-51000
X191500Y-51750
X191500Y-60000
X191500Y-60750
X191500Y-61500
X191500Y-62250
X191500Y-63000
X191500Y-63750
X191500Y-64500
X191500Y-65500
X191500Y-66250
X191500Y-67000
X191500Y-67750
X191500Y-68500
X191500Y-69250
X191500Y-70000
X191500Y-91000
X191500Y-91750
X191500Y-92500
X191500Y-93250
X191500Y-94000
X191500Y-94750
X191500Y-95500
X191500Y-96500
X191500Y-97250
X191500Y-98000
X191500Y-98750
X191500Y-99500
X191500Y-100250
X191500Y-101000
X191500Y-101750
X191500Y-110000
X191500Y-110750
X191500Y-111500
X191500Y-112250
X191500Y-113000
X191500Y-113750
X191500Y-114500
X191500Y-115500
X191500Y-116250
X191500Y-117000
X191500Y-117750
X191500Y-118500
X191500Y-119250
X191500Y-120000
X192250Y-40250
X192250Y-41000
X192250Y-41750
X192250Y-42500
X192250Y-43250
X192250Y-44000
X192250Y-44750
X192250Y-45500
X192250Y-46500
X192250Y-47250
X192250Y-47250
X192250Y-48000
X192250Y-48750
X192250Y-49500
X192250Y-50250
X192250Y-51000
X192250Y-51750
X192250Y-60000
X192250Y-60750
X192250Y-61500
X192250Y-62250
X192250Y-63000
X192250Y-63750
X192250Y-64500
X192250Y-65500
X192250Y-66250
X192250Y-67000
X192250Y-67750
X192250Y-68500
X192250Y-69250
X192250Y-70000
X192250Y-90250
X192250Y-91000
X192250Y-91750
X192250Y-92500
X192250Y-93250
X192250Y-94000
X192250Y-94750
X192250Y-95500
X192250Y-96500
X192250Y-97250
X192250Y-97250
X192250Y-98000
X192250Y-98750
X192250Y-99500
X192250Y-100250
X192250Y-101000
X192250Y-101750
X192250Y-110000
X192250Y-110750
X192250Y-111500
X192250Y-112250
X192250Y-113000
X192250Y-113750
X192250Y-114500
X192250Y-115500
X192250Y-116250
X192250Y-117000
X192250Y-117750
X192250Y-118500
X192250Y-119250
X192250Y-120000
X193000Y-40250
X193000Y-41000
X193000Y-41750
X193000Y-42500
X193000Y-43250
X193000Y-44000
X193000Y-44750
X193000Y-45500
X193000Y-46500
X193000Y-47250
X193000Y-48000
X193000Y-48750
X193000Y-49500
X193000Y-50250
X193000Y-51000
X193000Y-51750
X193000Y-60000
X193000Y-60750
X193000Y-61500
X193000Y-62250
X193000Y-63000
X193000Y-63750
X193000Y-64500
X193000Y-65500
X193000Y-66250
X193000Y-67000
X193000Y-67750
X193000Y-68500
X193000Y-69250
X193000Y-70000
X193000Y-90250
X193000Y-91000
X193000Y-91750
X193000Y-92500
X193000Y-93250
X193000Y-94000
X193000Y-94750
X193000Y-95500
X193000Y-96500
X193000Y-97250
X193000Y-98000
X193000Y-98750
X193000Y-99500
X193000Y-100250
X193000Y-101000
X193000Y-101750
X193000Y-110000
X193000Y-110750
X193000Y-111500
X193000Y-112250
X193000Y-113000
X193000Y-113750
X193000Y-114500
X193000Y-115500
X193000Y-116250
X193000Y-117000
X193000Y-117750
X193000Y-118500
X193000Y-119250
X193000Y-120000
X193750Y-40250
X193750Y-41000
X193750Y-41750
X193750Y-42500
X193750Y-43250
X193750Y-44000
X193750Y-44750
X193750Y-45500
X193750Y-46500
X193750Y-47250
X193750Y-48000
X193750Y-48750
X193750Y-49500
X193750Y-50250
X193750Y-51000
X193750Y-51750
X193750Y-60000
X193750Y-60750
X193750Y-61500
X193750Y-62250
X193750Y-63000
X193750Y-63750
X193750Y-64500
X193750Y-65500
X193750Y-66250
X193750Y-66250
X193750Y-67000
X193750Y-67750
X193750Y-68500
X193750Y-69250
X193750Y-70000
X193750Y-90250
X193750Y-91000
X193750Y-91750
X193750Y-92500
X193750Y-93250
X193750Y-94000
X193750Y-94750
X193750Y-95500
X193750Y-96500
X193750Y-97250
X193750Y-98000
X193750Y-98750
X193750Y-99500
X193750Y-100250
X193750Y-101000
X193750Y-101750
X193750Y-110000
X193750Y-110750
X193750Y-111500
X193750Y-112250
X193750Y-113000
X193750Y-113750
X193750Y-114500
X193750Y-115500
X193750Y-116250
X193750Y-116250
X193750Y-117000
X193750Y-117750
X193750Y-118500
X193750Y-119250
X193750Y-120000
X195250Y-40500
X195250Y-41250
X195250Y-42000
X195250Y-42750
X195250Y-49000
X195250Y-49750
X195250Y-50500
X195250Y-51250
X195250Y-68500
X195250Y-69250
X195250Y-70000
X195250Y-90500
X195250Y-91250
X195250Y-92000
X195250Y-92750
X195250Y-99000
X195250Y-99750
X195250Y-100500
X195250Y-101250
X195250Y-118500
X195250Y-119250
X195250Y-120000
X196000Y-40500
X196000Y-41250
X196000Y-42000
X196000Y-42750
X196000Y-49000
X196000Y-49750
X196000Y-50500
X196000Y-51250
X196000Y-60250
X196000Y-61000
X196000Y-61750
X196000Y-68500
X196000Y-69250
X196000Y-70000
X196000Y-90500
X196000Y-91250
X196000Y-92000
X196000Y-92750
X196000Y-99000
X196000Y-99750
X196000Y-100500
X196000Y-101250
X196000Y-110250
X196000Y-111000
X196000Y-111750
X196000Y-118500
X196000Y-119250
X196000Y-120000
X196750Y-40500
X196750Y-41250
X196750Y-42000
X196750Y-42750
X196750Y-43500
X196750Y-44250
X196750Y-45000
X196750Y-45750
X196750Y-47500
X196750Y-48250
X196750Y-49000
X196750Y-49750
X196750Y-50500
X196750Y-51250
X196750Y-60250
X196750Y-61000
X196750Y-61750
X196750Y-62500
X196750Y-63250
X196750Y-64000
X196750Y-64750
X196750Y-65500
X196750Y-66250
X196750Y-67000
X196750Y-67750
X196750Y-68500
X196750Y-69250
X196750Y-70000
X196750Y-90500
X196750Y-91250
X196750Y-92000
X196750Y-92750
X196750Y-93500
X196750Y-94250
X196750Y-95000
X196750Y-95750
X196750Y-97500
X196750Y-98250
X196750Y-99000
X196750Y-99750
X196750Y-100500
X196750Y-101250
X196750Y-110250
X196750Y-111000
X196750Y-111750
X196750Y-112500
X196750Y-113250
X196750Y-114000
X196750Y-114750
X196750Y-115500
X196750Y-116250
X196750Y-117000
X196750Y-117750
X196750Y-118500
X196750Y-119250
X196750Y-120000
X197500Y-40500
X197500Y-41250
X197500Y-42000
X197500Y-42750
X197500Y-43500
X197500Y-44250
X197500Y-45000
X197500Y-45750
X197500Y-47500
X197500Y-48250
X197500Y-49000
X197500Y-49750
X197500Y-50500
X197500Y-51250
X197500Y-60250
X197500Y-61000
X197500Y-61750
X197500Y-62500
X197500Y-63250
X197500Y-64000
X197500Y-64750
X197500Y-65500
X197500Y-66250
X197500Y-67000
X197500Y-67750
X197500Y-68500
X197500Y-69250
X197500Y-70000
X197500Y-90500
X197500Y-91250
X197500Y-92000
X197500Y-92750
X197500Y-93500
X197500Y-94250
X197500Y-95000
X197500Y-95750
X197500Y-97500
X197500Y-98250
X197500Y-99000
X197500Y-99750
X197500Y-100500
X197500Y-101250
X197500Y-110250
X197500Y-111000
X197500Y-111750
X197500Y-112500
X197500Y-113250
X197500Y-114000
X197500Y-114750
X197500Y-115500
X197500Y-116250
X197500Y-117000
X197500Y-117750
X197500Y-118500
X197500Y-119250
X197500Y-120000
X198250Y-40500
X198250Y-41250
X198250Y-42000
X198250Y-42750
X198250Y-43500
X198250Y-44250
X198250Y-45000
X198250Y-45750
X198250Y-47500
X198250Y-48250
X198250Y-49000
X198250Y-49750
X198250Y-50500
X198250Y-51250
X198250Y-60250
X198250Y-61000
X198250Y-61750
X198250Y-62500
X198250Y-63250
X198250Y-64000
X198250Y-64750
X198250Y-65500
X198250Y-66250
X198250Y-67000
X198250Y-67750
X198250Y-68500
X198250Y-69250
X198250Y-70000
X198250Y-90500
X198250Y-91250
X198250Y-92000
X198250Y-92750
X198250Y-93500
X198250Y-94250
X198250Y-95000
X198250Y-95750
X198250Y-97500
X198250Y-98250
X198250Y-99000
X198250Y-99750
X198250Y-100500
X198250Y-101250
X198250Y-110250
X198250Y-111000
X198250Y-111750
X198250Y-112500
X198250Y-113250
X198250Y-114000
X198250Y-114750
X198250Y-115500
X198250Y-116250
X198250Y-117000
X198250Y-117750
X198250Y-118500
X198250Y-119250
X198250Y-120000
X198500Y-36500
X198500Y-86500
X199000Y-40500
X199000Y-41250
X199000Y-42000
X199000Y-42750
X199000Y-43500
X199000Y-44250
X199000Y-45000
X199000Y-45750
X199000Y-47500
X199000Y-48250
X199000Y-49000
X199000Y-49750
X199000Y-50500
X199000Y-51250
X199000Y-60250
X199000Y-61000
X199000Y-61750
X199000Y-62500
X199000Y-63250
X199000Y-64000
X199000Y-64750
X199000Y-65500
X199000Y-66250
X199000Y-67000
X199000Y-67750
X199000Y-68500
X199000Y-69250
X199000Y-70000
X199000Y-90500
X199000Y-91250
X199000Y-92000
X199000Y-92750
X199000Y-93500
X199000Y-94250
X199000Y-95000
X199000Y-95750
X199000Y-97500
X199000Y-98250
X199000Y-99000
X199000Y-99750
X199000Y-100500
X199000Y-101250
X199000Y-110250
X199000Y-111000
X199000Y-111750
X199000Y-112500
X199000Y-113250
X199000Y-114000
X199000Y-114750
X199000Y-115500
X199000Y-116250
X199000Y-117000
X199000Y-117750
X199000Y-118500
X199000Y-119250
X199000Y-120000
X199750Y-40500
X199750Y-41250
X199750Y-42000
X199750Y-42750
X199750Y-43500
X199750Y-44250
X199750Y-45000
X199750Y-45750
X199750Y-47500
X199750Y-48250
X199750Y-49000
X199750Y-49000
X199750Y-49750
X199750Y-50500
X199750Y-51250
X199750Y-60250
X199750Y-61000
X199750Y-61750
X199750Y-62500
X199750Y-63250
X199750Y-64000
X199750Y-64750
X199750Y-65500
X199750Y-66250
X199750Y-67000
X199750Y-67750
X199750Y-68500
X199750Y-69250
X199750Y-70000
X199750Y-90500
X199750Y-91250
X199750Y-92000
X199750Y-92750
X199750Y-93500
X199750Y-94250
X199750Y-95000
X199750Y-95750
X199750Y-97500
X199750Y-98250
X199750Y-99000
X199750Y-99000
X199750Y-99750
X199750Y-100500
X199750Y-101250
X199750Y-110250
X199750Y-111000
X199750Y-111750
X199750Y-112500
X199750Y-113250
X199750Y-114000
X199750Y-114750
X199750Y-115500
X199750Y-116250
X199750Y-117000
X199750Y-117750
X199750Y-118500
X199750Y-119250
X199750Y-120000
X200500Y-40500
X200500Y-41250
X200500Y-42000
X200500Y-42750
X200500Y-43500
X200500Y-44250
X200500Y-45000
X200500Y-45750
X200500Y-47500
X200500Y-48250
X200500Y-49000
X200500Y-49750
X200500Y-50500
X200500Y-51250
X200500Y-60250
X200500Y-61000
X200500Y-61750
X200500Y-62500
X200500Y-63250
X200500Y-64000
X200500Y-64750
X200500Y-65500
X200500Y-66250
X200500Y-67000
X200500Y-67750
X200500Y-68500
X200500Y-69250
X200500Y-70000
X200500Y-90500
X200500Y-91250
X200500Y-92000
X200500Y-92750
X200500Y-93500
X200500Y-94250
X200500Y-95000
X200500Y-95750
X200500Y-97500
X200500Y-98250
X200500Y-99000
X200500Y-99750
X200500Y-100500
X200500Y-101250
X200500Y-110250
X200500Y-111000
X200500Y-111750
X200500Y-112500
X200500Y-113250
X200500Y-114000
X200500Y-114750
X200500Y-115500
X200500Y-116250
X200500Y-117000
X200500Y-117750
X200500Y-118500
X200500Y-119250
X200500Y-120000
X201000Y-39000
X201000Y-89000
X202000Y-40000
X202000Y-42000
X202000Y-44000
X202000Y-50000
X202000Y-54000
X202000Y-58000
X202000Y-62000
X202000Y-66000
X202000Y-70000
X202000Y-74000
X202000Y-78000
X202000Y-90000
X202000Y-92000
X202000Y-94000
X202000Y-100000
X202000Y-104000
X202000Y-108000
X202000Y-112000
X202000Y-116000
X202000Y-120000
X202000Y-124000
X202000Y-128000
X203000Y-36500
X203000Y-39000
X203000Y-41000
X203000Y-43000
X203000Y-45000
X203000Y-48000
X203000Y-52000
X203000Y-56000
X203000Y-60000
X203000Y-64000
X203000Y-68000
X203000Y-72000
X203000Y-76000
X203000Y-86500
X203000Y-89000
X203000Y-91000
X203000Y-93000
X203000Y-95000
X203000Y-98000
X203000Y-102000
X203000Y-106000
X203000Y-110000
X203000Y-114000
X203000Y-118000
X203000Y-122000
X203000Y-126000
T2
X124000Y-57100
X124000Y-107100
X124300Y-73500
X124300Y-123500
X127500Y-55500
X127500Y-105500
X127617Y-70783
X127617Y-120783
X127994Y-60998
X127994Y-110998
X128200Y-52800
X128200Y-102800
X128225Y-56300
X128225Y-106300
X128500Y-59000
X128500Y-109000
X128700Y-38000
X128700Y-88000
X129023Y-51917
X129023Y-101917
X129664Y-52752
X129664Y-102752
X130500Y-56200
X130500Y-106200
X130600Y-52400
X130600Y-102400
X131250Y-50300
X131250Y-100300
X131400Y-48100
X131400Y-49300
X131400Y-98100
X131400Y-99300
X131865Y-55854
X131865Y-105854
X132200Y-51500
X132200Y-101500
X132400Y-59900
X132400Y-109900
X132700Y-44000
X132700Y-94000
X132967Y-57067
X132967Y-107067
X133100Y-50100
X133100Y-100100
X133189Y-64003
X133189Y-114003
X133975Y-63258
X133975Y-113258
X134000Y-53300
X134000Y-103300
X134300Y-61900
X134300Y-111900
X134596Y-54368
X134596Y-104368
X135600Y-41000
X135600Y-91000
X135900Y-65300
X135900Y-115300
X135970Y-57082
X135970Y-107082
X136300Y-66800
X136300Y-116800
X136500Y-63700
X136500Y-113700
X136526Y-54585
X136526Y-104585
X136946Y-45578
X136946Y-95578
X137000Y-47600
X137000Y-97600
X137003Y-46576
X137003Y-96576
X137900Y-60800
X137900Y-110800
X138100Y-43300
X138100Y-93300
X138800Y-47900
X138800Y-97900
X139228Y-63481
X139228Y-113481
X139300Y-43700
X139300Y-93700
X141300Y-43300
X141300Y-93300
X141900Y-70600
X141900Y-120600
X142089Y-55600
X142089Y-105600
X144681Y-56700
X144681Y-106700
X144691Y-53222
X144691Y-103222
X144711Y-51772
X144711Y-101772
X144781Y-69208
X144781Y-119208
X144837Y-67063
X144837Y-117063
X144887Y-55287
X144887Y-105287
X144900Y-54200
X144900Y-104200
X144900Y-68100
X144900Y-118100
X145000Y-70600
X145000Y-120600
X145731Y-65735
X145731Y-115735
X154975Y-67966
X154975Y-117966
X155200Y-56500
X155200Y-106500
X155300Y-64300
X155300Y-114300
X155314Y-70810
X155314Y-120810
X155500Y-50500
X155500Y-100500
X156472Y-64153
X156472Y-114153
X156613Y-50588
X156613Y-100588
X156702Y-55005
X156702Y-105005
X157000Y-56200
X157000Y-106200
X157145Y-69763
X157145Y-119763
X157300Y-66800
X157300Y-116800
X158962Y-65780
X158962Y-115780
X160500Y-67250
X160500Y-117250
X160750Y-64250
X160750Y-66250
X160750Y-114250
X160750Y-116250
X160800Y-50600
X160800Y-100600
X161250Y-69000
X161250Y-119000
X176000Y-45500
X176000Y-95500
X176200Y-48100
X176200Y-98100
X176200Y-66900
X176200Y-116900
X176300Y-64400
X176300Y-114400
T3
X148500Y-40200
X151000Y-40200
X153500Y-40200
X156000Y-40200
X158500Y-40200
X148500Y-90200
X151000Y-90200
X153500Y-90200
X156000Y-90200
X158500Y-90200
T4
X137600Y-41000
X140100Y-41000
X137600Y-91000
X140100Y-91000
T5
X183898Y-42600
X183898Y-49800
X183898Y-61600
X183898Y-68800
X183898Y-92600
X183898Y-99800
X183898Y-111600
X183898Y-118800
T4
G00X178498Y-39450
M15
G01X177298Y-39450
M16
G05
G00X178498Y-52950
M15
G01X177298Y-52950
M16
G05
G00X190498Y-39450
M15
G01X189298Y-39450
M16
G05
G00X190498Y-52950
M15
G01X189298Y-52950
M16
G05
G00X178498Y-58450
M15
G01X177298Y-58450
M16
G05
G00X178498Y-71950
M15
G01X177298Y-71950
M16
G05
G00X190498Y-58450
M15
G01X189298Y-58450
M16
G05
G00X190498Y-71950
M15
G01X189298Y-71950
M16
G05
G00X178498Y-89450
M15
G01X177298Y-89450
M16
G05
G00X178498Y-102950
M15
G01X177298Y-102950
M16
G05
G00X190498Y-89450
M15
G01X189298Y-89450
M16
G05
G00X190498Y-102950
M15
G01X189298Y-102950
M16
G05
G00X178498Y-108450
M15
G01X177298Y-108450
M16
G05
G00X178498Y-121950
M15
G01X177298Y-121950
M16
G05
G00X190498Y-108450
M15
G01X189298Y-108450
M16
G05
G00X190498Y-121950
M15
G01X189298Y-121950
M16
G05
T0
M30
