G04 #@! TF.GenerationSoftware,KiCad,Pcbnew,(5.1.5)-3*
G04 #@! TF.CreationDate,2020-01-11T02:44:02+09:00*
G04 #@! TF.ProjectId,H-Bridge-MD,482d4272-6964-4676-952d-4d442e6b6963,rev?*
G04 #@! TF.SameCoordinates,Original*
G04 #@! TF.FileFunction,Legend,Bot*
G04 #@! TF.FilePolarity,Positive*
%FSLAX46Y46*%
G04 Gerber Fmt 4.6, Leading zero omitted, Abs format (unit mm)*
G04 Created by KiCad (PCBNEW (5.1.5)-3) date 2020-01-11 02:44:02*
%MOMM*%
%LPD*%
G04 APERTURE LIST*
%ADD10C,0.150000*%
%ADD11C,0.050000*%
%ADD12C,0.100000*%
%ADD13C,0.120000*%
%ADD14C,0.200000*%
%ADD15C,0.254000*%
%ADD16O,1.702000X1.702000*%
%ADD17R,1.702000X1.702000*%
%ADD18O,1.802000X1.802000*%
%ADD19R,1.802000X1.802000*%
%ADD20R,2.102000X3.902000*%
%ADD21R,2.102000X1.602000*%
%ADD22O,0.752000X0.752000*%
%ADD23R,0.752000X4.702000*%
%ADD24R,0.752000X3.702000*%
%ADD25C,5.202000*%
%ADD26O,2.902000X1.602000*%
%ADD27R,1.602000X0.752000*%
G04 APERTURE END LIST*
D10*
X65357142Y-53652380D02*
X65357142Y-52652380D01*
X65119047Y-52652380D01*
X64976190Y-52700000D01*
X64880952Y-52795238D01*
X64833333Y-52890476D01*
X64785714Y-53080952D01*
X64785714Y-53223809D01*
X64833333Y-53414285D01*
X64880952Y-53509523D01*
X64976190Y-53604761D01*
X65119047Y-53652380D01*
X65357142Y-53652380D01*
X63976190Y-53604761D02*
X64071428Y-53652380D01*
X64261904Y-53652380D01*
X64357142Y-53604761D01*
X64404761Y-53509523D01*
X64404761Y-53128571D01*
X64357142Y-53033333D01*
X64261904Y-52985714D01*
X64071428Y-52985714D01*
X63976190Y-53033333D01*
X63928571Y-53128571D01*
X63928571Y-53223809D01*
X64404761Y-53319047D01*
X63547619Y-53604761D02*
X63452380Y-53652380D01*
X63261904Y-53652380D01*
X63166666Y-53604761D01*
X63119047Y-53509523D01*
X63119047Y-53461904D01*
X63166666Y-53366666D01*
X63261904Y-53319047D01*
X63404761Y-53319047D01*
X63500000Y-53271428D01*
X63547619Y-53176190D01*
X63547619Y-53128571D01*
X63500000Y-53033333D01*
X63404761Y-52985714D01*
X63261904Y-52985714D01*
X63166666Y-53033333D01*
X62690476Y-53652380D02*
X62690476Y-52985714D01*
X62690476Y-52652380D02*
X62738095Y-52700000D01*
X62690476Y-52747619D01*
X62642857Y-52700000D01*
X62690476Y-52652380D01*
X62690476Y-52747619D01*
X61785714Y-52985714D02*
X61785714Y-53795238D01*
X61833333Y-53890476D01*
X61880952Y-53938095D01*
X61976190Y-53985714D01*
X62119047Y-53985714D01*
X62214285Y-53938095D01*
X61785714Y-53604761D02*
X61880952Y-53652380D01*
X62071428Y-53652380D01*
X62166666Y-53604761D01*
X62214285Y-53557142D01*
X62261904Y-53461904D01*
X62261904Y-53176190D01*
X62214285Y-53080952D01*
X62166666Y-53033333D01*
X62071428Y-52985714D01*
X61880952Y-52985714D01*
X61785714Y-53033333D01*
X61309523Y-52985714D02*
X61309523Y-53652380D01*
X61309523Y-53080952D02*
X61261904Y-53033333D01*
X61166666Y-52985714D01*
X61023809Y-52985714D01*
X60928571Y-53033333D01*
X60880952Y-53128571D01*
X60880952Y-53652380D01*
X60023809Y-53604761D02*
X60119047Y-53652380D01*
X60309523Y-53652380D01*
X60404761Y-53604761D01*
X60452380Y-53509523D01*
X60452380Y-53128571D01*
X60404761Y-53033333D01*
X60309523Y-52985714D01*
X60119047Y-52985714D01*
X60023809Y-53033333D01*
X59976190Y-53128571D01*
X59976190Y-53223809D01*
X60452380Y-53319047D01*
X59119047Y-53652380D02*
X59119047Y-52652380D01*
X59119047Y-53604761D02*
X59214285Y-53652380D01*
X59404761Y-53652380D01*
X59500000Y-53604761D01*
X59547619Y-53557142D01*
X59595238Y-53461904D01*
X59595238Y-53176190D01*
X59547619Y-53080952D01*
X59500000Y-53033333D01*
X59404761Y-52985714D01*
X59214285Y-52985714D01*
X59119047Y-53033333D01*
X57880952Y-53652380D02*
X57880952Y-52652380D01*
X57880952Y-53033333D02*
X57785714Y-52985714D01*
X57595238Y-52985714D01*
X57500000Y-53033333D01*
X57452380Y-53080952D01*
X57404761Y-53176190D01*
X57404761Y-53461904D01*
X57452380Y-53557142D01*
X57500000Y-53604761D01*
X57595238Y-53652380D01*
X57785714Y-53652380D01*
X57880952Y-53604761D01*
X57071428Y-52985714D02*
X56833333Y-53652380D01*
X56595238Y-52985714D02*
X56833333Y-53652380D01*
X56928571Y-53890476D01*
X56976190Y-53938095D01*
X57071428Y-53985714D01*
X55595238Y-52652380D02*
X55023809Y-52652380D01*
X55309523Y-53652380D02*
X55309523Y-52652380D01*
X54690476Y-53652380D02*
X54690476Y-52652380D01*
X54119047Y-53652380D01*
X54119047Y-52652380D01*
X53642857Y-53652380D02*
X53642857Y-52652380D01*
X53071428Y-53652380D02*
X53500000Y-53080952D01*
X53071428Y-52652380D02*
X53642857Y-53223809D01*
X52642857Y-53557142D02*
X52595238Y-53604761D01*
X52642857Y-53652380D01*
X52690476Y-53604761D01*
X52642857Y-53557142D01*
X52642857Y-53652380D01*
D11*
X50000000Y-90000000D02*
X61468000Y-90000000D01*
X63373000Y-90000000D02*
X135000000Y-90000000D01*
D12*
X73133342Y-42298400D02*
X73190485Y-42269828D01*
X73276200Y-42269828D01*
X73361914Y-42298400D01*
X73419057Y-42355542D01*
X73447628Y-42412685D01*
X73476200Y-42526971D01*
X73476200Y-42612685D01*
X73447628Y-42726971D01*
X73419057Y-42784114D01*
X73361914Y-42841257D01*
X73276200Y-42869828D01*
X73219057Y-42869828D01*
X73133342Y-42841257D01*
X73104771Y-42812685D01*
X73104771Y-42612685D01*
X73219057Y-42612685D01*
X72847628Y-42869828D02*
X72847628Y-42269828D01*
X72504771Y-42869828D01*
X72504771Y-42269828D01*
X72219057Y-42869828D02*
X72219057Y-42269828D01*
X72076200Y-42269828D01*
X71990485Y-42298400D01*
X71933342Y-42355542D01*
X71904771Y-42412685D01*
X71876200Y-42526971D01*
X71876200Y-42612685D01*
X71904771Y-42726971D01*
X71933342Y-42784114D01*
X71990485Y-42841257D01*
X72076200Y-42869828D01*
X72219057Y-42869828D01*
D11*
X63373000Y-80772000D02*
X61468000Y-80772000D01*
X50000000Y-43500000D02*
G75*
G02X53500000Y-40000000I3500000J0D01*
G01*
X131500000Y-40000000D02*
G75*
G02X135000000Y-43500000I0J-3500000D01*
G01*
D12*
X69290485Y-42269828D02*
X69090485Y-42869828D01*
X68890485Y-42269828D01*
X68347628Y-42812685D02*
X68376200Y-42841257D01*
X68461914Y-42869828D01*
X68519057Y-42869828D01*
X68604771Y-42841257D01*
X68661914Y-42784114D01*
X68690485Y-42726971D01*
X68719057Y-42612685D01*
X68719057Y-42526971D01*
X68690485Y-42412685D01*
X68661914Y-42355542D01*
X68604771Y-42298400D01*
X68519057Y-42269828D01*
X68461914Y-42269828D01*
X68376200Y-42298400D01*
X68347628Y-42326971D01*
X68090485Y-42869828D02*
X68090485Y-42269828D01*
X67861914Y-42269828D01*
X67804771Y-42298400D01*
X67776200Y-42326971D01*
X67747628Y-42384114D01*
X67747628Y-42469828D01*
X67776200Y-42526971D01*
X67804771Y-42555542D01*
X67861914Y-42584114D01*
X68090485Y-42584114D01*
X67633342Y-42926971D02*
X67176200Y-42926971D01*
X66690485Y-42869828D02*
X66890485Y-42584114D01*
X67033342Y-42869828D02*
X67033342Y-42269828D01*
X66804771Y-42269828D01*
X66747628Y-42298400D01*
X66719057Y-42326971D01*
X66690485Y-42384114D01*
X66690485Y-42469828D01*
X66719057Y-42526971D01*
X66747628Y-42555542D01*
X66804771Y-42584114D01*
X67033342Y-42584114D01*
X66490485Y-42269828D02*
X66090485Y-42869828D01*
X66090485Y-42269828D02*
X66490485Y-42869828D01*
X71719057Y-43169828D02*
X71519057Y-43769828D01*
X71319057Y-43169828D01*
X70776200Y-43712685D02*
X70804771Y-43741257D01*
X70890485Y-43769828D01*
X70947628Y-43769828D01*
X71033342Y-43741257D01*
X71090485Y-43684114D01*
X71119057Y-43626971D01*
X71147628Y-43512685D01*
X71147628Y-43426971D01*
X71119057Y-43312685D01*
X71090485Y-43255542D01*
X71033342Y-43198400D01*
X70947628Y-43169828D01*
X70890485Y-43169828D01*
X70804771Y-43198400D01*
X70776200Y-43226971D01*
X70519057Y-43769828D02*
X70519057Y-43169828D01*
X70290485Y-43169828D01*
X70233342Y-43198400D01*
X70204771Y-43226971D01*
X70176200Y-43284114D01*
X70176200Y-43369828D01*
X70204771Y-43426971D01*
X70233342Y-43455542D01*
X70290485Y-43484114D01*
X70519057Y-43484114D01*
X70061914Y-43826971D02*
X69604771Y-43826971D01*
X69547628Y-43169828D02*
X69204771Y-43169828D01*
X69376200Y-43769828D02*
X69376200Y-43169828D01*
X69061914Y-43169828D02*
X68661914Y-43769828D01*
X68661914Y-43169828D02*
X69061914Y-43769828D01*
D10*
X80261904Y-68626571D02*
X80595238Y-68626571D01*
X80595238Y-69150380D02*
X80595238Y-68150380D01*
X80119047Y-68150380D01*
X79404761Y-68626571D02*
X79738095Y-68626571D01*
X79738095Y-69150380D02*
X79738095Y-68150380D01*
X79261904Y-68150380D01*
X78357142Y-69150380D02*
X78928571Y-69150380D01*
X78642857Y-69150380D02*
X78642857Y-68150380D01*
X78738095Y-68293238D01*
X78833333Y-68388476D01*
X78928571Y-68436095D01*
X77439904Y-68626571D02*
X77773238Y-68626571D01*
X77773238Y-69150380D02*
X77773238Y-68150380D01*
X77297047Y-68150380D01*
X76582761Y-68626571D02*
X76916095Y-68626571D01*
X76916095Y-69150380D02*
X76916095Y-68150380D01*
X76439904Y-68150380D01*
X76106571Y-68245619D02*
X76058952Y-68198000D01*
X75963714Y-68150380D01*
X75725619Y-68150380D01*
X75630380Y-68198000D01*
X75582761Y-68245619D01*
X75535142Y-68340857D01*
X75535142Y-68436095D01*
X75582761Y-68578952D01*
X76154190Y-69150380D01*
X75535142Y-69150380D01*
X77361904Y-80128571D02*
X77695238Y-80128571D01*
X77695238Y-80652380D02*
X77695238Y-79652380D01*
X77219047Y-79652380D01*
X76504761Y-80128571D02*
X76838095Y-80128571D01*
X76838095Y-80652380D02*
X76838095Y-79652380D01*
X76361904Y-79652380D01*
X76028571Y-79747619D02*
X75980952Y-79700000D01*
X75885714Y-79652380D01*
X75647619Y-79652380D01*
X75552380Y-79700000D01*
X75504761Y-79747619D01*
X75457142Y-79842857D01*
X75457142Y-79938095D01*
X75504761Y-80080952D01*
X76076190Y-80652380D01*
X75457142Y-80652380D01*
X80061904Y-80128571D02*
X80395238Y-80128571D01*
X80395238Y-80652380D02*
X80395238Y-79652380D01*
X79919047Y-79652380D01*
X79204761Y-80128571D02*
X79538095Y-80128571D01*
X79538095Y-80652380D02*
X79538095Y-79652380D01*
X79061904Y-79652380D01*
X78157142Y-80652380D02*
X78728571Y-80652380D01*
X78442857Y-80652380D02*
X78442857Y-79652380D01*
X78538095Y-79795238D01*
X78633333Y-79890476D01*
X78728571Y-79938095D01*
D11*
X63373000Y-80772000D02*
X63373000Y-90000000D01*
X61468000Y-90000000D02*
X61468000Y-80772000D01*
D10*
X67547619Y-47532142D02*
X67595238Y-47579761D01*
X67738095Y-47627380D01*
X67833333Y-47627380D01*
X67976190Y-47579761D01*
X68071428Y-47484523D01*
X68119047Y-47389285D01*
X68166666Y-47198809D01*
X68166666Y-47055952D01*
X68119047Y-46865476D01*
X68071428Y-46770238D01*
X67976190Y-46675000D01*
X67833333Y-46627380D01*
X67738095Y-46627380D01*
X67595238Y-46675000D01*
X67547619Y-46722619D01*
X67166666Y-47341666D02*
X66690476Y-47341666D01*
X67261904Y-47627380D02*
X66928571Y-46627380D01*
X66595238Y-47627380D01*
X66261904Y-47627380D02*
X66261904Y-46627380D01*
X65690476Y-47627380D01*
X65690476Y-46627380D01*
X64452380Y-47627380D02*
X64452380Y-46627380D01*
X64214285Y-46627380D01*
X64071428Y-46675000D01*
X63976190Y-46770238D01*
X63928571Y-46865476D01*
X63880952Y-47055952D01*
X63880952Y-47198809D01*
X63928571Y-47389285D01*
X63976190Y-47484523D01*
X64071428Y-47579761D01*
X64214285Y-47627380D01*
X64452380Y-47627380D01*
X63023809Y-46960714D02*
X63023809Y-47627380D01*
X63452380Y-46960714D02*
X63452380Y-47484523D01*
X63404761Y-47579761D01*
X63309523Y-47627380D01*
X63166666Y-47627380D01*
X63071428Y-47579761D01*
X63023809Y-47532142D01*
X62119047Y-47627380D02*
X62119047Y-47103571D01*
X62166666Y-47008333D01*
X62261904Y-46960714D01*
X62452380Y-46960714D01*
X62547619Y-47008333D01*
X62119047Y-47579761D02*
X62214285Y-47627380D01*
X62452380Y-47627380D01*
X62547619Y-47579761D01*
X62595238Y-47484523D01*
X62595238Y-47389285D01*
X62547619Y-47294047D01*
X62452380Y-47246428D01*
X62214285Y-47246428D01*
X62119047Y-47198809D01*
X61500000Y-47627380D02*
X61595238Y-47579761D01*
X61642857Y-47484523D01*
X61642857Y-46627380D01*
X60357142Y-47627380D02*
X60357142Y-46627380D01*
X60357142Y-47103571D02*
X59785714Y-47103571D01*
X59785714Y-47627380D02*
X59785714Y-46627380D01*
X59309523Y-47246428D02*
X58547619Y-47246428D01*
X57738095Y-47103571D02*
X57595238Y-47151190D01*
X57547619Y-47198809D01*
X57500000Y-47294047D01*
X57500000Y-47436904D01*
X57547619Y-47532142D01*
X57595238Y-47579761D01*
X57690476Y-47627380D01*
X58071428Y-47627380D01*
X58071428Y-46627380D01*
X57738095Y-46627380D01*
X57642857Y-46675000D01*
X57595238Y-46722619D01*
X57547619Y-46817857D01*
X57547619Y-46913095D01*
X57595238Y-47008333D01*
X57642857Y-47055952D01*
X57738095Y-47103571D01*
X58071428Y-47103571D01*
X57071428Y-47627380D02*
X57071428Y-46960714D01*
X57071428Y-47151190D02*
X57023809Y-47055952D01*
X56976190Y-47008333D01*
X56880952Y-46960714D01*
X56785714Y-46960714D01*
X56452380Y-47627380D02*
X56452380Y-46960714D01*
X56452380Y-46627380D02*
X56500000Y-46675000D01*
X56452380Y-46722619D01*
X56404761Y-46675000D01*
X56452380Y-46627380D01*
X56452380Y-46722619D01*
X55547619Y-47627380D02*
X55547619Y-46627380D01*
X55547619Y-47579761D02*
X55642857Y-47627380D01*
X55833333Y-47627380D01*
X55928571Y-47579761D01*
X55976190Y-47532142D01*
X56023809Y-47436904D01*
X56023809Y-47151190D01*
X55976190Y-47055952D01*
X55928571Y-47008333D01*
X55833333Y-46960714D01*
X55642857Y-46960714D01*
X55547619Y-47008333D01*
X54642857Y-46960714D02*
X54642857Y-47770238D01*
X54690476Y-47865476D01*
X54738095Y-47913095D01*
X54833333Y-47960714D01*
X54976190Y-47960714D01*
X55071428Y-47913095D01*
X54642857Y-47579761D02*
X54738095Y-47627380D01*
X54928571Y-47627380D01*
X55023809Y-47579761D01*
X55071428Y-47532142D01*
X55119047Y-47436904D01*
X55119047Y-47151190D01*
X55071428Y-47055952D01*
X55023809Y-47008333D01*
X54928571Y-46960714D01*
X54738095Y-46960714D01*
X54642857Y-47008333D01*
X53785714Y-47579761D02*
X53880952Y-47627380D01*
X54071428Y-47627380D01*
X54166666Y-47579761D01*
X54214285Y-47484523D01*
X54214285Y-47103571D01*
X54166666Y-47008333D01*
X54071428Y-46960714D01*
X53880952Y-46960714D01*
X53785714Y-47008333D01*
X53738095Y-47103571D01*
X53738095Y-47198809D01*
X54214285Y-47294047D01*
X52547619Y-47627380D02*
X52547619Y-46627380D01*
X52214285Y-47341666D01*
X51880952Y-46627380D01*
X51880952Y-47627380D01*
X51404761Y-47627380D02*
X51404761Y-46627380D01*
X51166666Y-46627380D01*
X51023809Y-46675000D01*
X50928571Y-46770238D01*
X50880952Y-46865476D01*
X50833333Y-47055952D01*
X50833333Y-47198809D01*
X50880952Y-47389285D01*
X50928571Y-47484523D01*
X51023809Y-47579761D01*
X51166666Y-47627380D01*
X51404761Y-47627380D01*
X64380952Y-49277380D02*
X64380952Y-48277380D01*
X64000000Y-48277380D01*
X63904761Y-48325000D01*
X63857142Y-48372619D01*
X63809523Y-48467857D01*
X63809523Y-48610714D01*
X63857142Y-48705952D01*
X63904761Y-48753571D01*
X64000000Y-48801190D01*
X64380952Y-48801190D01*
X63380952Y-49277380D02*
X63380952Y-48610714D01*
X63380952Y-48801190D02*
X63333333Y-48705952D01*
X63285714Y-48658333D01*
X63190476Y-48610714D01*
X63095238Y-48610714D01*
X62619047Y-49277380D02*
X62714285Y-49229761D01*
X62761904Y-49182142D01*
X62809523Y-49086904D01*
X62809523Y-48801190D01*
X62761904Y-48705952D01*
X62714285Y-48658333D01*
X62619047Y-48610714D01*
X62476190Y-48610714D01*
X62380952Y-48658333D01*
X62333333Y-48705952D01*
X62285714Y-48801190D01*
X62285714Y-49086904D01*
X62333333Y-49182142D01*
X62380952Y-49229761D01*
X62476190Y-49277380D01*
X62619047Y-49277380D01*
X62000000Y-48610714D02*
X61619047Y-48610714D01*
X61857142Y-48277380D02*
X61857142Y-49134523D01*
X61809523Y-49229761D01*
X61714285Y-49277380D01*
X61619047Y-49277380D01*
X61142857Y-49277380D02*
X61238095Y-49229761D01*
X61285714Y-49182142D01*
X61333333Y-49086904D01*
X61333333Y-48801190D01*
X61285714Y-48705952D01*
X61238095Y-48658333D01*
X61142857Y-48610714D01*
X61000000Y-48610714D01*
X60904761Y-48658333D01*
X60857142Y-48705952D01*
X60809523Y-48801190D01*
X60809523Y-49086904D01*
X60857142Y-49182142D01*
X60904761Y-49229761D01*
X61000000Y-49277380D01*
X61142857Y-49277380D01*
X60523809Y-48610714D02*
X60142857Y-48610714D01*
X60380952Y-48277380D02*
X60380952Y-49134523D01*
X60333333Y-49229761D01*
X60238095Y-49277380D01*
X60142857Y-49277380D01*
X59904761Y-48610714D02*
X59666666Y-49277380D01*
X59428571Y-48610714D02*
X59666666Y-49277380D01*
X59761904Y-49515476D01*
X59809523Y-49563095D01*
X59904761Y-49610714D01*
X59047619Y-48610714D02*
X59047619Y-49610714D01*
X59047619Y-48658333D02*
X58952380Y-48610714D01*
X58761904Y-48610714D01*
X58666666Y-48658333D01*
X58619047Y-48705952D01*
X58571428Y-48801190D01*
X58571428Y-49086904D01*
X58619047Y-49182142D01*
X58666666Y-49229761D01*
X58761904Y-49277380D01*
X58952380Y-49277380D01*
X59047619Y-49229761D01*
X57761904Y-49229761D02*
X57857142Y-49277380D01*
X58047619Y-49277380D01*
X58142857Y-49229761D01*
X58190476Y-49134523D01*
X58190476Y-48753571D01*
X58142857Y-48658333D01*
X58047619Y-48610714D01*
X57857142Y-48610714D01*
X57761904Y-48658333D01*
X57714285Y-48753571D01*
X57714285Y-48848809D01*
X58190476Y-48944047D01*
X56000000Y-49277380D02*
X56571428Y-49277380D01*
X56285714Y-49277380D02*
X56285714Y-48277380D01*
X56380952Y-48420238D01*
X56476190Y-48515476D01*
X56571428Y-48563095D01*
X55571428Y-49182142D02*
X55523809Y-49229761D01*
X55571428Y-49277380D01*
X55619047Y-49229761D01*
X55571428Y-49182142D01*
X55571428Y-49277380D01*
X55190476Y-48277380D02*
X54571428Y-48277380D01*
X54904761Y-48658333D01*
X54761904Y-48658333D01*
X54666666Y-48705952D01*
X54619047Y-48753571D01*
X54571428Y-48848809D01*
X54571428Y-49086904D01*
X54619047Y-49182142D01*
X54666666Y-49229761D01*
X54761904Y-49277380D01*
X55047619Y-49277380D01*
X55142857Y-49229761D01*
X55190476Y-49182142D01*
D11*
X131500000Y-40000000D02*
X53500000Y-40000000D01*
X50000000Y-43500000D02*
X50000000Y-90000000D01*
X135000000Y-43500000D02*
X135000000Y-90000000D01*
D13*
X76985000Y-64565000D02*
X76985000Y-67050000D01*
X75615000Y-64565000D02*
X76985000Y-64565000D01*
X75615000Y-67050000D02*
X75615000Y-64565000D01*
X79985000Y-64565000D02*
X79985000Y-67050000D01*
X78615000Y-64565000D02*
X79985000Y-64565000D01*
X78615000Y-67050000D02*
X78615000Y-64565000D01*
X80585000Y-76002500D02*
X80585000Y-78487500D01*
X79215000Y-76002500D02*
X80585000Y-76002500D01*
X79215000Y-78487500D02*
X79215000Y-76002500D01*
X77685000Y-76015000D02*
X77685000Y-78500000D01*
X76315000Y-76015000D02*
X77685000Y-76015000D01*
X76315000Y-78500000D02*
X76315000Y-76015000D01*
X78690000Y-55610000D02*
X78690000Y-54350000D01*
X78690000Y-48790000D02*
X78690000Y-50050000D01*
X82450000Y-55610000D02*
X78690000Y-55610000D01*
X84700000Y-48790000D02*
X78690000Y-48790000D01*
X73710000Y-50741422D02*
X73710000Y-51258578D01*
X72290000Y-50741422D02*
X72290000Y-51258578D01*
X86690000Y-51058578D02*
X86690000Y-50541422D01*
X88110000Y-51058578D02*
X88110000Y-50541422D01*
X87740800Y-46530000D02*
X87740800Y-45200000D01*
X86410800Y-46530000D02*
X87740800Y-46530000D01*
X85140800Y-46530000D02*
X85140800Y-43870000D01*
X85140800Y-43870000D02*
X74920800Y-43870000D01*
X85140800Y-46530000D02*
X74920800Y-46530000D01*
X74920800Y-46530000D02*
X74920800Y-43870000D01*
D14*
X99000000Y-44550000D02*
X99000000Y-56703000D01*
X99000000Y-56703000D02*
X128964000Y-56700000D01*
X128964000Y-56700000D02*
X128950000Y-40950000D01*
X128960000Y-40950000D02*
X114000000Y-40968000D01*
X99000000Y-62050000D02*
X99000000Y-74203000D01*
X99000000Y-74203000D02*
X128964000Y-74200000D01*
X128964000Y-74200000D02*
X128950000Y-58450000D01*
X128960000Y-58450000D02*
X114000000Y-58468000D01*
D13*
X76649721Y-62490000D02*
X76975279Y-62490000D01*
X76649721Y-63510000D02*
X76975279Y-63510000D01*
X76824721Y-59390000D02*
X77150279Y-59390000D01*
X76824721Y-60410000D02*
X77150279Y-60410000D01*
X78790000Y-71437221D02*
X78790000Y-71762779D01*
X79810000Y-71437221D02*
X79810000Y-71762779D01*
X76490000Y-71424721D02*
X76490000Y-71750279D01*
X77510000Y-71424721D02*
X77510000Y-71750279D01*
X51590000Y-75821078D02*
X51590000Y-75303922D01*
X53010000Y-75821078D02*
X53010000Y-75303922D01*
X57575000Y-77860000D02*
X54125000Y-77860000D01*
X57575000Y-77860000D02*
X59525000Y-77860000D01*
X57575000Y-72740000D02*
X55625000Y-72740000D01*
X57575000Y-72740000D02*
X59525000Y-72740000D01*
X63808000Y-59936000D02*
X65123000Y-59936000D01*
X63808000Y-59636000D02*
X63808000Y-59936000D01*
X63508000Y-59636000D02*
X63808000Y-59636000D01*
X56588000Y-59636000D02*
X56588000Y-59936000D01*
X56888000Y-59636000D02*
X56588000Y-59636000D01*
X63808000Y-66856000D02*
X63808000Y-66556000D01*
X63508000Y-66856000D02*
X63808000Y-66856000D01*
X56588000Y-66856000D02*
X56588000Y-66556000D01*
X56888000Y-66856000D02*
X56588000Y-66856000D01*
D14*
X69139000Y-63751000D02*
X72339000Y-63751000D01*
X72339000Y-63751000D02*
X72339000Y-53851000D01*
X72339000Y-53851000D02*
X69139000Y-53851000D01*
X69139000Y-53851000D02*
X69139000Y-63751000D01*
X67289000Y-63921000D02*
X68789000Y-63921000D01*
X69139000Y-77340000D02*
X72339000Y-77340000D01*
X72339000Y-77340000D02*
X72339000Y-67440000D01*
X72339000Y-67440000D02*
X69139000Y-67440000D01*
X69139000Y-67440000D02*
X69139000Y-77340000D01*
X67289000Y-77510000D02*
X68789000Y-77510000D01*
D13*
X72203922Y-66310000D02*
X72721078Y-66310000D01*
X72203922Y-64890000D02*
X72721078Y-64890000D01*
X73003922Y-80110000D02*
X73521078Y-80110000D01*
X73003922Y-78690000D02*
X73521078Y-78690000D01*
X82721078Y-62890000D02*
X82203922Y-62890000D01*
X82721078Y-64310000D02*
X82203922Y-64310000D01*
X82721078Y-67990000D02*
X82203922Y-67990000D01*
X82721078Y-69410000D02*
X82203922Y-69410000D01*
X62028000Y-74596078D02*
X62028000Y-74078922D01*
X63448000Y-74596078D02*
X63448000Y-74078922D01*
X57154578Y-70156000D02*
X56637422Y-70156000D01*
X57154578Y-71576000D02*
X56637422Y-71576000D01*
D10*
X57161904Y-41904761D02*
X57019047Y-41952380D01*
X56780952Y-41952380D01*
X56685714Y-41904761D01*
X56638095Y-41857142D01*
X56590476Y-41761904D01*
X56590476Y-41666666D01*
X56638095Y-41571428D01*
X56685714Y-41523809D01*
X56780952Y-41476190D01*
X56971428Y-41428571D01*
X57066666Y-41380952D01*
X57114285Y-41333333D01*
X57161904Y-41238095D01*
X57161904Y-41142857D01*
X57114285Y-41047619D01*
X57066666Y-41000000D01*
X56971428Y-40952380D01*
X56733333Y-40952380D01*
X56590476Y-41000000D01*
X56209523Y-41047619D02*
X56161904Y-41000000D01*
X56066666Y-40952380D01*
X55828571Y-40952380D01*
X55733333Y-41000000D01*
X55685714Y-41047619D01*
X55638095Y-41142857D01*
X55638095Y-41238095D01*
X55685714Y-41380952D01*
X56257142Y-41952380D01*
X55638095Y-41952380D01*
X75372380Y-65511904D02*
X74372380Y-65511904D01*
X74372380Y-65750000D01*
X74420000Y-65892857D01*
X74515238Y-65988095D01*
X74610476Y-66035714D01*
X74800952Y-66083333D01*
X74943809Y-66083333D01*
X75134285Y-66035714D01*
X75229523Y-65988095D01*
X75324761Y-65892857D01*
X75372380Y-65750000D01*
X75372380Y-65511904D01*
X75372380Y-66559523D02*
X75372380Y-66750000D01*
X75324761Y-66845238D01*
X75277142Y-66892857D01*
X75134285Y-66988095D01*
X74943809Y-67035714D01*
X74562857Y-67035714D01*
X74467619Y-66988095D01*
X74420000Y-66940476D01*
X74372380Y-66845238D01*
X74372380Y-66654761D01*
X74420000Y-66559523D01*
X74467619Y-66511904D01*
X74562857Y-66464285D01*
X74800952Y-66464285D01*
X74896190Y-66511904D01*
X74943809Y-66559523D01*
X74991428Y-66654761D01*
X74991428Y-66845238D01*
X74943809Y-66940476D01*
X74896190Y-66988095D01*
X74800952Y-67035714D01*
X78372380Y-65511904D02*
X77372380Y-65511904D01*
X77372380Y-65750000D01*
X77420000Y-65892857D01*
X77515238Y-65988095D01*
X77610476Y-66035714D01*
X77800952Y-66083333D01*
X77943809Y-66083333D01*
X78134285Y-66035714D01*
X78229523Y-65988095D01*
X78324761Y-65892857D01*
X78372380Y-65750000D01*
X78372380Y-65511904D01*
X77800952Y-66654761D02*
X77753333Y-66559523D01*
X77705714Y-66511904D01*
X77610476Y-66464285D01*
X77562857Y-66464285D01*
X77467619Y-66511904D01*
X77420000Y-66559523D01*
X77372380Y-66654761D01*
X77372380Y-66845238D01*
X77420000Y-66940476D01*
X77467619Y-66988095D01*
X77562857Y-67035714D01*
X77610476Y-67035714D01*
X77705714Y-66988095D01*
X77753333Y-66940476D01*
X77800952Y-66845238D01*
X77800952Y-66654761D01*
X77848571Y-66559523D01*
X77896190Y-66511904D01*
X77991428Y-66464285D01*
X78181904Y-66464285D01*
X78277142Y-66511904D01*
X78324761Y-66559523D01*
X78372380Y-66654761D01*
X78372380Y-66845238D01*
X78324761Y-66940476D01*
X78277142Y-66988095D01*
X78181904Y-67035714D01*
X77991428Y-67035714D01*
X77896190Y-66988095D01*
X77848571Y-66940476D01*
X77800952Y-66845238D01*
X78952380Y-76949404D02*
X77952380Y-76949404D01*
X77952380Y-77187500D01*
X78000000Y-77330357D01*
X78095238Y-77425595D01*
X78190476Y-77473214D01*
X78380952Y-77520833D01*
X78523809Y-77520833D01*
X78714285Y-77473214D01*
X78809523Y-77425595D01*
X78904761Y-77330357D01*
X78952380Y-77187500D01*
X78952380Y-76949404D01*
X77952380Y-77854166D02*
X77952380Y-78520833D01*
X78952380Y-78092261D01*
X76072380Y-76961904D02*
X75072380Y-76961904D01*
X75072380Y-77200000D01*
X75120000Y-77342857D01*
X75215238Y-77438095D01*
X75310476Y-77485714D01*
X75500952Y-77533333D01*
X75643809Y-77533333D01*
X75834285Y-77485714D01*
X75929523Y-77438095D01*
X76024761Y-77342857D01*
X76072380Y-77200000D01*
X76072380Y-76961904D01*
X75072380Y-78390476D02*
X75072380Y-78200000D01*
X75120000Y-78104761D01*
X75167619Y-78057142D01*
X75310476Y-77961904D01*
X75500952Y-77914285D01*
X75881904Y-77914285D01*
X75977142Y-77961904D01*
X76024761Y-78009523D01*
X76072380Y-78104761D01*
X76072380Y-78295238D01*
X76024761Y-78390476D01*
X75977142Y-78438095D01*
X75881904Y-78485714D01*
X75643809Y-78485714D01*
X75548571Y-78438095D01*
X75500952Y-78390476D01*
X75453333Y-78295238D01*
X75453333Y-78104761D01*
X75500952Y-78009523D01*
X75548571Y-77961904D01*
X75643809Y-77914285D01*
X81361904Y-47152380D02*
X81361904Y-47961904D01*
X81314285Y-48057142D01*
X81266666Y-48104761D01*
X81171428Y-48152380D01*
X80980952Y-48152380D01*
X80885714Y-48104761D01*
X80838095Y-48057142D01*
X80790476Y-47961904D01*
X80790476Y-47152380D01*
X79885714Y-47485714D02*
X79885714Y-48152380D01*
X80123809Y-47104761D02*
X80361904Y-47819047D01*
X79742857Y-47819047D01*
X71707142Y-50357142D02*
X71754761Y-50309523D01*
X71802380Y-50166666D01*
X71802380Y-50071428D01*
X71754761Y-49928571D01*
X71659523Y-49833333D01*
X71564285Y-49785714D01*
X71373809Y-49738095D01*
X71230952Y-49738095D01*
X71040476Y-49785714D01*
X70945238Y-49833333D01*
X70850000Y-49928571D01*
X70802380Y-50071428D01*
X70802380Y-50166666D01*
X70850000Y-50309523D01*
X70897619Y-50357142D01*
X71802380Y-51309523D02*
X71802380Y-50738095D01*
X71802380Y-51023809D02*
X70802380Y-51023809D01*
X70945238Y-50928571D01*
X71040476Y-50833333D01*
X71088095Y-50738095D01*
X71230952Y-51880952D02*
X71183333Y-51785714D01*
X71135714Y-51738095D01*
X71040476Y-51690476D01*
X70992857Y-51690476D01*
X70897619Y-51738095D01*
X70850000Y-51785714D01*
X70802380Y-51880952D01*
X70802380Y-52071428D01*
X70850000Y-52166666D01*
X70897619Y-52214285D01*
X70992857Y-52261904D01*
X71040476Y-52261904D01*
X71135714Y-52214285D01*
X71183333Y-52166666D01*
X71230952Y-52071428D01*
X71230952Y-51880952D01*
X71278571Y-51785714D01*
X71326190Y-51738095D01*
X71421428Y-51690476D01*
X71611904Y-51690476D01*
X71707142Y-51738095D01*
X71754761Y-51785714D01*
X71802380Y-51880952D01*
X71802380Y-52071428D01*
X71754761Y-52166666D01*
X71707142Y-52214285D01*
X71611904Y-52261904D01*
X71421428Y-52261904D01*
X71326190Y-52214285D01*
X71278571Y-52166666D01*
X71230952Y-52071428D01*
X89407142Y-50157142D02*
X89454761Y-50109523D01*
X89502380Y-49966666D01*
X89502380Y-49871428D01*
X89454761Y-49728571D01*
X89359523Y-49633333D01*
X89264285Y-49585714D01*
X89073809Y-49538095D01*
X88930952Y-49538095D01*
X88740476Y-49585714D01*
X88645238Y-49633333D01*
X88550000Y-49728571D01*
X88502380Y-49871428D01*
X88502380Y-49966666D01*
X88550000Y-50109523D01*
X88597619Y-50157142D01*
X89502380Y-51109523D02*
X89502380Y-50538095D01*
X89502380Y-50823809D02*
X88502380Y-50823809D01*
X88645238Y-50728571D01*
X88740476Y-50633333D01*
X88788095Y-50538095D01*
X88502380Y-51442857D02*
X88502380Y-52109523D01*
X89502380Y-51680952D01*
X88193180Y-44866666D02*
X88907466Y-44866666D01*
X89050323Y-44819047D01*
X89145561Y-44723809D01*
X89193180Y-44580952D01*
X89193180Y-44485714D01*
X88193180Y-45247619D02*
X88193180Y-45866666D01*
X88574133Y-45533333D01*
X88574133Y-45676190D01*
X88621752Y-45771428D01*
X88669371Y-45819047D01*
X88764609Y-45866666D01*
X89002704Y-45866666D01*
X89097942Y-45819047D01*
X89145561Y-45771428D01*
X89193180Y-45676190D01*
X89193180Y-45390476D01*
X89145561Y-45295238D01*
X89097942Y-45247619D01*
D15*
X107304523Y-48376666D02*
X108211666Y-48376666D01*
X108393095Y-48316190D01*
X108514047Y-48195238D01*
X108574523Y-48013809D01*
X108574523Y-47892857D01*
X107727857Y-49525714D02*
X108574523Y-49525714D01*
X107244047Y-49223333D02*
X108151190Y-48920952D01*
X108151190Y-49707142D01*
X107304523Y-65876666D02*
X108211666Y-65876666D01*
X108393095Y-65816190D01*
X108514047Y-65695238D01*
X108574523Y-65513809D01*
X108574523Y-65392857D01*
X108574523Y-67146666D02*
X108574523Y-66420952D01*
X108574523Y-66783809D02*
X107304523Y-66783809D01*
X107485952Y-66662857D01*
X107606904Y-66541904D01*
X107667380Y-66420952D01*
D10*
X78142857Y-62152380D02*
X78476190Y-61676190D01*
X78714285Y-62152380D02*
X78714285Y-61152380D01*
X78333333Y-61152380D01*
X78238095Y-61200000D01*
X78190476Y-61247619D01*
X78142857Y-61342857D01*
X78142857Y-61485714D01*
X78190476Y-61580952D01*
X78238095Y-61628571D01*
X78333333Y-61676190D01*
X78714285Y-61676190D01*
X77190476Y-62152380D02*
X77761904Y-62152380D01*
X77476190Y-62152380D02*
X77476190Y-61152380D01*
X77571428Y-61295238D01*
X77666666Y-61390476D01*
X77761904Y-61438095D01*
X76238095Y-62152380D02*
X76809523Y-62152380D01*
X76523809Y-62152380D02*
X76523809Y-61152380D01*
X76619047Y-61295238D01*
X76714285Y-61390476D01*
X76809523Y-61438095D01*
X77342857Y-58952380D02*
X77676190Y-58476190D01*
X77914285Y-58952380D02*
X77914285Y-57952380D01*
X77533333Y-57952380D01*
X77438095Y-58000000D01*
X77390476Y-58047619D01*
X77342857Y-58142857D01*
X77342857Y-58285714D01*
X77390476Y-58380952D01*
X77438095Y-58428571D01*
X77533333Y-58476190D01*
X77914285Y-58476190D01*
X76390476Y-58952380D02*
X76961904Y-58952380D01*
X76676190Y-58952380D02*
X76676190Y-57952380D01*
X76771428Y-58095238D01*
X76866666Y-58190476D01*
X76961904Y-58238095D01*
X75771428Y-57952380D02*
X75676190Y-57952380D01*
X75580952Y-58000000D01*
X75533333Y-58047619D01*
X75485714Y-58142857D01*
X75438095Y-58333333D01*
X75438095Y-58571428D01*
X75485714Y-58761904D01*
X75533333Y-58857142D01*
X75580952Y-58904761D01*
X75676190Y-58952380D01*
X75771428Y-58952380D01*
X75866666Y-58904761D01*
X75914285Y-58857142D01*
X75961904Y-58761904D01*
X76009523Y-58571428D01*
X76009523Y-58333333D01*
X75961904Y-58142857D01*
X75914285Y-58047619D01*
X75866666Y-58000000D01*
X75771428Y-57952380D01*
X78702380Y-71433333D02*
X78226190Y-71100000D01*
X78702380Y-70861904D02*
X77702380Y-70861904D01*
X77702380Y-71242857D01*
X77750000Y-71338095D01*
X77797619Y-71385714D01*
X77892857Y-71433333D01*
X78035714Y-71433333D01*
X78130952Y-71385714D01*
X78178571Y-71338095D01*
X78226190Y-71242857D01*
X78226190Y-70861904D01*
X78702380Y-71909523D02*
X78702380Y-72100000D01*
X78654761Y-72195238D01*
X78607142Y-72242857D01*
X78464285Y-72338095D01*
X78273809Y-72385714D01*
X77892857Y-72385714D01*
X77797619Y-72338095D01*
X77750000Y-72290476D01*
X77702380Y-72195238D01*
X77702380Y-72004761D01*
X77750000Y-71909523D01*
X77797619Y-71861904D01*
X77892857Y-71814285D01*
X78130952Y-71814285D01*
X78226190Y-71861904D01*
X78273809Y-71909523D01*
X78321428Y-72004761D01*
X78321428Y-72195238D01*
X78273809Y-72290476D01*
X78226190Y-72338095D01*
X78130952Y-72385714D01*
X76252380Y-71420833D02*
X75776190Y-71087500D01*
X76252380Y-70849404D02*
X75252380Y-70849404D01*
X75252380Y-71230357D01*
X75300000Y-71325595D01*
X75347619Y-71373214D01*
X75442857Y-71420833D01*
X75585714Y-71420833D01*
X75680952Y-71373214D01*
X75728571Y-71325595D01*
X75776190Y-71230357D01*
X75776190Y-70849404D01*
X75680952Y-71992261D02*
X75633333Y-71897023D01*
X75585714Y-71849404D01*
X75490476Y-71801785D01*
X75442857Y-71801785D01*
X75347619Y-71849404D01*
X75300000Y-71897023D01*
X75252380Y-71992261D01*
X75252380Y-72182738D01*
X75300000Y-72277976D01*
X75347619Y-72325595D01*
X75442857Y-72373214D01*
X75490476Y-72373214D01*
X75585714Y-72325595D01*
X75633333Y-72277976D01*
X75680952Y-72182738D01*
X75680952Y-71992261D01*
X75728571Y-71897023D01*
X75776190Y-71849404D01*
X75871428Y-71801785D01*
X76061904Y-71801785D01*
X76157142Y-71849404D01*
X76204761Y-71897023D01*
X76252380Y-71992261D01*
X76252380Y-72182738D01*
X76204761Y-72277976D01*
X76157142Y-72325595D01*
X76061904Y-72373214D01*
X75871428Y-72373214D01*
X75776190Y-72325595D01*
X75728571Y-72277976D01*
X75680952Y-72182738D01*
X51057142Y-75395833D02*
X51104761Y-75348214D01*
X51152380Y-75205357D01*
X51152380Y-75110119D01*
X51104761Y-74967261D01*
X51009523Y-74872023D01*
X50914285Y-74824404D01*
X50723809Y-74776785D01*
X50580952Y-74776785D01*
X50390476Y-74824404D01*
X50295238Y-74872023D01*
X50200000Y-74967261D01*
X50152380Y-75110119D01*
X50152380Y-75205357D01*
X50200000Y-75348214D01*
X50247619Y-75395833D01*
X50152380Y-76300595D02*
X50152380Y-75824404D01*
X50628571Y-75776785D01*
X50580952Y-75824404D01*
X50533333Y-75919642D01*
X50533333Y-76157738D01*
X50580952Y-76252976D01*
X50628571Y-76300595D01*
X50723809Y-76348214D01*
X50961904Y-76348214D01*
X51057142Y-76300595D01*
X51104761Y-76252976D01*
X51152380Y-76157738D01*
X51152380Y-75919642D01*
X51104761Y-75824404D01*
X51057142Y-75776785D01*
X58336904Y-78152380D02*
X58336904Y-78961904D01*
X58289285Y-79057142D01*
X58241666Y-79104761D01*
X58146428Y-79152380D01*
X57955952Y-79152380D01*
X57860714Y-79104761D01*
X57813095Y-79057142D01*
X57765476Y-78961904D01*
X57765476Y-78152380D01*
X57384523Y-78152380D02*
X56765476Y-78152380D01*
X57098809Y-78533333D01*
X56955952Y-78533333D01*
X56860714Y-78580952D01*
X56813095Y-78628571D01*
X56765476Y-78723809D01*
X56765476Y-78961904D01*
X56813095Y-79057142D01*
X56860714Y-79104761D01*
X56955952Y-79152380D01*
X57241666Y-79152380D01*
X57336904Y-79104761D01*
X57384523Y-79057142D01*
X60959904Y-56818380D02*
X60959904Y-57627904D01*
X60912285Y-57723142D01*
X60864666Y-57770761D01*
X60769428Y-57818380D01*
X60578952Y-57818380D01*
X60483714Y-57770761D01*
X60436095Y-57723142D01*
X60388476Y-57627904D01*
X60388476Y-56818380D01*
X59959904Y-56913619D02*
X59912285Y-56866000D01*
X59817047Y-56818380D01*
X59578952Y-56818380D01*
X59483714Y-56866000D01*
X59436095Y-56913619D01*
X59388476Y-57008857D01*
X59388476Y-57104095D01*
X59436095Y-57246952D01*
X60007523Y-57818380D01*
X59388476Y-57818380D01*
D15*
X71978761Y-59375523D02*
X71978761Y-58105523D01*
X70648285Y-59254571D02*
X70708761Y-59315047D01*
X70890190Y-59375523D01*
X71011142Y-59375523D01*
X71192571Y-59315047D01*
X71313523Y-59194095D01*
X71374000Y-59073142D01*
X71434476Y-58831238D01*
X71434476Y-58649809D01*
X71374000Y-58407904D01*
X71313523Y-58286952D01*
X71192571Y-58166000D01*
X71011142Y-58105523D01*
X70890190Y-58105523D01*
X70708761Y-58166000D01*
X70648285Y-58226476D01*
X70224952Y-58105523D02*
X69438761Y-58105523D01*
X69862095Y-58589333D01*
X69680666Y-58589333D01*
X69559714Y-58649809D01*
X69499238Y-58710285D01*
X69438761Y-58831238D01*
X69438761Y-59133619D01*
X69499238Y-59254571D01*
X69559714Y-59315047D01*
X69680666Y-59375523D01*
X70043523Y-59375523D01*
X70164476Y-59315047D01*
X70224952Y-59254571D01*
X71978761Y-72964523D02*
X71978761Y-71694523D01*
X70648285Y-72843571D02*
X70708761Y-72904047D01*
X70890190Y-72964523D01*
X71011142Y-72964523D01*
X71192571Y-72904047D01*
X71313523Y-72783095D01*
X71374000Y-72662142D01*
X71434476Y-72420238D01*
X71434476Y-72238809D01*
X71374000Y-71996904D01*
X71313523Y-71875952D01*
X71192571Y-71755000D01*
X71011142Y-71694523D01*
X70890190Y-71694523D01*
X70708761Y-71755000D01*
X70648285Y-71815476D01*
X69438761Y-72964523D02*
X70164476Y-72964523D01*
X69801619Y-72964523D02*
X69801619Y-71694523D01*
X69922571Y-71875952D01*
X70043523Y-71996904D01*
X70164476Y-72057380D01*
D10*
X73105357Y-67257142D02*
X73152976Y-67304761D01*
X73295833Y-67352380D01*
X73391071Y-67352380D01*
X73533928Y-67304761D01*
X73629166Y-67209523D01*
X73676785Y-67114285D01*
X73724404Y-66923809D01*
X73724404Y-66780952D01*
X73676785Y-66590476D01*
X73629166Y-66495238D01*
X73533928Y-66400000D01*
X73391071Y-66352380D01*
X73295833Y-66352380D01*
X73152976Y-66400000D01*
X73105357Y-66447619D01*
X72724404Y-66447619D02*
X72676785Y-66400000D01*
X72581547Y-66352380D01*
X72343452Y-66352380D01*
X72248214Y-66400000D01*
X72200595Y-66447619D01*
X72152976Y-66542857D01*
X72152976Y-66638095D01*
X72200595Y-66780952D01*
X72772023Y-67352380D01*
X72152976Y-67352380D01*
X71533928Y-66352380D02*
X71438690Y-66352380D01*
X71343452Y-66400000D01*
X71295833Y-66447619D01*
X71248214Y-66542857D01*
X71200595Y-66733333D01*
X71200595Y-66971428D01*
X71248214Y-67161904D01*
X71295833Y-67257142D01*
X71343452Y-67304761D01*
X71438690Y-67352380D01*
X71533928Y-67352380D01*
X71629166Y-67304761D01*
X71676785Y-67257142D01*
X71724404Y-67161904D01*
X71772023Y-66971428D01*
X71772023Y-66733333D01*
X71724404Y-66542857D01*
X71676785Y-66447619D01*
X71629166Y-66400000D01*
X71533928Y-66352380D01*
X73905357Y-78151142D02*
X73952976Y-78198761D01*
X74095833Y-78246380D01*
X74191071Y-78246380D01*
X74333928Y-78198761D01*
X74429166Y-78103523D01*
X74476785Y-78008285D01*
X74524404Y-77817809D01*
X74524404Y-77674952D01*
X74476785Y-77484476D01*
X74429166Y-77389238D01*
X74333928Y-77294000D01*
X74191071Y-77246380D01*
X74095833Y-77246380D01*
X73952976Y-77294000D01*
X73905357Y-77341619D01*
X72952976Y-78246380D02*
X73524404Y-78246380D01*
X73238690Y-78246380D02*
X73238690Y-77246380D01*
X73333928Y-77389238D01*
X73429166Y-77484476D01*
X73524404Y-77532095D01*
X72000595Y-78246380D02*
X72572023Y-78246380D01*
X72286309Y-78246380D02*
X72286309Y-77246380D01*
X72381547Y-77389238D01*
X72476785Y-77484476D01*
X72572023Y-77532095D01*
X83105357Y-62307142D02*
X83152976Y-62354761D01*
X83295833Y-62402380D01*
X83391071Y-62402380D01*
X83533928Y-62354761D01*
X83629166Y-62259523D01*
X83676785Y-62164285D01*
X83724404Y-61973809D01*
X83724404Y-61830952D01*
X83676785Y-61640476D01*
X83629166Y-61545238D01*
X83533928Y-61450000D01*
X83391071Y-61402380D01*
X83295833Y-61402380D01*
X83152976Y-61450000D01*
X83105357Y-61497619D01*
X82152976Y-62402380D02*
X82724404Y-62402380D01*
X82438690Y-62402380D02*
X82438690Y-61402380D01*
X82533928Y-61545238D01*
X82629166Y-61640476D01*
X82724404Y-61688095D01*
X81772023Y-61497619D02*
X81724404Y-61450000D01*
X81629166Y-61402380D01*
X81391071Y-61402380D01*
X81295833Y-61450000D01*
X81248214Y-61497619D01*
X81200595Y-61592857D01*
X81200595Y-61688095D01*
X81248214Y-61830952D01*
X81819642Y-62402380D01*
X81200595Y-62402380D01*
X82629166Y-67407142D02*
X82676785Y-67454761D01*
X82819642Y-67502380D01*
X82914880Y-67502380D01*
X83057738Y-67454761D01*
X83152976Y-67359523D01*
X83200595Y-67264285D01*
X83248214Y-67073809D01*
X83248214Y-66930952D01*
X83200595Y-66740476D01*
X83152976Y-66645238D01*
X83057738Y-66550000D01*
X82914880Y-66502380D01*
X82819642Y-66502380D01*
X82676785Y-66550000D01*
X82629166Y-66597619D01*
X81772023Y-66502380D02*
X81962500Y-66502380D01*
X82057738Y-66550000D01*
X82105357Y-66597619D01*
X82200595Y-66740476D01*
X82248214Y-66930952D01*
X82248214Y-67311904D01*
X82200595Y-67407142D01*
X82152976Y-67454761D01*
X82057738Y-67502380D01*
X81867261Y-67502380D01*
X81772023Y-67454761D01*
X81724404Y-67407142D01*
X81676785Y-67311904D01*
X81676785Y-67073809D01*
X81724404Y-66978571D01*
X81772023Y-66930952D01*
X81867261Y-66883333D01*
X82057738Y-66883333D01*
X82152976Y-66930952D01*
X82200595Y-66978571D01*
X82248214Y-67073809D01*
X64745142Y-74170833D02*
X64792761Y-74123214D01*
X64840380Y-73980357D01*
X64840380Y-73885119D01*
X64792761Y-73742261D01*
X64697523Y-73647023D01*
X64602285Y-73599404D01*
X64411809Y-73551785D01*
X64268952Y-73551785D01*
X64078476Y-73599404D01*
X63983238Y-73647023D01*
X63888000Y-73742261D01*
X63840380Y-73885119D01*
X63840380Y-73980357D01*
X63888000Y-74123214D01*
X63935619Y-74170833D01*
X64173714Y-75027976D02*
X64840380Y-75027976D01*
X63792761Y-74789880D02*
X64507047Y-74551785D01*
X64507047Y-75170833D01*
X57062666Y-69573142D02*
X57110285Y-69620761D01*
X57253142Y-69668380D01*
X57348380Y-69668380D01*
X57491238Y-69620761D01*
X57586476Y-69525523D01*
X57634095Y-69430285D01*
X57681714Y-69239809D01*
X57681714Y-69096952D01*
X57634095Y-68906476D01*
X57586476Y-68811238D01*
X57491238Y-68716000D01*
X57348380Y-68668380D01*
X57253142Y-68668380D01*
X57110285Y-68716000D01*
X57062666Y-68763619D01*
X56729333Y-68668380D02*
X56110285Y-68668380D01*
X56443619Y-69049333D01*
X56300761Y-69049333D01*
X56205523Y-69096952D01*
X56157904Y-69144571D01*
X56110285Y-69239809D01*
X56110285Y-69477904D01*
X56157904Y-69573142D01*
X56205523Y-69620761D01*
X56300761Y-69668380D01*
X56586476Y-69668380D01*
X56681714Y-69620761D01*
X56729333Y-69573142D01*
%LPC*%
D16*
X60200000Y-43480000D03*
X52580000Y-51100000D03*
X57660000Y-43480000D03*
X55120000Y-51100000D03*
X55120000Y-43480000D03*
X57660000Y-51100000D03*
X52580000Y-43480000D03*
D17*
X60200000Y-51100000D03*
D18*
X107080000Y-79000000D03*
D19*
X102000000Y-79000000D03*
D12*
G36*
X76561328Y-66400146D02*
G01*
X76584431Y-66403573D01*
X76607088Y-66409248D01*
X76629079Y-66417117D01*
X76650192Y-66427103D01*
X76670226Y-66439110D01*
X76688986Y-66453024D01*
X76706291Y-66468709D01*
X76721976Y-66486014D01*
X76735890Y-66504774D01*
X76747897Y-66524808D01*
X76757883Y-66545921D01*
X76765752Y-66567912D01*
X76771427Y-66590569D01*
X76774854Y-66613672D01*
X76776000Y-66637000D01*
X76776000Y-67488000D01*
X76774854Y-67511328D01*
X76771427Y-67534431D01*
X76765752Y-67557088D01*
X76757883Y-67579079D01*
X76747897Y-67600192D01*
X76735890Y-67620226D01*
X76721976Y-67638986D01*
X76706291Y-67656291D01*
X76688986Y-67671976D01*
X76670226Y-67685890D01*
X76650192Y-67697897D01*
X76629079Y-67707883D01*
X76607088Y-67715752D01*
X76584431Y-67721427D01*
X76561328Y-67724854D01*
X76538000Y-67726000D01*
X76062000Y-67726000D01*
X76038672Y-67724854D01*
X76015569Y-67721427D01*
X75992912Y-67715752D01*
X75970921Y-67707883D01*
X75949808Y-67697897D01*
X75929774Y-67685890D01*
X75911014Y-67671976D01*
X75893709Y-67656291D01*
X75878024Y-67638986D01*
X75864110Y-67620226D01*
X75852103Y-67600192D01*
X75842117Y-67579079D01*
X75834248Y-67557088D01*
X75828573Y-67534431D01*
X75825146Y-67511328D01*
X75824000Y-67488000D01*
X75824000Y-66637000D01*
X75825146Y-66613672D01*
X75828573Y-66590569D01*
X75834248Y-66567912D01*
X75842117Y-66545921D01*
X75852103Y-66524808D01*
X75864110Y-66504774D01*
X75878024Y-66486014D01*
X75893709Y-66468709D01*
X75911014Y-66453024D01*
X75929774Y-66439110D01*
X75949808Y-66427103D01*
X75970921Y-66417117D01*
X75992912Y-66409248D01*
X76015569Y-66403573D01*
X76038672Y-66400146D01*
X76062000Y-66399000D01*
X76538000Y-66399000D01*
X76561328Y-66400146D01*
G37*
G36*
X76561328Y-64775146D02*
G01*
X76584431Y-64778573D01*
X76607088Y-64784248D01*
X76629079Y-64792117D01*
X76650192Y-64802103D01*
X76670226Y-64814110D01*
X76688986Y-64828024D01*
X76706291Y-64843709D01*
X76721976Y-64861014D01*
X76735890Y-64879774D01*
X76747897Y-64899808D01*
X76757883Y-64920921D01*
X76765752Y-64942912D01*
X76771427Y-64965569D01*
X76774854Y-64988672D01*
X76776000Y-65012000D01*
X76776000Y-65863000D01*
X76774854Y-65886328D01*
X76771427Y-65909431D01*
X76765752Y-65932088D01*
X76757883Y-65954079D01*
X76747897Y-65975192D01*
X76735890Y-65995226D01*
X76721976Y-66013986D01*
X76706291Y-66031291D01*
X76688986Y-66046976D01*
X76670226Y-66060890D01*
X76650192Y-66072897D01*
X76629079Y-66082883D01*
X76607088Y-66090752D01*
X76584431Y-66096427D01*
X76561328Y-66099854D01*
X76538000Y-66101000D01*
X76062000Y-66101000D01*
X76038672Y-66099854D01*
X76015569Y-66096427D01*
X75992912Y-66090752D01*
X75970921Y-66082883D01*
X75949808Y-66072897D01*
X75929774Y-66060890D01*
X75911014Y-66046976D01*
X75893709Y-66031291D01*
X75878024Y-66013986D01*
X75864110Y-65995226D01*
X75852103Y-65975192D01*
X75842117Y-65954079D01*
X75834248Y-65932088D01*
X75828573Y-65909431D01*
X75825146Y-65886328D01*
X75824000Y-65863000D01*
X75824000Y-65012000D01*
X75825146Y-64988672D01*
X75828573Y-64965569D01*
X75834248Y-64942912D01*
X75842117Y-64920921D01*
X75852103Y-64899808D01*
X75864110Y-64879774D01*
X75878024Y-64861014D01*
X75893709Y-64843709D01*
X75911014Y-64828024D01*
X75929774Y-64814110D01*
X75949808Y-64802103D01*
X75970921Y-64792117D01*
X75992912Y-64784248D01*
X76015569Y-64778573D01*
X76038672Y-64775146D01*
X76062000Y-64774000D01*
X76538000Y-64774000D01*
X76561328Y-64775146D01*
G37*
G36*
X79561328Y-66400146D02*
G01*
X79584431Y-66403573D01*
X79607088Y-66409248D01*
X79629079Y-66417117D01*
X79650192Y-66427103D01*
X79670226Y-66439110D01*
X79688986Y-66453024D01*
X79706291Y-66468709D01*
X79721976Y-66486014D01*
X79735890Y-66504774D01*
X79747897Y-66524808D01*
X79757883Y-66545921D01*
X79765752Y-66567912D01*
X79771427Y-66590569D01*
X79774854Y-66613672D01*
X79776000Y-66637000D01*
X79776000Y-67488000D01*
X79774854Y-67511328D01*
X79771427Y-67534431D01*
X79765752Y-67557088D01*
X79757883Y-67579079D01*
X79747897Y-67600192D01*
X79735890Y-67620226D01*
X79721976Y-67638986D01*
X79706291Y-67656291D01*
X79688986Y-67671976D01*
X79670226Y-67685890D01*
X79650192Y-67697897D01*
X79629079Y-67707883D01*
X79607088Y-67715752D01*
X79584431Y-67721427D01*
X79561328Y-67724854D01*
X79538000Y-67726000D01*
X79062000Y-67726000D01*
X79038672Y-67724854D01*
X79015569Y-67721427D01*
X78992912Y-67715752D01*
X78970921Y-67707883D01*
X78949808Y-67697897D01*
X78929774Y-67685890D01*
X78911014Y-67671976D01*
X78893709Y-67656291D01*
X78878024Y-67638986D01*
X78864110Y-67620226D01*
X78852103Y-67600192D01*
X78842117Y-67579079D01*
X78834248Y-67557088D01*
X78828573Y-67534431D01*
X78825146Y-67511328D01*
X78824000Y-67488000D01*
X78824000Y-66637000D01*
X78825146Y-66613672D01*
X78828573Y-66590569D01*
X78834248Y-66567912D01*
X78842117Y-66545921D01*
X78852103Y-66524808D01*
X78864110Y-66504774D01*
X78878024Y-66486014D01*
X78893709Y-66468709D01*
X78911014Y-66453024D01*
X78929774Y-66439110D01*
X78949808Y-66427103D01*
X78970921Y-66417117D01*
X78992912Y-66409248D01*
X79015569Y-66403573D01*
X79038672Y-66400146D01*
X79062000Y-66399000D01*
X79538000Y-66399000D01*
X79561328Y-66400146D01*
G37*
G36*
X79561328Y-64775146D02*
G01*
X79584431Y-64778573D01*
X79607088Y-64784248D01*
X79629079Y-64792117D01*
X79650192Y-64802103D01*
X79670226Y-64814110D01*
X79688986Y-64828024D01*
X79706291Y-64843709D01*
X79721976Y-64861014D01*
X79735890Y-64879774D01*
X79747897Y-64899808D01*
X79757883Y-64920921D01*
X79765752Y-64942912D01*
X79771427Y-64965569D01*
X79774854Y-64988672D01*
X79776000Y-65012000D01*
X79776000Y-65863000D01*
X79774854Y-65886328D01*
X79771427Y-65909431D01*
X79765752Y-65932088D01*
X79757883Y-65954079D01*
X79747897Y-65975192D01*
X79735890Y-65995226D01*
X79721976Y-66013986D01*
X79706291Y-66031291D01*
X79688986Y-66046976D01*
X79670226Y-66060890D01*
X79650192Y-66072897D01*
X79629079Y-66082883D01*
X79607088Y-66090752D01*
X79584431Y-66096427D01*
X79561328Y-66099854D01*
X79538000Y-66101000D01*
X79062000Y-66101000D01*
X79038672Y-66099854D01*
X79015569Y-66096427D01*
X78992912Y-66090752D01*
X78970921Y-66082883D01*
X78949808Y-66072897D01*
X78929774Y-66060890D01*
X78911014Y-66046976D01*
X78893709Y-66031291D01*
X78878024Y-66013986D01*
X78864110Y-65995226D01*
X78852103Y-65975192D01*
X78842117Y-65954079D01*
X78834248Y-65932088D01*
X78828573Y-65909431D01*
X78825146Y-65886328D01*
X78824000Y-65863000D01*
X78824000Y-65012000D01*
X78825146Y-64988672D01*
X78828573Y-64965569D01*
X78834248Y-64942912D01*
X78842117Y-64920921D01*
X78852103Y-64899808D01*
X78864110Y-64879774D01*
X78878024Y-64861014D01*
X78893709Y-64843709D01*
X78911014Y-64828024D01*
X78929774Y-64814110D01*
X78949808Y-64802103D01*
X78970921Y-64792117D01*
X78992912Y-64784248D01*
X79015569Y-64778573D01*
X79038672Y-64775146D01*
X79062000Y-64774000D01*
X79538000Y-64774000D01*
X79561328Y-64775146D01*
G37*
G36*
X80161328Y-77837646D02*
G01*
X80184431Y-77841073D01*
X80207088Y-77846748D01*
X80229079Y-77854617D01*
X80250192Y-77864603D01*
X80270226Y-77876610D01*
X80288986Y-77890524D01*
X80306291Y-77906209D01*
X80321976Y-77923514D01*
X80335890Y-77942274D01*
X80347897Y-77962308D01*
X80357883Y-77983421D01*
X80365752Y-78005412D01*
X80371427Y-78028069D01*
X80374854Y-78051172D01*
X80376000Y-78074500D01*
X80376000Y-78925500D01*
X80374854Y-78948828D01*
X80371427Y-78971931D01*
X80365752Y-78994588D01*
X80357883Y-79016579D01*
X80347897Y-79037692D01*
X80335890Y-79057726D01*
X80321976Y-79076486D01*
X80306291Y-79093791D01*
X80288986Y-79109476D01*
X80270226Y-79123390D01*
X80250192Y-79135397D01*
X80229079Y-79145383D01*
X80207088Y-79153252D01*
X80184431Y-79158927D01*
X80161328Y-79162354D01*
X80138000Y-79163500D01*
X79662000Y-79163500D01*
X79638672Y-79162354D01*
X79615569Y-79158927D01*
X79592912Y-79153252D01*
X79570921Y-79145383D01*
X79549808Y-79135397D01*
X79529774Y-79123390D01*
X79511014Y-79109476D01*
X79493709Y-79093791D01*
X79478024Y-79076486D01*
X79464110Y-79057726D01*
X79452103Y-79037692D01*
X79442117Y-79016579D01*
X79434248Y-78994588D01*
X79428573Y-78971931D01*
X79425146Y-78948828D01*
X79424000Y-78925500D01*
X79424000Y-78074500D01*
X79425146Y-78051172D01*
X79428573Y-78028069D01*
X79434248Y-78005412D01*
X79442117Y-77983421D01*
X79452103Y-77962308D01*
X79464110Y-77942274D01*
X79478024Y-77923514D01*
X79493709Y-77906209D01*
X79511014Y-77890524D01*
X79529774Y-77876610D01*
X79549808Y-77864603D01*
X79570921Y-77854617D01*
X79592912Y-77846748D01*
X79615569Y-77841073D01*
X79638672Y-77837646D01*
X79662000Y-77836500D01*
X80138000Y-77836500D01*
X80161328Y-77837646D01*
G37*
G36*
X80161328Y-76212646D02*
G01*
X80184431Y-76216073D01*
X80207088Y-76221748D01*
X80229079Y-76229617D01*
X80250192Y-76239603D01*
X80270226Y-76251610D01*
X80288986Y-76265524D01*
X80306291Y-76281209D01*
X80321976Y-76298514D01*
X80335890Y-76317274D01*
X80347897Y-76337308D01*
X80357883Y-76358421D01*
X80365752Y-76380412D01*
X80371427Y-76403069D01*
X80374854Y-76426172D01*
X80376000Y-76449500D01*
X80376000Y-77300500D01*
X80374854Y-77323828D01*
X80371427Y-77346931D01*
X80365752Y-77369588D01*
X80357883Y-77391579D01*
X80347897Y-77412692D01*
X80335890Y-77432726D01*
X80321976Y-77451486D01*
X80306291Y-77468791D01*
X80288986Y-77484476D01*
X80270226Y-77498390D01*
X80250192Y-77510397D01*
X80229079Y-77520383D01*
X80207088Y-77528252D01*
X80184431Y-77533927D01*
X80161328Y-77537354D01*
X80138000Y-77538500D01*
X79662000Y-77538500D01*
X79638672Y-77537354D01*
X79615569Y-77533927D01*
X79592912Y-77528252D01*
X79570921Y-77520383D01*
X79549808Y-77510397D01*
X79529774Y-77498390D01*
X79511014Y-77484476D01*
X79493709Y-77468791D01*
X79478024Y-77451486D01*
X79464110Y-77432726D01*
X79452103Y-77412692D01*
X79442117Y-77391579D01*
X79434248Y-77369588D01*
X79428573Y-77346931D01*
X79425146Y-77323828D01*
X79424000Y-77300500D01*
X79424000Y-76449500D01*
X79425146Y-76426172D01*
X79428573Y-76403069D01*
X79434248Y-76380412D01*
X79442117Y-76358421D01*
X79452103Y-76337308D01*
X79464110Y-76317274D01*
X79478024Y-76298514D01*
X79493709Y-76281209D01*
X79511014Y-76265524D01*
X79529774Y-76251610D01*
X79549808Y-76239603D01*
X79570921Y-76229617D01*
X79592912Y-76221748D01*
X79615569Y-76216073D01*
X79638672Y-76212646D01*
X79662000Y-76211500D01*
X80138000Y-76211500D01*
X80161328Y-76212646D01*
G37*
G36*
X77261328Y-77850146D02*
G01*
X77284431Y-77853573D01*
X77307088Y-77859248D01*
X77329079Y-77867117D01*
X77350192Y-77877103D01*
X77370226Y-77889110D01*
X77388986Y-77903024D01*
X77406291Y-77918709D01*
X77421976Y-77936014D01*
X77435890Y-77954774D01*
X77447897Y-77974808D01*
X77457883Y-77995921D01*
X77465752Y-78017912D01*
X77471427Y-78040569D01*
X77474854Y-78063672D01*
X77476000Y-78087000D01*
X77476000Y-78938000D01*
X77474854Y-78961328D01*
X77471427Y-78984431D01*
X77465752Y-79007088D01*
X77457883Y-79029079D01*
X77447897Y-79050192D01*
X77435890Y-79070226D01*
X77421976Y-79088986D01*
X77406291Y-79106291D01*
X77388986Y-79121976D01*
X77370226Y-79135890D01*
X77350192Y-79147897D01*
X77329079Y-79157883D01*
X77307088Y-79165752D01*
X77284431Y-79171427D01*
X77261328Y-79174854D01*
X77238000Y-79176000D01*
X76762000Y-79176000D01*
X76738672Y-79174854D01*
X76715569Y-79171427D01*
X76692912Y-79165752D01*
X76670921Y-79157883D01*
X76649808Y-79147897D01*
X76629774Y-79135890D01*
X76611014Y-79121976D01*
X76593709Y-79106291D01*
X76578024Y-79088986D01*
X76564110Y-79070226D01*
X76552103Y-79050192D01*
X76542117Y-79029079D01*
X76534248Y-79007088D01*
X76528573Y-78984431D01*
X76525146Y-78961328D01*
X76524000Y-78938000D01*
X76524000Y-78087000D01*
X76525146Y-78063672D01*
X76528573Y-78040569D01*
X76534248Y-78017912D01*
X76542117Y-77995921D01*
X76552103Y-77974808D01*
X76564110Y-77954774D01*
X76578024Y-77936014D01*
X76593709Y-77918709D01*
X76611014Y-77903024D01*
X76629774Y-77889110D01*
X76649808Y-77877103D01*
X76670921Y-77867117D01*
X76692912Y-77859248D01*
X76715569Y-77853573D01*
X76738672Y-77850146D01*
X76762000Y-77849000D01*
X77238000Y-77849000D01*
X77261328Y-77850146D01*
G37*
G36*
X77261328Y-76225146D02*
G01*
X77284431Y-76228573D01*
X77307088Y-76234248D01*
X77329079Y-76242117D01*
X77350192Y-76252103D01*
X77370226Y-76264110D01*
X77388986Y-76278024D01*
X77406291Y-76293709D01*
X77421976Y-76311014D01*
X77435890Y-76329774D01*
X77447897Y-76349808D01*
X77457883Y-76370921D01*
X77465752Y-76392912D01*
X77471427Y-76415569D01*
X77474854Y-76438672D01*
X77476000Y-76462000D01*
X77476000Y-77313000D01*
X77474854Y-77336328D01*
X77471427Y-77359431D01*
X77465752Y-77382088D01*
X77457883Y-77404079D01*
X77447897Y-77425192D01*
X77435890Y-77445226D01*
X77421976Y-77463986D01*
X77406291Y-77481291D01*
X77388986Y-77496976D01*
X77370226Y-77510890D01*
X77350192Y-77522897D01*
X77329079Y-77532883D01*
X77307088Y-77540752D01*
X77284431Y-77546427D01*
X77261328Y-77549854D01*
X77238000Y-77551000D01*
X76762000Y-77551000D01*
X76738672Y-77549854D01*
X76715569Y-77546427D01*
X76692912Y-77540752D01*
X76670921Y-77532883D01*
X76649808Y-77522897D01*
X76629774Y-77510890D01*
X76611014Y-77496976D01*
X76593709Y-77481291D01*
X76578024Y-77463986D01*
X76564110Y-77445226D01*
X76552103Y-77425192D01*
X76542117Y-77404079D01*
X76534248Y-77382088D01*
X76528573Y-77359431D01*
X76525146Y-77336328D01*
X76524000Y-77313000D01*
X76524000Y-76462000D01*
X76525146Y-76438672D01*
X76528573Y-76415569D01*
X76534248Y-76392912D01*
X76542117Y-76370921D01*
X76552103Y-76349808D01*
X76564110Y-76329774D01*
X76578024Y-76311014D01*
X76593709Y-76293709D01*
X76611014Y-76278024D01*
X76629774Y-76264110D01*
X76649808Y-76252103D01*
X76670921Y-76242117D01*
X76692912Y-76234248D01*
X76715569Y-76228573D01*
X76738672Y-76225146D01*
X76762000Y-76224000D01*
X77238000Y-76224000D01*
X77261328Y-76225146D01*
G37*
D20*
X77450000Y-52200000D03*
D21*
X83750000Y-52200000D03*
X83750000Y-54500000D03*
X83750000Y-49900000D03*
D12*
G36*
X73508141Y-51400297D02*
G01*
X73534278Y-51404174D01*
X73559909Y-51410594D01*
X73584788Y-51419495D01*
X73608674Y-51430793D01*
X73631337Y-51444377D01*
X73652560Y-51460117D01*
X73672139Y-51477861D01*
X73689883Y-51497440D01*
X73705623Y-51518663D01*
X73719207Y-51541326D01*
X73730505Y-51565212D01*
X73739406Y-51590091D01*
X73745826Y-51615722D01*
X73749703Y-51641859D01*
X73751000Y-51668250D01*
X73751000Y-52206750D01*
X73749703Y-52233141D01*
X73745826Y-52259278D01*
X73739406Y-52284909D01*
X73730505Y-52309788D01*
X73719207Y-52333674D01*
X73705623Y-52356337D01*
X73689883Y-52377560D01*
X73672139Y-52397139D01*
X73652560Y-52414883D01*
X73631337Y-52430623D01*
X73608674Y-52444207D01*
X73584788Y-52455505D01*
X73559909Y-52464406D01*
X73534278Y-52470826D01*
X73508141Y-52474703D01*
X73481750Y-52476000D01*
X72518250Y-52476000D01*
X72491859Y-52474703D01*
X72465722Y-52470826D01*
X72440091Y-52464406D01*
X72415212Y-52455505D01*
X72391326Y-52444207D01*
X72368663Y-52430623D01*
X72347440Y-52414883D01*
X72327861Y-52397139D01*
X72310117Y-52377560D01*
X72294377Y-52356337D01*
X72280793Y-52333674D01*
X72269495Y-52309788D01*
X72260594Y-52284909D01*
X72254174Y-52259278D01*
X72250297Y-52233141D01*
X72249000Y-52206750D01*
X72249000Y-51668250D01*
X72250297Y-51641859D01*
X72254174Y-51615722D01*
X72260594Y-51590091D01*
X72269495Y-51565212D01*
X72280793Y-51541326D01*
X72294377Y-51518663D01*
X72310117Y-51497440D01*
X72327861Y-51477861D01*
X72347440Y-51460117D01*
X72368663Y-51444377D01*
X72391326Y-51430793D01*
X72415212Y-51419495D01*
X72440091Y-51410594D01*
X72465722Y-51404174D01*
X72491859Y-51400297D01*
X72518250Y-51399000D01*
X73481750Y-51399000D01*
X73508141Y-51400297D01*
G37*
G36*
X73508141Y-49525297D02*
G01*
X73534278Y-49529174D01*
X73559909Y-49535594D01*
X73584788Y-49544495D01*
X73608674Y-49555793D01*
X73631337Y-49569377D01*
X73652560Y-49585117D01*
X73672139Y-49602861D01*
X73689883Y-49622440D01*
X73705623Y-49643663D01*
X73719207Y-49666326D01*
X73730505Y-49690212D01*
X73739406Y-49715091D01*
X73745826Y-49740722D01*
X73749703Y-49766859D01*
X73751000Y-49793250D01*
X73751000Y-50331750D01*
X73749703Y-50358141D01*
X73745826Y-50384278D01*
X73739406Y-50409909D01*
X73730505Y-50434788D01*
X73719207Y-50458674D01*
X73705623Y-50481337D01*
X73689883Y-50502560D01*
X73672139Y-50522139D01*
X73652560Y-50539883D01*
X73631337Y-50555623D01*
X73608674Y-50569207D01*
X73584788Y-50580505D01*
X73559909Y-50589406D01*
X73534278Y-50595826D01*
X73508141Y-50599703D01*
X73481750Y-50601000D01*
X72518250Y-50601000D01*
X72491859Y-50599703D01*
X72465722Y-50595826D01*
X72440091Y-50589406D01*
X72415212Y-50580505D01*
X72391326Y-50569207D01*
X72368663Y-50555623D01*
X72347440Y-50539883D01*
X72327861Y-50522139D01*
X72310117Y-50502560D01*
X72294377Y-50481337D01*
X72280793Y-50458674D01*
X72269495Y-50434788D01*
X72260594Y-50409909D01*
X72254174Y-50384278D01*
X72250297Y-50358141D01*
X72249000Y-50331750D01*
X72249000Y-49793250D01*
X72250297Y-49766859D01*
X72254174Y-49740722D01*
X72260594Y-49715091D01*
X72269495Y-49690212D01*
X72280793Y-49666326D01*
X72294377Y-49643663D01*
X72310117Y-49622440D01*
X72327861Y-49602861D01*
X72347440Y-49585117D01*
X72368663Y-49569377D01*
X72391326Y-49555793D01*
X72415212Y-49544495D01*
X72440091Y-49535594D01*
X72465722Y-49529174D01*
X72491859Y-49525297D01*
X72518250Y-49524000D01*
X73481750Y-49524000D01*
X73508141Y-49525297D01*
G37*
G36*
X87908141Y-49325297D02*
G01*
X87934278Y-49329174D01*
X87959909Y-49335594D01*
X87984788Y-49344495D01*
X88008674Y-49355793D01*
X88031337Y-49369377D01*
X88052560Y-49385117D01*
X88072139Y-49402861D01*
X88089883Y-49422440D01*
X88105623Y-49443663D01*
X88119207Y-49466326D01*
X88130505Y-49490212D01*
X88139406Y-49515091D01*
X88145826Y-49540722D01*
X88149703Y-49566859D01*
X88151000Y-49593250D01*
X88151000Y-50131750D01*
X88149703Y-50158141D01*
X88145826Y-50184278D01*
X88139406Y-50209909D01*
X88130505Y-50234788D01*
X88119207Y-50258674D01*
X88105623Y-50281337D01*
X88089883Y-50302560D01*
X88072139Y-50322139D01*
X88052560Y-50339883D01*
X88031337Y-50355623D01*
X88008674Y-50369207D01*
X87984788Y-50380505D01*
X87959909Y-50389406D01*
X87934278Y-50395826D01*
X87908141Y-50399703D01*
X87881750Y-50401000D01*
X86918250Y-50401000D01*
X86891859Y-50399703D01*
X86865722Y-50395826D01*
X86840091Y-50389406D01*
X86815212Y-50380505D01*
X86791326Y-50369207D01*
X86768663Y-50355623D01*
X86747440Y-50339883D01*
X86727861Y-50322139D01*
X86710117Y-50302560D01*
X86694377Y-50281337D01*
X86680793Y-50258674D01*
X86669495Y-50234788D01*
X86660594Y-50209909D01*
X86654174Y-50184278D01*
X86650297Y-50158141D01*
X86649000Y-50131750D01*
X86649000Y-49593250D01*
X86650297Y-49566859D01*
X86654174Y-49540722D01*
X86660594Y-49515091D01*
X86669495Y-49490212D01*
X86680793Y-49466326D01*
X86694377Y-49443663D01*
X86710117Y-49422440D01*
X86727861Y-49402861D01*
X86747440Y-49385117D01*
X86768663Y-49369377D01*
X86791326Y-49355793D01*
X86815212Y-49344495D01*
X86840091Y-49335594D01*
X86865722Y-49329174D01*
X86891859Y-49325297D01*
X86918250Y-49324000D01*
X87881750Y-49324000D01*
X87908141Y-49325297D01*
G37*
G36*
X87908141Y-51200297D02*
G01*
X87934278Y-51204174D01*
X87959909Y-51210594D01*
X87984788Y-51219495D01*
X88008674Y-51230793D01*
X88031337Y-51244377D01*
X88052560Y-51260117D01*
X88072139Y-51277861D01*
X88089883Y-51297440D01*
X88105623Y-51318663D01*
X88119207Y-51341326D01*
X88130505Y-51365212D01*
X88139406Y-51390091D01*
X88145826Y-51415722D01*
X88149703Y-51441859D01*
X88151000Y-51468250D01*
X88151000Y-52006750D01*
X88149703Y-52033141D01*
X88145826Y-52059278D01*
X88139406Y-52084909D01*
X88130505Y-52109788D01*
X88119207Y-52133674D01*
X88105623Y-52156337D01*
X88089883Y-52177560D01*
X88072139Y-52197139D01*
X88052560Y-52214883D01*
X88031337Y-52230623D01*
X88008674Y-52244207D01*
X87984788Y-52255505D01*
X87959909Y-52264406D01*
X87934278Y-52270826D01*
X87908141Y-52274703D01*
X87881750Y-52276000D01*
X86918250Y-52276000D01*
X86891859Y-52274703D01*
X86865722Y-52270826D01*
X86840091Y-52264406D01*
X86815212Y-52255505D01*
X86791326Y-52244207D01*
X86768663Y-52230623D01*
X86747440Y-52214883D01*
X86727861Y-52197139D01*
X86710117Y-52177560D01*
X86694377Y-52156337D01*
X86680793Y-52133674D01*
X86669495Y-52109788D01*
X86660594Y-52084909D01*
X86654174Y-52059278D01*
X86650297Y-52033141D01*
X86649000Y-52006750D01*
X86649000Y-51468250D01*
X86650297Y-51441859D01*
X86654174Y-51415722D01*
X86660594Y-51390091D01*
X86669495Y-51365212D01*
X86680793Y-51341326D01*
X86694377Y-51318663D01*
X86710117Y-51297440D01*
X86727861Y-51277861D01*
X86747440Y-51260117D01*
X86768663Y-51244377D01*
X86791326Y-51230793D01*
X86815212Y-51219495D01*
X86840091Y-51210594D01*
X86865722Y-51204174D01*
X86891859Y-51200297D01*
X86918250Y-51199000D01*
X87881750Y-51199000D01*
X87908141Y-51200297D01*
G37*
D18*
X76250800Y-45200000D03*
X78790800Y-45200000D03*
X81330800Y-45200000D03*
X83870800Y-45200000D03*
D19*
X86410800Y-45200000D03*
D18*
X67589400Y-45200000D03*
X70129400Y-45200000D03*
D19*
X72669400Y-45200000D03*
D22*
X127970000Y-88750000D03*
X123970000Y-88750000D03*
X124970000Y-88750000D03*
X129970000Y-88750000D03*
X121970000Y-88750000D03*
D23*
X120970000Y-86450000D03*
X130970000Y-86450000D03*
X125970000Y-86450000D03*
X126970000Y-86450000D03*
D22*
X125970000Y-88750000D03*
X126970000Y-88750000D03*
D23*
X129970000Y-86450000D03*
D22*
X128970000Y-88750000D03*
D23*
X128970000Y-86450000D03*
X133970000Y-86450000D03*
X131970000Y-86450000D03*
D22*
X130970000Y-88750000D03*
D23*
X122970000Y-86450000D03*
D22*
X122970000Y-88750000D03*
X120970000Y-88750000D03*
D23*
X127970000Y-86450000D03*
D22*
X133970000Y-88750000D03*
X132970000Y-88750000D03*
D23*
X132970000Y-86450000D03*
D22*
X131970000Y-88750000D03*
D23*
X124970000Y-86450000D03*
X100970000Y-86450000D03*
X103970000Y-86450000D03*
X101970000Y-86450000D03*
X102970000Y-86450000D03*
X104970000Y-86450000D03*
X110970000Y-86450000D03*
D22*
X107970000Y-88750000D03*
X100970000Y-88750000D03*
D23*
X111970000Y-86450000D03*
D22*
X104970000Y-88750000D03*
X108970000Y-88750000D03*
X101970000Y-88750000D03*
X102970000Y-88750000D03*
X111970000Y-88750000D03*
X105970000Y-88750000D03*
X110970000Y-88750000D03*
X103970000Y-88750000D03*
D23*
X105970000Y-86450000D03*
X106970000Y-86450000D03*
D22*
X115970000Y-88750000D03*
D23*
X107970000Y-86450000D03*
X108970000Y-86450000D03*
D22*
X114970000Y-88750000D03*
X109970000Y-88750000D03*
X106970000Y-88750000D03*
D23*
X109970000Y-86450000D03*
X112970000Y-86450000D03*
D22*
X112970000Y-88750000D03*
X113970000Y-88750000D03*
D23*
X117970000Y-86450000D03*
D22*
X116970000Y-88750000D03*
X117970000Y-88750000D03*
X119970000Y-88750000D03*
D23*
X119970000Y-86450000D03*
X115970000Y-86450000D03*
D22*
X118970000Y-88750000D03*
D23*
X118970000Y-86450000D03*
X116970000Y-86450000D03*
X121970000Y-86450000D03*
X123970000Y-86450000D03*
X114970000Y-86450000D03*
X113970000Y-86450000D03*
D24*
X50970000Y-85950000D03*
D23*
X51970000Y-86450000D03*
X52970000Y-86450000D03*
X53970000Y-86450000D03*
X54970000Y-86450000D03*
X55970000Y-86450000D03*
X56970000Y-86450000D03*
X57970000Y-86450000D03*
X58970000Y-86450000D03*
X59970000Y-86450000D03*
X60970000Y-86450000D03*
X65970000Y-86450000D03*
X66970000Y-86450000D03*
X67970000Y-86450000D03*
X68970000Y-86450000D03*
X69970000Y-86450000D03*
X63970000Y-86450000D03*
X64970000Y-86450000D03*
D22*
X53970000Y-88750000D03*
X54970000Y-88750000D03*
X55970000Y-88750000D03*
X56970000Y-88750000D03*
X57970000Y-88750000D03*
X58970000Y-88750000D03*
X59970000Y-88750000D03*
X65970000Y-88750000D03*
X66970000Y-88750000D03*
X52970000Y-88750000D03*
X64970000Y-88750000D03*
X67970000Y-88750000D03*
X60970000Y-88750000D03*
X63970000Y-88750000D03*
X68970000Y-88750000D03*
X69970000Y-88750000D03*
X51970000Y-88750000D03*
D23*
X72970000Y-86450000D03*
X71970000Y-86450000D03*
X73970000Y-86450000D03*
X74970000Y-86450000D03*
X70970000Y-86450000D03*
D22*
X71970000Y-88750000D03*
X73970000Y-88750000D03*
X69970000Y-88750000D03*
X74970000Y-88750000D03*
X75970000Y-88750000D03*
X72970000Y-88750000D03*
X70970000Y-88750000D03*
X79970000Y-88750000D03*
X78970000Y-88750000D03*
D23*
X75970000Y-86450000D03*
X78970000Y-86450000D03*
X76970000Y-86450000D03*
X77970000Y-86450000D03*
D22*
X77970000Y-88750000D03*
X76970000Y-88750000D03*
D23*
X81970000Y-86450000D03*
X83970000Y-86450000D03*
X79970000Y-86450000D03*
X82970000Y-86450000D03*
D22*
X82970000Y-88750000D03*
X80970000Y-88750000D03*
X83970000Y-88750000D03*
X81970000Y-88750000D03*
D23*
X80970000Y-86450000D03*
X85970000Y-86450000D03*
X87970000Y-86450000D03*
X86970000Y-86450000D03*
D22*
X86970000Y-88750000D03*
X84970000Y-88750000D03*
X87970000Y-88750000D03*
X85970000Y-88750000D03*
D23*
X84970000Y-86450000D03*
X89970000Y-86450000D03*
X90970000Y-86450000D03*
D22*
X90970000Y-88750000D03*
X88970000Y-88750000D03*
X91970000Y-88750000D03*
X89970000Y-88750000D03*
D23*
X88970000Y-86450000D03*
X93970000Y-86450000D03*
X95970000Y-86450000D03*
X91970000Y-86450000D03*
X94970000Y-86450000D03*
D22*
X94970000Y-88750000D03*
X92970000Y-88750000D03*
X95970000Y-88750000D03*
X93970000Y-88750000D03*
D23*
X92970000Y-86450000D03*
X97970000Y-86450000D03*
X99970000Y-86450000D03*
X98970000Y-86450000D03*
D22*
X98970000Y-88750000D03*
X96970000Y-88750000D03*
X99970000Y-88750000D03*
X97970000Y-88750000D03*
D23*
X96970000Y-86450000D03*
D25*
X114000000Y-45200000D03*
X114000000Y-52400000D03*
D26*
X108000000Y-42050000D03*
X108000000Y-55550000D03*
X120000000Y-42050000D03*
X120000000Y-55550000D03*
D25*
X114000000Y-62700000D03*
X114000000Y-69900000D03*
D26*
X108000000Y-59550000D03*
X108000000Y-73050000D03*
X120000000Y-59550000D03*
X120000000Y-73050000D03*
D12*
G36*
X77868191Y-62475176D02*
G01*
X77891901Y-62478693D01*
X77915152Y-62484517D01*
X77937720Y-62492592D01*
X77959389Y-62502841D01*
X77979948Y-62515164D01*
X77999201Y-62529442D01*
X78016961Y-62545539D01*
X78033058Y-62563299D01*
X78047336Y-62582552D01*
X78059659Y-62603111D01*
X78069908Y-62624780D01*
X78077983Y-62647348D01*
X78083807Y-62670599D01*
X78087324Y-62694309D01*
X78088500Y-62718250D01*
X78088500Y-63281750D01*
X78087324Y-63305691D01*
X78083807Y-63329401D01*
X78077983Y-63352652D01*
X78069908Y-63375220D01*
X78059659Y-63396889D01*
X78047336Y-63417448D01*
X78033058Y-63436701D01*
X78016961Y-63454461D01*
X77999201Y-63470558D01*
X77979948Y-63484836D01*
X77959389Y-63497159D01*
X77937720Y-63507408D01*
X77915152Y-63515483D01*
X77891901Y-63521307D01*
X77868191Y-63524824D01*
X77844250Y-63526000D01*
X77355750Y-63526000D01*
X77331809Y-63524824D01*
X77308099Y-63521307D01*
X77284848Y-63515483D01*
X77262280Y-63507408D01*
X77240611Y-63497159D01*
X77220052Y-63484836D01*
X77200799Y-63470558D01*
X77183039Y-63454461D01*
X77166942Y-63436701D01*
X77152664Y-63417448D01*
X77140341Y-63396889D01*
X77130092Y-63375220D01*
X77122017Y-63352652D01*
X77116193Y-63329401D01*
X77112676Y-63305691D01*
X77111500Y-63281750D01*
X77111500Y-62718250D01*
X77112676Y-62694309D01*
X77116193Y-62670599D01*
X77122017Y-62647348D01*
X77130092Y-62624780D01*
X77140341Y-62603111D01*
X77152664Y-62582552D01*
X77166942Y-62563299D01*
X77183039Y-62545539D01*
X77200799Y-62529442D01*
X77220052Y-62515164D01*
X77240611Y-62502841D01*
X77262280Y-62492592D01*
X77284848Y-62484517D01*
X77308099Y-62478693D01*
X77331809Y-62475176D01*
X77355750Y-62474000D01*
X77844250Y-62474000D01*
X77868191Y-62475176D01*
G37*
G36*
X76293191Y-62475176D02*
G01*
X76316901Y-62478693D01*
X76340152Y-62484517D01*
X76362720Y-62492592D01*
X76384389Y-62502841D01*
X76404948Y-62515164D01*
X76424201Y-62529442D01*
X76441961Y-62545539D01*
X76458058Y-62563299D01*
X76472336Y-62582552D01*
X76484659Y-62603111D01*
X76494908Y-62624780D01*
X76502983Y-62647348D01*
X76508807Y-62670599D01*
X76512324Y-62694309D01*
X76513500Y-62718250D01*
X76513500Y-63281750D01*
X76512324Y-63305691D01*
X76508807Y-63329401D01*
X76502983Y-63352652D01*
X76494908Y-63375220D01*
X76484659Y-63396889D01*
X76472336Y-63417448D01*
X76458058Y-63436701D01*
X76441961Y-63454461D01*
X76424201Y-63470558D01*
X76404948Y-63484836D01*
X76384389Y-63497159D01*
X76362720Y-63507408D01*
X76340152Y-63515483D01*
X76316901Y-63521307D01*
X76293191Y-63524824D01*
X76269250Y-63526000D01*
X75780750Y-63526000D01*
X75756809Y-63524824D01*
X75733099Y-63521307D01*
X75709848Y-63515483D01*
X75687280Y-63507408D01*
X75665611Y-63497159D01*
X75645052Y-63484836D01*
X75625799Y-63470558D01*
X75608039Y-63454461D01*
X75591942Y-63436701D01*
X75577664Y-63417448D01*
X75565341Y-63396889D01*
X75555092Y-63375220D01*
X75547017Y-63352652D01*
X75541193Y-63329401D01*
X75537676Y-63305691D01*
X75536500Y-63281750D01*
X75536500Y-62718250D01*
X75537676Y-62694309D01*
X75541193Y-62670599D01*
X75547017Y-62647348D01*
X75555092Y-62624780D01*
X75565341Y-62603111D01*
X75577664Y-62582552D01*
X75591942Y-62563299D01*
X75608039Y-62545539D01*
X75625799Y-62529442D01*
X75645052Y-62515164D01*
X75665611Y-62502841D01*
X75687280Y-62492592D01*
X75709848Y-62484517D01*
X75733099Y-62478693D01*
X75756809Y-62475176D01*
X75780750Y-62474000D01*
X76269250Y-62474000D01*
X76293191Y-62475176D01*
G37*
G36*
X78043191Y-59375176D02*
G01*
X78066901Y-59378693D01*
X78090152Y-59384517D01*
X78112720Y-59392592D01*
X78134389Y-59402841D01*
X78154948Y-59415164D01*
X78174201Y-59429442D01*
X78191961Y-59445539D01*
X78208058Y-59463299D01*
X78222336Y-59482552D01*
X78234659Y-59503111D01*
X78244908Y-59524780D01*
X78252983Y-59547348D01*
X78258807Y-59570599D01*
X78262324Y-59594309D01*
X78263500Y-59618250D01*
X78263500Y-60181750D01*
X78262324Y-60205691D01*
X78258807Y-60229401D01*
X78252983Y-60252652D01*
X78244908Y-60275220D01*
X78234659Y-60296889D01*
X78222336Y-60317448D01*
X78208058Y-60336701D01*
X78191961Y-60354461D01*
X78174201Y-60370558D01*
X78154948Y-60384836D01*
X78134389Y-60397159D01*
X78112720Y-60407408D01*
X78090152Y-60415483D01*
X78066901Y-60421307D01*
X78043191Y-60424824D01*
X78019250Y-60426000D01*
X77530750Y-60426000D01*
X77506809Y-60424824D01*
X77483099Y-60421307D01*
X77459848Y-60415483D01*
X77437280Y-60407408D01*
X77415611Y-60397159D01*
X77395052Y-60384836D01*
X77375799Y-60370558D01*
X77358039Y-60354461D01*
X77341942Y-60336701D01*
X77327664Y-60317448D01*
X77315341Y-60296889D01*
X77305092Y-60275220D01*
X77297017Y-60252652D01*
X77291193Y-60229401D01*
X77287676Y-60205691D01*
X77286500Y-60181750D01*
X77286500Y-59618250D01*
X77287676Y-59594309D01*
X77291193Y-59570599D01*
X77297017Y-59547348D01*
X77305092Y-59524780D01*
X77315341Y-59503111D01*
X77327664Y-59482552D01*
X77341942Y-59463299D01*
X77358039Y-59445539D01*
X77375799Y-59429442D01*
X77395052Y-59415164D01*
X77415611Y-59402841D01*
X77437280Y-59392592D01*
X77459848Y-59384517D01*
X77483099Y-59378693D01*
X77506809Y-59375176D01*
X77530750Y-59374000D01*
X78019250Y-59374000D01*
X78043191Y-59375176D01*
G37*
G36*
X76468191Y-59375176D02*
G01*
X76491901Y-59378693D01*
X76515152Y-59384517D01*
X76537720Y-59392592D01*
X76559389Y-59402841D01*
X76579948Y-59415164D01*
X76599201Y-59429442D01*
X76616961Y-59445539D01*
X76633058Y-59463299D01*
X76647336Y-59482552D01*
X76659659Y-59503111D01*
X76669908Y-59524780D01*
X76677983Y-59547348D01*
X76683807Y-59570599D01*
X76687324Y-59594309D01*
X76688500Y-59618250D01*
X76688500Y-60181750D01*
X76687324Y-60205691D01*
X76683807Y-60229401D01*
X76677983Y-60252652D01*
X76669908Y-60275220D01*
X76659659Y-60296889D01*
X76647336Y-60317448D01*
X76633058Y-60336701D01*
X76616961Y-60354461D01*
X76599201Y-60370558D01*
X76579948Y-60384836D01*
X76559389Y-60397159D01*
X76537720Y-60407408D01*
X76515152Y-60415483D01*
X76491901Y-60421307D01*
X76468191Y-60424824D01*
X76444250Y-60426000D01*
X75955750Y-60426000D01*
X75931809Y-60424824D01*
X75908099Y-60421307D01*
X75884848Y-60415483D01*
X75862280Y-60407408D01*
X75840611Y-60397159D01*
X75820052Y-60384836D01*
X75800799Y-60370558D01*
X75783039Y-60354461D01*
X75766942Y-60336701D01*
X75752664Y-60317448D01*
X75740341Y-60296889D01*
X75730092Y-60275220D01*
X75722017Y-60252652D01*
X75716193Y-60229401D01*
X75712676Y-60205691D01*
X75711500Y-60181750D01*
X75711500Y-59618250D01*
X75712676Y-59594309D01*
X75716193Y-59570599D01*
X75722017Y-59547348D01*
X75730092Y-59524780D01*
X75740341Y-59503111D01*
X75752664Y-59482552D01*
X75766942Y-59463299D01*
X75783039Y-59445539D01*
X75800799Y-59429442D01*
X75820052Y-59415164D01*
X75840611Y-59402841D01*
X75862280Y-59392592D01*
X75884848Y-59384517D01*
X75908099Y-59378693D01*
X75931809Y-59375176D01*
X75955750Y-59374000D01*
X76444250Y-59374000D01*
X76468191Y-59375176D01*
G37*
G36*
X79605691Y-70325176D02*
G01*
X79629401Y-70328693D01*
X79652652Y-70334517D01*
X79675220Y-70342592D01*
X79696889Y-70352841D01*
X79717448Y-70365164D01*
X79736701Y-70379442D01*
X79754461Y-70395539D01*
X79770558Y-70413299D01*
X79784836Y-70432552D01*
X79797159Y-70453111D01*
X79807408Y-70474780D01*
X79815483Y-70497348D01*
X79821307Y-70520599D01*
X79824824Y-70544309D01*
X79826000Y-70568250D01*
X79826000Y-71056750D01*
X79824824Y-71080691D01*
X79821307Y-71104401D01*
X79815483Y-71127652D01*
X79807408Y-71150220D01*
X79797159Y-71171889D01*
X79784836Y-71192448D01*
X79770558Y-71211701D01*
X79754461Y-71229461D01*
X79736701Y-71245558D01*
X79717448Y-71259836D01*
X79696889Y-71272159D01*
X79675220Y-71282408D01*
X79652652Y-71290483D01*
X79629401Y-71296307D01*
X79605691Y-71299824D01*
X79581750Y-71301000D01*
X79018250Y-71301000D01*
X78994309Y-71299824D01*
X78970599Y-71296307D01*
X78947348Y-71290483D01*
X78924780Y-71282408D01*
X78903111Y-71272159D01*
X78882552Y-71259836D01*
X78863299Y-71245558D01*
X78845539Y-71229461D01*
X78829442Y-71211701D01*
X78815164Y-71192448D01*
X78802841Y-71171889D01*
X78792592Y-71150220D01*
X78784517Y-71127652D01*
X78778693Y-71104401D01*
X78775176Y-71080691D01*
X78774000Y-71056750D01*
X78774000Y-70568250D01*
X78775176Y-70544309D01*
X78778693Y-70520599D01*
X78784517Y-70497348D01*
X78792592Y-70474780D01*
X78802841Y-70453111D01*
X78815164Y-70432552D01*
X78829442Y-70413299D01*
X78845539Y-70395539D01*
X78863299Y-70379442D01*
X78882552Y-70365164D01*
X78903111Y-70352841D01*
X78924780Y-70342592D01*
X78947348Y-70334517D01*
X78970599Y-70328693D01*
X78994309Y-70325176D01*
X79018250Y-70324000D01*
X79581750Y-70324000D01*
X79605691Y-70325176D01*
G37*
G36*
X79605691Y-71900176D02*
G01*
X79629401Y-71903693D01*
X79652652Y-71909517D01*
X79675220Y-71917592D01*
X79696889Y-71927841D01*
X79717448Y-71940164D01*
X79736701Y-71954442D01*
X79754461Y-71970539D01*
X79770558Y-71988299D01*
X79784836Y-72007552D01*
X79797159Y-72028111D01*
X79807408Y-72049780D01*
X79815483Y-72072348D01*
X79821307Y-72095599D01*
X79824824Y-72119309D01*
X79826000Y-72143250D01*
X79826000Y-72631750D01*
X79824824Y-72655691D01*
X79821307Y-72679401D01*
X79815483Y-72702652D01*
X79807408Y-72725220D01*
X79797159Y-72746889D01*
X79784836Y-72767448D01*
X79770558Y-72786701D01*
X79754461Y-72804461D01*
X79736701Y-72820558D01*
X79717448Y-72834836D01*
X79696889Y-72847159D01*
X79675220Y-72857408D01*
X79652652Y-72865483D01*
X79629401Y-72871307D01*
X79605691Y-72874824D01*
X79581750Y-72876000D01*
X79018250Y-72876000D01*
X78994309Y-72874824D01*
X78970599Y-72871307D01*
X78947348Y-72865483D01*
X78924780Y-72857408D01*
X78903111Y-72847159D01*
X78882552Y-72834836D01*
X78863299Y-72820558D01*
X78845539Y-72804461D01*
X78829442Y-72786701D01*
X78815164Y-72767448D01*
X78802841Y-72746889D01*
X78792592Y-72725220D01*
X78784517Y-72702652D01*
X78778693Y-72679401D01*
X78775176Y-72655691D01*
X78774000Y-72631750D01*
X78774000Y-72143250D01*
X78775176Y-72119309D01*
X78778693Y-72095599D01*
X78784517Y-72072348D01*
X78792592Y-72049780D01*
X78802841Y-72028111D01*
X78815164Y-72007552D01*
X78829442Y-71988299D01*
X78845539Y-71970539D01*
X78863299Y-71954442D01*
X78882552Y-71940164D01*
X78903111Y-71927841D01*
X78924780Y-71917592D01*
X78947348Y-71909517D01*
X78970599Y-71903693D01*
X78994309Y-71900176D01*
X79018250Y-71899000D01*
X79581750Y-71899000D01*
X79605691Y-71900176D01*
G37*
G36*
X77305691Y-70312676D02*
G01*
X77329401Y-70316193D01*
X77352652Y-70322017D01*
X77375220Y-70330092D01*
X77396889Y-70340341D01*
X77417448Y-70352664D01*
X77436701Y-70366942D01*
X77454461Y-70383039D01*
X77470558Y-70400799D01*
X77484836Y-70420052D01*
X77497159Y-70440611D01*
X77507408Y-70462280D01*
X77515483Y-70484848D01*
X77521307Y-70508099D01*
X77524824Y-70531809D01*
X77526000Y-70555750D01*
X77526000Y-71044250D01*
X77524824Y-71068191D01*
X77521307Y-71091901D01*
X77515483Y-71115152D01*
X77507408Y-71137720D01*
X77497159Y-71159389D01*
X77484836Y-71179948D01*
X77470558Y-71199201D01*
X77454461Y-71216961D01*
X77436701Y-71233058D01*
X77417448Y-71247336D01*
X77396889Y-71259659D01*
X77375220Y-71269908D01*
X77352652Y-71277983D01*
X77329401Y-71283807D01*
X77305691Y-71287324D01*
X77281750Y-71288500D01*
X76718250Y-71288500D01*
X76694309Y-71287324D01*
X76670599Y-71283807D01*
X76647348Y-71277983D01*
X76624780Y-71269908D01*
X76603111Y-71259659D01*
X76582552Y-71247336D01*
X76563299Y-71233058D01*
X76545539Y-71216961D01*
X76529442Y-71199201D01*
X76515164Y-71179948D01*
X76502841Y-71159389D01*
X76492592Y-71137720D01*
X76484517Y-71115152D01*
X76478693Y-71091901D01*
X76475176Y-71068191D01*
X76474000Y-71044250D01*
X76474000Y-70555750D01*
X76475176Y-70531809D01*
X76478693Y-70508099D01*
X76484517Y-70484848D01*
X76492592Y-70462280D01*
X76502841Y-70440611D01*
X76515164Y-70420052D01*
X76529442Y-70400799D01*
X76545539Y-70383039D01*
X76563299Y-70366942D01*
X76582552Y-70352664D01*
X76603111Y-70340341D01*
X76624780Y-70330092D01*
X76647348Y-70322017D01*
X76670599Y-70316193D01*
X76694309Y-70312676D01*
X76718250Y-70311500D01*
X77281750Y-70311500D01*
X77305691Y-70312676D01*
G37*
G36*
X77305691Y-71887676D02*
G01*
X77329401Y-71891193D01*
X77352652Y-71897017D01*
X77375220Y-71905092D01*
X77396889Y-71915341D01*
X77417448Y-71927664D01*
X77436701Y-71941942D01*
X77454461Y-71958039D01*
X77470558Y-71975799D01*
X77484836Y-71995052D01*
X77497159Y-72015611D01*
X77507408Y-72037280D01*
X77515483Y-72059848D01*
X77521307Y-72083099D01*
X77524824Y-72106809D01*
X77526000Y-72130750D01*
X77526000Y-72619250D01*
X77524824Y-72643191D01*
X77521307Y-72666901D01*
X77515483Y-72690152D01*
X77507408Y-72712720D01*
X77497159Y-72734389D01*
X77484836Y-72754948D01*
X77470558Y-72774201D01*
X77454461Y-72791961D01*
X77436701Y-72808058D01*
X77417448Y-72822336D01*
X77396889Y-72834659D01*
X77375220Y-72844908D01*
X77352652Y-72852983D01*
X77329401Y-72858807D01*
X77305691Y-72862324D01*
X77281750Y-72863500D01*
X76718250Y-72863500D01*
X76694309Y-72862324D01*
X76670599Y-72858807D01*
X76647348Y-72852983D01*
X76624780Y-72844908D01*
X76603111Y-72834659D01*
X76582552Y-72822336D01*
X76563299Y-72808058D01*
X76545539Y-72791961D01*
X76529442Y-72774201D01*
X76515164Y-72754948D01*
X76502841Y-72734389D01*
X76492592Y-72712720D01*
X76484517Y-72690152D01*
X76478693Y-72666901D01*
X76475176Y-72643191D01*
X76474000Y-72619250D01*
X76474000Y-72130750D01*
X76475176Y-72106809D01*
X76478693Y-72083099D01*
X76484517Y-72059848D01*
X76492592Y-72037280D01*
X76502841Y-72015611D01*
X76515164Y-71995052D01*
X76529442Y-71975799D01*
X76545539Y-71958039D01*
X76563299Y-71941942D01*
X76582552Y-71927664D01*
X76603111Y-71915341D01*
X76624780Y-71905092D01*
X76647348Y-71897017D01*
X76670599Y-71891193D01*
X76694309Y-71887676D01*
X76718250Y-71886500D01*
X77281750Y-71886500D01*
X77305691Y-71887676D01*
G37*
G36*
X52808141Y-74087797D02*
G01*
X52834278Y-74091674D01*
X52859909Y-74098094D01*
X52884788Y-74106995D01*
X52908674Y-74118293D01*
X52931337Y-74131877D01*
X52952560Y-74147617D01*
X52972139Y-74165361D01*
X52989883Y-74184940D01*
X53005623Y-74206163D01*
X53019207Y-74228826D01*
X53030505Y-74252712D01*
X53039406Y-74277591D01*
X53045826Y-74303222D01*
X53049703Y-74329359D01*
X53051000Y-74355750D01*
X53051000Y-74894250D01*
X53049703Y-74920641D01*
X53045826Y-74946778D01*
X53039406Y-74972409D01*
X53030505Y-74997288D01*
X53019207Y-75021174D01*
X53005623Y-75043837D01*
X52989883Y-75065060D01*
X52972139Y-75084639D01*
X52952560Y-75102383D01*
X52931337Y-75118123D01*
X52908674Y-75131707D01*
X52884788Y-75143005D01*
X52859909Y-75151906D01*
X52834278Y-75158326D01*
X52808141Y-75162203D01*
X52781750Y-75163500D01*
X51818250Y-75163500D01*
X51791859Y-75162203D01*
X51765722Y-75158326D01*
X51740091Y-75151906D01*
X51715212Y-75143005D01*
X51691326Y-75131707D01*
X51668663Y-75118123D01*
X51647440Y-75102383D01*
X51627861Y-75084639D01*
X51610117Y-75065060D01*
X51594377Y-75043837D01*
X51580793Y-75021174D01*
X51569495Y-74997288D01*
X51560594Y-74972409D01*
X51554174Y-74946778D01*
X51550297Y-74920641D01*
X51549000Y-74894250D01*
X51549000Y-74355750D01*
X51550297Y-74329359D01*
X51554174Y-74303222D01*
X51560594Y-74277591D01*
X51569495Y-74252712D01*
X51580793Y-74228826D01*
X51594377Y-74206163D01*
X51610117Y-74184940D01*
X51627861Y-74165361D01*
X51647440Y-74147617D01*
X51668663Y-74131877D01*
X51691326Y-74118293D01*
X51715212Y-74106995D01*
X51740091Y-74098094D01*
X51765722Y-74091674D01*
X51791859Y-74087797D01*
X51818250Y-74086500D01*
X52781750Y-74086500D01*
X52808141Y-74087797D01*
G37*
G36*
X52808141Y-75962797D02*
G01*
X52834278Y-75966674D01*
X52859909Y-75973094D01*
X52884788Y-75981995D01*
X52908674Y-75993293D01*
X52931337Y-76006877D01*
X52952560Y-76022617D01*
X52972139Y-76040361D01*
X52989883Y-76059940D01*
X53005623Y-76081163D01*
X53019207Y-76103826D01*
X53030505Y-76127712D01*
X53039406Y-76152591D01*
X53045826Y-76178222D01*
X53049703Y-76204359D01*
X53051000Y-76230750D01*
X53051000Y-76769250D01*
X53049703Y-76795641D01*
X53045826Y-76821778D01*
X53039406Y-76847409D01*
X53030505Y-76872288D01*
X53019207Y-76896174D01*
X53005623Y-76918837D01*
X52989883Y-76940060D01*
X52972139Y-76959639D01*
X52952560Y-76977383D01*
X52931337Y-76993123D01*
X52908674Y-77006707D01*
X52884788Y-77018005D01*
X52859909Y-77026906D01*
X52834278Y-77033326D01*
X52808141Y-77037203D01*
X52781750Y-77038500D01*
X51818250Y-77038500D01*
X51791859Y-77037203D01*
X51765722Y-77033326D01*
X51740091Y-77026906D01*
X51715212Y-77018005D01*
X51691326Y-77006707D01*
X51668663Y-76993123D01*
X51647440Y-76977383D01*
X51627861Y-76959639D01*
X51610117Y-76940060D01*
X51594377Y-76918837D01*
X51580793Y-76896174D01*
X51569495Y-76872288D01*
X51560594Y-76847409D01*
X51554174Y-76821778D01*
X51550297Y-76795641D01*
X51549000Y-76769250D01*
X51549000Y-76230750D01*
X51550297Y-76204359D01*
X51554174Y-76178222D01*
X51560594Y-76152591D01*
X51569495Y-76127712D01*
X51580793Y-76103826D01*
X51594377Y-76081163D01*
X51610117Y-76059940D01*
X51627861Y-76040361D01*
X51647440Y-76022617D01*
X51668663Y-76006877D01*
X51691326Y-75993293D01*
X51715212Y-75981995D01*
X51740091Y-75973094D01*
X51765722Y-75966674D01*
X51791859Y-75962797D01*
X51818250Y-75961500D01*
X52781750Y-75961500D01*
X52808141Y-75962797D01*
G37*
G36*
X60917702Y-76854845D02*
G01*
X60934738Y-76857372D01*
X60951445Y-76861557D01*
X60967661Y-76867359D01*
X60983230Y-76874723D01*
X60998003Y-76883577D01*
X61011836Y-76893837D01*
X61024597Y-76905403D01*
X61036163Y-76918164D01*
X61046423Y-76931997D01*
X61055277Y-76946770D01*
X61062641Y-76962339D01*
X61068443Y-76978555D01*
X61072628Y-76995262D01*
X61075155Y-77012298D01*
X61076000Y-77029500D01*
X61076000Y-77380500D01*
X61075155Y-77397702D01*
X61072628Y-77414738D01*
X61068443Y-77431445D01*
X61062641Y-77447661D01*
X61055277Y-77463230D01*
X61046423Y-77478003D01*
X61036163Y-77491836D01*
X61024597Y-77504597D01*
X61011836Y-77516163D01*
X60998003Y-77526423D01*
X60983230Y-77535277D01*
X60967661Y-77542641D01*
X60951445Y-77548443D01*
X60934738Y-77552628D01*
X60917702Y-77555155D01*
X60900500Y-77556000D01*
X59199500Y-77556000D01*
X59182298Y-77555155D01*
X59165262Y-77552628D01*
X59148555Y-77548443D01*
X59132339Y-77542641D01*
X59116770Y-77535277D01*
X59101997Y-77526423D01*
X59088164Y-77516163D01*
X59075403Y-77504597D01*
X59063837Y-77491836D01*
X59053577Y-77478003D01*
X59044723Y-77463230D01*
X59037359Y-77447661D01*
X59031557Y-77431445D01*
X59027372Y-77414738D01*
X59024845Y-77397702D01*
X59024000Y-77380500D01*
X59024000Y-77029500D01*
X59024845Y-77012298D01*
X59027372Y-76995262D01*
X59031557Y-76978555D01*
X59037359Y-76962339D01*
X59044723Y-76946770D01*
X59053577Y-76931997D01*
X59063837Y-76918164D01*
X59075403Y-76905403D01*
X59088164Y-76893837D01*
X59101997Y-76883577D01*
X59116770Y-76874723D01*
X59132339Y-76867359D01*
X59148555Y-76861557D01*
X59165262Y-76857372D01*
X59182298Y-76854845D01*
X59199500Y-76854000D01*
X60900500Y-76854000D01*
X60917702Y-76854845D01*
G37*
G36*
X60917702Y-75584845D02*
G01*
X60934738Y-75587372D01*
X60951445Y-75591557D01*
X60967661Y-75597359D01*
X60983230Y-75604723D01*
X60998003Y-75613577D01*
X61011836Y-75623837D01*
X61024597Y-75635403D01*
X61036163Y-75648164D01*
X61046423Y-75661997D01*
X61055277Y-75676770D01*
X61062641Y-75692339D01*
X61068443Y-75708555D01*
X61072628Y-75725262D01*
X61075155Y-75742298D01*
X61076000Y-75759500D01*
X61076000Y-76110500D01*
X61075155Y-76127702D01*
X61072628Y-76144738D01*
X61068443Y-76161445D01*
X61062641Y-76177661D01*
X61055277Y-76193230D01*
X61046423Y-76208003D01*
X61036163Y-76221836D01*
X61024597Y-76234597D01*
X61011836Y-76246163D01*
X60998003Y-76256423D01*
X60983230Y-76265277D01*
X60967661Y-76272641D01*
X60951445Y-76278443D01*
X60934738Y-76282628D01*
X60917702Y-76285155D01*
X60900500Y-76286000D01*
X59199500Y-76286000D01*
X59182298Y-76285155D01*
X59165262Y-76282628D01*
X59148555Y-76278443D01*
X59132339Y-76272641D01*
X59116770Y-76265277D01*
X59101997Y-76256423D01*
X59088164Y-76246163D01*
X59075403Y-76234597D01*
X59063837Y-76221836D01*
X59053577Y-76208003D01*
X59044723Y-76193230D01*
X59037359Y-76177661D01*
X59031557Y-76161445D01*
X59027372Y-76144738D01*
X59024845Y-76127702D01*
X59024000Y-76110500D01*
X59024000Y-75759500D01*
X59024845Y-75742298D01*
X59027372Y-75725262D01*
X59031557Y-75708555D01*
X59037359Y-75692339D01*
X59044723Y-75676770D01*
X59053577Y-75661997D01*
X59063837Y-75648164D01*
X59075403Y-75635403D01*
X59088164Y-75623837D01*
X59101997Y-75613577D01*
X59116770Y-75604723D01*
X59132339Y-75597359D01*
X59148555Y-75591557D01*
X59165262Y-75587372D01*
X59182298Y-75584845D01*
X59199500Y-75584000D01*
X60900500Y-75584000D01*
X60917702Y-75584845D01*
G37*
G36*
X60917702Y-74314845D02*
G01*
X60934738Y-74317372D01*
X60951445Y-74321557D01*
X60967661Y-74327359D01*
X60983230Y-74334723D01*
X60998003Y-74343577D01*
X61011836Y-74353837D01*
X61024597Y-74365403D01*
X61036163Y-74378164D01*
X61046423Y-74391997D01*
X61055277Y-74406770D01*
X61062641Y-74422339D01*
X61068443Y-74438555D01*
X61072628Y-74455262D01*
X61075155Y-74472298D01*
X61076000Y-74489500D01*
X61076000Y-74840500D01*
X61075155Y-74857702D01*
X61072628Y-74874738D01*
X61068443Y-74891445D01*
X61062641Y-74907661D01*
X61055277Y-74923230D01*
X61046423Y-74938003D01*
X61036163Y-74951836D01*
X61024597Y-74964597D01*
X61011836Y-74976163D01*
X60998003Y-74986423D01*
X60983230Y-74995277D01*
X60967661Y-75002641D01*
X60951445Y-75008443D01*
X60934738Y-75012628D01*
X60917702Y-75015155D01*
X60900500Y-75016000D01*
X59199500Y-75016000D01*
X59182298Y-75015155D01*
X59165262Y-75012628D01*
X59148555Y-75008443D01*
X59132339Y-75002641D01*
X59116770Y-74995277D01*
X59101997Y-74986423D01*
X59088164Y-74976163D01*
X59075403Y-74964597D01*
X59063837Y-74951836D01*
X59053577Y-74938003D01*
X59044723Y-74923230D01*
X59037359Y-74907661D01*
X59031557Y-74891445D01*
X59027372Y-74874738D01*
X59024845Y-74857702D01*
X59024000Y-74840500D01*
X59024000Y-74489500D01*
X59024845Y-74472298D01*
X59027372Y-74455262D01*
X59031557Y-74438555D01*
X59037359Y-74422339D01*
X59044723Y-74406770D01*
X59053577Y-74391997D01*
X59063837Y-74378164D01*
X59075403Y-74365403D01*
X59088164Y-74353837D01*
X59101997Y-74343577D01*
X59116770Y-74334723D01*
X59132339Y-74327359D01*
X59148555Y-74321557D01*
X59165262Y-74317372D01*
X59182298Y-74314845D01*
X59199500Y-74314000D01*
X60900500Y-74314000D01*
X60917702Y-74314845D01*
G37*
G36*
X60917702Y-73044845D02*
G01*
X60934738Y-73047372D01*
X60951445Y-73051557D01*
X60967661Y-73057359D01*
X60983230Y-73064723D01*
X60998003Y-73073577D01*
X61011836Y-73083837D01*
X61024597Y-73095403D01*
X61036163Y-73108164D01*
X61046423Y-73121997D01*
X61055277Y-73136770D01*
X61062641Y-73152339D01*
X61068443Y-73168555D01*
X61072628Y-73185262D01*
X61075155Y-73202298D01*
X61076000Y-73219500D01*
X61076000Y-73570500D01*
X61075155Y-73587702D01*
X61072628Y-73604738D01*
X61068443Y-73621445D01*
X61062641Y-73637661D01*
X61055277Y-73653230D01*
X61046423Y-73668003D01*
X61036163Y-73681836D01*
X61024597Y-73694597D01*
X61011836Y-73706163D01*
X60998003Y-73716423D01*
X60983230Y-73725277D01*
X60967661Y-73732641D01*
X60951445Y-73738443D01*
X60934738Y-73742628D01*
X60917702Y-73745155D01*
X60900500Y-73746000D01*
X59199500Y-73746000D01*
X59182298Y-73745155D01*
X59165262Y-73742628D01*
X59148555Y-73738443D01*
X59132339Y-73732641D01*
X59116770Y-73725277D01*
X59101997Y-73716423D01*
X59088164Y-73706163D01*
X59075403Y-73694597D01*
X59063837Y-73681836D01*
X59053577Y-73668003D01*
X59044723Y-73653230D01*
X59037359Y-73637661D01*
X59031557Y-73621445D01*
X59027372Y-73604738D01*
X59024845Y-73587702D01*
X59024000Y-73570500D01*
X59024000Y-73219500D01*
X59024845Y-73202298D01*
X59027372Y-73185262D01*
X59031557Y-73168555D01*
X59037359Y-73152339D01*
X59044723Y-73136770D01*
X59053577Y-73121997D01*
X59063837Y-73108164D01*
X59075403Y-73095403D01*
X59088164Y-73083837D01*
X59101997Y-73073577D01*
X59116770Y-73064723D01*
X59132339Y-73057359D01*
X59148555Y-73051557D01*
X59165262Y-73047372D01*
X59182298Y-73044845D01*
X59199500Y-73044000D01*
X60900500Y-73044000D01*
X60917702Y-73044845D01*
G37*
G36*
X55967702Y-73044845D02*
G01*
X55984738Y-73047372D01*
X56001445Y-73051557D01*
X56017661Y-73057359D01*
X56033230Y-73064723D01*
X56048003Y-73073577D01*
X56061836Y-73083837D01*
X56074597Y-73095403D01*
X56086163Y-73108164D01*
X56096423Y-73121997D01*
X56105277Y-73136770D01*
X56112641Y-73152339D01*
X56118443Y-73168555D01*
X56122628Y-73185262D01*
X56125155Y-73202298D01*
X56126000Y-73219500D01*
X56126000Y-73570500D01*
X56125155Y-73587702D01*
X56122628Y-73604738D01*
X56118443Y-73621445D01*
X56112641Y-73637661D01*
X56105277Y-73653230D01*
X56096423Y-73668003D01*
X56086163Y-73681836D01*
X56074597Y-73694597D01*
X56061836Y-73706163D01*
X56048003Y-73716423D01*
X56033230Y-73725277D01*
X56017661Y-73732641D01*
X56001445Y-73738443D01*
X55984738Y-73742628D01*
X55967702Y-73745155D01*
X55950500Y-73746000D01*
X54249500Y-73746000D01*
X54232298Y-73745155D01*
X54215262Y-73742628D01*
X54198555Y-73738443D01*
X54182339Y-73732641D01*
X54166770Y-73725277D01*
X54151997Y-73716423D01*
X54138164Y-73706163D01*
X54125403Y-73694597D01*
X54113837Y-73681836D01*
X54103577Y-73668003D01*
X54094723Y-73653230D01*
X54087359Y-73637661D01*
X54081557Y-73621445D01*
X54077372Y-73604738D01*
X54074845Y-73587702D01*
X54074000Y-73570500D01*
X54074000Y-73219500D01*
X54074845Y-73202298D01*
X54077372Y-73185262D01*
X54081557Y-73168555D01*
X54087359Y-73152339D01*
X54094723Y-73136770D01*
X54103577Y-73121997D01*
X54113837Y-73108164D01*
X54125403Y-73095403D01*
X54138164Y-73083837D01*
X54151997Y-73073577D01*
X54166770Y-73064723D01*
X54182339Y-73057359D01*
X54198555Y-73051557D01*
X54215262Y-73047372D01*
X54232298Y-73044845D01*
X54249500Y-73044000D01*
X55950500Y-73044000D01*
X55967702Y-73044845D01*
G37*
G36*
X55967702Y-74314845D02*
G01*
X55984738Y-74317372D01*
X56001445Y-74321557D01*
X56017661Y-74327359D01*
X56033230Y-74334723D01*
X56048003Y-74343577D01*
X56061836Y-74353837D01*
X56074597Y-74365403D01*
X56086163Y-74378164D01*
X56096423Y-74391997D01*
X56105277Y-74406770D01*
X56112641Y-74422339D01*
X56118443Y-74438555D01*
X56122628Y-74455262D01*
X56125155Y-74472298D01*
X56126000Y-74489500D01*
X56126000Y-74840500D01*
X56125155Y-74857702D01*
X56122628Y-74874738D01*
X56118443Y-74891445D01*
X56112641Y-74907661D01*
X56105277Y-74923230D01*
X56096423Y-74938003D01*
X56086163Y-74951836D01*
X56074597Y-74964597D01*
X56061836Y-74976163D01*
X56048003Y-74986423D01*
X56033230Y-74995277D01*
X56017661Y-75002641D01*
X56001445Y-75008443D01*
X55984738Y-75012628D01*
X55967702Y-75015155D01*
X55950500Y-75016000D01*
X54249500Y-75016000D01*
X54232298Y-75015155D01*
X54215262Y-75012628D01*
X54198555Y-75008443D01*
X54182339Y-75002641D01*
X54166770Y-74995277D01*
X54151997Y-74986423D01*
X54138164Y-74976163D01*
X54125403Y-74964597D01*
X54113837Y-74951836D01*
X54103577Y-74938003D01*
X54094723Y-74923230D01*
X54087359Y-74907661D01*
X54081557Y-74891445D01*
X54077372Y-74874738D01*
X54074845Y-74857702D01*
X54074000Y-74840500D01*
X54074000Y-74489500D01*
X54074845Y-74472298D01*
X54077372Y-74455262D01*
X54081557Y-74438555D01*
X54087359Y-74422339D01*
X54094723Y-74406770D01*
X54103577Y-74391997D01*
X54113837Y-74378164D01*
X54125403Y-74365403D01*
X54138164Y-74353837D01*
X54151997Y-74343577D01*
X54166770Y-74334723D01*
X54182339Y-74327359D01*
X54198555Y-74321557D01*
X54215262Y-74317372D01*
X54232298Y-74314845D01*
X54249500Y-74314000D01*
X55950500Y-74314000D01*
X55967702Y-74314845D01*
G37*
G36*
X55967702Y-75584845D02*
G01*
X55984738Y-75587372D01*
X56001445Y-75591557D01*
X56017661Y-75597359D01*
X56033230Y-75604723D01*
X56048003Y-75613577D01*
X56061836Y-75623837D01*
X56074597Y-75635403D01*
X56086163Y-75648164D01*
X56096423Y-75661997D01*
X56105277Y-75676770D01*
X56112641Y-75692339D01*
X56118443Y-75708555D01*
X56122628Y-75725262D01*
X56125155Y-75742298D01*
X56126000Y-75759500D01*
X56126000Y-76110500D01*
X56125155Y-76127702D01*
X56122628Y-76144738D01*
X56118443Y-76161445D01*
X56112641Y-76177661D01*
X56105277Y-76193230D01*
X56096423Y-76208003D01*
X56086163Y-76221836D01*
X56074597Y-76234597D01*
X56061836Y-76246163D01*
X56048003Y-76256423D01*
X56033230Y-76265277D01*
X56017661Y-76272641D01*
X56001445Y-76278443D01*
X55984738Y-76282628D01*
X55967702Y-76285155D01*
X55950500Y-76286000D01*
X54249500Y-76286000D01*
X54232298Y-76285155D01*
X54215262Y-76282628D01*
X54198555Y-76278443D01*
X54182339Y-76272641D01*
X54166770Y-76265277D01*
X54151997Y-76256423D01*
X54138164Y-76246163D01*
X54125403Y-76234597D01*
X54113837Y-76221836D01*
X54103577Y-76208003D01*
X54094723Y-76193230D01*
X54087359Y-76177661D01*
X54081557Y-76161445D01*
X54077372Y-76144738D01*
X54074845Y-76127702D01*
X54074000Y-76110500D01*
X54074000Y-75759500D01*
X54074845Y-75742298D01*
X54077372Y-75725262D01*
X54081557Y-75708555D01*
X54087359Y-75692339D01*
X54094723Y-75676770D01*
X54103577Y-75661997D01*
X54113837Y-75648164D01*
X54125403Y-75635403D01*
X54138164Y-75623837D01*
X54151997Y-75613577D01*
X54166770Y-75604723D01*
X54182339Y-75597359D01*
X54198555Y-75591557D01*
X54215262Y-75587372D01*
X54232298Y-75584845D01*
X54249500Y-75584000D01*
X55950500Y-75584000D01*
X55967702Y-75584845D01*
G37*
G36*
X55967702Y-76854845D02*
G01*
X55984738Y-76857372D01*
X56001445Y-76861557D01*
X56017661Y-76867359D01*
X56033230Y-76874723D01*
X56048003Y-76883577D01*
X56061836Y-76893837D01*
X56074597Y-76905403D01*
X56086163Y-76918164D01*
X56096423Y-76931997D01*
X56105277Y-76946770D01*
X56112641Y-76962339D01*
X56118443Y-76978555D01*
X56122628Y-76995262D01*
X56125155Y-77012298D01*
X56126000Y-77029500D01*
X56126000Y-77380500D01*
X56125155Y-77397702D01*
X56122628Y-77414738D01*
X56118443Y-77431445D01*
X56112641Y-77447661D01*
X56105277Y-77463230D01*
X56096423Y-77478003D01*
X56086163Y-77491836D01*
X56074597Y-77504597D01*
X56061836Y-77516163D01*
X56048003Y-77526423D01*
X56033230Y-77535277D01*
X56017661Y-77542641D01*
X56001445Y-77548443D01*
X55984738Y-77552628D01*
X55967702Y-77555155D01*
X55950500Y-77556000D01*
X54249500Y-77556000D01*
X54232298Y-77555155D01*
X54215262Y-77552628D01*
X54198555Y-77548443D01*
X54182339Y-77542641D01*
X54166770Y-77535277D01*
X54151997Y-77526423D01*
X54138164Y-77516163D01*
X54125403Y-77504597D01*
X54113837Y-77491836D01*
X54103577Y-77478003D01*
X54094723Y-77463230D01*
X54087359Y-77447661D01*
X54081557Y-77431445D01*
X54077372Y-77414738D01*
X54074845Y-77397702D01*
X54074000Y-77380500D01*
X54074000Y-77029500D01*
X54074845Y-77012298D01*
X54077372Y-76995262D01*
X54081557Y-76978555D01*
X54087359Y-76962339D01*
X54094723Y-76946770D01*
X54103577Y-76931997D01*
X54113837Y-76918164D01*
X54125403Y-76905403D01*
X54138164Y-76893837D01*
X54151997Y-76883577D01*
X54166770Y-76874723D01*
X54182339Y-76867359D01*
X54198555Y-76861557D01*
X54215262Y-76857372D01*
X54232298Y-76854845D01*
X54249500Y-76854000D01*
X55950500Y-76854000D01*
X55967702Y-76854845D01*
G37*
G36*
X63163252Y-58270725D02*
G01*
X63177861Y-58272892D01*
X63192188Y-58276480D01*
X63206094Y-58281456D01*
X63219445Y-58287771D01*
X63232113Y-58295364D01*
X63243976Y-58304162D01*
X63254920Y-58314080D01*
X63264838Y-58325024D01*
X63273636Y-58336887D01*
X63281229Y-58349555D01*
X63287544Y-58362906D01*
X63292520Y-58376812D01*
X63296108Y-58391139D01*
X63298275Y-58405748D01*
X63299000Y-58420500D01*
X63299000Y-59721500D01*
X63298275Y-59736252D01*
X63296108Y-59750861D01*
X63292520Y-59765188D01*
X63287544Y-59779094D01*
X63281229Y-59792445D01*
X63273636Y-59805113D01*
X63264838Y-59816976D01*
X63254920Y-59827920D01*
X63243976Y-59837838D01*
X63232113Y-59846636D01*
X63219445Y-59854229D01*
X63206094Y-59860544D01*
X63192188Y-59865520D01*
X63177861Y-59869108D01*
X63163252Y-59871275D01*
X63148500Y-59872000D01*
X62847500Y-59872000D01*
X62832748Y-59871275D01*
X62818139Y-59869108D01*
X62803812Y-59865520D01*
X62789906Y-59860544D01*
X62776555Y-59854229D01*
X62763887Y-59846636D01*
X62752024Y-59837838D01*
X62741080Y-59827920D01*
X62731162Y-59816976D01*
X62722364Y-59805113D01*
X62714771Y-59792445D01*
X62708456Y-59779094D01*
X62703480Y-59765188D01*
X62699892Y-59750861D01*
X62697725Y-59736252D01*
X62697000Y-59721500D01*
X62697000Y-58420500D01*
X62697725Y-58405748D01*
X62699892Y-58391139D01*
X62703480Y-58376812D01*
X62708456Y-58362906D01*
X62714771Y-58349555D01*
X62722364Y-58336887D01*
X62731162Y-58325024D01*
X62741080Y-58314080D01*
X62752024Y-58304162D01*
X62763887Y-58295364D01*
X62776555Y-58287771D01*
X62789906Y-58281456D01*
X62803812Y-58276480D01*
X62818139Y-58272892D01*
X62832748Y-58270725D01*
X62847500Y-58270000D01*
X63148500Y-58270000D01*
X63163252Y-58270725D01*
G37*
G36*
X62363252Y-58270725D02*
G01*
X62377861Y-58272892D01*
X62392188Y-58276480D01*
X62406094Y-58281456D01*
X62419445Y-58287771D01*
X62432113Y-58295364D01*
X62443976Y-58304162D01*
X62454920Y-58314080D01*
X62464838Y-58325024D01*
X62473636Y-58336887D01*
X62481229Y-58349555D01*
X62487544Y-58362906D01*
X62492520Y-58376812D01*
X62496108Y-58391139D01*
X62498275Y-58405748D01*
X62499000Y-58420500D01*
X62499000Y-59721500D01*
X62498275Y-59736252D01*
X62496108Y-59750861D01*
X62492520Y-59765188D01*
X62487544Y-59779094D01*
X62481229Y-59792445D01*
X62473636Y-59805113D01*
X62464838Y-59816976D01*
X62454920Y-59827920D01*
X62443976Y-59837838D01*
X62432113Y-59846636D01*
X62419445Y-59854229D01*
X62406094Y-59860544D01*
X62392188Y-59865520D01*
X62377861Y-59869108D01*
X62363252Y-59871275D01*
X62348500Y-59872000D01*
X62047500Y-59872000D01*
X62032748Y-59871275D01*
X62018139Y-59869108D01*
X62003812Y-59865520D01*
X61989906Y-59860544D01*
X61976555Y-59854229D01*
X61963887Y-59846636D01*
X61952024Y-59837838D01*
X61941080Y-59827920D01*
X61931162Y-59816976D01*
X61922364Y-59805113D01*
X61914771Y-59792445D01*
X61908456Y-59779094D01*
X61903480Y-59765188D01*
X61899892Y-59750861D01*
X61897725Y-59736252D01*
X61897000Y-59721500D01*
X61897000Y-58420500D01*
X61897725Y-58405748D01*
X61899892Y-58391139D01*
X61903480Y-58376812D01*
X61908456Y-58362906D01*
X61914771Y-58349555D01*
X61922364Y-58336887D01*
X61931162Y-58325024D01*
X61941080Y-58314080D01*
X61952024Y-58304162D01*
X61963887Y-58295364D01*
X61976555Y-58287771D01*
X61989906Y-58281456D01*
X62003812Y-58276480D01*
X62018139Y-58272892D01*
X62032748Y-58270725D01*
X62047500Y-58270000D01*
X62348500Y-58270000D01*
X62363252Y-58270725D01*
G37*
G36*
X61563252Y-58270725D02*
G01*
X61577861Y-58272892D01*
X61592188Y-58276480D01*
X61606094Y-58281456D01*
X61619445Y-58287771D01*
X61632113Y-58295364D01*
X61643976Y-58304162D01*
X61654920Y-58314080D01*
X61664838Y-58325024D01*
X61673636Y-58336887D01*
X61681229Y-58349555D01*
X61687544Y-58362906D01*
X61692520Y-58376812D01*
X61696108Y-58391139D01*
X61698275Y-58405748D01*
X61699000Y-58420500D01*
X61699000Y-59721500D01*
X61698275Y-59736252D01*
X61696108Y-59750861D01*
X61692520Y-59765188D01*
X61687544Y-59779094D01*
X61681229Y-59792445D01*
X61673636Y-59805113D01*
X61664838Y-59816976D01*
X61654920Y-59827920D01*
X61643976Y-59837838D01*
X61632113Y-59846636D01*
X61619445Y-59854229D01*
X61606094Y-59860544D01*
X61592188Y-59865520D01*
X61577861Y-59869108D01*
X61563252Y-59871275D01*
X61548500Y-59872000D01*
X61247500Y-59872000D01*
X61232748Y-59871275D01*
X61218139Y-59869108D01*
X61203812Y-59865520D01*
X61189906Y-59860544D01*
X61176555Y-59854229D01*
X61163887Y-59846636D01*
X61152024Y-59837838D01*
X61141080Y-59827920D01*
X61131162Y-59816976D01*
X61122364Y-59805113D01*
X61114771Y-59792445D01*
X61108456Y-59779094D01*
X61103480Y-59765188D01*
X61099892Y-59750861D01*
X61097725Y-59736252D01*
X61097000Y-59721500D01*
X61097000Y-58420500D01*
X61097725Y-58405748D01*
X61099892Y-58391139D01*
X61103480Y-58376812D01*
X61108456Y-58362906D01*
X61114771Y-58349555D01*
X61122364Y-58336887D01*
X61131162Y-58325024D01*
X61141080Y-58314080D01*
X61152024Y-58304162D01*
X61163887Y-58295364D01*
X61176555Y-58287771D01*
X61189906Y-58281456D01*
X61203812Y-58276480D01*
X61218139Y-58272892D01*
X61232748Y-58270725D01*
X61247500Y-58270000D01*
X61548500Y-58270000D01*
X61563252Y-58270725D01*
G37*
G36*
X60763252Y-58270725D02*
G01*
X60777861Y-58272892D01*
X60792188Y-58276480D01*
X60806094Y-58281456D01*
X60819445Y-58287771D01*
X60832113Y-58295364D01*
X60843976Y-58304162D01*
X60854920Y-58314080D01*
X60864838Y-58325024D01*
X60873636Y-58336887D01*
X60881229Y-58349555D01*
X60887544Y-58362906D01*
X60892520Y-58376812D01*
X60896108Y-58391139D01*
X60898275Y-58405748D01*
X60899000Y-58420500D01*
X60899000Y-59721500D01*
X60898275Y-59736252D01*
X60896108Y-59750861D01*
X60892520Y-59765188D01*
X60887544Y-59779094D01*
X60881229Y-59792445D01*
X60873636Y-59805113D01*
X60864838Y-59816976D01*
X60854920Y-59827920D01*
X60843976Y-59837838D01*
X60832113Y-59846636D01*
X60819445Y-59854229D01*
X60806094Y-59860544D01*
X60792188Y-59865520D01*
X60777861Y-59869108D01*
X60763252Y-59871275D01*
X60748500Y-59872000D01*
X60447500Y-59872000D01*
X60432748Y-59871275D01*
X60418139Y-59869108D01*
X60403812Y-59865520D01*
X60389906Y-59860544D01*
X60376555Y-59854229D01*
X60363887Y-59846636D01*
X60352024Y-59837838D01*
X60341080Y-59827920D01*
X60331162Y-59816976D01*
X60322364Y-59805113D01*
X60314771Y-59792445D01*
X60308456Y-59779094D01*
X60303480Y-59765188D01*
X60299892Y-59750861D01*
X60297725Y-59736252D01*
X60297000Y-59721500D01*
X60297000Y-58420500D01*
X60297725Y-58405748D01*
X60299892Y-58391139D01*
X60303480Y-58376812D01*
X60308456Y-58362906D01*
X60314771Y-58349555D01*
X60322364Y-58336887D01*
X60331162Y-58325024D01*
X60341080Y-58314080D01*
X60352024Y-58304162D01*
X60363887Y-58295364D01*
X60376555Y-58287771D01*
X60389906Y-58281456D01*
X60403812Y-58276480D01*
X60418139Y-58272892D01*
X60432748Y-58270725D01*
X60447500Y-58270000D01*
X60748500Y-58270000D01*
X60763252Y-58270725D01*
G37*
G36*
X59963252Y-58270725D02*
G01*
X59977861Y-58272892D01*
X59992188Y-58276480D01*
X60006094Y-58281456D01*
X60019445Y-58287771D01*
X60032113Y-58295364D01*
X60043976Y-58304162D01*
X60054920Y-58314080D01*
X60064838Y-58325024D01*
X60073636Y-58336887D01*
X60081229Y-58349555D01*
X60087544Y-58362906D01*
X60092520Y-58376812D01*
X60096108Y-58391139D01*
X60098275Y-58405748D01*
X60099000Y-58420500D01*
X60099000Y-59721500D01*
X60098275Y-59736252D01*
X60096108Y-59750861D01*
X60092520Y-59765188D01*
X60087544Y-59779094D01*
X60081229Y-59792445D01*
X60073636Y-59805113D01*
X60064838Y-59816976D01*
X60054920Y-59827920D01*
X60043976Y-59837838D01*
X60032113Y-59846636D01*
X60019445Y-59854229D01*
X60006094Y-59860544D01*
X59992188Y-59865520D01*
X59977861Y-59869108D01*
X59963252Y-59871275D01*
X59948500Y-59872000D01*
X59647500Y-59872000D01*
X59632748Y-59871275D01*
X59618139Y-59869108D01*
X59603812Y-59865520D01*
X59589906Y-59860544D01*
X59576555Y-59854229D01*
X59563887Y-59846636D01*
X59552024Y-59837838D01*
X59541080Y-59827920D01*
X59531162Y-59816976D01*
X59522364Y-59805113D01*
X59514771Y-59792445D01*
X59508456Y-59779094D01*
X59503480Y-59765188D01*
X59499892Y-59750861D01*
X59497725Y-59736252D01*
X59497000Y-59721500D01*
X59497000Y-58420500D01*
X59497725Y-58405748D01*
X59499892Y-58391139D01*
X59503480Y-58376812D01*
X59508456Y-58362906D01*
X59514771Y-58349555D01*
X59522364Y-58336887D01*
X59531162Y-58325024D01*
X59541080Y-58314080D01*
X59552024Y-58304162D01*
X59563887Y-58295364D01*
X59576555Y-58287771D01*
X59589906Y-58281456D01*
X59603812Y-58276480D01*
X59618139Y-58272892D01*
X59632748Y-58270725D01*
X59647500Y-58270000D01*
X59948500Y-58270000D01*
X59963252Y-58270725D01*
G37*
G36*
X59163252Y-58270725D02*
G01*
X59177861Y-58272892D01*
X59192188Y-58276480D01*
X59206094Y-58281456D01*
X59219445Y-58287771D01*
X59232113Y-58295364D01*
X59243976Y-58304162D01*
X59254920Y-58314080D01*
X59264838Y-58325024D01*
X59273636Y-58336887D01*
X59281229Y-58349555D01*
X59287544Y-58362906D01*
X59292520Y-58376812D01*
X59296108Y-58391139D01*
X59298275Y-58405748D01*
X59299000Y-58420500D01*
X59299000Y-59721500D01*
X59298275Y-59736252D01*
X59296108Y-59750861D01*
X59292520Y-59765188D01*
X59287544Y-59779094D01*
X59281229Y-59792445D01*
X59273636Y-59805113D01*
X59264838Y-59816976D01*
X59254920Y-59827920D01*
X59243976Y-59837838D01*
X59232113Y-59846636D01*
X59219445Y-59854229D01*
X59206094Y-59860544D01*
X59192188Y-59865520D01*
X59177861Y-59869108D01*
X59163252Y-59871275D01*
X59148500Y-59872000D01*
X58847500Y-59872000D01*
X58832748Y-59871275D01*
X58818139Y-59869108D01*
X58803812Y-59865520D01*
X58789906Y-59860544D01*
X58776555Y-59854229D01*
X58763887Y-59846636D01*
X58752024Y-59837838D01*
X58741080Y-59827920D01*
X58731162Y-59816976D01*
X58722364Y-59805113D01*
X58714771Y-59792445D01*
X58708456Y-59779094D01*
X58703480Y-59765188D01*
X58699892Y-59750861D01*
X58697725Y-59736252D01*
X58697000Y-59721500D01*
X58697000Y-58420500D01*
X58697725Y-58405748D01*
X58699892Y-58391139D01*
X58703480Y-58376812D01*
X58708456Y-58362906D01*
X58714771Y-58349555D01*
X58722364Y-58336887D01*
X58731162Y-58325024D01*
X58741080Y-58314080D01*
X58752024Y-58304162D01*
X58763887Y-58295364D01*
X58776555Y-58287771D01*
X58789906Y-58281456D01*
X58803812Y-58276480D01*
X58818139Y-58272892D01*
X58832748Y-58270725D01*
X58847500Y-58270000D01*
X59148500Y-58270000D01*
X59163252Y-58270725D01*
G37*
G36*
X58363252Y-58270725D02*
G01*
X58377861Y-58272892D01*
X58392188Y-58276480D01*
X58406094Y-58281456D01*
X58419445Y-58287771D01*
X58432113Y-58295364D01*
X58443976Y-58304162D01*
X58454920Y-58314080D01*
X58464838Y-58325024D01*
X58473636Y-58336887D01*
X58481229Y-58349555D01*
X58487544Y-58362906D01*
X58492520Y-58376812D01*
X58496108Y-58391139D01*
X58498275Y-58405748D01*
X58499000Y-58420500D01*
X58499000Y-59721500D01*
X58498275Y-59736252D01*
X58496108Y-59750861D01*
X58492520Y-59765188D01*
X58487544Y-59779094D01*
X58481229Y-59792445D01*
X58473636Y-59805113D01*
X58464838Y-59816976D01*
X58454920Y-59827920D01*
X58443976Y-59837838D01*
X58432113Y-59846636D01*
X58419445Y-59854229D01*
X58406094Y-59860544D01*
X58392188Y-59865520D01*
X58377861Y-59869108D01*
X58363252Y-59871275D01*
X58348500Y-59872000D01*
X58047500Y-59872000D01*
X58032748Y-59871275D01*
X58018139Y-59869108D01*
X58003812Y-59865520D01*
X57989906Y-59860544D01*
X57976555Y-59854229D01*
X57963887Y-59846636D01*
X57952024Y-59837838D01*
X57941080Y-59827920D01*
X57931162Y-59816976D01*
X57922364Y-59805113D01*
X57914771Y-59792445D01*
X57908456Y-59779094D01*
X57903480Y-59765188D01*
X57899892Y-59750861D01*
X57897725Y-59736252D01*
X57897000Y-59721500D01*
X57897000Y-58420500D01*
X57897725Y-58405748D01*
X57899892Y-58391139D01*
X57903480Y-58376812D01*
X57908456Y-58362906D01*
X57914771Y-58349555D01*
X57922364Y-58336887D01*
X57931162Y-58325024D01*
X57941080Y-58314080D01*
X57952024Y-58304162D01*
X57963887Y-58295364D01*
X57976555Y-58287771D01*
X57989906Y-58281456D01*
X58003812Y-58276480D01*
X58018139Y-58272892D01*
X58032748Y-58270725D01*
X58047500Y-58270000D01*
X58348500Y-58270000D01*
X58363252Y-58270725D01*
G37*
G36*
X57563252Y-58270725D02*
G01*
X57577861Y-58272892D01*
X57592188Y-58276480D01*
X57606094Y-58281456D01*
X57619445Y-58287771D01*
X57632113Y-58295364D01*
X57643976Y-58304162D01*
X57654920Y-58314080D01*
X57664838Y-58325024D01*
X57673636Y-58336887D01*
X57681229Y-58349555D01*
X57687544Y-58362906D01*
X57692520Y-58376812D01*
X57696108Y-58391139D01*
X57698275Y-58405748D01*
X57699000Y-58420500D01*
X57699000Y-59721500D01*
X57698275Y-59736252D01*
X57696108Y-59750861D01*
X57692520Y-59765188D01*
X57687544Y-59779094D01*
X57681229Y-59792445D01*
X57673636Y-59805113D01*
X57664838Y-59816976D01*
X57654920Y-59827920D01*
X57643976Y-59837838D01*
X57632113Y-59846636D01*
X57619445Y-59854229D01*
X57606094Y-59860544D01*
X57592188Y-59865520D01*
X57577861Y-59869108D01*
X57563252Y-59871275D01*
X57548500Y-59872000D01*
X57247500Y-59872000D01*
X57232748Y-59871275D01*
X57218139Y-59869108D01*
X57203812Y-59865520D01*
X57189906Y-59860544D01*
X57176555Y-59854229D01*
X57163887Y-59846636D01*
X57152024Y-59837838D01*
X57141080Y-59827920D01*
X57131162Y-59816976D01*
X57122364Y-59805113D01*
X57114771Y-59792445D01*
X57108456Y-59779094D01*
X57103480Y-59765188D01*
X57099892Y-59750861D01*
X57097725Y-59736252D01*
X57097000Y-59721500D01*
X57097000Y-58420500D01*
X57097725Y-58405748D01*
X57099892Y-58391139D01*
X57103480Y-58376812D01*
X57108456Y-58362906D01*
X57114771Y-58349555D01*
X57122364Y-58336887D01*
X57131162Y-58325024D01*
X57141080Y-58314080D01*
X57152024Y-58304162D01*
X57163887Y-58295364D01*
X57176555Y-58287771D01*
X57189906Y-58281456D01*
X57203812Y-58276480D01*
X57218139Y-58272892D01*
X57232748Y-58270725D01*
X57247500Y-58270000D01*
X57548500Y-58270000D01*
X57563252Y-58270725D01*
G37*
G36*
X56688252Y-60145725D02*
G01*
X56702861Y-60147892D01*
X56717188Y-60151480D01*
X56731094Y-60156456D01*
X56744445Y-60162771D01*
X56757113Y-60170364D01*
X56768976Y-60179162D01*
X56779920Y-60189080D01*
X56789838Y-60200024D01*
X56798636Y-60211887D01*
X56806229Y-60224555D01*
X56812544Y-60237906D01*
X56817520Y-60251812D01*
X56821108Y-60266139D01*
X56823275Y-60280748D01*
X56824000Y-60295500D01*
X56824000Y-60596500D01*
X56823275Y-60611252D01*
X56821108Y-60625861D01*
X56817520Y-60640188D01*
X56812544Y-60654094D01*
X56806229Y-60667445D01*
X56798636Y-60680113D01*
X56789838Y-60691976D01*
X56779920Y-60702920D01*
X56768976Y-60712838D01*
X56757113Y-60721636D01*
X56744445Y-60729229D01*
X56731094Y-60735544D01*
X56717188Y-60740520D01*
X56702861Y-60744108D01*
X56688252Y-60746275D01*
X56673500Y-60747000D01*
X55372500Y-60747000D01*
X55357748Y-60746275D01*
X55343139Y-60744108D01*
X55328812Y-60740520D01*
X55314906Y-60735544D01*
X55301555Y-60729229D01*
X55288887Y-60721636D01*
X55277024Y-60712838D01*
X55266080Y-60702920D01*
X55256162Y-60691976D01*
X55247364Y-60680113D01*
X55239771Y-60667445D01*
X55233456Y-60654094D01*
X55228480Y-60640188D01*
X55224892Y-60625861D01*
X55222725Y-60611252D01*
X55222000Y-60596500D01*
X55222000Y-60295500D01*
X55222725Y-60280748D01*
X55224892Y-60266139D01*
X55228480Y-60251812D01*
X55233456Y-60237906D01*
X55239771Y-60224555D01*
X55247364Y-60211887D01*
X55256162Y-60200024D01*
X55266080Y-60189080D01*
X55277024Y-60179162D01*
X55288887Y-60170364D01*
X55301555Y-60162771D01*
X55314906Y-60156456D01*
X55328812Y-60151480D01*
X55343139Y-60147892D01*
X55357748Y-60145725D01*
X55372500Y-60145000D01*
X56673500Y-60145000D01*
X56688252Y-60145725D01*
G37*
G36*
X56688252Y-60945725D02*
G01*
X56702861Y-60947892D01*
X56717188Y-60951480D01*
X56731094Y-60956456D01*
X56744445Y-60962771D01*
X56757113Y-60970364D01*
X56768976Y-60979162D01*
X56779920Y-60989080D01*
X56789838Y-61000024D01*
X56798636Y-61011887D01*
X56806229Y-61024555D01*
X56812544Y-61037906D01*
X56817520Y-61051812D01*
X56821108Y-61066139D01*
X56823275Y-61080748D01*
X56824000Y-61095500D01*
X56824000Y-61396500D01*
X56823275Y-61411252D01*
X56821108Y-61425861D01*
X56817520Y-61440188D01*
X56812544Y-61454094D01*
X56806229Y-61467445D01*
X56798636Y-61480113D01*
X56789838Y-61491976D01*
X56779920Y-61502920D01*
X56768976Y-61512838D01*
X56757113Y-61521636D01*
X56744445Y-61529229D01*
X56731094Y-61535544D01*
X56717188Y-61540520D01*
X56702861Y-61544108D01*
X56688252Y-61546275D01*
X56673500Y-61547000D01*
X55372500Y-61547000D01*
X55357748Y-61546275D01*
X55343139Y-61544108D01*
X55328812Y-61540520D01*
X55314906Y-61535544D01*
X55301555Y-61529229D01*
X55288887Y-61521636D01*
X55277024Y-61512838D01*
X55266080Y-61502920D01*
X55256162Y-61491976D01*
X55247364Y-61480113D01*
X55239771Y-61467445D01*
X55233456Y-61454094D01*
X55228480Y-61440188D01*
X55224892Y-61425861D01*
X55222725Y-61411252D01*
X55222000Y-61396500D01*
X55222000Y-61095500D01*
X55222725Y-61080748D01*
X55224892Y-61066139D01*
X55228480Y-61051812D01*
X55233456Y-61037906D01*
X55239771Y-61024555D01*
X55247364Y-61011887D01*
X55256162Y-61000024D01*
X55266080Y-60989080D01*
X55277024Y-60979162D01*
X55288887Y-60970364D01*
X55301555Y-60962771D01*
X55314906Y-60956456D01*
X55328812Y-60951480D01*
X55343139Y-60947892D01*
X55357748Y-60945725D01*
X55372500Y-60945000D01*
X56673500Y-60945000D01*
X56688252Y-60945725D01*
G37*
G36*
X56688252Y-61745725D02*
G01*
X56702861Y-61747892D01*
X56717188Y-61751480D01*
X56731094Y-61756456D01*
X56744445Y-61762771D01*
X56757113Y-61770364D01*
X56768976Y-61779162D01*
X56779920Y-61789080D01*
X56789838Y-61800024D01*
X56798636Y-61811887D01*
X56806229Y-61824555D01*
X56812544Y-61837906D01*
X56817520Y-61851812D01*
X56821108Y-61866139D01*
X56823275Y-61880748D01*
X56824000Y-61895500D01*
X56824000Y-62196500D01*
X56823275Y-62211252D01*
X56821108Y-62225861D01*
X56817520Y-62240188D01*
X56812544Y-62254094D01*
X56806229Y-62267445D01*
X56798636Y-62280113D01*
X56789838Y-62291976D01*
X56779920Y-62302920D01*
X56768976Y-62312838D01*
X56757113Y-62321636D01*
X56744445Y-62329229D01*
X56731094Y-62335544D01*
X56717188Y-62340520D01*
X56702861Y-62344108D01*
X56688252Y-62346275D01*
X56673500Y-62347000D01*
X55372500Y-62347000D01*
X55357748Y-62346275D01*
X55343139Y-62344108D01*
X55328812Y-62340520D01*
X55314906Y-62335544D01*
X55301555Y-62329229D01*
X55288887Y-62321636D01*
X55277024Y-62312838D01*
X55266080Y-62302920D01*
X55256162Y-62291976D01*
X55247364Y-62280113D01*
X55239771Y-62267445D01*
X55233456Y-62254094D01*
X55228480Y-62240188D01*
X55224892Y-62225861D01*
X55222725Y-62211252D01*
X55222000Y-62196500D01*
X55222000Y-61895500D01*
X55222725Y-61880748D01*
X55224892Y-61866139D01*
X55228480Y-61851812D01*
X55233456Y-61837906D01*
X55239771Y-61824555D01*
X55247364Y-61811887D01*
X55256162Y-61800024D01*
X55266080Y-61789080D01*
X55277024Y-61779162D01*
X55288887Y-61770364D01*
X55301555Y-61762771D01*
X55314906Y-61756456D01*
X55328812Y-61751480D01*
X55343139Y-61747892D01*
X55357748Y-61745725D01*
X55372500Y-61745000D01*
X56673500Y-61745000D01*
X56688252Y-61745725D01*
G37*
G36*
X56688252Y-62545725D02*
G01*
X56702861Y-62547892D01*
X56717188Y-62551480D01*
X56731094Y-62556456D01*
X56744445Y-62562771D01*
X56757113Y-62570364D01*
X56768976Y-62579162D01*
X56779920Y-62589080D01*
X56789838Y-62600024D01*
X56798636Y-62611887D01*
X56806229Y-62624555D01*
X56812544Y-62637906D01*
X56817520Y-62651812D01*
X56821108Y-62666139D01*
X56823275Y-62680748D01*
X56824000Y-62695500D01*
X56824000Y-62996500D01*
X56823275Y-63011252D01*
X56821108Y-63025861D01*
X56817520Y-63040188D01*
X56812544Y-63054094D01*
X56806229Y-63067445D01*
X56798636Y-63080113D01*
X56789838Y-63091976D01*
X56779920Y-63102920D01*
X56768976Y-63112838D01*
X56757113Y-63121636D01*
X56744445Y-63129229D01*
X56731094Y-63135544D01*
X56717188Y-63140520D01*
X56702861Y-63144108D01*
X56688252Y-63146275D01*
X56673500Y-63147000D01*
X55372500Y-63147000D01*
X55357748Y-63146275D01*
X55343139Y-63144108D01*
X55328812Y-63140520D01*
X55314906Y-63135544D01*
X55301555Y-63129229D01*
X55288887Y-63121636D01*
X55277024Y-63112838D01*
X55266080Y-63102920D01*
X55256162Y-63091976D01*
X55247364Y-63080113D01*
X55239771Y-63067445D01*
X55233456Y-63054094D01*
X55228480Y-63040188D01*
X55224892Y-63025861D01*
X55222725Y-63011252D01*
X55222000Y-62996500D01*
X55222000Y-62695500D01*
X55222725Y-62680748D01*
X55224892Y-62666139D01*
X55228480Y-62651812D01*
X55233456Y-62637906D01*
X55239771Y-62624555D01*
X55247364Y-62611887D01*
X55256162Y-62600024D01*
X55266080Y-62589080D01*
X55277024Y-62579162D01*
X55288887Y-62570364D01*
X55301555Y-62562771D01*
X55314906Y-62556456D01*
X55328812Y-62551480D01*
X55343139Y-62547892D01*
X55357748Y-62545725D01*
X55372500Y-62545000D01*
X56673500Y-62545000D01*
X56688252Y-62545725D01*
G37*
G36*
X56688252Y-63345725D02*
G01*
X56702861Y-63347892D01*
X56717188Y-63351480D01*
X56731094Y-63356456D01*
X56744445Y-63362771D01*
X56757113Y-63370364D01*
X56768976Y-63379162D01*
X56779920Y-63389080D01*
X56789838Y-63400024D01*
X56798636Y-63411887D01*
X56806229Y-63424555D01*
X56812544Y-63437906D01*
X56817520Y-63451812D01*
X56821108Y-63466139D01*
X56823275Y-63480748D01*
X56824000Y-63495500D01*
X56824000Y-63796500D01*
X56823275Y-63811252D01*
X56821108Y-63825861D01*
X56817520Y-63840188D01*
X56812544Y-63854094D01*
X56806229Y-63867445D01*
X56798636Y-63880113D01*
X56789838Y-63891976D01*
X56779920Y-63902920D01*
X56768976Y-63912838D01*
X56757113Y-63921636D01*
X56744445Y-63929229D01*
X56731094Y-63935544D01*
X56717188Y-63940520D01*
X56702861Y-63944108D01*
X56688252Y-63946275D01*
X56673500Y-63947000D01*
X55372500Y-63947000D01*
X55357748Y-63946275D01*
X55343139Y-63944108D01*
X55328812Y-63940520D01*
X55314906Y-63935544D01*
X55301555Y-63929229D01*
X55288887Y-63921636D01*
X55277024Y-63912838D01*
X55266080Y-63902920D01*
X55256162Y-63891976D01*
X55247364Y-63880113D01*
X55239771Y-63867445D01*
X55233456Y-63854094D01*
X55228480Y-63840188D01*
X55224892Y-63825861D01*
X55222725Y-63811252D01*
X55222000Y-63796500D01*
X55222000Y-63495500D01*
X55222725Y-63480748D01*
X55224892Y-63466139D01*
X55228480Y-63451812D01*
X55233456Y-63437906D01*
X55239771Y-63424555D01*
X55247364Y-63411887D01*
X55256162Y-63400024D01*
X55266080Y-63389080D01*
X55277024Y-63379162D01*
X55288887Y-63370364D01*
X55301555Y-63362771D01*
X55314906Y-63356456D01*
X55328812Y-63351480D01*
X55343139Y-63347892D01*
X55357748Y-63345725D01*
X55372500Y-63345000D01*
X56673500Y-63345000D01*
X56688252Y-63345725D01*
G37*
G36*
X56688252Y-64145725D02*
G01*
X56702861Y-64147892D01*
X56717188Y-64151480D01*
X56731094Y-64156456D01*
X56744445Y-64162771D01*
X56757113Y-64170364D01*
X56768976Y-64179162D01*
X56779920Y-64189080D01*
X56789838Y-64200024D01*
X56798636Y-64211887D01*
X56806229Y-64224555D01*
X56812544Y-64237906D01*
X56817520Y-64251812D01*
X56821108Y-64266139D01*
X56823275Y-64280748D01*
X56824000Y-64295500D01*
X56824000Y-64596500D01*
X56823275Y-64611252D01*
X56821108Y-64625861D01*
X56817520Y-64640188D01*
X56812544Y-64654094D01*
X56806229Y-64667445D01*
X56798636Y-64680113D01*
X56789838Y-64691976D01*
X56779920Y-64702920D01*
X56768976Y-64712838D01*
X56757113Y-64721636D01*
X56744445Y-64729229D01*
X56731094Y-64735544D01*
X56717188Y-64740520D01*
X56702861Y-64744108D01*
X56688252Y-64746275D01*
X56673500Y-64747000D01*
X55372500Y-64747000D01*
X55357748Y-64746275D01*
X55343139Y-64744108D01*
X55328812Y-64740520D01*
X55314906Y-64735544D01*
X55301555Y-64729229D01*
X55288887Y-64721636D01*
X55277024Y-64712838D01*
X55266080Y-64702920D01*
X55256162Y-64691976D01*
X55247364Y-64680113D01*
X55239771Y-64667445D01*
X55233456Y-64654094D01*
X55228480Y-64640188D01*
X55224892Y-64625861D01*
X55222725Y-64611252D01*
X55222000Y-64596500D01*
X55222000Y-64295500D01*
X55222725Y-64280748D01*
X55224892Y-64266139D01*
X55228480Y-64251812D01*
X55233456Y-64237906D01*
X55239771Y-64224555D01*
X55247364Y-64211887D01*
X55256162Y-64200024D01*
X55266080Y-64189080D01*
X55277024Y-64179162D01*
X55288887Y-64170364D01*
X55301555Y-64162771D01*
X55314906Y-64156456D01*
X55328812Y-64151480D01*
X55343139Y-64147892D01*
X55357748Y-64145725D01*
X55372500Y-64145000D01*
X56673500Y-64145000D01*
X56688252Y-64145725D01*
G37*
G36*
X56688252Y-64945725D02*
G01*
X56702861Y-64947892D01*
X56717188Y-64951480D01*
X56731094Y-64956456D01*
X56744445Y-64962771D01*
X56757113Y-64970364D01*
X56768976Y-64979162D01*
X56779920Y-64989080D01*
X56789838Y-65000024D01*
X56798636Y-65011887D01*
X56806229Y-65024555D01*
X56812544Y-65037906D01*
X56817520Y-65051812D01*
X56821108Y-65066139D01*
X56823275Y-65080748D01*
X56824000Y-65095500D01*
X56824000Y-65396500D01*
X56823275Y-65411252D01*
X56821108Y-65425861D01*
X56817520Y-65440188D01*
X56812544Y-65454094D01*
X56806229Y-65467445D01*
X56798636Y-65480113D01*
X56789838Y-65491976D01*
X56779920Y-65502920D01*
X56768976Y-65512838D01*
X56757113Y-65521636D01*
X56744445Y-65529229D01*
X56731094Y-65535544D01*
X56717188Y-65540520D01*
X56702861Y-65544108D01*
X56688252Y-65546275D01*
X56673500Y-65547000D01*
X55372500Y-65547000D01*
X55357748Y-65546275D01*
X55343139Y-65544108D01*
X55328812Y-65540520D01*
X55314906Y-65535544D01*
X55301555Y-65529229D01*
X55288887Y-65521636D01*
X55277024Y-65512838D01*
X55266080Y-65502920D01*
X55256162Y-65491976D01*
X55247364Y-65480113D01*
X55239771Y-65467445D01*
X55233456Y-65454094D01*
X55228480Y-65440188D01*
X55224892Y-65425861D01*
X55222725Y-65411252D01*
X55222000Y-65396500D01*
X55222000Y-65095500D01*
X55222725Y-65080748D01*
X55224892Y-65066139D01*
X55228480Y-65051812D01*
X55233456Y-65037906D01*
X55239771Y-65024555D01*
X55247364Y-65011887D01*
X55256162Y-65000024D01*
X55266080Y-64989080D01*
X55277024Y-64979162D01*
X55288887Y-64970364D01*
X55301555Y-64962771D01*
X55314906Y-64956456D01*
X55328812Y-64951480D01*
X55343139Y-64947892D01*
X55357748Y-64945725D01*
X55372500Y-64945000D01*
X56673500Y-64945000D01*
X56688252Y-64945725D01*
G37*
G36*
X56688252Y-65745725D02*
G01*
X56702861Y-65747892D01*
X56717188Y-65751480D01*
X56731094Y-65756456D01*
X56744445Y-65762771D01*
X56757113Y-65770364D01*
X56768976Y-65779162D01*
X56779920Y-65789080D01*
X56789838Y-65800024D01*
X56798636Y-65811887D01*
X56806229Y-65824555D01*
X56812544Y-65837906D01*
X56817520Y-65851812D01*
X56821108Y-65866139D01*
X56823275Y-65880748D01*
X56824000Y-65895500D01*
X56824000Y-66196500D01*
X56823275Y-66211252D01*
X56821108Y-66225861D01*
X56817520Y-66240188D01*
X56812544Y-66254094D01*
X56806229Y-66267445D01*
X56798636Y-66280113D01*
X56789838Y-66291976D01*
X56779920Y-66302920D01*
X56768976Y-66312838D01*
X56757113Y-66321636D01*
X56744445Y-66329229D01*
X56731094Y-66335544D01*
X56717188Y-66340520D01*
X56702861Y-66344108D01*
X56688252Y-66346275D01*
X56673500Y-66347000D01*
X55372500Y-66347000D01*
X55357748Y-66346275D01*
X55343139Y-66344108D01*
X55328812Y-66340520D01*
X55314906Y-66335544D01*
X55301555Y-66329229D01*
X55288887Y-66321636D01*
X55277024Y-66312838D01*
X55266080Y-66302920D01*
X55256162Y-66291976D01*
X55247364Y-66280113D01*
X55239771Y-66267445D01*
X55233456Y-66254094D01*
X55228480Y-66240188D01*
X55224892Y-66225861D01*
X55222725Y-66211252D01*
X55222000Y-66196500D01*
X55222000Y-65895500D01*
X55222725Y-65880748D01*
X55224892Y-65866139D01*
X55228480Y-65851812D01*
X55233456Y-65837906D01*
X55239771Y-65824555D01*
X55247364Y-65811887D01*
X55256162Y-65800024D01*
X55266080Y-65789080D01*
X55277024Y-65779162D01*
X55288887Y-65770364D01*
X55301555Y-65762771D01*
X55314906Y-65756456D01*
X55328812Y-65751480D01*
X55343139Y-65747892D01*
X55357748Y-65745725D01*
X55372500Y-65745000D01*
X56673500Y-65745000D01*
X56688252Y-65745725D01*
G37*
G36*
X57563252Y-66620725D02*
G01*
X57577861Y-66622892D01*
X57592188Y-66626480D01*
X57606094Y-66631456D01*
X57619445Y-66637771D01*
X57632113Y-66645364D01*
X57643976Y-66654162D01*
X57654920Y-66664080D01*
X57664838Y-66675024D01*
X57673636Y-66686887D01*
X57681229Y-66699555D01*
X57687544Y-66712906D01*
X57692520Y-66726812D01*
X57696108Y-66741139D01*
X57698275Y-66755748D01*
X57699000Y-66770500D01*
X57699000Y-68071500D01*
X57698275Y-68086252D01*
X57696108Y-68100861D01*
X57692520Y-68115188D01*
X57687544Y-68129094D01*
X57681229Y-68142445D01*
X57673636Y-68155113D01*
X57664838Y-68166976D01*
X57654920Y-68177920D01*
X57643976Y-68187838D01*
X57632113Y-68196636D01*
X57619445Y-68204229D01*
X57606094Y-68210544D01*
X57592188Y-68215520D01*
X57577861Y-68219108D01*
X57563252Y-68221275D01*
X57548500Y-68222000D01*
X57247500Y-68222000D01*
X57232748Y-68221275D01*
X57218139Y-68219108D01*
X57203812Y-68215520D01*
X57189906Y-68210544D01*
X57176555Y-68204229D01*
X57163887Y-68196636D01*
X57152024Y-68187838D01*
X57141080Y-68177920D01*
X57131162Y-68166976D01*
X57122364Y-68155113D01*
X57114771Y-68142445D01*
X57108456Y-68129094D01*
X57103480Y-68115188D01*
X57099892Y-68100861D01*
X57097725Y-68086252D01*
X57097000Y-68071500D01*
X57097000Y-66770500D01*
X57097725Y-66755748D01*
X57099892Y-66741139D01*
X57103480Y-66726812D01*
X57108456Y-66712906D01*
X57114771Y-66699555D01*
X57122364Y-66686887D01*
X57131162Y-66675024D01*
X57141080Y-66664080D01*
X57152024Y-66654162D01*
X57163887Y-66645364D01*
X57176555Y-66637771D01*
X57189906Y-66631456D01*
X57203812Y-66626480D01*
X57218139Y-66622892D01*
X57232748Y-66620725D01*
X57247500Y-66620000D01*
X57548500Y-66620000D01*
X57563252Y-66620725D01*
G37*
G36*
X58363252Y-66620725D02*
G01*
X58377861Y-66622892D01*
X58392188Y-66626480D01*
X58406094Y-66631456D01*
X58419445Y-66637771D01*
X58432113Y-66645364D01*
X58443976Y-66654162D01*
X58454920Y-66664080D01*
X58464838Y-66675024D01*
X58473636Y-66686887D01*
X58481229Y-66699555D01*
X58487544Y-66712906D01*
X58492520Y-66726812D01*
X58496108Y-66741139D01*
X58498275Y-66755748D01*
X58499000Y-66770500D01*
X58499000Y-68071500D01*
X58498275Y-68086252D01*
X58496108Y-68100861D01*
X58492520Y-68115188D01*
X58487544Y-68129094D01*
X58481229Y-68142445D01*
X58473636Y-68155113D01*
X58464838Y-68166976D01*
X58454920Y-68177920D01*
X58443976Y-68187838D01*
X58432113Y-68196636D01*
X58419445Y-68204229D01*
X58406094Y-68210544D01*
X58392188Y-68215520D01*
X58377861Y-68219108D01*
X58363252Y-68221275D01*
X58348500Y-68222000D01*
X58047500Y-68222000D01*
X58032748Y-68221275D01*
X58018139Y-68219108D01*
X58003812Y-68215520D01*
X57989906Y-68210544D01*
X57976555Y-68204229D01*
X57963887Y-68196636D01*
X57952024Y-68187838D01*
X57941080Y-68177920D01*
X57931162Y-68166976D01*
X57922364Y-68155113D01*
X57914771Y-68142445D01*
X57908456Y-68129094D01*
X57903480Y-68115188D01*
X57899892Y-68100861D01*
X57897725Y-68086252D01*
X57897000Y-68071500D01*
X57897000Y-66770500D01*
X57897725Y-66755748D01*
X57899892Y-66741139D01*
X57903480Y-66726812D01*
X57908456Y-66712906D01*
X57914771Y-66699555D01*
X57922364Y-66686887D01*
X57931162Y-66675024D01*
X57941080Y-66664080D01*
X57952024Y-66654162D01*
X57963887Y-66645364D01*
X57976555Y-66637771D01*
X57989906Y-66631456D01*
X58003812Y-66626480D01*
X58018139Y-66622892D01*
X58032748Y-66620725D01*
X58047500Y-66620000D01*
X58348500Y-66620000D01*
X58363252Y-66620725D01*
G37*
G36*
X59163252Y-66620725D02*
G01*
X59177861Y-66622892D01*
X59192188Y-66626480D01*
X59206094Y-66631456D01*
X59219445Y-66637771D01*
X59232113Y-66645364D01*
X59243976Y-66654162D01*
X59254920Y-66664080D01*
X59264838Y-66675024D01*
X59273636Y-66686887D01*
X59281229Y-66699555D01*
X59287544Y-66712906D01*
X59292520Y-66726812D01*
X59296108Y-66741139D01*
X59298275Y-66755748D01*
X59299000Y-66770500D01*
X59299000Y-68071500D01*
X59298275Y-68086252D01*
X59296108Y-68100861D01*
X59292520Y-68115188D01*
X59287544Y-68129094D01*
X59281229Y-68142445D01*
X59273636Y-68155113D01*
X59264838Y-68166976D01*
X59254920Y-68177920D01*
X59243976Y-68187838D01*
X59232113Y-68196636D01*
X59219445Y-68204229D01*
X59206094Y-68210544D01*
X59192188Y-68215520D01*
X59177861Y-68219108D01*
X59163252Y-68221275D01*
X59148500Y-68222000D01*
X58847500Y-68222000D01*
X58832748Y-68221275D01*
X58818139Y-68219108D01*
X58803812Y-68215520D01*
X58789906Y-68210544D01*
X58776555Y-68204229D01*
X58763887Y-68196636D01*
X58752024Y-68187838D01*
X58741080Y-68177920D01*
X58731162Y-68166976D01*
X58722364Y-68155113D01*
X58714771Y-68142445D01*
X58708456Y-68129094D01*
X58703480Y-68115188D01*
X58699892Y-68100861D01*
X58697725Y-68086252D01*
X58697000Y-68071500D01*
X58697000Y-66770500D01*
X58697725Y-66755748D01*
X58699892Y-66741139D01*
X58703480Y-66726812D01*
X58708456Y-66712906D01*
X58714771Y-66699555D01*
X58722364Y-66686887D01*
X58731162Y-66675024D01*
X58741080Y-66664080D01*
X58752024Y-66654162D01*
X58763887Y-66645364D01*
X58776555Y-66637771D01*
X58789906Y-66631456D01*
X58803812Y-66626480D01*
X58818139Y-66622892D01*
X58832748Y-66620725D01*
X58847500Y-66620000D01*
X59148500Y-66620000D01*
X59163252Y-66620725D01*
G37*
G36*
X59963252Y-66620725D02*
G01*
X59977861Y-66622892D01*
X59992188Y-66626480D01*
X60006094Y-66631456D01*
X60019445Y-66637771D01*
X60032113Y-66645364D01*
X60043976Y-66654162D01*
X60054920Y-66664080D01*
X60064838Y-66675024D01*
X60073636Y-66686887D01*
X60081229Y-66699555D01*
X60087544Y-66712906D01*
X60092520Y-66726812D01*
X60096108Y-66741139D01*
X60098275Y-66755748D01*
X60099000Y-66770500D01*
X60099000Y-68071500D01*
X60098275Y-68086252D01*
X60096108Y-68100861D01*
X60092520Y-68115188D01*
X60087544Y-68129094D01*
X60081229Y-68142445D01*
X60073636Y-68155113D01*
X60064838Y-68166976D01*
X60054920Y-68177920D01*
X60043976Y-68187838D01*
X60032113Y-68196636D01*
X60019445Y-68204229D01*
X60006094Y-68210544D01*
X59992188Y-68215520D01*
X59977861Y-68219108D01*
X59963252Y-68221275D01*
X59948500Y-68222000D01*
X59647500Y-68222000D01*
X59632748Y-68221275D01*
X59618139Y-68219108D01*
X59603812Y-68215520D01*
X59589906Y-68210544D01*
X59576555Y-68204229D01*
X59563887Y-68196636D01*
X59552024Y-68187838D01*
X59541080Y-68177920D01*
X59531162Y-68166976D01*
X59522364Y-68155113D01*
X59514771Y-68142445D01*
X59508456Y-68129094D01*
X59503480Y-68115188D01*
X59499892Y-68100861D01*
X59497725Y-68086252D01*
X59497000Y-68071500D01*
X59497000Y-66770500D01*
X59497725Y-66755748D01*
X59499892Y-66741139D01*
X59503480Y-66726812D01*
X59508456Y-66712906D01*
X59514771Y-66699555D01*
X59522364Y-66686887D01*
X59531162Y-66675024D01*
X59541080Y-66664080D01*
X59552024Y-66654162D01*
X59563887Y-66645364D01*
X59576555Y-66637771D01*
X59589906Y-66631456D01*
X59603812Y-66626480D01*
X59618139Y-66622892D01*
X59632748Y-66620725D01*
X59647500Y-66620000D01*
X59948500Y-66620000D01*
X59963252Y-66620725D01*
G37*
G36*
X60763252Y-66620725D02*
G01*
X60777861Y-66622892D01*
X60792188Y-66626480D01*
X60806094Y-66631456D01*
X60819445Y-66637771D01*
X60832113Y-66645364D01*
X60843976Y-66654162D01*
X60854920Y-66664080D01*
X60864838Y-66675024D01*
X60873636Y-66686887D01*
X60881229Y-66699555D01*
X60887544Y-66712906D01*
X60892520Y-66726812D01*
X60896108Y-66741139D01*
X60898275Y-66755748D01*
X60899000Y-66770500D01*
X60899000Y-68071500D01*
X60898275Y-68086252D01*
X60896108Y-68100861D01*
X60892520Y-68115188D01*
X60887544Y-68129094D01*
X60881229Y-68142445D01*
X60873636Y-68155113D01*
X60864838Y-68166976D01*
X60854920Y-68177920D01*
X60843976Y-68187838D01*
X60832113Y-68196636D01*
X60819445Y-68204229D01*
X60806094Y-68210544D01*
X60792188Y-68215520D01*
X60777861Y-68219108D01*
X60763252Y-68221275D01*
X60748500Y-68222000D01*
X60447500Y-68222000D01*
X60432748Y-68221275D01*
X60418139Y-68219108D01*
X60403812Y-68215520D01*
X60389906Y-68210544D01*
X60376555Y-68204229D01*
X60363887Y-68196636D01*
X60352024Y-68187838D01*
X60341080Y-68177920D01*
X60331162Y-68166976D01*
X60322364Y-68155113D01*
X60314771Y-68142445D01*
X60308456Y-68129094D01*
X60303480Y-68115188D01*
X60299892Y-68100861D01*
X60297725Y-68086252D01*
X60297000Y-68071500D01*
X60297000Y-66770500D01*
X60297725Y-66755748D01*
X60299892Y-66741139D01*
X60303480Y-66726812D01*
X60308456Y-66712906D01*
X60314771Y-66699555D01*
X60322364Y-66686887D01*
X60331162Y-66675024D01*
X60341080Y-66664080D01*
X60352024Y-66654162D01*
X60363887Y-66645364D01*
X60376555Y-66637771D01*
X60389906Y-66631456D01*
X60403812Y-66626480D01*
X60418139Y-66622892D01*
X60432748Y-66620725D01*
X60447500Y-66620000D01*
X60748500Y-66620000D01*
X60763252Y-66620725D01*
G37*
G36*
X61563252Y-66620725D02*
G01*
X61577861Y-66622892D01*
X61592188Y-66626480D01*
X61606094Y-66631456D01*
X61619445Y-66637771D01*
X61632113Y-66645364D01*
X61643976Y-66654162D01*
X61654920Y-66664080D01*
X61664838Y-66675024D01*
X61673636Y-66686887D01*
X61681229Y-66699555D01*
X61687544Y-66712906D01*
X61692520Y-66726812D01*
X61696108Y-66741139D01*
X61698275Y-66755748D01*
X61699000Y-66770500D01*
X61699000Y-68071500D01*
X61698275Y-68086252D01*
X61696108Y-68100861D01*
X61692520Y-68115188D01*
X61687544Y-68129094D01*
X61681229Y-68142445D01*
X61673636Y-68155113D01*
X61664838Y-68166976D01*
X61654920Y-68177920D01*
X61643976Y-68187838D01*
X61632113Y-68196636D01*
X61619445Y-68204229D01*
X61606094Y-68210544D01*
X61592188Y-68215520D01*
X61577861Y-68219108D01*
X61563252Y-68221275D01*
X61548500Y-68222000D01*
X61247500Y-68222000D01*
X61232748Y-68221275D01*
X61218139Y-68219108D01*
X61203812Y-68215520D01*
X61189906Y-68210544D01*
X61176555Y-68204229D01*
X61163887Y-68196636D01*
X61152024Y-68187838D01*
X61141080Y-68177920D01*
X61131162Y-68166976D01*
X61122364Y-68155113D01*
X61114771Y-68142445D01*
X61108456Y-68129094D01*
X61103480Y-68115188D01*
X61099892Y-68100861D01*
X61097725Y-68086252D01*
X61097000Y-68071500D01*
X61097000Y-66770500D01*
X61097725Y-66755748D01*
X61099892Y-66741139D01*
X61103480Y-66726812D01*
X61108456Y-66712906D01*
X61114771Y-66699555D01*
X61122364Y-66686887D01*
X61131162Y-66675024D01*
X61141080Y-66664080D01*
X61152024Y-66654162D01*
X61163887Y-66645364D01*
X61176555Y-66637771D01*
X61189906Y-66631456D01*
X61203812Y-66626480D01*
X61218139Y-66622892D01*
X61232748Y-66620725D01*
X61247500Y-66620000D01*
X61548500Y-66620000D01*
X61563252Y-66620725D01*
G37*
G36*
X62363252Y-66620725D02*
G01*
X62377861Y-66622892D01*
X62392188Y-66626480D01*
X62406094Y-66631456D01*
X62419445Y-66637771D01*
X62432113Y-66645364D01*
X62443976Y-66654162D01*
X62454920Y-66664080D01*
X62464838Y-66675024D01*
X62473636Y-66686887D01*
X62481229Y-66699555D01*
X62487544Y-66712906D01*
X62492520Y-66726812D01*
X62496108Y-66741139D01*
X62498275Y-66755748D01*
X62499000Y-66770500D01*
X62499000Y-68071500D01*
X62498275Y-68086252D01*
X62496108Y-68100861D01*
X62492520Y-68115188D01*
X62487544Y-68129094D01*
X62481229Y-68142445D01*
X62473636Y-68155113D01*
X62464838Y-68166976D01*
X62454920Y-68177920D01*
X62443976Y-68187838D01*
X62432113Y-68196636D01*
X62419445Y-68204229D01*
X62406094Y-68210544D01*
X62392188Y-68215520D01*
X62377861Y-68219108D01*
X62363252Y-68221275D01*
X62348500Y-68222000D01*
X62047500Y-68222000D01*
X62032748Y-68221275D01*
X62018139Y-68219108D01*
X62003812Y-68215520D01*
X61989906Y-68210544D01*
X61976555Y-68204229D01*
X61963887Y-68196636D01*
X61952024Y-68187838D01*
X61941080Y-68177920D01*
X61931162Y-68166976D01*
X61922364Y-68155113D01*
X61914771Y-68142445D01*
X61908456Y-68129094D01*
X61903480Y-68115188D01*
X61899892Y-68100861D01*
X61897725Y-68086252D01*
X61897000Y-68071500D01*
X61897000Y-66770500D01*
X61897725Y-66755748D01*
X61899892Y-66741139D01*
X61903480Y-66726812D01*
X61908456Y-66712906D01*
X61914771Y-66699555D01*
X61922364Y-66686887D01*
X61931162Y-66675024D01*
X61941080Y-66664080D01*
X61952024Y-66654162D01*
X61963887Y-66645364D01*
X61976555Y-66637771D01*
X61989906Y-66631456D01*
X62003812Y-66626480D01*
X62018139Y-66622892D01*
X62032748Y-66620725D01*
X62047500Y-66620000D01*
X62348500Y-66620000D01*
X62363252Y-66620725D01*
G37*
G36*
X63163252Y-66620725D02*
G01*
X63177861Y-66622892D01*
X63192188Y-66626480D01*
X63206094Y-66631456D01*
X63219445Y-66637771D01*
X63232113Y-66645364D01*
X63243976Y-66654162D01*
X63254920Y-66664080D01*
X63264838Y-66675024D01*
X63273636Y-66686887D01*
X63281229Y-66699555D01*
X63287544Y-66712906D01*
X63292520Y-66726812D01*
X63296108Y-66741139D01*
X63298275Y-66755748D01*
X63299000Y-66770500D01*
X63299000Y-68071500D01*
X63298275Y-68086252D01*
X63296108Y-68100861D01*
X63292520Y-68115188D01*
X63287544Y-68129094D01*
X63281229Y-68142445D01*
X63273636Y-68155113D01*
X63264838Y-68166976D01*
X63254920Y-68177920D01*
X63243976Y-68187838D01*
X63232113Y-68196636D01*
X63219445Y-68204229D01*
X63206094Y-68210544D01*
X63192188Y-68215520D01*
X63177861Y-68219108D01*
X63163252Y-68221275D01*
X63148500Y-68222000D01*
X62847500Y-68222000D01*
X62832748Y-68221275D01*
X62818139Y-68219108D01*
X62803812Y-68215520D01*
X62789906Y-68210544D01*
X62776555Y-68204229D01*
X62763887Y-68196636D01*
X62752024Y-68187838D01*
X62741080Y-68177920D01*
X62731162Y-68166976D01*
X62722364Y-68155113D01*
X62714771Y-68142445D01*
X62708456Y-68129094D01*
X62703480Y-68115188D01*
X62699892Y-68100861D01*
X62697725Y-68086252D01*
X62697000Y-68071500D01*
X62697000Y-66770500D01*
X62697725Y-66755748D01*
X62699892Y-66741139D01*
X62703480Y-66726812D01*
X62708456Y-66712906D01*
X62714771Y-66699555D01*
X62722364Y-66686887D01*
X62731162Y-66675024D01*
X62741080Y-66664080D01*
X62752024Y-66654162D01*
X62763887Y-66645364D01*
X62776555Y-66637771D01*
X62789906Y-66631456D01*
X62803812Y-66626480D01*
X62818139Y-66622892D01*
X62832748Y-66620725D01*
X62847500Y-66620000D01*
X63148500Y-66620000D01*
X63163252Y-66620725D01*
G37*
G36*
X65038252Y-65745725D02*
G01*
X65052861Y-65747892D01*
X65067188Y-65751480D01*
X65081094Y-65756456D01*
X65094445Y-65762771D01*
X65107113Y-65770364D01*
X65118976Y-65779162D01*
X65129920Y-65789080D01*
X65139838Y-65800024D01*
X65148636Y-65811887D01*
X65156229Y-65824555D01*
X65162544Y-65837906D01*
X65167520Y-65851812D01*
X65171108Y-65866139D01*
X65173275Y-65880748D01*
X65174000Y-65895500D01*
X65174000Y-66196500D01*
X65173275Y-66211252D01*
X65171108Y-66225861D01*
X65167520Y-66240188D01*
X65162544Y-66254094D01*
X65156229Y-66267445D01*
X65148636Y-66280113D01*
X65139838Y-66291976D01*
X65129920Y-66302920D01*
X65118976Y-66312838D01*
X65107113Y-66321636D01*
X65094445Y-66329229D01*
X65081094Y-66335544D01*
X65067188Y-66340520D01*
X65052861Y-66344108D01*
X65038252Y-66346275D01*
X65023500Y-66347000D01*
X63722500Y-66347000D01*
X63707748Y-66346275D01*
X63693139Y-66344108D01*
X63678812Y-66340520D01*
X63664906Y-66335544D01*
X63651555Y-66329229D01*
X63638887Y-66321636D01*
X63627024Y-66312838D01*
X63616080Y-66302920D01*
X63606162Y-66291976D01*
X63597364Y-66280113D01*
X63589771Y-66267445D01*
X63583456Y-66254094D01*
X63578480Y-66240188D01*
X63574892Y-66225861D01*
X63572725Y-66211252D01*
X63572000Y-66196500D01*
X63572000Y-65895500D01*
X63572725Y-65880748D01*
X63574892Y-65866139D01*
X63578480Y-65851812D01*
X63583456Y-65837906D01*
X63589771Y-65824555D01*
X63597364Y-65811887D01*
X63606162Y-65800024D01*
X63616080Y-65789080D01*
X63627024Y-65779162D01*
X63638887Y-65770364D01*
X63651555Y-65762771D01*
X63664906Y-65756456D01*
X63678812Y-65751480D01*
X63693139Y-65747892D01*
X63707748Y-65745725D01*
X63722500Y-65745000D01*
X65023500Y-65745000D01*
X65038252Y-65745725D01*
G37*
G36*
X65038252Y-64945725D02*
G01*
X65052861Y-64947892D01*
X65067188Y-64951480D01*
X65081094Y-64956456D01*
X65094445Y-64962771D01*
X65107113Y-64970364D01*
X65118976Y-64979162D01*
X65129920Y-64989080D01*
X65139838Y-65000024D01*
X65148636Y-65011887D01*
X65156229Y-65024555D01*
X65162544Y-65037906D01*
X65167520Y-65051812D01*
X65171108Y-65066139D01*
X65173275Y-65080748D01*
X65174000Y-65095500D01*
X65174000Y-65396500D01*
X65173275Y-65411252D01*
X65171108Y-65425861D01*
X65167520Y-65440188D01*
X65162544Y-65454094D01*
X65156229Y-65467445D01*
X65148636Y-65480113D01*
X65139838Y-65491976D01*
X65129920Y-65502920D01*
X65118976Y-65512838D01*
X65107113Y-65521636D01*
X65094445Y-65529229D01*
X65081094Y-65535544D01*
X65067188Y-65540520D01*
X65052861Y-65544108D01*
X65038252Y-65546275D01*
X65023500Y-65547000D01*
X63722500Y-65547000D01*
X63707748Y-65546275D01*
X63693139Y-65544108D01*
X63678812Y-65540520D01*
X63664906Y-65535544D01*
X63651555Y-65529229D01*
X63638887Y-65521636D01*
X63627024Y-65512838D01*
X63616080Y-65502920D01*
X63606162Y-65491976D01*
X63597364Y-65480113D01*
X63589771Y-65467445D01*
X63583456Y-65454094D01*
X63578480Y-65440188D01*
X63574892Y-65425861D01*
X63572725Y-65411252D01*
X63572000Y-65396500D01*
X63572000Y-65095500D01*
X63572725Y-65080748D01*
X63574892Y-65066139D01*
X63578480Y-65051812D01*
X63583456Y-65037906D01*
X63589771Y-65024555D01*
X63597364Y-65011887D01*
X63606162Y-65000024D01*
X63616080Y-64989080D01*
X63627024Y-64979162D01*
X63638887Y-64970364D01*
X63651555Y-64962771D01*
X63664906Y-64956456D01*
X63678812Y-64951480D01*
X63693139Y-64947892D01*
X63707748Y-64945725D01*
X63722500Y-64945000D01*
X65023500Y-64945000D01*
X65038252Y-64945725D01*
G37*
G36*
X65038252Y-64145725D02*
G01*
X65052861Y-64147892D01*
X65067188Y-64151480D01*
X65081094Y-64156456D01*
X65094445Y-64162771D01*
X65107113Y-64170364D01*
X65118976Y-64179162D01*
X65129920Y-64189080D01*
X65139838Y-64200024D01*
X65148636Y-64211887D01*
X65156229Y-64224555D01*
X65162544Y-64237906D01*
X65167520Y-64251812D01*
X65171108Y-64266139D01*
X65173275Y-64280748D01*
X65174000Y-64295500D01*
X65174000Y-64596500D01*
X65173275Y-64611252D01*
X65171108Y-64625861D01*
X65167520Y-64640188D01*
X65162544Y-64654094D01*
X65156229Y-64667445D01*
X65148636Y-64680113D01*
X65139838Y-64691976D01*
X65129920Y-64702920D01*
X65118976Y-64712838D01*
X65107113Y-64721636D01*
X65094445Y-64729229D01*
X65081094Y-64735544D01*
X65067188Y-64740520D01*
X65052861Y-64744108D01*
X65038252Y-64746275D01*
X65023500Y-64747000D01*
X63722500Y-64747000D01*
X63707748Y-64746275D01*
X63693139Y-64744108D01*
X63678812Y-64740520D01*
X63664906Y-64735544D01*
X63651555Y-64729229D01*
X63638887Y-64721636D01*
X63627024Y-64712838D01*
X63616080Y-64702920D01*
X63606162Y-64691976D01*
X63597364Y-64680113D01*
X63589771Y-64667445D01*
X63583456Y-64654094D01*
X63578480Y-64640188D01*
X63574892Y-64625861D01*
X63572725Y-64611252D01*
X63572000Y-64596500D01*
X63572000Y-64295500D01*
X63572725Y-64280748D01*
X63574892Y-64266139D01*
X63578480Y-64251812D01*
X63583456Y-64237906D01*
X63589771Y-64224555D01*
X63597364Y-64211887D01*
X63606162Y-64200024D01*
X63616080Y-64189080D01*
X63627024Y-64179162D01*
X63638887Y-64170364D01*
X63651555Y-64162771D01*
X63664906Y-64156456D01*
X63678812Y-64151480D01*
X63693139Y-64147892D01*
X63707748Y-64145725D01*
X63722500Y-64145000D01*
X65023500Y-64145000D01*
X65038252Y-64145725D01*
G37*
G36*
X65038252Y-63345725D02*
G01*
X65052861Y-63347892D01*
X65067188Y-63351480D01*
X65081094Y-63356456D01*
X65094445Y-63362771D01*
X65107113Y-63370364D01*
X65118976Y-63379162D01*
X65129920Y-63389080D01*
X65139838Y-63400024D01*
X65148636Y-63411887D01*
X65156229Y-63424555D01*
X65162544Y-63437906D01*
X65167520Y-63451812D01*
X65171108Y-63466139D01*
X65173275Y-63480748D01*
X65174000Y-63495500D01*
X65174000Y-63796500D01*
X65173275Y-63811252D01*
X65171108Y-63825861D01*
X65167520Y-63840188D01*
X65162544Y-63854094D01*
X65156229Y-63867445D01*
X65148636Y-63880113D01*
X65139838Y-63891976D01*
X65129920Y-63902920D01*
X65118976Y-63912838D01*
X65107113Y-63921636D01*
X65094445Y-63929229D01*
X65081094Y-63935544D01*
X65067188Y-63940520D01*
X65052861Y-63944108D01*
X65038252Y-63946275D01*
X65023500Y-63947000D01*
X63722500Y-63947000D01*
X63707748Y-63946275D01*
X63693139Y-63944108D01*
X63678812Y-63940520D01*
X63664906Y-63935544D01*
X63651555Y-63929229D01*
X63638887Y-63921636D01*
X63627024Y-63912838D01*
X63616080Y-63902920D01*
X63606162Y-63891976D01*
X63597364Y-63880113D01*
X63589771Y-63867445D01*
X63583456Y-63854094D01*
X63578480Y-63840188D01*
X63574892Y-63825861D01*
X63572725Y-63811252D01*
X63572000Y-63796500D01*
X63572000Y-63495500D01*
X63572725Y-63480748D01*
X63574892Y-63466139D01*
X63578480Y-63451812D01*
X63583456Y-63437906D01*
X63589771Y-63424555D01*
X63597364Y-63411887D01*
X63606162Y-63400024D01*
X63616080Y-63389080D01*
X63627024Y-63379162D01*
X63638887Y-63370364D01*
X63651555Y-63362771D01*
X63664906Y-63356456D01*
X63678812Y-63351480D01*
X63693139Y-63347892D01*
X63707748Y-63345725D01*
X63722500Y-63345000D01*
X65023500Y-63345000D01*
X65038252Y-63345725D01*
G37*
G36*
X65038252Y-62545725D02*
G01*
X65052861Y-62547892D01*
X65067188Y-62551480D01*
X65081094Y-62556456D01*
X65094445Y-62562771D01*
X65107113Y-62570364D01*
X65118976Y-62579162D01*
X65129920Y-62589080D01*
X65139838Y-62600024D01*
X65148636Y-62611887D01*
X65156229Y-62624555D01*
X65162544Y-62637906D01*
X65167520Y-62651812D01*
X65171108Y-62666139D01*
X65173275Y-62680748D01*
X65174000Y-62695500D01*
X65174000Y-62996500D01*
X65173275Y-63011252D01*
X65171108Y-63025861D01*
X65167520Y-63040188D01*
X65162544Y-63054094D01*
X65156229Y-63067445D01*
X65148636Y-63080113D01*
X65139838Y-63091976D01*
X65129920Y-63102920D01*
X65118976Y-63112838D01*
X65107113Y-63121636D01*
X65094445Y-63129229D01*
X65081094Y-63135544D01*
X65067188Y-63140520D01*
X65052861Y-63144108D01*
X65038252Y-63146275D01*
X65023500Y-63147000D01*
X63722500Y-63147000D01*
X63707748Y-63146275D01*
X63693139Y-63144108D01*
X63678812Y-63140520D01*
X63664906Y-63135544D01*
X63651555Y-63129229D01*
X63638887Y-63121636D01*
X63627024Y-63112838D01*
X63616080Y-63102920D01*
X63606162Y-63091976D01*
X63597364Y-63080113D01*
X63589771Y-63067445D01*
X63583456Y-63054094D01*
X63578480Y-63040188D01*
X63574892Y-63025861D01*
X63572725Y-63011252D01*
X63572000Y-62996500D01*
X63572000Y-62695500D01*
X63572725Y-62680748D01*
X63574892Y-62666139D01*
X63578480Y-62651812D01*
X63583456Y-62637906D01*
X63589771Y-62624555D01*
X63597364Y-62611887D01*
X63606162Y-62600024D01*
X63616080Y-62589080D01*
X63627024Y-62579162D01*
X63638887Y-62570364D01*
X63651555Y-62562771D01*
X63664906Y-62556456D01*
X63678812Y-62551480D01*
X63693139Y-62547892D01*
X63707748Y-62545725D01*
X63722500Y-62545000D01*
X65023500Y-62545000D01*
X65038252Y-62545725D01*
G37*
G36*
X65038252Y-61745725D02*
G01*
X65052861Y-61747892D01*
X65067188Y-61751480D01*
X65081094Y-61756456D01*
X65094445Y-61762771D01*
X65107113Y-61770364D01*
X65118976Y-61779162D01*
X65129920Y-61789080D01*
X65139838Y-61800024D01*
X65148636Y-61811887D01*
X65156229Y-61824555D01*
X65162544Y-61837906D01*
X65167520Y-61851812D01*
X65171108Y-61866139D01*
X65173275Y-61880748D01*
X65174000Y-61895500D01*
X65174000Y-62196500D01*
X65173275Y-62211252D01*
X65171108Y-62225861D01*
X65167520Y-62240188D01*
X65162544Y-62254094D01*
X65156229Y-62267445D01*
X65148636Y-62280113D01*
X65139838Y-62291976D01*
X65129920Y-62302920D01*
X65118976Y-62312838D01*
X65107113Y-62321636D01*
X65094445Y-62329229D01*
X65081094Y-62335544D01*
X65067188Y-62340520D01*
X65052861Y-62344108D01*
X65038252Y-62346275D01*
X65023500Y-62347000D01*
X63722500Y-62347000D01*
X63707748Y-62346275D01*
X63693139Y-62344108D01*
X63678812Y-62340520D01*
X63664906Y-62335544D01*
X63651555Y-62329229D01*
X63638887Y-62321636D01*
X63627024Y-62312838D01*
X63616080Y-62302920D01*
X63606162Y-62291976D01*
X63597364Y-62280113D01*
X63589771Y-62267445D01*
X63583456Y-62254094D01*
X63578480Y-62240188D01*
X63574892Y-62225861D01*
X63572725Y-62211252D01*
X63572000Y-62196500D01*
X63572000Y-61895500D01*
X63572725Y-61880748D01*
X63574892Y-61866139D01*
X63578480Y-61851812D01*
X63583456Y-61837906D01*
X63589771Y-61824555D01*
X63597364Y-61811887D01*
X63606162Y-61800024D01*
X63616080Y-61789080D01*
X63627024Y-61779162D01*
X63638887Y-61770364D01*
X63651555Y-61762771D01*
X63664906Y-61756456D01*
X63678812Y-61751480D01*
X63693139Y-61747892D01*
X63707748Y-61745725D01*
X63722500Y-61745000D01*
X65023500Y-61745000D01*
X65038252Y-61745725D01*
G37*
G36*
X65038252Y-60945725D02*
G01*
X65052861Y-60947892D01*
X65067188Y-60951480D01*
X65081094Y-60956456D01*
X65094445Y-60962771D01*
X65107113Y-60970364D01*
X65118976Y-60979162D01*
X65129920Y-60989080D01*
X65139838Y-61000024D01*
X65148636Y-61011887D01*
X65156229Y-61024555D01*
X65162544Y-61037906D01*
X65167520Y-61051812D01*
X65171108Y-61066139D01*
X65173275Y-61080748D01*
X65174000Y-61095500D01*
X65174000Y-61396500D01*
X65173275Y-61411252D01*
X65171108Y-61425861D01*
X65167520Y-61440188D01*
X65162544Y-61454094D01*
X65156229Y-61467445D01*
X65148636Y-61480113D01*
X65139838Y-61491976D01*
X65129920Y-61502920D01*
X65118976Y-61512838D01*
X65107113Y-61521636D01*
X65094445Y-61529229D01*
X65081094Y-61535544D01*
X65067188Y-61540520D01*
X65052861Y-61544108D01*
X65038252Y-61546275D01*
X65023500Y-61547000D01*
X63722500Y-61547000D01*
X63707748Y-61546275D01*
X63693139Y-61544108D01*
X63678812Y-61540520D01*
X63664906Y-61535544D01*
X63651555Y-61529229D01*
X63638887Y-61521636D01*
X63627024Y-61512838D01*
X63616080Y-61502920D01*
X63606162Y-61491976D01*
X63597364Y-61480113D01*
X63589771Y-61467445D01*
X63583456Y-61454094D01*
X63578480Y-61440188D01*
X63574892Y-61425861D01*
X63572725Y-61411252D01*
X63572000Y-61396500D01*
X63572000Y-61095500D01*
X63572725Y-61080748D01*
X63574892Y-61066139D01*
X63578480Y-61051812D01*
X63583456Y-61037906D01*
X63589771Y-61024555D01*
X63597364Y-61011887D01*
X63606162Y-61000024D01*
X63616080Y-60989080D01*
X63627024Y-60979162D01*
X63638887Y-60970364D01*
X63651555Y-60962771D01*
X63664906Y-60956456D01*
X63678812Y-60951480D01*
X63693139Y-60947892D01*
X63707748Y-60945725D01*
X63722500Y-60945000D01*
X65023500Y-60945000D01*
X65038252Y-60945725D01*
G37*
G36*
X65038252Y-60145725D02*
G01*
X65052861Y-60147892D01*
X65067188Y-60151480D01*
X65081094Y-60156456D01*
X65094445Y-60162771D01*
X65107113Y-60170364D01*
X65118976Y-60179162D01*
X65129920Y-60189080D01*
X65139838Y-60200024D01*
X65148636Y-60211887D01*
X65156229Y-60224555D01*
X65162544Y-60237906D01*
X65167520Y-60251812D01*
X65171108Y-60266139D01*
X65173275Y-60280748D01*
X65174000Y-60295500D01*
X65174000Y-60596500D01*
X65173275Y-60611252D01*
X65171108Y-60625861D01*
X65167520Y-60640188D01*
X65162544Y-60654094D01*
X65156229Y-60667445D01*
X65148636Y-60680113D01*
X65139838Y-60691976D01*
X65129920Y-60702920D01*
X65118976Y-60712838D01*
X65107113Y-60721636D01*
X65094445Y-60729229D01*
X65081094Y-60735544D01*
X65067188Y-60740520D01*
X65052861Y-60744108D01*
X65038252Y-60746275D01*
X65023500Y-60747000D01*
X63722500Y-60747000D01*
X63707748Y-60746275D01*
X63693139Y-60744108D01*
X63678812Y-60740520D01*
X63664906Y-60735544D01*
X63651555Y-60729229D01*
X63638887Y-60721636D01*
X63627024Y-60712838D01*
X63616080Y-60702920D01*
X63606162Y-60691976D01*
X63597364Y-60680113D01*
X63589771Y-60667445D01*
X63583456Y-60654094D01*
X63578480Y-60640188D01*
X63574892Y-60625861D01*
X63572725Y-60611252D01*
X63572000Y-60596500D01*
X63572000Y-60295500D01*
X63572725Y-60280748D01*
X63574892Y-60266139D01*
X63578480Y-60251812D01*
X63583456Y-60237906D01*
X63589771Y-60224555D01*
X63597364Y-60211887D01*
X63606162Y-60200024D01*
X63616080Y-60189080D01*
X63627024Y-60179162D01*
X63638887Y-60170364D01*
X63651555Y-60162771D01*
X63664906Y-60156456D01*
X63678812Y-60151480D01*
X63693139Y-60147892D01*
X63707748Y-60145725D01*
X63722500Y-60145000D01*
X65023500Y-60145000D01*
X65038252Y-60145725D01*
G37*
D27*
X68039000Y-63246000D03*
X68039000Y-61976000D03*
X68039000Y-60706000D03*
X68039000Y-59436000D03*
X68039000Y-58166000D03*
X68039000Y-56896000D03*
X68039000Y-55626000D03*
X68039000Y-54356000D03*
X73439000Y-54356000D03*
X73439000Y-55626000D03*
X73439000Y-56896000D03*
X73439000Y-58166000D03*
X73439000Y-59436000D03*
X73439000Y-60706000D03*
X73439000Y-61976000D03*
X73439000Y-63246000D03*
X68039000Y-76835000D03*
X68039000Y-75565000D03*
X68039000Y-74295000D03*
X68039000Y-73025000D03*
X68039000Y-71755000D03*
X68039000Y-70485000D03*
X68039000Y-69215000D03*
X68039000Y-67945000D03*
X73439000Y-67945000D03*
X73439000Y-69215000D03*
X73439000Y-70485000D03*
X73439000Y-71755000D03*
X73439000Y-73025000D03*
X73439000Y-74295000D03*
X73439000Y-75565000D03*
X73439000Y-76835000D03*
D12*
G36*
X71820641Y-64850297D02*
G01*
X71846778Y-64854174D01*
X71872409Y-64860594D01*
X71897288Y-64869495D01*
X71921174Y-64880793D01*
X71943837Y-64894377D01*
X71965060Y-64910117D01*
X71984639Y-64927861D01*
X72002383Y-64947440D01*
X72018123Y-64968663D01*
X72031707Y-64991326D01*
X72043005Y-65015212D01*
X72051906Y-65040091D01*
X72058326Y-65065722D01*
X72062203Y-65091859D01*
X72063500Y-65118250D01*
X72063500Y-66081750D01*
X72062203Y-66108141D01*
X72058326Y-66134278D01*
X72051906Y-66159909D01*
X72043005Y-66184788D01*
X72031707Y-66208674D01*
X72018123Y-66231337D01*
X72002383Y-66252560D01*
X71984639Y-66272139D01*
X71965060Y-66289883D01*
X71943837Y-66305623D01*
X71921174Y-66319207D01*
X71897288Y-66330505D01*
X71872409Y-66339406D01*
X71846778Y-66345826D01*
X71820641Y-66349703D01*
X71794250Y-66351000D01*
X71255750Y-66351000D01*
X71229359Y-66349703D01*
X71203222Y-66345826D01*
X71177591Y-66339406D01*
X71152712Y-66330505D01*
X71128826Y-66319207D01*
X71106163Y-66305623D01*
X71084940Y-66289883D01*
X71065361Y-66272139D01*
X71047617Y-66252560D01*
X71031877Y-66231337D01*
X71018293Y-66208674D01*
X71006995Y-66184788D01*
X70998094Y-66159909D01*
X70991674Y-66134278D01*
X70987797Y-66108141D01*
X70986500Y-66081750D01*
X70986500Y-65118250D01*
X70987797Y-65091859D01*
X70991674Y-65065722D01*
X70998094Y-65040091D01*
X71006995Y-65015212D01*
X71018293Y-64991326D01*
X71031877Y-64968663D01*
X71047617Y-64947440D01*
X71065361Y-64927861D01*
X71084940Y-64910117D01*
X71106163Y-64894377D01*
X71128826Y-64880793D01*
X71152712Y-64869495D01*
X71177591Y-64860594D01*
X71203222Y-64854174D01*
X71229359Y-64850297D01*
X71255750Y-64849000D01*
X71794250Y-64849000D01*
X71820641Y-64850297D01*
G37*
G36*
X73695641Y-64850297D02*
G01*
X73721778Y-64854174D01*
X73747409Y-64860594D01*
X73772288Y-64869495D01*
X73796174Y-64880793D01*
X73818837Y-64894377D01*
X73840060Y-64910117D01*
X73859639Y-64927861D01*
X73877383Y-64947440D01*
X73893123Y-64968663D01*
X73906707Y-64991326D01*
X73918005Y-65015212D01*
X73926906Y-65040091D01*
X73933326Y-65065722D01*
X73937203Y-65091859D01*
X73938500Y-65118250D01*
X73938500Y-66081750D01*
X73937203Y-66108141D01*
X73933326Y-66134278D01*
X73926906Y-66159909D01*
X73918005Y-66184788D01*
X73906707Y-66208674D01*
X73893123Y-66231337D01*
X73877383Y-66252560D01*
X73859639Y-66272139D01*
X73840060Y-66289883D01*
X73818837Y-66305623D01*
X73796174Y-66319207D01*
X73772288Y-66330505D01*
X73747409Y-66339406D01*
X73721778Y-66345826D01*
X73695641Y-66349703D01*
X73669250Y-66351000D01*
X73130750Y-66351000D01*
X73104359Y-66349703D01*
X73078222Y-66345826D01*
X73052591Y-66339406D01*
X73027712Y-66330505D01*
X73003826Y-66319207D01*
X72981163Y-66305623D01*
X72959940Y-66289883D01*
X72940361Y-66272139D01*
X72922617Y-66252560D01*
X72906877Y-66231337D01*
X72893293Y-66208674D01*
X72881995Y-66184788D01*
X72873094Y-66159909D01*
X72866674Y-66134278D01*
X72862797Y-66108141D01*
X72861500Y-66081750D01*
X72861500Y-65118250D01*
X72862797Y-65091859D01*
X72866674Y-65065722D01*
X72873094Y-65040091D01*
X72881995Y-65015212D01*
X72893293Y-64991326D01*
X72906877Y-64968663D01*
X72922617Y-64947440D01*
X72940361Y-64927861D01*
X72959940Y-64910117D01*
X72981163Y-64894377D01*
X73003826Y-64880793D01*
X73027712Y-64869495D01*
X73052591Y-64860594D01*
X73078222Y-64854174D01*
X73104359Y-64850297D01*
X73130750Y-64849000D01*
X73669250Y-64849000D01*
X73695641Y-64850297D01*
G37*
G36*
X72620641Y-78650297D02*
G01*
X72646778Y-78654174D01*
X72672409Y-78660594D01*
X72697288Y-78669495D01*
X72721174Y-78680793D01*
X72743837Y-78694377D01*
X72765060Y-78710117D01*
X72784639Y-78727861D01*
X72802383Y-78747440D01*
X72818123Y-78768663D01*
X72831707Y-78791326D01*
X72843005Y-78815212D01*
X72851906Y-78840091D01*
X72858326Y-78865722D01*
X72862203Y-78891859D01*
X72863500Y-78918250D01*
X72863500Y-79881750D01*
X72862203Y-79908141D01*
X72858326Y-79934278D01*
X72851906Y-79959909D01*
X72843005Y-79984788D01*
X72831707Y-80008674D01*
X72818123Y-80031337D01*
X72802383Y-80052560D01*
X72784639Y-80072139D01*
X72765060Y-80089883D01*
X72743837Y-80105623D01*
X72721174Y-80119207D01*
X72697288Y-80130505D01*
X72672409Y-80139406D01*
X72646778Y-80145826D01*
X72620641Y-80149703D01*
X72594250Y-80151000D01*
X72055750Y-80151000D01*
X72029359Y-80149703D01*
X72003222Y-80145826D01*
X71977591Y-80139406D01*
X71952712Y-80130505D01*
X71928826Y-80119207D01*
X71906163Y-80105623D01*
X71884940Y-80089883D01*
X71865361Y-80072139D01*
X71847617Y-80052560D01*
X71831877Y-80031337D01*
X71818293Y-80008674D01*
X71806995Y-79984788D01*
X71798094Y-79959909D01*
X71791674Y-79934278D01*
X71787797Y-79908141D01*
X71786500Y-79881750D01*
X71786500Y-78918250D01*
X71787797Y-78891859D01*
X71791674Y-78865722D01*
X71798094Y-78840091D01*
X71806995Y-78815212D01*
X71818293Y-78791326D01*
X71831877Y-78768663D01*
X71847617Y-78747440D01*
X71865361Y-78727861D01*
X71884940Y-78710117D01*
X71906163Y-78694377D01*
X71928826Y-78680793D01*
X71952712Y-78669495D01*
X71977591Y-78660594D01*
X72003222Y-78654174D01*
X72029359Y-78650297D01*
X72055750Y-78649000D01*
X72594250Y-78649000D01*
X72620641Y-78650297D01*
G37*
G36*
X74495641Y-78650297D02*
G01*
X74521778Y-78654174D01*
X74547409Y-78660594D01*
X74572288Y-78669495D01*
X74596174Y-78680793D01*
X74618837Y-78694377D01*
X74640060Y-78710117D01*
X74659639Y-78727861D01*
X74677383Y-78747440D01*
X74693123Y-78768663D01*
X74706707Y-78791326D01*
X74718005Y-78815212D01*
X74726906Y-78840091D01*
X74733326Y-78865722D01*
X74737203Y-78891859D01*
X74738500Y-78918250D01*
X74738500Y-79881750D01*
X74737203Y-79908141D01*
X74733326Y-79934278D01*
X74726906Y-79959909D01*
X74718005Y-79984788D01*
X74706707Y-80008674D01*
X74693123Y-80031337D01*
X74677383Y-80052560D01*
X74659639Y-80072139D01*
X74640060Y-80089883D01*
X74618837Y-80105623D01*
X74596174Y-80119207D01*
X74572288Y-80130505D01*
X74547409Y-80139406D01*
X74521778Y-80145826D01*
X74495641Y-80149703D01*
X74469250Y-80151000D01*
X73930750Y-80151000D01*
X73904359Y-80149703D01*
X73878222Y-80145826D01*
X73852591Y-80139406D01*
X73827712Y-80130505D01*
X73803826Y-80119207D01*
X73781163Y-80105623D01*
X73759940Y-80089883D01*
X73740361Y-80072139D01*
X73722617Y-80052560D01*
X73706877Y-80031337D01*
X73693293Y-80008674D01*
X73681995Y-79984788D01*
X73673094Y-79959909D01*
X73666674Y-79934278D01*
X73662797Y-79908141D01*
X73661500Y-79881750D01*
X73661500Y-78918250D01*
X73662797Y-78891859D01*
X73666674Y-78865722D01*
X73673094Y-78840091D01*
X73681995Y-78815212D01*
X73693293Y-78791326D01*
X73706877Y-78768663D01*
X73722617Y-78747440D01*
X73740361Y-78727861D01*
X73759940Y-78710117D01*
X73781163Y-78694377D01*
X73803826Y-78680793D01*
X73827712Y-78669495D01*
X73852591Y-78660594D01*
X73878222Y-78654174D01*
X73904359Y-78650297D01*
X73930750Y-78649000D01*
X74469250Y-78649000D01*
X74495641Y-78650297D01*
G37*
G36*
X83695641Y-62850297D02*
G01*
X83721778Y-62854174D01*
X83747409Y-62860594D01*
X83772288Y-62869495D01*
X83796174Y-62880793D01*
X83818837Y-62894377D01*
X83840060Y-62910117D01*
X83859639Y-62927861D01*
X83877383Y-62947440D01*
X83893123Y-62968663D01*
X83906707Y-62991326D01*
X83918005Y-63015212D01*
X83926906Y-63040091D01*
X83933326Y-63065722D01*
X83937203Y-63091859D01*
X83938500Y-63118250D01*
X83938500Y-64081750D01*
X83937203Y-64108141D01*
X83933326Y-64134278D01*
X83926906Y-64159909D01*
X83918005Y-64184788D01*
X83906707Y-64208674D01*
X83893123Y-64231337D01*
X83877383Y-64252560D01*
X83859639Y-64272139D01*
X83840060Y-64289883D01*
X83818837Y-64305623D01*
X83796174Y-64319207D01*
X83772288Y-64330505D01*
X83747409Y-64339406D01*
X83721778Y-64345826D01*
X83695641Y-64349703D01*
X83669250Y-64351000D01*
X83130750Y-64351000D01*
X83104359Y-64349703D01*
X83078222Y-64345826D01*
X83052591Y-64339406D01*
X83027712Y-64330505D01*
X83003826Y-64319207D01*
X82981163Y-64305623D01*
X82959940Y-64289883D01*
X82940361Y-64272139D01*
X82922617Y-64252560D01*
X82906877Y-64231337D01*
X82893293Y-64208674D01*
X82881995Y-64184788D01*
X82873094Y-64159909D01*
X82866674Y-64134278D01*
X82862797Y-64108141D01*
X82861500Y-64081750D01*
X82861500Y-63118250D01*
X82862797Y-63091859D01*
X82866674Y-63065722D01*
X82873094Y-63040091D01*
X82881995Y-63015212D01*
X82893293Y-62991326D01*
X82906877Y-62968663D01*
X82922617Y-62947440D01*
X82940361Y-62927861D01*
X82959940Y-62910117D01*
X82981163Y-62894377D01*
X83003826Y-62880793D01*
X83027712Y-62869495D01*
X83052591Y-62860594D01*
X83078222Y-62854174D01*
X83104359Y-62850297D01*
X83130750Y-62849000D01*
X83669250Y-62849000D01*
X83695641Y-62850297D01*
G37*
G36*
X81820641Y-62850297D02*
G01*
X81846778Y-62854174D01*
X81872409Y-62860594D01*
X81897288Y-62869495D01*
X81921174Y-62880793D01*
X81943837Y-62894377D01*
X81965060Y-62910117D01*
X81984639Y-62927861D01*
X82002383Y-62947440D01*
X82018123Y-62968663D01*
X82031707Y-62991326D01*
X82043005Y-63015212D01*
X82051906Y-63040091D01*
X82058326Y-63065722D01*
X82062203Y-63091859D01*
X82063500Y-63118250D01*
X82063500Y-64081750D01*
X82062203Y-64108141D01*
X82058326Y-64134278D01*
X82051906Y-64159909D01*
X82043005Y-64184788D01*
X82031707Y-64208674D01*
X82018123Y-64231337D01*
X82002383Y-64252560D01*
X81984639Y-64272139D01*
X81965060Y-64289883D01*
X81943837Y-64305623D01*
X81921174Y-64319207D01*
X81897288Y-64330505D01*
X81872409Y-64339406D01*
X81846778Y-64345826D01*
X81820641Y-64349703D01*
X81794250Y-64351000D01*
X81255750Y-64351000D01*
X81229359Y-64349703D01*
X81203222Y-64345826D01*
X81177591Y-64339406D01*
X81152712Y-64330505D01*
X81128826Y-64319207D01*
X81106163Y-64305623D01*
X81084940Y-64289883D01*
X81065361Y-64272139D01*
X81047617Y-64252560D01*
X81031877Y-64231337D01*
X81018293Y-64208674D01*
X81006995Y-64184788D01*
X80998094Y-64159909D01*
X80991674Y-64134278D01*
X80987797Y-64108141D01*
X80986500Y-64081750D01*
X80986500Y-63118250D01*
X80987797Y-63091859D01*
X80991674Y-63065722D01*
X80998094Y-63040091D01*
X81006995Y-63015212D01*
X81018293Y-62991326D01*
X81031877Y-62968663D01*
X81047617Y-62947440D01*
X81065361Y-62927861D01*
X81084940Y-62910117D01*
X81106163Y-62894377D01*
X81128826Y-62880793D01*
X81152712Y-62869495D01*
X81177591Y-62860594D01*
X81203222Y-62854174D01*
X81229359Y-62850297D01*
X81255750Y-62849000D01*
X81794250Y-62849000D01*
X81820641Y-62850297D01*
G37*
G36*
X83695641Y-67950297D02*
G01*
X83721778Y-67954174D01*
X83747409Y-67960594D01*
X83772288Y-67969495D01*
X83796174Y-67980793D01*
X83818837Y-67994377D01*
X83840060Y-68010117D01*
X83859639Y-68027861D01*
X83877383Y-68047440D01*
X83893123Y-68068663D01*
X83906707Y-68091326D01*
X83918005Y-68115212D01*
X83926906Y-68140091D01*
X83933326Y-68165722D01*
X83937203Y-68191859D01*
X83938500Y-68218250D01*
X83938500Y-69181750D01*
X83937203Y-69208141D01*
X83933326Y-69234278D01*
X83926906Y-69259909D01*
X83918005Y-69284788D01*
X83906707Y-69308674D01*
X83893123Y-69331337D01*
X83877383Y-69352560D01*
X83859639Y-69372139D01*
X83840060Y-69389883D01*
X83818837Y-69405623D01*
X83796174Y-69419207D01*
X83772288Y-69430505D01*
X83747409Y-69439406D01*
X83721778Y-69445826D01*
X83695641Y-69449703D01*
X83669250Y-69451000D01*
X83130750Y-69451000D01*
X83104359Y-69449703D01*
X83078222Y-69445826D01*
X83052591Y-69439406D01*
X83027712Y-69430505D01*
X83003826Y-69419207D01*
X82981163Y-69405623D01*
X82959940Y-69389883D01*
X82940361Y-69372139D01*
X82922617Y-69352560D01*
X82906877Y-69331337D01*
X82893293Y-69308674D01*
X82881995Y-69284788D01*
X82873094Y-69259909D01*
X82866674Y-69234278D01*
X82862797Y-69208141D01*
X82861500Y-69181750D01*
X82861500Y-68218250D01*
X82862797Y-68191859D01*
X82866674Y-68165722D01*
X82873094Y-68140091D01*
X82881995Y-68115212D01*
X82893293Y-68091326D01*
X82906877Y-68068663D01*
X82922617Y-68047440D01*
X82940361Y-68027861D01*
X82959940Y-68010117D01*
X82981163Y-67994377D01*
X83003826Y-67980793D01*
X83027712Y-67969495D01*
X83052591Y-67960594D01*
X83078222Y-67954174D01*
X83104359Y-67950297D01*
X83130750Y-67949000D01*
X83669250Y-67949000D01*
X83695641Y-67950297D01*
G37*
G36*
X81820641Y-67950297D02*
G01*
X81846778Y-67954174D01*
X81872409Y-67960594D01*
X81897288Y-67969495D01*
X81921174Y-67980793D01*
X81943837Y-67994377D01*
X81965060Y-68010117D01*
X81984639Y-68027861D01*
X82002383Y-68047440D01*
X82018123Y-68068663D01*
X82031707Y-68091326D01*
X82043005Y-68115212D01*
X82051906Y-68140091D01*
X82058326Y-68165722D01*
X82062203Y-68191859D01*
X82063500Y-68218250D01*
X82063500Y-69181750D01*
X82062203Y-69208141D01*
X82058326Y-69234278D01*
X82051906Y-69259909D01*
X82043005Y-69284788D01*
X82031707Y-69308674D01*
X82018123Y-69331337D01*
X82002383Y-69352560D01*
X81984639Y-69372139D01*
X81965060Y-69389883D01*
X81943837Y-69405623D01*
X81921174Y-69419207D01*
X81897288Y-69430505D01*
X81872409Y-69439406D01*
X81846778Y-69445826D01*
X81820641Y-69449703D01*
X81794250Y-69451000D01*
X81255750Y-69451000D01*
X81229359Y-69449703D01*
X81203222Y-69445826D01*
X81177591Y-69439406D01*
X81152712Y-69430505D01*
X81128826Y-69419207D01*
X81106163Y-69405623D01*
X81084940Y-69389883D01*
X81065361Y-69372139D01*
X81047617Y-69352560D01*
X81031877Y-69331337D01*
X81018293Y-69308674D01*
X81006995Y-69284788D01*
X80998094Y-69259909D01*
X80991674Y-69234278D01*
X80987797Y-69208141D01*
X80986500Y-69181750D01*
X80986500Y-68218250D01*
X80987797Y-68191859D01*
X80991674Y-68165722D01*
X80998094Y-68140091D01*
X81006995Y-68115212D01*
X81018293Y-68091326D01*
X81031877Y-68068663D01*
X81047617Y-68047440D01*
X81065361Y-68027861D01*
X81084940Y-68010117D01*
X81106163Y-67994377D01*
X81128826Y-67980793D01*
X81152712Y-67969495D01*
X81177591Y-67960594D01*
X81203222Y-67954174D01*
X81229359Y-67950297D01*
X81255750Y-67949000D01*
X81794250Y-67949000D01*
X81820641Y-67950297D01*
G37*
G36*
X63246141Y-72862797D02*
G01*
X63272278Y-72866674D01*
X63297909Y-72873094D01*
X63322788Y-72881995D01*
X63346674Y-72893293D01*
X63369337Y-72906877D01*
X63390560Y-72922617D01*
X63410139Y-72940361D01*
X63427883Y-72959940D01*
X63443623Y-72981163D01*
X63457207Y-73003826D01*
X63468505Y-73027712D01*
X63477406Y-73052591D01*
X63483826Y-73078222D01*
X63487703Y-73104359D01*
X63489000Y-73130750D01*
X63489000Y-73669250D01*
X63487703Y-73695641D01*
X63483826Y-73721778D01*
X63477406Y-73747409D01*
X63468505Y-73772288D01*
X63457207Y-73796174D01*
X63443623Y-73818837D01*
X63427883Y-73840060D01*
X63410139Y-73859639D01*
X63390560Y-73877383D01*
X63369337Y-73893123D01*
X63346674Y-73906707D01*
X63322788Y-73918005D01*
X63297909Y-73926906D01*
X63272278Y-73933326D01*
X63246141Y-73937203D01*
X63219750Y-73938500D01*
X62256250Y-73938500D01*
X62229859Y-73937203D01*
X62203722Y-73933326D01*
X62178091Y-73926906D01*
X62153212Y-73918005D01*
X62129326Y-73906707D01*
X62106663Y-73893123D01*
X62085440Y-73877383D01*
X62065861Y-73859639D01*
X62048117Y-73840060D01*
X62032377Y-73818837D01*
X62018793Y-73796174D01*
X62007495Y-73772288D01*
X61998594Y-73747409D01*
X61992174Y-73721778D01*
X61988297Y-73695641D01*
X61987000Y-73669250D01*
X61987000Y-73130750D01*
X61988297Y-73104359D01*
X61992174Y-73078222D01*
X61998594Y-73052591D01*
X62007495Y-73027712D01*
X62018793Y-73003826D01*
X62032377Y-72981163D01*
X62048117Y-72959940D01*
X62065861Y-72940361D01*
X62085440Y-72922617D01*
X62106663Y-72906877D01*
X62129326Y-72893293D01*
X62153212Y-72881995D01*
X62178091Y-72873094D01*
X62203722Y-72866674D01*
X62229859Y-72862797D01*
X62256250Y-72861500D01*
X63219750Y-72861500D01*
X63246141Y-72862797D01*
G37*
G36*
X63246141Y-74737797D02*
G01*
X63272278Y-74741674D01*
X63297909Y-74748094D01*
X63322788Y-74756995D01*
X63346674Y-74768293D01*
X63369337Y-74781877D01*
X63390560Y-74797617D01*
X63410139Y-74815361D01*
X63427883Y-74834940D01*
X63443623Y-74856163D01*
X63457207Y-74878826D01*
X63468505Y-74902712D01*
X63477406Y-74927591D01*
X63483826Y-74953222D01*
X63487703Y-74979359D01*
X63489000Y-75005750D01*
X63489000Y-75544250D01*
X63487703Y-75570641D01*
X63483826Y-75596778D01*
X63477406Y-75622409D01*
X63468505Y-75647288D01*
X63457207Y-75671174D01*
X63443623Y-75693837D01*
X63427883Y-75715060D01*
X63410139Y-75734639D01*
X63390560Y-75752383D01*
X63369337Y-75768123D01*
X63346674Y-75781707D01*
X63322788Y-75793005D01*
X63297909Y-75801906D01*
X63272278Y-75808326D01*
X63246141Y-75812203D01*
X63219750Y-75813500D01*
X62256250Y-75813500D01*
X62229859Y-75812203D01*
X62203722Y-75808326D01*
X62178091Y-75801906D01*
X62153212Y-75793005D01*
X62129326Y-75781707D01*
X62106663Y-75768123D01*
X62085440Y-75752383D01*
X62065861Y-75734639D01*
X62048117Y-75715060D01*
X62032377Y-75693837D01*
X62018793Y-75671174D01*
X62007495Y-75647288D01*
X61998594Y-75622409D01*
X61992174Y-75596778D01*
X61988297Y-75570641D01*
X61987000Y-75544250D01*
X61987000Y-75005750D01*
X61988297Y-74979359D01*
X61992174Y-74953222D01*
X61998594Y-74927591D01*
X62007495Y-74902712D01*
X62018793Y-74878826D01*
X62032377Y-74856163D01*
X62048117Y-74834940D01*
X62065861Y-74815361D01*
X62085440Y-74797617D01*
X62106663Y-74781877D01*
X62129326Y-74768293D01*
X62153212Y-74756995D01*
X62178091Y-74748094D01*
X62203722Y-74741674D01*
X62229859Y-74737797D01*
X62256250Y-74736500D01*
X63219750Y-74736500D01*
X63246141Y-74737797D01*
G37*
G36*
X58129141Y-70116297D02*
G01*
X58155278Y-70120174D01*
X58180909Y-70126594D01*
X58205788Y-70135495D01*
X58229674Y-70146793D01*
X58252337Y-70160377D01*
X58273560Y-70176117D01*
X58293139Y-70193861D01*
X58310883Y-70213440D01*
X58326623Y-70234663D01*
X58340207Y-70257326D01*
X58351505Y-70281212D01*
X58360406Y-70306091D01*
X58366826Y-70331722D01*
X58370703Y-70357859D01*
X58372000Y-70384250D01*
X58372000Y-71347750D01*
X58370703Y-71374141D01*
X58366826Y-71400278D01*
X58360406Y-71425909D01*
X58351505Y-71450788D01*
X58340207Y-71474674D01*
X58326623Y-71497337D01*
X58310883Y-71518560D01*
X58293139Y-71538139D01*
X58273560Y-71555883D01*
X58252337Y-71571623D01*
X58229674Y-71585207D01*
X58205788Y-71596505D01*
X58180909Y-71605406D01*
X58155278Y-71611826D01*
X58129141Y-71615703D01*
X58102750Y-71617000D01*
X57564250Y-71617000D01*
X57537859Y-71615703D01*
X57511722Y-71611826D01*
X57486091Y-71605406D01*
X57461212Y-71596505D01*
X57437326Y-71585207D01*
X57414663Y-71571623D01*
X57393440Y-71555883D01*
X57373861Y-71538139D01*
X57356117Y-71518560D01*
X57340377Y-71497337D01*
X57326793Y-71474674D01*
X57315495Y-71450788D01*
X57306594Y-71425909D01*
X57300174Y-71400278D01*
X57296297Y-71374141D01*
X57295000Y-71347750D01*
X57295000Y-70384250D01*
X57296297Y-70357859D01*
X57300174Y-70331722D01*
X57306594Y-70306091D01*
X57315495Y-70281212D01*
X57326793Y-70257326D01*
X57340377Y-70234663D01*
X57356117Y-70213440D01*
X57373861Y-70193861D01*
X57393440Y-70176117D01*
X57414663Y-70160377D01*
X57437326Y-70146793D01*
X57461212Y-70135495D01*
X57486091Y-70126594D01*
X57511722Y-70120174D01*
X57537859Y-70116297D01*
X57564250Y-70115000D01*
X58102750Y-70115000D01*
X58129141Y-70116297D01*
G37*
G36*
X56254141Y-70116297D02*
G01*
X56280278Y-70120174D01*
X56305909Y-70126594D01*
X56330788Y-70135495D01*
X56354674Y-70146793D01*
X56377337Y-70160377D01*
X56398560Y-70176117D01*
X56418139Y-70193861D01*
X56435883Y-70213440D01*
X56451623Y-70234663D01*
X56465207Y-70257326D01*
X56476505Y-70281212D01*
X56485406Y-70306091D01*
X56491826Y-70331722D01*
X56495703Y-70357859D01*
X56497000Y-70384250D01*
X56497000Y-71347750D01*
X56495703Y-71374141D01*
X56491826Y-71400278D01*
X56485406Y-71425909D01*
X56476505Y-71450788D01*
X56465207Y-71474674D01*
X56451623Y-71497337D01*
X56435883Y-71518560D01*
X56418139Y-71538139D01*
X56398560Y-71555883D01*
X56377337Y-71571623D01*
X56354674Y-71585207D01*
X56330788Y-71596505D01*
X56305909Y-71605406D01*
X56280278Y-71611826D01*
X56254141Y-71615703D01*
X56227750Y-71617000D01*
X55689250Y-71617000D01*
X55662859Y-71615703D01*
X55636722Y-71611826D01*
X55611091Y-71605406D01*
X55586212Y-71596505D01*
X55562326Y-71585207D01*
X55539663Y-71571623D01*
X55518440Y-71555883D01*
X55498861Y-71538139D01*
X55481117Y-71518560D01*
X55465377Y-71497337D01*
X55451793Y-71474674D01*
X55440495Y-71450788D01*
X55431594Y-71425909D01*
X55425174Y-71400278D01*
X55421297Y-71374141D01*
X55420000Y-71347750D01*
X55420000Y-70384250D01*
X55421297Y-70357859D01*
X55425174Y-70331722D01*
X55431594Y-70306091D01*
X55440495Y-70281212D01*
X55451793Y-70257326D01*
X55465377Y-70234663D01*
X55481117Y-70213440D01*
X55498861Y-70193861D01*
X55518440Y-70176117D01*
X55539663Y-70160377D01*
X55562326Y-70146793D01*
X55586212Y-70135495D01*
X55611091Y-70126594D01*
X55636722Y-70120174D01*
X55662859Y-70116297D01*
X55689250Y-70115000D01*
X56227750Y-70115000D01*
X56254141Y-70116297D01*
G37*
D15*
G36*
X131873000Y-82873000D02*
G01*
X106127000Y-82873000D01*
X106127000Y-79127000D01*
X128000000Y-79127000D01*
X128024776Y-79124560D01*
X128048601Y-79117333D01*
X128070557Y-79105597D01*
X128089803Y-79089803D01*
X128105597Y-79070557D01*
X128117333Y-79048601D01*
X128124560Y-79024776D01*
X128127000Y-79000000D01*
X128127000Y-45127000D01*
X131873000Y-45127000D01*
X131873000Y-82873000D01*
G37*
X131873000Y-82873000D02*
X106127000Y-82873000D01*
X106127000Y-79127000D01*
X128000000Y-79127000D01*
X128024776Y-79124560D01*
X128048601Y-79117333D01*
X128070557Y-79105597D01*
X128089803Y-79089803D01*
X128105597Y-79070557D01*
X128117333Y-79048601D01*
X128124560Y-79024776D01*
X128127000Y-79000000D01*
X128127000Y-45127000D01*
X131873000Y-45127000D01*
X131873000Y-82873000D01*
G36*
X102873000Y-82873000D02*
G01*
X82127000Y-82873000D01*
X82127000Y-81052606D01*
X84052606Y-79127000D01*
X99000000Y-79127000D01*
X99024776Y-79124560D01*
X99048601Y-79117333D01*
X99070557Y-79105597D01*
X99089803Y-79089803D01*
X99105597Y-79070557D01*
X99117333Y-79048601D01*
X99124560Y-79024776D01*
X99127000Y-79000000D01*
X99127000Y-45127000D01*
X102873000Y-45127000D01*
X102873000Y-82873000D01*
G37*
X102873000Y-82873000D02*
X82127000Y-82873000D01*
X82127000Y-81052606D01*
X84052606Y-79127000D01*
X99000000Y-79127000D01*
X99024776Y-79124560D01*
X99048601Y-79117333D01*
X99070557Y-79105597D01*
X99089803Y-79089803D01*
X99105597Y-79070557D01*
X99117333Y-79048601D01*
X99124560Y-79024776D01*
X99127000Y-79000000D01*
X99127000Y-45127000D01*
X102873000Y-45127000D01*
X102873000Y-82873000D01*
M02*
