G04 #@! TF.GenerationSoftware,KiCad,Pcbnew,(5.1.5)-3*
G04 #@! TF.CreationDate,2020-01-11T02:44:02+09:00*
G04 #@! TF.ProjectId,H-Bridge-MD,482d4272-6964-4676-952d-4d442e6b6963,rev?*
G04 #@! TF.SameCoordinates,Original*
G04 #@! TF.FileFunction,Legend,Top*
G04 #@! TF.FilePolarity,Positive*
%FSLAX46Y46*%
G04 Gerber Fmt 4.6, Leading zero omitted, Abs format (unit mm)*
G04 Created by KiCad (PCBNEW (5.1.5)-3) date 2020-01-11 02:44:02*
%MOMM*%
%LPD*%
G04 APERTURE LIST*
%ADD10C,0.050000*%
%ADD11C,0.150000*%
%ADD12C,0.120000*%
%ADD13C,0.225000*%
%ADD14C,0.100000*%
%ADD15C,0.200000*%
%ADD16C,0.254000*%
%ADD17O,1.702000X1.702000*%
%ADD18R,1.702000X1.702000*%
%ADD19R,0.902000X1.702000*%
%ADD20O,1.802000X1.802000*%
%ADD21R,1.802000X1.802000*%
%ADD22R,4.382000X2.182000*%
%ADD23R,1.502000X0.597000*%
%ADD24R,0.662000X0.852000*%
%ADD25R,1.102000X0.852000*%
%ADD26R,1.002000X1.002000*%
%ADD27R,0.752000X3.702000*%
%ADD28C,0.752000*%
%ADD29R,0.752000X4.702000*%
%ADD30C,5.202000*%
%ADD31O,2.902000X1.602000*%
%ADD32R,2.102000X1.602000*%
%ADD33R,2.102000X3.902000*%
%ADD34R,1.577000X0.552000*%
%ADD35R,3.102000X5.102000*%
G04 APERTURE END LIST*
D10*
X50000000Y-90000000D02*
X61468000Y-90000000D01*
X63373000Y-90000000D02*
X135000000Y-90000000D01*
X63373000Y-80772000D02*
X61468000Y-80772000D01*
D11*
X53947619Y-63171428D02*
X54947619Y-63171428D01*
X54233333Y-63504761D01*
X54947619Y-63838095D01*
X53947619Y-63838095D01*
X53947619Y-64457142D02*
X53995238Y-64361904D01*
X54042857Y-64314285D01*
X54138095Y-64266666D01*
X54423809Y-64266666D01*
X54519047Y-64314285D01*
X54566666Y-64361904D01*
X54614285Y-64457142D01*
X54614285Y-64600000D01*
X54566666Y-64695238D01*
X54519047Y-64742857D01*
X54423809Y-64790476D01*
X54138095Y-64790476D01*
X54042857Y-64742857D01*
X53995238Y-64695238D01*
X53947619Y-64600000D01*
X53947619Y-64457142D01*
X54614285Y-65076190D02*
X54614285Y-65457142D01*
X54947619Y-65219047D02*
X54090476Y-65219047D01*
X53995238Y-65266666D01*
X53947619Y-65361904D01*
X53947619Y-65457142D01*
X53947619Y-65933333D02*
X53995238Y-65838095D01*
X54042857Y-65790476D01*
X54138095Y-65742857D01*
X54423809Y-65742857D01*
X54519047Y-65790476D01*
X54566666Y-65838095D01*
X54614285Y-65933333D01*
X54614285Y-66076190D01*
X54566666Y-66171428D01*
X54519047Y-66219047D01*
X54423809Y-66266666D01*
X54138095Y-66266666D01*
X54042857Y-66219047D01*
X53995238Y-66171428D01*
X53947619Y-66076190D01*
X53947619Y-65933333D01*
X53947619Y-66695238D02*
X54614285Y-66695238D01*
X54423809Y-66695238D02*
X54519047Y-66742857D01*
X54566666Y-66790476D01*
X54614285Y-66885714D01*
X54614285Y-66980952D01*
X54328571Y-67314285D02*
X54328571Y-68076190D01*
X53947619Y-69076190D02*
X53947619Y-68504761D01*
X53947619Y-68790476D02*
X54947619Y-68790476D01*
X54804761Y-68695238D01*
X54709523Y-68600000D01*
X54661904Y-68504761D01*
D12*
X55714285Y-81266666D02*
X55676190Y-81228571D01*
X55638095Y-81114285D01*
X55638095Y-81038095D01*
X55676190Y-80923809D01*
X55752380Y-80847619D01*
X55828571Y-80809523D01*
X55980952Y-80771428D01*
X56095238Y-80771428D01*
X56247619Y-80809523D01*
X56323809Y-80847619D01*
X56400000Y-80923809D01*
X56438095Y-81038095D01*
X56438095Y-81114285D01*
X56400000Y-81228571D01*
X56361904Y-81266666D01*
X55866666Y-81571428D02*
X55866666Y-81952380D01*
X55638095Y-81495238D02*
X56438095Y-81761904D01*
X55638095Y-82028571D01*
X55638095Y-82295238D02*
X56438095Y-82295238D01*
X55638095Y-82752380D01*
X56438095Y-82752380D01*
X55638095Y-83133333D02*
X56438095Y-83133333D01*
X56057142Y-83133333D02*
X56057142Y-83590476D01*
X55638095Y-83590476D02*
X56438095Y-83590476D01*
X54614285Y-81261904D02*
X54576190Y-81223809D01*
X54538095Y-81109523D01*
X54538095Y-81033333D01*
X54576190Y-80919047D01*
X54652380Y-80842857D01*
X54728571Y-80804761D01*
X54880952Y-80766666D01*
X54995238Y-80766666D01*
X55147619Y-80804761D01*
X55223809Y-80842857D01*
X55300000Y-80919047D01*
X55338095Y-81033333D01*
X55338095Y-81109523D01*
X55300000Y-81223809D01*
X55261904Y-81261904D01*
X54766666Y-81566666D02*
X54766666Y-81947619D01*
X54538095Y-81490476D02*
X55338095Y-81757142D01*
X54538095Y-82023809D01*
X54538095Y-82290476D02*
X55338095Y-82290476D01*
X54538095Y-82747619D01*
X55338095Y-82747619D01*
X54538095Y-83509523D02*
X54538095Y-83128571D01*
X55338095Y-83128571D01*
D13*
X133678571Y-74392857D02*
X132178571Y-74392857D01*
X133250000Y-73892857D01*
X132178571Y-73392857D01*
X133678571Y-73392857D01*
X133678571Y-72464285D02*
X133607142Y-72607142D01*
X133535714Y-72678571D01*
X133392857Y-72750000D01*
X132964285Y-72750000D01*
X132821428Y-72678571D01*
X132750000Y-72607142D01*
X132678571Y-72464285D01*
X132678571Y-72250000D01*
X132750000Y-72107142D01*
X132821428Y-72035714D01*
X132964285Y-71964285D01*
X133392857Y-71964285D01*
X133535714Y-72035714D01*
X133607142Y-72107142D01*
X133678571Y-72250000D01*
X133678571Y-72464285D01*
X132678571Y-71535714D02*
X132678571Y-70964285D01*
X132178571Y-71321428D02*
X133464285Y-71321428D01*
X133607142Y-71250000D01*
X133678571Y-71107142D01*
X133678571Y-70964285D01*
X133678571Y-70250000D02*
X133607142Y-70392857D01*
X133535714Y-70464285D01*
X133392857Y-70535714D01*
X132964285Y-70535714D01*
X132821428Y-70464285D01*
X132750000Y-70392857D01*
X132678571Y-70250000D01*
X132678571Y-70035714D01*
X132750000Y-69892857D01*
X132821428Y-69821428D01*
X132964285Y-69750000D01*
X133392857Y-69750000D01*
X133535714Y-69821428D01*
X133607142Y-69892857D01*
X133678571Y-70035714D01*
X133678571Y-70250000D01*
X133678571Y-69107142D02*
X132678571Y-69107142D01*
X132964285Y-69107142D02*
X132821428Y-69035714D01*
X132750000Y-68964285D01*
X132678571Y-68821428D01*
X132678571Y-68678571D01*
X133107142Y-68178571D02*
X133107142Y-67035714D01*
X133678571Y-65535714D02*
X133678571Y-66392857D01*
X133678571Y-65964285D02*
X132178571Y-65964285D01*
X132392857Y-66107142D01*
X132535714Y-66250000D01*
X132607142Y-66392857D01*
X133678571Y-55392857D02*
X132178571Y-55392857D01*
X133250000Y-54892857D01*
X132178571Y-54392857D01*
X133678571Y-54392857D01*
X133678571Y-53464285D02*
X133607142Y-53607142D01*
X133535714Y-53678571D01*
X133392857Y-53750000D01*
X132964285Y-53750000D01*
X132821428Y-53678571D01*
X132750000Y-53607142D01*
X132678571Y-53464285D01*
X132678571Y-53250000D01*
X132750000Y-53107142D01*
X132821428Y-53035714D01*
X132964285Y-52964285D01*
X133392857Y-52964285D01*
X133535714Y-53035714D01*
X133607142Y-53107142D01*
X133678571Y-53250000D01*
X133678571Y-53464285D01*
X132678571Y-52535714D02*
X132678571Y-51964285D01*
X132178571Y-52321428D02*
X133464285Y-52321428D01*
X133607142Y-52250000D01*
X133678571Y-52107142D01*
X133678571Y-51964285D01*
X133678571Y-51250000D02*
X133607142Y-51392857D01*
X133535714Y-51464285D01*
X133392857Y-51535714D01*
X132964285Y-51535714D01*
X132821428Y-51464285D01*
X132750000Y-51392857D01*
X132678571Y-51250000D01*
X132678571Y-51035714D01*
X132750000Y-50892857D01*
X132821428Y-50821428D01*
X132964285Y-50750000D01*
X133392857Y-50750000D01*
X133535714Y-50821428D01*
X133607142Y-50892857D01*
X133678571Y-51035714D01*
X133678571Y-51250000D01*
X133678571Y-50107142D02*
X132678571Y-50107142D01*
X132964285Y-50107142D02*
X132821428Y-50035714D01*
X132750000Y-49964285D01*
X132678571Y-49821428D01*
X132678571Y-49678571D01*
X133107142Y-49178571D02*
X133107142Y-48035714D01*
X132178571Y-47035714D02*
X132178571Y-46892857D01*
X132250000Y-46750000D01*
X132321428Y-46678571D01*
X132464285Y-46607142D01*
X132750000Y-46535714D01*
X133107142Y-46535714D01*
X133392857Y-46607142D01*
X133535714Y-46678571D01*
X133607142Y-46750000D01*
X133678571Y-46892857D01*
X133678571Y-47035714D01*
X133607142Y-47178571D01*
X133535714Y-47250000D01*
X133392857Y-47321428D01*
X133107142Y-47392857D01*
X132750000Y-47392857D01*
X132464285Y-47321428D01*
X132321428Y-47250000D01*
X132250000Y-47178571D01*
X132178571Y-47035714D01*
D12*
X55778095Y-70649428D02*
X55778095Y-70268476D01*
X56578095Y-70268476D01*
X56197142Y-70916095D02*
X56197142Y-71182761D01*
X55778095Y-71297047D02*
X55778095Y-70916095D01*
X56578095Y-70916095D01*
X56578095Y-71297047D01*
X55778095Y-71639904D02*
X56578095Y-71639904D01*
X56578095Y-71830380D01*
X56540000Y-71944666D01*
X56463809Y-72020857D01*
X56387619Y-72058952D01*
X56235238Y-72097047D01*
X56120952Y-72097047D01*
X55968571Y-72058952D01*
X55892380Y-72020857D01*
X55816190Y-71944666D01*
X55778095Y-71830380D01*
X55778095Y-71639904D01*
X55473333Y-72668476D02*
X55511428Y-72630380D01*
X55625714Y-72554190D01*
X55701904Y-72516095D01*
X55816190Y-72478000D01*
X56006666Y-72439904D01*
X56159047Y-72439904D01*
X56349523Y-72478000D01*
X56463809Y-72516095D01*
X56540000Y-72554190D01*
X56654285Y-72630380D01*
X56692380Y-72668476D01*
X56578095Y-73125619D02*
X56578095Y-73278000D01*
X56540000Y-73354190D01*
X56463809Y-73430380D01*
X56311428Y-73468476D01*
X56044761Y-73468476D01*
X55892380Y-73430380D01*
X55816190Y-73354190D01*
X55778095Y-73278000D01*
X55778095Y-73125619D01*
X55816190Y-73049428D01*
X55892380Y-72973238D01*
X56044761Y-72935142D01*
X56311428Y-72935142D01*
X56463809Y-72973238D01*
X56540000Y-73049428D01*
X56578095Y-73125619D01*
X55778095Y-73811333D02*
X56578095Y-73811333D01*
X55778095Y-74268476D01*
X56578095Y-74268476D01*
X55854285Y-74649428D02*
X55816190Y-74687523D01*
X55778095Y-74649428D01*
X55816190Y-74611333D01*
X55854285Y-74649428D01*
X55778095Y-74649428D01*
X56273333Y-74649428D02*
X56235238Y-74687523D01*
X56197142Y-74649428D01*
X56235238Y-74611333D01*
X56273333Y-74649428D01*
X56197142Y-74649428D01*
X55778095Y-75449428D02*
X55778095Y-74992285D01*
X55778095Y-75220857D02*
X56578095Y-75220857D01*
X56463809Y-75144666D01*
X56387619Y-75068476D01*
X56349523Y-74992285D01*
X56578095Y-76554190D02*
X56578095Y-76706571D01*
X56540000Y-76782761D01*
X56463809Y-76858952D01*
X56311428Y-76897047D01*
X56044761Y-76897047D01*
X55892380Y-76858952D01*
X55816190Y-76782761D01*
X55778095Y-76706571D01*
X55778095Y-76554190D01*
X55816190Y-76478000D01*
X55892380Y-76401809D01*
X56044761Y-76363714D01*
X56311428Y-76363714D01*
X56463809Y-76401809D01*
X56540000Y-76478000D01*
X56578095Y-76554190D01*
X56197142Y-77506571D02*
X56197142Y-77239904D01*
X55778095Y-77239904D02*
X56578095Y-77239904D01*
X56578095Y-77620857D01*
X56197142Y-78192285D02*
X56197142Y-77925619D01*
X55778095Y-77925619D02*
X56578095Y-77925619D01*
X56578095Y-78306571D01*
X55854285Y-78611333D02*
X55816190Y-78649428D01*
X55778095Y-78611333D01*
X55816190Y-78573238D01*
X55854285Y-78611333D01*
X55778095Y-78611333D01*
X56273333Y-78611333D02*
X56235238Y-78649428D01*
X56197142Y-78611333D01*
X56235238Y-78573238D01*
X56273333Y-78611333D01*
X56197142Y-78611333D01*
X56578095Y-79144666D02*
X56578095Y-79220857D01*
X56540000Y-79297047D01*
X56501904Y-79335142D01*
X56425714Y-79373238D01*
X56273333Y-79411333D01*
X56082857Y-79411333D01*
X55930476Y-79373238D01*
X55854285Y-79335142D01*
X55816190Y-79297047D01*
X55778095Y-79220857D01*
X55778095Y-79144666D01*
X55816190Y-79068476D01*
X55854285Y-79030380D01*
X55930476Y-78992285D01*
X56082857Y-78954190D01*
X56273333Y-78954190D01*
X56425714Y-78992285D01*
X56501904Y-79030380D01*
X56540000Y-79068476D01*
X56578095Y-79144666D01*
X55473333Y-79678000D02*
X55511428Y-79716095D01*
X55625714Y-79792285D01*
X55701904Y-79830380D01*
X55816190Y-79868476D01*
X56006666Y-79906571D01*
X56159047Y-79906571D01*
X56349523Y-79868476D01*
X56463809Y-79830380D01*
X56540000Y-79792285D01*
X56654285Y-79716095D01*
X56692380Y-79678000D01*
X55258095Y-70420857D02*
X55258095Y-70497047D01*
X55220000Y-70573238D01*
X55181904Y-70611333D01*
X55105714Y-70649428D01*
X54953333Y-70687523D01*
X54762857Y-70687523D01*
X54610476Y-70649428D01*
X54534285Y-70611333D01*
X54496190Y-70573238D01*
X54458095Y-70497047D01*
X54458095Y-70420857D01*
X54496190Y-70344666D01*
X54534285Y-70306571D01*
X54610476Y-70268476D01*
X54762857Y-70230380D01*
X54953333Y-70230380D01*
X55105714Y-70268476D01*
X55181904Y-70306571D01*
X55220000Y-70344666D01*
X55258095Y-70420857D01*
X55258095Y-71182761D02*
X55258095Y-71258952D01*
X55220000Y-71335142D01*
X55181904Y-71373238D01*
X55105714Y-71411333D01*
X54953333Y-71449428D01*
X54762857Y-71449428D01*
X54610476Y-71411333D01*
X54534285Y-71373238D01*
X54496190Y-71335142D01*
X54458095Y-71258952D01*
X54458095Y-71182761D01*
X54496190Y-71106571D01*
X54534285Y-71068476D01*
X54610476Y-71030380D01*
X54762857Y-70992285D01*
X54953333Y-70992285D01*
X55105714Y-71030380D01*
X55181904Y-71068476D01*
X55220000Y-71106571D01*
X55258095Y-71182761D01*
X54762857Y-72401809D02*
X54762857Y-73011333D01*
X54991428Y-73392285D02*
X54762857Y-74001809D01*
X54534285Y-73392285D01*
X54877142Y-75258952D02*
X54877142Y-74992285D01*
X54458095Y-74992285D02*
X55258095Y-74992285D01*
X55258095Y-75373238D01*
X54458095Y-75678000D02*
X54991428Y-75678000D01*
X54839047Y-75678000D02*
X54915238Y-75716095D01*
X54953333Y-75754190D01*
X54991428Y-75830380D01*
X54991428Y-75906571D01*
X54496190Y-76478000D02*
X54458095Y-76401809D01*
X54458095Y-76249428D01*
X54496190Y-76173238D01*
X54572380Y-76135142D01*
X54877142Y-76135142D01*
X54953333Y-76173238D01*
X54991428Y-76249428D01*
X54991428Y-76401809D01*
X54953333Y-76478000D01*
X54877142Y-76516095D01*
X54800952Y-76516095D01*
X54724761Y-76135142D01*
X54496190Y-77163714D02*
X54458095Y-77087523D01*
X54458095Y-76935142D01*
X54496190Y-76858952D01*
X54572380Y-76820857D01*
X54877142Y-76820857D01*
X54953333Y-76858952D01*
X54991428Y-76935142D01*
X54991428Y-77087523D01*
X54953333Y-77163714D01*
X54877142Y-77201809D01*
X54800952Y-77201809D01*
X54724761Y-76820857D01*
X53938095Y-70420857D02*
X53938095Y-70497047D01*
X53900000Y-70573238D01*
X53861904Y-70611333D01*
X53785714Y-70649428D01*
X53633333Y-70687523D01*
X53442857Y-70687523D01*
X53290476Y-70649428D01*
X53214285Y-70611333D01*
X53176190Y-70573238D01*
X53138095Y-70497047D01*
X53138095Y-70420857D01*
X53176190Y-70344666D01*
X53214285Y-70306571D01*
X53290476Y-70268476D01*
X53442857Y-70230380D01*
X53633333Y-70230380D01*
X53785714Y-70268476D01*
X53861904Y-70306571D01*
X53900000Y-70344666D01*
X53938095Y-70420857D01*
X53138095Y-71449428D02*
X53138095Y-70992285D01*
X53138095Y-71220857D02*
X53938095Y-71220857D01*
X53823809Y-71144666D01*
X53747619Y-71068476D01*
X53709523Y-70992285D01*
X53442857Y-72401809D02*
X53442857Y-73011333D01*
X53671428Y-73392285D02*
X53442857Y-74001809D01*
X53214285Y-73392285D01*
X53214285Y-75449428D02*
X53176190Y-75411333D01*
X53138095Y-75297047D01*
X53138095Y-75220857D01*
X53176190Y-75106571D01*
X53252380Y-75030380D01*
X53328571Y-74992285D01*
X53480952Y-74954190D01*
X53595238Y-74954190D01*
X53747619Y-74992285D01*
X53823809Y-75030380D01*
X53900000Y-75106571D01*
X53938095Y-75220857D01*
X53938095Y-75297047D01*
X53900000Y-75411333D01*
X53861904Y-75449428D01*
X53938095Y-75716095D02*
X53138095Y-75906571D01*
X53709523Y-76058952D01*
X53138095Y-76211333D01*
X53938095Y-76401809D01*
X51818095Y-70687523D02*
X51818095Y-70230380D01*
X51818095Y-70458952D02*
X52618095Y-70458952D01*
X52503809Y-70382761D01*
X52427619Y-70306571D01*
X52389523Y-70230380D01*
X52618095Y-71182761D02*
X52618095Y-71258952D01*
X52580000Y-71335142D01*
X52541904Y-71373238D01*
X52465714Y-71411333D01*
X52313333Y-71449428D01*
X52122857Y-71449428D01*
X51970476Y-71411333D01*
X51894285Y-71373238D01*
X51856190Y-71335142D01*
X51818095Y-71258952D01*
X51818095Y-71182761D01*
X51856190Y-71106571D01*
X51894285Y-71068476D01*
X51970476Y-71030380D01*
X52122857Y-70992285D01*
X52313333Y-70992285D01*
X52465714Y-71030380D01*
X52541904Y-71068476D01*
X52580000Y-71106571D01*
X52618095Y-71182761D01*
X52122857Y-72401809D02*
X52122857Y-73011333D01*
X52351428Y-73392285D02*
X52122857Y-74001809D01*
X51894285Y-73392285D01*
X51894285Y-75449428D02*
X51856190Y-75411333D01*
X51818095Y-75297047D01*
X51818095Y-75220857D01*
X51856190Y-75106571D01*
X51932380Y-75030380D01*
X52008571Y-74992285D01*
X52160952Y-74954190D01*
X52275238Y-74954190D01*
X52427619Y-74992285D01*
X52503809Y-75030380D01*
X52580000Y-75106571D01*
X52618095Y-75220857D01*
X52618095Y-75297047D01*
X52580000Y-75411333D01*
X52541904Y-75449428D01*
X51894285Y-76249428D02*
X51856190Y-76211333D01*
X51818095Y-76097047D01*
X51818095Y-76020857D01*
X51856190Y-75906571D01*
X51932380Y-75830380D01*
X52008571Y-75792285D01*
X52160952Y-75754190D01*
X52275238Y-75754190D01*
X52427619Y-75792285D01*
X52503809Y-75830380D01*
X52580000Y-75906571D01*
X52618095Y-76020857D01*
X52618095Y-76097047D01*
X52580000Y-76211333D01*
X52541904Y-76249428D01*
X52618095Y-76516095D02*
X51818095Y-76706571D01*
X52389523Y-76858952D01*
X51818095Y-77011333D01*
X52618095Y-77201809D01*
X50498095Y-70687523D02*
X50498095Y-70230380D01*
X50498095Y-70458952D02*
X51298095Y-70458952D01*
X51183809Y-70382761D01*
X51107619Y-70306571D01*
X51069523Y-70230380D01*
X50498095Y-71449428D02*
X50498095Y-70992285D01*
X50498095Y-71220857D02*
X51298095Y-71220857D01*
X51183809Y-71144666D01*
X51107619Y-71068476D01*
X51069523Y-70992285D01*
X50802857Y-72401809D02*
X50802857Y-73011333D01*
X51031428Y-73392285D02*
X50802857Y-74001809D01*
X50574285Y-73392285D01*
X50917142Y-75258952D02*
X50879047Y-75373238D01*
X50840952Y-75411333D01*
X50764761Y-75449428D01*
X50650476Y-75449428D01*
X50574285Y-75411333D01*
X50536190Y-75373238D01*
X50498095Y-75297047D01*
X50498095Y-74992285D01*
X51298095Y-74992285D01*
X51298095Y-75258952D01*
X51260000Y-75335142D01*
X51221904Y-75373238D01*
X51145714Y-75411333D01*
X51069523Y-75411333D01*
X50993333Y-75373238D01*
X50955238Y-75335142D01*
X50917142Y-75258952D01*
X50917142Y-74992285D01*
X50498095Y-75792285D02*
X51031428Y-75792285D01*
X50879047Y-75792285D02*
X50955238Y-75830380D01*
X50993333Y-75868476D01*
X51031428Y-75944666D01*
X51031428Y-76020857D01*
X50498095Y-76630380D02*
X50917142Y-76630380D01*
X50993333Y-76592285D01*
X51031428Y-76516095D01*
X51031428Y-76363714D01*
X50993333Y-76287523D01*
X50536190Y-76630380D02*
X50498095Y-76554190D01*
X50498095Y-76363714D01*
X50536190Y-76287523D01*
X50612380Y-76249428D01*
X50688571Y-76249428D01*
X50764761Y-76287523D01*
X50802857Y-76363714D01*
X50802857Y-76554190D01*
X50840952Y-76630380D01*
X50498095Y-77011333D02*
X51298095Y-77011333D01*
X50802857Y-77087523D02*
X50498095Y-77316095D01*
X51031428Y-77316095D02*
X50726666Y-77011333D01*
X50536190Y-77963714D02*
X50498095Y-77887523D01*
X50498095Y-77735142D01*
X50536190Y-77658952D01*
X50612380Y-77620857D01*
X50917142Y-77620857D01*
X50993333Y-77658952D01*
X51031428Y-77735142D01*
X51031428Y-77887523D01*
X50993333Y-77963714D01*
X50917142Y-78001809D01*
X50840952Y-78001809D01*
X50764761Y-77620857D01*
D11*
X53747619Y-54071428D02*
X54747619Y-54071428D01*
X54033333Y-54404761D01*
X54747619Y-54738095D01*
X53747619Y-54738095D01*
X53747619Y-55357142D02*
X53795238Y-55261904D01*
X53842857Y-55214285D01*
X53938095Y-55166666D01*
X54223809Y-55166666D01*
X54319047Y-55214285D01*
X54366666Y-55261904D01*
X54414285Y-55357142D01*
X54414285Y-55500000D01*
X54366666Y-55595238D01*
X54319047Y-55642857D01*
X54223809Y-55690476D01*
X53938095Y-55690476D01*
X53842857Y-55642857D01*
X53795238Y-55595238D01*
X53747619Y-55500000D01*
X53747619Y-55357142D01*
X54414285Y-55976190D02*
X54414285Y-56357142D01*
X54747619Y-56119047D02*
X53890476Y-56119047D01*
X53795238Y-56166666D01*
X53747619Y-56261904D01*
X53747619Y-56357142D01*
X53747619Y-56833333D02*
X53795238Y-56738095D01*
X53842857Y-56690476D01*
X53938095Y-56642857D01*
X54223809Y-56642857D01*
X54319047Y-56690476D01*
X54366666Y-56738095D01*
X54414285Y-56833333D01*
X54414285Y-56976190D01*
X54366666Y-57071428D01*
X54319047Y-57119047D01*
X54223809Y-57166666D01*
X53938095Y-57166666D01*
X53842857Y-57119047D01*
X53795238Y-57071428D01*
X53747619Y-56976190D01*
X53747619Y-56833333D01*
X53747619Y-57595238D02*
X54414285Y-57595238D01*
X54223809Y-57595238D02*
X54319047Y-57642857D01*
X54366666Y-57690476D01*
X54414285Y-57785714D01*
X54414285Y-57880952D01*
X54128571Y-58214285D02*
X54128571Y-58976190D01*
X54747619Y-59642857D02*
X54747619Y-59738095D01*
X54700000Y-59833333D01*
X54652380Y-59880952D01*
X54557142Y-59928571D01*
X54366666Y-59976190D01*
X54128571Y-59976190D01*
X53938095Y-59928571D01*
X53842857Y-59880952D01*
X53795238Y-59833333D01*
X53747619Y-59738095D01*
X53747619Y-59642857D01*
X53795238Y-59547619D01*
X53842857Y-59500000D01*
X53938095Y-59452380D01*
X54128571Y-59404761D01*
X54366666Y-59404761D01*
X54557142Y-59452380D01*
X54652380Y-59500000D01*
X54700000Y-59547619D01*
X54747619Y-59642857D01*
D10*
X50000000Y-43500000D02*
G75*
G02X53500000Y-40000000I3500000J0D01*
G01*
X131500000Y-40000000D02*
G75*
G02X135000000Y-43500000I0J-3500000D01*
G01*
D14*
X85379085Y-43866628D02*
X85379085Y-43266628D01*
X85721942Y-43866628D01*
X85721942Y-43266628D01*
X86350514Y-43866628D02*
X86150514Y-43580914D01*
X86007657Y-43866628D02*
X86007657Y-43266628D01*
X86236228Y-43266628D01*
X86293371Y-43295200D01*
X86321942Y-43323771D01*
X86350514Y-43380914D01*
X86350514Y-43466628D01*
X86321942Y-43523771D01*
X86293371Y-43552342D01*
X86236228Y-43580914D01*
X86007657Y-43580914D01*
X86579085Y-43838057D02*
X86664800Y-43866628D01*
X86807657Y-43866628D01*
X86864800Y-43838057D01*
X86893371Y-43809485D01*
X86921942Y-43752342D01*
X86921942Y-43695200D01*
X86893371Y-43638057D01*
X86864800Y-43609485D01*
X86807657Y-43580914D01*
X86693371Y-43552342D01*
X86636228Y-43523771D01*
X86607657Y-43495200D01*
X86579085Y-43438057D01*
X86579085Y-43380914D01*
X86607657Y-43323771D01*
X86636228Y-43295200D01*
X86693371Y-43266628D01*
X86836228Y-43266628D01*
X86921942Y-43295200D01*
X87093371Y-43266628D02*
X87436228Y-43266628D01*
X87264800Y-43866628D02*
X87264800Y-43266628D01*
X82593371Y-43238057D02*
X82679085Y-43266628D01*
X82821942Y-43266628D01*
X82879085Y-43238057D01*
X82907657Y-43209485D01*
X82936228Y-43152342D01*
X82936228Y-43095200D01*
X82907657Y-43038057D01*
X82879085Y-43009485D01*
X82821942Y-42980914D01*
X82707657Y-42952342D01*
X82650514Y-42923771D01*
X82621942Y-42895200D01*
X82593371Y-42838057D01*
X82593371Y-42780914D01*
X82621942Y-42723771D01*
X82650514Y-42695200D01*
X82707657Y-42666628D01*
X82850514Y-42666628D01*
X82936228Y-42695200D01*
X83136228Y-42666628D02*
X83279085Y-43266628D01*
X83393371Y-42838057D01*
X83507657Y-43266628D01*
X83650514Y-42666628D01*
X83879085Y-43266628D02*
X83879085Y-42666628D01*
X84021942Y-42666628D01*
X84107657Y-42695200D01*
X84164800Y-42752342D01*
X84193371Y-42809485D01*
X84221942Y-42923771D01*
X84221942Y-43009485D01*
X84193371Y-43123771D01*
X84164800Y-43180914D01*
X84107657Y-43238057D01*
X84021942Y-43266628D01*
X83879085Y-43266628D01*
X84479085Y-43266628D02*
X84479085Y-42666628D01*
X84879085Y-42666628D02*
X84993371Y-42666628D01*
X85050514Y-42695200D01*
X85107657Y-42752342D01*
X85136228Y-42866628D01*
X85136228Y-43066628D01*
X85107657Y-43180914D01*
X85050514Y-43238057D01*
X84993371Y-43266628D01*
X84879085Y-43266628D01*
X84821942Y-43238057D01*
X84764800Y-43180914D01*
X84736228Y-43066628D01*
X84736228Y-42866628D01*
X84764800Y-42752342D01*
X84821942Y-42695200D01*
X84879085Y-42666628D01*
X77607657Y-43238057D02*
X77693371Y-43266628D01*
X77836228Y-43266628D01*
X77893371Y-43238057D01*
X77921942Y-43209485D01*
X77950514Y-43152342D01*
X77950514Y-43095200D01*
X77921942Y-43038057D01*
X77893371Y-43009485D01*
X77836228Y-42980914D01*
X77721942Y-42952342D01*
X77664800Y-42923771D01*
X77636228Y-42895200D01*
X77607657Y-42838057D01*
X77607657Y-42780914D01*
X77636228Y-42723771D01*
X77664800Y-42695200D01*
X77721942Y-42666628D01*
X77864800Y-42666628D01*
X77950514Y-42695200D01*
X78150514Y-42666628D02*
X78293371Y-43266628D01*
X78407657Y-42838057D01*
X78521942Y-43266628D01*
X78664800Y-42666628D01*
X79236228Y-43209485D02*
X79207657Y-43238057D01*
X79121942Y-43266628D01*
X79064800Y-43266628D01*
X78979085Y-43238057D01*
X78921942Y-43180914D01*
X78893371Y-43123771D01*
X78864800Y-43009485D01*
X78864800Y-42923771D01*
X78893371Y-42809485D01*
X78921942Y-42752342D01*
X78979085Y-42695200D01*
X79064800Y-42666628D01*
X79121942Y-42666628D01*
X79207657Y-42695200D01*
X79236228Y-42723771D01*
X79779085Y-43266628D02*
X79493371Y-43266628D01*
X79493371Y-42666628D01*
X79979085Y-43266628D02*
X79979085Y-42666628D01*
X80321942Y-43266628D02*
X80064800Y-42923771D01*
X80321942Y-42666628D02*
X79979085Y-43009485D01*
X80907657Y-43295200D02*
X80850514Y-43266628D01*
X80764800Y-43266628D01*
X80679085Y-43295200D01*
X80621942Y-43352342D01*
X80593371Y-43409485D01*
X80564800Y-43523771D01*
X80564800Y-43609485D01*
X80593371Y-43723771D01*
X80621942Y-43780914D01*
X80679085Y-43838057D01*
X80764800Y-43866628D01*
X80821942Y-43866628D01*
X80907657Y-43838057D01*
X80936228Y-43809485D01*
X80936228Y-43609485D01*
X80821942Y-43609485D01*
X81193371Y-43866628D02*
X81193371Y-43266628D01*
X81536228Y-43866628D01*
X81536228Y-43266628D01*
X81821942Y-43866628D02*
X81821942Y-43266628D01*
X81964800Y-43266628D01*
X82050514Y-43295200D01*
X82107657Y-43352342D01*
X82136228Y-43409485D01*
X82164800Y-43523771D01*
X82164800Y-43609485D01*
X82136228Y-43723771D01*
X82107657Y-43780914D01*
X82050514Y-43838057D01*
X81964800Y-43866628D01*
X81821942Y-43866628D01*
X75407657Y-43638057D02*
X75864800Y-43638057D01*
X75636228Y-43866628D02*
X75636228Y-43409485D01*
X76093371Y-43266628D02*
X76464800Y-43266628D01*
X76264800Y-43495200D01*
X76350514Y-43495200D01*
X76407657Y-43523771D01*
X76436228Y-43552342D01*
X76464800Y-43609485D01*
X76464800Y-43752342D01*
X76436228Y-43809485D01*
X76407657Y-43838057D01*
X76350514Y-43866628D01*
X76179085Y-43866628D01*
X76121942Y-43838057D01*
X76093371Y-43809485D01*
X76636228Y-43266628D02*
X76836228Y-43866628D01*
X77036228Y-43266628D01*
X77179085Y-43266628D02*
X77550514Y-43266628D01*
X77350514Y-43495200D01*
X77436228Y-43495200D01*
X77493371Y-43523771D01*
X77521942Y-43552342D01*
X77550514Y-43609485D01*
X77550514Y-43752342D01*
X77521942Y-43809485D01*
X77493371Y-43838057D01*
X77436228Y-43866628D01*
X77264800Y-43866628D01*
X77207657Y-43838057D01*
X77179085Y-43809485D01*
D10*
X63373000Y-80772000D02*
X63373000Y-90000000D01*
X61468000Y-90000000D02*
X61468000Y-80772000D01*
D11*
X53967000Y-81305495D02*
X54014619Y-81210257D01*
X54014619Y-81067400D01*
X53967000Y-80924542D01*
X53871761Y-80829304D01*
X53776523Y-80781685D01*
X53586047Y-80734066D01*
X53443190Y-80734066D01*
X53252714Y-80781685D01*
X53157476Y-80829304D01*
X53062238Y-80924542D01*
X53014619Y-81067400D01*
X53014619Y-81162638D01*
X53062238Y-81305495D01*
X53109857Y-81353114D01*
X53443190Y-81353114D01*
X53443190Y-81162638D01*
X53014619Y-81781685D02*
X54014619Y-81781685D01*
X53014619Y-82353114D01*
X54014619Y-82353114D01*
X53014619Y-82829304D02*
X54014619Y-82829304D01*
X54014619Y-83067400D01*
X53967000Y-83210257D01*
X53871761Y-83305495D01*
X53776523Y-83353114D01*
X53586047Y-83400733D01*
X53443190Y-83400733D01*
X53252714Y-83353114D01*
X53157476Y-83305495D01*
X53062238Y-83210257D01*
X53014619Y-83067400D01*
X53014619Y-82829304D01*
X51363571Y-80502285D02*
X51363571Y-81264190D01*
X50982619Y-80883238D02*
X51744523Y-80883238D01*
X51982619Y-82216571D02*
X51982619Y-81740380D01*
X51506428Y-81692761D01*
X51554047Y-81740380D01*
X51601666Y-81835619D01*
X51601666Y-82073714D01*
X51554047Y-82168952D01*
X51506428Y-82216571D01*
X51411190Y-82264190D01*
X51173095Y-82264190D01*
X51077857Y-82216571D01*
X51030238Y-82168952D01*
X50982619Y-82073714D01*
X50982619Y-81835619D01*
X51030238Y-81740380D01*
X51077857Y-81692761D01*
X51982619Y-82549904D02*
X50982619Y-82883238D01*
X51982619Y-83216571D01*
D10*
X131500000Y-40000000D02*
X53500000Y-40000000D01*
X50000000Y-43500000D02*
X50000000Y-90000000D01*
X135000000Y-43500000D02*
X135000000Y-90000000D01*
D15*
X51828000Y-52644000D02*
X51828000Y-51044000D01*
X61938000Y-50694000D02*
X50838000Y-50694000D01*
X61938000Y-43894000D02*
X61938000Y-50694000D01*
X50838000Y-43894000D02*
X61938000Y-43894000D01*
X50838000Y-50694000D02*
X50838000Y-43894000D01*
X127795000Y-50790000D02*
G75*
G03X127795000Y-50590000I0J100000D01*
G01*
X127795000Y-50590000D02*
G75*
G03X127795000Y-50790000I0J-100000D01*
G01*
X127795000Y-50590000D02*
X127795000Y-50590000D01*
X127795000Y-50790000D02*
X127795000Y-50790000D01*
D14*
X126945000Y-46340000D02*
X125995000Y-46340000D01*
X125995000Y-51240000D02*
X126945000Y-51240000D01*
X121045000Y-46340000D02*
X121495000Y-46340000D01*
X121045000Y-51240000D02*
X121495000Y-51240000D01*
D12*
X81627000Y-52501000D02*
X84112000Y-52501000D01*
X81627000Y-51131000D02*
X81627000Y-52501000D01*
X84112000Y-51131000D02*
X81627000Y-51131000D01*
X50160500Y-68451000D02*
X52645500Y-68451000D01*
X50160500Y-67081000D02*
X50160500Y-68451000D01*
X52645500Y-67081000D02*
X50160500Y-67081000D01*
X50160500Y-65403000D02*
X52645500Y-65403000D01*
X50160500Y-64033000D02*
X50160500Y-65403000D01*
X52645500Y-64033000D02*
X50160500Y-64033000D01*
X50160500Y-59629000D02*
X52645500Y-59629000D01*
X50160500Y-58259000D02*
X50160500Y-59629000D01*
X52645500Y-58259000D02*
X50160500Y-58259000D01*
X50135000Y-56581000D02*
X52620000Y-56581000D01*
X50135000Y-55211000D02*
X50135000Y-56581000D01*
X52620000Y-55211000D02*
X50135000Y-55211000D01*
X58500000Y-61930000D02*
X56400000Y-61930000D01*
X58500000Y-67270000D02*
X56400000Y-67270000D01*
D15*
X105898000Y-50800000D02*
G75*
G03X105898000Y-50600000I0J100000D01*
G01*
X105898000Y-50600000D02*
G75*
G03X105898000Y-50800000I0J-100000D01*
G01*
X105898000Y-50600000D02*
X105898000Y-50600000D01*
X105898000Y-50800000D02*
X105898000Y-50800000D01*
D14*
X105048000Y-46350000D02*
X104098000Y-46350000D01*
X104098000Y-51250000D02*
X105048000Y-51250000D01*
X99148000Y-46350000D02*
X99598000Y-46350000D01*
X99148000Y-51250000D02*
X99598000Y-51250000D01*
D15*
X127845000Y-68150000D02*
G75*
G03X127845000Y-67950000I0J100000D01*
G01*
X127845000Y-67950000D02*
G75*
G03X127845000Y-68150000I0J-100000D01*
G01*
X127845000Y-67950000D02*
X127845000Y-67950000D01*
X127845000Y-68150000D02*
X127845000Y-68150000D01*
D14*
X126995000Y-63700000D02*
X126045000Y-63700000D01*
X126045000Y-68600000D02*
X126995000Y-68600000D01*
X121095000Y-63700000D02*
X121545000Y-63700000D01*
X121095000Y-68600000D02*
X121545000Y-68600000D01*
D15*
X105948000Y-68150000D02*
G75*
G03X105948000Y-67950000I0J100000D01*
G01*
X105948000Y-67950000D02*
G75*
G03X105948000Y-68150000I0J-100000D01*
G01*
X105948000Y-67950000D02*
X105948000Y-67950000D01*
X105948000Y-68150000D02*
X105948000Y-68150000D01*
D14*
X105098000Y-63700000D02*
X104148000Y-63700000D01*
X104148000Y-68600000D02*
X105098000Y-68600000D01*
X99198000Y-63700000D02*
X99648000Y-63700000D01*
X99198000Y-68600000D02*
X99648000Y-68600000D01*
D12*
X73999400Y-43870000D02*
X73999400Y-45200000D01*
X72669400Y-43870000D02*
X73999400Y-43870000D01*
X71399400Y-43870000D02*
X71399400Y-46530000D01*
X71399400Y-46530000D02*
X66259400Y-46530000D01*
X71399400Y-43870000D02*
X66259400Y-43870000D01*
X66259400Y-43870000D02*
X66259400Y-46530000D01*
X61570000Y-83950000D02*
X61570000Y-80750000D01*
X61570000Y-80750000D02*
X63370000Y-80750000D01*
X63370000Y-80750000D02*
X63370000Y-83950000D01*
X50270000Y-83950000D02*
X61570000Y-83950000D01*
X61570000Y-83950000D02*
X61570000Y-89750000D01*
X61570000Y-89750000D02*
X50270000Y-89750000D01*
X50270000Y-89750000D02*
X50270000Y-83950000D01*
X134670000Y-83950000D02*
X63370000Y-83950000D01*
X63370000Y-89750000D02*
X134670000Y-89750000D01*
X63370000Y-83950000D02*
X63370000Y-89750000D01*
X134670000Y-83950000D02*
X134670000Y-89750000D01*
X73040000Y-52891422D02*
X73040000Y-53408578D01*
X74460000Y-52891422D02*
X74460000Y-53408578D01*
X72540000Y-67341422D02*
X72540000Y-67858578D01*
X73960000Y-67341422D02*
X73960000Y-67858578D01*
X60450000Y-71490000D02*
X66460000Y-71490000D01*
X62700000Y-78310000D02*
X66460000Y-78310000D01*
X66460000Y-71490000D02*
X66460000Y-72750000D01*
X66460000Y-78310000D02*
X66460000Y-77050000D01*
X81827000Y-67029000D02*
X84112000Y-67029000D01*
X81827000Y-65559000D02*
X81827000Y-67029000D01*
X84112000Y-65559000D02*
X81827000Y-65559000D01*
X72524279Y-63260000D02*
X72198721Y-63260000D01*
X72524279Y-62240000D02*
X72198721Y-62240000D01*
X72524279Y-60510000D02*
X72198721Y-60510000D01*
X72524279Y-59490000D02*
X72198721Y-59490000D01*
X72475279Y-57656000D02*
X72149721Y-57656000D01*
X72475279Y-56636000D02*
X72149721Y-56636000D01*
X124650279Y-41710000D02*
X124324721Y-41710000D01*
X124650279Y-40690000D02*
X124324721Y-40690000D01*
X128850279Y-41710000D02*
X128524721Y-41710000D01*
X128850279Y-40690000D02*
X128524721Y-40690000D01*
X72698779Y-78010000D02*
X72373221Y-78010000D01*
X72698779Y-76990000D02*
X72373221Y-76990000D01*
X72698779Y-75260000D02*
X72373221Y-75260000D01*
X72698779Y-74240000D02*
X72373221Y-74240000D01*
X72724279Y-72295000D02*
X72398721Y-72295000D01*
X72724279Y-71275000D02*
X72398721Y-71275000D01*
X125690000Y-58600279D02*
X125690000Y-58274721D01*
X126710000Y-58600279D02*
X126710000Y-58274721D01*
X124963521Y-76010000D02*
X125289079Y-76010000D01*
X124963521Y-74990000D02*
X125289079Y-74990000D01*
X103990000Y-43062779D02*
X103990000Y-42737221D01*
X105010000Y-43062779D02*
X105010000Y-42737221D01*
X103990000Y-55262779D02*
X103990000Y-54937221D01*
X105010000Y-55262779D02*
X105010000Y-54937221D01*
X104190000Y-60262779D02*
X104190000Y-59937221D01*
X105210000Y-60262779D02*
X105210000Y-59937221D01*
X104090000Y-73562779D02*
X104090000Y-73237221D01*
X105110000Y-73562779D02*
X105110000Y-73237221D01*
X63010000Y-63337221D02*
X63010000Y-63662779D01*
X61990000Y-63337221D02*
X61990000Y-63662779D01*
D15*
X84447000Y-63474000D02*
X82972000Y-63474000D01*
X84447000Y-77952000D02*
X82972000Y-77952000D01*
D12*
X78096078Y-52526000D02*
X77578922Y-52526000D01*
X78096078Y-51106000D02*
X77578922Y-51106000D01*
X86290000Y-57058578D02*
X86290000Y-56541422D01*
X87710000Y-57058578D02*
X87710000Y-56541422D01*
X86290000Y-61821078D02*
X86290000Y-61303922D01*
X87710000Y-61821078D02*
X87710000Y-61303922D01*
X78058578Y-65584000D02*
X77541422Y-65584000D01*
X78058578Y-67004000D02*
X77541422Y-67004000D01*
X87710000Y-71003922D02*
X87710000Y-71521078D01*
X86290000Y-71003922D02*
X86290000Y-71521078D01*
X86290000Y-76121078D02*
X86290000Y-75603922D01*
X87710000Y-76121078D02*
X87710000Y-75603922D01*
X57090000Y-72203922D02*
X57090000Y-72721078D01*
X58510000Y-72203922D02*
X58510000Y-72721078D01*
X57090000Y-77941422D02*
X57090000Y-78458578D01*
X58510000Y-77941422D02*
X58510000Y-78458578D01*
D16*
X56902047Y-48261619D02*
X56962523Y-48080190D01*
X56962523Y-47777809D01*
X56902047Y-47656857D01*
X56841571Y-47596380D01*
X56720619Y-47535904D01*
X56599666Y-47535904D01*
X56478714Y-47596380D01*
X56418238Y-47656857D01*
X56357761Y-47777809D01*
X56297285Y-48019714D01*
X56236809Y-48140666D01*
X56176333Y-48201142D01*
X56055380Y-48261619D01*
X55934428Y-48261619D01*
X55813476Y-48201142D01*
X55753000Y-48140666D01*
X55692523Y-48019714D01*
X55692523Y-47717333D01*
X55753000Y-47535904D01*
X56962523Y-46326380D02*
X56962523Y-47052095D01*
X56962523Y-46689238D02*
X55692523Y-46689238D01*
X55873952Y-46810190D01*
X55994904Y-46931142D01*
X56055380Y-47052095D01*
D11*
X103897142Y-79357142D02*
X103849523Y-79404761D01*
X103706666Y-79452380D01*
X103611428Y-79452380D01*
X103468571Y-79404761D01*
X103373333Y-79309523D01*
X103325714Y-79214285D01*
X103278095Y-79023809D01*
X103278095Y-78880952D01*
X103325714Y-78690476D01*
X103373333Y-78595238D01*
X103468571Y-78500000D01*
X103611428Y-78452380D01*
X103706666Y-78452380D01*
X103849523Y-78500000D01*
X103897142Y-78547619D01*
X104849523Y-79452380D02*
X104278095Y-79452380D01*
X104563809Y-79452380D02*
X104563809Y-78452380D01*
X104468571Y-78595238D01*
X104373333Y-78690476D01*
X104278095Y-78738095D01*
X105706666Y-78452380D02*
X105516190Y-78452380D01*
X105420952Y-78500000D01*
X105373333Y-78547619D01*
X105278095Y-78690476D01*
X105230476Y-78880952D01*
X105230476Y-79261904D01*
X105278095Y-79357142D01*
X105325714Y-79404761D01*
X105420952Y-79452380D01*
X105611428Y-79452380D01*
X105706666Y-79404761D01*
X105754285Y-79357142D01*
X105801904Y-79261904D01*
X105801904Y-79023809D01*
X105754285Y-78928571D01*
X105706666Y-78880952D01*
X105611428Y-78833333D01*
X105420952Y-78833333D01*
X105325714Y-78880952D01*
X105278095Y-78928571D01*
X105230476Y-79023809D01*
D16*
X124992476Y-48910952D02*
X124932000Y-49031904D01*
X124811047Y-49152857D01*
X124629619Y-49334285D01*
X124569142Y-49455238D01*
X124569142Y-49576190D01*
X124871523Y-49515714D02*
X124811047Y-49636666D01*
X124690095Y-49757619D01*
X124448190Y-49818095D01*
X124024857Y-49818095D01*
X123782952Y-49757619D01*
X123662000Y-49636666D01*
X123601523Y-49515714D01*
X123601523Y-49273809D01*
X123662000Y-49152857D01*
X123782952Y-49031904D01*
X124024857Y-48971428D01*
X124448190Y-48971428D01*
X124690095Y-49031904D01*
X124811047Y-49152857D01*
X124871523Y-49273809D01*
X124871523Y-49515714D01*
X123601523Y-48548095D02*
X123601523Y-47761904D01*
X124085333Y-48185238D01*
X124085333Y-48003809D01*
X124145809Y-47882857D01*
X124206285Y-47822380D01*
X124327238Y-47761904D01*
X124629619Y-47761904D01*
X124750571Y-47822380D01*
X124811047Y-47882857D01*
X124871523Y-48003809D01*
X124871523Y-48366666D01*
X124811047Y-48487619D01*
X124750571Y-48548095D01*
D11*
X82097714Y-50888380D02*
X82097714Y-49888380D01*
X82335809Y-49888380D01*
X82478666Y-49936000D01*
X82573904Y-50031238D01*
X82621523Y-50126476D01*
X82669142Y-50316952D01*
X82669142Y-50459809D01*
X82621523Y-50650285D01*
X82573904Y-50745523D01*
X82478666Y-50840761D01*
X82335809Y-50888380D01*
X82097714Y-50888380D01*
X83621523Y-50888380D02*
X83050095Y-50888380D01*
X83335809Y-50888380D02*
X83335809Y-49888380D01*
X83240571Y-50031238D01*
X83145333Y-50126476D01*
X83050095Y-50174095D01*
X84240571Y-49888380D02*
X84335809Y-49888380D01*
X84431047Y-49936000D01*
X84478666Y-49983619D01*
X84526285Y-50078857D01*
X84573904Y-50269333D01*
X84573904Y-50507428D01*
X84526285Y-50697904D01*
X84478666Y-50793142D01*
X84431047Y-50840761D01*
X84335809Y-50888380D01*
X84240571Y-50888380D01*
X84145333Y-50840761D01*
X84097714Y-50793142D01*
X84050095Y-50697904D01*
X84002476Y-50507428D01*
X84002476Y-50269333D01*
X84050095Y-50078857D01*
X84097714Y-49983619D01*
X84145333Y-49936000D01*
X84240571Y-49888380D01*
X51107404Y-66838380D02*
X51107404Y-65838380D01*
X51345500Y-65838380D01*
X51488357Y-65886000D01*
X51583595Y-65981238D01*
X51631214Y-66076476D01*
X51678833Y-66266952D01*
X51678833Y-66409809D01*
X51631214Y-66600285D01*
X51583595Y-66695523D01*
X51488357Y-66790761D01*
X51345500Y-66838380D01*
X51107404Y-66838380D01*
X52535976Y-66171714D02*
X52535976Y-66838380D01*
X52297880Y-65790761D02*
X52059785Y-66505047D01*
X52678833Y-66505047D01*
X51107404Y-63790380D02*
X51107404Y-62790380D01*
X51345500Y-62790380D01*
X51488357Y-62838000D01*
X51583595Y-62933238D01*
X51631214Y-63028476D01*
X51678833Y-63218952D01*
X51678833Y-63361809D01*
X51631214Y-63552285D01*
X51583595Y-63647523D01*
X51488357Y-63742761D01*
X51345500Y-63790380D01*
X51107404Y-63790380D01*
X52012166Y-62790380D02*
X52631214Y-62790380D01*
X52297880Y-63171333D01*
X52440738Y-63171333D01*
X52535976Y-63218952D01*
X52583595Y-63266571D01*
X52631214Y-63361809D01*
X52631214Y-63599904D01*
X52583595Y-63695142D01*
X52535976Y-63742761D01*
X52440738Y-63790380D01*
X52155023Y-63790380D01*
X52059785Y-63742761D01*
X52012166Y-63695142D01*
X51107404Y-58016380D02*
X51107404Y-57016380D01*
X51345500Y-57016380D01*
X51488357Y-57064000D01*
X51583595Y-57159238D01*
X51631214Y-57254476D01*
X51678833Y-57444952D01*
X51678833Y-57587809D01*
X51631214Y-57778285D01*
X51583595Y-57873523D01*
X51488357Y-57968761D01*
X51345500Y-58016380D01*
X51107404Y-58016380D01*
X52059785Y-57111619D02*
X52107404Y-57064000D01*
X52202642Y-57016380D01*
X52440738Y-57016380D01*
X52535976Y-57064000D01*
X52583595Y-57111619D01*
X52631214Y-57206857D01*
X52631214Y-57302095D01*
X52583595Y-57444952D01*
X52012166Y-58016380D01*
X52631214Y-58016380D01*
X51081904Y-54968380D02*
X51081904Y-53968380D01*
X51320000Y-53968380D01*
X51462857Y-54016000D01*
X51558095Y-54111238D01*
X51605714Y-54206476D01*
X51653333Y-54396952D01*
X51653333Y-54539809D01*
X51605714Y-54730285D01*
X51558095Y-54825523D01*
X51462857Y-54920761D01*
X51320000Y-54968380D01*
X51081904Y-54968380D01*
X52605714Y-54968380D02*
X52034285Y-54968380D01*
X52320000Y-54968380D02*
X52320000Y-53968380D01*
X52224761Y-54111238D01*
X52129523Y-54206476D01*
X52034285Y-54254095D01*
X56759523Y-61552380D02*
X56426190Y-61076190D01*
X56188095Y-61552380D02*
X56188095Y-60552380D01*
X56569047Y-60552380D01*
X56664285Y-60600000D01*
X56711904Y-60647619D01*
X56759523Y-60742857D01*
X56759523Y-60885714D01*
X56711904Y-60980952D01*
X56664285Y-61028571D01*
X56569047Y-61076190D01*
X56188095Y-61076190D01*
X57188095Y-61552380D02*
X57188095Y-60552380D01*
X57759523Y-61552380D01*
X57759523Y-60552380D01*
X58759523Y-61552380D02*
X58188095Y-61552380D01*
X58473809Y-61552380D02*
X58473809Y-60552380D01*
X58378571Y-60695238D01*
X58283333Y-60790476D01*
X58188095Y-60838095D01*
D16*
X103095476Y-48920952D02*
X103035000Y-49041904D01*
X102914047Y-49162857D01*
X102732619Y-49344285D01*
X102672142Y-49465238D01*
X102672142Y-49586190D01*
X102974523Y-49525714D02*
X102914047Y-49646666D01*
X102793095Y-49767619D01*
X102551190Y-49828095D01*
X102127857Y-49828095D01*
X101885952Y-49767619D01*
X101765000Y-49646666D01*
X101704523Y-49525714D01*
X101704523Y-49283809D01*
X101765000Y-49162857D01*
X101885952Y-49041904D01*
X102127857Y-48981428D01*
X102551190Y-48981428D01*
X102793095Y-49041904D01*
X102914047Y-49162857D01*
X102974523Y-49283809D01*
X102974523Y-49525714D01*
X102127857Y-47892857D02*
X102974523Y-47892857D01*
X101644047Y-48195238D02*
X102551190Y-48497619D01*
X102551190Y-47711428D01*
X125042476Y-66270952D02*
X124982000Y-66391904D01*
X124861047Y-66512857D01*
X124679619Y-66694285D01*
X124619142Y-66815238D01*
X124619142Y-66936190D01*
X124921523Y-66875714D02*
X124861047Y-66996666D01*
X124740095Y-67117619D01*
X124498190Y-67178095D01*
X124074857Y-67178095D01*
X123832952Y-67117619D01*
X123712000Y-66996666D01*
X123651523Y-66875714D01*
X123651523Y-66633809D01*
X123712000Y-66512857D01*
X123832952Y-66391904D01*
X124074857Y-66331428D01*
X124498190Y-66331428D01*
X124740095Y-66391904D01*
X124861047Y-66512857D01*
X124921523Y-66633809D01*
X124921523Y-66875714D01*
X123772476Y-65847619D02*
X123712000Y-65787142D01*
X123651523Y-65666190D01*
X123651523Y-65363809D01*
X123712000Y-65242857D01*
X123772476Y-65182380D01*
X123893428Y-65121904D01*
X124014380Y-65121904D01*
X124195809Y-65182380D01*
X124921523Y-65908095D01*
X124921523Y-65121904D01*
X103145476Y-66270952D02*
X103085000Y-66391904D01*
X102964047Y-66512857D01*
X102782619Y-66694285D01*
X102722142Y-66815238D01*
X102722142Y-66936190D01*
X103024523Y-66875714D02*
X102964047Y-66996666D01*
X102843095Y-67117619D01*
X102601190Y-67178095D01*
X102177857Y-67178095D01*
X101935952Y-67117619D01*
X101815000Y-66996666D01*
X101754523Y-66875714D01*
X101754523Y-66633809D01*
X101815000Y-66512857D01*
X101935952Y-66391904D01*
X102177857Y-66331428D01*
X102601190Y-66331428D01*
X102843095Y-66391904D01*
X102964047Y-66512857D01*
X103024523Y-66633809D01*
X103024523Y-66875714D01*
X103024523Y-65121904D02*
X103024523Y-65847619D01*
X103024523Y-65484761D02*
X101754523Y-65484761D01*
X101935952Y-65605714D01*
X102056904Y-65726666D01*
X102117380Y-65847619D01*
D11*
X74451780Y-45533333D02*
X75166066Y-45533333D01*
X75308923Y-45580952D01*
X75404161Y-45676190D01*
X75451780Y-45819047D01*
X75451780Y-45914285D01*
X74547019Y-45104761D02*
X74499400Y-45057142D01*
X74451780Y-44961904D01*
X74451780Y-44723809D01*
X74499400Y-44628571D01*
X74547019Y-44580952D01*
X74642257Y-44533333D01*
X74737495Y-44533333D01*
X74880352Y-44580952D01*
X75451780Y-45152380D01*
X75451780Y-44533333D01*
X60116666Y-82152380D02*
X60116666Y-82866666D01*
X60069047Y-83009523D01*
X59973809Y-83104761D01*
X59830952Y-83152380D01*
X59735714Y-83152380D01*
X61069047Y-82152380D02*
X60592857Y-82152380D01*
X60545238Y-82628571D01*
X60592857Y-82580952D01*
X60688095Y-82533333D01*
X60926190Y-82533333D01*
X61021428Y-82580952D01*
X61069047Y-82628571D01*
X61116666Y-82723809D01*
X61116666Y-82961904D01*
X61069047Y-83057142D01*
X61021428Y-83104761D01*
X60926190Y-83152380D01*
X60688095Y-83152380D01*
X60592857Y-83104761D01*
X60545238Y-83057142D01*
X75757142Y-53792857D02*
X75804761Y-53840476D01*
X75852380Y-53983333D01*
X75852380Y-54078571D01*
X75804761Y-54221428D01*
X75709523Y-54316666D01*
X75614285Y-54364285D01*
X75423809Y-54411904D01*
X75280952Y-54411904D01*
X75090476Y-54364285D01*
X74995238Y-54316666D01*
X74900000Y-54221428D01*
X74852380Y-54078571D01*
X74852380Y-53983333D01*
X74900000Y-53840476D01*
X74947619Y-53792857D01*
X75852380Y-52840476D02*
X75852380Y-53411904D01*
X75852380Y-53126190D02*
X74852380Y-53126190D01*
X74995238Y-53221428D01*
X75090476Y-53316666D01*
X75138095Y-53411904D01*
X75852380Y-52364285D02*
X75852380Y-52173809D01*
X75804761Y-52078571D01*
X75757142Y-52030952D01*
X75614285Y-51935714D01*
X75423809Y-51888095D01*
X75042857Y-51888095D01*
X74947619Y-51935714D01*
X74900000Y-51983333D01*
X74852380Y-52078571D01*
X74852380Y-52269047D01*
X74900000Y-52364285D01*
X74947619Y-52411904D01*
X75042857Y-52459523D01*
X75280952Y-52459523D01*
X75376190Y-52411904D01*
X75423809Y-52364285D01*
X75471428Y-52269047D01*
X75471428Y-52078571D01*
X75423809Y-51983333D01*
X75376190Y-51935714D01*
X75280952Y-51888095D01*
X75257142Y-68242857D02*
X75304761Y-68290476D01*
X75352380Y-68433333D01*
X75352380Y-68528571D01*
X75304761Y-68671428D01*
X75209523Y-68766666D01*
X75114285Y-68814285D01*
X74923809Y-68861904D01*
X74780952Y-68861904D01*
X74590476Y-68814285D01*
X74495238Y-68766666D01*
X74400000Y-68671428D01*
X74352380Y-68528571D01*
X74352380Y-68433333D01*
X74400000Y-68290476D01*
X74447619Y-68242857D01*
X75352380Y-67290476D02*
X75352380Y-67861904D01*
X75352380Y-67576190D02*
X74352380Y-67576190D01*
X74495238Y-67671428D01*
X74590476Y-67766666D01*
X74638095Y-67861904D01*
X74352380Y-66671428D02*
X74352380Y-66576190D01*
X74400000Y-66480952D01*
X74447619Y-66433333D01*
X74542857Y-66385714D01*
X74733333Y-66338095D01*
X74971428Y-66338095D01*
X75161904Y-66385714D01*
X75257142Y-66433333D01*
X75304761Y-66480952D01*
X75352380Y-66576190D01*
X75352380Y-66671428D01*
X75304761Y-66766666D01*
X75257142Y-66814285D01*
X75161904Y-66861904D01*
X74971428Y-66909523D01*
X74733333Y-66909523D01*
X74542857Y-66861904D01*
X74447619Y-66814285D01*
X74400000Y-66766666D01*
X74352380Y-66671428D01*
X63788095Y-69852380D02*
X63788095Y-70661904D01*
X63835714Y-70757142D01*
X63883333Y-70804761D01*
X63978571Y-70852380D01*
X64169047Y-70852380D01*
X64264285Y-70804761D01*
X64311904Y-70757142D01*
X64359523Y-70661904D01*
X64359523Y-69852380D01*
X65359523Y-70852380D02*
X64788095Y-70852380D01*
X65073809Y-70852380D02*
X65073809Y-69852380D01*
X64978571Y-69995238D01*
X64883333Y-70090476D01*
X64788095Y-70138095D01*
X82573904Y-65316380D02*
X82573904Y-64316380D01*
X82812000Y-64316380D01*
X82954857Y-64364000D01*
X83050095Y-64459238D01*
X83097714Y-64554476D01*
X83145333Y-64744952D01*
X83145333Y-64887809D01*
X83097714Y-65078285D01*
X83050095Y-65173523D01*
X82954857Y-65268761D01*
X82812000Y-65316380D01*
X82573904Y-65316380D01*
X84050095Y-64316380D02*
X83573904Y-64316380D01*
X83526285Y-64792571D01*
X83573904Y-64744952D01*
X83669142Y-64697333D01*
X83907238Y-64697333D01*
X84002476Y-64744952D01*
X84050095Y-64792571D01*
X84097714Y-64887809D01*
X84097714Y-65125904D01*
X84050095Y-65221142D01*
X84002476Y-65268761D01*
X83907238Y-65316380D01*
X83669142Y-65316380D01*
X83573904Y-65268761D01*
X83526285Y-65221142D01*
X71757142Y-64632380D02*
X71423809Y-64156190D01*
X71185714Y-64632380D02*
X71185714Y-63632380D01*
X71566666Y-63632380D01*
X71661904Y-63680000D01*
X71709523Y-63727619D01*
X71757142Y-63822857D01*
X71757142Y-63965714D01*
X71709523Y-64060952D01*
X71661904Y-64108571D01*
X71566666Y-64156190D01*
X71185714Y-64156190D01*
X72709523Y-64632380D02*
X72138095Y-64632380D01*
X72423809Y-64632380D02*
X72423809Y-63632380D01*
X72328571Y-63775238D01*
X72233333Y-63870476D01*
X72138095Y-63918095D01*
X73185714Y-64632380D02*
X73376190Y-64632380D01*
X73471428Y-64584761D01*
X73519047Y-64537142D01*
X73614285Y-64394285D01*
X73661904Y-64203809D01*
X73661904Y-63822857D01*
X73614285Y-63727619D01*
X73566666Y-63680000D01*
X73471428Y-63632380D01*
X73280952Y-63632380D01*
X73185714Y-63680000D01*
X73138095Y-63727619D01*
X73090476Y-63822857D01*
X73090476Y-64060952D01*
X73138095Y-64156190D01*
X73185714Y-64203809D01*
X73280952Y-64251428D01*
X73471428Y-64251428D01*
X73566666Y-64203809D01*
X73614285Y-64156190D01*
X73661904Y-64060952D01*
X71718642Y-61882380D02*
X71385309Y-61406190D01*
X71147214Y-61882380D02*
X71147214Y-60882380D01*
X71528166Y-60882380D01*
X71623404Y-60930000D01*
X71671023Y-60977619D01*
X71718642Y-61072857D01*
X71718642Y-61215714D01*
X71671023Y-61310952D01*
X71623404Y-61358571D01*
X71528166Y-61406190D01*
X71147214Y-61406190D01*
X72671023Y-61882380D02*
X72099595Y-61882380D01*
X72385309Y-61882380D02*
X72385309Y-60882380D01*
X72290071Y-61025238D01*
X72194833Y-61120476D01*
X72099595Y-61168095D01*
X73242452Y-61310952D02*
X73147214Y-61263333D01*
X73099595Y-61215714D01*
X73051976Y-61120476D01*
X73051976Y-61072857D01*
X73099595Y-60977619D01*
X73147214Y-60930000D01*
X73242452Y-60882380D01*
X73432928Y-60882380D01*
X73528166Y-60930000D01*
X73575785Y-60977619D01*
X73623404Y-61072857D01*
X73623404Y-61120476D01*
X73575785Y-61215714D01*
X73528166Y-61263333D01*
X73432928Y-61310952D01*
X73242452Y-61310952D01*
X73147214Y-61358571D01*
X73099595Y-61406190D01*
X73051976Y-61501428D01*
X73051976Y-61691904D01*
X73099595Y-61787142D01*
X73147214Y-61834761D01*
X73242452Y-61882380D01*
X73432928Y-61882380D01*
X73528166Y-61834761D01*
X73575785Y-61787142D01*
X73623404Y-61691904D01*
X73623404Y-61501428D01*
X73575785Y-61406190D01*
X73528166Y-61358571D01*
X73432928Y-61310952D01*
X71669642Y-59028380D02*
X71336309Y-58552190D01*
X71098214Y-59028380D02*
X71098214Y-58028380D01*
X71479166Y-58028380D01*
X71574404Y-58076000D01*
X71622023Y-58123619D01*
X71669642Y-58218857D01*
X71669642Y-58361714D01*
X71622023Y-58456952D01*
X71574404Y-58504571D01*
X71479166Y-58552190D01*
X71098214Y-58552190D01*
X72622023Y-59028380D02*
X72050595Y-59028380D01*
X72336309Y-59028380D02*
X72336309Y-58028380D01*
X72241071Y-58171238D01*
X72145833Y-58266476D01*
X72050595Y-58314095D01*
X72955357Y-58028380D02*
X73622023Y-58028380D01*
X73193452Y-59028380D01*
X121933333Y-41452380D02*
X121600000Y-40976190D01*
X121361904Y-41452380D02*
X121361904Y-40452380D01*
X121742857Y-40452380D01*
X121838095Y-40500000D01*
X121885714Y-40547619D01*
X121933333Y-40642857D01*
X121933333Y-40785714D01*
X121885714Y-40880952D01*
X121838095Y-40928571D01*
X121742857Y-40976190D01*
X121361904Y-40976190D01*
X122266666Y-40452380D02*
X122933333Y-40452380D01*
X122504761Y-41452380D01*
X130833333Y-41352380D02*
X130500000Y-40876190D01*
X130261904Y-41352380D02*
X130261904Y-40352380D01*
X130642857Y-40352380D01*
X130738095Y-40400000D01*
X130785714Y-40447619D01*
X130833333Y-40542857D01*
X130833333Y-40685714D01*
X130785714Y-40780952D01*
X130738095Y-40828571D01*
X130642857Y-40876190D01*
X130261904Y-40876190D01*
X131690476Y-40352380D02*
X131500000Y-40352380D01*
X131404761Y-40400000D01*
X131357142Y-40447619D01*
X131261904Y-40590476D01*
X131214285Y-40780952D01*
X131214285Y-41161904D01*
X131261904Y-41257142D01*
X131309523Y-41304761D01*
X131404761Y-41352380D01*
X131595238Y-41352380D01*
X131690476Y-41304761D01*
X131738095Y-41257142D01*
X131785714Y-41161904D01*
X131785714Y-40923809D01*
X131738095Y-40828571D01*
X131690476Y-40780952D01*
X131595238Y-40733333D01*
X131404761Y-40733333D01*
X131309523Y-40780952D01*
X131261904Y-40828571D01*
X131214285Y-40923809D01*
X71893142Y-79382380D02*
X71559809Y-78906190D01*
X71321714Y-79382380D02*
X71321714Y-78382380D01*
X71702666Y-78382380D01*
X71797904Y-78430000D01*
X71845523Y-78477619D01*
X71893142Y-78572857D01*
X71893142Y-78715714D01*
X71845523Y-78810952D01*
X71797904Y-78858571D01*
X71702666Y-78906190D01*
X71321714Y-78906190D01*
X72845523Y-79382380D02*
X72274095Y-79382380D01*
X72559809Y-79382380D02*
X72559809Y-78382380D01*
X72464571Y-78525238D01*
X72369333Y-78620476D01*
X72274095Y-78668095D01*
X73702666Y-78382380D02*
X73512190Y-78382380D01*
X73416952Y-78430000D01*
X73369333Y-78477619D01*
X73274095Y-78620476D01*
X73226476Y-78810952D01*
X73226476Y-79191904D01*
X73274095Y-79287142D01*
X73321714Y-79334761D01*
X73416952Y-79382380D01*
X73607428Y-79382380D01*
X73702666Y-79334761D01*
X73750285Y-79287142D01*
X73797904Y-79191904D01*
X73797904Y-78953809D01*
X73750285Y-78858571D01*
X73702666Y-78810952D01*
X73607428Y-78763333D01*
X73416952Y-78763333D01*
X73321714Y-78810952D01*
X73274095Y-78858571D01*
X73226476Y-78953809D01*
X71893142Y-76632380D02*
X71559809Y-76156190D01*
X71321714Y-76632380D02*
X71321714Y-75632380D01*
X71702666Y-75632380D01*
X71797904Y-75680000D01*
X71845523Y-75727619D01*
X71893142Y-75822857D01*
X71893142Y-75965714D01*
X71845523Y-76060952D01*
X71797904Y-76108571D01*
X71702666Y-76156190D01*
X71321714Y-76156190D01*
X72845523Y-76632380D02*
X72274095Y-76632380D01*
X72559809Y-76632380D02*
X72559809Y-75632380D01*
X72464571Y-75775238D01*
X72369333Y-75870476D01*
X72274095Y-75918095D01*
X73750285Y-75632380D02*
X73274095Y-75632380D01*
X73226476Y-76108571D01*
X73274095Y-76060952D01*
X73369333Y-76013333D01*
X73607428Y-76013333D01*
X73702666Y-76060952D01*
X73750285Y-76108571D01*
X73797904Y-76203809D01*
X73797904Y-76441904D01*
X73750285Y-76537142D01*
X73702666Y-76584761D01*
X73607428Y-76632380D01*
X73369333Y-76632380D01*
X73274095Y-76584761D01*
X73226476Y-76537142D01*
X71918642Y-73667380D02*
X71585309Y-73191190D01*
X71347214Y-73667380D02*
X71347214Y-72667380D01*
X71728166Y-72667380D01*
X71823404Y-72715000D01*
X71871023Y-72762619D01*
X71918642Y-72857857D01*
X71918642Y-73000714D01*
X71871023Y-73095952D01*
X71823404Y-73143571D01*
X71728166Y-73191190D01*
X71347214Y-73191190D01*
X72871023Y-73667380D02*
X72299595Y-73667380D01*
X72585309Y-73667380D02*
X72585309Y-72667380D01*
X72490071Y-72810238D01*
X72394833Y-72905476D01*
X72299595Y-72953095D01*
X73728166Y-73000714D02*
X73728166Y-73667380D01*
X73490071Y-72619761D02*
X73251976Y-73334047D01*
X73871023Y-73334047D01*
X125302380Y-58604166D02*
X124826190Y-58937500D01*
X125302380Y-59175595D02*
X124302380Y-59175595D01*
X124302380Y-58794642D01*
X124350000Y-58699404D01*
X124397619Y-58651785D01*
X124492857Y-58604166D01*
X124635714Y-58604166D01*
X124730952Y-58651785D01*
X124778571Y-58699404D01*
X124826190Y-58794642D01*
X124826190Y-59175595D01*
X124302380Y-57699404D02*
X124302380Y-58175595D01*
X124778571Y-58223214D01*
X124730952Y-58175595D01*
X124683333Y-58080357D01*
X124683333Y-57842261D01*
X124730952Y-57747023D01*
X124778571Y-57699404D01*
X124873809Y-57651785D01*
X125111904Y-57651785D01*
X125207142Y-57699404D01*
X125254761Y-57747023D01*
X125302380Y-57842261D01*
X125302380Y-58080357D01*
X125254761Y-58175595D01*
X125207142Y-58223214D01*
X124959633Y-74652380D02*
X124626300Y-74176190D01*
X124388204Y-74652380D02*
X124388204Y-73652380D01*
X124769157Y-73652380D01*
X124864395Y-73700000D01*
X124912014Y-73747619D01*
X124959633Y-73842857D01*
X124959633Y-73985714D01*
X124912014Y-74080952D01*
X124864395Y-74128571D01*
X124769157Y-74176190D01*
X124388204Y-74176190D01*
X125816776Y-73985714D02*
X125816776Y-74652380D01*
X125578680Y-73604761D02*
X125340585Y-74319047D01*
X125959633Y-74319047D01*
X106352380Y-43542857D02*
X105876190Y-43876190D01*
X106352380Y-44114285D02*
X105352380Y-44114285D01*
X105352380Y-43733333D01*
X105400000Y-43638095D01*
X105447619Y-43590476D01*
X105542857Y-43542857D01*
X105685714Y-43542857D01*
X105780952Y-43590476D01*
X105828571Y-43638095D01*
X105876190Y-43733333D01*
X105876190Y-44114285D01*
X106352380Y-42590476D02*
X106352380Y-43161904D01*
X106352380Y-42876190D02*
X105352380Y-42876190D01*
X105495238Y-42971428D01*
X105590476Y-43066666D01*
X105638095Y-43161904D01*
X105352380Y-42257142D02*
X105352380Y-41638095D01*
X105733333Y-41971428D01*
X105733333Y-41828571D01*
X105780952Y-41733333D01*
X105828571Y-41685714D01*
X105923809Y-41638095D01*
X106161904Y-41638095D01*
X106257142Y-41685714D01*
X106304761Y-41733333D01*
X106352380Y-41828571D01*
X106352380Y-42114285D01*
X106304761Y-42209523D01*
X106257142Y-42257142D01*
X106352380Y-55742857D02*
X105876190Y-56076190D01*
X106352380Y-56314285D02*
X105352380Y-56314285D01*
X105352380Y-55933333D01*
X105400000Y-55838095D01*
X105447619Y-55790476D01*
X105542857Y-55742857D01*
X105685714Y-55742857D01*
X105780952Y-55790476D01*
X105828571Y-55838095D01*
X105876190Y-55933333D01*
X105876190Y-56314285D01*
X106352380Y-54790476D02*
X106352380Y-55361904D01*
X106352380Y-55076190D02*
X105352380Y-55076190D01*
X105495238Y-55171428D01*
X105590476Y-55266666D01*
X105638095Y-55361904D01*
X105447619Y-54409523D02*
X105400000Y-54361904D01*
X105352380Y-54266666D01*
X105352380Y-54028571D01*
X105400000Y-53933333D01*
X105447619Y-53885714D01*
X105542857Y-53838095D01*
X105638095Y-53838095D01*
X105780952Y-53885714D01*
X106352380Y-54457142D01*
X106352380Y-53838095D01*
X106452380Y-60266666D02*
X105976190Y-60600000D01*
X106452380Y-60838095D02*
X105452380Y-60838095D01*
X105452380Y-60457142D01*
X105500000Y-60361904D01*
X105547619Y-60314285D01*
X105642857Y-60266666D01*
X105785714Y-60266666D01*
X105880952Y-60314285D01*
X105928571Y-60361904D01*
X105976190Y-60457142D01*
X105976190Y-60838095D01*
X105547619Y-59885714D02*
X105500000Y-59838095D01*
X105452380Y-59742857D01*
X105452380Y-59504761D01*
X105500000Y-59409523D01*
X105547619Y-59361904D01*
X105642857Y-59314285D01*
X105738095Y-59314285D01*
X105880952Y-59361904D01*
X106452380Y-59933333D01*
X106452380Y-59314285D01*
X106452380Y-73566666D02*
X105976190Y-73900000D01*
X106452380Y-74138095D02*
X105452380Y-74138095D01*
X105452380Y-73757142D01*
X105500000Y-73661904D01*
X105547619Y-73614285D01*
X105642857Y-73566666D01*
X105785714Y-73566666D01*
X105880952Y-73614285D01*
X105928571Y-73661904D01*
X105976190Y-73757142D01*
X105976190Y-74138095D01*
X106452380Y-72614285D02*
X106452380Y-73185714D01*
X106452380Y-72900000D02*
X105452380Y-72900000D01*
X105595238Y-72995238D01*
X105690476Y-73090476D01*
X105738095Y-73185714D01*
X64382380Y-63666666D02*
X63906190Y-64000000D01*
X64382380Y-64238095D02*
X63382380Y-64238095D01*
X63382380Y-63857142D01*
X63430000Y-63761904D01*
X63477619Y-63714285D01*
X63572857Y-63666666D01*
X63715714Y-63666666D01*
X63810952Y-63714285D01*
X63858571Y-63761904D01*
X63906190Y-63857142D01*
X63906190Y-64238095D01*
X63382380Y-63333333D02*
X63382380Y-62714285D01*
X63763333Y-63047619D01*
X63763333Y-62904761D01*
X63810952Y-62809523D01*
X63858571Y-62761904D01*
X63953809Y-62714285D01*
X64191904Y-62714285D01*
X64287142Y-62761904D01*
X64334761Y-62809523D01*
X64382380Y-62904761D01*
X64382380Y-63190476D01*
X64334761Y-63285714D01*
X64287142Y-63333333D01*
D16*
X79532238Y-59248523D02*
X79532238Y-57978523D01*
X80862714Y-59127571D02*
X80802238Y-59188047D01*
X80620809Y-59248523D01*
X80499857Y-59248523D01*
X80318428Y-59188047D01*
X80197476Y-59067095D01*
X80137000Y-58946142D01*
X80076523Y-58704238D01*
X80076523Y-58522809D01*
X80137000Y-58280904D01*
X80197476Y-58159952D01*
X80318428Y-58039000D01*
X80499857Y-57978523D01*
X80620809Y-57978523D01*
X80802238Y-58039000D01*
X80862714Y-58099476D01*
X81951285Y-58401857D02*
X81951285Y-59248523D01*
X81648904Y-57918047D02*
X81346523Y-58825190D01*
X82132714Y-58825190D01*
X79532238Y-73726523D02*
X79532238Y-72456523D01*
X80862714Y-73605571D02*
X80802238Y-73666047D01*
X80620809Y-73726523D01*
X80499857Y-73726523D01*
X80318428Y-73666047D01*
X80197476Y-73545095D01*
X80137000Y-73424142D01*
X80076523Y-73182238D01*
X80076523Y-73000809D01*
X80137000Y-72758904D01*
X80197476Y-72637952D01*
X80318428Y-72517000D01*
X80499857Y-72456523D01*
X80620809Y-72456523D01*
X80802238Y-72517000D01*
X80862714Y-72577476D01*
X81346523Y-72577476D02*
X81407000Y-72517000D01*
X81527952Y-72456523D01*
X81830333Y-72456523D01*
X81951285Y-72517000D01*
X82011761Y-72577476D01*
X82072238Y-72698428D01*
X82072238Y-72819380D01*
X82011761Y-73000809D01*
X81286047Y-73726523D01*
X82072238Y-73726523D01*
D11*
X77194642Y-50557142D02*
X77147023Y-50604761D01*
X77004166Y-50652380D01*
X76908928Y-50652380D01*
X76766071Y-50604761D01*
X76670833Y-50509523D01*
X76623214Y-50414285D01*
X76575595Y-50223809D01*
X76575595Y-50080952D01*
X76623214Y-49890476D01*
X76670833Y-49795238D01*
X76766071Y-49700000D01*
X76908928Y-49652380D01*
X77004166Y-49652380D01*
X77147023Y-49700000D01*
X77194642Y-49747619D01*
X78147023Y-50652380D02*
X77575595Y-50652380D01*
X77861309Y-50652380D02*
X77861309Y-49652380D01*
X77766071Y-49795238D01*
X77670833Y-49890476D01*
X77575595Y-49938095D01*
X79051785Y-49652380D02*
X78575595Y-49652380D01*
X78527976Y-50128571D01*
X78575595Y-50080952D01*
X78670833Y-50033333D01*
X78908928Y-50033333D01*
X79004166Y-50080952D01*
X79051785Y-50128571D01*
X79099404Y-50223809D01*
X79099404Y-50461904D01*
X79051785Y-50557142D01*
X79004166Y-50604761D01*
X78908928Y-50652380D01*
X78670833Y-50652380D01*
X78575595Y-50604761D01*
X78527976Y-50557142D01*
X85707142Y-57442857D02*
X85754761Y-57490476D01*
X85802380Y-57633333D01*
X85802380Y-57728571D01*
X85754761Y-57871428D01*
X85659523Y-57966666D01*
X85564285Y-58014285D01*
X85373809Y-58061904D01*
X85230952Y-58061904D01*
X85040476Y-58014285D01*
X84945238Y-57966666D01*
X84850000Y-57871428D01*
X84802380Y-57728571D01*
X84802380Y-57633333D01*
X84850000Y-57490476D01*
X84897619Y-57442857D01*
X85802380Y-56490476D02*
X85802380Y-57061904D01*
X85802380Y-56776190D02*
X84802380Y-56776190D01*
X84945238Y-56871428D01*
X85040476Y-56966666D01*
X85088095Y-57061904D01*
X85135714Y-55633333D02*
X85802380Y-55633333D01*
X84754761Y-55871428D02*
X85469047Y-56109523D01*
X85469047Y-55490476D01*
X85707142Y-62205357D02*
X85754761Y-62252976D01*
X85802380Y-62395833D01*
X85802380Y-62491071D01*
X85754761Y-62633928D01*
X85659523Y-62729166D01*
X85564285Y-62776785D01*
X85373809Y-62824404D01*
X85230952Y-62824404D01*
X85040476Y-62776785D01*
X84945238Y-62729166D01*
X84850000Y-62633928D01*
X84802380Y-62491071D01*
X84802380Y-62395833D01*
X84850000Y-62252976D01*
X84897619Y-62205357D01*
X85802380Y-61252976D02*
X85802380Y-61824404D01*
X85802380Y-61538690D02*
X84802380Y-61538690D01*
X84945238Y-61633928D01*
X85040476Y-61729166D01*
X85088095Y-61824404D01*
X84802380Y-60919642D02*
X84802380Y-60300595D01*
X85183333Y-60633928D01*
X85183333Y-60491071D01*
X85230952Y-60395833D01*
X85278571Y-60348214D01*
X85373809Y-60300595D01*
X85611904Y-60300595D01*
X85707142Y-60348214D01*
X85754761Y-60395833D01*
X85802380Y-60491071D01*
X85802380Y-60776785D01*
X85754761Y-60872023D01*
X85707142Y-60919642D01*
X77633333Y-65057142D02*
X77585714Y-65104761D01*
X77442857Y-65152380D01*
X77347619Y-65152380D01*
X77204761Y-65104761D01*
X77109523Y-65009523D01*
X77061904Y-64914285D01*
X77014285Y-64723809D01*
X77014285Y-64580952D01*
X77061904Y-64390476D01*
X77109523Y-64295238D01*
X77204761Y-64200000D01*
X77347619Y-64152380D01*
X77442857Y-64152380D01*
X77585714Y-64200000D01*
X77633333Y-64247619D01*
X78109523Y-65152380D02*
X78300000Y-65152380D01*
X78395238Y-65104761D01*
X78442857Y-65057142D01*
X78538095Y-64914285D01*
X78585714Y-64723809D01*
X78585714Y-64342857D01*
X78538095Y-64247619D01*
X78490476Y-64200000D01*
X78395238Y-64152380D01*
X78204761Y-64152380D01*
X78109523Y-64200000D01*
X78061904Y-64247619D01*
X78014285Y-64342857D01*
X78014285Y-64580952D01*
X78061904Y-64676190D01*
X78109523Y-64723809D01*
X78204761Y-64771428D01*
X78395238Y-64771428D01*
X78490476Y-64723809D01*
X78538095Y-64676190D01*
X78585714Y-64580952D01*
X85757142Y-71466666D02*
X85804761Y-71514285D01*
X85852380Y-71657142D01*
X85852380Y-71752380D01*
X85804761Y-71895238D01*
X85709523Y-71990476D01*
X85614285Y-72038095D01*
X85423809Y-72085714D01*
X85280952Y-72085714D01*
X85090476Y-72038095D01*
X84995238Y-71990476D01*
X84900000Y-71895238D01*
X84852380Y-71752380D01*
X84852380Y-71657142D01*
X84900000Y-71514285D01*
X84947619Y-71466666D01*
X85280952Y-70895238D02*
X85233333Y-70990476D01*
X85185714Y-71038095D01*
X85090476Y-71085714D01*
X85042857Y-71085714D01*
X84947619Y-71038095D01*
X84900000Y-70990476D01*
X84852380Y-70895238D01*
X84852380Y-70704761D01*
X84900000Y-70609523D01*
X84947619Y-70561904D01*
X85042857Y-70514285D01*
X85090476Y-70514285D01*
X85185714Y-70561904D01*
X85233333Y-70609523D01*
X85280952Y-70704761D01*
X85280952Y-70895238D01*
X85328571Y-70990476D01*
X85376190Y-71038095D01*
X85471428Y-71085714D01*
X85661904Y-71085714D01*
X85757142Y-71038095D01*
X85804761Y-70990476D01*
X85852380Y-70895238D01*
X85852380Y-70704761D01*
X85804761Y-70609523D01*
X85757142Y-70561904D01*
X85661904Y-70514285D01*
X85471428Y-70514285D01*
X85376190Y-70561904D01*
X85328571Y-70609523D01*
X85280952Y-70704761D01*
X85707142Y-75966666D02*
X85754761Y-76014285D01*
X85802380Y-76157142D01*
X85802380Y-76252380D01*
X85754761Y-76395238D01*
X85659523Y-76490476D01*
X85564285Y-76538095D01*
X85373809Y-76585714D01*
X85230952Y-76585714D01*
X85040476Y-76538095D01*
X84945238Y-76490476D01*
X84850000Y-76395238D01*
X84802380Y-76252380D01*
X84802380Y-76157142D01*
X84850000Y-76014285D01*
X84897619Y-75966666D01*
X84802380Y-75633333D02*
X84802380Y-74966666D01*
X85802380Y-75395238D01*
X59807142Y-72629166D02*
X59854761Y-72676785D01*
X59902380Y-72819642D01*
X59902380Y-72914880D01*
X59854761Y-73057738D01*
X59759523Y-73152976D01*
X59664285Y-73200595D01*
X59473809Y-73248214D01*
X59330952Y-73248214D01*
X59140476Y-73200595D01*
X59045238Y-73152976D01*
X58950000Y-73057738D01*
X58902380Y-72914880D01*
X58902380Y-72819642D01*
X58950000Y-72676785D01*
X58997619Y-72629166D01*
X58997619Y-72248214D02*
X58950000Y-72200595D01*
X58902380Y-72105357D01*
X58902380Y-71867261D01*
X58950000Y-71772023D01*
X58997619Y-71724404D01*
X59092857Y-71676785D01*
X59188095Y-71676785D01*
X59330952Y-71724404D01*
X59902380Y-72295833D01*
X59902380Y-71676785D01*
X59857142Y-78366666D02*
X59904761Y-78414285D01*
X59952380Y-78557142D01*
X59952380Y-78652380D01*
X59904761Y-78795238D01*
X59809523Y-78890476D01*
X59714285Y-78938095D01*
X59523809Y-78985714D01*
X59380952Y-78985714D01*
X59190476Y-78938095D01*
X59095238Y-78890476D01*
X59000000Y-78795238D01*
X58952380Y-78652380D01*
X58952380Y-78557142D01*
X59000000Y-78414285D01*
X59047619Y-78366666D01*
X59952380Y-77414285D02*
X59952380Y-77985714D01*
X59952380Y-77700000D02*
X58952380Y-77700000D01*
X59095238Y-77795238D01*
X59190476Y-77890476D01*
X59238095Y-77985714D01*
%LPC*%
D17*
X60200000Y-43480000D03*
X52580000Y-51100000D03*
X57660000Y-43480000D03*
X55120000Y-51100000D03*
X55120000Y-43480000D03*
X57660000Y-51100000D03*
X52580000Y-43480000D03*
D18*
X60200000Y-51100000D03*
D19*
X52578000Y-42744000D03*
X55118000Y-42744000D03*
X57658000Y-42744000D03*
X60198000Y-42744000D03*
X60198000Y-51844000D03*
X57658000Y-51844000D03*
X55118000Y-51844000D03*
X52578000Y-51844000D03*
D20*
X107080000Y-79000000D03*
D21*
X102000000Y-79000000D03*
D22*
X123400000Y-50030000D03*
X123400000Y-47550000D03*
D23*
X122540000Y-46263000D03*
X124840000Y-46263000D03*
X124840000Y-51317000D03*
X122540000Y-51317000D03*
D24*
X120980000Y-50695000D03*
X120980000Y-49365000D03*
X120980000Y-48215000D03*
X120980000Y-46885000D03*
D25*
X126789000Y-46885000D03*
X126789000Y-48155000D03*
X126789000Y-49425000D03*
X126789000Y-50695000D03*
D14*
G36*
X84573328Y-51341146D02*
G01*
X84596431Y-51344573D01*
X84619088Y-51350248D01*
X84641079Y-51358117D01*
X84662192Y-51368103D01*
X84682226Y-51380110D01*
X84700986Y-51394024D01*
X84718291Y-51409709D01*
X84733976Y-51427014D01*
X84747890Y-51445774D01*
X84759897Y-51465808D01*
X84769883Y-51486921D01*
X84777752Y-51508912D01*
X84783427Y-51531569D01*
X84786854Y-51554672D01*
X84788000Y-51578000D01*
X84788000Y-52054000D01*
X84786854Y-52077328D01*
X84783427Y-52100431D01*
X84777752Y-52123088D01*
X84769883Y-52145079D01*
X84759897Y-52166192D01*
X84747890Y-52186226D01*
X84733976Y-52204986D01*
X84718291Y-52222291D01*
X84700986Y-52237976D01*
X84682226Y-52251890D01*
X84662192Y-52263897D01*
X84641079Y-52273883D01*
X84619088Y-52281752D01*
X84596431Y-52287427D01*
X84573328Y-52290854D01*
X84550000Y-52292000D01*
X83699000Y-52292000D01*
X83675672Y-52290854D01*
X83652569Y-52287427D01*
X83629912Y-52281752D01*
X83607921Y-52273883D01*
X83586808Y-52263897D01*
X83566774Y-52251890D01*
X83548014Y-52237976D01*
X83530709Y-52222291D01*
X83515024Y-52204986D01*
X83501110Y-52186226D01*
X83489103Y-52166192D01*
X83479117Y-52145079D01*
X83471248Y-52123088D01*
X83465573Y-52100431D01*
X83462146Y-52077328D01*
X83461000Y-52054000D01*
X83461000Y-51578000D01*
X83462146Y-51554672D01*
X83465573Y-51531569D01*
X83471248Y-51508912D01*
X83479117Y-51486921D01*
X83489103Y-51465808D01*
X83501110Y-51445774D01*
X83515024Y-51427014D01*
X83530709Y-51409709D01*
X83548014Y-51394024D01*
X83566774Y-51380110D01*
X83586808Y-51368103D01*
X83607921Y-51358117D01*
X83629912Y-51350248D01*
X83652569Y-51344573D01*
X83675672Y-51341146D01*
X83699000Y-51340000D01*
X84550000Y-51340000D01*
X84573328Y-51341146D01*
G37*
G36*
X82948328Y-51341146D02*
G01*
X82971431Y-51344573D01*
X82994088Y-51350248D01*
X83016079Y-51358117D01*
X83037192Y-51368103D01*
X83057226Y-51380110D01*
X83075986Y-51394024D01*
X83093291Y-51409709D01*
X83108976Y-51427014D01*
X83122890Y-51445774D01*
X83134897Y-51465808D01*
X83144883Y-51486921D01*
X83152752Y-51508912D01*
X83158427Y-51531569D01*
X83161854Y-51554672D01*
X83163000Y-51578000D01*
X83163000Y-52054000D01*
X83161854Y-52077328D01*
X83158427Y-52100431D01*
X83152752Y-52123088D01*
X83144883Y-52145079D01*
X83134897Y-52166192D01*
X83122890Y-52186226D01*
X83108976Y-52204986D01*
X83093291Y-52222291D01*
X83075986Y-52237976D01*
X83057226Y-52251890D01*
X83037192Y-52263897D01*
X83016079Y-52273883D01*
X82994088Y-52281752D01*
X82971431Y-52287427D01*
X82948328Y-52290854D01*
X82925000Y-52292000D01*
X82074000Y-52292000D01*
X82050672Y-52290854D01*
X82027569Y-52287427D01*
X82004912Y-52281752D01*
X81982921Y-52273883D01*
X81961808Y-52263897D01*
X81941774Y-52251890D01*
X81923014Y-52237976D01*
X81905709Y-52222291D01*
X81890024Y-52204986D01*
X81876110Y-52186226D01*
X81864103Y-52166192D01*
X81854117Y-52145079D01*
X81846248Y-52123088D01*
X81840573Y-52100431D01*
X81837146Y-52077328D01*
X81836000Y-52054000D01*
X81836000Y-51578000D01*
X81837146Y-51554672D01*
X81840573Y-51531569D01*
X81846248Y-51508912D01*
X81854117Y-51486921D01*
X81864103Y-51465808D01*
X81876110Y-51445774D01*
X81890024Y-51427014D01*
X81905709Y-51409709D01*
X81923014Y-51394024D01*
X81941774Y-51380110D01*
X81961808Y-51368103D01*
X81982921Y-51358117D01*
X82004912Y-51350248D01*
X82027569Y-51344573D01*
X82050672Y-51341146D01*
X82074000Y-51340000D01*
X82925000Y-51340000D01*
X82948328Y-51341146D01*
G37*
G36*
X53106828Y-67291146D02*
G01*
X53129931Y-67294573D01*
X53152588Y-67300248D01*
X53174579Y-67308117D01*
X53195692Y-67318103D01*
X53215726Y-67330110D01*
X53234486Y-67344024D01*
X53251791Y-67359709D01*
X53267476Y-67377014D01*
X53281390Y-67395774D01*
X53293397Y-67415808D01*
X53303383Y-67436921D01*
X53311252Y-67458912D01*
X53316927Y-67481569D01*
X53320354Y-67504672D01*
X53321500Y-67528000D01*
X53321500Y-68004000D01*
X53320354Y-68027328D01*
X53316927Y-68050431D01*
X53311252Y-68073088D01*
X53303383Y-68095079D01*
X53293397Y-68116192D01*
X53281390Y-68136226D01*
X53267476Y-68154986D01*
X53251791Y-68172291D01*
X53234486Y-68187976D01*
X53215726Y-68201890D01*
X53195692Y-68213897D01*
X53174579Y-68223883D01*
X53152588Y-68231752D01*
X53129931Y-68237427D01*
X53106828Y-68240854D01*
X53083500Y-68242000D01*
X52232500Y-68242000D01*
X52209172Y-68240854D01*
X52186069Y-68237427D01*
X52163412Y-68231752D01*
X52141421Y-68223883D01*
X52120308Y-68213897D01*
X52100274Y-68201890D01*
X52081514Y-68187976D01*
X52064209Y-68172291D01*
X52048524Y-68154986D01*
X52034610Y-68136226D01*
X52022603Y-68116192D01*
X52012617Y-68095079D01*
X52004748Y-68073088D01*
X51999073Y-68050431D01*
X51995646Y-68027328D01*
X51994500Y-68004000D01*
X51994500Y-67528000D01*
X51995646Y-67504672D01*
X51999073Y-67481569D01*
X52004748Y-67458912D01*
X52012617Y-67436921D01*
X52022603Y-67415808D01*
X52034610Y-67395774D01*
X52048524Y-67377014D01*
X52064209Y-67359709D01*
X52081514Y-67344024D01*
X52100274Y-67330110D01*
X52120308Y-67318103D01*
X52141421Y-67308117D01*
X52163412Y-67300248D01*
X52186069Y-67294573D01*
X52209172Y-67291146D01*
X52232500Y-67290000D01*
X53083500Y-67290000D01*
X53106828Y-67291146D01*
G37*
G36*
X51481828Y-67291146D02*
G01*
X51504931Y-67294573D01*
X51527588Y-67300248D01*
X51549579Y-67308117D01*
X51570692Y-67318103D01*
X51590726Y-67330110D01*
X51609486Y-67344024D01*
X51626791Y-67359709D01*
X51642476Y-67377014D01*
X51656390Y-67395774D01*
X51668397Y-67415808D01*
X51678383Y-67436921D01*
X51686252Y-67458912D01*
X51691927Y-67481569D01*
X51695354Y-67504672D01*
X51696500Y-67528000D01*
X51696500Y-68004000D01*
X51695354Y-68027328D01*
X51691927Y-68050431D01*
X51686252Y-68073088D01*
X51678383Y-68095079D01*
X51668397Y-68116192D01*
X51656390Y-68136226D01*
X51642476Y-68154986D01*
X51626791Y-68172291D01*
X51609486Y-68187976D01*
X51590726Y-68201890D01*
X51570692Y-68213897D01*
X51549579Y-68223883D01*
X51527588Y-68231752D01*
X51504931Y-68237427D01*
X51481828Y-68240854D01*
X51458500Y-68242000D01*
X50607500Y-68242000D01*
X50584172Y-68240854D01*
X50561069Y-68237427D01*
X50538412Y-68231752D01*
X50516421Y-68223883D01*
X50495308Y-68213897D01*
X50475274Y-68201890D01*
X50456514Y-68187976D01*
X50439209Y-68172291D01*
X50423524Y-68154986D01*
X50409610Y-68136226D01*
X50397603Y-68116192D01*
X50387617Y-68095079D01*
X50379748Y-68073088D01*
X50374073Y-68050431D01*
X50370646Y-68027328D01*
X50369500Y-68004000D01*
X50369500Y-67528000D01*
X50370646Y-67504672D01*
X50374073Y-67481569D01*
X50379748Y-67458912D01*
X50387617Y-67436921D01*
X50397603Y-67415808D01*
X50409610Y-67395774D01*
X50423524Y-67377014D01*
X50439209Y-67359709D01*
X50456514Y-67344024D01*
X50475274Y-67330110D01*
X50495308Y-67318103D01*
X50516421Y-67308117D01*
X50538412Y-67300248D01*
X50561069Y-67294573D01*
X50584172Y-67291146D01*
X50607500Y-67290000D01*
X51458500Y-67290000D01*
X51481828Y-67291146D01*
G37*
G36*
X53106828Y-64243146D02*
G01*
X53129931Y-64246573D01*
X53152588Y-64252248D01*
X53174579Y-64260117D01*
X53195692Y-64270103D01*
X53215726Y-64282110D01*
X53234486Y-64296024D01*
X53251791Y-64311709D01*
X53267476Y-64329014D01*
X53281390Y-64347774D01*
X53293397Y-64367808D01*
X53303383Y-64388921D01*
X53311252Y-64410912D01*
X53316927Y-64433569D01*
X53320354Y-64456672D01*
X53321500Y-64480000D01*
X53321500Y-64956000D01*
X53320354Y-64979328D01*
X53316927Y-65002431D01*
X53311252Y-65025088D01*
X53303383Y-65047079D01*
X53293397Y-65068192D01*
X53281390Y-65088226D01*
X53267476Y-65106986D01*
X53251791Y-65124291D01*
X53234486Y-65139976D01*
X53215726Y-65153890D01*
X53195692Y-65165897D01*
X53174579Y-65175883D01*
X53152588Y-65183752D01*
X53129931Y-65189427D01*
X53106828Y-65192854D01*
X53083500Y-65194000D01*
X52232500Y-65194000D01*
X52209172Y-65192854D01*
X52186069Y-65189427D01*
X52163412Y-65183752D01*
X52141421Y-65175883D01*
X52120308Y-65165897D01*
X52100274Y-65153890D01*
X52081514Y-65139976D01*
X52064209Y-65124291D01*
X52048524Y-65106986D01*
X52034610Y-65088226D01*
X52022603Y-65068192D01*
X52012617Y-65047079D01*
X52004748Y-65025088D01*
X51999073Y-65002431D01*
X51995646Y-64979328D01*
X51994500Y-64956000D01*
X51994500Y-64480000D01*
X51995646Y-64456672D01*
X51999073Y-64433569D01*
X52004748Y-64410912D01*
X52012617Y-64388921D01*
X52022603Y-64367808D01*
X52034610Y-64347774D01*
X52048524Y-64329014D01*
X52064209Y-64311709D01*
X52081514Y-64296024D01*
X52100274Y-64282110D01*
X52120308Y-64270103D01*
X52141421Y-64260117D01*
X52163412Y-64252248D01*
X52186069Y-64246573D01*
X52209172Y-64243146D01*
X52232500Y-64242000D01*
X53083500Y-64242000D01*
X53106828Y-64243146D01*
G37*
G36*
X51481828Y-64243146D02*
G01*
X51504931Y-64246573D01*
X51527588Y-64252248D01*
X51549579Y-64260117D01*
X51570692Y-64270103D01*
X51590726Y-64282110D01*
X51609486Y-64296024D01*
X51626791Y-64311709D01*
X51642476Y-64329014D01*
X51656390Y-64347774D01*
X51668397Y-64367808D01*
X51678383Y-64388921D01*
X51686252Y-64410912D01*
X51691927Y-64433569D01*
X51695354Y-64456672D01*
X51696500Y-64480000D01*
X51696500Y-64956000D01*
X51695354Y-64979328D01*
X51691927Y-65002431D01*
X51686252Y-65025088D01*
X51678383Y-65047079D01*
X51668397Y-65068192D01*
X51656390Y-65088226D01*
X51642476Y-65106986D01*
X51626791Y-65124291D01*
X51609486Y-65139976D01*
X51590726Y-65153890D01*
X51570692Y-65165897D01*
X51549579Y-65175883D01*
X51527588Y-65183752D01*
X51504931Y-65189427D01*
X51481828Y-65192854D01*
X51458500Y-65194000D01*
X50607500Y-65194000D01*
X50584172Y-65192854D01*
X50561069Y-65189427D01*
X50538412Y-65183752D01*
X50516421Y-65175883D01*
X50495308Y-65165897D01*
X50475274Y-65153890D01*
X50456514Y-65139976D01*
X50439209Y-65124291D01*
X50423524Y-65106986D01*
X50409610Y-65088226D01*
X50397603Y-65068192D01*
X50387617Y-65047079D01*
X50379748Y-65025088D01*
X50374073Y-65002431D01*
X50370646Y-64979328D01*
X50369500Y-64956000D01*
X50369500Y-64480000D01*
X50370646Y-64456672D01*
X50374073Y-64433569D01*
X50379748Y-64410912D01*
X50387617Y-64388921D01*
X50397603Y-64367808D01*
X50409610Y-64347774D01*
X50423524Y-64329014D01*
X50439209Y-64311709D01*
X50456514Y-64296024D01*
X50475274Y-64282110D01*
X50495308Y-64270103D01*
X50516421Y-64260117D01*
X50538412Y-64252248D01*
X50561069Y-64246573D01*
X50584172Y-64243146D01*
X50607500Y-64242000D01*
X51458500Y-64242000D01*
X51481828Y-64243146D01*
G37*
G36*
X53106828Y-58469146D02*
G01*
X53129931Y-58472573D01*
X53152588Y-58478248D01*
X53174579Y-58486117D01*
X53195692Y-58496103D01*
X53215726Y-58508110D01*
X53234486Y-58522024D01*
X53251791Y-58537709D01*
X53267476Y-58555014D01*
X53281390Y-58573774D01*
X53293397Y-58593808D01*
X53303383Y-58614921D01*
X53311252Y-58636912D01*
X53316927Y-58659569D01*
X53320354Y-58682672D01*
X53321500Y-58706000D01*
X53321500Y-59182000D01*
X53320354Y-59205328D01*
X53316927Y-59228431D01*
X53311252Y-59251088D01*
X53303383Y-59273079D01*
X53293397Y-59294192D01*
X53281390Y-59314226D01*
X53267476Y-59332986D01*
X53251791Y-59350291D01*
X53234486Y-59365976D01*
X53215726Y-59379890D01*
X53195692Y-59391897D01*
X53174579Y-59401883D01*
X53152588Y-59409752D01*
X53129931Y-59415427D01*
X53106828Y-59418854D01*
X53083500Y-59420000D01*
X52232500Y-59420000D01*
X52209172Y-59418854D01*
X52186069Y-59415427D01*
X52163412Y-59409752D01*
X52141421Y-59401883D01*
X52120308Y-59391897D01*
X52100274Y-59379890D01*
X52081514Y-59365976D01*
X52064209Y-59350291D01*
X52048524Y-59332986D01*
X52034610Y-59314226D01*
X52022603Y-59294192D01*
X52012617Y-59273079D01*
X52004748Y-59251088D01*
X51999073Y-59228431D01*
X51995646Y-59205328D01*
X51994500Y-59182000D01*
X51994500Y-58706000D01*
X51995646Y-58682672D01*
X51999073Y-58659569D01*
X52004748Y-58636912D01*
X52012617Y-58614921D01*
X52022603Y-58593808D01*
X52034610Y-58573774D01*
X52048524Y-58555014D01*
X52064209Y-58537709D01*
X52081514Y-58522024D01*
X52100274Y-58508110D01*
X52120308Y-58496103D01*
X52141421Y-58486117D01*
X52163412Y-58478248D01*
X52186069Y-58472573D01*
X52209172Y-58469146D01*
X52232500Y-58468000D01*
X53083500Y-58468000D01*
X53106828Y-58469146D01*
G37*
G36*
X51481828Y-58469146D02*
G01*
X51504931Y-58472573D01*
X51527588Y-58478248D01*
X51549579Y-58486117D01*
X51570692Y-58496103D01*
X51590726Y-58508110D01*
X51609486Y-58522024D01*
X51626791Y-58537709D01*
X51642476Y-58555014D01*
X51656390Y-58573774D01*
X51668397Y-58593808D01*
X51678383Y-58614921D01*
X51686252Y-58636912D01*
X51691927Y-58659569D01*
X51695354Y-58682672D01*
X51696500Y-58706000D01*
X51696500Y-59182000D01*
X51695354Y-59205328D01*
X51691927Y-59228431D01*
X51686252Y-59251088D01*
X51678383Y-59273079D01*
X51668397Y-59294192D01*
X51656390Y-59314226D01*
X51642476Y-59332986D01*
X51626791Y-59350291D01*
X51609486Y-59365976D01*
X51590726Y-59379890D01*
X51570692Y-59391897D01*
X51549579Y-59401883D01*
X51527588Y-59409752D01*
X51504931Y-59415427D01*
X51481828Y-59418854D01*
X51458500Y-59420000D01*
X50607500Y-59420000D01*
X50584172Y-59418854D01*
X50561069Y-59415427D01*
X50538412Y-59409752D01*
X50516421Y-59401883D01*
X50495308Y-59391897D01*
X50475274Y-59379890D01*
X50456514Y-59365976D01*
X50439209Y-59350291D01*
X50423524Y-59332986D01*
X50409610Y-59314226D01*
X50397603Y-59294192D01*
X50387617Y-59273079D01*
X50379748Y-59251088D01*
X50374073Y-59228431D01*
X50370646Y-59205328D01*
X50369500Y-59182000D01*
X50369500Y-58706000D01*
X50370646Y-58682672D01*
X50374073Y-58659569D01*
X50379748Y-58636912D01*
X50387617Y-58614921D01*
X50397603Y-58593808D01*
X50409610Y-58573774D01*
X50423524Y-58555014D01*
X50439209Y-58537709D01*
X50456514Y-58522024D01*
X50475274Y-58508110D01*
X50495308Y-58496103D01*
X50516421Y-58486117D01*
X50538412Y-58478248D01*
X50561069Y-58472573D01*
X50584172Y-58469146D01*
X50607500Y-58468000D01*
X51458500Y-58468000D01*
X51481828Y-58469146D01*
G37*
G36*
X53081328Y-55421146D02*
G01*
X53104431Y-55424573D01*
X53127088Y-55430248D01*
X53149079Y-55438117D01*
X53170192Y-55448103D01*
X53190226Y-55460110D01*
X53208986Y-55474024D01*
X53226291Y-55489709D01*
X53241976Y-55507014D01*
X53255890Y-55525774D01*
X53267897Y-55545808D01*
X53277883Y-55566921D01*
X53285752Y-55588912D01*
X53291427Y-55611569D01*
X53294854Y-55634672D01*
X53296000Y-55658000D01*
X53296000Y-56134000D01*
X53294854Y-56157328D01*
X53291427Y-56180431D01*
X53285752Y-56203088D01*
X53277883Y-56225079D01*
X53267897Y-56246192D01*
X53255890Y-56266226D01*
X53241976Y-56284986D01*
X53226291Y-56302291D01*
X53208986Y-56317976D01*
X53190226Y-56331890D01*
X53170192Y-56343897D01*
X53149079Y-56353883D01*
X53127088Y-56361752D01*
X53104431Y-56367427D01*
X53081328Y-56370854D01*
X53058000Y-56372000D01*
X52207000Y-56372000D01*
X52183672Y-56370854D01*
X52160569Y-56367427D01*
X52137912Y-56361752D01*
X52115921Y-56353883D01*
X52094808Y-56343897D01*
X52074774Y-56331890D01*
X52056014Y-56317976D01*
X52038709Y-56302291D01*
X52023024Y-56284986D01*
X52009110Y-56266226D01*
X51997103Y-56246192D01*
X51987117Y-56225079D01*
X51979248Y-56203088D01*
X51973573Y-56180431D01*
X51970146Y-56157328D01*
X51969000Y-56134000D01*
X51969000Y-55658000D01*
X51970146Y-55634672D01*
X51973573Y-55611569D01*
X51979248Y-55588912D01*
X51987117Y-55566921D01*
X51997103Y-55545808D01*
X52009110Y-55525774D01*
X52023024Y-55507014D01*
X52038709Y-55489709D01*
X52056014Y-55474024D01*
X52074774Y-55460110D01*
X52094808Y-55448103D01*
X52115921Y-55438117D01*
X52137912Y-55430248D01*
X52160569Y-55424573D01*
X52183672Y-55421146D01*
X52207000Y-55420000D01*
X53058000Y-55420000D01*
X53081328Y-55421146D01*
G37*
G36*
X51456328Y-55421146D02*
G01*
X51479431Y-55424573D01*
X51502088Y-55430248D01*
X51524079Y-55438117D01*
X51545192Y-55448103D01*
X51565226Y-55460110D01*
X51583986Y-55474024D01*
X51601291Y-55489709D01*
X51616976Y-55507014D01*
X51630890Y-55525774D01*
X51642897Y-55545808D01*
X51652883Y-55566921D01*
X51660752Y-55588912D01*
X51666427Y-55611569D01*
X51669854Y-55634672D01*
X51671000Y-55658000D01*
X51671000Y-56134000D01*
X51669854Y-56157328D01*
X51666427Y-56180431D01*
X51660752Y-56203088D01*
X51652883Y-56225079D01*
X51642897Y-56246192D01*
X51630890Y-56266226D01*
X51616976Y-56284986D01*
X51601291Y-56302291D01*
X51583986Y-56317976D01*
X51565226Y-56331890D01*
X51545192Y-56343897D01*
X51524079Y-56353883D01*
X51502088Y-56361752D01*
X51479431Y-56367427D01*
X51456328Y-56370854D01*
X51433000Y-56372000D01*
X50582000Y-56372000D01*
X50558672Y-56370854D01*
X50535569Y-56367427D01*
X50512912Y-56361752D01*
X50490921Y-56353883D01*
X50469808Y-56343897D01*
X50449774Y-56331890D01*
X50431014Y-56317976D01*
X50413709Y-56302291D01*
X50398024Y-56284986D01*
X50384110Y-56266226D01*
X50372103Y-56246192D01*
X50362117Y-56225079D01*
X50354248Y-56203088D01*
X50348573Y-56180431D01*
X50345146Y-56157328D01*
X50344000Y-56134000D01*
X50344000Y-55658000D01*
X50345146Y-55634672D01*
X50348573Y-55611569D01*
X50354248Y-55588912D01*
X50362117Y-55566921D01*
X50372103Y-55545808D01*
X50384110Y-55525774D01*
X50398024Y-55507014D01*
X50413709Y-55489709D01*
X50431014Y-55474024D01*
X50449774Y-55460110D01*
X50469808Y-55448103D01*
X50490921Y-55438117D01*
X50512912Y-55430248D01*
X50535569Y-55424573D01*
X50558672Y-55421146D01*
X50582000Y-55420000D01*
X51433000Y-55420000D01*
X51456328Y-55421146D01*
G37*
D26*
X58950000Y-65260000D03*
X58950000Y-66600000D03*
X58950000Y-62600000D03*
X58950000Y-63940000D03*
X55950000Y-65260000D03*
X55950000Y-63940000D03*
X55950000Y-66600000D03*
X55950000Y-62600000D03*
D22*
X101503000Y-50040000D03*
X101503000Y-47560000D03*
D23*
X100643000Y-46273000D03*
X102943000Y-46273000D03*
X102943000Y-51327000D03*
X100643000Y-51327000D03*
D24*
X99083000Y-50705000D03*
X99083000Y-49375000D03*
X99083000Y-48225000D03*
X99083000Y-46895000D03*
D25*
X104892000Y-46895000D03*
X104892000Y-48165000D03*
X104892000Y-49435000D03*
X104892000Y-50705000D03*
D22*
X123450000Y-67390000D03*
X123450000Y-64910000D03*
D23*
X122590000Y-63623000D03*
X124890000Y-63623000D03*
X124890000Y-68677000D03*
X122590000Y-68677000D03*
D24*
X121030000Y-68055000D03*
X121030000Y-66725000D03*
X121030000Y-65575000D03*
X121030000Y-64245000D03*
D25*
X126839000Y-64245000D03*
X126839000Y-65515000D03*
X126839000Y-66785000D03*
X126839000Y-68055000D03*
D22*
X101553000Y-67390000D03*
X101553000Y-64910000D03*
D23*
X100693000Y-63623000D03*
X102993000Y-63623000D03*
X102993000Y-68677000D03*
X100693000Y-68677000D03*
D24*
X99133000Y-68055000D03*
X99133000Y-66725000D03*
X99133000Y-65575000D03*
X99133000Y-64245000D03*
D25*
X104942000Y-64245000D03*
X104942000Y-65515000D03*
X104942000Y-66785000D03*
X104942000Y-68055000D03*
D20*
X76250800Y-45200000D03*
X78790800Y-45200000D03*
X81330800Y-45200000D03*
X83870800Y-45200000D03*
D21*
X86410800Y-45200000D03*
D20*
X67589400Y-45200000D03*
X70129400Y-45200000D03*
D21*
X72669400Y-45200000D03*
D27*
X132970000Y-85950000D03*
D28*
X133970000Y-88750000D03*
X129970000Y-88750000D03*
D29*
X128970000Y-86450000D03*
X122970000Y-86450000D03*
D28*
X123970000Y-88750000D03*
D29*
X129970000Y-86450000D03*
X131970000Y-86450000D03*
X123970000Y-86450000D03*
X125970000Y-86450000D03*
D28*
X131970000Y-88750000D03*
X125970000Y-88750000D03*
X127970000Y-88750000D03*
X130970000Y-88750000D03*
D29*
X127970000Y-86450000D03*
D28*
X126970000Y-88750000D03*
D29*
X130970000Y-86450000D03*
D28*
X128970000Y-88750000D03*
D29*
X124970000Y-86450000D03*
X126970000Y-86450000D03*
X133970000Y-86450000D03*
D28*
X124970000Y-88750000D03*
D29*
X50970000Y-86450000D03*
X51970000Y-86450000D03*
X52970000Y-86450000D03*
X53970000Y-86450000D03*
X54970000Y-86450000D03*
X55970000Y-86450000D03*
X56970000Y-86450000D03*
X57970000Y-86450000D03*
X58970000Y-86450000D03*
X59970000Y-86450000D03*
X60970000Y-86450000D03*
X65970000Y-86450000D03*
X66970000Y-86450000D03*
X67970000Y-86450000D03*
X69970000Y-86450000D03*
X63970000Y-86450000D03*
X64970000Y-86450000D03*
D28*
X52970000Y-88750000D03*
X53970000Y-88750000D03*
X54970000Y-88750000D03*
X55970000Y-88750000D03*
X56970000Y-88750000D03*
X57970000Y-88750000D03*
X58970000Y-88750000D03*
X59970000Y-88750000D03*
X60970000Y-88750000D03*
X50970000Y-88750000D03*
X63970000Y-88750000D03*
X64970000Y-88750000D03*
X65970000Y-88750000D03*
X66970000Y-88750000D03*
X67970000Y-88750000D03*
X51970000Y-88750000D03*
D29*
X68970000Y-86450000D03*
D28*
X68970000Y-88750000D03*
D29*
X73970000Y-86450000D03*
X75970000Y-86450000D03*
D28*
X75970000Y-88750000D03*
D29*
X72970000Y-86450000D03*
X70970000Y-86450000D03*
X71970000Y-86450000D03*
D28*
X71970000Y-88750000D03*
X73970000Y-88750000D03*
X70970000Y-88750000D03*
X72970000Y-88750000D03*
X69970000Y-88750000D03*
X74970000Y-88750000D03*
D29*
X74970000Y-86450000D03*
X78970000Y-86450000D03*
X79970000Y-86450000D03*
X77970000Y-86450000D03*
X76970000Y-86450000D03*
D28*
X78970000Y-88750000D03*
X76970000Y-88750000D03*
X77970000Y-88750000D03*
D29*
X81970000Y-86450000D03*
X82970000Y-86450000D03*
X80970000Y-86450000D03*
X83970000Y-86450000D03*
D28*
X79970000Y-88750000D03*
X80970000Y-88750000D03*
X81970000Y-88750000D03*
X82970000Y-88750000D03*
D29*
X85970000Y-86450000D03*
X86970000Y-86450000D03*
X84970000Y-86450000D03*
D28*
X83970000Y-88750000D03*
X87970000Y-88750000D03*
X84970000Y-88750000D03*
X85970000Y-88750000D03*
X86970000Y-88750000D03*
D29*
X89970000Y-86450000D03*
X90970000Y-86450000D03*
X88970000Y-86450000D03*
X87970000Y-86450000D03*
D28*
X91970000Y-88750000D03*
X88970000Y-88750000D03*
X89970000Y-88750000D03*
X90970000Y-88750000D03*
D29*
X92970000Y-86450000D03*
X91970000Y-86450000D03*
D28*
X92970000Y-88750000D03*
D29*
X94970000Y-86450000D03*
X98970000Y-86450000D03*
X95970000Y-86450000D03*
X93970000Y-86450000D03*
X96970000Y-86450000D03*
X100970000Y-86450000D03*
D28*
X103970000Y-88750000D03*
D29*
X103970000Y-86450000D03*
X97970000Y-86450000D03*
X107970000Y-86450000D03*
D28*
X97970000Y-88750000D03*
X96970000Y-88750000D03*
D29*
X104970000Y-86450000D03*
D28*
X104970000Y-88750000D03*
D29*
X99970000Y-86450000D03*
D28*
X100970000Y-88750000D03*
X102970000Y-88750000D03*
D29*
X106970000Y-86450000D03*
D28*
X98970000Y-88750000D03*
X94970000Y-88750000D03*
D29*
X105970000Y-86450000D03*
X102970000Y-86450000D03*
D28*
X95970000Y-88750000D03*
X92970000Y-88750000D03*
X93970000Y-88750000D03*
X99970000Y-88750000D03*
D29*
X108970000Y-86450000D03*
D28*
X108970000Y-88750000D03*
D29*
X101970000Y-86450000D03*
D28*
X101970000Y-88750000D03*
D29*
X115970000Y-86450000D03*
D28*
X115970000Y-88750000D03*
D29*
X116970000Y-86450000D03*
D28*
X111970000Y-88750000D03*
X106970000Y-88750000D03*
D29*
X109970000Y-86450000D03*
X113970000Y-86450000D03*
D28*
X113970000Y-88750000D03*
X118970000Y-88750000D03*
X107970000Y-88750000D03*
X105970000Y-88750000D03*
X108970000Y-88750000D03*
D29*
X117970000Y-86450000D03*
D28*
X117970000Y-88750000D03*
D29*
X111970000Y-86450000D03*
X112970000Y-86450000D03*
X110970000Y-86450000D03*
D28*
X110970000Y-88750000D03*
X114970000Y-88750000D03*
D29*
X118970000Y-86450000D03*
D28*
X109970000Y-88750000D03*
D29*
X119970000Y-86450000D03*
D28*
X120970000Y-88750000D03*
X119970000Y-88750000D03*
X116970000Y-88750000D03*
D29*
X114970000Y-86450000D03*
D28*
X112970000Y-88750000D03*
D29*
X121970000Y-86450000D03*
X120970000Y-86450000D03*
D28*
X121970000Y-88750000D03*
X122970000Y-88750000D03*
D30*
X114000000Y-45200000D03*
X114000000Y-52400000D03*
D31*
X108000000Y-42050000D03*
X108000000Y-55550000D03*
X120000000Y-42050000D03*
X120000000Y-55550000D03*
D30*
X114000000Y-62700000D03*
X114000000Y-69900000D03*
D31*
X108000000Y-59550000D03*
X108000000Y-73050000D03*
X120000000Y-59550000D03*
X120000000Y-73050000D03*
D14*
G36*
X74258141Y-53550297D02*
G01*
X74284278Y-53554174D01*
X74309909Y-53560594D01*
X74334788Y-53569495D01*
X74358674Y-53580793D01*
X74381337Y-53594377D01*
X74402560Y-53610117D01*
X74422139Y-53627861D01*
X74439883Y-53647440D01*
X74455623Y-53668663D01*
X74469207Y-53691326D01*
X74480505Y-53715212D01*
X74489406Y-53740091D01*
X74495826Y-53765722D01*
X74499703Y-53791859D01*
X74501000Y-53818250D01*
X74501000Y-54356750D01*
X74499703Y-54383141D01*
X74495826Y-54409278D01*
X74489406Y-54434909D01*
X74480505Y-54459788D01*
X74469207Y-54483674D01*
X74455623Y-54506337D01*
X74439883Y-54527560D01*
X74422139Y-54547139D01*
X74402560Y-54564883D01*
X74381337Y-54580623D01*
X74358674Y-54594207D01*
X74334788Y-54605505D01*
X74309909Y-54614406D01*
X74284278Y-54620826D01*
X74258141Y-54624703D01*
X74231750Y-54626000D01*
X73268250Y-54626000D01*
X73241859Y-54624703D01*
X73215722Y-54620826D01*
X73190091Y-54614406D01*
X73165212Y-54605505D01*
X73141326Y-54594207D01*
X73118663Y-54580623D01*
X73097440Y-54564883D01*
X73077861Y-54547139D01*
X73060117Y-54527560D01*
X73044377Y-54506337D01*
X73030793Y-54483674D01*
X73019495Y-54459788D01*
X73010594Y-54434909D01*
X73004174Y-54409278D01*
X73000297Y-54383141D01*
X72999000Y-54356750D01*
X72999000Y-53818250D01*
X73000297Y-53791859D01*
X73004174Y-53765722D01*
X73010594Y-53740091D01*
X73019495Y-53715212D01*
X73030793Y-53691326D01*
X73044377Y-53668663D01*
X73060117Y-53647440D01*
X73077861Y-53627861D01*
X73097440Y-53610117D01*
X73118663Y-53594377D01*
X73141326Y-53580793D01*
X73165212Y-53569495D01*
X73190091Y-53560594D01*
X73215722Y-53554174D01*
X73241859Y-53550297D01*
X73268250Y-53549000D01*
X74231750Y-53549000D01*
X74258141Y-53550297D01*
G37*
G36*
X74258141Y-51675297D02*
G01*
X74284278Y-51679174D01*
X74309909Y-51685594D01*
X74334788Y-51694495D01*
X74358674Y-51705793D01*
X74381337Y-51719377D01*
X74402560Y-51735117D01*
X74422139Y-51752861D01*
X74439883Y-51772440D01*
X74455623Y-51793663D01*
X74469207Y-51816326D01*
X74480505Y-51840212D01*
X74489406Y-51865091D01*
X74495826Y-51890722D01*
X74499703Y-51916859D01*
X74501000Y-51943250D01*
X74501000Y-52481750D01*
X74499703Y-52508141D01*
X74495826Y-52534278D01*
X74489406Y-52559909D01*
X74480505Y-52584788D01*
X74469207Y-52608674D01*
X74455623Y-52631337D01*
X74439883Y-52652560D01*
X74422139Y-52672139D01*
X74402560Y-52689883D01*
X74381337Y-52705623D01*
X74358674Y-52719207D01*
X74334788Y-52730505D01*
X74309909Y-52739406D01*
X74284278Y-52745826D01*
X74258141Y-52749703D01*
X74231750Y-52751000D01*
X73268250Y-52751000D01*
X73241859Y-52749703D01*
X73215722Y-52745826D01*
X73190091Y-52739406D01*
X73165212Y-52730505D01*
X73141326Y-52719207D01*
X73118663Y-52705623D01*
X73097440Y-52689883D01*
X73077861Y-52672139D01*
X73060117Y-52652560D01*
X73044377Y-52631337D01*
X73030793Y-52608674D01*
X73019495Y-52584788D01*
X73010594Y-52559909D01*
X73004174Y-52534278D01*
X73000297Y-52508141D01*
X72999000Y-52481750D01*
X72999000Y-51943250D01*
X73000297Y-51916859D01*
X73004174Y-51890722D01*
X73010594Y-51865091D01*
X73019495Y-51840212D01*
X73030793Y-51816326D01*
X73044377Y-51793663D01*
X73060117Y-51772440D01*
X73077861Y-51752861D01*
X73097440Y-51735117D01*
X73118663Y-51719377D01*
X73141326Y-51705793D01*
X73165212Y-51694495D01*
X73190091Y-51685594D01*
X73215722Y-51679174D01*
X73241859Y-51675297D01*
X73268250Y-51674000D01*
X74231750Y-51674000D01*
X74258141Y-51675297D01*
G37*
G36*
X73758141Y-68000297D02*
G01*
X73784278Y-68004174D01*
X73809909Y-68010594D01*
X73834788Y-68019495D01*
X73858674Y-68030793D01*
X73881337Y-68044377D01*
X73902560Y-68060117D01*
X73922139Y-68077861D01*
X73939883Y-68097440D01*
X73955623Y-68118663D01*
X73969207Y-68141326D01*
X73980505Y-68165212D01*
X73989406Y-68190091D01*
X73995826Y-68215722D01*
X73999703Y-68241859D01*
X74001000Y-68268250D01*
X74001000Y-68806750D01*
X73999703Y-68833141D01*
X73995826Y-68859278D01*
X73989406Y-68884909D01*
X73980505Y-68909788D01*
X73969207Y-68933674D01*
X73955623Y-68956337D01*
X73939883Y-68977560D01*
X73922139Y-68997139D01*
X73902560Y-69014883D01*
X73881337Y-69030623D01*
X73858674Y-69044207D01*
X73834788Y-69055505D01*
X73809909Y-69064406D01*
X73784278Y-69070826D01*
X73758141Y-69074703D01*
X73731750Y-69076000D01*
X72768250Y-69076000D01*
X72741859Y-69074703D01*
X72715722Y-69070826D01*
X72690091Y-69064406D01*
X72665212Y-69055505D01*
X72641326Y-69044207D01*
X72618663Y-69030623D01*
X72597440Y-69014883D01*
X72577861Y-68997139D01*
X72560117Y-68977560D01*
X72544377Y-68956337D01*
X72530793Y-68933674D01*
X72519495Y-68909788D01*
X72510594Y-68884909D01*
X72504174Y-68859278D01*
X72500297Y-68833141D01*
X72499000Y-68806750D01*
X72499000Y-68268250D01*
X72500297Y-68241859D01*
X72504174Y-68215722D01*
X72510594Y-68190091D01*
X72519495Y-68165212D01*
X72530793Y-68141326D01*
X72544377Y-68118663D01*
X72560117Y-68097440D01*
X72577861Y-68077861D01*
X72597440Y-68060117D01*
X72618663Y-68044377D01*
X72641326Y-68030793D01*
X72665212Y-68019495D01*
X72690091Y-68010594D01*
X72715722Y-68004174D01*
X72741859Y-68000297D01*
X72768250Y-67999000D01*
X73731750Y-67999000D01*
X73758141Y-68000297D01*
G37*
G36*
X73758141Y-66125297D02*
G01*
X73784278Y-66129174D01*
X73809909Y-66135594D01*
X73834788Y-66144495D01*
X73858674Y-66155793D01*
X73881337Y-66169377D01*
X73902560Y-66185117D01*
X73922139Y-66202861D01*
X73939883Y-66222440D01*
X73955623Y-66243663D01*
X73969207Y-66266326D01*
X73980505Y-66290212D01*
X73989406Y-66315091D01*
X73995826Y-66340722D01*
X73999703Y-66366859D01*
X74001000Y-66393250D01*
X74001000Y-66931750D01*
X73999703Y-66958141D01*
X73995826Y-66984278D01*
X73989406Y-67009909D01*
X73980505Y-67034788D01*
X73969207Y-67058674D01*
X73955623Y-67081337D01*
X73939883Y-67102560D01*
X73922139Y-67122139D01*
X73902560Y-67139883D01*
X73881337Y-67155623D01*
X73858674Y-67169207D01*
X73834788Y-67180505D01*
X73809909Y-67189406D01*
X73784278Y-67195826D01*
X73758141Y-67199703D01*
X73731750Y-67201000D01*
X72768250Y-67201000D01*
X72741859Y-67199703D01*
X72715722Y-67195826D01*
X72690091Y-67189406D01*
X72665212Y-67180505D01*
X72641326Y-67169207D01*
X72618663Y-67155623D01*
X72597440Y-67139883D01*
X72577861Y-67122139D01*
X72560117Y-67102560D01*
X72544377Y-67081337D01*
X72530793Y-67058674D01*
X72519495Y-67034788D01*
X72510594Y-67009909D01*
X72504174Y-66984278D01*
X72500297Y-66958141D01*
X72499000Y-66931750D01*
X72499000Y-66393250D01*
X72500297Y-66366859D01*
X72504174Y-66340722D01*
X72510594Y-66315091D01*
X72519495Y-66290212D01*
X72530793Y-66266326D01*
X72544377Y-66243663D01*
X72560117Y-66222440D01*
X72577861Y-66202861D01*
X72597440Y-66185117D01*
X72618663Y-66169377D01*
X72641326Y-66155793D01*
X72665212Y-66144495D01*
X72690091Y-66135594D01*
X72715722Y-66129174D01*
X72741859Y-66125297D01*
X72768250Y-66124000D01*
X73731750Y-66124000D01*
X73758141Y-66125297D01*
G37*
D32*
X61400000Y-72600000D03*
X61400000Y-77200000D03*
X61400000Y-74900000D03*
D33*
X67700000Y-74900000D03*
D14*
G36*
X84367691Y-65769176D02*
G01*
X84391401Y-65772693D01*
X84414652Y-65778517D01*
X84437220Y-65786592D01*
X84458889Y-65796841D01*
X84479448Y-65809164D01*
X84498701Y-65823442D01*
X84516461Y-65839539D01*
X84532558Y-65857299D01*
X84546836Y-65876552D01*
X84559159Y-65897111D01*
X84569408Y-65918780D01*
X84577483Y-65941348D01*
X84583307Y-65964599D01*
X84586824Y-65988309D01*
X84588000Y-66012250D01*
X84588000Y-66575750D01*
X84586824Y-66599691D01*
X84583307Y-66623401D01*
X84577483Y-66646652D01*
X84569408Y-66669220D01*
X84559159Y-66690889D01*
X84546836Y-66711448D01*
X84532558Y-66730701D01*
X84516461Y-66748461D01*
X84498701Y-66764558D01*
X84479448Y-66778836D01*
X84458889Y-66791159D01*
X84437220Y-66801408D01*
X84414652Y-66809483D01*
X84391401Y-66815307D01*
X84367691Y-66818824D01*
X84343750Y-66820000D01*
X83855250Y-66820000D01*
X83831309Y-66818824D01*
X83807599Y-66815307D01*
X83784348Y-66809483D01*
X83761780Y-66801408D01*
X83740111Y-66791159D01*
X83719552Y-66778836D01*
X83700299Y-66764558D01*
X83682539Y-66748461D01*
X83666442Y-66730701D01*
X83652164Y-66711448D01*
X83639841Y-66690889D01*
X83629592Y-66669220D01*
X83621517Y-66646652D01*
X83615693Y-66623401D01*
X83612176Y-66599691D01*
X83611000Y-66575750D01*
X83611000Y-66012250D01*
X83612176Y-65988309D01*
X83615693Y-65964599D01*
X83621517Y-65941348D01*
X83629592Y-65918780D01*
X83639841Y-65897111D01*
X83652164Y-65876552D01*
X83666442Y-65857299D01*
X83682539Y-65839539D01*
X83700299Y-65823442D01*
X83719552Y-65809164D01*
X83740111Y-65796841D01*
X83761780Y-65786592D01*
X83784348Y-65778517D01*
X83807599Y-65772693D01*
X83831309Y-65769176D01*
X83855250Y-65768000D01*
X84343750Y-65768000D01*
X84367691Y-65769176D01*
G37*
G36*
X82792691Y-65769176D02*
G01*
X82816401Y-65772693D01*
X82839652Y-65778517D01*
X82862220Y-65786592D01*
X82883889Y-65796841D01*
X82904448Y-65809164D01*
X82923701Y-65823442D01*
X82941461Y-65839539D01*
X82957558Y-65857299D01*
X82971836Y-65876552D01*
X82984159Y-65897111D01*
X82994408Y-65918780D01*
X83002483Y-65941348D01*
X83008307Y-65964599D01*
X83011824Y-65988309D01*
X83013000Y-66012250D01*
X83013000Y-66575750D01*
X83011824Y-66599691D01*
X83008307Y-66623401D01*
X83002483Y-66646652D01*
X82994408Y-66669220D01*
X82984159Y-66690889D01*
X82971836Y-66711448D01*
X82957558Y-66730701D01*
X82941461Y-66748461D01*
X82923701Y-66764558D01*
X82904448Y-66778836D01*
X82883889Y-66791159D01*
X82862220Y-66801408D01*
X82839652Y-66809483D01*
X82816401Y-66815307D01*
X82792691Y-66818824D01*
X82768750Y-66820000D01*
X82280250Y-66820000D01*
X82256309Y-66818824D01*
X82232599Y-66815307D01*
X82209348Y-66809483D01*
X82186780Y-66801408D01*
X82165111Y-66791159D01*
X82144552Y-66778836D01*
X82125299Y-66764558D01*
X82107539Y-66748461D01*
X82091442Y-66730701D01*
X82077164Y-66711448D01*
X82064841Y-66690889D01*
X82054592Y-66669220D01*
X82046517Y-66646652D01*
X82040693Y-66623401D01*
X82037176Y-66599691D01*
X82036000Y-66575750D01*
X82036000Y-66012250D01*
X82037176Y-65988309D01*
X82040693Y-65964599D01*
X82046517Y-65941348D01*
X82054592Y-65918780D01*
X82064841Y-65897111D01*
X82077164Y-65876552D01*
X82091442Y-65857299D01*
X82107539Y-65839539D01*
X82125299Y-65823442D01*
X82144552Y-65809164D01*
X82165111Y-65796841D01*
X82186780Y-65786592D01*
X82209348Y-65778517D01*
X82232599Y-65772693D01*
X82256309Y-65769176D01*
X82280250Y-65768000D01*
X82768750Y-65768000D01*
X82792691Y-65769176D01*
G37*
G36*
X73417191Y-62225176D02*
G01*
X73440901Y-62228693D01*
X73464152Y-62234517D01*
X73486720Y-62242592D01*
X73508389Y-62252841D01*
X73528948Y-62265164D01*
X73548201Y-62279442D01*
X73565961Y-62295539D01*
X73582058Y-62313299D01*
X73596336Y-62332552D01*
X73608659Y-62353111D01*
X73618908Y-62374780D01*
X73626983Y-62397348D01*
X73632807Y-62420599D01*
X73636324Y-62444309D01*
X73637500Y-62468250D01*
X73637500Y-63031750D01*
X73636324Y-63055691D01*
X73632807Y-63079401D01*
X73626983Y-63102652D01*
X73618908Y-63125220D01*
X73608659Y-63146889D01*
X73596336Y-63167448D01*
X73582058Y-63186701D01*
X73565961Y-63204461D01*
X73548201Y-63220558D01*
X73528948Y-63234836D01*
X73508389Y-63247159D01*
X73486720Y-63257408D01*
X73464152Y-63265483D01*
X73440901Y-63271307D01*
X73417191Y-63274824D01*
X73393250Y-63276000D01*
X72904750Y-63276000D01*
X72880809Y-63274824D01*
X72857099Y-63271307D01*
X72833848Y-63265483D01*
X72811280Y-63257408D01*
X72789611Y-63247159D01*
X72769052Y-63234836D01*
X72749799Y-63220558D01*
X72732039Y-63204461D01*
X72715942Y-63186701D01*
X72701664Y-63167448D01*
X72689341Y-63146889D01*
X72679092Y-63125220D01*
X72671017Y-63102652D01*
X72665193Y-63079401D01*
X72661676Y-63055691D01*
X72660500Y-63031750D01*
X72660500Y-62468250D01*
X72661676Y-62444309D01*
X72665193Y-62420599D01*
X72671017Y-62397348D01*
X72679092Y-62374780D01*
X72689341Y-62353111D01*
X72701664Y-62332552D01*
X72715942Y-62313299D01*
X72732039Y-62295539D01*
X72749799Y-62279442D01*
X72769052Y-62265164D01*
X72789611Y-62252841D01*
X72811280Y-62242592D01*
X72833848Y-62234517D01*
X72857099Y-62228693D01*
X72880809Y-62225176D01*
X72904750Y-62224000D01*
X73393250Y-62224000D01*
X73417191Y-62225176D01*
G37*
G36*
X71842191Y-62225176D02*
G01*
X71865901Y-62228693D01*
X71889152Y-62234517D01*
X71911720Y-62242592D01*
X71933389Y-62252841D01*
X71953948Y-62265164D01*
X71973201Y-62279442D01*
X71990961Y-62295539D01*
X72007058Y-62313299D01*
X72021336Y-62332552D01*
X72033659Y-62353111D01*
X72043908Y-62374780D01*
X72051983Y-62397348D01*
X72057807Y-62420599D01*
X72061324Y-62444309D01*
X72062500Y-62468250D01*
X72062500Y-63031750D01*
X72061324Y-63055691D01*
X72057807Y-63079401D01*
X72051983Y-63102652D01*
X72043908Y-63125220D01*
X72033659Y-63146889D01*
X72021336Y-63167448D01*
X72007058Y-63186701D01*
X71990961Y-63204461D01*
X71973201Y-63220558D01*
X71953948Y-63234836D01*
X71933389Y-63247159D01*
X71911720Y-63257408D01*
X71889152Y-63265483D01*
X71865901Y-63271307D01*
X71842191Y-63274824D01*
X71818250Y-63276000D01*
X71329750Y-63276000D01*
X71305809Y-63274824D01*
X71282099Y-63271307D01*
X71258848Y-63265483D01*
X71236280Y-63257408D01*
X71214611Y-63247159D01*
X71194052Y-63234836D01*
X71174799Y-63220558D01*
X71157039Y-63204461D01*
X71140942Y-63186701D01*
X71126664Y-63167448D01*
X71114341Y-63146889D01*
X71104092Y-63125220D01*
X71096017Y-63102652D01*
X71090193Y-63079401D01*
X71086676Y-63055691D01*
X71085500Y-63031750D01*
X71085500Y-62468250D01*
X71086676Y-62444309D01*
X71090193Y-62420599D01*
X71096017Y-62397348D01*
X71104092Y-62374780D01*
X71114341Y-62353111D01*
X71126664Y-62332552D01*
X71140942Y-62313299D01*
X71157039Y-62295539D01*
X71174799Y-62279442D01*
X71194052Y-62265164D01*
X71214611Y-62252841D01*
X71236280Y-62242592D01*
X71258848Y-62234517D01*
X71282099Y-62228693D01*
X71305809Y-62225176D01*
X71329750Y-62224000D01*
X71818250Y-62224000D01*
X71842191Y-62225176D01*
G37*
G36*
X73417191Y-59475176D02*
G01*
X73440901Y-59478693D01*
X73464152Y-59484517D01*
X73486720Y-59492592D01*
X73508389Y-59502841D01*
X73528948Y-59515164D01*
X73548201Y-59529442D01*
X73565961Y-59545539D01*
X73582058Y-59563299D01*
X73596336Y-59582552D01*
X73608659Y-59603111D01*
X73618908Y-59624780D01*
X73626983Y-59647348D01*
X73632807Y-59670599D01*
X73636324Y-59694309D01*
X73637500Y-59718250D01*
X73637500Y-60281750D01*
X73636324Y-60305691D01*
X73632807Y-60329401D01*
X73626983Y-60352652D01*
X73618908Y-60375220D01*
X73608659Y-60396889D01*
X73596336Y-60417448D01*
X73582058Y-60436701D01*
X73565961Y-60454461D01*
X73548201Y-60470558D01*
X73528948Y-60484836D01*
X73508389Y-60497159D01*
X73486720Y-60507408D01*
X73464152Y-60515483D01*
X73440901Y-60521307D01*
X73417191Y-60524824D01*
X73393250Y-60526000D01*
X72904750Y-60526000D01*
X72880809Y-60524824D01*
X72857099Y-60521307D01*
X72833848Y-60515483D01*
X72811280Y-60507408D01*
X72789611Y-60497159D01*
X72769052Y-60484836D01*
X72749799Y-60470558D01*
X72732039Y-60454461D01*
X72715942Y-60436701D01*
X72701664Y-60417448D01*
X72689341Y-60396889D01*
X72679092Y-60375220D01*
X72671017Y-60352652D01*
X72665193Y-60329401D01*
X72661676Y-60305691D01*
X72660500Y-60281750D01*
X72660500Y-59718250D01*
X72661676Y-59694309D01*
X72665193Y-59670599D01*
X72671017Y-59647348D01*
X72679092Y-59624780D01*
X72689341Y-59603111D01*
X72701664Y-59582552D01*
X72715942Y-59563299D01*
X72732039Y-59545539D01*
X72749799Y-59529442D01*
X72769052Y-59515164D01*
X72789611Y-59502841D01*
X72811280Y-59492592D01*
X72833848Y-59484517D01*
X72857099Y-59478693D01*
X72880809Y-59475176D01*
X72904750Y-59474000D01*
X73393250Y-59474000D01*
X73417191Y-59475176D01*
G37*
G36*
X71842191Y-59475176D02*
G01*
X71865901Y-59478693D01*
X71889152Y-59484517D01*
X71911720Y-59492592D01*
X71933389Y-59502841D01*
X71953948Y-59515164D01*
X71973201Y-59529442D01*
X71990961Y-59545539D01*
X72007058Y-59563299D01*
X72021336Y-59582552D01*
X72033659Y-59603111D01*
X72043908Y-59624780D01*
X72051983Y-59647348D01*
X72057807Y-59670599D01*
X72061324Y-59694309D01*
X72062500Y-59718250D01*
X72062500Y-60281750D01*
X72061324Y-60305691D01*
X72057807Y-60329401D01*
X72051983Y-60352652D01*
X72043908Y-60375220D01*
X72033659Y-60396889D01*
X72021336Y-60417448D01*
X72007058Y-60436701D01*
X71990961Y-60454461D01*
X71973201Y-60470558D01*
X71953948Y-60484836D01*
X71933389Y-60497159D01*
X71911720Y-60507408D01*
X71889152Y-60515483D01*
X71865901Y-60521307D01*
X71842191Y-60524824D01*
X71818250Y-60526000D01*
X71329750Y-60526000D01*
X71305809Y-60524824D01*
X71282099Y-60521307D01*
X71258848Y-60515483D01*
X71236280Y-60507408D01*
X71214611Y-60497159D01*
X71194052Y-60484836D01*
X71174799Y-60470558D01*
X71157039Y-60454461D01*
X71140942Y-60436701D01*
X71126664Y-60417448D01*
X71114341Y-60396889D01*
X71104092Y-60375220D01*
X71096017Y-60352652D01*
X71090193Y-60329401D01*
X71086676Y-60305691D01*
X71085500Y-60281750D01*
X71085500Y-59718250D01*
X71086676Y-59694309D01*
X71090193Y-59670599D01*
X71096017Y-59647348D01*
X71104092Y-59624780D01*
X71114341Y-59603111D01*
X71126664Y-59582552D01*
X71140942Y-59563299D01*
X71157039Y-59545539D01*
X71174799Y-59529442D01*
X71194052Y-59515164D01*
X71214611Y-59502841D01*
X71236280Y-59492592D01*
X71258848Y-59484517D01*
X71282099Y-59478693D01*
X71305809Y-59475176D01*
X71329750Y-59474000D01*
X71818250Y-59474000D01*
X71842191Y-59475176D01*
G37*
G36*
X73368191Y-56621176D02*
G01*
X73391901Y-56624693D01*
X73415152Y-56630517D01*
X73437720Y-56638592D01*
X73459389Y-56648841D01*
X73479948Y-56661164D01*
X73499201Y-56675442D01*
X73516961Y-56691539D01*
X73533058Y-56709299D01*
X73547336Y-56728552D01*
X73559659Y-56749111D01*
X73569908Y-56770780D01*
X73577983Y-56793348D01*
X73583807Y-56816599D01*
X73587324Y-56840309D01*
X73588500Y-56864250D01*
X73588500Y-57427750D01*
X73587324Y-57451691D01*
X73583807Y-57475401D01*
X73577983Y-57498652D01*
X73569908Y-57521220D01*
X73559659Y-57542889D01*
X73547336Y-57563448D01*
X73533058Y-57582701D01*
X73516961Y-57600461D01*
X73499201Y-57616558D01*
X73479948Y-57630836D01*
X73459389Y-57643159D01*
X73437720Y-57653408D01*
X73415152Y-57661483D01*
X73391901Y-57667307D01*
X73368191Y-57670824D01*
X73344250Y-57672000D01*
X72855750Y-57672000D01*
X72831809Y-57670824D01*
X72808099Y-57667307D01*
X72784848Y-57661483D01*
X72762280Y-57653408D01*
X72740611Y-57643159D01*
X72720052Y-57630836D01*
X72700799Y-57616558D01*
X72683039Y-57600461D01*
X72666942Y-57582701D01*
X72652664Y-57563448D01*
X72640341Y-57542889D01*
X72630092Y-57521220D01*
X72622017Y-57498652D01*
X72616193Y-57475401D01*
X72612676Y-57451691D01*
X72611500Y-57427750D01*
X72611500Y-56864250D01*
X72612676Y-56840309D01*
X72616193Y-56816599D01*
X72622017Y-56793348D01*
X72630092Y-56770780D01*
X72640341Y-56749111D01*
X72652664Y-56728552D01*
X72666942Y-56709299D01*
X72683039Y-56691539D01*
X72700799Y-56675442D01*
X72720052Y-56661164D01*
X72740611Y-56648841D01*
X72762280Y-56638592D01*
X72784848Y-56630517D01*
X72808099Y-56624693D01*
X72831809Y-56621176D01*
X72855750Y-56620000D01*
X73344250Y-56620000D01*
X73368191Y-56621176D01*
G37*
G36*
X71793191Y-56621176D02*
G01*
X71816901Y-56624693D01*
X71840152Y-56630517D01*
X71862720Y-56638592D01*
X71884389Y-56648841D01*
X71904948Y-56661164D01*
X71924201Y-56675442D01*
X71941961Y-56691539D01*
X71958058Y-56709299D01*
X71972336Y-56728552D01*
X71984659Y-56749111D01*
X71994908Y-56770780D01*
X72002983Y-56793348D01*
X72008807Y-56816599D01*
X72012324Y-56840309D01*
X72013500Y-56864250D01*
X72013500Y-57427750D01*
X72012324Y-57451691D01*
X72008807Y-57475401D01*
X72002983Y-57498652D01*
X71994908Y-57521220D01*
X71984659Y-57542889D01*
X71972336Y-57563448D01*
X71958058Y-57582701D01*
X71941961Y-57600461D01*
X71924201Y-57616558D01*
X71904948Y-57630836D01*
X71884389Y-57643159D01*
X71862720Y-57653408D01*
X71840152Y-57661483D01*
X71816901Y-57667307D01*
X71793191Y-57670824D01*
X71769250Y-57672000D01*
X71280750Y-57672000D01*
X71256809Y-57670824D01*
X71233099Y-57667307D01*
X71209848Y-57661483D01*
X71187280Y-57653408D01*
X71165611Y-57643159D01*
X71145052Y-57630836D01*
X71125799Y-57616558D01*
X71108039Y-57600461D01*
X71091942Y-57582701D01*
X71077664Y-57563448D01*
X71065341Y-57542889D01*
X71055092Y-57521220D01*
X71047017Y-57498652D01*
X71041193Y-57475401D01*
X71037676Y-57451691D01*
X71036500Y-57427750D01*
X71036500Y-56864250D01*
X71037676Y-56840309D01*
X71041193Y-56816599D01*
X71047017Y-56793348D01*
X71055092Y-56770780D01*
X71065341Y-56749111D01*
X71077664Y-56728552D01*
X71091942Y-56709299D01*
X71108039Y-56691539D01*
X71125799Y-56675442D01*
X71145052Y-56661164D01*
X71165611Y-56648841D01*
X71187280Y-56638592D01*
X71209848Y-56630517D01*
X71233099Y-56624693D01*
X71256809Y-56621176D01*
X71280750Y-56620000D01*
X71769250Y-56620000D01*
X71793191Y-56621176D01*
G37*
G36*
X125543191Y-40675176D02*
G01*
X125566901Y-40678693D01*
X125590152Y-40684517D01*
X125612720Y-40692592D01*
X125634389Y-40702841D01*
X125654948Y-40715164D01*
X125674201Y-40729442D01*
X125691961Y-40745539D01*
X125708058Y-40763299D01*
X125722336Y-40782552D01*
X125734659Y-40803111D01*
X125744908Y-40824780D01*
X125752983Y-40847348D01*
X125758807Y-40870599D01*
X125762324Y-40894309D01*
X125763500Y-40918250D01*
X125763500Y-41481750D01*
X125762324Y-41505691D01*
X125758807Y-41529401D01*
X125752983Y-41552652D01*
X125744908Y-41575220D01*
X125734659Y-41596889D01*
X125722336Y-41617448D01*
X125708058Y-41636701D01*
X125691961Y-41654461D01*
X125674201Y-41670558D01*
X125654948Y-41684836D01*
X125634389Y-41697159D01*
X125612720Y-41707408D01*
X125590152Y-41715483D01*
X125566901Y-41721307D01*
X125543191Y-41724824D01*
X125519250Y-41726000D01*
X125030750Y-41726000D01*
X125006809Y-41724824D01*
X124983099Y-41721307D01*
X124959848Y-41715483D01*
X124937280Y-41707408D01*
X124915611Y-41697159D01*
X124895052Y-41684836D01*
X124875799Y-41670558D01*
X124858039Y-41654461D01*
X124841942Y-41636701D01*
X124827664Y-41617448D01*
X124815341Y-41596889D01*
X124805092Y-41575220D01*
X124797017Y-41552652D01*
X124791193Y-41529401D01*
X124787676Y-41505691D01*
X124786500Y-41481750D01*
X124786500Y-40918250D01*
X124787676Y-40894309D01*
X124791193Y-40870599D01*
X124797017Y-40847348D01*
X124805092Y-40824780D01*
X124815341Y-40803111D01*
X124827664Y-40782552D01*
X124841942Y-40763299D01*
X124858039Y-40745539D01*
X124875799Y-40729442D01*
X124895052Y-40715164D01*
X124915611Y-40702841D01*
X124937280Y-40692592D01*
X124959848Y-40684517D01*
X124983099Y-40678693D01*
X125006809Y-40675176D01*
X125030750Y-40674000D01*
X125519250Y-40674000D01*
X125543191Y-40675176D01*
G37*
G36*
X123968191Y-40675176D02*
G01*
X123991901Y-40678693D01*
X124015152Y-40684517D01*
X124037720Y-40692592D01*
X124059389Y-40702841D01*
X124079948Y-40715164D01*
X124099201Y-40729442D01*
X124116961Y-40745539D01*
X124133058Y-40763299D01*
X124147336Y-40782552D01*
X124159659Y-40803111D01*
X124169908Y-40824780D01*
X124177983Y-40847348D01*
X124183807Y-40870599D01*
X124187324Y-40894309D01*
X124188500Y-40918250D01*
X124188500Y-41481750D01*
X124187324Y-41505691D01*
X124183807Y-41529401D01*
X124177983Y-41552652D01*
X124169908Y-41575220D01*
X124159659Y-41596889D01*
X124147336Y-41617448D01*
X124133058Y-41636701D01*
X124116961Y-41654461D01*
X124099201Y-41670558D01*
X124079948Y-41684836D01*
X124059389Y-41697159D01*
X124037720Y-41707408D01*
X124015152Y-41715483D01*
X123991901Y-41721307D01*
X123968191Y-41724824D01*
X123944250Y-41726000D01*
X123455750Y-41726000D01*
X123431809Y-41724824D01*
X123408099Y-41721307D01*
X123384848Y-41715483D01*
X123362280Y-41707408D01*
X123340611Y-41697159D01*
X123320052Y-41684836D01*
X123300799Y-41670558D01*
X123283039Y-41654461D01*
X123266942Y-41636701D01*
X123252664Y-41617448D01*
X123240341Y-41596889D01*
X123230092Y-41575220D01*
X123222017Y-41552652D01*
X123216193Y-41529401D01*
X123212676Y-41505691D01*
X123211500Y-41481750D01*
X123211500Y-40918250D01*
X123212676Y-40894309D01*
X123216193Y-40870599D01*
X123222017Y-40847348D01*
X123230092Y-40824780D01*
X123240341Y-40803111D01*
X123252664Y-40782552D01*
X123266942Y-40763299D01*
X123283039Y-40745539D01*
X123300799Y-40729442D01*
X123320052Y-40715164D01*
X123340611Y-40702841D01*
X123362280Y-40692592D01*
X123384848Y-40684517D01*
X123408099Y-40678693D01*
X123431809Y-40675176D01*
X123455750Y-40674000D01*
X123944250Y-40674000D01*
X123968191Y-40675176D01*
G37*
G36*
X129743191Y-40675176D02*
G01*
X129766901Y-40678693D01*
X129790152Y-40684517D01*
X129812720Y-40692592D01*
X129834389Y-40702841D01*
X129854948Y-40715164D01*
X129874201Y-40729442D01*
X129891961Y-40745539D01*
X129908058Y-40763299D01*
X129922336Y-40782552D01*
X129934659Y-40803111D01*
X129944908Y-40824780D01*
X129952983Y-40847348D01*
X129958807Y-40870599D01*
X129962324Y-40894309D01*
X129963500Y-40918250D01*
X129963500Y-41481750D01*
X129962324Y-41505691D01*
X129958807Y-41529401D01*
X129952983Y-41552652D01*
X129944908Y-41575220D01*
X129934659Y-41596889D01*
X129922336Y-41617448D01*
X129908058Y-41636701D01*
X129891961Y-41654461D01*
X129874201Y-41670558D01*
X129854948Y-41684836D01*
X129834389Y-41697159D01*
X129812720Y-41707408D01*
X129790152Y-41715483D01*
X129766901Y-41721307D01*
X129743191Y-41724824D01*
X129719250Y-41726000D01*
X129230750Y-41726000D01*
X129206809Y-41724824D01*
X129183099Y-41721307D01*
X129159848Y-41715483D01*
X129137280Y-41707408D01*
X129115611Y-41697159D01*
X129095052Y-41684836D01*
X129075799Y-41670558D01*
X129058039Y-41654461D01*
X129041942Y-41636701D01*
X129027664Y-41617448D01*
X129015341Y-41596889D01*
X129005092Y-41575220D01*
X128997017Y-41552652D01*
X128991193Y-41529401D01*
X128987676Y-41505691D01*
X128986500Y-41481750D01*
X128986500Y-40918250D01*
X128987676Y-40894309D01*
X128991193Y-40870599D01*
X128997017Y-40847348D01*
X129005092Y-40824780D01*
X129015341Y-40803111D01*
X129027664Y-40782552D01*
X129041942Y-40763299D01*
X129058039Y-40745539D01*
X129075799Y-40729442D01*
X129095052Y-40715164D01*
X129115611Y-40702841D01*
X129137280Y-40692592D01*
X129159848Y-40684517D01*
X129183099Y-40678693D01*
X129206809Y-40675176D01*
X129230750Y-40674000D01*
X129719250Y-40674000D01*
X129743191Y-40675176D01*
G37*
G36*
X128168191Y-40675176D02*
G01*
X128191901Y-40678693D01*
X128215152Y-40684517D01*
X128237720Y-40692592D01*
X128259389Y-40702841D01*
X128279948Y-40715164D01*
X128299201Y-40729442D01*
X128316961Y-40745539D01*
X128333058Y-40763299D01*
X128347336Y-40782552D01*
X128359659Y-40803111D01*
X128369908Y-40824780D01*
X128377983Y-40847348D01*
X128383807Y-40870599D01*
X128387324Y-40894309D01*
X128388500Y-40918250D01*
X128388500Y-41481750D01*
X128387324Y-41505691D01*
X128383807Y-41529401D01*
X128377983Y-41552652D01*
X128369908Y-41575220D01*
X128359659Y-41596889D01*
X128347336Y-41617448D01*
X128333058Y-41636701D01*
X128316961Y-41654461D01*
X128299201Y-41670558D01*
X128279948Y-41684836D01*
X128259389Y-41697159D01*
X128237720Y-41707408D01*
X128215152Y-41715483D01*
X128191901Y-41721307D01*
X128168191Y-41724824D01*
X128144250Y-41726000D01*
X127655750Y-41726000D01*
X127631809Y-41724824D01*
X127608099Y-41721307D01*
X127584848Y-41715483D01*
X127562280Y-41707408D01*
X127540611Y-41697159D01*
X127520052Y-41684836D01*
X127500799Y-41670558D01*
X127483039Y-41654461D01*
X127466942Y-41636701D01*
X127452664Y-41617448D01*
X127440341Y-41596889D01*
X127430092Y-41575220D01*
X127422017Y-41552652D01*
X127416193Y-41529401D01*
X127412676Y-41505691D01*
X127411500Y-41481750D01*
X127411500Y-40918250D01*
X127412676Y-40894309D01*
X127416193Y-40870599D01*
X127422017Y-40847348D01*
X127430092Y-40824780D01*
X127440341Y-40803111D01*
X127452664Y-40782552D01*
X127466942Y-40763299D01*
X127483039Y-40745539D01*
X127500799Y-40729442D01*
X127520052Y-40715164D01*
X127540611Y-40702841D01*
X127562280Y-40692592D01*
X127584848Y-40684517D01*
X127608099Y-40678693D01*
X127631809Y-40675176D01*
X127655750Y-40674000D01*
X128144250Y-40674000D01*
X128168191Y-40675176D01*
G37*
G36*
X73591691Y-76975176D02*
G01*
X73615401Y-76978693D01*
X73638652Y-76984517D01*
X73661220Y-76992592D01*
X73682889Y-77002841D01*
X73703448Y-77015164D01*
X73722701Y-77029442D01*
X73740461Y-77045539D01*
X73756558Y-77063299D01*
X73770836Y-77082552D01*
X73783159Y-77103111D01*
X73793408Y-77124780D01*
X73801483Y-77147348D01*
X73807307Y-77170599D01*
X73810824Y-77194309D01*
X73812000Y-77218250D01*
X73812000Y-77781750D01*
X73810824Y-77805691D01*
X73807307Y-77829401D01*
X73801483Y-77852652D01*
X73793408Y-77875220D01*
X73783159Y-77896889D01*
X73770836Y-77917448D01*
X73756558Y-77936701D01*
X73740461Y-77954461D01*
X73722701Y-77970558D01*
X73703448Y-77984836D01*
X73682889Y-77997159D01*
X73661220Y-78007408D01*
X73638652Y-78015483D01*
X73615401Y-78021307D01*
X73591691Y-78024824D01*
X73567750Y-78026000D01*
X73079250Y-78026000D01*
X73055309Y-78024824D01*
X73031599Y-78021307D01*
X73008348Y-78015483D01*
X72985780Y-78007408D01*
X72964111Y-77997159D01*
X72943552Y-77984836D01*
X72924299Y-77970558D01*
X72906539Y-77954461D01*
X72890442Y-77936701D01*
X72876164Y-77917448D01*
X72863841Y-77896889D01*
X72853592Y-77875220D01*
X72845517Y-77852652D01*
X72839693Y-77829401D01*
X72836176Y-77805691D01*
X72835000Y-77781750D01*
X72835000Y-77218250D01*
X72836176Y-77194309D01*
X72839693Y-77170599D01*
X72845517Y-77147348D01*
X72853592Y-77124780D01*
X72863841Y-77103111D01*
X72876164Y-77082552D01*
X72890442Y-77063299D01*
X72906539Y-77045539D01*
X72924299Y-77029442D01*
X72943552Y-77015164D01*
X72964111Y-77002841D01*
X72985780Y-76992592D01*
X73008348Y-76984517D01*
X73031599Y-76978693D01*
X73055309Y-76975176D01*
X73079250Y-76974000D01*
X73567750Y-76974000D01*
X73591691Y-76975176D01*
G37*
G36*
X72016691Y-76975176D02*
G01*
X72040401Y-76978693D01*
X72063652Y-76984517D01*
X72086220Y-76992592D01*
X72107889Y-77002841D01*
X72128448Y-77015164D01*
X72147701Y-77029442D01*
X72165461Y-77045539D01*
X72181558Y-77063299D01*
X72195836Y-77082552D01*
X72208159Y-77103111D01*
X72218408Y-77124780D01*
X72226483Y-77147348D01*
X72232307Y-77170599D01*
X72235824Y-77194309D01*
X72237000Y-77218250D01*
X72237000Y-77781750D01*
X72235824Y-77805691D01*
X72232307Y-77829401D01*
X72226483Y-77852652D01*
X72218408Y-77875220D01*
X72208159Y-77896889D01*
X72195836Y-77917448D01*
X72181558Y-77936701D01*
X72165461Y-77954461D01*
X72147701Y-77970558D01*
X72128448Y-77984836D01*
X72107889Y-77997159D01*
X72086220Y-78007408D01*
X72063652Y-78015483D01*
X72040401Y-78021307D01*
X72016691Y-78024824D01*
X71992750Y-78026000D01*
X71504250Y-78026000D01*
X71480309Y-78024824D01*
X71456599Y-78021307D01*
X71433348Y-78015483D01*
X71410780Y-78007408D01*
X71389111Y-77997159D01*
X71368552Y-77984836D01*
X71349299Y-77970558D01*
X71331539Y-77954461D01*
X71315442Y-77936701D01*
X71301164Y-77917448D01*
X71288841Y-77896889D01*
X71278592Y-77875220D01*
X71270517Y-77852652D01*
X71264693Y-77829401D01*
X71261176Y-77805691D01*
X71260000Y-77781750D01*
X71260000Y-77218250D01*
X71261176Y-77194309D01*
X71264693Y-77170599D01*
X71270517Y-77147348D01*
X71278592Y-77124780D01*
X71288841Y-77103111D01*
X71301164Y-77082552D01*
X71315442Y-77063299D01*
X71331539Y-77045539D01*
X71349299Y-77029442D01*
X71368552Y-77015164D01*
X71389111Y-77002841D01*
X71410780Y-76992592D01*
X71433348Y-76984517D01*
X71456599Y-76978693D01*
X71480309Y-76975176D01*
X71504250Y-76974000D01*
X71992750Y-76974000D01*
X72016691Y-76975176D01*
G37*
G36*
X73591691Y-74225176D02*
G01*
X73615401Y-74228693D01*
X73638652Y-74234517D01*
X73661220Y-74242592D01*
X73682889Y-74252841D01*
X73703448Y-74265164D01*
X73722701Y-74279442D01*
X73740461Y-74295539D01*
X73756558Y-74313299D01*
X73770836Y-74332552D01*
X73783159Y-74353111D01*
X73793408Y-74374780D01*
X73801483Y-74397348D01*
X73807307Y-74420599D01*
X73810824Y-74444309D01*
X73812000Y-74468250D01*
X73812000Y-75031750D01*
X73810824Y-75055691D01*
X73807307Y-75079401D01*
X73801483Y-75102652D01*
X73793408Y-75125220D01*
X73783159Y-75146889D01*
X73770836Y-75167448D01*
X73756558Y-75186701D01*
X73740461Y-75204461D01*
X73722701Y-75220558D01*
X73703448Y-75234836D01*
X73682889Y-75247159D01*
X73661220Y-75257408D01*
X73638652Y-75265483D01*
X73615401Y-75271307D01*
X73591691Y-75274824D01*
X73567750Y-75276000D01*
X73079250Y-75276000D01*
X73055309Y-75274824D01*
X73031599Y-75271307D01*
X73008348Y-75265483D01*
X72985780Y-75257408D01*
X72964111Y-75247159D01*
X72943552Y-75234836D01*
X72924299Y-75220558D01*
X72906539Y-75204461D01*
X72890442Y-75186701D01*
X72876164Y-75167448D01*
X72863841Y-75146889D01*
X72853592Y-75125220D01*
X72845517Y-75102652D01*
X72839693Y-75079401D01*
X72836176Y-75055691D01*
X72835000Y-75031750D01*
X72835000Y-74468250D01*
X72836176Y-74444309D01*
X72839693Y-74420599D01*
X72845517Y-74397348D01*
X72853592Y-74374780D01*
X72863841Y-74353111D01*
X72876164Y-74332552D01*
X72890442Y-74313299D01*
X72906539Y-74295539D01*
X72924299Y-74279442D01*
X72943552Y-74265164D01*
X72964111Y-74252841D01*
X72985780Y-74242592D01*
X73008348Y-74234517D01*
X73031599Y-74228693D01*
X73055309Y-74225176D01*
X73079250Y-74224000D01*
X73567750Y-74224000D01*
X73591691Y-74225176D01*
G37*
G36*
X72016691Y-74225176D02*
G01*
X72040401Y-74228693D01*
X72063652Y-74234517D01*
X72086220Y-74242592D01*
X72107889Y-74252841D01*
X72128448Y-74265164D01*
X72147701Y-74279442D01*
X72165461Y-74295539D01*
X72181558Y-74313299D01*
X72195836Y-74332552D01*
X72208159Y-74353111D01*
X72218408Y-74374780D01*
X72226483Y-74397348D01*
X72232307Y-74420599D01*
X72235824Y-74444309D01*
X72237000Y-74468250D01*
X72237000Y-75031750D01*
X72235824Y-75055691D01*
X72232307Y-75079401D01*
X72226483Y-75102652D01*
X72218408Y-75125220D01*
X72208159Y-75146889D01*
X72195836Y-75167448D01*
X72181558Y-75186701D01*
X72165461Y-75204461D01*
X72147701Y-75220558D01*
X72128448Y-75234836D01*
X72107889Y-75247159D01*
X72086220Y-75257408D01*
X72063652Y-75265483D01*
X72040401Y-75271307D01*
X72016691Y-75274824D01*
X71992750Y-75276000D01*
X71504250Y-75276000D01*
X71480309Y-75274824D01*
X71456599Y-75271307D01*
X71433348Y-75265483D01*
X71410780Y-75257408D01*
X71389111Y-75247159D01*
X71368552Y-75234836D01*
X71349299Y-75220558D01*
X71331539Y-75204461D01*
X71315442Y-75186701D01*
X71301164Y-75167448D01*
X71288841Y-75146889D01*
X71278592Y-75125220D01*
X71270517Y-75102652D01*
X71264693Y-75079401D01*
X71261176Y-75055691D01*
X71260000Y-75031750D01*
X71260000Y-74468250D01*
X71261176Y-74444309D01*
X71264693Y-74420599D01*
X71270517Y-74397348D01*
X71278592Y-74374780D01*
X71288841Y-74353111D01*
X71301164Y-74332552D01*
X71315442Y-74313299D01*
X71331539Y-74295539D01*
X71349299Y-74279442D01*
X71368552Y-74265164D01*
X71389111Y-74252841D01*
X71410780Y-74242592D01*
X71433348Y-74234517D01*
X71456599Y-74228693D01*
X71480309Y-74225176D01*
X71504250Y-74224000D01*
X71992750Y-74224000D01*
X72016691Y-74225176D01*
G37*
G36*
X73617191Y-71260176D02*
G01*
X73640901Y-71263693D01*
X73664152Y-71269517D01*
X73686720Y-71277592D01*
X73708389Y-71287841D01*
X73728948Y-71300164D01*
X73748201Y-71314442D01*
X73765961Y-71330539D01*
X73782058Y-71348299D01*
X73796336Y-71367552D01*
X73808659Y-71388111D01*
X73818908Y-71409780D01*
X73826983Y-71432348D01*
X73832807Y-71455599D01*
X73836324Y-71479309D01*
X73837500Y-71503250D01*
X73837500Y-72066750D01*
X73836324Y-72090691D01*
X73832807Y-72114401D01*
X73826983Y-72137652D01*
X73818908Y-72160220D01*
X73808659Y-72181889D01*
X73796336Y-72202448D01*
X73782058Y-72221701D01*
X73765961Y-72239461D01*
X73748201Y-72255558D01*
X73728948Y-72269836D01*
X73708389Y-72282159D01*
X73686720Y-72292408D01*
X73664152Y-72300483D01*
X73640901Y-72306307D01*
X73617191Y-72309824D01*
X73593250Y-72311000D01*
X73104750Y-72311000D01*
X73080809Y-72309824D01*
X73057099Y-72306307D01*
X73033848Y-72300483D01*
X73011280Y-72292408D01*
X72989611Y-72282159D01*
X72969052Y-72269836D01*
X72949799Y-72255558D01*
X72932039Y-72239461D01*
X72915942Y-72221701D01*
X72901664Y-72202448D01*
X72889341Y-72181889D01*
X72879092Y-72160220D01*
X72871017Y-72137652D01*
X72865193Y-72114401D01*
X72861676Y-72090691D01*
X72860500Y-72066750D01*
X72860500Y-71503250D01*
X72861676Y-71479309D01*
X72865193Y-71455599D01*
X72871017Y-71432348D01*
X72879092Y-71409780D01*
X72889341Y-71388111D01*
X72901664Y-71367552D01*
X72915942Y-71348299D01*
X72932039Y-71330539D01*
X72949799Y-71314442D01*
X72969052Y-71300164D01*
X72989611Y-71287841D01*
X73011280Y-71277592D01*
X73033848Y-71269517D01*
X73057099Y-71263693D01*
X73080809Y-71260176D01*
X73104750Y-71259000D01*
X73593250Y-71259000D01*
X73617191Y-71260176D01*
G37*
G36*
X72042191Y-71260176D02*
G01*
X72065901Y-71263693D01*
X72089152Y-71269517D01*
X72111720Y-71277592D01*
X72133389Y-71287841D01*
X72153948Y-71300164D01*
X72173201Y-71314442D01*
X72190961Y-71330539D01*
X72207058Y-71348299D01*
X72221336Y-71367552D01*
X72233659Y-71388111D01*
X72243908Y-71409780D01*
X72251983Y-71432348D01*
X72257807Y-71455599D01*
X72261324Y-71479309D01*
X72262500Y-71503250D01*
X72262500Y-72066750D01*
X72261324Y-72090691D01*
X72257807Y-72114401D01*
X72251983Y-72137652D01*
X72243908Y-72160220D01*
X72233659Y-72181889D01*
X72221336Y-72202448D01*
X72207058Y-72221701D01*
X72190961Y-72239461D01*
X72173201Y-72255558D01*
X72153948Y-72269836D01*
X72133389Y-72282159D01*
X72111720Y-72292408D01*
X72089152Y-72300483D01*
X72065901Y-72306307D01*
X72042191Y-72309824D01*
X72018250Y-72311000D01*
X71529750Y-72311000D01*
X71505809Y-72309824D01*
X71482099Y-72306307D01*
X71458848Y-72300483D01*
X71436280Y-72292408D01*
X71414611Y-72282159D01*
X71394052Y-72269836D01*
X71374799Y-72255558D01*
X71357039Y-72239461D01*
X71340942Y-72221701D01*
X71326664Y-72202448D01*
X71314341Y-72181889D01*
X71304092Y-72160220D01*
X71296017Y-72137652D01*
X71290193Y-72114401D01*
X71286676Y-72090691D01*
X71285500Y-72066750D01*
X71285500Y-71503250D01*
X71286676Y-71479309D01*
X71290193Y-71455599D01*
X71296017Y-71432348D01*
X71304092Y-71409780D01*
X71314341Y-71388111D01*
X71326664Y-71367552D01*
X71340942Y-71348299D01*
X71357039Y-71330539D01*
X71374799Y-71314442D01*
X71394052Y-71300164D01*
X71414611Y-71287841D01*
X71436280Y-71277592D01*
X71458848Y-71269517D01*
X71482099Y-71263693D01*
X71505809Y-71260176D01*
X71529750Y-71259000D01*
X72018250Y-71259000D01*
X72042191Y-71260176D01*
G37*
G36*
X126505691Y-58737676D02*
G01*
X126529401Y-58741193D01*
X126552652Y-58747017D01*
X126575220Y-58755092D01*
X126596889Y-58765341D01*
X126617448Y-58777664D01*
X126636701Y-58791942D01*
X126654461Y-58808039D01*
X126670558Y-58825799D01*
X126684836Y-58845052D01*
X126697159Y-58865611D01*
X126707408Y-58887280D01*
X126715483Y-58909848D01*
X126721307Y-58933099D01*
X126724824Y-58956809D01*
X126726000Y-58980750D01*
X126726000Y-59469250D01*
X126724824Y-59493191D01*
X126721307Y-59516901D01*
X126715483Y-59540152D01*
X126707408Y-59562720D01*
X126697159Y-59584389D01*
X126684836Y-59604948D01*
X126670558Y-59624201D01*
X126654461Y-59641961D01*
X126636701Y-59658058D01*
X126617448Y-59672336D01*
X126596889Y-59684659D01*
X126575220Y-59694908D01*
X126552652Y-59702983D01*
X126529401Y-59708807D01*
X126505691Y-59712324D01*
X126481750Y-59713500D01*
X125918250Y-59713500D01*
X125894309Y-59712324D01*
X125870599Y-59708807D01*
X125847348Y-59702983D01*
X125824780Y-59694908D01*
X125803111Y-59684659D01*
X125782552Y-59672336D01*
X125763299Y-59658058D01*
X125745539Y-59641961D01*
X125729442Y-59624201D01*
X125715164Y-59604948D01*
X125702841Y-59584389D01*
X125692592Y-59562720D01*
X125684517Y-59540152D01*
X125678693Y-59516901D01*
X125675176Y-59493191D01*
X125674000Y-59469250D01*
X125674000Y-58980750D01*
X125675176Y-58956809D01*
X125678693Y-58933099D01*
X125684517Y-58909848D01*
X125692592Y-58887280D01*
X125702841Y-58865611D01*
X125715164Y-58845052D01*
X125729442Y-58825799D01*
X125745539Y-58808039D01*
X125763299Y-58791942D01*
X125782552Y-58777664D01*
X125803111Y-58765341D01*
X125824780Y-58755092D01*
X125847348Y-58747017D01*
X125870599Y-58741193D01*
X125894309Y-58737676D01*
X125918250Y-58736500D01*
X126481750Y-58736500D01*
X126505691Y-58737676D01*
G37*
G36*
X126505691Y-57162676D02*
G01*
X126529401Y-57166193D01*
X126552652Y-57172017D01*
X126575220Y-57180092D01*
X126596889Y-57190341D01*
X126617448Y-57202664D01*
X126636701Y-57216942D01*
X126654461Y-57233039D01*
X126670558Y-57250799D01*
X126684836Y-57270052D01*
X126697159Y-57290611D01*
X126707408Y-57312280D01*
X126715483Y-57334848D01*
X126721307Y-57358099D01*
X126724824Y-57381809D01*
X126726000Y-57405750D01*
X126726000Y-57894250D01*
X126724824Y-57918191D01*
X126721307Y-57941901D01*
X126715483Y-57965152D01*
X126707408Y-57987720D01*
X126697159Y-58009389D01*
X126684836Y-58029948D01*
X126670558Y-58049201D01*
X126654461Y-58066961D01*
X126636701Y-58083058D01*
X126617448Y-58097336D01*
X126596889Y-58109659D01*
X126575220Y-58119908D01*
X126552652Y-58127983D01*
X126529401Y-58133807D01*
X126505691Y-58137324D01*
X126481750Y-58138500D01*
X125918250Y-58138500D01*
X125894309Y-58137324D01*
X125870599Y-58133807D01*
X125847348Y-58127983D01*
X125824780Y-58119908D01*
X125803111Y-58109659D01*
X125782552Y-58097336D01*
X125763299Y-58083058D01*
X125745539Y-58066961D01*
X125729442Y-58049201D01*
X125715164Y-58029948D01*
X125702841Y-58009389D01*
X125692592Y-57987720D01*
X125684517Y-57965152D01*
X125678693Y-57941901D01*
X125675176Y-57918191D01*
X125674000Y-57894250D01*
X125674000Y-57405750D01*
X125675176Y-57381809D01*
X125678693Y-57358099D01*
X125684517Y-57334848D01*
X125692592Y-57312280D01*
X125702841Y-57290611D01*
X125715164Y-57270052D01*
X125729442Y-57250799D01*
X125745539Y-57233039D01*
X125763299Y-57216942D01*
X125782552Y-57202664D01*
X125803111Y-57190341D01*
X125824780Y-57180092D01*
X125847348Y-57172017D01*
X125870599Y-57166193D01*
X125894309Y-57162676D01*
X125918250Y-57161500D01*
X126481750Y-57161500D01*
X126505691Y-57162676D01*
G37*
G36*
X126181991Y-74975176D02*
G01*
X126205701Y-74978693D01*
X126228952Y-74984517D01*
X126251520Y-74992592D01*
X126273189Y-75002841D01*
X126293748Y-75015164D01*
X126313001Y-75029442D01*
X126330761Y-75045539D01*
X126346858Y-75063299D01*
X126361136Y-75082552D01*
X126373459Y-75103111D01*
X126383708Y-75124780D01*
X126391783Y-75147348D01*
X126397607Y-75170599D01*
X126401124Y-75194309D01*
X126402300Y-75218250D01*
X126402300Y-75781750D01*
X126401124Y-75805691D01*
X126397607Y-75829401D01*
X126391783Y-75852652D01*
X126383708Y-75875220D01*
X126373459Y-75896889D01*
X126361136Y-75917448D01*
X126346858Y-75936701D01*
X126330761Y-75954461D01*
X126313001Y-75970558D01*
X126293748Y-75984836D01*
X126273189Y-75997159D01*
X126251520Y-76007408D01*
X126228952Y-76015483D01*
X126205701Y-76021307D01*
X126181991Y-76024824D01*
X126158050Y-76026000D01*
X125669550Y-76026000D01*
X125645609Y-76024824D01*
X125621899Y-76021307D01*
X125598648Y-76015483D01*
X125576080Y-76007408D01*
X125554411Y-75997159D01*
X125533852Y-75984836D01*
X125514599Y-75970558D01*
X125496839Y-75954461D01*
X125480742Y-75936701D01*
X125466464Y-75917448D01*
X125454141Y-75896889D01*
X125443892Y-75875220D01*
X125435817Y-75852652D01*
X125429993Y-75829401D01*
X125426476Y-75805691D01*
X125425300Y-75781750D01*
X125425300Y-75218250D01*
X125426476Y-75194309D01*
X125429993Y-75170599D01*
X125435817Y-75147348D01*
X125443892Y-75124780D01*
X125454141Y-75103111D01*
X125466464Y-75082552D01*
X125480742Y-75063299D01*
X125496839Y-75045539D01*
X125514599Y-75029442D01*
X125533852Y-75015164D01*
X125554411Y-75002841D01*
X125576080Y-74992592D01*
X125598648Y-74984517D01*
X125621899Y-74978693D01*
X125645609Y-74975176D01*
X125669550Y-74974000D01*
X126158050Y-74974000D01*
X126181991Y-74975176D01*
G37*
G36*
X124606991Y-74975176D02*
G01*
X124630701Y-74978693D01*
X124653952Y-74984517D01*
X124676520Y-74992592D01*
X124698189Y-75002841D01*
X124718748Y-75015164D01*
X124738001Y-75029442D01*
X124755761Y-75045539D01*
X124771858Y-75063299D01*
X124786136Y-75082552D01*
X124798459Y-75103111D01*
X124808708Y-75124780D01*
X124816783Y-75147348D01*
X124822607Y-75170599D01*
X124826124Y-75194309D01*
X124827300Y-75218250D01*
X124827300Y-75781750D01*
X124826124Y-75805691D01*
X124822607Y-75829401D01*
X124816783Y-75852652D01*
X124808708Y-75875220D01*
X124798459Y-75896889D01*
X124786136Y-75917448D01*
X124771858Y-75936701D01*
X124755761Y-75954461D01*
X124738001Y-75970558D01*
X124718748Y-75984836D01*
X124698189Y-75997159D01*
X124676520Y-76007408D01*
X124653952Y-76015483D01*
X124630701Y-76021307D01*
X124606991Y-76024824D01*
X124583050Y-76026000D01*
X124094550Y-76026000D01*
X124070609Y-76024824D01*
X124046899Y-76021307D01*
X124023648Y-76015483D01*
X124001080Y-76007408D01*
X123979411Y-75997159D01*
X123958852Y-75984836D01*
X123939599Y-75970558D01*
X123921839Y-75954461D01*
X123905742Y-75936701D01*
X123891464Y-75917448D01*
X123879141Y-75896889D01*
X123868892Y-75875220D01*
X123860817Y-75852652D01*
X123854993Y-75829401D01*
X123851476Y-75805691D01*
X123850300Y-75781750D01*
X123850300Y-75218250D01*
X123851476Y-75194309D01*
X123854993Y-75170599D01*
X123860817Y-75147348D01*
X123868892Y-75124780D01*
X123879141Y-75103111D01*
X123891464Y-75082552D01*
X123905742Y-75063299D01*
X123921839Y-75045539D01*
X123939599Y-75029442D01*
X123958852Y-75015164D01*
X123979411Y-75002841D01*
X124001080Y-74992592D01*
X124023648Y-74984517D01*
X124046899Y-74978693D01*
X124070609Y-74975176D01*
X124094550Y-74974000D01*
X124583050Y-74974000D01*
X124606991Y-74975176D01*
G37*
G36*
X104805691Y-43200176D02*
G01*
X104829401Y-43203693D01*
X104852652Y-43209517D01*
X104875220Y-43217592D01*
X104896889Y-43227841D01*
X104917448Y-43240164D01*
X104936701Y-43254442D01*
X104954461Y-43270539D01*
X104970558Y-43288299D01*
X104984836Y-43307552D01*
X104997159Y-43328111D01*
X105007408Y-43349780D01*
X105015483Y-43372348D01*
X105021307Y-43395599D01*
X105024824Y-43419309D01*
X105026000Y-43443250D01*
X105026000Y-43931750D01*
X105024824Y-43955691D01*
X105021307Y-43979401D01*
X105015483Y-44002652D01*
X105007408Y-44025220D01*
X104997159Y-44046889D01*
X104984836Y-44067448D01*
X104970558Y-44086701D01*
X104954461Y-44104461D01*
X104936701Y-44120558D01*
X104917448Y-44134836D01*
X104896889Y-44147159D01*
X104875220Y-44157408D01*
X104852652Y-44165483D01*
X104829401Y-44171307D01*
X104805691Y-44174824D01*
X104781750Y-44176000D01*
X104218250Y-44176000D01*
X104194309Y-44174824D01*
X104170599Y-44171307D01*
X104147348Y-44165483D01*
X104124780Y-44157408D01*
X104103111Y-44147159D01*
X104082552Y-44134836D01*
X104063299Y-44120558D01*
X104045539Y-44104461D01*
X104029442Y-44086701D01*
X104015164Y-44067448D01*
X104002841Y-44046889D01*
X103992592Y-44025220D01*
X103984517Y-44002652D01*
X103978693Y-43979401D01*
X103975176Y-43955691D01*
X103974000Y-43931750D01*
X103974000Y-43443250D01*
X103975176Y-43419309D01*
X103978693Y-43395599D01*
X103984517Y-43372348D01*
X103992592Y-43349780D01*
X104002841Y-43328111D01*
X104015164Y-43307552D01*
X104029442Y-43288299D01*
X104045539Y-43270539D01*
X104063299Y-43254442D01*
X104082552Y-43240164D01*
X104103111Y-43227841D01*
X104124780Y-43217592D01*
X104147348Y-43209517D01*
X104170599Y-43203693D01*
X104194309Y-43200176D01*
X104218250Y-43199000D01*
X104781750Y-43199000D01*
X104805691Y-43200176D01*
G37*
G36*
X104805691Y-41625176D02*
G01*
X104829401Y-41628693D01*
X104852652Y-41634517D01*
X104875220Y-41642592D01*
X104896889Y-41652841D01*
X104917448Y-41665164D01*
X104936701Y-41679442D01*
X104954461Y-41695539D01*
X104970558Y-41713299D01*
X104984836Y-41732552D01*
X104997159Y-41753111D01*
X105007408Y-41774780D01*
X105015483Y-41797348D01*
X105021307Y-41820599D01*
X105024824Y-41844309D01*
X105026000Y-41868250D01*
X105026000Y-42356750D01*
X105024824Y-42380691D01*
X105021307Y-42404401D01*
X105015483Y-42427652D01*
X105007408Y-42450220D01*
X104997159Y-42471889D01*
X104984836Y-42492448D01*
X104970558Y-42511701D01*
X104954461Y-42529461D01*
X104936701Y-42545558D01*
X104917448Y-42559836D01*
X104896889Y-42572159D01*
X104875220Y-42582408D01*
X104852652Y-42590483D01*
X104829401Y-42596307D01*
X104805691Y-42599824D01*
X104781750Y-42601000D01*
X104218250Y-42601000D01*
X104194309Y-42599824D01*
X104170599Y-42596307D01*
X104147348Y-42590483D01*
X104124780Y-42582408D01*
X104103111Y-42572159D01*
X104082552Y-42559836D01*
X104063299Y-42545558D01*
X104045539Y-42529461D01*
X104029442Y-42511701D01*
X104015164Y-42492448D01*
X104002841Y-42471889D01*
X103992592Y-42450220D01*
X103984517Y-42427652D01*
X103978693Y-42404401D01*
X103975176Y-42380691D01*
X103974000Y-42356750D01*
X103974000Y-41868250D01*
X103975176Y-41844309D01*
X103978693Y-41820599D01*
X103984517Y-41797348D01*
X103992592Y-41774780D01*
X104002841Y-41753111D01*
X104015164Y-41732552D01*
X104029442Y-41713299D01*
X104045539Y-41695539D01*
X104063299Y-41679442D01*
X104082552Y-41665164D01*
X104103111Y-41652841D01*
X104124780Y-41642592D01*
X104147348Y-41634517D01*
X104170599Y-41628693D01*
X104194309Y-41625176D01*
X104218250Y-41624000D01*
X104781750Y-41624000D01*
X104805691Y-41625176D01*
G37*
G36*
X104805691Y-55400176D02*
G01*
X104829401Y-55403693D01*
X104852652Y-55409517D01*
X104875220Y-55417592D01*
X104896889Y-55427841D01*
X104917448Y-55440164D01*
X104936701Y-55454442D01*
X104954461Y-55470539D01*
X104970558Y-55488299D01*
X104984836Y-55507552D01*
X104997159Y-55528111D01*
X105007408Y-55549780D01*
X105015483Y-55572348D01*
X105021307Y-55595599D01*
X105024824Y-55619309D01*
X105026000Y-55643250D01*
X105026000Y-56131750D01*
X105024824Y-56155691D01*
X105021307Y-56179401D01*
X105015483Y-56202652D01*
X105007408Y-56225220D01*
X104997159Y-56246889D01*
X104984836Y-56267448D01*
X104970558Y-56286701D01*
X104954461Y-56304461D01*
X104936701Y-56320558D01*
X104917448Y-56334836D01*
X104896889Y-56347159D01*
X104875220Y-56357408D01*
X104852652Y-56365483D01*
X104829401Y-56371307D01*
X104805691Y-56374824D01*
X104781750Y-56376000D01*
X104218250Y-56376000D01*
X104194309Y-56374824D01*
X104170599Y-56371307D01*
X104147348Y-56365483D01*
X104124780Y-56357408D01*
X104103111Y-56347159D01*
X104082552Y-56334836D01*
X104063299Y-56320558D01*
X104045539Y-56304461D01*
X104029442Y-56286701D01*
X104015164Y-56267448D01*
X104002841Y-56246889D01*
X103992592Y-56225220D01*
X103984517Y-56202652D01*
X103978693Y-56179401D01*
X103975176Y-56155691D01*
X103974000Y-56131750D01*
X103974000Y-55643250D01*
X103975176Y-55619309D01*
X103978693Y-55595599D01*
X103984517Y-55572348D01*
X103992592Y-55549780D01*
X104002841Y-55528111D01*
X104015164Y-55507552D01*
X104029442Y-55488299D01*
X104045539Y-55470539D01*
X104063299Y-55454442D01*
X104082552Y-55440164D01*
X104103111Y-55427841D01*
X104124780Y-55417592D01*
X104147348Y-55409517D01*
X104170599Y-55403693D01*
X104194309Y-55400176D01*
X104218250Y-55399000D01*
X104781750Y-55399000D01*
X104805691Y-55400176D01*
G37*
G36*
X104805691Y-53825176D02*
G01*
X104829401Y-53828693D01*
X104852652Y-53834517D01*
X104875220Y-53842592D01*
X104896889Y-53852841D01*
X104917448Y-53865164D01*
X104936701Y-53879442D01*
X104954461Y-53895539D01*
X104970558Y-53913299D01*
X104984836Y-53932552D01*
X104997159Y-53953111D01*
X105007408Y-53974780D01*
X105015483Y-53997348D01*
X105021307Y-54020599D01*
X105024824Y-54044309D01*
X105026000Y-54068250D01*
X105026000Y-54556750D01*
X105024824Y-54580691D01*
X105021307Y-54604401D01*
X105015483Y-54627652D01*
X105007408Y-54650220D01*
X104997159Y-54671889D01*
X104984836Y-54692448D01*
X104970558Y-54711701D01*
X104954461Y-54729461D01*
X104936701Y-54745558D01*
X104917448Y-54759836D01*
X104896889Y-54772159D01*
X104875220Y-54782408D01*
X104852652Y-54790483D01*
X104829401Y-54796307D01*
X104805691Y-54799824D01*
X104781750Y-54801000D01*
X104218250Y-54801000D01*
X104194309Y-54799824D01*
X104170599Y-54796307D01*
X104147348Y-54790483D01*
X104124780Y-54782408D01*
X104103111Y-54772159D01*
X104082552Y-54759836D01*
X104063299Y-54745558D01*
X104045539Y-54729461D01*
X104029442Y-54711701D01*
X104015164Y-54692448D01*
X104002841Y-54671889D01*
X103992592Y-54650220D01*
X103984517Y-54627652D01*
X103978693Y-54604401D01*
X103975176Y-54580691D01*
X103974000Y-54556750D01*
X103974000Y-54068250D01*
X103975176Y-54044309D01*
X103978693Y-54020599D01*
X103984517Y-53997348D01*
X103992592Y-53974780D01*
X104002841Y-53953111D01*
X104015164Y-53932552D01*
X104029442Y-53913299D01*
X104045539Y-53895539D01*
X104063299Y-53879442D01*
X104082552Y-53865164D01*
X104103111Y-53852841D01*
X104124780Y-53842592D01*
X104147348Y-53834517D01*
X104170599Y-53828693D01*
X104194309Y-53825176D01*
X104218250Y-53824000D01*
X104781750Y-53824000D01*
X104805691Y-53825176D01*
G37*
G36*
X105005691Y-60400176D02*
G01*
X105029401Y-60403693D01*
X105052652Y-60409517D01*
X105075220Y-60417592D01*
X105096889Y-60427841D01*
X105117448Y-60440164D01*
X105136701Y-60454442D01*
X105154461Y-60470539D01*
X105170558Y-60488299D01*
X105184836Y-60507552D01*
X105197159Y-60528111D01*
X105207408Y-60549780D01*
X105215483Y-60572348D01*
X105221307Y-60595599D01*
X105224824Y-60619309D01*
X105226000Y-60643250D01*
X105226000Y-61131750D01*
X105224824Y-61155691D01*
X105221307Y-61179401D01*
X105215483Y-61202652D01*
X105207408Y-61225220D01*
X105197159Y-61246889D01*
X105184836Y-61267448D01*
X105170558Y-61286701D01*
X105154461Y-61304461D01*
X105136701Y-61320558D01*
X105117448Y-61334836D01*
X105096889Y-61347159D01*
X105075220Y-61357408D01*
X105052652Y-61365483D01*
X105029401Y-61371307D01*
X105005691Y-61374824D01*
X104981750Y-61376000D01*
X104418250Y-61376000D01*
X104394309Y-61374824D01*
X104370599Y-61371307D01*
X104347348Y-61365483D01*
X104324780Y-61357408D01*
X104303111Y-61347159D01*
X104282552Y-61334836D01*
X104263299Y-61320558D01*
X104245539Y-61304461D01*
X104229442Y-61286701D01*
X104215164Y-61267448D01*
X104202841Y-61246889D01*
X104192592Y-61225220D01*
X104184517Y-61202652D01*
X104178693Y-61179401D01*
X104175176Y-61155691D01*
X104174000Y-61131750D01*
X104174000Y-60643250D01*
X104175176Y-60619309D01*
X104178693Y-60595599D01*
X104184517Y-60572348D01*
X104192592Y-60549780D01*
X104202841Y-60528111D01*
X104215164Y-60507552D01*
X104229442Y-60488299D01*
X104245539Y-60470539D01*
X104263299Y-60454442D01*
X104282552Y-60440164D01*
X104303111Y-60427841D01*
X104324780Y-60417592D01*
X104347348Y-60409517D01*
X104370599Y-60403693D01*
X104394309Y-60400176D01*
X104418250Y-60399000D01*
X104981750Y-60399000D01*
X105005691Y-60400176D01*
G37*
G36*
X105005691Y-58825176D02*
G01*
X105029401Y-58828693D01*
X105052652Y-58834517D01*
X105075220Y-58842592D01*
X105096889Y-58852841D01*
X105117448Y-58865164D01*
X105136701Y-58879442D01*
X105154461Y-58895539D01*
X105170558Y-58913299D01*
X105184836Y-58932552D01*
X105197159Y-58953111D01*
X105207408Y-58974780D01*
X105215483Y-58997348D01*
X105221307Y-59020599D01*
X105224824Y-59044309D01*
X105226000Y-59068250D01*
X105226000Y-59556750D01*
X105224824Y-59580691D01*
X105221307Y-59604401D01*
X105215483Y-59627652D01*
X105207408Y-59650220D01*
X105197159Y-59671889D01*
X105184836Y-59692448D01*
X105170558Y-59711701D01*
X105154461Y-59729461D01*
X105136701Y-59745558D01*
X105117448Y-59759836D01*
X105096889Y-59772159D01*
X105075220Y-59782408D01*
X105052652Y-59790483D01*
X105029401Y-59796307D01*
X105005691Y-59799824D01*
X104981750Y-59801000D01*
X104418250Y-59801000D01*
X104394309Y-59799824D01*
X104370599Y-59796307D01*
X104347348Y-59790483D01*
X104324780Y-59782408D01*
X104303111Y-59772159D01*
X104282552Y-59759836D01*
X104263299Y-59745558D01*
X104245539Y-59729461D01*
X104229442Y-59711701D01*
X104215164Y-59692448D01*
X104202841Y-59671889D01*
X104192592Y-59650220D01*
X104184517Y-59627652D01*
X104178693Y-59604401D01*
X104175176Y-59580691D01*
X104174000Y-59556750D01*
X104174000Y-59068250D01*
X104175176Y-59044309D01*
X104178693Y-59020599D01*
X104184517Y-58997348D01*
X104192592Y-58974780D01*
X104202841Y-58953111D01*
X104215164Y-58932552D01*
X104229442Y-58913299D01*
X104245539Y-58895539D01*
X104263299Y-58879442D01*
X104282552Y-58865164D01*
X104303111Y-58852841D01*
X104324780Y-58842592D01*
X104347348Y-58834517D01*
X104370599Y-58828693D01*
X104394309Y-58825176D01*
X104418250Y-58824000D01*
X104981750Y-58824000D01*
X105005691Y-58825176D01*
G37*
G36*
X104905691Y-73700176D02*
G01*
X104929401Y-73703693D01*
X104952652Y-73709517D01*
X104975220Y-73717592D01*
X104996889Y-73727841D01*
X105017448Y-73740164D01*
X105036701Y-73754442D01*
X105054461Y-73770539D01*
X105070558Y-73788299D01*
X105084836Y-73807552D01*
X105097159Y-73828111D01*
X105107408Y-73849780D01*
X105115483Y-73872348D01*
X105121307Y-73895599D01*
X105124824Y-73919309D01*
X105126000Y-73943250D01*
X105126000Y-74431750D01*
X105124824Y-74455691D01*
X105121307Y-74479401D01*
X105115483Y-74502652D01*
X105107408Y-74525220D01*
X105097159Y-74546889D01*
X105084836Y-74567448D01*
X105070558Y-74586701D01*
X105054461Y-74604461D01*
X105036701Y-74620558D01*
X105017448Y-74634836D01*
X104996889Y-74647159D01*
X104975220Y-74657408D01*
X104952652Y-74665483D01*
X104929401Y-74671307D01*
X104905691Y-74674824D01*
X104881750Y-74676000D01*
X104318250Y-74676000D01*
X104294309Y-74674824D01*
X104270599Y-74671307D01*
X104247348Y-74665483D01*
X104224780Y-74657408D01*
X104203111Y-74647159D01*
X104182552Y-74634836D01*
X104163299Y-74620558D01*
X104145539Y-74604461D01*
X104129442Y-74586701D01*
X104115164Y-74567448D01*
X104102841Y-74546889D01*
X104092592Y-74525220D01*
X104084517Y-74502652D01*
X104078693Y-74479401D01*
X104075176Y-74455691D01*
X104074000Y-74431750D01*
X104074000Y-73943250D01*
X104075176Y-73919309D01*
X104078693Y-73895599D01*
X104084517Y-73872348D01*
X104092592Y-73849780D01*
X104102841Y-73828111D01*
X104115164Y-73807552D01*
X104129442Y-73788299D01*
X104145539Y-73770539D01*
X104163299Y-73754442D01*
X104182552Y-73740164D01*
X104203111Y-73727841D01*
X104224780Y-73717592D01*
X104247348Y-73709517D01*
X104270599Y-73703693D01*
X104294309Y-73700176D01*
X104318250Y-73699000D01*
X104881750Y-73699000D01*
X104905691Y-73700176D01*
G37*
G36*
X104905691Y-72125176D02*
G01*
X104929401Y-72128693D01*
X104952652Y-72134517D01*
X104975220Y-72142592D01*
X104996889Y-72152841D01*
X105017448Y-72165164D01*
X105036701Y-72179442D01*
X105054461Y-72195539D01*
X105070558Y-72213299D01*
X105084836Y-72232552D01*
X105097159Y-72253111D01*
X105107408Y-72274780D01*
X105115483Y-72297348D01*
X105121307Y-72320599D01*
X105124824Y-72344309D01*
X105126000Y-72368250D01*
X105126000Y-72856750D01*
X105124824Y-72880691D01*
X105121307Y-72904401D01*
X105115483Y-72927652D01*
X105107408Y-72950220D01*
X105097159Y-72971889D01*
X105084836Y-72992448D01*
X105070558Y-73011701D01*
X105054461Y-73029461D01*
X105036701Y-73045558D01*
X105017448Y-73059836D01*
X104996889Y-73072159D01*
X104975220Y-73082408D01*
X104952652Y-73090483D01*
X104929401Y-73096307D01*
X104905691Y-73099824D01*
X104881750Y-73101000D01*
X104318250Y-73101000D01*
X104294309Y-73099824D01*
X104270599Y-73096307D01*
X104247348Y-73090483D01*
X104224780Y-73082408D01*
X104203111Y-73072159D01*
X104182552Y-73059836D01*
X104163299Y-73045558D01*
X104145539Y-73029461D01*
X104129442Y-73011701D01*
X104115164Y-72992448D01*
X104102841Y-72971889D01*
X104092592Y-72950220D01*
X104084517Y-72927652D01*
X104078693Y-72904401D01*
X104075176Y-72880691D01*
X104074000Y-72856750D01*
X104074000Y-72368250D01*
X104075176Y-72344309D01*
X104078693Y-72320599D01*
X104084517Y-72297348D01*
X104092592Y-72274780D01*
X104102841Y-72253111D01*
X104115164Y-72232552D01*
X104129442Y-72213299D01*
X104145539Y-72195539D01*
X104163299Y-72179442D01*
X104182552Y-72165164D01*
X104203111Y-72152841D01*
X104224780Y-72142592D01*
X104247348Y-72134517D01*
X104270599Y-72128693D01*
X104294309Y-72125176D01*
X104318250Y-72124000D01*
X104881750Y-72124000D01*
X104905691Y-72125176D01*
G37*
G36*
X62805691Y-62225176D02*
G01*
X62829401Y-62228693D01*
X62852652Y-62234517D01*
X62875220Y-62242592D01*
X62896889Y-62252841D01*
X62917448Y-62265164D01*
X62936701Y-62279442D01*
X62954461Y-62295539D01*
X62970558Y-62313299D01*
X62984836Y-62332552D01*
X62997159Y-62353111D01*
X63007408Y-62374780D01*
X63015483Y-62397348D01*
X63021307Y-62420599D01*
X63024824Y-62444309D01*
X63026000Y-62468250D01*
X63026000Y-62956750D01*
X63024824Y-62980691D01*
X63021307Y-63004401D01*
X63015483Y-63027652D01*
X63007408Y-63050220D01*
X62997159Y-63071889D01*
X62984836Y-63092448D01*
X62970558Y-63111701D01*
X62954461Y-63129461D01*
X62936701Y-63145558D01*
X62917448Y-63159836D01*
X62896889Y-63172159D01*
X62875220Y-63182408D01*
X62852652Y-63190483D01*
X62829401Y-63196307D01*
X62805691Y-63199824D01*
X62781750Y-63201000D01*
X62218250Y-63201000D01*
X62194309Y-63199824D01*
X62170599Y-63196307D01*
X62147348Y-63190483D01*
X62124780Y-63182408D01*
X62103111Y-63172159D01*
X62082552Y-63159836D01*
X62063299Y-63145558D01*
X62045539Y-63129461D01*
X62029442Y-63111701D01*
X62015164Y-63092448D01*
X62002841Y-63071889D01*
X61992592Y-63050220D01*
X61984517Y-63027652D01*
X61978693Y-63004401D01*
X61975176Y-62980691D01*
X61974000Y-62956750D01*
X61974000Y-62468250D01*
X61975176Y-62444309D01*
X61978693Y-62420599D01*
X61984517Y-62397348D01*
X61992592Y-62374780D01*
X62002841Y-62353111D01*
X62015164Y-62332552D01*
X62029442Y-62313299D01*
X62045539Y-62295539D01*
X62063299Y-62279442D01*
X62082552Y-62265164D01*
X62103111Y-62252841D01*
X62124780Y-62242592D01*
X62147348Y-62234517D01*
X62170599Y-62228693D01*
X62194309Y-62225176D01*
X62218250Y-62224000D01*
X62781750Y-62224000D01*
X62805691Y-62225176D01*
G37*
G36*
X62805691Y-63800176D02*
G01*
X62829401Y-63803693D01*
X62852652Y-63809517D01*
X62875220Y-63817592D01*
X62896889Y-63827841D01*
X62917448Y-63840164D01*
X62936701Y-63854442D01*
X62954461Y-63870539D01*
X62970558Y-63888299D01*
X62984836Y-63907552D01*
X62997159Y-63928111D01*
X63007408Y-63949780D01*
X63015483Y-63972348D01*
X63021307Y-63995599D01*
X63024824Y-64019309D01*
X63026000Y-64043250D01*
X63026000Y-64531750D01*
X63024824Y-64555691D01*
X63021307Y-64579401D01*
X63015483Y-64602652D01*
X63007408Y-64625220D01*
X62997159Y-64646889D01*
X62984836Y-64667448D01*
X62970558Y-64686701D01*
X62954461Y-64704461D01*
X62936701Y-64720558D01*
X62917448Y-64734836D01*
X62896889Y-64747159D01*
X62875220Y-64757408D01*
X62852652Y-64765483D01*
X62829401Y-64771307D01*
X62805691Y-64774824D01*
X62781750Y-64776000D01*
X62218250Y-64776000D01*
X62194309Y-64774824D01*
X62170599Y-64771307D01*
X62147348Y-64765483D01*
X62124780Y-64757408D01*
X62103111Y-64747159D01*
X62082552Y-64734836D01*
X62063299Y-64720558D01*
X62045539Y-64704461D01*
X62029442Y-64686701D01*
X62015164Y-64667448D01*
X62002841Y-64646889D01*
X61992592Y-64625220D01*
X61984517Y-64602652D01*
X61978693Y-64579401D01*
X61975176Y-64555691D01*
X61974000Y-64531750D01*
X61974000Y-64043250D01*
X61975176Y-64019309D01*
X61978693Y-63995599D01*
X61984517Y-63972348D01*
X61992592Y-63949780D01*
X62002841Y-63928111D01*
X62015164Y-63907552D01*
X62029442Y-63888299D01*
X62045539Y-63870539D01*
X62063299Y-63854442D01*
X62082552Y-63840164D01*
X62103111Y-63827841D01*
X62124780Y-63817592D01*
X62147348Y-63809517D01*
X62170599Y-63803693D01*
X62194309Y-63800176D01*
X62218250Y-63799000D01*
X62781750Y-63799000D01*
X62805691Y-63800176D01*
G37*
D34*
X83710000Y-62899000D03*
X83710000Y-62249000D03*
X83710000Y-61599000D03*
X83710000Y-60949000D03*
X83710000Y-60299000D03*
X83710000Y-59649000D03*
X83710000Y-58999000D03*
X83710000Y-58349000D03*
X83710000Y-57699000D03*
X83710000Y-57049000D03*
X83710000Y-56399000D03*
X83710000Y-55749000D03*
X83710000Y-55099000D03*
X83710000Y-54449000D03*
X77834000Y-54449000D03*
X77834000Y-55099000D03*
X77834000Y-55749000D03*
X77834000Y-56399000D03*
X77834000Y-57049000D03*
X77834000Y-57699000D03*
X77834000Y-58349000D03*
X77834000Y-58999000D03*
X77834000Y-59649000D03*
X77834000Y-60299000D03*
X77834000Y-60949000D03*
X77834000Y-61599000D03*
X77834000Y-62249000D03*
X77834000Y-62899000D03*
D35*
X80772000Y-58674000D03*
D34*
X83710000Y-77377000D03*
X83710000Y-76727000D03*
X83710000Y-76077000D03*
X83710000Y-75427000D03*
X83710000Y-74777000D03*
X83710000Y-74127000D03*
X83710000Y-73477000D03*
X83710000Y-72827000D03*
X83710000Y-72177000D03*
X83710000Y-71527000D03*
X83710000Y-70877000D03*
X83710000Y-70227000D03*
X83710000Y-69577000D03*
X83710000Y-68927000D03*
X77834000Y-68927000D03*
X77834000Y-69577000D03*
X77834000Y-70227000D03*
X77834000Y-70877000D03*
X77834000Y-71527000D03*
X77834000Y-72177000D03*
X77834000Y-72827000D03*
X77834000Y-73477000D03*
X77834000Y-74127000D03*
X77834000Y-74777000D03*
X77834000Y-75427000D03*
X77834000Y-76077000D03*
X77834000Y-76727000D03*
X77834000Y-77377000D03*
D35*
X80772000Y-73152000D03*
D14*
G36*
X79070641Y-51066297D02*
G01*
X79096778Y-51070174D01*
X79122409Y-51076594D01*
X79147288Y-51085495D01*
X79171174Y-51096793D01*
X79193837Y-51110377D01*
X79215060Y-51126117D01*
X79234639Y-51143861D01*
X79252383Y-51163440D01*
X79268123Y-51184663D01*
X79281707Y-51207326D01*
X79293005Y-51231212D01*
X79301906Y-51256091D01*
X79308326Y-51281722D01*
X79312203Y-51307859D01*
X79313500Y-51334250D01*
X79313500Y-52297750D01*
X79312203Y-52324141D01*
X79308326Y-52350278D01*
X79301906Y-52375909D01*
X79293005Y-52400788D01*
X79281707Y-52424674D01*
X79268123Y-52447337D01*
X79252383Y-52468560D01*
X79234639Y-52488139D01*
X79215060Y-52505883D01*
X79193837Y-52521623D01*
X79171174Y-52535207D01*
X79147288Y-52546505D01*
X79122409Y-52555406D01*
X79096778Y-52561826D01*
X79070641Y-52565703D01*
X79044250Y-52567000D01*
X78505750Y-52567000D01*
X78479359Y-52565703D01*
X78453222Y-52561826D01*
X78427591Y-52555406D01*
X78402712Y-52546505D01*
X78378826Y-52535207D01*
X78356163Y-52521623D01*
X78334940Y-52505883D01*
X78315361Y-52488139D01*
X78297617Y-52468560D01*
X78281877Y-52447337D01*
X78268293Y-52424674D01*
X78256995Y-52400788D01*
X78248094Y-52375909D01*
X78241674Y-52350278D01*
X78237797Y-52324141D01*
X78236500Y-52297750D01*
X78236500Y-51334250D01*
X78237797Y-51307859D01*
X78241674Y-51281722D01*
X78248094Y-51256091D01*
X78256995Y-51231212D01*
X78268293Y-51207326D01*
X78281877Y-51184663D01*
X78297617Y-51163440D01*
X78315361Y-51143861D01*
X78334940Y-51126117D01*
X78356163Y-51110377D01*
X78378826Y-51096793D01*
X78402712Y-51085495D01*
X78427591Y-51076594D01*
X78453222Y-51070174D01*
X78479359Y-51066297D01*
X78505750Y-51065000D01*
X79044250Y-51065000D01*
X79070641Y-51066297D01*
G37*
G36*
X77195641Y-51066297D02*
G01*
X77221778Y-51070174D01*
X77247409Y-51076594D01*
X77272288Y-51085495D01*
X77296174Y-51096793D01*
X77318837Y-51110377D01*
X77340060Y-51126117D01*
X77359639Y-51143861D01*
X77377383Y-51163440D01*
X77393123Y-51184663D01*
X77406707Y-51207326D01*
X77418005Y-51231212D01*
X77426906Y-51256091D01*
X77433326Y-51281722D01*
X77437203Y-51307859D01*
X77438500Y-51334250D01*
X77438500Y-52297750D01*
X77437203Y-52324141D01*
X77433326Y-52350278D01*
X77426906Y-52375909D01*
X77418005Y-52400788D01*
X77406707Y-52424674D01*
X77393123Y-52447337D01*
X77377383Y-52468560D01*
X77359639Y-52488139D01*
X77340060Y-52505883D01*
X77318837Y-52521623D01*
X77296174Y-52535207D01*
X77272288Y-52546505D01*
X77247409Y-52555406D01*
X77221778Y-52561826D01*
X77195641Y-52565703D01*
X77169250Y-52567000D01*
X76630750Y-52567000D01*
X76604359Y-52565703D01*
X76578222Y-52561826D01*
X76552591Y-52555406D01*
X76527712Y-52546505D01*
X76503826Y-52535207D01*
X76481163Y-52521623D01*
X76459940Y-52505883D01*
X76440361Y-52488139D01*
X76422617Y-52468560D01*
X76406877Y-52447337D01*
X76393293Y-52424674D01*
X76381995Y-52400788D01*
X76373094Y-52375909D01*
X76366674Y-52350278D01*
X76362797Y-52324141D01*
X76361500Y-52297750D01*
X76361500Y-51334250D01*
X76362797Y-51307859D01*
X76366674Y-51281722D01*
X76373094Y-51256091D01*
X76381995Y-51231212D01*
X76393293Y-51207326D01*
X76406877Y-51184663D01*
X76422617Y-51163440D01*
X76440361Y-51143861D01*
X76459940Y-51126117D01*
X76481163Y-51110377D01*
X76503826Y-51096793D01*
X76527712Y-51085495D01*
X76552591Y-51076594D01*
X76578222Y-51070174D01*
X76604359Y-51066297D01*
X76630750Y-51065000D01*
X77169250Y-51065000D01*
X77195641Y-51066297D01*
G37*
G36*
X87508141Y-57200297D02*
G01*
X87534278Y-57204174D01*
X87559909Y-57210594D01*
X87584788Y-57219495D01*
X87608674Y-57230793D01*
X87631337Y-57244377D01*
X87652560Y-57260117D01*
X87672139Y-57277861D01*
X87689883Y-57297440D01*
X87705623Y-57318663D01*
X87719207Y-57341326D01*
X87730505Y-57365212D01*
X87739406Y-57390091D01*
X87745826Y-57415722D01*
X87749703Y-57441859D01*
X87751000Y-57468250D01*
X87751000Y-58006750D01*
X87749703Y-58033141D01*
X87745826Y-58059278D01*
X87739406Y-58084909D01*
X87730505Y-58109788D01*
X87719207Y-58133674D01*
X87705623Y-58156337D01*
X87689883Y-58177560D01*
X87672139Y-58197139D01*
X87652560Y-58214883D01*
X87631337Y-58230623D01*
X87608674Y-58244207D01*
X87584788Y-58255505D01*
X87559909Y-58264406D01*
X87534278Y-58270826D01*
X87508141Y-58274703D01*
X87481750Y-58276000D01*
X86518250Y-58276000D01*
X86491859Y-58274703D01*
X86465722Y-58270826D01*
X86440091Y-58264406D01*
X86415212Y-58255505D01*
X86391326Y-58244207D01*
X86368663Y-58230623D01*
X86347440Y-58214883D01*
X86327861Y-58197139D01*
X86310117Y-58177560D01*
X86294377Y-58156337D01*
X86280793Y-58133674D01*
X86269495Y-58109788D01*
X86260594Y-58084909D01*
X86254174Y-58059278D01*
X86250297Y-58033141D01*
X86249000Y-58006750D01*
X86249000Y-57468250D01*
X86250297Y-57441859D01*
X86254174Y-57415722D01*
X86260594Y-57390091D01*
X86269495Y-57365212D01*
X86280793Y-57341326D01*
X86294377Y-57318663D01*
X86310117Y-57297440D01*
X86327861Y-57277861D01*
X86347440Y-57260117D01*
X86368663Y-57244377D01*
X86391326Y-57230793D01*
X86415212Y-57219495D01*
X86440091Y-57210594D01*
X86465722Y-57204174D01*
X86491859Y-57200297D01*
X86518250Y-57199000D01*
X87481750Y-57199000D01*
X87508141Y-57200297D01*
G37*
G36*
X87508141Y-55325297D02*
G01*
X87534278Y-55329174D01*
X87559909Y-55335594D01*
X87584788Y-55344495D01*
X87608674Y-55355793D01*
X87631337Y-55369377D01*
X87652560Y-55385117D01*
X87672139Y-55402861D01*
X87689883Y-55422440D01*
X87705623Y-55443663D01*
X87719207Y-55466326D01*
X87730505Y-55490212D01*
X87739406Y-55515091D01*
X87745826Y-55540722D01*
X87749703Y-55566859D01*
X87751000Y-55593250D01*
X87751000Y-56131750D01*
X87749703Y-56158141D01*
X87745826Y-56184278D01*
X87739406Y-56209909D01*
X87730505Y-56234788D01*
X87719207Y-56258674D01*
X87705623Y-56281337D01*
X87689883Y-56302560D01*
X87672139Y-56322139D01*
X87652560Y-56339883D01*
X87631337Y-56355623D01*
X87608674Y-56369207D01*
X87584788Y-56380505D01*
X87559909Y-56389406D01*
X87534278Y-56395826D01*
X87508141Y-56399703D01*
X87481750Y-56401000D01*
X86518250Y-56401000D01*
X86491859Y-56399703D01*
X86465722Y-56395826D01*
X86440091Y-56389406D01*
X86415212Y-56380505D01*
X86391326Y-56369207D01*
X86368663Y-56355623D01*
X86347440Y-56339883D01*
X86327861Y-56322139D01*
X86310117Y-56302560D01*
X86294377Y-56281337D01*
X86280793Y-56258674D01*
X86269495Y-56234788D01*
X86260594Y-56209909D01*
X86254174Y-56184278D01*
X86250297Y-56158141D01*
X86249000Y-56131750D01*
X86249000Y-55593250D01*
X86250297Y-55566859D01*
X86254174Y-55540722D01*
X86260594Y-55515091D01*
X86269495Y-55490212D01*
X86280793Y-55466326D01*
X86294377Y-55443663D01*
X86310117Y-55422440D01*
X86327861Y-55402861D01*
X86347440Y-55385117D01*
X86368663Y-55369377D01*
X86391326Y-55355793D01*
X86415212Y-55344495D01*
X86440091Y-55335594D01*
X86465722Y-55329174D01*
X86491859Y-55325297D01*
X86518250Y-55324000D01*
X87481750Y-55324000D01*
X87508141Y-55325297D01*
G37*
G36*
X87508141Y-61962797D02*
G01*
X87534278Y-61966674D01*
X87559909Y-61973094D01*
X87584788Y-61981995D01*
X87608674Y-61993293D01*
X87631337Y-62006877D01*
X87652560Y-62022617D01*
X87672139Y-62040361D01*
X87689883Y-62059940D01*
X87705623Y-62081163D01*
X87719207Y-62103826D01*
X87730505Y-62127712D01*
X87739406Y-62152591D01*
X87745826Y-62178222D01*
X87749703Y-62204359D01*
X87751000Y-62230750D01*
X87751000Y-62769250D01*
X87749703Y-62795641D01*
X87745826Y-62821778D01*
X87739406Y-62847409D01*
X87730505Y-62872288D01*
X87719207Y-62896174D01*
X87705623Y-62918837D01*
X87689883Y-62940060D01*
X87672139Y-62959639D01*
X87652560Y-62977383D01*
X87631337Y-62993123D01*
X87608674Y-63006707D01*
X87584788Y-63018005D01*
X87559909Y-63026906D01*
X87534278Y-63033326D01*
X87508141Y-63037203D01*
X87481750Y-63038500D01*
X86518250Y-63038500D01*
X86491859Y-63037203D01*
X86465722Y-63033326D01*
X86440091Y-63026906D01*
X86415212Y-63018005D01*
X86391326Y-63006707D01*
X86368663Y-62993123D01*
X86347440Y-62977383D01*
X86327861Y-62959639D01*
X86310117Y-62940060D01*
X86294377Y-62918837D01*
X86280793Y-62896174D01*
X86269495Y-62872288D01*
X86260594Y-62847409D01*
X86254174Y-62821778D01*
X86250297Y-62795641D01*
X86249000Y-62769250D01*
X86249000Y-62230750D01*
X86250297Y-62204359D01*
X86254174Y-62178222D01*
X86260594Y-62152591D01*
X86269495Y-62127712D01*
X86280793Y-62103826D01*
X86294377Y-62081163D01*
X86310117Y-62059940D01*
X86327861Y-62040361D01*
X86347440Y-62022617D01*
X86368663Y-62006877D01*
X86391326Y-61993293D01*
X86415212Y-61981995D01*
X86440091Y-61973094D01*
X86465722Y-61966674D01*
X86491859Y-61962797D01*
X86518250Y-61961500D01*
X87481750Y-61961500D01*
X87508141Y-61962797D01*
G37*
G36*
X87508141Y-60087797D02*
G01*
X87534278Y-60091674D01*
X87559909Y-60098094D01*
X87584788Y-60106995D01*
X87608674Y-60118293D01*
X87631337Y-60131877D01*
X87652560Y-60147617D01*
X87672139Y-60165361D01*
X87689883Y-60184940D01*
X87705623Y-60206163D01*
X87719207Y-60228826D01*
X87730505Y-60252712D01*
X87739406Y-60277591D01*
X87745826Y-60303222D01*
X87749703Y-60329359D01*
X87751000Y-60355750D01*
X87751000Y-60894250D01*
X87749703Y-60920641D01*
X87745826Y-60946778D01*
X87739406Y-60972409D01*
X87730505Y-60997288D01*
X87719207Y-61021174D01*
X87705623Y-61043837D01*
X87689883Y-61065060D01*
X87672139Y-61084639D01*
X87652560Y-61102383D01*
X87631337Y-61118123D01*
X87608674Y-61131707D01*
X87584788Y-61143005D01*
X87559909Y-61151906D01*
X87534278Y-61158326D01*
X87508141Y-61162203D01*
X87481750Y-61163500D01*
X86518250Y-61163500D01*
X86491859Y-61162203D01*
X86465722Y-61158326D01*
X86440091Y-61151906D01*
X86415212Y-61143005D01*
X86391326Y-61131707D01*
X86368663Y-61118123D01*
X86347440Y-61102383D01*
X86327861Y-61084639D01*
X86310117Y-61065060D01*
X86294377Y-61043837D01*
X86280793Y-61021174D01*
X86269495Y-60997288D01*
X86260594Y-60972409D01*
X86254174Y-60946778D01*
X86250297Y-60920641D01*
X86249000Y-60894250D01*
X86249000Y-60355750D01*
X86250297Y-60329359D01*
X86254174Y-60303222D01*
X86260594Y-60277591D01*
X86269495Y-60252712D01*
X86280793Y-60228826D01*
X86294377Y-60206163D01*
X86310117Y-60184940D01*
X86327861Y-60165361D01*
X86347440Y-60147617D01*
X86368663Y-60131877D01*
X86391326Y-60118293D01*
X86415212Y-60106995D01*
X86440091Y-60098094D01*
X86465722Y-60091674D01*
X86491859Y-60087797D01*
X86518250Y-60086500D01*
X87481750Y-60086500D01*
X87508141Y-60087797D01*
G37*
G36*
X77158141Y-65544297D02*
G01*
X77184278Y-65548174D01*
X77209909Y-65554594D01*
X77234788Y-65563495D01*
X77258674Y-65574793D01*
X77281337Y-65588377D01*
X77302560Y-65604117D01*
X77322139Y-65621861D01*
X77339883Y-65641440D01*
X77355623Y-65662663D01*
X77369207Y-65685326D01*
X77380505Y-65709212D01*
X77389406Y-65734091D01*
X77395826Y-65759722D01*
X77399703Y-65785859D01*
X77401000Y-65812250D01*
X77401000Y-66775750D01*
X77399703Y-66802141D01*
X77395826Y-66828278D01*
X77389406Y-66853909D01*
X77380505Y-66878788D01*
X77369207Y-66902674D01*
X77355623Y-66925337D01*
X77339883Y-66946560D01*
X77322139Y-66966139D01*
X77302560Y-66983883D01*
X77281337Y-66999623D01*
X77258674Y-67013207D01*
X77234788Y-67024505D01*
X77209909Y-67033406D01*
X77184278Y-67039826D01*
X77158141Y-67043703D01*
X77131750Y-67045000D01*
X76593250Y-67045000D01*
X76566859Y-67043703D01*
X76540722Y-67039826D01*
X76515091Y-67033406D01*
X76490212Y-67024505D01*
X76466326Y-67013207D01*
X76443663Y-66999623D01*
X76422440Y-66983883D01*
X76402861Y-66966139D01*
X76385117Y-66946560D01*
X76369377Y-66925337D01*
X76355793Y-66902674D01*
X76344495Y-66878788D01*
X76335594Y-66853909D01*
X76329174Y-66828278D01*
X76325297Y-66802141D01*
X76324000Y-66775750D01*
X76324000Y-65812250D01*
X76325297Y-65785859D01*
X76329174Y-65759722D01*
X76335594Y-65734091D01*
X76344495Y-65709212D01*
X76355793Y-65685326D01*
X76369377Y-65662663D01*
X76385117Y-65641440D01*
X76402861Y-65621861D01*
X76422440Y-65604117D01*
X76443663Y-65588377D01*
X76466326Y-65574793D01*
X76490212Y-65563495D01*
X76515091Y-65554594D01*
X76540722Y-65548174D01*
X76566859Y-65544297D01*
X76593250Y-65543000D01*
X77131750Y-65543000D01*
X77158141Y-65544297D01*
G37*
G36*
X79033141Y-65544297D02*
G01*
X79059278Y-65548174D01*
X79084909Y-65554594D01*
X79109788Y-65563495D01*
X79133674Y-65574793D01*
X79156337Y-65588377D01*
X79177560Y-65604117D01*
X79197139Y-65621861D01*
X79214883Y-65641440D01*
X79230623Y-65662663D01*
X79244207Y-65685326D01*
X79255505Y-65709212D01*
X79264406Y-65734091D01*
X79270826Y-65759722D01*
X79274703Y-65785859D01*
X79276000Y-65812250D01*
X79276000Y-66775750D01*
X79274703Y-66802141D01*
X79270826Y-66828278D01*
X79264406Y-66853909D01*
X79255505Y-66878788D01*
X79244207Y-66902674D01*
X79230623Y-66925337D01*
X79214883Y-66946560D01*
X79197139Y-66966139D01*
X79177560Y-66983883D01*
X79156337Y-66999623D01*
X79133674Y-67013207D01*
X79109788Y-67024505D01*
X79084909Y-67033406D01*
X79059278Y-67039826D01*
X79033141Y-67043703D01*
X79006750Y-67045000D01*
X78468250Y-67045000D01*
X78441859Y-67043703D01*
X78415722Y-67039826D01*
X78390091Y-67033406D01*
X78365212Y-67024505D01*
X78341326Y-67013207D01*
X78318663Y-66999623D01*
X78297440Y-66983883D01*
X78277861Y-66966139D01*
X78260117Y-66946560D01*
X78244377Y-66925337D01*
X78230793Y-66902674D01*
X78219495Y-66878788D01*
X78210594Y-66853909D01*
X78204174Y-66828278D01*
X78200297Y-66802141D01*
X78199000Y-66775750D01*
X78199000Y-65812250D01*
X78200297Y-65785859D01*
X78204174Y-65759722D01*
X78210594Y-65734091D01*
X78219495Y-65709212D01*
X78230793Y-65685326D01*
X78244377Y-65662663D01*
X78260117Y-65641440D01*
X78277861Y-65621861D01*
X78297440Y-65604117D01*
X78318663Y-65588377D01*
X78341326Y-65574793D01*
X78365212Y-65563495D01*
X78390091Y-65554594D01*
X78415722Y-65548174D01*
X78441859Y-65544297D01*
X78468250Y-65543000D01*
X79006750Y-65543000D01*
X79033141Y-65544297D01*
G37*
G36*
X87508141Y-69787797D02*
G01*
X87534278Y-69791674D01*
X87559909Y-69798094D01*
X87584788Y-69806995D01*
X87608674Y-69818293D01*
X87631337Y-69831877D01*
X87652560Y-69847617D01*
X87672139Y-69865361D01*
X87689883Y-69884940D01*
X87705623Y-69906163D01*
X87719207Y-69928826D01*
X87730505Y-69952712D01*
X87739406Y-69977591D01*
X87745826Y-70003222D01*
X87749703Y-70029359D01*
X87751000Y-70055750D01*
X87751000Y-70594250D01*
X87749703Y-70620641D01*
X87745826Y-70646778D01*
X87739406Y-70672409D01*
X87730505Y-70697288D01*
X87719207Y-70721174D01*
X87705623Y-70743837D01*
X87689883Y-70765060D01*
X87672139Y-70784639D01*
X87652560Y-70802383D01*
X87631337Y-70818123D01*
X87608674Y-70831707D01*
X87584788Y-70843005D01*
X87559909Y-70851906D01*
X87534278Y-70858326D01*
X87508141Y-70862203D01*
X87481750Y-70863500D01*
X86518250Y-70863500D01*
X86491859Y-70862203D01*
X86465722Y-70858326D01*
X86440091Y-70851906D01*
X86415212Y-70843005D01*
X86391326Y-70831707D01*
X86368663Y-70818123D01*
X86347440Y-70802383D01*
X86327861Y-70784639D01*
X86310117Y-70765060D01*
X86294377Y-70743837D01*
X86280793Y-70721174D01*
X86269495Y-70697288D01*
X86260594Y-70672409D01*
X86254174Y-70646778D01*
X86250297Y-70620641D01*
X86249000Y-70594250D01*
X86249000Y-70055750D01*
X86250297Y-70029359D01*
X86254174Y-70003222D01*
X86260594Y-69977591D01*
X86269495Y-69952712D01*
X86280793Y-69928826D01*
X86294377Y-69906163D01*
X86310117Y-69884940D01*
X86327861Y-69865361D01*
X86347440Y-69847617D01*
X86368663Y-69831877D01*
X86391326Y-69818293D01*
X86415212Y-69806995D01*
X86440091Y-69798094D01*
X86465722Y-69791674D01*
X86491859Y-69787797D01*
X86518250Y-69786500D01*
X87481750Y-69786500D01*
X87508141Y-69787797D01*
G37*
G36*
X87508141Y-71662797D02*
G01*
X87534278Y-71666674D01*
X87559909Y-71673094D01*
X87584788Y-71681995D01*
X87608674Y-71693293D01*
X87631337Y-71706877D01*
X87652560Y-71722617D01*
X87672139Y-71740361D01*
X87689883Y-71759940D01*
X87705623Y-71781163D01*
X87719207Y-71803826D01*
X87730505Y-71827712D01*
X87739406Y-71852591D01*
X87745826Y-71878222D01*
X87749703Y-71904359D01*
X87751000Y-71930750D01*
X87751000Y-72469250D01*
X87749703Y-72495641D01*
X87745826Y-72521778D01*
X87739406Y-72547409D01*
X87730505Y-72572288D01*
X87719207Y-72596174D01*
X87705623Y-72618837D01*
X87689883Y-72640060D01*
X87672139Y-72659639D01*
X87652560Y-72677383D01*
X87631337Y-72693123D01*
X87608674Y-72706707D01*
X87584788Y-72718005D01*
X87559909Y-72726906D01*
X87534278Y-72733326D01*
X87508141Y-72737203D01*
X87481750Y-72738500D01*
X86518250Y-72738500D01*
X86491859Y-72737203D01*
X86465722Y-72733326D01*
X86440091Y-72726906D01*
X86415212Y-72718005D01*
X86391326Y-72706707D01*
X86368663Y-72693123D01*
X86347440Y-72677383D01*
X86327861Y-72659639D01*
X86310117Y-72640060D01*
X86294377Y-72618837D01*
X86280793Y-72596174D01*
X86269495Y-72572288D01*
X86260594Y-72547409D01*
X86254174Y-72521778D01*
X86250297Y-72495641D01*
X86249000Y-72469250D01*
X86249000Y-71930750D01*
X86250297Y-71904359D01*
X86254174Y-71878222D01*
X86260594Y-71852591D01*
X86269495Y-71827712D01*
X86280793Y-71803826D01*
X86294377Y-71781163D01*
X86310117Y-71759940D01*
X86327861Y-71740361D01*
X86347440Y-71722617D01*
X86368663Y-71706877D01*
X86391326Y-71693293D01*
X86415212Y-71681995D01*
X86440091Y-71673094D01*
X86465722Y-71666674D01*
X86491859Y-71662797D01*
X86518250Y-71661500D01*
X87481750Y-71661500D01*
X87508141Y-71662797D01*
G37*
G36*
X87508141Y-76262797D02*
G01*
X87534278Y-76266674D01*
X87559909Y-76273094D01*
X87584788Y-76281995D01*
X87608674Y-76293293D01*
X87631337Y-76306877D01*
X87652560Y-76322617D01*
X87672139Y-76340361D01*
X87689883Y-76359940D01*
X87705623Y-76381163D01*
X87719207Y-76403826D01*
X87730505Y-76427712D01*
X87739406Y-76452591D01*
X87745826Y-76478222D01*
X87749703Y-76504359D01*
X87751000Y-76530750D01*
X87751000Y-77069250D01*
X87749703Y-77095641D01*
X87745826Y-77121778D01*
X87739406Y-77147409D01*
X87730505Y-77172288D01*
X87719207Y-77196174D01*
X87705623Y-77218837D01*
X87689883Y-77240060D01*
X87672139Y-77259639D01*
X87652560Y-77277383D01*
X87631337Y-77293123D01*
X87608674Y-77306707D01*
X87584788Y-77318005D01*
X87559909Y-77326906D01*
X87534278Y-77333326D01*
X87508141Y-77337203D01*
X87481750Y-77338500D01*
X86518250Y-77338500D01*
X86491859Y-77337203D01*
X86465722Y-77333326D01*
X86440091Y-77326906D01*
X86415212Y-77318005D01*
X86391326Y-77306707D01*
X86368663Y-77293123D01*
X86347440Y-77277383D01*
X86327861Y-77259639D01*
X86310117Y-77240060D01*
X86294377Y-77218837D01*
X86280793Y-77196174D01*
X86269495Y-77172288D01*
X86260594Y-77147409D01*
X86254174Y-77121778D01*
X86250297Y-77095641D01*
X86249000Y-77069250D01*
X86249000Y-76530750D01*
X86250297Y-76504359D01*
X86254174Y-76478222D01*
X86260594Y-76452591D01*
X86269495Y-76427712D01*
X86280793Y-76403826D01*
X86294377Y-76381163D01*
X86310117Y-76359940D01*
X86327861Y-76340361D01*
X86347440Y-76322617D01*
X86368663Y-76306877D01*
X86391326Y-76293293D01*
X86415212Y-76281995D01*
X86440091Y-76273094D01*
X86465722Y-76266674D01*
X86491859Y-76262797D01*
X86518250Y-76261500D01*
X87481750Y-76261500D01*
X87508141Y-76262797D01*
G37*
G36*
X87508141Y-74387797D02*
G01*
X87534278Y-74391674D01*
X87559909Y-74398094D01*
X87584788Y-74406995D01*
X87608674Y-74418293D01*
X87631337Y-74431877D01*
X87652560Y-74447617D01*
X87672139Y-74465361D01*
X87689883Y-74484940D01*
X87705623Y-74506163D01*
X87719207Y-74528826D01*
X87730505Y-74552712D01*
X87739406Y-74577591D01*
X87745826Y-74603222D01*
X87749703Y-74629359D01*
X87751000Y-74655750D01*
X87751000Y-75194250D01*
X87749703Y-75220641D01*
X87745826Y-75246778D01*
X87739406Y-75272409D01*
X87730505Y-75297288D01*
X87719207Y-75321174D01*
X87705623Y-75343837D01*
X87689883Y-75365060D01*
X87672139Y-75384639D01*
X87652560Y-75402383D01*
X87631337Y-75418123D01*
X87608674Y-75431707D01*
X87584788Y-75443005D01*
X87559909Y-75451906D01*
X87534278Y-75458326D01*
X87508141Y-75462203D01*
X87481750Y-75463500D01*
X86518250Y-75463500D01*
X86491859Y-75462203D01*
X86465722Y-75458326D01*
X86440091Y-75451906D01*
X86415212Y-75443005D01*
X86391326Y-75431707D01*
X86368663Y-75418123D01*
X86347440Y-75402383D01*
X86327861Y-75384639D01*
X86310117Y-75365060D01*
X86294377Y-75343837D01*
X86280793Y-75321174D01*
X86269495Y-75297288D01*
X86260594Y-75272409D01*
X86254174Y-75246778D01*
X86250297Y-75220641D01*
X86249000Y-75194250D01*
X86249000Y-74655750D01*
X86250297Y-74629359D01*
X86254174Y-74603222D01*
X86260594Y-74577591D01*
X86269495Y-74552712D01*
X86280793Y-74528826D01*
X86294377Y-74506163D01*
X86310117Y-74484940D01*
X86327861Y-74465361D01*
X86347440Y-74447617D01*
X86368663Y-74431877D01*
X86391326Y-74418293D01*
X86415212Y-74406995D01*
X86440091Y-74398094D01*
X86465722Y-74391674D01*
X86491859Y-74387797D01*
X86518250Y-74386500D01*
X87481750Y-74386500D01*
X87508141Y-74387797D01*
G37*
G36*
X58308141Y-72862797D02*
G01*
X58334278Y-72866674D01*
X58359909Y-72873094D01*
X58384788Y-72881995D01*
X58408674Y-72893293D01*
X58431337Y-72906877D01*
X58452560Y-72922617D01*
X58472139Y-72940361D01*
X58489883Y-72959940D01*
X58505623Y-72981163D01*
X58519207Y-73003826D01*
X58530505Y-73027712D01*
X58539406Y-73052591D01*
X58545826Y-73078222D01*
X58549703Y-73104359D01*
X58551000Y-73130750D01*
X58551000Y-73669250D01*
X58549703Y-73695641D01*
X58545826Y-73721778D01*
X58539406Y-73747409D01*
X58530505Y-73772288D01*
X58519207Y-73796174D01*
X58505623Y-73818837D01*
X58489883Y-73840060D01*
X58472139Y-73859639D01*
X58452560Y-73877383D01*
X58431337Y-73893123D01*
X58408674Y-73906707D01*
X58384788Y-73918005D01*
X58359909Y-73926906D01*
X58334278Y-73933326D01*
X58308141Y-73937203D01*
X58281750Y-73938500D01*
X57318250Y-73938500D01*
X57291859Y-73937203D01*
X57265722Y-73933326D01*
X57240091Y-73926906D01*
X57215212Y-73918005D01*
X57191326Y-73906707D01*
X57168663Y-73893123D01*
X57147440Y-73877383D01*
X57127861Y-73859639D01*
X57110117Y-73840060D01*
X57094377Y-73818837D01*
X57080793Y-73796174D01*
X57069495Y-73772288D01*
X57060594Y-73747409D01*
X57054174Y-73721778D01*
X57050297Y-73695641D01*
X57049000Y-73669250D01*
X57049000Y-73130750D01*
X57050297Y-73104359D01*
X57054174Y-73078222D01*
X57060594Y-73052591D01*
X57069495Y-73027712D01*
X57080793Y-73003826D01*
X57094377Y-72981163D01*
X57110117Y-72959940D01*
X57127861Y-72940361D01*
X57147440Y-72922617D01*
X57168663Y-72906877D01*
X57191326Y-72893293D01*
X57215212Y-72881995D01*
X57240091Y-72873094D01*
X57265722Y-72866674D01*
X57291859Y-72862797D01*
X57318250Y-72861500D01*
X58281750Y-72861500D01*
X58308141Y-72862797D01*
G37*
G36*
X58308141Y-70987797D02*
G01*
X58334278Y-70991674D01*
X58359909Y-70998094D01*
X58384788Y-71006995D01*
X58408674Y-71018293D01*
X58431337Y-71031877D01*
X58452560Y-71047617D01*
X58472139Y-71065361D01*
X58489883Y-71084940D01*
X58505623Y-71106163D01*
X58519207Y-71128826D01*
X58530505Y-71152712D01*
X58539406Y-71177591D01*
X58545826Y-71203222D01*
X58549703Y-71229359D01*
X58551000Y-71255750D01*
X58551000Y-71794250D01*
X58549703Y-71820641D01*
X58545826Y-71846778D01*
X58539406Y-71872409D01*
X58530505Y-71897288D01*
X58519207Y-71921174D01*
X58505623Y-71943837D01*
X58489883Y-71965060D01*
X58472139Y-71984639D01*
X58452560Y-72002383D01*
X58431337Y-72018123D01*
X58408674Y-72031707D01*
X58384788Y-72043005D01*
X58359909Y-72051906D01*
X58334278Y-72058326D01*
X58308141Y-72062203D01*
X58281750Y-72063500D01*
X57318250Y-72063500D01*
X57291859Y-72062203D01*
X57265722Y-72058326D01*
X57240091Y-72051906D01*
X57215212Y-72043005D01*
X57191326Y-72031707D01*
X57168663Y-72018123D01*
X57147440Y-72002383D01*
X57127861Y-71984639D01*
X57110117Y-71965060D01*
X57094377Y-71943837D01*
X57080793Y-71921174D01*
X57069495Y-71897288D01*
X57060594Y-71872409D01*
X57054174Y-71846778D01*
X57050297Y-71820641D01*
X57049000Y-71794250D01*
X57049000Y-71255750D01*
X57050297Y-71229359D01*
X57054174Y-71203222D01*
X57060594Y-71177591D01*
X57069495Y-71152712D01*
X57080793Y-71128826D01*
X57094377Y-71106163D01*
X57110117Y-71084940D01*
X57127861Y-71065361D01*
X57147440Y-71047617D01*
X57168663Y-71031877D01*
X57191326Y-71018293D01*
X57215212Y-71006995D01*
X57240091Y-70998094D01*
X57265722Y-70991674D01*
X57291859Y-70987797D01*
X57318250Y-70986500D01*
X58281750Y-70986500D01*
X58308141Y-70987797D01*
G37*
G36*
X58308141Y-78600297D02*
G01*
X58334278Y-78604174D01*
X58359909Y-78610594D01*
X58384788Y-78619495D01*
X58408674Y-78630793D01*
X58431337Y-78644377D01*
X58452560Y-78660117D01*
X58472139Y-78677861D01*
X58489883Y-78697440D01*
X58505623Y-78718663D01*
X58519207Y-78741326D01*
X58530505Y-78765212D01*
X58539406Y-78790091D01*
X58545826Y-78815722D01*
X58549703Y-78841859D01*
X58551000Y-78868250D01*
X58551000Y-79406750D01*
X58549703Y-79433141D01*
X58545826Y-79459278D01*
X58539406Y-79484909D01*
X58530505Y-79509788D01*
X58519207Y-79533674D01*
X58505623Y-79556337D01*
X58489883Y-79577560D01*
X58472139Y-79597139D01*
X58452560Y-79614883D01*
X58431337Y-79630623D01*
X58408674Y-79644207D01*
X58384788Y-79655505D01*
X58359909Y-79664406D01*
X58334278Y-79670826D01*
X58308141Y-79674703D01*
X58281750Y-79676000D01*
X57318250Y-79676000D01*
X57291859Y-79674703D01*
X57265722Y-79670826D01*
X57240091Y-79664406D01*
X57215212Y-79655505D01*
X57191326Y-79644207D01*
X57168663Y-79630623D01*
X57147440Y-79614883D01*
X57127861Y-79597139D01*
X57110117Y-79577560D01*
X57094377Y-79556337D01*
X57080793Y-79533674D01*
X57069495Y-79509788D01*
X57060594Y-79484909D01*
X57054174Y-79459278D01*
X57050297Y-79433141D01*
X57049000Y-79406750D01*
X57049000Y-78868250D01*
X57050297Y-78841859D01*
X57054174Y-78815722D01*
X57060594Y-78790091D01*
X57069495Y-78765212D01*
X57080793Y-78741326D01*
X57094377Y-78718663D01*
X57110117Y-78697440D01*
X57127861Y-78677861D01*
X57147440Y-78660117D01*
X57168663Y-78644377D01*
X57191326Y-78630793D01*
X57215212Y-78619495D01*
X57240091Y-78610594D01*
X57265722Y-78604174D01*
X57291859Y-78600297D01*
X57318250Y-78599000D01*
X58281750Y-78599000D01*
X58308141Y-78600297D01*
G37*
G36*
X58308141Y-76725297D02*
G01*
X58334278Y-76729174D01*
X58359909Y-76735594D01*
X58384788Y-76744495D01*
X58408674Y-76755793D01*
X58431337Y-76769377D01*
X58452560Y-76785117D01*
X58472139Y-76802861D01*
X58489883Y-76822440D01*
X58505623Y-76843663D01*
X58519207Y-76866326D01*
X58530505Y-76890212D01*
X58539406Y-76915091D01*
X58545826Y-76940722D01*
X58549703Y-76966859D01*
X58551000Y-76993250D01*
X58551000Y-77531750D01*
X58549703Y-77558141D01*
X58545826Y-77584278D01*
X58539406Y-77609909D01*
X58530505Y-77634788D01*
X58519207Y-77658674D01*
X58505623Y-77681337D01*
X58489883Y-77702560D01*
X58472139Y-77722139D01*
X58452560Y-77739883D01*
X58431337Y-77755623D01*
X58408674Y-77769207D01*
X58384788Y-77780505D01*
X58359909Y-77789406D01*
X58334278Y-77795826D01*
X58308141Y-77799703D01*
X58281750Y-77801000D01*
X57318250Y-77801000D01*
X57291859Y-77799703D01*
X57265722Y-77795826D01*
X57240091Y-77789406D01*
X57215212Y-77780505D01*
X57191326Y-77769207D01*
X57168663Y-77755623D01*
X57147440Y-77739883D01*
X57127861Y-77722139D01*
X57110117Y-77702560D01*
X57094377Y-77681337D01*
X57080793Y-77658674D01*
X57069495Y-77634788D01*
X57060594Y-77609909D01*
X57054174Y-77584278D01*
X57050297Y-77558141D01*
X57049000Y-77531750D01*
X57049000Y-76993250D01*
X57050297Y-76966859D01*
X57054174Y-76940722D01*
X57060594Y-76915091D01*
X57069495Y-76890212D01*
X57080793Y-76866326D01*
X57094377Y-76843663D01*
X57110117Y-76822440D01*
X57127861Y-76802861D01*
X57147440Y-76785117D01*
X57168663Y-76769377D01*
X57191326Y-76755793D01*
X57215212Y-76744495D01*
X57240091Y-76735594D01*
X57265722Y-76729174D01*
X57291859Y-76725297D01*
X57318250Y-76724000D01*
X58281750Y-76724000D01*
X58308141Y-76725297D01*
G37*
D16*
G36*
X131873000Y-82873000D02*
G01*
X106127000Y-82873000D01*
X106127000Y-79127000D01*
X128000000Y-79127000D01*
X128024776Y-79124560D01*
X128048601Y-79117333D01*
X128070557Y-79105597D01*
X128089803Y-79089803D01*
X128105597Y-79070557D01*
X128117333Y-79048601D01*
X128124560Y-79024776D01*
X128127000Y-79000000D01*
X128127000Y-45127000D01*
X131873000Y-45127000D01*
X131873000Y-82873000D01*
G37*
X131873000Y-82873000D02*
X106127000Y-82873000D01*
X106127000Y-79127000D01*
X128000000Y-79127000D01*
X128024776Y-79124560D01*
X128048601Y-79117333D01*
X128070557Y-79105597D01*
X128089803Y-79089803D01*
X128105597Y-79070557D01*
X128117333Y-79048601D01*
X128124560Y-79024776D01*
X128127000Y-79000000D01*
X128127000Y-45127000D01*
X131873000Y-45127000D01*
X131873000Y-82873000D01*
G36*
X120073000Y-68973000D02*
G01*
X106127000Y-68973000D01*
X106127000Y-66727000D01*
X120073000Y-66727000D01*
X120073000Y-68973000D01*
G37*
X120073000Y-68973000D02*
X106127000Y-68973000D01*
X106127000Y-66727000D01*
X120073000Y-66727000D01*
X120073000Y-68973000D01*
G36*
X120073000Y-65573000D02*
G01*
X106127000Y-65573000D01*
X106127000Y-63327000D01*
X120073000Y-63327000D01*
X120073000Y-65573000D01*
G37*
X120073000Y-65573000D02*
X106127000Y-65573000D01*
X106127000Y-63327000D01*
X120073000Y-63327000D01*
X120073000Y-65573000D01*
G36*
X119973000Y-51873000D02*
G01*
X106027000Y-51873000D01*
X106027000Y-49327000D01*
X119973000Y-49327000D01*
X119973000Y-51873000D01*
G37*
X119973000Y-51873000D02*
X106027000Y-51873000D01*
X106027000Y-49327000D01*
X119973000Y-49327000D01*
X119973000Y-51873000D01*
G36*
X119973000Y-48173000D02*
G01*
X106027000Y-48173000D01*
X106027000Y-45127000D01*
X119973000Y-45127000D01*
X119973000Y-48173000D01*
G37*
X119973000Y-48173000D02*
X106027000Y-48173000D01*
X106027000Y-45127000D01*
X119973000Y-45127000D01*
X119973000Y-48173000D01*
M02*
