M48
; DRILL file {KiCad (5.1.5)-3} date 2020/01/11 2:44:02
; FORMAT={-:-/ absolute / metric / decimal}
; #@! TF.CreationDate,2020-01-11T02:44:02+09:00
; #@! TF.GenerationSoftware,Kicad,Pcbnew,(5.1.5)-3
; #@! TF.FileFunction,Plated,1,2,PTH
FMAT,2
METRIC
T1C0.300
T2C0.400
T3C0.800
T4C0.850
T5C1.000
T6C3.400
%
G90
G05
T1
X50.97Y-83.53
X51.0Y-48.0
X51.0Y-54.0
X51.0Y-61.8
X51.0Y-69.0
X51.0Y-72.5
X51.1Y-43.4
X52.3Y-80.7
X53.0Y-83.5
X54.0Y-41.0
X54.9Y-67.5
X55.2Y-47.2
X55.25Y-56.0
X57.0Y-80.8
X57.1Y-69.2
X59.5Y-81.8
X60.0Y-70.5
X60.85Y-61.3
X61.0Y-46.2
X61.1Y-64.8
X61.2Y-56.1
X61.75Y-79.2
X63.6Y-52.0
X64.0Y-59.5
X65.2Y-71.2
X65.6Y-51.6
X66.0Y-55.1
X66.0Y-81.0
X66.0Y-83.0
X66.3Y-68.55
X66.4Y-64.45
X66.5Y-78.5
X68.0Y-41.3
X68.0Y-48.4
X70.0Y-79.0
X70.0Y-83.0
X70.25Y-58.75
X70.5Y-55.5
X70.75Y-68.0
X71.0Y-51.0
X74.0Y-48.2
X74.0Y-81.0
X74.0Y-83.0
X74.825Y-76.057
X74.825Y-76.858
X75.4Y-50.2
X75.55Y-64.35
X75.95Y-61.045
X76.0Y-83.0
X76.1Y-61.85
X77.0Y-82.0
X78.0Y-80.0
X78.0Y-83.0
X79.0Y-82.0
X79.5Y-69.5
X79.5Y-75.0
X79.6Y-73.75
X79.8Y-57.6
X79.8Y-58.8
X79.8Y-60.0
X79.9Y-50.55
X80.0Y-81.0
X80.0Y-83.0
X80.5Y-41.1
X80.5Y-71.5
X80.5Y-73.0
X80.5Y-74.5
X80.75Y-50.55
X80.8Y-57.0
X80.8Y-58.2
X80.8Y-59.4
X80.8Y-60.6
X81.0Y-82.0
X81.4Y-48.2
X81.4Y-53.5
X81.5Y-71.0
X81.5Y-72.25
X81.5Y-73.75
X81.5Y-75.0
X81.7Y-77.5
X81.75Y-50.55
X81.8Y-57.6
X81.8Y-58.8
X81.8Y-60.0
X82.0Y-81.0
X82.0Y-83.0
X83.0Y-80.0
X83.0Y-82.0
X84.0Y-79.0
X84.0Y-81.0
X84.0Y-83.0
X84.975Y-58.629
X85.0Y-64.0
X85.0Y-78.0
X85.0Y-80.0
X85.0Y-82.0
X85.4Y-50.9
X85.4Y-51.8
X86.0Y-51.3
X86.0Y-52.2
X86.0Y-65.1
X86.0Y-79.0
X86.0Y-81.0
X86.0Y-83.0
X87.0Y-80.0
X87.0Y-82.0
X87.2Y-48.0
X87.2Y-59.15
X87.6Y-41.2
X88.0Y-79.0
X88.0Y-81.0
X88.0Y-83.0
X89.0Y-72.0
X89.0Y-80.0
X89.0Y-82.0
X90.0Y-52.0
X90.0Y-54.0
X90.0Y-71.0
X90.0Y-73.0
X90.0Y-79.0
X90.0Y-81.0
X90.0Y-83.0
X91.0Y-45.0
X91.0Y-47.0
X91.0Y-49.0
X91.0Y-51.0
X91.0Y-53.0
X91.0Y-55.0
X91.0Y-60.0
X91.0Y-62.0
X91.0Y-64.0
X91.0Y-66.0
X91.0Y-68.0
X91.0Y-70.0
X91.0Y-72.0
X91.0Y-78.0
X91.0Y-80.0
X91.0Y-82.0
X92.0Y-44.0
X92.0Y-46.0
X92.0Y-48.0
X92.0Y-50.0
X92.0Y-52.0
X92.0Y-54.0
X92.0Y-61.0
X92.0Y-63.0
X92.0Y-65.0
X92.0Y-67.0
X92.0Y-69.0
X92.0Y-71.0
X92.0Y-73.0
X92.0Y-77.0
X92.0Y-79.0
X92.0Y-81.0
X92.0Y-83.0
X93.0Y-78.0
X93.0Y-80.0
X93.0Y-82.0
X94.0Y-77.0
X94.0Y-79.0
X94.0Y-81.0
X94.0Y-83.0
X95.0Y-78.0
X95.0Y-80.0
X95.0Y-82.0
X96.0Y-77.0
X96.0Y-79.0
X96.0Y-81.0
X96.0Y-83.0
X97.0Y-78.0
X97.0Y-80.0
X97.0Y-82.0
X98.0Y-77.0
X98.0Y-79.0
X98.0Y-81.0
X98.0Y-83.0
X99.0Y-78.0
X99.0Y-80.0
X99.0Y-82.0
X99.65Y-47.1
X99.65Y-47.95
X99.65Y-49.75
X99.65Y-50.6
X99.75Y-64.4
X99.75Y-65.35
X99.75Y-66.9
X99.75Y-67.85
X100.0Y-77.0
X100.0Y-79.0
X100.0Y-81.0
X100.0Y-83.0
X100.55Y-47.1
X100.55Y-47.95
X100.55Y-49.75
X100.55Y-50.6
X100.65Y-64.4
X100.65Y-65.35
X100.65Y-66.9
X100.65Y-67.85
X101.0Y-82.0
X101.45Y-47.1
X101.45Y-47.95
X101.45Y-49.75
X101.45Y-50.6
X101.55Y-64.4
X101.55Y-65.35
X101.55Y-66.9
X101.55Y-67.85
X102.0Y-77.0
X102.0Y-81.0
X102.0Y-83.0
X102.35Y-47.1
X102.35Y-47.95
X102.35Y-49.75
X102.35Y-50.6
X102.45Y-64.4
X102.45Y-65.35
X102.45Y-66.9
X102.45Y-67.85
X103.0Y-82.0
X103.25Y-47.1
X103.25Y-47.95
X103.25Y-49.75
X103.25Y-50.6
X103.35Y-64.4
X103.35Y-65.35
X103.35Y-66.9
X103.35Y-67.85
X104.0Y-77.0
X104.0Y-79.0
X104.0Y-81.0
X104.0Y-83.0
X106.0Y-77.0
X106.0Y-81.0
X106.0Y-83.0
X108.0Y-77.0
X108.0Y-81.0
X108.0Y-83.0
X110.0Y-77.0
X110.0Y-79.0
X110.0Y-81.0
X110.0Y-83.0
X112.0Y-77.0
X112.0Y-79.0
X112.0Y-81.0
X112.0Y-83.0
X114.0Y-77.0
X114.0Y-79.0
X114.0Y-81.0
X114.0Y-83.0
X116.0Y-77.0
X116.0Y-79.0
X116.0Y-81.0
X116.0Y-83.0
X118.0Y-77.0
X118.0Y-79.0
X118.0Y-81.0
X118.0Y-83.0
X120.0Y-77.0
X120.0Y-79.0
X120.0Y-81.0
X120.0Y-83.0
X121.6Y-49.5
X121.6Y-50.45
X121.64Y-47.0
X121.64Y-47.95
X121.65Y-64.5
X121.65Y-65.45
X121.65Y-67.0
X121.65Y-67.95
X122.0Y-77.0
X122.0Y-79.0
X122.0Y-81.0
X122.0Y-83.0
X122.5Y-49.5
X122.5Y-50.45
X122.54Y-47.0
X122.54Y-47.95
X122.55Y-64.5
X122.55Y-65.45
X122.55Y-67.0
X122.55Y-67.95
X123.4Y-49.5
X123.4Y-50.45
X123.44Y-47.0
X123.44Y-47.95
X123.45Y-64.5
X123.45Y-65.45
X123.45Y-67.0
X123.45Y-67.95
X124.0Y-77.0
X124.0Y-79.0
X124.0Y-81.0
X124.0Y-83.0
X124.3Y-49.5
X124.3Y-50.45
X124.34Y-47.0
X124.34Y-47.95
X124.35Y-64.5
X124.35Y-65.45
X124.35Y-67.0
X124.35Y-67.95
X125.2Y-49.5
X125.2Y-50.45
X125.24Y-47.0
X125.24Y-47.95
X125.25Y-64.5
X125.25Y-65.45
X125.25Y-67.0
X125.25Y-67.95
X126.0Y-77.0
X126.0Y-79.0
X126.0Y-81.0
X126.0Y-83.0
X128.0Y-57.0
X128.0Y-73.0
X128.0Y-77.0
X128.0Y-79.0
X128.0Y-81.0
X128.0Y-83.0
X130.0Y-59.0
X130.0Y-75.0
X130.0Y-77.0
X130.0Y-79.0
X130.0Y-81.0
X130.0Y-83.0
X132.0Y-41.0
X132.0Y-45.0
X132.0Y-49.0
X132.0Y-53.0
X132.0Y-57.0
X132.0Y-61.0
X132.0Y-65.0
X132.0Y-69.0
X132.0Y-73.0
X132.0Y-77.0
X132.0Y-79.0
X132.0Y-81.0
X132.0Y-83.0
X134.0Y-43.0
X134.0Y-47.0
X134.0Y-51.0
X134.0Y-55.0
X134.0Y-59.0
X134.0Y-63.0
X134.0Y-67.0
X134.0Y-71.0
X134.0Y-75.0
X134.0Y-77.0
X134.0Y-79.0
X134.0Y-81.0
X134.0Y-83.0
T2
X53.2Y-73.1
X53.3Y-77.9
X57.8Y-62.6
X57.8Y-63.95
X57.8Y-65.2
X58.2Y-57.8
X58.7Y-60.63
X58.998Y-56.914
X59.3Y-72.4
X59.723Y-57.752
X60.287Y-66.087
X60.651Y-57.38
X61.26Y-54.76
X61.326Y-52.833
X61.639Y-53.783
X62.005Y-57.271
X62.76Y-54.76
X62.85Y-61.15
X62.9Y-65.95
X63.189Y-69.003
X63.6Y-48.6
X63.6Y-48.6
X63.75Y-57.5
X63.971Y-68.254
X64.6Y-67.1
X65.0Y-69.9
X65.97Y-62.082
X66.28Y-69.874
X66.775Y-59.539
X67.002Y-52.602
X67.003Y-51.576
X68.1Y-65.3
X68.95Y-52.9
X69.3Y-68.0
X71.5Y-64.3
X71.6Y-80.9
X74.742Y-60.296
X74.8Y-61.7
X74.972Y-59.323
X74.987Y-73.113
X75.0Y-58.302
X75.0Y-74.113
X75.022Y-75.179
X75.025Y-72.1
X75.202Y-70.261
X75.46Y-56.835
X78.325Y-64.304
X85.1Y-62.5
X85.2Y-73.0
X87.0Y-54.6
T3
X52.58Y-43.48
X52.58Y-51.1
X55.12Y-43.48
X55.12Y-51.1
X57.66Y-43.48
X57.66Y-51.1
X60.2Y-43.48
X60.2Y-51.1
T4
X76.251Y-45.2
X78.791Y-45.2
X81.331Y-45.2
X83.871Y-45.2
X86.411Y-45.2
T5
X93.0Y-43.0
X93.0Y-45.0
X93.0Y-47.0
X93.0Y-49.0
X93.0Y-51.0
X93.0Y-53.0
X93.0Y-55.0
X93.0Y-60.0
X93.0Y-62.0
X93.0Y-64.0
X93.0Y-66.0
X93.0Y-68.0
X93.0Y-70.0
X93.0Y-72.0
X95.0Y-43.0
X95.0Y-45.0
X95.0Y-47.0
X95.0Y-49.0
X95.0Y-51.0
X95.0Y-53.0
X95.0Y-55.0
X95.0Y-60.0
X95.0Y-62.0
X95.0Y-64.0
X95.0Y-66.0
X95.0Y-68.0
X95.0Y-70.0
X95.0Y-72.0
X97.0Y-43.0
X97.0Y-45.0
X97.0Y-47.0
X97.0Y-49.0
X97.0Y-51.0
X97.0Y-53.0
X97.0Y-55.0
X97.0Y-60.0
X97.0Y-62.0
X97.0Y-64.0
X97.0Y-66.0
X97.0Y-68.0
X97.0Y-70.0
X97.0Y-72.0
X99.0Y-43.0
X99.0Y-45.0
X99.0Y-53.0
X99.0Y-55.0
X99.0Y-60.0
X99.0Y-62.0
X99.0Y-70.0
X99.0Y-72.0
X101.0Y-43.0
X101.0Y-45.0
X101.0Y-53.0
X101.0Y-55.0
X101.0Y-60.0
X101.0Y-62.0
X101.0Y-70.0
X101.0Y-72.0
X103.0Y-43.0
X103.0Y-45.0
X103.0Y-53.0
X103.0Y-55.0
X103.0Y-60.0
X103.0Y-62.0
X103.0Y-70.0
X103.0Y-72.0
X107.0Y-45.5
X107.0Y-47.5
X107.0Y-50.0
X107.0Y-52.0
X107.0Y-63.0
X107.0Y-65.0
X107.0Y-67.5
X107.0Y-69.5
X108.0Y-44.0
X108.0Y-53.5
X108.0Y-61.5
X108.0Y-71.0
X109.0Y-45.5
X109.0Y-47.5
X109.0Y-50.0
X109.0Y-52.0
X109.0Y-63.0
X109.0Y-65.0
X109.0Y-67.5
X109.0Y-69.5
X111.0Y-47.5
X111.0Y-50.0
X111.0Y-65.0
X111.0Y-67.5
X117.5Y-43.5
X117.5Y-47.5
X117.5Y-50.0
X117.5Y-59.0
X117.5Y-61.0
X117.5Y-65.0
X117.5Y-67.5
X117.5Y-73.5
X118.0Y-54.0
X118.0Y-71.5
X118.5Y-45.5
X118.5Y-52.0
X118.5Y-63.0
X118.5Y-69.5
X119.5Y-47.5
X119.5Y-50.0
X119.5Y-65.0
X119.5Y-67.5
X120.5Y-45.0
X120.5Y-53.0
X120.5Y-62.0
X120.5Y-70.0
X122.5Y-43.0
X122.5Y-45.0
X122.5Y-53.0
X122.5Y-55.0
X122.5Y-60.0
X122.5Y-62.0
X122.5Y-70.0
X122.5Y-72.0
X123.5Y-73.5
X124.5Y-43.0
X124.5Y-45.0
X124.5Y-53.0
X124.5Y-55.0
X124.5Y-60.0
X124.5Y-62.0
X124.5Y-70.0
X124.5Y-72.0
X127.5Y-43.0
X127.5Y-45.0
X127.5Y-53.0
X127.5Y-55.0
X127.5Y-60.0
X127.5Y-62.0
X127.5Y-70.0
X127.5Y-72.0
X129.5Y-43.0
X129.5Y-45.0
X129.5Y-47.0
X129.5Y-49.0
X129.5Y-51.0
X129.5Y-53.0
X129.5Y-55.0
X129.5Y-60.0
X129.5Y-62.0
X129.5Y-64.0
X129.5Y-66.0
X129.5Y-68.0
X129.5Y-70.0
X129.5Y-72.0
X67.589Y-45.2
X70.129Y-45.2
X72.669Y-45.2
X102.0Y-79.0
X107.08Y-79.0
T6
X114.0Y-45.2
X114.0Y-52.4
X114.0Y-62.7
X114.0Y-69.9
T5
G00X108.6Y-42.05
M15
G01X107.4Y-42.05
M16
G05
G00X108.6Y-55.55
M15
G01X107.4Y-55.55
M16
G05
G00X120.6Y-42.05
M15
G01X119.4Y-42.05
M16
G05
G00X120.6Y-55.55
M15
G01X119.4Y-55.55
M16
G05
G00X108.6Y-59.55
M15
G01X107.4Y-59.55
M16
G05
G00X108.6Y-73.05
M15
G01X107.4Y-73.05
M16
G05
G00X120.6Y-59.55
M15
G01X119.4Y-59.55
M16
G05
G00X120.6Y-73.05
M15
G01X119.4Y-73.05
M16
G05
T0
M30
