%TF.GenerationSoftware,KiCad,Pcbnew,(5.1.6)-1*%
%TF.CreationDate,2020-06-21T16:42:46+09:00*%
%TF.ProjectId,CAN_Dual_H-Bridge_MD,43414e5f-4475-4616-9c5f-482d42726964,rev?*%
%TF.SameCoordinates,Original*%
%TF.FileFunction,Profile,NP*%
%FSLAX46Y46*%
G04 Gerber Fmt 4.6, Leading zero omitted, Abs format (unit mm)*
G04 Created by KiCad (PCBNEW (5.1.6)-1) date 2020-06-21 16:42:46*
%MOMM*%
%LPD*%
G01*
G04 APERTURE LIST*
%TA.AperFunction,Profile*%
%ADD10C,0.100000*%
%TD*%
G04 APERTURE END LIST*
D10*
X184680000Y-91500000D02*
G75*
G02*
X181180000Y-95000000I-3500000J0D01*
G01*
X100380000Y-91500000D02*
X100380000Y-53750000D01*
X184680000Y-91500000D02*
X184680000Y-53750000D01*
X103880000Y-95000000D02*
G75*
G02*
X100380000Y-91500000I0J3500000D01*
G01*
X100320000Y-98500000D02*
G75*
G02*
X103820000Y-95000000I3500000J0D01*
G01*
X181120000Y-95000000D02*
G75*
G02*
X184620000Y-98500000I0J-3500000D01*
G01*
X100320000Y-98500000D02*
X100320000Y-136250000D01*
X184620000Y-98500000D02*
X184620000Y-136250000D01*
%TO.C,J3*%
X100380000Y-45850000D02*
X100880000Y-45350000D01*
X171580000Y-45850000D02*
X171080000Y-45350000D01*
X173480000Y-45850000D02*
X173980000Y-45350000D01*
X184680000Y-45850000D02*
X184180000Y-45350000D01*
X171080000Y-45350000D02*
X100880000Y-45350000D01*
X100380000Y-53750000D02*
X100380000Y-45850000D01*
X184180000Y-45350000D02*
X173980000Y-45350000D01*
X184680000Y-53750000D02*
X184680000Y-45850000D01*
X171580000Y-52800000D02*
X171580000Y-45850000D01*
X173480000Y-52800000D02*
X173480000Y-45850000D01*
X173480000Y-52800000D02*
G75*
G02*
X171580000Y-52800000I-950000J0D01*
G01*
X111520000Y-137200000D02*
X111520000Y-144150000D01*
X113420000Y-137200000D02*
X113420000Y-144150000D01*
X100320000Y-136250000D02*
X100320000Y-144150000D01*
X100820000Y-144650000D02*
X111020000Y-144650000D01*
X184620000Y-136250000D02*
X184620000Y-144150000D01*
X113920000Y-144650000D02*
X184120000Y-144650000D01*
X100320000Y-144150000D02*
X100820000Y-144650000D01*
X111520000Y-144150000D02*
X111020000Y-144650000D01*
X113420000Y-144150000D02*
X113920000Y-144650000D01*
X184620000Y-144150000D02*
X184120000Y-144650000D01*
X111520000Y-137200000D02*
G75*
G02*
X113420000Y-137200000I950000J0D01*
G01*
%TD*%
M02*
