M48
METRIC,TZ
T1C0.300
T2C0.400
T3C0.800
T4C0.850
T5C1.000
T6C3.400
%
G90
G05
T1
X100970Y-138530
X101200Y-109000
X101200Y-116800
X101200Y-124800
X101200Y-128300
X101300Y-100200
X101300Y-103600
X101800Y-136200
X102000Y-62000
X102000Y-64000
X102000Y-66000
X102000Y-68000
X102000Y-70000
X102000Y-72000
X102000Y-74000
X102000Y-76000
X102000Y-78000
X102000Y-80000
X102000Y-82000
X102000Y-84000
X102000Y-86000
X102000Y-88000
X102000Y-90000
X102000Y-92000
X103000Y-52000
X103000Y-54000
X103000Y-56000
X103000Y-58000
X103000Y-60000
X103000Y-96000
X103000Y-138200
X103200Y-107500
X104000Y-62000
X104000Y-64000
X104000Y-66000
X104000Y-68000
X104000Y-70000
X104000Y-72000
X104000Y-74000
X104000Y-76000
X104000Y-78000
X104000Y-80000
X104000Y-82000
X104000Y-84000
X104000Y-86000
X104000Y-88000
X104000Y-90000
X104000Y-92000
X104000Y-94000
X104600Y-120700
X104600Y-133300
X104900Y-122900
X105000Y-52000
X105000Y-54000
X105000Y-56000
X105000Y-58000
X105000Y-60000
X105000Y-127100
X105250Y-111000
X105300Y-107500
X106550Y-63250
X106550Y-64250
X106550Y-65250
X106550Y-66250
X106550Y-67250
X106550Y-68250
X106550Y-69250
X106550Y-70250
X106550Y-71250
X106550Y-72250
X106550Y-73250
X106550Y-74250
X106550Y-80650
X106550Y-81650
X106550Y-82650
X106550Y-83650
X106550Y-84650
X106550Y-85650
X106550Y-86650
X106550Y-87650
X106550Y-88650
X106550Y-89650
X106550Y-90650
X106550Y-91650
X106600Y-135700
X107000Y-52000
X107000Y-54000
X107000Y-56000
X107000Y-58000
X107000Y-60000
X107100Y-137900
X107400Y-128400
X107550Y-63250
X107550Y-64250
X107550Y-65250
X107550Y-66250
X107550Y-67250
X107550Y-68250
X107550Y-69250
X107550Y-70250
X107550Y-71250
X107550Y-72250
X107550Y-73250
X107550Y-74250
X107550Y-80650
X107550Y-81650
X107550Y-82650
X107550Y-83650
X107550Y-84650
X107550Y-85650
X107550Y-86650
X107550Y-87650
X107550Y-88650
X107550Y-89650
X107550Y-90650
X107550Y-91650
X107900Y-116000
X108000Y-101900
X108000Y-107900
X108550Y-63250
X108550Y-64250
X108550Y-65250
X108550Y-66250
X108550Y-67250
X108550Y-68250
X108550Y-69250
X108550Y-70250
X108550Y-71250
X108550Y-72250
X108550Y-73250
X108550Y-74250
X108550Y-80650
X108550Y-81650
X108550Y-82650
X108550Y-83650
X108550Y-84650
X108550Y-85650
X108550Y-86650
X108550Y-87650
X108550Y-88650
X108550Y-89650
X108550Y-90650
X108550Y-91650
X108600Y-124000
X108600Y-133200
X109000Y-52000
X109000Y-54000
X109000Y-56000
X109000Y-58000
X109400Y-94100
X109550Y-63250
X109550Y-64250
X109550Y-65250
X109550Y-72250
X109550Y-73250
X109550Y-74250
X109550Y-80650
X109550Y-81650
X109550Y-82650
X109550Y-89650
X109550Y-90650
X109550Y-91650
X109800Y-125200
X109900Y-77500
X110300Y-137900
X110500Y-117500
X111000Y-52000
X111000Y-54000
X111000Y-56000
X111000Y-58000
X111200Y-119700
X111400Y-80700
X111400Y-81700
X111400Y-82700
X111400Y-84450
X111400Y-85450
X111400Y-86950
X111400Y-87950
X111400Y-89700
X111400Y-90700
X111400Y-91700
X111500Y-63300
X111500Y-64300
X111500Y-65300
X111500Y-67050
X111500Y-68050
X111500Y-69550
X111500Y-70550
X111500Y-72300
X111500Y-73300
X111500Y-74300
X111600Y-120900
X111700Y-110900
X112400Y-80700
X112400Y-81700
X112400Y-82700
X112400Y-89700
X112400Y-90700
X112400Y-91700
X112442Y-112442
X112500Y-63300
X112500Y-64300
X112500Y-65300
X112500Y-72300
X112500Y-73300
X112500Y-74300
X112500Y-84450
X112500Y-85450
X112500Y-86950
X112500Y-87950
X112500Y-99700
X112500Y-104300
X112600Y-67050
X112600Y-68050
X112600Y-69550
X112600Y-70550
X113000Y-52000
X113000Y-54000
X113000Y-56000
X113000Y-58000
X113400Y-80700
X113400Y-81700
X113400Y-82700
X113400Y-89700
X113400Y-90700
X113400Y-91700
X113500Y-63300
X113500Y-64300
X113500Y-65300
X113500Y-72300
X113500Y-73300
X113500Y-74300
X113600Y-84450
X113600Y-85450
X113600Y-86950
X113600Y-87950
X113600Y-98000
X113700Y-67050
X113700Y-68050
X113700Y-69550
X113700Y-70550
X114000Y-110700
X114400Y-80700
X114400Y-81700
X114400Y-82700
X114400Y-89700
X114400Y-90700
X114400Y-91700
X114400Y-114300
X114400Y-130800
X114500Y-63300
X114500Y-64300
X114500Y-65300
X114500Y-72300
X114500Y-73300
X114500Y-74300
X114500Y-122800
X114500Y-138200
X114700Y-84450
X114700Y-85450
X114700Y-86950
X114700Y-87950
X114800Y-67050
X114800Y-68050
X114800Y-69550
X114800Y-70550
X114800Y-134100
X115000Y-52000
X115000Y-54000
X115000Y-56000
X115000Y-58000
X115000Y-95900
X115100Y-112700
X115400Y-80700
X115400Y-81700
X115400Y-82700
X115400Y-89700
X115400Y-90700
X115400Y-91700
X115500Y-63300
X115500Y-64300
X115500Y-65300
X115500Y-72300
X115500Y-73300
X115500Y-74300
X115900Y-101900
X115900Y-106200
X116000Y-110100
X116000Y-136000
X116000Y-138000
X116400Y-80700
X116400Y-81700
X116400Y-82700
X116400Y-83700
X116400Y-84700
X116400Y-85700
X116400Y-86700
X116400Y-87700
X116400Y-88700
X116400Y-89700
X116400Y-90700
X116400Y-91700
X116500Y-63300
X116500Y-64300
X116500Y-65300
X116500Y-66300
X116500Y-67300
X116500Y-68300
X116500Y-69400
X116500Y-70300
X116500Y-71300
X116500Y-72300
X116500Y-73300
X116500Y-74300
X116700Y-133000
X117000Y-52000
X117000Y-54000
X117000Y-56000
X117000Y-58000
X117400Y-80700
X117400Y-81700
X117400Y-82700
X117400Y-83700
X117400Y-84700
X117400Y-85700
X117400Y-86700
X117400Y-87700
X117400Y-88700
X117400Y-89700
X117400Y-90700
X117400Y-91700
X117500Y-63300
X117500Y-64300
X117500Y-65300
X117500Y-66300
X117500Y-67300
X117500Y-68300
X117500Y-69400
X117500Y-70300
X117500Y-71300
X117500Y-72300
X117500Y-73300
X117500Y-74300
X118300Y-104200
X118400Y-81700
X118400Y-82700
X118400Y-83700
X118400Y-84700
X118400Y-85700
X118400Y-86700
X118400Y-87700
X118400Y-88700
X118400Y-89700
X118400Y-90700
X118500Y-64300
X118500Y-65300
X118500Y-66300
X118500Y-67300
X118500Y-68300
X118500Y-69400
X118500Y-70300
X118500Y-71300
X118500Y-72300
X118500Y-73300
X118900Y-121700
X119000Y-52000
X119000Y-54000
X119000Y-56000
X119000Y-58000
X119100Y-106400
X119800Y-133000
X120000Y-138000
X120500Y-105000
X120500Y-110500
X120500Y-113750
X120750Y-123000
X121000Y-52000
X121000Y-54000
X121000Y-56000
X121000Y-58000
X123000Y-52000
X123000Y-54000
X123000Y-56000
X123000Y-58000
X123300Y-102400
X124000Y-136000
X124000Y-138000
X124825Y-131057
X124900Y-106000
X125000Y-52000
X125000Y-54000
X125000Y-56000
X125000Y-58000
X125200Y-136800
X125600Y-131700
X126000Y-138000
X126100Y-116850
X126250Y-115957
X127000Y-52000
X127000Y-54000
X127000Y-56000
X127000Y-58000
X127000Y-137000
X127600Y-119500
X127900Y-63350
X127900Y-64350
X127900Y-65350
X127900Y-66350
X127900Y-67350
X127900Y-68350
X127900Y-69350
X127900Y-70350
X127900Y-71350
X127900Y-72350
X127900Y-73350
X127900Y-74350
X128000Y-80750
X128000Y-81750
X128000Y-82750
X128000Y-83750
X128000Y-84750
X128000Y-85650
X128000Y-86750
X128000Y-87750
X128000Y-88750
X128000Y-89750
X128000Y-90750
X128000Y-91750
X128000Y-95900
X128000Y-134850
X128000Y-136000
X128000Y-138000
X128700Y-104400
X128900Y-63350
X128900Y-64350
X128900Y-65350
X128900Y-66350
X128900Y-67350
X128900Y-68350
X128900Y-69350
X128900Y-70350
X128900Y-71350
X128900Y-72350
X128900Y-73350
X128900Y-74350
X129000Y-52000
X129000Y-54000
X129000Y-58000
X129000Y-80750
X129000Y-81750
X129000Y-82750
X129000Y-83750
X129000Y-84750
X129000Y-85650
X129000Y-86750
X129000Y-87750
X129000Y-88750
X129000Y-89750
X129000Y-90750
X129000Y-91750
X129000Y-137000
X129500Y-124500
X129750Y-110000
X129750Y-111750
X129750Y-112750
X129750Y-113750
X129750Y-114750
X129750Y-115750
X129750Y-129250
X129900Y-63350
X129900Y-64350
X129900Y-65350
X129900Y-72350
X129900Y-73350
X129900Y-74350
X130000Y-80750
X130000Y-81750
X130000Y-82750
X130000Y-89750
X130000Y-90750
X130000Y-91750
X130000Y-136000
X130000Y-138000
X130750Y-110000
X130750Y-111750
X130750Y-112750
X130750Y-113750
X130750Y-114750
X130750Y-115750
X130750Y-126250
X130750Y-127250
X130750Y-128250
X130750Y-129250
X130750Y-130250
X131000Y-52000
X131000Y-54000
X131000Y-56000
X131000Y-58000
X131000Y-137000
X131500Y-132000
X131600Y-104600
X131700Y-133850
X131750Y-63250
X131750Y-64250
X131750Y-65250
X131750Y-67000
X131750Y-68000
X131750Y-69500
X131750Y-70500
X131750Y-72250
X131750Y-73250
X131750Y-74250
X131750Y-111750
X131750Y-112750
X131750Y-113750
X131750Y-114750
X131750Y-115750
X131750Y-126250
X131750Y-127250
X131750Y-128250
X131750Y-129250
X131750Y-130250
X132000Y-53000
X132000Y-55000
X132000Y-57000
X132000Y-80750
X132000Y-81750
X132000Y-82750
X132000Y-84500
X132000Y-85500
X132000Y-87000
X132000Y-88000
X132000Y-89750
X132000Y-90750
X132000Y-91750
X132000Y-136000
X132000Y-138000
X132750Y-63250
X132750Y-64250
X132750Y-65250
X132750Y-72250
X132750Y-73250
X132750Y-74250
X132850Y-67000
X132850Y-68000
X132850Y-69500
X132850Y-70500
X133000Y-52000
X133000Y-54000
X133000Y-58000
X133000Y-80750
X133000Y-81750
X133000Y-82750
X133000Y-89750
X133000Y-90750
X133000Y-91750
X133000Y-135000
X133000Y-137000
X133100Y-84500
X133100Y-85500
X133100Y-87000
X133100Y-88000
X133600Y-101400
X133750Y-63250
X133750Y-64250
X133750Y-65250
X133750Y-72250
X133750Y-73250
X133750Y-74250
X133950Y-67000
X133950Y-68000
X133950Y-69500
X133950Y-70500
X134000Y-53000
X134000Y-57000
X134000Y-80750
X134000Y-81750
X134000Y-82750
X134000Y-89750
X134000Y-90750
X134000Y-91750
X134000Y-134000
X134000Y-136000
X134000Y-138000
X134200Y-84500
X134200Y-85500
X134200Y-87000
X134200Y-88000
X134750Y-63250
X134750Y-64250
X134750Y-65250
X134750Y-72250
X134750Y-73250
X134750Y-74250
X135000Y-52000
X135000Y-54000
X135000Y-58000
X135000Y-80750
X135000Y-81750
X135000Y-82750
X135000Y-89750
X135000Y-90750
X135000Y-91750
X135000Y-119600
X135000Y-133000
X135000Y-135000
X135000Y-137000
X135050Y-67000
X135050Y-68000
X135050Y-69500
X135050Y-70500
X135300Y-84500
X135300Y-85500
X135300Y-87000
X135300Y-88000
X135300Y-108400
X135300Y-109400
X135300Y-128300
X135750Y-63250
X135750Y-64250
X135750Y-65250
X135750Y-72250
X135750Y-73250
X135750Y-74250
X136000Y-53000
X136000Y-55000
X136000Y-57000
X136000Y-80750
X136000Y-81750
X136000Y-82750
X136000Y-89750
X136000Y-90750
X136000Y-91750
X136000Y-119600
X136000Y-123200
X136000Y-134000
X136000Y-136000
X136000Y-138000
X136300Y-105400
X136300Y-106400
X136300Y-107400
X136300Y-108400
X136750Y-63250
X136750Y-64250
X136750Y-65250
X136750Y-66250
X136750Y-67250
X136750Y-68250
X136750Y-69250
X136750Y-70250
X136750Y-71250
X136750Y-72250
X136750Y-73250
X136750Y-74250
X137000Y-52000
X137000Y-54000
X137000Y-56000
X137000Y-58000
X137000Y-80750
X137000Y-81750
X137000Y-82750
X137000Y-83750
X137000Y-84750
X137000Y-85750
X137000Y-86750
X137000Y-87750
X137000Y-88750
X137000Y-89750
X137000Y-90750
X137000Y-91750
X137000Y-119600
X137000Y-123200
X137000Y-135000
X137000Y-137000
X137100Y-114100
X137300Y-95900
X137750Y-63250
X137750Y-64250
X137750Y-65250
X137750Y-66250
X137750Y-67250
X137750Y-68250
X137750Y-69250
X137750Y-70250
X137750Y-71250
X137750Y-72250
X137750Y-73250
X137750Y-74250
X138000Y-53000
X138000Y-55000
X138000Y-57000
X138000Y-80750
X138000Y-81750
X138000Y-82750
X138000Y-83750
X138000Y-84750
X138000Y-85750
X138000Y-86750
X138000Y-87750
X138000Y-88750
X138000Y-89750
X138000Y-90750
X138000Y-91750
X138000Y-119600
X138000Y-134000
X138000Y-136000
X138000Y-138000
X138400Y-129000
X138600Y-127300
X138750Y-63250
X138750Y-64250
X138750Y-65250
X138750Y-66250
X138750Y-67250
X138750Y-68250
X138750Y-69250
X138750Y-70250
X138750Y-71250
X138750Y-72250
X138750Y-73250
X138750Y-74250
X139000Y-52000
X139000Y-54000
X139000Y-56000
X139000Y-58000
X139000Y-80750
X139000Y-81750
X139000Y-82750
X139000Y-83750
X139000Y-84750
X139000Y-85750
X139000Y-86750
X139000Y-87750
X139000Y-88750
X139000Y-89750
X139000Y-90750
X139000Y-91750
X139000Y-135000
X139000Y-137000
X140000Y-53000
X140000Y-55000
X140000Y-57000
X140000Y-63000
X140000Y-67000
X140000Y-71000
X140000Y-75000
X140000Y-84000
X140000Y-88000
X140000Y-92000
X140000Y-134000
X140000Y-136000
X140000Y-138000
X141000Y-52000
X141000Y-54000
X141000Y-56000
X141000Y-58000
X141000Y-98000
X141000Y-102000
X141000Y-106000
X141000Y-110000
X141000Y-133000
X141000Y-135000
X141000Y-137000
X142000Y-53000
X142000Y-55000
X142000Y-57000
X142000Y-61800
X142000Y-65000
X142000Y-69000
X142000Y-73000
X142000Y-82000
X142000Y-86000
X142000Y-90000
X142000Y-132000
X142000Y-134000
X142000Y-136000
X142000Y-138000
X143000Y-52000
X143000Y-54000
X143000Y-56000
X143000Y-58000
X143000Y-100000
X143000Y-104000
X143000Y-108000
X143000Y-117000
X143000Y-121000
X143000Y-125000
X143000Y-128200
X143000Y-133000
X143000Y-135000
X143000Y-137000
X144000Y-53000
X144000Y-55000
X144000Y-57000
X144000Y-80000
X144000Y-84000
X144000Y-88000
X144000Y-92000
X144000Y-132000
X144000Y-134000
X144000Y-136000
X144000Y-138000
X145000Y-52000
X145000Y-54000
X145000Y-56000
X145000Y-98000
X145000Y-102000
X145000Y-106000
X145000Y-115000
X145000Y-119000
X145000Y-123000
X145000Y-127000
X145000Y-133000
X145000Y-135000
X145000Y-137000
X146000Y-53000
X146000Y-55000
X146000Y-98250
X146000Y-99250
X146000Y-100250
X146000Y-101250
X146000Y-102250
X146000Y-103250
X146000Y-104250
X146000Y-105250
X146000Y-106250
X146000Y-107250
X146000Y-108250
X146000Y-109250
X146000Y-132000
X146000Y-134000
X146000Y-136000
X146000Y-138000
X146250Y-115750
X146250Y-116750
X146250Y-117750
X146250Y-118750
X146250Y-119750
X146250Y-120750
X146250Y-121750
X146250Y-122750
X146250Y-123750
X146250Y-124750
X146250Y-125750
X146250Y-126750
X146400Y-62700
X146600Y-61000
X147000Y-52000
X147000Y-54000
X147000Y-56000
X147000Y-70400
X147000Y-98250
X147000Y-99250
X147000Y-100250
X147000Y-101250
X147000Y-102250
X147000Y-103250
X147000Y-104250
X147000Y-105250
X147000Y-106250
X147000Y-107250
X147000Y-108250
X147000Y-109250
X147000Y-133000
X147000Y-135000
X147000Y-137000
X147250Y-115750
X147250Y-116750
X147250Y-117750
X147250Y-118750
X147250Y-119750
X147250Y-120750
X147250Y-121750
X147250Y-122750
X147250Y-123750
X147250Y-124750
X147250Y-125750
X147250Y-126750
X147700Y-94100
X147900Y-75900
X148000Y-53000
X148000Y-55000
X148000Y-66800
X148000Y-70400
X148000Y-98250
X148000Y-99250
X148000Y-100250
X148000Y-101250
X148000Y-102250
X148000Y-103250
X148000Y-104250
X148000Y-105250
X148000Y-106250
X148000Y-107250
X148000Y-108250
X148000Y-109250
X148000Y-132000
X148000Y-134000
X148000Y-136000
X148000Y-138000
X148250Y-115750
X148250Y-116750
X148250Y-117750
X148250Y-118750
X148250Y-119750
X148250Y-120750
X148250Y-121750
X148250Y-122750
X148250Y-123750
X148250Y-124750
X148250Y-125750
X148250Y-126750
X148700Y-81600
X148700Y-82600
X148700Y-83600
X148700Y-84600
X149000Y-52000
X149000Y-54000
X149000Y-56000
X149000Y-66800
X149000Y-70400
X149000Y-98250
X149000Y-99250
X149000Y-100250
X149000Y-107250
X149000Y-108250
X149000Y-109250
X149000Y-133000
X149000Y-135000
X149000Y-137000
X149250Y-115750
X149250Y-116750
X149250Y-117750
X149250Y-124750
X149250Y-125750
X149250Y-126750
X149700Y-61700
X149700Y-80600
X149700Y-81600
X149700Y-102000
X149700Y-103000
X149700Y-104500
X149700Y-105500
X149950Y-119500
X149950Y-120500
X149950Y-122000
X149950Y-123000
X150000Y-53000
X150000Y-55000
X150000Y-57000
X150000Y-70400
X150000Y-98250
X150000Y-99250
X150000Y-100250
X150000Y-107250
X150000Y-108250
X150000Y-109250
X150000Y-132000
X150000Y-136000
X150000Y-138000
X150250Y-115750
X150250Y-116750
X150250Y-117750
X150250Y-124750
X150250Y-125750
X150250Y-126750
X150800Y-102000
X150800Y-103000
X150800Y-104500
X150800Y-105500
X151000Y-52000
X151000Y-54000
X151000Y-56000
X151000Y-98250
X151000Y-99250
X151000Y-100250
X151000Y-107250
X151000Y-108250
X151000Y-109250
X151000Y-133000
X151000Y-137000
X151050Y-119500
X151050Y-120500
X151050Y-122000
X151050Y-123000
X151250Y-115750
X151250Y-116750
X151250Y-117750
X151250Y-124750
X151250Y-125750
X151250Y-126750
X151400Y-88600
X151900Y-102000
X151900Y-103000
X151900Y-104500
X151900Y-105500
X152000Y-53000
X152000Y-55000
X152000Y-98250
X152000Y-99250
X152000Y-100250
X152000Y-107250
X152000Y-108250
X152000Y-109250
X152000Y-132000
X152000Y-136000
X152000Y-138000
X152150Y-119500
X152150Y-120500
X152150Y-122000
X152150Y-123000
X152250Y-115750
X152250Y-116750
X152250Y-117750
X152250Y-124750
X152250Y-125750
X152250Y-126750
X153000Y-52000
X153000Y-54000
X153000Y-98250
X153000Y-99250
X153000Y-100250
X153000Y-102000
X153000Y-103000
X153000Y-104500
X153000Y-105500
X153000Y-107250
X153000Y-108250
X153000Y-109250
X153000Y-133000
X153000Y-135000
X153000Y-137000
X153250Y-59750
X153250Y-60750
X153250Y-61750
X153250Y-62750
X153250Y-63750
X153250Y-74250
X153250Y-75250
X153250Y-76250
X153250Y-77250
X153250Y-78250
X153250Y-115750
X153250Y-116750
X153250Y-117750
X153250Y-119500
X153250Y-120500
X153250Y-122000
X153250Y-123000
X153250Y-124750
X153250Y-125750
X153250Y-126750
X153300Y-56150
X153400Y-85400
X153500Y-58000
X154000Y-53000
X154000Y-132000
X154000Y-134000
X154000Y-136000
X154000Y-138000
X154250Y-59750
X154250Y-60750
X154250Y-61750
X154250Y-62750
X154250Y-63750
X154250Y-74250
X154250Y-75250
X154250Y-76250
X154250Y-77250
X154250Y-78250
X154250Y-80000
X155000Y-52000
X155000Y-54000
X155000Y-98250
X155000Y-99250
X155000Y-100250
X155000Y-107250
X155000Y-108250
X155000Y-109250
X155100Y-115650
X155100Y-116650
X155100Y-117650
X155100Y-124650
X155100Y-125650
X155100Y-126650
X155250Y-60750
X155250Y-74250
X155250Y-75250
X155250Y-76250
X155250Y-77250
X155250Y-78250
X155250Y-80000
X155500Y-65500
X156000Y-53000
X156000Y-98250
X156000Y-99250
X156000Y-100250
X156000Y-101250
X156000Y-102250
X156000Y-103250
X156000Y-104350
X156000Y-105250
X156000Y-106250
X156000Y-107250
X156000Y-108250
X156000Y-109250
X156000Y-132000
X156000Y-136000
X156000Y-138000
X156100Y-115650
X156100Y-116650
X156100Y-117650
X156100Y-118650
X156100Y-119650
X156100Y-120650
X156100Y-121650
X156100Y-122650
X156100Y-123650
X156100Y-124650
X156100Y-125650
X156100Y-126650
X156300Y-85600
X157000Y-52000
X157000Y-54000
X157000Y-55150
X157000Y-94100
X157000Y-98250
X157000Y-99250
X157000Y-100250
X157000Y-101250
X157000Y-102250
X157000Y-103250
X157000Y-104350
X157000Y-105250
X157000Y-106250
X157000Y-107250
X157000Y-108250
X157000Y-109250
X157100Y-115650
X157100Y-116650
X157100Y-117650
X157100Y-118650
X157100Y-119650
X157100Y-120650
X157100Y-121650
X157100Y-122650
X157100Y-123650
X157100Y-124650
X157100Y-125650
X157100Y-126650
X157400Y-70500
X158000Y-53000
X158000Y-132000
X158000Y-134000
X158000Y-136000
X158000Y-138000
X158750Y-74043
X158900Y-73150
X159000Y-52000
X159400Y-58300
X159800Y-53200
X160000Y-132000
X160000Y-134000
X160000Y-136000
X160000Y-138000
X160100Y-84000
X160175Y-58943
X161000Y-52000
X161000Y-54000
X161700Y-87600
X162000Y-132000
X162000Y-134000
X162000Y-136000
X162000Y-138000
X164000Y-132000
X164000Y-134000
X164000Y-136000
X164000Y-138000
X164250Y-67000
X164500Y-76250
X164500Y-79500
X164500Y-85000
X165000Y-52000
X165200Y-57000
X165900Y-83600
X166000Y-132000
X166000Y-134000
X166000Y-136000
X166000Y-138000
X166100Y-68300
X166500Y-116700
X166500Y-117700
X166500Y-118700
X166500Y-119700
X166500Y-120600
X166500Y-121700
X166500Y-122700
X166500Y-123700
X166500Y-124700
X166500Y-125700
X166600Y-99300
X166600Y-100300
X166600Y-101300
X166600Y-102300
X166600Y-103300
X166600Y-104300
X166600Y-105300
X166600Y-106300
X166600Y-107300
X166600Y-108300
X166700Y-85800
X167500Y-115700
X167500Y-116700
X167500Y-117700
X167500Y-118700
X167500Y-119700
X167500Y-120600
X167500Y-121700
X167500Y-122700
X167500Y-123700
X167500Y-124700
X167500Y-125700
X167500Y-126700
X167600Y-98300
X167600Y-99300
X167600Y-100300
X167600Y-101300
X167600Y-102300
X167600Y-103300
X167600Y-104300
X167600Y-105300
X167600Y-106300
X167600Y-107300
X167600Y-108300
X167600Y-109300
X168000Y-132000
X168000Y-134000
X168000Y-136000
X168000Y-138000
X168300Y-57000
X168500Y-115700
X168500Y-116700
X168500Y-117700
X168500Y-118700
X168500Y-119700
X168500Y-120600
X168500Y-121700
X168500Y-122700
X168500Y-123700
X168500Y-124700
X168500Y-125700
X168500Y-126700
X168600Y-98300
X168600Y-99300
X168600Y-100300
X168600Y-101300
X168600Y-102300
X168600Y-103300
X168600Y-104300
X168600Y-105300
X168600Y-106300
X168600Y-107300
X168600Y-108300
X168600Y-109300
X169000Y-52000
X169000Y-54000
X169000Y-79900
X169100Y-83800
X169100Y-88100
X169500Y-115700
X169500Y-116700
X169500Y-117700
X169500Y-124700
X169500Y-125700
X169500Y-126700
X169600Y-98300
X169600Y-99300
X169600Y-100300
X169600Y-107300
X169600Y-108300
X169600Y-109300
X169900Y-77300
X170000Y-94100
X170000Y-132000
X170000Y-134000
X170000Y-136000
X170000Y-138000
X170200Y-55900
X170200Y-119450
X170200Y-120450
X170200Y-121950
X170200Y-122950
X170300Y-102050
X170300Y-103050
X170300Y-104550
X170300Y-105550
X170500Y-51800
X170500Y-67200
X170500Y-115700
X170500Y-116700
X170500Y-117700
X170500Y-124700
X170500Y-125700
X170500Y-126700
X170600Y-59200
X170600Y-75700
X170600Y-98300
X170600Y-99300
X170600Y-100300
X170600Y-107300
X170600Y-108300
X170600Y-109300
X171000Y-79300
X171300Y-119450
X171300Y-120450
X171300Y-121950
X171300Y-122950
X171400Y-92000
X171400Y-102050
X171400Y-103050
X171400Y-104550
X171400Y-105550
X171500Y-115700
X171500Y-116700
X171500Y-117700
X171500Y-124700
X171500Y-125700
X171500Y-126700
X171600Y-98300
X171600Y-99300
X171600Y-100300
X171600Y-107300
X171600Y-108300
X171600Y-109300
X172000Y-132000
X172000Y-134000
X172000Y-136000
X172000Y-138000
X172400Y-119450
X172400Y-120450
X172400Y-121950
X172400Y-122950
X172500Y-85700
X172500Y-90300
X172500Y-102050
X172500Y-103050
X172500Y-104550
X172500Y-105550
X172500Y-115700
X172500Y-116700
X172500Y-117700
X172500Y-124700
X172500Y-125700
X172500Y-126700
X172558Y-77558
X172600Y-98300
X172600Y-99300
X172600Y-100300
X172600Y-107300
X172600Y-108300
X172600Y-109300
X173300Y-79100
X173400Y-69100
X173500Y-115700
X173500Y-116700
X173500Y-117700
X173500Y-119450
X173500Y-120450
X173500Y-121950
X173500Y-122950
X173500Y-124700
X173500Y-125700
X173500Y-126700
X173600Y-98300
X173600Y-99300
X173600Y-100300
X173600Y-102050
X173600Y-103050
X173600Y-104550
X173600Y-105550
X173600Y-107300
X173600Y-108300
X173600Y-109300
X173800Y-70300
X174000Y-132000
X174000Y-134000
X174000Y-136000
X174000Y-138000
X174500Y-72500
X174700Y-52100
X175100Y-112500
X175200Y-64800
X175450Y-98350
X175450Y-99350
X175450Y-100350
X175450Y-107350
X175450Y-108350
X175450Y-109350
X175450Y-115750
X175450Y-116750
X175450Y-117750
X175450Y-124750
X175450Y-125750
X175450Y-126750
X175600Y-95900
X176000Y-132000
X176000Y-134000
X176000Y-136000
X176000Y-138000
X176400Y-56800
X176400Y-66000
X176450Y-98350
X176450Y-99350
X176450Y-100350
X176450Y-101350
X176450Y-102350
X176450Y-103350
X176450Y-104350
X176450Y-105350
X176450Y-106350
X176450Y-107350
X176450Y-108350
X176450Y-109350
X176450Y-115750
X176450Y-116750
X176450Y-117750
X176450Y-118750
X176450Y-119750
X176450Y-120750
X176450Y-121750
X176450Y-122750
X176450Y-123750
X176450Y-124750
X176450Y-125750
X176450Y-126750
X177000Y-82100
X177000Y-88100
X177100Y-74000
X177450Y-98350
X177450Y-99350
X177450Y-100350
X177450Y-101350
X177450Y-102350
X177450Y-103350
X177450Y-104350
X177450Y-105350
X177450Y-106350
X177450Y-107350
X177450Y-108350
X177450Y-109350
X177450Y-115750
X177450Y-116750
X177450Y-117750
X177450Y-118750
X177450Y-119750
X177450Y-120750
X177450Y-121750
X177450Y-122750
X177450Y-123750
X177450Y-124750
X177450Y-125750
X177450Y-126750
X177600Y-61600
X177900Y-52100
X178000Y-130000
X178000Y-132000
X178000Y-134000
X178000Y-136000
X178000Y-138000
X178400Y-54300
X178450Y-98350
X178450Y-99350
X178450Y-100350
X178450Y-101350
X178450Y-102350
X178450Y-103350
X178450Y-104350
X178450Y-105350
X178450Y-106350
X178450Y-107350
X178450Y-108350
X178450Y-109350
X178450Y-115750
X178450Y-116750
X178450Y-117750
X178450Y-118750
X178450Y-119750
X178450Y-120750
X178450Y-121750
X178450Y-122750
X178450Y-123750
X178450Y-124750
X178450Y-125750
X178450Y-126750
X179700Y-82500
X179750Y-79000
X180000Y-62900
X180000Y-130000
X180000Y-132000
X180000Y-134000
X180000Y-136000
X180000Y-138000
X180100Y-67100
X180400Y-56700
X180400Y-69300
X181000Y-96000
X181000Y-98000
X181000Y-100000
X181000Y-102000
X181000Y-104000
X181000Y-106000
X181000Y-108000
X181000Y-110000
X181000Y-112000
X181000Y-114000
X181000Y-116000
X181000Y-118000
X181000Y-120000
X181000Y-122000
X181000Y-124000
X181000Y-126000
X181000Y-128000
X181800Y-82500
X182000Y-51800
X182000Y-94000
X182000Y-130000
X182000Y-132000
X182000Y-134000
X182000Y-136000
X182000Y-138000
X183000Y-98000
X183000Y-100000
X183000Y-102000
X183000Y-104000
X183000Y-106000
X183000Y-108000
X183000Y-110000
X183000Y-112000
X183000Y-114000
X183000Y-116000
X183000Y-118000
X183000Y-120000
X183000Y-122000
X183000Y-124000
X183000Y-126000
X183000Y-128000
X183200Y-53800
X183700Y-86400
X183700Y-89800
X183800Y-61700
X183800Y-65200
X183800Y-73200
X183800Y-81000
X184030Y-51470
T2
X103200Y-128100
X103300Y-132900
X107800Y-117600
X107800Y-118950
X107800Y-120200
X108200Y-112300
X108400Y-127400
X109000Y-110900
X109800Y-112400
X110400Y-120800
X110500Y-61600
X110500Y-110700
X110600Y-75400
X110600Y-79700
X110600Y-93650
X112300Y-117800
X112700Y-120600
X113000Y-124500
X113200Y-106500
X115700Y-126200
X116333Y-119416
X116400Y-117000
X116451Y-111776
X116525Y-114536
X116684Y-121684
X117500Y-120600
X119300Y-123000
X121550Y-119100
X121600Y-135900
X124900Y-115600
X124949Y-114344
X124950Y-119000
X124968Y-113344
X124987Y-128113
X125000Y-129113
X125022Y-130179
X125025Y-127100
X125100Y-116700
X125202Y-125261
X125700Y-111974
X130900Y-61700
X130900Y-75900
X131000Y-79400
X131000Y-92800
X131600Y-108900
X131700Y-124300
X153300Y-65700
X153400Y-81100
X154000Y-97200
X154000Y-110600
X154100Y-114100
X154100Y-128300
X159300Y-78026
X159798Y-64739
X159900Y-73300
X159975Y-62900
X159978Y-59821
X160000Y-60887
X160013Y-61887
X160032Y-76656
X160050Y-71000
X160051Y-75656
X160100Y-74400
X163400Y-54100
X163450Y-70900
X165700Y-67000
X167500Y-69400
X168316Y-68316
X168475Y-75464
X168549Y-78224
X168600Y-73000
X168667Y-70584
X169300Y-63800
X171800Y-83500
X172000Y-65500
X172300Y-69400
X172700Y-72200
X174400Y-96350
X174400Y-110300
X174400Y-114600
X174500Y-79300
X174500Y-128400
X174600Y-69200
X175200Y-77600
X176000Y-79100
X176600Y-62600
X176800Y-77700
X177200Y-69800
X177200Y-71050
X177200Y-72400
X181700Y-57100
X181800Y-61900
T3
X104160Y-98180
X104160Y-105800
X106700Y-98180
X106700Y-105800
X109240Y-98180
X109240Y-105800
X111780Y-98180
X111780Y-105800
X173220Y-84200
X173220Y-91820
X175760Y-84200
X175760Y-91820
X178300Y-84200
X178300Y-91820
X180840Y-84200
X180840Y-91820
T4
X150450Y-90300
X152990Y-90300
X155530Y-90300
X158070Y-90300
X160610Y-90300
X124390Y-99700
X126930Y-99700
X129470Y-99700
X132010Y-99700
X134550Y-99700
T5
X164020Y-89900
X166560Y-89900
X169100Y-89900
X115900Y-100100
X118440Y-100100
X120980Y-100100
X150700Y-134500
X155780Y-134500
X129220Y-55500
X134300Y-55500
T6
X160400Y-117600
X160400Y-124800
X160400Y-100200
X160400Y-107400
X124600Y-65200
X124600Y-72400
X124600Y-82600
X124600Y-89800
T5
G00X167000Y-114450
M15
G01X165800Y-114450
M16
G05
G00X167000Y-127950
M15
G01X165800Y-127950
M16
G05
G00X167000Y-97050
M15
G01X165800Y-97050
M16
G05
G00X167000Y-110550
M15
G01X165800Y-110550
M16
G05
G00X118000Y-62050
M15
G01X119200Y-62050
M16
G05
G00X118000Y-75550
M15
G01X119200Y-75550
M16
G05
G00X118000Y-79450
M15
G01X119200Y-79450
M16
G05
G00X118000Y-92950
M15
G01X119200Y-92950
M16
G05
T0
M30
