M48
; DRILL file {KiCad (5.1.6)-1} date 06/21/20 16:42:46
; FORMAT={-:-/ absolute / metric / decimal}
; #@! TF.CreationDate,2020-06-21T16:42:46+09:00
; #@! TF.GenerationSoftware,Kicad,Pcbnew,(5.1.6)-1
FMAT,2
METRIC
T1C0.300
T2C0.400
T3C0.800
T4C0.850
T5C1.000
T6C3.400
%
G90
G05
T1
X100.97Y-138.53
X101.2Y-109.0
X101.2Y-116.8
X101.2Y-124.8
X101.2Y-128.3
X101.3Y-100.2
X101.3Y-103.6
X101.8Y-136.2
X102.0Y-62.0
X102.0Y-64.0
X102.0Y-66.0
X102.0Y-68.0
X102.0Y-70.0
X102.0Y-72.0
X102.0Y-74.0
X102.0Y-76.0
X102.0Y-78.0
X102.0Y-80.0
X102.0Y-82.0
X102.0Y-84.0
X102.0Y-86.0
X102.0Y-88.0
X102.0Y-90.0
X102.0Y-92.0
X103.0Y-52.0
X103.0Y-54.0
X103.0Y-56.0
X103.0Y-58.0
X103.0Y-60.0
X103.0Y-96.0
X103.0Y-138.2
X103.2Y-107.5
X104.0Y-62.0
X104.0Y-64.0
X104.0Y-66.0
X104.0Y-68.0
X104.0Y-70.0
X104.0Y-72.0
X104.0Y-74.0
X104.0Y-76.0
X104.0Y-78.0
X104.0Y-80.0
X104.0Y-82.0
X104.0Y-84.0
X104.0Y-86.0
X104.0Y-88.0
X104.0Y-90.0
X104.0Y-92.0
X104.0Y-94.0
X104.6Y-120.7
X104.6Y-133.3
X104.9Y-122.9
X105.0Y-52.0
X105.0Y-54.0
X105.0Y-56.0
X105.0Y-58.0
X105.0Y-60.0
X105.0Y-127.1
X105.25Y-111.0
X105.3Y-107.5
X106.55Y-63.25
X106.55Y-64.25
X106.55Y-65.25
X106.55Y-66.25
X106.55Y-67.25
X106.55Y-68.25
X106.55Y-69.25
X106.55Y-70.25
X106.55Y-71.25
X106.55Y-72.25
X106.55Y-73.25
X106.55Y-74.25
X106.55Y-80.65
X106.55Y-81.65
X106.55Y-82.65
X106.55Y-83.65
X106.55Y-84.65
X106.55Y-85.65
X106.55Y-86.65
X106.55Y-87.65
X106.55Y-88.65
X106.55Y-89.65
X106.55Y-90.65
X106.55Y-91.65
X106.6Y-135.7
X107.0Y-52.0
X107.0Y-54.0
X107.0Y-56.0
X107.0Y-58.0
X107.0Y-60.0
X107.1Y-137.9
X107.4Y-128.4
X107.55Y-63.25
X107.55Y-64.25
X107.55Y-65.25
X107.55Y-66.25
X107.55Y-67.25
X107.55Y-68.25
X107.55Y-69.25
X107.55Y-70.25
X107.55Y-71.25
X107.55Y-72.25
X107.55Y-73.25
X107.55Y-74.25
X107.55Y-80.65
X107.55Y-81.65
X107.55Y-82.65
X107.55Y-83.65
X107.55Y-84.65
X107.55Y-85.65
X107.55Y-86.65
X107.55Y-87.65
X107.55Y-88.65
X107.55Y-89.65
X107.55Y-90.65
X107.55Y-91.65
X107.9Y-116.0
X108.0Y-101.9
X108.0Y-107.9
X108.55Y-63.25
X108.55Y-64.25
X108.55Y-65.25
X108.55Y-66.25
X108.55Y-67.25
X108.55Y-68.25
X108.55Y-69.25
X108.55Y-70.25
X108.55Y-71.25
X108.55Y-72.25
X108.55Y-73.25
X108.55Y-74.25
X108.55Y-80.65
X108.55Y-81.65
X108.55Y-82.65
X108.55Y-83.65
X108.55Y-84.65
X108.55Y-85.65
X108.55Y-86.65
X108.55Y-87.65
X108.55Y-88.65
X108.55Y-89.65
X108.55Y-90.65
X108.55Y-91.65
X108.6Y-124.0
X108.6Y-133.2
X109.0Y-52.0
X109.0Y-54.0
X109.0Y-56.0
X109.0Y-58.0
X109.4Y-94.1
X109.55Y-63.25
X109.55Y-64.25
X109.55Y-65.25
X109.55Y-72.25
X109.55Y-73.25
X109.55Y-74.25
X109.55Y-80.65
X109.55Y-81.65
X109.55Y-82.65
X109.55Y-89.65
X109.55Y-90.65
X109.55Y-91.65
X109.8Y-125.2
X109.9Y-77.5
X110.3Y-137.9
X110.5Y-117.5
X111.0Y-52.0
X111.0Y-54.0
X111.0Y-56.0
X111.0Y-58.0
X111.2Y-119.7
X111.4Y-80.7
X111.4Y-81.7
X111.4Y-82.7
X111.4Y-84.45
X111.4Y-85.45
X111.4Y-86.95
X111.4Y-87.95
X111.4Y-89.7
X111.4Y-90.7
X111.4Y-91.7
X111.5Y-63.3
X111.5Y-64.3
X111.5Y-65.3
X111.5Y-67.05
X111.5Y-68.05
X111.5Y-69.55
X111.5Y-70.55
X111.5Y-72.3
X111.5Y-73.3
X111.5Y-74.3
X111.6Y-120.9
X111.7Y-110.9
X112.4Y-80.7
X112.4Y-81.7
X112.4Y-82.7
X112.4Y-89.7
X112.4Y-90.7
X112.4Y-91.7
X112.442Y-112.442
X112.5Y-63.3
X112.5Y-64.3
X112.5Y-65.3
X112.5Y-72.3
X112.5Y-73.3
X112.5Y-74.3
X112.5Y-84.45
X112.5Y-85.45
X112.5Y-86.95
X112.5Y-87.95
X112.5Y-99.7
X112.5Y-104.3
X112.6Y-67.05
X112.6Y-68.05
X112.6Y-69.55
X112.6Y-70.55
X113.0Y-52.0
X113.0Y-54.0
X113.0Y-56.0
X113.0Y-58.0
X113.4Y-80.7
X113.4Y-81.7
X113.4Y-82.7
X113.4Y-89.7
X113.4Y-90.7
X113.4Y-91.7
X113.5Y-63.3
X113.5Y-64.3
X113.5Y-65.3
X113.5Y-72.3
X113.5Y-73.3
X113.5Y-74.3
X113.6Y-84.45
X113.6Y-85.45
X113.6Y-86.95
X113.6Y-87.95
X113.6Y-98.0
X113.7Y-67.05
X113.7Y-68.05
X113.7Y-69.55
X113.7Y-70.55
X114.0Y-110.7
X114.4Y-80.7
X114.4Y-81.7
X114.4Y-82.7
X114.4Y-89.7
X114.4Y-90.7
X114.4Y-91.7
X114.4Y-114.3
X114.4Y-130.8
X114.5Y-63.3
X114.5Y-64.3
X114.5Y-65.3
X114.5Y-72.3
X114.5Y-73.3
X114.5Y-74.3
X114.5Y-122.8
X114.5Y-138.2
X114.7Y-84.45
X114.7Y-85.45
X114.7Y-86.95
X114.7Y-87.95
X114.8Y-67.05
X114.8Y-68.05
X114.8Y-69.55
X114.8Y-70.55
X114.8Y-134.1
X115.0Y-52.0
X115.0Y-54.0
X115.0Y-56.0
X115.0Y-58.0
X115.0Y-95.9
X115.1Y-112.7
X115.4Y-80.7
X115.4Y-81.7
X115.4Y-82.7
X115.4Y-89.7
X115.4Y-90.7
X115.4Y-91.7
X115.5Y-63.3
X115.5Y-64.3
X115.5Y-65.3
X115.5Y-72.3
X115.5Y-73.3
X115.5Y-74.3
X115.9Y-101.9
X115.9Y-106.2
X116.0Y-110.1
X116.0Y-136.0
X116.0Y-138.0
X116.4Y-80.7
X116.4Y-81.7
X116.4Y-82.7
X116.4Y-83.7
X116.4Y-84.7
X116.4Y-85.7
X116.4Y-86.7
X116.4Y-87.7
X116.4Y-88.7
X116.4Y-89.7
X116.4Y-90.7
X116.4Y-91.7
X116.5Y-63.3
X116.5Y-64.3
X116.5Y-65.3
X116.5Y-66.3
X116.5Y-67.3
X116.5Y-68.3
X116.5Y-69.4
X116.5Y-70.3
X116.5Y-71.3
X116.5Y-72.3
X116.5Y-73.3
X116.5Y-74.3
X116.7Y-133.0
X117.0Y-52.0
X117.0Y-54.0
X117.0Y-56.0
X117.0Y-58.0
X117.4Y-80.7
X117.4Y-81.7
X117.4Y-82.7
X117.4Y-83.7
X117.4Y-84.7
X117.4Y-85.7
X117.4Y-86.7
X117.4Y-87.7
X117.4Y-88.7
X117.4Y-89.7
X117.4Y-90.7
X117.4Y-91.7
X117.5Y-63.3
X117.5Y-64.3
X117.5Y-65.3
X117.5Y-66.3
X117.5Y-67.3
X117.5Y-68.3
X117.5Y-69.4
X117.5Y-70.3
X117.5Y-71.3
X117.5Y-72.3
X117.5Y-73.3
X117.5Y-74.3
X118.3Y-104.2
X118.4Y-81.7
X118.4Y-82.7
X118.4Y-83.7
X118.4Y-84.7
X118.4Y-85.7
X118.4Y-86.7
X118.4Y-87.7
X118.4Y-88.7
X118.4Y-89.7
X118.4Y-90.7
X118.5Y-64.3
X118.5Y-65.3
X118.5Y-66.3
X118.5Y-67.3
X118.5Y-68.3
X118.5Y-69.4
X118.5Y-70.3
X118.5Y-71.3
X118.5Y-72.3
X118.5Y-73.3
X118.9Y-121.7
X119.0Y-52.0
X119.0Y-54.0
X119.0Y-56.0
X119.0Y-58.0
X119.1Y-106.4
X119.8Y-133.0
X120.0Y-138.0
X120.5Y-105.0
X120.5Y-110.5
X120.5Y-113.75
X120.75Y-123.0
X121.0Y-52.0
X121.0Y-54.0
X121.0Y-56.0
X121.0Y-58.0
X123.0Y-52.0
X123.0Y-54.0
X123.0Y-56.0
X123.0Y-58.0
X123.3Y-102.4
X124.0Y-136.0
X124.0Y-138.0
X124.825Y-131.057
X124.9Y-106.0
X125.0Y-52.0
X125.0Y-54.0
X125.0Y-56.0
X125.0Y-58.0
X125.2Y-136.8
X125.6Y-131.7
X126.0Y-138.0
X126.1Y-116.85
X126.25Y-115.957
X127.0Y-52.0
X127.0Y-54.0
X127.0Y-56.0
X127.0Y-58.0
X127.0Y-137.0
X127.6Y-119.5
X127.9Y-63.35
X127.9Y-64.35
X127.9Y-65.35
X127.9Y-66.35
X127.9Y-67.35
X127.9Y-68.35
X127.9Y-69.35
X127.9Y-70.35
X127.9Y-71.35
X127.9Y-72.35
X127.9Y-73.35
X127.9Y-74.35
X128.0Y-80.75
X128.0Y-81.75
X128.0Y-82.75
X128.0Y-83.75
X128.0Y-84.75
X128.0Y-85.65
X128.0Y-86.75
X128.0Y-87.75
X128.0Y-88.75
X128.0Y-89.75
X128.0Y-90.75
X128.0Y-91.75
X128.0Y-95.9
X128.0Y-134.85
X128.0Y-136.0
X128.0Y-138.0
X128.7Y-104.4
X128.9Y-63.35
X128.9Y-64.35
X128.9Y-65.35
X128.9Y-66.35
X128.9Y-67.35
X128.9Y-68.35
X128.9Y-69.35
X128.9Y-70.35
X128.9Y-71.35
X128.9Y-72.35
X128.9Y-73.35
X128.9Y-74.35
X129.0Y-52.0
X129.0Y-54.0
X129.0Y-58.0
X129.0Y-80.75
X129.0Y-81.75
X129.0Y-82.75
X129.0Y-83.75
X129.0Y-84.75
X129.0Y-85.65
X129.0Y-86.75
X129.0Y-87.75
X129.0Y-88.75
X129.0Y-89.75
X129.0Y-90.75
X129.0Y-91.75
X129.0Y-137.0
X129.5Y-124.5
X129.75Y-110.0
X129.75Y-111.75
X129.75Y-112.75
X129.75Y-113.75
X129.75Y-114.75
X129.75Y-115.75
X129.75Y-129.25
X129.9Y-63.35
X129.9Y-64.35
X129.9Y-65.35
X129.9Y-72.35
X129.9Y-73.35
X129.9Y-74.35
X130.0Y-80.75
X130.0Y-81.75
X130.0Y-82.75
X130.0Y-89.75
X130.0Y-90.75
X130.0Y-91.75
X130.0Y-136.0
X130.0Y-138.0
X130.75Y-110.0
X130.75Y-111.75
X130.75Y-112.75
X130.75Y-113.75
X130.75Y-114.75
X130.75Y-115.75
X130.75Y-126.25
X130.75Y-127.25
X130.75Y-128.25
X130.75Y-129.25
X130.75Y-130.25
X131.0Y-52.0
X131.0Y-54.0
X131.0Y-56.0
X131.0Y-58.0
X131.0Y-137.0
X131.5Y-132.0
X131.6Y-104.6
X131.7Y-133.85
X131.75Y-63.25
X131.75Y-64.25
X131.75Y-65.25
X131.75Y-67.0
X131.75Y-68.0
X131.75Y-69.5
X131.75Y-70.5
X131.75Y-72.25
X131.75Y-73.25
X131.75Y-74.25
X131.75Y-111.75
X131.75Y-112.75
X131.75Y-113.75
X131.75Y-114.75
X131.75Y-115.75
X131.75Y-126.25
X131.75Y-127.25
X131.75Y-128.25
X131.75Y-129.25
X131.75Y-130.25
X132.0Y-53.0
X132.0Y-55.0
X132.0Y-57.0
X132.0Y-80.75
X132.0Y-81.75
X132.0Y-82.75
X132.0Y-84.5
X132.0Y-85.5
X132.0Y-87.0
X132.0Y-88.0
X132.0Y-89.75
X132.0Y-90.75
X132.0Y-91.75
X132.0Y-136.0
X132.0Y-138.0
X132.75Y-63.25
X132.75Y-64.25
X132.75Y-65.25
X132.75Y-72.25
X132.75Y-73.25
X132.75Y-74.25
X132.85Y-67.0
X132.85Y-68.0
X132.85Y-69.5
X132.85Y-70.5
X133.0Y-52.0
X133.0Y-54.0
X133.0Y-58.0
X133.0Y-80.75
X133.0Y-81.75
X133.0Y-82.75
X133.0Y-89.75
X133.0Y-90.75
X133.0Y-91.75
X133.0Y-135.0
X133.0Y-137.0
X133.1Y-84.5
X133.1Y-85.5
X133.1Y-87.0
X133.1Y-88.0
X133.6Y-101.4
X133.75Y-63.25
X133.75Y-64.25
X133.75Y-65.25
X133.75Y-72.25
X133.75Y-73.25
X133.75Y-74.25
X133.95Y-67.0
X133.95Y-68.0
X133.95Y-69.5
X133.95Y-70.5
X134.0Y-53.0
X134.0Y-57.0
X134.0Y-80.75
X134.0Y-81.75
X134.0Y-82.75
X134.0Y-89.75
X134.0Y-90.75
X134.0Y-91.75
X134.0Y-134.0
X134.0Y-136.0
X134.0Y-138.0
X134.2Y-84.5
X134.2Y-85.5
X134.2Y-87.0
X134.2Y-88.0
X134.75Y-63.25
X134.75Y-64.25
X134.75Y-65.25
X134.75Y-72.25
X134.75Y-73.25
X134.75Y-74.25
X135.0Y-52.0
X135.0Y-54.0
X135.0Y-58.0
X135.0Y-80.75
X135.0Y-81.75
X135.0Y-82.75
X135.0Y-89.75
X135.0Y-90.75
X135.0Y-91.75
X135.0Y-119.6
X135.0Y-133.0
X135.0Y-135.0
X135.0Y-137.0
X135.05Y-67.0
X135.05Y-68.0
X135.05Y-69.5
X135.05Y-70.5
X135.3Y-84.5
X135.3Y-85.5
X135.3Y-87.0
X135.3Y-88.0
X135.3Y-108.4
X135.3Y-109.4
X135.3Y-128.3
X135.75Y-63.25
X135.75Y-64.25
X135.75Y-65.25
X135.75Y-72.25
X135.75Y-73.25
X135.75Y-74.25
X136.0Y-53.0
X136.0Y-55.0
X136.0Y-57.0
X136.0Y-80.75
X136.0Y-81.75
X136.0Y-82.75
X136.0Y-89.75
X136.0Y-90.75
X136.0Y-91.75
X136.0Y-119.6
X136.0Y-123.2
X136.0Y-134.0
X136.0Y-136.0
X136.0Y-138.0
X136.3Y-105.4
X136.3Y-106.4
X136.3Y-107.4
X136.3Y-108.4
X136.75Y-63.25
X136.75Y-64.25
X136.75Y-65.25
X136.75Y-66.25
X136.75Y-67.25
X136.75Y-68.25
X136.75Y-69.25
X136.75Y-70.25
X136.75Y-71.25
X136.75Y-72.25
X136.75Y-73.25
X136.75Y-74.25
X137.0Y-52.0
X137.0Y-54.0
X137.0Y-56.0
X137.0Y-58.0
X137.0Y-80.75
X137.0Y-81.75
X137.0Y-82.75
X137.0Y-83.75
X137.0Y-84.75
X137.0Y-85.75
X137.0Y-86.75
X137.0Y-87.75
X137.0Y-88.75
X137.0Y-89.75
X137.0Y-90.75
X137.0Y-91.75
X137.0Y-119.6
X137.0Y-123.2
X137.0Y-135.0
X137.0Y-137.0
X137.1Y-114.1
X137.3Y-95.9
X137.75Y-63.25
X137.75Y-64.25
X137.75Y-65.25
X137.75Y-66.25
X137.75Y-67.25
X137.75Y-68.25
X137.75Y-69.25
X137.75Y-70.25
X137.75Y-71.25
X137.75Y-72.25
X137.75Y-73.25
X137.75Y-74.25
X138.0Y-53.0
X138.0Y-55.0
X138.0Y-57.0
X138.0Y-80.75
X138.0Y-81.75
X138.0Y-82.75
X138.0Y-83.75
X138.0Y-84.75
X138.0Y-85.75
X138.0Y-86.75
X138.0Y-87.75
X138.0Y-88.75
X138.0Y-89.75
X138.0Y-90.75
X138.0Y-91.75
X138.0Y-119.6
X138.0Y-134.0
X138.0Y-136.0
X138.0Y-138.0
X138.4Y-129.0
X138.6Y-127.3
X138.75Y-63.25
X138.75Y-64.25
X138.75Y-65.25
X138.75Y-66.25
X138.75Y-67.25
X138.75Y-68.25
X138.75Y-69.25
X138.75Y-70.25
X138.75Y-71.25
X138.75Y-72.25
X138.75Y-73.25
X138.75Y-74.25
X139.0Y-52.0
X139.0Y-54.0
X139.0Y-56.0
X139.0Y-58.0
X139.0Y-80.75
X139.0Y-81.75
X139.0Y-82.75
X139.0Y-83.75
X139.0Y-84.75
X139.0Y-85.75
X139.0Y-86.75
X139.0Y-87.75
X139.0Y-88.75
X139.0Y-89.75
X139.0Y-90.75
X139.0Y-91.75
X139.0Y-135.0
X139.0Y-137.0
X140.0Y-53.0
X140.0Y-55.0
X140.0Y-57.0
X140.0Y-63.0
X140.0Y-67.0
X140.0Y-71.0
X140.0Y-75.0
X140.0Y-84.0
X140.0Y-88.0
X140.0Y-92.0
X140.0Y-134.0
X140.0Y-136.0
X140.0Y-138.0
X141.0Y-52.0
X141.0Y-54.0
X141.0Y-56.0
X141.0Y-58.0
X141.0Y-98.0
X141.0Y-102.0
X141.0Y-106.0
X141.0Y-110.0
X141.0Y-133.0
X141.0Y-135.0
X141.0Y-137.0
X142.0Y-53.0
X142.0Y-55.0
X142.0Y-57.0
X142.0Y-61.8
X142.0Y-65.0
X142.0Y-69.0
X142.0Y-73.0
X142.0Y-82.0
X142.0Y-86.0
X142.0Y-90.0
X142.0Y-132.0
X142.0Y-134.0
X142.0Y-136.0
X142.0Y-138.0
X143.0Y-52.0
X143.0Y-54.0
X143.0Y-56.0
X143.0Y-58.0
X143.0Y-100.0
X143.0Y-104.0
X143.0Y-108.0
X143.0Y-117.0
X143.0Y-121.0
X143.0Y-125.0
X143.0Y-128.2
X143.0Y-133.0
X143.0Y-135.0
X143.0Y-137.0
X144.0Y-53.0
X144.0Y-55.0
X144.0Y-57.0
X144.0Y-80.0
X144.0Y-84.0
X144.0Y-88.0
X144.0Y-92.0
X144.0Y-132.0
X144.0Y-134.0
X144.0Y-136.0
X144.0Y-138.0
X145.0Y-52.0
X145.0Y-54.0
X145.0Y-56.0
X145.0Y-98.0
X145.0Y-102.0
X145.0Y-106.0
X145.0Y-115.0
X145.0Y-119.0
X145.0Y-123.0
X145.0Y-127.0
X145.0Y-133.0
X145.0Y-135.0
X145.0Y-137.0
X146.0Y-53.0
X146.0Y-55.0
X146.0Y-98.25
X146.0Y-99.25
X146.0Y-100.25
X146.0Y-101.25
X146.0Y-102.25
X146.0Y-103.25
X146.0Y-104.25
X146.0Y-105.25
X146.0Y-106.25
X146.0Y-107.25
X146.0Y-108.25
X146.0Y-109.25
X146.0Y-132.0
X146.0Y-134.0
X146.0Y-136.0
X146.0Y-138.0
X146.25Y-115.75
X146.25Y-116.75
X146.25Y-117.75
X146.25Y-118.75
X146.25Y-119.75
X146.25Y-120.75
X146.25Y-121.75
X146.25Y-122.75
X146.25Y-123.75
X146.25Y-124.75
X146.25Y-125.75
X146.25Y-126.75
X146.4Y-62.7
X146.6Y-61.0
X147.0Y-52.0
X147.0Y-54.0
X147.0Y-56.0
X147.0Y-70.4
X147.0Y-98.25
X147.0Y-99.25
X147.0Y-100.25
X147.0Y-101.25
X147.0Y-102.25
X147.0Y-103.25
X147.0Y-104.25
X147.0Y-105.25
X147.0Y-106.25
X147.0Y-107.25
X147.0Y-108.25
X147.0Y-109.25
X147.0Y-133.0
X147.0Y-135.0
X147.0Y-137.0
X147.25Y-115.75
X147.25Y-116.75
X147.25Y-117.75
X147.25Y-118.75
X147.25Y-119.75
X147.25Y-120.75
X147.25Y-121.75
X147.25Y-122.75
X147.25Y-123.75
X147.25Y-124.75
X147.25Y-125.75
X147.25Y-126.75
X147.7Y-94.1
X147.9Y-75.9
X148.0Y-53.0
X148.0Y-55.0
X148.0Y-66.8
X148.0Y-70.4
X148.0Y-98.25
X148.0Y-99.25
X148.0Y-100.25
X148.0Y-101.25
X148.0Y-102.25
X148.0Y-103.25
X148.0Y-104.25
X148.0Y-105.25
X148.0Y-106.25
X148.0Y-107.25
X148.0Y-108.25
X148.0Y-109.25
X148.0Y-132.0
X148.0Y-134.0
X148.0Y-136.0
X148.0Y-138.0
X148.25Y-115.75
X148.25Y-116.75
X148.25Y-117.75
X148.25Y-118.75
X148.25Y-119.75
X148.25Y-120.75
X148.25Y-121.75
X148.25Y-122.75
X148.25Y-123.75
X148.25Y-124.75
X148.25Y-125.75
X148.25Y-126.75
X148.7Y-81.6
X148.7Y-82.6
X148.7Y-83.6
X148.7Y-84.6
X149.0Y-52.0
X149.0Y-54.0
X149.0Y-56.0
X149.0Y-66.8
X149.0Y-70.4
X149.0Y-98.25
X149.0Y-99.25
X149.0Y-100.25
X149.0Y-107.25
X149.0Y-108.25
X149.0Y-109.25
X149.0Y-133.0
X149.0Y-135.0
X149.0Y-137.0
X149.25Y-115.75
X149.25Y-116.75
X149.25Y-117.75
X149.25Y-124.75
X149.25Y-125.75
X149.25Y-126.75
X149.7Y-61.7
X149.7Y-80.6
X149.7Y-81.6
X149.7Y-102.0
X149.7Y-103.0
X149.7Y-104.5
X149.7Y-105.5
X149.95Y-119.5
X149.95Y-120.5
X149.95Y-122.0
X149.95Y-123.0
X150.0Y-53.0
X150.0Y-55.0
X150.0Y-57.0
X150.0Y-70.4
X150.0Y-98.25
X150.0Y-99.25
X150.0Y-100.25
X150.0Y-107.25
X150.0Y-108.25
X150.0Y-109.25
X150.0Y-132.0
X150.0Y-136.0
X150.0Y-138.0
X150.25Y-115.75
X150.25Y-116.75
X150.25Y-117.75
X150.25Y-124.75
X150.25Y-125.75
X150.25Y-126.75
X150.8Y-102.0
X150.8Y-103.0
X150.8Y-104.5
X150.8Y-105.5
X151.0Y-52.0
X151.0Y-54.0
X151.0Y-56.0
X151.0Y-98.25
X151.0Y-99.25
X151.0Y-100.25
X151.0Y-107.25
X151.0Y-108.25
X151.0Y-109.25
X151.0Y-133.0
X151.0Y-137.0
X151.05Y-119.5
X151.05Y-120.5
X151.05Y-122.0
X151.05Y-123.0
X151.25Y-115.75
X151.25Y-116.75
X151.25Y-117.75
X151.25Y-124.75
X151.25Y-125.75
X151.25Y-126.75
X151.4Y-88.6
X151.9Y-102.0
X151.9Y-103.0
X151.9Y-104.5
X151.9Y-105.5
X152.0Y-53.0
X152.0Y-55.0
X152.0Y-98.25
X152.0Y-99.25
X152.0Y-100.25
X152.0Y-107.25
X152.0Y-108.25
X152.0Y-109.25
X152.0Y-132.0
X152.0Y-136.0
X152.0Y-138.0
X152.15Y-119.5
X152.15Y-120.5
X152.15Y-122.0
X152.15Y-123.0
X152.25Y-115.75
X152.25Y-116.75
X152.25Y-117.75
X152.25Y-124.75
X152.25Y-125.75
X152.25Y-126.75
X153.0Y-52.0
X153.0Y-54.0
X153.0Y-98.25
X153.0Y-99.25
X153.0Y-100.25
X153.0Y-102.0
X153.0Y-103.0
X153.0Y-104.5
X153.0Y-105.5
X153.0Y-107.25
X153.0Y-108.25
X153.0Y-109.25
X153.0Y-133.0
X153.0Y-135.0
X153.0Y-137.0
X153.25Y-59.75
X153.25Y-60.75
X153.25Y-61.75
X153.25Y-62.75
X153.25Y-63.75
X153.25Y-74.25
X153.25Y-75.25
X153.25Y-76.25
X153.25Y-77.25
X153.25Y-78.25
X153.25Y-115.75
X153.25Y-116.75
X153.25Y-117.75
X153.25Y-119.5
X153.25Y-120.5
X153.25Y-122.0
X153.25Y-123.0
X153.25Y-124.75
X153.25Y-125.75
X153.25Y-126.75
X153.3Y-56.15
X153.4Y-85.4
X153.5Y-58.0
X154.0Y-53.0
X154.0Y-132.0
X154.0Y-134.0
X154.0Y-136.0
X154.0Y-138.0
X154.25Y-59.75
X154.25Y-60.75
X154.25Y-61.75
X154.25Y-62.75
X154.25Y-63.75
X154.25Y-74.25
X154.25Y-75.25
X154.25Y-76.25
X154.25Y-77.25
X154.25Y-78.25
X154.25Y-80.0
X155.0Y-52.0
X155.0Y-54.0
X155.0Y-98.25
X155.0Y-99.25
X155.0Y-100.25
X155.0Y-107.25
X155.0Y-108.25
X155.0Y-109.25
X155.1Y-115.65
X155.1Y-116.65
X155.1Y-117.65
X155.1Y-124.65
X155.1Y-125.65
X155.1Y-126.65
X155.25Y-60.75
X155.25Y-74.25
X155.25Y-75.25
X155.25Y-76.25
X155.25Y-77.25
X155.25Y-78.25
X155.25Y-80.0
X155.5Y-65.5
X156.0Y-53.0
X156.0Y-98.25
X156.0Y-99.25
X156.0Y-100.25
X156.0Y-101.25
X156.0Y-102.25
X156.0Y-103.25
X156.0Y-104.35
X156.0Y-105.25
X156.0Y-106.25
X156.0Y-107.25
X156.0Y-108.25
X156.0Y-109.25
X156.0Y-132.0
X156.0Y-136.0
X156.0Y-138.0
X156.1Y-115.65
X156.1Y-116.65
X156.1Y-117.65
X156.1Y-118.65
X156.1Y-119.65
X156.1Y-120.65
X156.1Y-121.65
X156.1Y-122.65
X156.1Y-123.65
X156.1Y-124.65
X156.1Y-125.65
X156.1Y-126.65
X156.3Y-85.6
X157.0Y-52.0
X157.0Y-54.0
X157.0Y-55.15
X157.0Y-94.1
X157.0Y-98.25
X157.0Y-99.25
X157.0Y-100.25
X157.0Y-101.25
X157.0Y-102.25
X157.0Y-103.25
X157.0Y-104.35
X157.0Y-105.25
X157.0Y-106.25
X157.0Y-107.25
X157.0Y-108.25
X157.0Y-109.25
X157.1Y-115.65
X157.1Y-116.65
X157.1Y-117.65
X157.1Y-118.65
X157.1Y-119.65
X157.1Y-120.65
X157.1Y-121.65
X157.1Y-122.65
X157.1Y-123.65
X157.1Y-124.65
X157.1Y-125.65
X157.1Y-126.65
X157.4Y-70.5
X158.0Y-53.0
X158.0Y-132.0
X158.0Y-134.0
X158.0Y-136.0
X158.0Y-138.0
X158.75Y-74.043
X158.9Y-73.15
X159.0Y-52.0
X159.4Y-58.3
X159.8Y-53.2
X160.0Y-132.0
X160.0Y-134.0
X160.0Y-136.0
X160.0Y-138.0
X160.1Y-84.0
X160.175Y-58.943
X161.0Y-52.0
X161.0Y-54.0
X161.7Y-87.6
X162.0Y-132.0
X162.0Y-134.0
X162.0Y-136.0
X162.0Y-138.0
X164.0Y-132.0
X164.0Y-134.0
X164.0Y-136.0
X164.0Y-138.0
X164.25Y-67.0
X164.5Y-76.25
X164.5Y-79.5
X164.5Y-85.0
X165.0Y-52.0
X165.2Y-57.0
X165.9Y-83.6
X166.0Y-132.0
X166.0Y-134.0
X166.0Y-136.0
X166.0Y-138.0
X166.1Y-68.3
X166.5Y-116.7
X166.5Y-117.7
X166.5Y-118.7
X166.5Y-119.7
X166.5Y-120.6
X166.5Y-121.7
X166.5Y-122.7
X166.5Y-123.7
X166.5Y-124.7
X166.5Y-125.7
X166.6Y-99.3
X166.6Y-100.3
X166.6Y-101.3
X166.6Y-102.3
X166.6Y-103.3
X166.6Y-104.3
X166.6Y-105.3
X166.6Y-106.3
X166.6Y-107.3
X166.6Y-108.3
X166.7Y-85.8
X167.5Y-115.7
X167.5Y-116.7
X167.5Y-117.7
X167.5Y-118.7
X167.5Y-119.7
X167.5Y-120.6
X167.5Y-121.7
X167.5Y-122.7
X167.5Y-123.7
X167.5Y-124.7
X167.5Y-125.7
X167.5Y-126.7
X167.6Y-98.3
X167.6Y-99.3
X167.6Y-100.3
X167.6Y-101.3
X167.6Y-102.3
X167.6Y-103.3
X167.6Y-104.3
X167.6Y-105.3
X167.6Y-106.3
X167.6Y-107.3
X167.6Y-108.3
X167.6Y-109.3
X168.0Y-132.0
X168.0Y-134.0
X168.0Y-136.0
X168.0Y-138.0
X168.3Y-57.0
X168.5Y-115.7
X168.5Y-116.7
X168.5Y-117.7
X168.5Y-118.7
X168.5Y-119.7
X168.5Y-120.6
X168.5Y-121.7
X168.5Y-122.7
X168.5Y-123.7
X168.5Y-124.7
X168.5Y-125.7
X168.5Y-126.7
X168.6Y-98.3
X168.6Y-99.3
X168.6Y-100.3
X168.6Y-101.3
X168.6Y-102.3
X168.6Y-103.3
X168.6Y-104.3
X168.6Y-105.3
X168.6Y-106.3
X168.6Y-107.3
X168.6Y-108.3
X168.6Y-109.3
X169.0Y-52.0
X169.0Y-54.0
X169.0Y-79.9
X169.1Y-83.8
X169.1Y-88.1
X169.5Y-115.7
X169.5Y-116.7
X169.5Y-117.7
X169.5Y-124.7
X169.5Y-125.7
X169.5Y-126.7
X169.6Y-98.3
X169.6Y-99.3
X169.6Y-100.3
X169.6Y-107.3
X169.6Y-108.3
X169.6Y-109.3
X169.9Y-77.3
X170.0Y-94.1
X170.0Y-132.0
X170.0Y-134.0
X170.0Y-136.0
X170.0Y-138.0
X170.2Y-55.9
X170.2Y-119.45
X170.2Y-120.45
X170.2Y-121.95
X170.2Y-122.95
X170.3Y-102.05
X170.3Y-103.05
X170.3Y-104.55
X170.3Y-105.55
X170.5Y-51.8
X170.5Y-67.2
X170.5Y-115.7
X170.5Y-116.7
X170.5Y-117.7
X170.5Y-124.7
X170.5Y-125.7
X170.5Y-126.7
X170.6Y-59.2
X170.6Y-75.7
X170.6Y-98.3
X170.6Y-99.3
X170.6Y-100.3
X170.6Y-107.3
X170.6Y-108.3
X170.6Y-109.3
X171.0Y-79.3
X171.3Y-119.45
X171.3Y-120.45
X171.3Y-121.95
X171.3Y-122.95
X171.4Y-92.0
X171.4Y-102.05
X171.4Y-103.05
X171.4Y-104.55
X171.4Y-105.55
X171.5Y-115.7
X171.5Y-116.7
X171.5Y-117.7
X171.5Y-124.7
X171.5Y-125.7
X171.5Y-126.7
X171.6Y-98.3
X171.6Y-99.3
X171.6Y-100.3
X171.6Y-107.3
X171.6Y-108.3
X171.6Y-109.3
X172.0Y-132.0
X172.0Y-134.0
X172.0Y-136.0
X172.0Y-138.0
X172.4Y-119.45
X172.4Y-120.45
X172.4Y-121.95
X172.4Y-122.95
X172.5Y-85.7
X172.5Y-90.3
X172.5Y-102.05
X172.5Y-103.05
X172.5Y-104.55
X172.5Y-105.55
X172.5Y-115.7
X172.5Y-116.7
X172.5Y-117.7
X172.5Y-124.7
X172.5Y-125.7
X172.5Y-126.7
X172.558Y-77.558
X172.6Y-98.3
X172.6Y-99.3
X172.6Y-100.3
X172.6Y-107.3
X172.6Y-108.3
X172.6Y-109.3
X173.3Y-79.1
X173.4Y-69.1
X173.5Y-115.7
X173.5Y-116.7
X173.5Y-117.7
X173.5Y-119.45
X173.5Y-120.45
X173.5Y-121.95
X173.5Y-122.95
X173.5Y-124.7
X173.5Y-125.7
X173.5Y-126.7
X173.6Y-98.3
X173.6Y-99.3
X173.6Y-100.3
X173.6Y-102.05
X173.6Y-103.05
X173.6Y-104.55
X173.6Y-105.55
X173.6Y-107.3
X173.6Y-108.3
X173.6Y-109.3
X173.8Y-70.3
X174.0Y-132.0
X174.0Y-134.0
X174.0Y-136.0
X174.0Y-138.0
X174.5Y-72.5
X174.7Y-52.1
X175.1Y-112.5
X175.2Y-64.8
X175.45Y-98.35
X175.45Y-99.35
X175.45Y-100.35
X175.45Y-107.35
X175.45Y-108.35
X175.45Y-109.35
X175.45Y-115.75
X175.45Y-116.75
X175.45Y-117.75
X175.45Y-124.75
X175.45Y-125.75
X175.45Y-126.75
X175.6Y-95.9
X176.0Y-132.0
X176.0Y-134.0
X176.0Y-136.0
X176.0Y-138.0
X176.4Y-56.8
X176.4Y-66.0
X176.45Y-98.35
X176.45Y-99.35
X176.45Y-100.35
X176.45Y-101.35
X176.45Y-102.35
X176.45Y-103.35
X176.45Y-104.35
X176.45Y-105.35
X176.45Y-106.35
X176.45Y-107.35
X176.45Y-108.35
X176.45Y-109.35
X176.45Y-115.75
X176.45Y-116.75
X176.45Y-117.75
X176.45Y-118.75
X176.45Y-119.75
X176.45Y-120.75
X176.45Y-121.75
X176.45Y-122.75
X176.45Y-123.75
X176.45Y-124.75
X176.45Y-125.75
X176.45Y-126.75
X177.0Y-82.1
X177.0Y-88.1
X177.1Y-74.0
X177.45Y-98.35
X177.45Y-99.35
X177.45Y-100.35
X177.45Y-101.35
X177.45Y-102.35
X177.45Y-103.35
X177.45Y-104.35
X177.45Y-105.35
X177.45Y-106.35
X177.45Y-107.35
X177.45Y-108.35
X177.45Y-109.35
X177.45Y-115.75
X177.45Y-116.75
X177.45Y-117.75
X177.45Y-118.75
X177.45Y-119.75
X177.45Y-120.75
X177.45Y-121.75
X177.45Y-122.75
X177.45Y-123.75
X177.45Y-124.75
X177.45Y-125.75
X177.45Y-126.75
X177.6Y-61.6
X177.9Y-52.1
X178.0Y-130.0
X178.0Y-132.0
X178.0Y-134.0
X178.0Y-136.0
X178.0Y-138.0
X178.4Y-54.3
X178.45Y-98.35
X178.45Y-99.35
X178.45Y-100.35
X178.45Y-101.35
X178.45Y-102.35
X178.45Y-103.35
X178.45Y-104.35
X178.45Y-105.35
X178.45Y-106.35
X178.45Y-107.35
X178.45Y-108.35
X178.45Y-109.35
X178.45Y-115.75
X178.45Y-116.75
X178.45Y-117.75
X178.45Y-118.75
X178.45Y-119.75
X178.45Y-120.75
X178.45Y-121.75
X178.45Y-122.75
X178.45Y-123.75
X178.45Y-124.75
X178.45Y-125.75
X178.45Y-126.75
X179.7Y-82.5
X179.75Y-79.0
X180.0Y-62.9
X180.0Y-130.0
X180.0Y-132.0
X180.0Y-134.0
X180.0Y-136.0
X180.0Y-138.0
X180.1Y-67.1
X180.4Y-56.7
X180.4Y-69.3
X181.0Y-96.0
X181.0Y-98.0
X181.0Y-100.0
X181.0Y-102.0
X181.0Y-104.0
X181.0Y-106.0
X181.0Y-108.0
X181.0Y-110.0
X181.0Y-112.0
X181.0Y-114.0
X181.0Y-116.0
X181.0Y-118.0
X181.0Y-120.0
X181.0Y-122.0
X181.0Y-124.0
X181.0Y-126.0
X181.0Y-128.0
X181.8Y-82.5
X182.0Y-51.8
X182.0Y-94.0
X182.0Y-130.0
X182.0Y-132.0
X182.0Y-134.0
X182.0Y-136.0
X182.0Y-138.0
X183.0Y-98.0
X183.0Y-100.0
X183.0Y-102.0
X183.0Y-104.0
X183.0Y-106.0
X183.0Y-108.0
X183.0Y-110.0
X183.0Y-112.0
X183.0Y-114.0
X183.0Y-116.0
X183.0Y-118.0
X183.0Y-120.0
X183.0Y-122.0
X183.0Y-124.0
X183.0Y-126.0
X183.0Y-128.0
X183.2Y-53.8
X183.7Y-86.4
X183.7Y-89.8
X183.8Y-61.7
X183.8Y-65.2
X183.8Y-73.2
X183.8Y-81.0
X184.03Y-51.47
T2
X103.2Y-128.1
X103.3Y-132.9
X107.8Y-117.6
X107.8Y-118.95
X107.8Y-120.2
X108.2Y-112.3
X108.4Y-127.4
X109.0Y-110.9
X109.8Y-112.4
X110.4Y-120.8
X110.5Y-61.6
X110.5Y-110.7
X110.6Y-75.4
X110.6Y-79.7
X110.6Y-93.65
X112.3Y-117.8
X112.7Y-120.6
X113.0Y-124.5
X113.2Y-106.5
X115.7Y-126.2
X116.333Y-119.416
X116.4Y-117.0
X116.451Y-111.776
X116.525Y-114.536
X116.684Y-121.684
X117.5Y-120.6
X119.3Y-123.0
X121.55Y-119.1
X121.6Y-135.9
X124.9Y-115.6
X124.949Y-114.344
X124.95Y-119.0
X124.968Y-113.344
X124.987Y-128.113
X125.0Y-129.113
X125.022Y-130.179
X125.025Y-127.1
X125.1Y-116.7
X125.202Y-125.261
X125.7Y-111.974
X130.9Y-61.7
X130.9Y-75.9
X131.0Y-79.4
X131.0Y-92.8
X131.6Y-108.9
X131.7Y-124.3
X153.3Y-65.7
X153.4Y-81.1
X154.0Y-97.2
X154.0Y-110.6
X154.1Y-114.1
X154.1Y-128.3
X159.3Y-78.026
X159.798Y-64.739
X159.9Y-73.3
X159.975Y-62.9
X159.978Y-59.821
X160.0Y-60.887
X160.013Y-61.887
X160.032Y-76.656
X160.05Y-71.0
X160.051Y-75.656
X160.1Y-74.4
X163.4Y-54.1
X163.45Y-70.9
X165.7Y-67.0
X167.5Y-69.4
X168.316Y-68.316
X168.475Y-75.464
X168.549Y-78.224
X168.6Y-73.0
X168.667Y-70.584
X169.3Y-63.8
X171.8Y-83.5
X172.0Y-65.5
X172.3Y-69.4
X172.7Y-72.2
X174.4Y-96.35
X174.4Y-110.3
X174.4Y-114.6
X174.5Y-79.3
X174.5Y-128.4
X174.6Y-69.2
X175.2Y-77.6
X176.0Y-79.1
X176.6Y-62.6
X176.8Y-77.7
X177.2Y-69.8
X177.2Y-71.05
X177.2Y-72.4
X181.7Y-57.1
X181.8Y-61.9
T3
X104.16Y-98.18
X104.16Y-105.8
X106.7Y-98.18
X106.7Y-105.8
X109.24Y-98.18
X109.24Y-105.8
X111.78Y-98.18
X111.78Y-105.8
X173.22Y-84.2
X173.22Y-91.82
X175.76Y-84.2
X175.76Y-91.82
X178.3Y-84.2
X178.3Y-91.82
X180.84Y-84.2
X180.84Y-91.82
T4
X150.45Y-90.3
X152.99Y-90.3
X155.53Y-90.3
X158.07Y-90.3
X160.61Y-90.3
X124.39Y-99.7
X126.93Y-99.7
X129.47Y-99.7
X132.01Y-99.7
X134.55Y-99.7
T5
X164.02Y-89.9
X166.56Y-89.9
X169.1Y-89.9
X115.9Y-100.1
X118.44Y-100.1
X120.98Y-100.1
X150.7Y-134.5
X155.78Y-134.5
X129.22Y-55.5
X134.3Y-55.5
T6
X160.4Y-117.6
X160.4Y-124.8
X160.4Y-100.2
X160.4Y-107.4
X124.6Y-65.2
X124.6Y-72.4
X124.6Y-82.6
X124.6Y-89.8
T5
G00X167.0Y-114.45
M15
G01X165.8Y-114.45
M16
G05
G00X167.0Y-127.95
M15
G01X165.8Y-127.95
M16
G05
G00X167.0Y-97.05
M15
G01X165.8Y-97.05
M16
G05
G00X167.0Y-110.55
M15
G01X165.8Y-110.55
M16
G05
G00X118.0Y-62.05
M15
G01X119.2Y-62.05
M16
G05
G00X118.0Y-75.55
M15
G01X119.2Y-75.55
M16
G05
G00X118.0Y-79.45
M15
G01X119.2Y-79.45
M16
G05
G00X118.0Y-92.95
M15
G01X119.2Y-92.95
M16
G05
T0
M30
